o convex_0
v -0.022117 -0.053370 -0.018086
v -0.024939 -0.040379 -0.044066
v -0.026074 -0.040379 -0.042934
v 0.002733 -0.039816 -0.014128
v -0.004047 -0.053368 -0.035025
v -0.036237 -0.039814 -0.027685
v -0.020425 -0.060149 -0.025991
v 0.001037 -0.039816 -0.034458
v -0.018729 -0.039814 -0.013000
v -0.008566 -0.050543 -0.041805
v -0.029458 -0.056192 -0.027120
v -0.000655 -0.051110 -0.026556
v -0.017037 -0.060149 -0.024301
v -0.029458 -0.052239 -0.020908
v -0.005174 -0.040381 -0.011303
v 0.001602 -0.047722 -0.032200
v -0.004608 -0.043769 -0.040673
v -0.036237 -0.040945 -0.031068
v -0.023809 -0.047159 -0.015257
v -0.011388 -0.055066 -0.036719
v -0.022682 -0.039814 -0.044066
v -0.024939 -0.059019 -0.023733
v 0.003863 -0.039816 -0.027685
v -0.022117 -0.047724 -0.039541
v 0.000471 -0.040381 -0.012435
v -0.002351 -0.047722 -0.038415
v -0.024939 -0.043206 -0.015828
v 0.002167 -0.047159 -0.025427
v -0.030588 -0.051674 -0.030507
v -0.016472 -0.052239 -0.017518
v -0.010827 -0.057325 -0.032200
v -0.005174 -0.039816 -0.038976
v -0.002351 -0.050545 -0.023169
v -0.030027 -0.055627 -0.024862
v -0.019860 -0.046594 -0.014128
v -0.000655 -0.051674 -0.028810
v -0.027201 -0.047159 -0.017518
v -0.010827 -0.051108 -0.041237
v -0.026074 -0.057886 -0.027120
v -0.012519 -0.039814 -0.011303
v -0.036237 -0.041510 -0.027685
v -0.027201 -0.039814 -0.018650
v 0.003863 -0.040381 -0.019215
v -0.008566 -0.055066 -0.036719
v -0.027766 -0.054500 -0.020908
v -0.036807 -0.039814 -0.030507
v -0.018729 -0.059584 -0.023166
v -0.005739 -0.043769 -0.041241
v 0.002733 -0.040381 -0.014128
v -0.002351 -0.050545 -0.036719
v -0.014215 -0.054500 -0.019779
v 0.002167 -0.042639 -0.032764
v 0.001037 -0.049416 -0.031636
f 50 16 53 
f 6 9 21 
f 10 2 21 
f 7 13 22 
f 8 21 23 
f 4 15 25 
f 17 8 26 
f 10 17 26 
f 19 9 27 
f 16 23 28 
f 3 2 29 
f 18 3 29 
f 11 18 29 
f 2 24 29 
f 24 11 29 
f 25 15 30 
f 13 7 31 
f 7 20 31 
f 8 17 32 
f 21 8 32 
f 13 12 33 
f 18 11 34 
f 11 22 34 
f 19 1 35 
f 1 30 35 
f 30 15 35 
f 12 13 36 
f 28 12 36 
f 31 5 36 
f 13 31 36 
f 14 19 37 
f 27 6 37 
f 19 27 37 
f 2 10 38 
f 24 2 38 
f 24 38 39 
f 20 7 39 
f 7 22 39 
f 22 11 39 
f 11 24 39 
f 38 20 39 
f 15 4 40 
f 9 19 40 
f 21 9 40 
f 4 23 40 
f 23 21 40 
f 35 15 40 
f 19 35 40 
f 34 14 41 
f 37 6 41 
f 14 37 41 
f 9 6 42 
f 6 27 42 
f 27 9 42 
f 23 4 43 
f 28 23 43 
f 10 5 44 
f 5 31 44 
f 31 20 44 
f 38 10 44 
f 20 38 44 
f 1 19 45 
f 19 14 45 
f 22 1 45 
f 14 34 45 
f 34 22 45 
f 2 3 46 
f 3 18 46 
f 21 2 46 
f 6 21 46 
f 18 34 46 
f 41 6 46 
f 34 41 46 
f 1 22 47 
f 22 13 47 
f 30 1 47 
f 17 10 48 
f 10 21 48 
f 32 17 48 
f 21 32 48 
f 4 25 49 
f 25 13 49 
f 12 28 49 
f 33 12 49 
f 13 33 49 
f 43 4 49 
f 28 43 49 
f 5 10 50 
f 10 26 50 
f 26 16 50 
f 13 25 51 
f 25 30 51 
f 47 13 51 
f 30 47 51 
f 23 16 52 
f 8 23 52 
f 26 8 52 
f 16 26 52 
f 16 28 53 
f 36 5 53 
f 28 36 53 
f 5 50 53 
o convex_1
v -0.022685 0.021759 0.096022
v -0.001220 0.025711 0.048011
v -0.001220 0.023452 0.048011
v -0.014209 0.025711 0.046314
v -0.011952 0.016110 0.046314
v -0.011952 0.018370 0.094320
v -0.014209 0.029099 0.097713
v -0.005174 0.029100 0.046314
v -0.018728 0.016676 0.098281
v -0.002350 0.018934 0.046314
v -0.019294 0.027969 0.094320
v -0.010824 0.025711 0.097713
v -0.010824 0.015547 0.062141
v -0.010259 0.029099 0.046314
v -0.014774 0.018370 0.050270
v -0.009696 0.028535 0.088679
v -0.022685 0.019499 0.098281
v -0.008565 0.020628 0.085852
v -0.022117 0.025146 0.097146
v -0.016468 0.017240 0.099977
v -0.016468 0.016110 0.071743
v -0.013080 0.016676 0.089235
v -0.007435 0.026275 0.082459
v -0.016468 0.029099 0.097713
v -0.011952 0.028535 0.046314
v -0.008000 0.016110 0.046314
v -0.008565 0.017240 0.072300
v -0.002915 0.027971 0.046314
v -0.021552 0.021759 0.099410
v -0.011389 0.023452 0.098843
v -0.001220 0.021193 0.046882
v -0.015339 0.016110 0.090937
v -0.021552 0.025711 0.094320
v -0.020989 0.017805 0.093763
v -0.013080 0.016676 0.046314
v -0.010824 0.018934 0.092634
v -0.014774 0.019499 0.049146
v -0.022685 0.019499 0.096584
v -0.010259 0.029099 0.086415
v -0.017600 0.016110 0.086982
v -0.012517 0.015547 0.058186
v -0.011952 0.025711 0.098843
v -0.022117 0.024017 0.093763
v -0.008565 0.021759 0.086982
v -0.008000 0.016110 0.050837
v -0.001220 0.026276 0.046882
v -0.013648 0.026840 0.046314
f 86 64 100 
f 58 57 61 
f 58 61 63 
f 61 57 67 
f 60 65 69 
f 54 70 72 
f 70 62 73 
f 59 73 75 
f 56 55 76 
f 69 65 76 
f 60 61 77 
f 61 67 77 
f 64 72 77 
f 67 57 78 
f 77 67 78 
f 64 77 78 
f 58 63 79 
f 75 66 80 
f 63 61 81 
f 72 70 82 
f 70 73 82 
f 77 72 82 
f 73 59 83 
f 55 56 84 
f 71 63 84 
f 73 62 85 
f 66 75 85 
f 75 73 85 
f 72 64 86 
f 62 70 87 
f 57 58 88 
f 58 74 88 
f 63 71 89 
f 59 75 89 
f 80 63 89 
f 75 80 89 
f 83 59 89 
f 54 57 90 
f 57 88 90 
f 88 68 90 
f 70 54 91 
f 87 70 91 
f 74 87 91 
f 88 74 91 
f 68 88 91 
f 54 90 91 
f 90 68 91 
f 61 60 92 
f 60 69 92 
f 81 61 92 
f 69 81 92 
f 85 62 93 
f 66 85 93 
f 62 87 93 
f 87 74 93 
f 74 58 94 
f 58 79 94 
f 79 66 94 
f 66 93 94 
f 93 74 94 
f 65 60 95 
f 60 77 95 
f 82 73 95 
f 77 82 95 
f 83 65 95 
f 73 83 95 
f 57 54 96 
f 54 72 96 
f 86 57 96 
f 72 86 96 
f 56 76 97 
f 76 65 97 
f 65 83 97 
f 84 56 97 
f 71 84 97 
f 89 71 97 
f 83 89 97 
f 79 63 98 
f 66 79 98 
f 63 80 98 
f 80 66 98 
f 76 55 99 
f 69 76 99 
f 63 81 99 
f 81 69 99 
f 55 84 99 
f 84 63 99 
f 78 57 100 
f 64 78 100 
f 57 86 100 
o convex_2
v 0.050183 0.042655 -0.013001
v 0.036060 0.026282 -0.036158
v 0.011209 0.021760 -0.035590
v 0.020249 0.021760 0.005636
v 0.031538 0.049434 -0.017513
v 0.050744 0.021758 -0.022597
v 0.004994 0.027973 -0.003396
v 0.038885 0.042093 0.003380
v 0.029284 0.046046 -0.033893
v 0.048485 0.037574 -0.031073
v 0.008385 0.034186 -0.023161
v 0.032670 0.049434 -0.001136
v 0.004994 0.021760 0.005636
v 0.042275 0.031929 0.002252
v 0.042841 0.051130 -0.015257
v 0.004994 0.022326 -0.032197
v 0.045100 0.021758 -0.034462
v 0.053573 0.031929 -0.015825
v 0.049617 0.043786 -0.024293
v 0.042275 0.025151 -0.004529
v 0.033235 0.044349 -0.035026
v 0.053008 0.030233 -0.025989
v 0.046227 0.043221 -0.004529
v 0.046227 0.030233 -0.035026
v 0.004994 0.027973 -0.028245
v 0.039450 0.047740 -0.028809
v 0.050744 0.031929 -0.008485
v 0.028157 0.047740 -0.007917
v 0.032104 0.045477 0.002252
v 0.036626 0.051696 -0.015257
v 0.036626 0.049434 -0.001136
v 0.007258 0.033055 -0.015821
v 0.038885 0.036448 0.004512
v 0.026464 0.044912 -0.033329
v 0.053008 0.037574 -0.022597
v 0.052442 0.025151 -0.018077
v 0.049617 0.024020 -0.031633
v 0.050183 0.038136 -0.007353
v 0.042275 0.051130 -0.010745
v 0.026464 0.042655 -0.035026
v 0.036626 0.021758 -0.006221
v 0.041709 0.049996 -0.023161
v 0.013468 0.022892 0.006208
v 0.004994 0.023454 0.004508
v 0.045100 0.038699 -0.000576
v 0.026464 0.046609 -0.018077
v 0.042841 0.043221 -0.031633
v 0.030411 0.041524 -0.035590
v 0.042841 0.029102 -0.036154
v 0.051310 0.034186 -0.029377
v 0.048485 0.046046 -0.013565
v 0.053008 0.038699 -0.017513
v 0.033235 0.050565 -0.003401
v 0.004994 0.030798 -0.018077
v 0.006692 0.021760 -0.033893
v 0.029845 0.047171 -0.031633
v 0.006126 0.028539 -0.029377
v 0.041709 0.029102 0.000556
v 0.029284 0.047740 -0.003401
v 0.050183 0.028542 -0.010177
v 0.053573 0.029102 -0.023725
v 0.041709 0.033623 0.003380
v 0.038885 0.045477 0.001684
v 0.032670 0.044349 0.002816
f 163 129 164 
f 113 107 116 
f 103 102 117 
f 116 107 125 
f 121 109 126 
f 112 129 131 
f 128 111 132 
f 120 106 136 
f 118 127 136 
f 106 117 137 
f 117 124 137 
f 101 123 138 
f 127 118 138 
f 115 130 139 
f 109 121 140 
f 134 109 140 
f 104 113 141 
f 117 106 141 
f 120 104 141 
f 106 120 141 
f 115 119 142 
f 119 126 142 
f 130 115 142 
f 113 104 143 
f 104 133 143 
f 112 107 144 
f 107 113 144 
f 129 112 144 
f 113 129 144 
f 138 123 145 
f 127 138 145 
f 111 128 146 
f 128 105 146 
f 134 111 146 
f 119 110 147 
f 124 121 147 
f 110 124 147 
f 126 119 147 
f 121 126 147 
f 102 103 148 
f 103 140 148 
f 140 121 148 
f 117 102 149 
f 124 117 149 
f 121 124 149 
f 102 148 149 
f 148 121 149 
f 110 119 150 
f 124 110 150 
f 119 135 150 
f 135 122 150 
f 122 137 150 
f 137 124 150 
f 119 115 151 
f 123 101 151 
f 115 139 151 
f 139 123 151 
f 118 135 152 
f 135 119 152 
f 101 138 152 
f 138 118 152 
f 119 151 152 
f 151 101 152 
f 105 128 153 
f 130 105 153 
f 112 131 153 
f 139 130 153 
f 131 139 153 
f 125 107 154 
f 111 125 154 
f 107 132 154 
f 132 111 154 
f 113 116 155 
f 103 117 155 
f 140 103 155 
f 141 113 155 
f 117 141 155 
f 126 109 156 
f 105 130 156 
f 109 134 156 
f 142 126 156 
f 130 142 156 
f 146 105 156 
f 134 146 156 
f 125 111 157 
f 116 125 157 
f 111 134 157 
f 134 140 157 
f 155 116 157 
f 140 155 157 
f 114 104 158 
f 104 120 158 
f 107 112 159 
f 132 107 159 
f 128 132 159 
f 112 153 159 
f 153 128 159 
f 127 114 160 
f 120 136 160 
f 136 127 160 
f 114 158 160 
f 158 120 160 
f 135 118 161 
f 122 135 161 
f 136 106 161 
f 118 136 161 
f 106 137 161 
f 137 122 161 
f 104 114 162 
f 114 127 162 
f 133 104 162 
f 108 133 162 
f 145 108 162 
f 127 145 162 
f 131 129 163 
f 123 139 163 
f 139 131 163 
f 108 145 163 
f 145 123 163 
f 129 113 164 
f 133 108 164 
f 113 143 164 
f 143 133 164 
f 108 163 164 
o convex_3
v -0.037934 -0.029083 -0.040107
v -0.012517 -0.025129 -0.002269
v -0.013649 -0.025129 -0.002269
v -0.012517 -0.039814 -0.011311
v -0.015343 -0.025129 -0.041802
v -0.023253 -0.039814 -0.044625
v -0.036240 -0.039814 -0.027680
v -0.036805 -0.025129 -0.049710
v -0.022123 -0.025129 -0.005659
v -0.012517 -0.039814 -0.036155
v -0.036805 -0.025693 -0.035588
v -0.017602 -0.029648 -0.003402
v -0.028895 -0.034163 -0.049144
v -0.012517 -0.025129 -0.029941
v -0.036805 -0.039814 -0.031070
v -0.028331 -0.039814 -0.019214
v -0.017602 -0.029083 -0.044063
v -0.026639 -0.032471 -0.049144
v -0.036805 -0.027388 -0.048577
v -0.019862 -0.039814 -0.013567
v -0.018167 -0.025129 -0.044063
v -0.037370 -0.029083 -0.034455
v -0.012517 -0.030213 -0.002831
v -0.020426 -0.026823 -0.003964
v -0.026074 -0.039814 -0.044063
v -0.033416 -0.025129 -0.049710
v -0.036805 -0.025129 -0.036721
v -0.014214 -0.025129 -0.039540
v -0.033981 -0.035858 -0.024299
v -0.023253 -0.039248 -0.045192
v -0.014214 -0.032471 -0.004531
v -0.029460 -0.034728 -0.048015
v -0.037370 -0.036988 -0.034455
v -0.037934 -0.027953 -0.036721
v -0.037370 -0.025129 -0.049144
f 198 191 199 
f 167 166 169 
f 170 168 171 
f 167 169 172 
f 167 172 173 
f 166 168 174 
f 168 170 174 
f 169 166 178 
f 166 174 178 
f 170 171 179 
f 171 168 180 
f 169 174 181 
f 172 177 183 
f 180 168 184 
f 176 180 184 
f 172 169 185 
f 169 181 185 
f 181 182 185 
f 173 175 186 
f 166 167 187 
f 168 166 187 
f 167 176 187 
f 167 173 188 
f 173 171 188 
f 176 167 188 
f 171 180 188 
f 180 176 188 
f 170 179 189 
f 177 172 190 
f 182 177 190 
f 172 185 190 
f 185 182 190 
f 173 172 191 
f 175 173 191 
f 174 169 192 
f 169 178 192 
f 178 174 192 
f 171 173 193 
f 186 171 193 
f 173 186 193 
f 174 170 194 
f 181 174 194 
f 177 182 194 
f 182 181 194 
f 170 189 194 
f 189 177 194 
f 184 168 195 
f 176 184 195 
f 168 187 195 
f 187 176 195 
f 183 177 196 
f 177 189 196 
f 189 179 196 
f 183 196 197 
f 196 179 197 
f 179 171 198 
f 171 186 198 
f 186 175 198 
f 175 191 198 
f 197 179 198 
f 165 197 198 
f 172 183 199 
f 191 172 199 
f 197 165 199 
f 183 197 199 
f 165 198 199 
o convex_4
v -0.012517 -0.039814 -0.036153
v 0.012338 -0.029647 -0.012436
v 0.012338 -0.031341 -0.012436
v -0.012517 -0.026823 -0.002268
v -0.012517 -0.025129 -0.029942
v -0.011386 -0.039814 -0.010739
v 0.001037 -0.039814 -0.034460
v 0.008379 -0.025129 -0.016957
v 0.003861 -0.039248 -0.012436
v -0.002347 -0.025129 -0.001700
v 0.002732 -0.033033 -0.005657
v -0.002912 -0.038683 -0.037285
v 0.008946 -0.030213 -0.022032
v -0.000090 -0.025129 -0.024292
v 0.011206 -0.034163 -0.017521
v -0.012517 -0.031343 -0.003397
v 0.006688 -0.025693 -0.006222
v -0.012517 -0.025129 -0.002268
v 0.008379 -0.031343 -0.006786
v 0.004428 -0.039814 -0.023160
v -0.009126 -0.039248 -0.038417
v -0.012517 -0.039814 -0.011304
v 0.009510 -0.035858 -0.013000
v 0.011771 -0.027387 -0.015825
v -0.000654 -0.036988 -0.035024
v -0.005737 -0.032471 -0.003961
v -0.001219 -0.039814 -0.011304
v 0.008946 -0.025129 -0.010739
v 0.010639 -0.031908 -0.020335
v 0.007817 -0.034163 -0.008482
v 0.002732 -0.039814 -0.031635
v -0.005170 -0.039248 -0.038417
v -0.011950 -0.025129 -0.029942
v 0.010639 -0.029083 -0.009046
v 0.003861 -0.039814 -0.014128
v 0.012338 -0.031341 -0.016389
v 0.004428 -0.025129 -0.004525
f 216 227 236 
f 200 203 204 
f 205 200 206 
f 207 204 209 
f 204 207 213 
f 207 212 213 
f 203 200 215 
f 209 203 215 
f 204 203 217 
f 203 209 217 
f 209 204 217 
f 209 210 218 
f 205 206 219 
f 200 204 220 
f 200 205 221 
f 215 200 221 
f 205 215 221 
f 214 202 222 
f 219 214 222 
f 212 207 223 
f 206 211 224 
f 212 206 224 
f 213 212 224 
f 210 209 225 
f 215 205 225 
f 209 215 225 
f 205 219 226 
f 225 205 226 
f 210 225 226 
f 207 209 227 
f 201 223 227 
f 223 207 227 
f 206 212 228 
f 212 223 228 
f 202 218 229 
f 218 210 229 
f 222 202 229 
f 208 222 229 
f 226 208 229 
f 210 226 229 
f 219 206 230 
f 214 219 230 
f 206 228 230 
f 228 214 230 
f 206 200 231 
f 211 206 231 
f 200 220 231 
f 220 204 231 
f 204 213 232 
f 224 211 232 
f 213 224 232 
f 231 204 232 
f 211 231 232 
f 202 201 233 
f 218 202 233 
f 216 218 233 
f 201 227 233 
f 227 216 233 
f 222 208 234 
f 219 222 234 
f 208 226 234 
f 226 219 234 
f 201 202 235 
f 202 214 235 
f 223 201 235 
f 214 228 235 
f 228 223 235 
f 209 218 236 
f 218 216 236 
f 227 209 236 
o convex_5
v 0.002734 0.014979 -0.038417
v 0.029279 0.014979 -0.017519
v 0.029279 0.014414 -0.017519
v -0.014209 0.005376 0.009032
v 0.008383 0.005376 -0.037281
v 0.025890 0.005376 0.009027
v -0.009688 0.014979 0.009032
v -0.016470 0.005376 -0.039542
v 0.023630 0.014979 0.009027
v -0.017034 0.011589 -0.026548
v 0.020241 0.014979 -0.035025
v 0.021374 0.005376 -0.019207
v -0.010821 0.005941 -0.045196
v -0.009688 0.014979 -0.031065
v -0.018726 0.005376 -0.022031
v 0.026459 0.014414 -0.027679
v 0.027023 0.005376 0.002249
v 0.009511 0.014979 -0.039542
v 0.011208 0.011024 -0.038980
v -0.018162 0.009332 -0.023724
v 0.012336 0.006506 -0.035588
v 0.028715 0.014414 -0.023162
v -0.009124 0.005376 -0.045196
v -0.011385 0.014979 -0.023724
v -0.011385 0.012719 0.009032
v 0.028715 0.014979 -0.011866
v -0.012513 0.013284 -0.031628
v -0.002915 0.014979 -0.036151
v 0.014033 0.005376 -0.031633
v -0.017598 0.005941 -0.036151
v -0.015337 0.005941 -0.041241
v 0.027023 0.005941 0.004510
v -0.014209 0.005941 0.009032
v 0.015725 0.010459 -0.036156
v -0.013645 0.013849 -0.026548
v -0.007427 0.014979 -0.033332
f 267 263 272 
f 240 241 242 
f 240 242 243 
f 238 237 243 
f 241 240 244 
f 243 242 245 
f 238 243 245 
f 237 238 247 
f 242 241 248 
f 243 237 250 
f 244 240 251 
f 247 238 252 
f 242 248 253 
f 237 247 254 
f 249 237 254 
f 254 247 255 
f 238 239 258 
f 252 238 258 
f 248 252 258 
f 239 253 258 
f 253 248 258 
f 241 244 259 
f 244 249 259 
f 249 254 259 
f 254 255 259 
f 255 241 259 
f 243 250 260 
f 240 243 261 
f 243 246 261 
f 246 256 261 
f 239 238 262 
f 238 245 262 
f 237 249 264 
f 250 237 264 
f 248 241 265 
f 252 248 265 
f 241 257 265 
f 257 252 265 
f 244 251 266 
f 256 246 266 
f 251 256 266 
f 249 244 267 
f 246 263 267 
f 244 266 267 
f 266 246 267 
f 245 242 268 
f 253 239 268 
f 242 253 268 
f 239 262 268 
f 262 245 268 
f 251 240 269 
f 256 251 269 
f 240 261 269 
f 261 256 269 
f 247 252 270 
f 241 255 270 
f 255 247 270 
f 257 241 270 
f 252 257 270 
f 246 243 271 
f 243 260 271 
f 260 250 271 
f 263 246 271 
f 250 263 271 
f 263 250 272 
f 264 249 272 
f 250 264 272 
f 249 267 272 
o convex_6
v -0.001217 -0.023427 0.017505
v 0.023067 0.014979 0.010728
v 0.024763 0.005935 0.011293
v -0.007993 -0.016083 0.009033
v -0.014207 0.014971 0.017505
v 0.020244 -0.018344 0.017505
v -0.009689 0.014971 0.009033
v 0.016852 0.013849 0.017505
v 0.010077 -0.021170 0.009599
v 0.025328 -0.000275 0.009033
v -0.014777 -0.002536 0.009599
v -0.010254 -0.007047 0.017505
v 0.015726 -0.022866 0.014680
v 0.023067 0.014979 0.009033
v 0.020810 0.004243 0.017505
v 0.004428 -0.023993 0.012422
v -0.014777 0.004243 0.009033
v 0.010642 -0.024562 0.017505
v -0.003475 -0.019475 0.009033
v -0.013642 0.002547 0.017505
v 0.015726 0.014979 0.017505
v 0.016852 -0.021170 0.013551
v 0.023632 -0.003667 0.009033
v -0.013081 0.014971 0.012987
v -0.012515 -0.008177 0.009599
v 0.002171 -0.025123 0.016939
v 0.019679 -0.018909 0.015245
v 0.008946 -0.023997 0.012422
v -0.002913 -0.021166 0.017505
v 0.006685 -0.017779 0.009033
v 0.011207 -0.021736 0.010163
v 0.017983 -0.021736 0.017505
v 0.024197 0.001417 0.012422
v -0.014777 0.004808 0.013551
v 0.025328 0.007065 0.009033
v 0.004993 -0.021732 0.009599
f 303 300 308 
f 277 273 278 
f 277 278 280 
f 276 279 282 
f 273 277 284 
f 282 279 286 
f 275 274 287 
f 274 280 287 
f 280 278 287 
f 279 276 289 
f 276 283 289 
f 278 273 290 
f 273 276 291 
f 276 282 291 
f 284 277 292 
f 283 284 292 
f 280 274 293 
f 277 280 293 
f 274 286 293 
f 286 279 293 
f 291 282 295 
f 279 289 296 
f 289 277 296 
f 277 293 296 
f 293 279 296 
f 283 276 297 
f 284 283 297 
f 290 273 298 
f 273 291 298 
f 291 288 298 
f 282 278 299 
f 295 282 299 
f 294 295 299 
f 285 290 300 
f 290 298 300 
f 298 288 300 
f 276 273 301 
f 273 284 301 
f 297 276 301 
f 284 297 301 
f 281 291 302 
f 291 295 302 
f 295 281 302 
f 294 285 303 
f 281 295 303 
f 295 294 303 
f 285 300 303 
f 278 290 304 
f 290 285 304 
f 285 294 304 
f 299 278 304 
f 294 299 304 
f 282 275 305 
f 278 282 305 
f 275 287 305 
f 287 278 305 
f 277 289 306 
f 289 283 306 
f 292 277 306 
f 283 292 306 
f 274 275 307 
f 275 282 307 
f 286 274 307 
f 282 286 307 
f 291 281 308 
f 288 291 308 
f 300 288 308 
f 281 303 308 
o convex_7
v 0.010638 -0.024558 0.017506
v 0.015726 0.014979 0.028801
v 0.015726 0.014979 0.024286
v -0.019296 0.008196 0.024286
v -0.002913 -0.019475 0.033885
v 0.020245 -0.012695 0.031626
v 0.018549 0.010457 0.017506
v -0.010255 0.014979 0.032756
v -0.014208 0.014979 0.017506
v -0.004044 -0.021170 0.018073
v 0.015161 0.012149 0.034451
v 0.020245 -0.018348 0.017506
v -0.011385 -0.017213 0.029365
v -0.002913 -0.023997 0.029931
v 0.020810 0.002547 0.031626
v -0.017600 -0.000840 0.021460
v 0.012900 -0.020040 0.031061
v -0.013077 0.009892 0.032756
v 0.012334 0.004243 0.035017
v 0.014596 0.014979 0.017506
v -0.010820 -0.007047 0.017506
v -0.011385 -0.018344 0.025980
v -0.018165 0.000290 0.026542
v 0.002167 -0.025123 0.017506
v 0.014596 -0.022297 0.024850
v 0.020245 0.004808 0.017506
v 0.014030 -0.016648 0.032756
v -0.017034 0.012153 0.028237
v -0.008563 -0.015518 0.032756
v 0.020810 -0.016087 0.026542
v -0.005175 -0.023997 0.029931
v 0.011769 0.014971 0.033885
v -0.017034 0.005370 0.029365
v 0.010638 0.007631 0.035017
v 0.020245 0.004808 0.032756
v -0.013077 -0.013826 0.023155
v 0.007250 -0.025123 0.021462
v 0.017983 -0.021736 0.019203
v -0.005175 -0.016648 0.033885
v 0.020810 -0.013261 0.018639
v -0.017034 0.004243 0.019768
v -0.001783 -0.023997 0.018637
v 0.020245 0.006500 0.029367
v 0.010077 -0.022297 0.028800
v 0.019679 -0.012695 0.032190
v 0.019679 -0.017217 0.027672
v 0.010077 0.013845 0.034449
v -0.018165 -0.000840 0.025414
v -0.009128 -0.019475 0.031061
v -0.008563 -0.021170 0.025414
v -0.014773 0.003112 0.018073
v 0.015726 0.013279 0.033320
v 0.020810 0.003678 0.027108
v 0.019114 0.003112 0.033320
v -0.017600 0.010457 0.028801
v -0.001783 -0.019475 0.033885
v -0.014208 0.014979 0.022027
v 0.017983 0.011587 0.027672
v -0.013077 -0.014952 0.026542
v -0.018165 -0.000840 0.022591
v -0.019296 0.006500 0.025980
v 0.014596 -0.023427 0.019766
v 0.016291 -0.018348 0.030497
f 354 314 371 
f 310 311 316 
f 315 309 317 
f 316 311 317 
f 309 315 320 
f 311 315 328 
f 317 311 328 
f 315 317 328 
f 317 309 329 
f 329 309 332 
f 318 329 332 
f 320 315 334 
f 317 312 336 
f 323 314 338 
f 322 313 339 
f 310 316 340 
f 331 321 341 
f 321 337 341 
f 337 326 341 
f 316 326 342 
f 327 319 342 
f 314 323 343 
f 329 318 344 
f 324 329 344 
f 318 330 344 
f 332 309 345 
f 322 339 345 
f 339 332 345 
f 309 320 346 
f 320 338 346 
f 313 327 347 
f 326 337 347 
f 342 326 347 
f 327 342 347 
f 320 334 348 
f 323 338 348 
f 338 320 348 
f 312 317 349 
f 318 332 350 
f 332 339 350 
f 334 315 351 
f 343 323 351 
f 325 322 352 
f 333 325 352 
f 345 333 352 
f 322 345 352 
f 327 335 353 
f 314 343 353 
f 338 314 354 
f 333 346 354 
f 346 338 354 
f 340 316 355 
f 319 340 355 
f 316 342 355 
f 342 319 355 
f 321 331 356 
f 321 330 357 
f 337 321 357 
f 339 313 357 
f 330 339 357 
f 313 347 357 
f 347 337 357 
f 330 318 358 
f 339 330 358 
f 318 350 358 
f 350 339 358 
f 317 329 359 
f 329 324 359 
f 349 317 359 
f 324 349 359 
f 310 340 360 
f 340 319 360 
f 319 343 360 
f 343 351 360 
f 348 334 361 
f 323 348 361 
f 334 351 361 
f 351 323 361 
f 319 327 362 
f 343 319 362 
f 327 353 362 
f 353 343 362 
f 326 316 363 
f 336 312 363 
f 316 336 363 
f 341 326 363 
f 313 322 364 
f 322 325 364 
f 327 313 364 
f 325 335 364 
f 335 327 364 
f 316 317 365 
f 317 336 365 
f 336 316 365 
f 311 310 366 
f 315 311 366 
f 351 315 366 
f 310 360 366 
f 360 351 366 
f 330 321 367 
f 344 330 367 
f 321 356 367 
f 367 356 368 
f 324 344 368 
f 312 349 368 
f 349 324 368 
f 344 367 368 
f 331 341 369 
f 356 331 369 
f 363 312 369 
f 341 363 369 
f 368 356 369 
f 312 368 369 
f 345 309 370 
f 333 345 370 
f 309 346 370 
f 346 333 370 
f 325 333 371 
f 335 325 371 
f 314 353 371 
f 353 335 371 
f 333 354 371 
o convex_8
v -0.010820 0.032488 0.030490
v -0.001786 0.014979 0.002254
v -0.009691 0.014983 0.002254
v -0.012516 0.016111 0.046314
v 0.004994 0.024585 0.030490
v -0.002350 0.035312 0.005644
v -0.015906 0.025150 0.020903
v 0.004994 0.014979 0.002254
v -0.003480 0.028534 0.046314
v 0.004994 0.014979 0.032190
v -0.007999 0.032488 0.002819
v -0.013646 0.026839 0.046314
v 0.004994 0.024585 0.002254
v -0.014775 0.014983 0.015814
v 0.003298 0.030793 0.025975
v -0.001221 0.020628 0.046314
v -0.013646 0.024019 0.007904
v -0.004046 0.036442 0.009034
v -0.014775 0.019500 0.040095
v -0.011950 0.031923 0.018078
v -0.001221 0.026274 0.046314
v -0.010256 0.014983 0.035579
v -0.014775 0.028534 0.030490
v -0.005176 0.033051 0.029365
v -0.010256 0.029099 0.046314
v -0.011950 0.028534 0.005644
v -0.006868 0.035877 0.007904
v -0.006303 0.016677 0.046314
v -0.004046 0.032488 0.002254
v 0.004994 0.027406 0.028235
v -0.015340 0.016677 0.025975
v -0.000654 0.031923 0.029930
v -0.015906 0.025150 0.027105
v -0.001221 0.034749 0.006774
v -0.015340 0.017242 0.015249
v 0.003863 0.030230 0.023728
v -0.014210 0.025150 0.046314
v -0.011950 0.031923 0.031060
v -0.010256 0.015546 0.044619
v -0.013646 0.029099 0.015249
v 0.002169 0.029665 0.032755
v -0.015906 0.020065 0.026540
v -0.014210 0.018372 0.010164
v -0.004611 0.029099 0.046314
v -0.002350 0.035877 0.010164
v -0.010256 0.032488 0.032190
v -0.007432 0.034747 0.005079
v -0.013646 0.017807 0.046314
v -0.000654 0.024585 0.045749
v -0.002350 0.018935 0.046314
v -0.007999 0.035312 0.013554
v -0.007999 0.030793 0.002254
v -0.014775 0.014983 0.021463
v -0.010820 0.028534 0.003949
f 382 423 425 
f 373 374 379 
f 373 379 381 
f 379 376 381 
f 375 380 383 
f 379 374 384 
f 376 379 384 
f 374 373 385 
f 380 375 387 
f 380 387 392 
f 383 380 396 
f 388 378 397 
f 389 377 398 
f 387 375 399 
f 377 384 400 
f 384 374 400 
f 376 384 401 
f 392 376 401 
f 394 378 404 
f 384 377 405 
f 378 388 406 
f 385 402 406 
f 401 384 407 
f 386 401 407 
f 384 405 407 
f 375 383 408 
f 383 394 408 
f 404 390 408 
f 394 404 408 
f 394 383 409 
f 391 394 409 
f 383 396 409 
f 393 381 410 
f 399 375 410 
f 381 399 410 
f 378 394 411 
f 394 391 411 
f 397 378 411 
f 380 392 412 
f 401 386 412 
f 392 401 412 
f 403 380 412 
f 386 403 412 
f 402 390 413 
f 390 404 413 
f 404 378 413 
f 378 406 413 
f 406 402 413 
f 374 385 414 
f 388 374 414 
f 385 406 414 
f 406 388 414 
f 396 380 415 
f 380 403 415 
f 403 395 415 
f 377 389 416 
f 389 395 416 
f 403 386 416 
f 395 403 416 
f 405 377 416 
f 386 407 416 
f 407 405 416 
f 395 389 417 
f 372 409 417 
f 409 396 417 
f 396 415 417 
f 415 395 417 
f 382 397 418 
f 391 398 418 
f 398 377 418 
f 377 400 418 
f 400 382 418 
f 411 391 418 
f 397 411 418 
f 390 402 419 
f 375 408 419 
f 408 390 419 
f 381 376 420 
f 387 381 420 
f 376 392 420 
f 392 387 420 
f 381 387 421 
f 399 381 421 
f 387 399 421 
f 398 391 422 
f 389 398 422 
f 391 409 422 
f 409 372 422 
f 417 389 422 
f 372 417 422 
f 382 400 423 
f 400 374 423 
f 373 381 424 
f 385 373 424 
f 381 393 424 
f 402 385 424 
f 410 375 424 
f 393 410 424 
f 375 419 424 
f 419 402 424 
f 374 388 425 
f 397 382 425 
f 388 397 425 
f 423 374 425 
o convex_9
v 0.009515 0.021758 -0.035590
v 0.050184 0.021758 -0.022596
v 0.042271 0.021758 -0.012999
v 0.015725 0.014979 0.016937
v 0.014597 0.014979 -0.037841
v 0.004994 0.021758 0.006773
v 0.042837 0.016674 -0.028806
v 0.004994 0.014979 -0.038415
v 0.004994 0.014979 0.022025
v 0.042271 0.021758 -0.035023
v 0.020246 0.021758 0.006206
v 0.022507 0.014979 0.011287
v 0.004994 0.021758 -0.032766
v 0.029845 0.014979 -0.021467
v 0.049614 0.020063 -0.024292
v 0.020812 0.018368 0.011287
v 0.009515 0.018368 0.017504
v 0.042837 0.018368 -0.033327
v 0.009515 0.016110 -0.038982
v 0.048486 0.021192 -0.030508
v 0.043969 0.017239 -0.025420
v 0.016292 0.021758 -0.036157
v 0.029845 0.014979 -0.011303
v 0.004994 0.018932 0.016375
v 0.025899 0.014979 -0.029941
v 0.007255 0.015545 0.022025
v 0.021940 0.016674 0.011855
v 0.042837 0.017239 -0.031637
v 0.035498 0.021758 -0.006221
v 0.042271 0.019498 -0.034456
v 0.010081 0.014979 -0.038982
v 0.010647 0.018932 -0.037841
v 0.004994 0.016110 -0.038415
f 457 444 458 
f 428 427 426 
f 428 426 431 
f 430 429 433 
f 431 433 434 
f 433 429 434 
f 426 427 435 
f 428 431 436 
f 427 428 437 
f 429 430 437 
f 431 426 438 
f 433 431 438 
f 437 430 439 
f 427 437 440 
f 441 436 442 
f 435 427 445 
f 427 440 445 
f 437 432 446 
f 432 440 446 
f 440 437 446 
f 426 435 447 
f 432 437 448 
f 439 432 448 
f 437 439 448 
f 431 434 449 
f 436 431 449 
f 442 436 449 
f 430 432 450 
f 439 430 450 
f 432 439 450 
f 434 429 451 
f 441 442 451 
f 449 434 451 
f 442 449 451 
f 437 428 452 
f 429 437 452 
f 451 429 452 
f 441 451 452 
f 432 430 453 
f 440 432 453 
f 430 443 453 
f 445 440 453 
f 443 445 453 
f 428 436 454 
f 436 441 454 
f 452 428 454 
f 441 452 454 
f 443 430 455 
f 435 445 455 
f 445 443 455 
f 430 433 456 
f 433 444 456 
f 444 435 456 
f 455 430 456 
f 435 455 456 
f 435 444 457 
f 426 447 457 
f 447 435 457 
f 438 426 458 
f 433 438 458 
f 444 433 458 
f 426 457 458 
o convex_10
v 0.004994 0.014979 0.032756
v 0.015727 0.015544 0.027109
v 0.015162 0.016109 0.027674
v 0.004994 0.015544 0.024286
v 0.007819 0.017239 0.032756
v 0.012902 0.014979 0.032756
v 0.006690 0.017239 0.025979
v 0.011206 0.014979 0.022591
v 0.012902 0.017239 0.027109
v 0.004994 0.016673 0.031062
v 0.012336 0.017239 0.030497
f 467 463 469 
f 460 461 464 
f 463 459 464 
f 459 462 466 
f 460 464 466 
f 464 459 466 
f 462 465 466 
f 466 465 467 
f 461 460 467 
f 465 463 467 
f 460 466 467 
f 462 459 468 
f 459 463 468 
f 465 462 468 
f 463 465 468 
f 464 461 469 
f 463 464 469 
f 461 467 469 
o convex_11
v 0.004427 0.029101 -0.023732
v 0.004427 0.014979 -0.038417
v 0.004993 0.014979 -0.038417
v -0.002914 0.014979 -0.012998
v -0.010256 0.015545 -0.027116
v 0.004993 0.014979 -0.012998
v 0.004993 0.029101 -0.012998
v -0.001785 0.022887 -0.012998
v -0.007432 0.014979 -0.032199
v 0.004427 0.026840 -0.028810
v 0.004427 0.030231 -0.015260
v -0.010256 0.015545 -0.023167
v -0.003478 0.015545 -0.035026
v -0.009126 0.015545 -0.030505
v 0.004993 0.028535 -0.025426
v 0.002169 0.027405 -0.024299
v -0.002914 0.020628 -0.012998
v -0.010256 0.014979 -0.023167
v 0.003863 0.016109 -0.037850
f 482 479 488 
f 471 472 473 
f 473 472 475 
f 473 475 476 
f 475 472 476 
f 473 476 477 
f 471 473 478 
f 477 476 480 
f 477 480 481 
f 480 474 481 
f 471 478 482 
f 479 482 483 
f 478 474 483 
f 482 478 483 
f 476 472 484 
f 472 479 484 
f 479 470 484 
f 470 480 484 
f 480 476 484 
f 470 479 485 
f 480 470 485 
f 474 480 485 
f 479 483 485 
f 483 474 485 
f 473 477 486 
f 477 481 486 
f 481 473 486 
f 478 473 487 
f 474 478 487 
f 473 481 487 
f 481 474 487 
f 472 471 488 
f 479 472 488 
f 471 482 488 
o convex_12
v -0.007432 0.021759 -0.004527
v 0.004993 0.024579 0.002254
v 0.004993 0.014979 0.002254
v 0.004993 0.028536 -0.012998
v -0.002914 0.014979 -0.012998
v -0.009690 0.014979 0.002254
v 0.004993 0.014979 -0.012998
v -0.004608 0.023451 0.002254
v -0.001785 0.022885 -0.012998
v -0.008560 0.014979 -0.006217
v 0.004427 0.029101 -0.009043
v -0.008560 0.021195 0.000556
v -0.010256 0.016111 -0.002265
v 0.004993 0.027406 -0.002831
v -0.008560 0.019501 -0.005091
v -0.007432 0.022321 -0.003395
v -0.002914 0.020065 -0.012998
v 0.004427 0.028536 -0.012998
f 504 499 506 
f 490 491 492 
f 493 491 494 
f 491 490 494 
f 492 491 495 
f 493 492 495 
f 491 493 495 
f 494 490 496 
f 492 493 497 
f 493 494 498 
f 494 496 500 
f 498 494 501 
f 494 500 501 
f 490 492 502 
f 496 490 502 
f 492 499 502 
f 499 496 502 
f 489 497 503 
f 501 500 503 
f 498 501 503 
f 497 489 504 
f 496 499 504 
f 500 496 504 
f 489 503 504 
f 503 500 504 
f 497 493 505 
f 493 498 505 
f 503 497 505 
f 498 503 505 
f 492 497 506 
f 499 492 506 
f 497 504 506 
o convex_13
v -0.032285 -0.020604 -0.051969
v 0.000475 0.005376 -0.028252
v 0.000475 -0.007618 -0.028252
v -0.031722 -0.025127 -0.028252
v -0.018170 0.005376 -0.032206
v -0.006308 -0.000273 -0.054796
v -0.015344 -0.025127 -0.041808
v -0.029462 -0.006487 -0.050841
v -0.013647 0.005376 -0.050276
v -0.008564 -0.015519 -0.050276
v -0.011391 -0.025127 -0.028252
v -0.036805 -0.025127 -0.038421
v -0.018730 0.003116 -0.028252
v -0.036805 -0.025127 -0.049711
v 0.000475 0.005376 -0.038984
v -0.015907 0.000856 -0.055363
v -0.004045 -0.003098 -0.051969
v -0.015344 -0.017782 -0.051969
v -0.002352 -0.014393 -0.028817
v -0.018730 0.003116 -0.051407
v -0.031155 -0.010437 -0.044629
v -0.035675 -0.023993 -0.035033
v -0.006308 0.003680 -0.052534
v -0.006871 -0.005922 -0.054230
v -0.037372 -0.023431 -0.049146
v -0.027765 -0.009314 -0.053665
v -0.005741 -0.011565 -0.048583
v -0.033415 -0.025127 -0.049711
v -0.019860 0.003680 -0.043498
v -0.009694 -0.018343 -0.046887
v -0.012517 -0.019478 -0.049146
v -0.013647 -0.001405 -0.055363
v -0.017040 0.005376 -0.028252
v -0.020423 0.002552 -0.032206
v -0.001222 -0.009875 -0.033902
v 0.000475 0.001981 -0.038421
v -0.032285 -0.023993 -0.028817
v -0.030025 -0.007057 -0.048583
v -0.004611 0.000856 -0.053100
v -0.018170 -0.025127 -0.044063
v -0.011954 0.003116 -0.054230
v -0.018170 0.002552 -0.053100
v -0.006871 -0.009314 -0.053100
v -0.018730 0.004245 -0.046322
v -0.036805 -0.023993 -0.040115
v -0.007434 -0.014957 -0.048583
v -0.008564 0.004809 -0.050841
v -0.028895 -0.007057 -0.051969
v -0.014214 -0.025127 -0.039549
v -0.030025 -0.020604 -0.051969
v -0.027199 -0.011565 -0.053665
f 556 507 557 
f 509 508 510 
f 511 508 515 
f 509 510 517 
f 510 513 517 
f 513 510 518 
f 510 508 519 
f 513 518 520 
f 508 509 521 
f 515 508 521 
f 509 517 525 
f 518 510 528 
f 512 523 530 
f 520 518 531 
f 507 520 532 
f 520 531 532 
f 520 507 534 
f 513 520 534 
f 525 517 536 
f 524 516 537 
f 534 524 537 
f 536 513 537 
f 516 536 537 
f 522 512 538 
f 512 530 538 
f 508 511 539 
f 519 508 539 
f 519 539 540 
f 528 519 540 
f 527 528 540 
f 539 511 540 
f 509 525 541 
f 533 523 541 
f 521 509 542 
f 523 521 542 
f 509 541 542 
f 541 523 542 
f 510 519 543 
f 528 510 543 
f 519 528 543 
f 514 531 544 
f 511 535 544 
f 535 514 544 
f 540 511 544 
f 527 540 544 
f 523 512 545 
f 521 523 545 
f 512 529 545 
f 529 521 545 
f 513 534 546 
f 537 513 546 
f 534 537 546 
f 512 522 547 
f 529 512 547 
f 514 526 548 
f 526 515 548 
f 547 522 548 
f 515 547 548 
f 516 524 549 
f 530 523 549 
f 524 530 549 
f 523 533 549 
f 511 515 550 
f 526 514 550 
f 515 526 550 
f 535 511 550 
f 514 535 550 
f 518 528 551 
f 528 527 551 
f 531 518 551 
f 544 531 551 
f 527 544 551 
f 536 516 552 
f 525 536 552 
f 541 525 552 
f 533 541 552 
f 516 549 552 
f 549 533 552 
f 515 521 553 
f 521 529 553 
f 547 515 553 
f 529 547 553 
f 531 514 554 
f 522 532 554 
f 532 531 554 
f 514 548 554 
f 548 522 554 
f 517 513 555 
f 513 536 555 
f 536 517 555 
f 530 524 556 
f 534 507 556 
f 524 534 556 
f 538 530 556 
f 538 556 557 
f 507 532 557 
f 532 522 557 
f 522 538 557 
o convex_14
v 0.001040 0.000291 -0.036156
v 0.014597 0.005376 -0.028250
v 0.014597 0.004811 -0.028250
v 0.000475 -0.005356 -0.028250
v 0.000475 0.005376 -0.028250
v 0.000475 0.005376 -0.038982
v 0.007255 0.004246 -0.037286
v 0.008946 -0.000837 -0.028816
v 0.012337 0.005376 -0.032770
v 0.001040 -0.005356 -0.028816
v 0.000475 0.002551 -0.038416
f 563 564 568 
f 560 559 561 
f 561 559 562 
f 562 559 563 
f 561 562 563 
f 560 561 565 
f 565 564 566 
f 559 560 566 
f 563 559 566 
f 564 563 566 
f 560 565 566 
f 561 558 567 
f 558 564 567 
f 565 561 567 
f 564 565 567 
f 558 561 568 
f 561 563 568 
f 564 558 568 
o convex_15
v 0.005555 -0.018349 0.009032
v -0.031158 -0.025127 -0.028249
v -0.031158 -0.025127 -0.027118
v -0.024373 -0.013265 -0.027680
v 0.007816 -0.025127 -0.016382
v -0.002353 -0.013265 -0.028249
v -0.018725 -0.013265 0.004511
v -0.019857 -0.025127 -0.003397
v 0.011208 -0.013265 0.009032
v -0.010821 -0.025127 -0.028249
v 0.008944 -0.013265 -0.010736
v 0.003863 -0.025127 -0.003963
v -0.005177 -0.019478 0.009032
v -0.021549 -0.013265 0.000559
v -0.000093 -0.025127 -0.024293
v -0.027766 -0.016654 -0.028249
v -0.009693 -0.013265 0.009032
v -0.002917 -0.025127 -0.001138
v 0.008380 -0.025127 -0.010736
v -0.022117 -0.025127 -0.005656
v 0.010640 -0.013831 -0.005656
v -0.018161 -0.015524 0.004511
v 0.001039 -0.020042 0.008463
v -0.030026 -0.021172 -0.027680
v 0.009512 -0.015524 0.009032
v -0.021549 -0.014395 0.000559
v 0.006119 -0.025127 -0.006226
v 0.008380 -0.025127 -0.015254
v -0.005741 -0.020608 0.007335
v -0.002353 -0.014395 -0.028249
v -0.011385 -0.025127 -0.001700
f 586 597 599 
f 571 570 573 
f 574 572 575 
f 571 573 576 
f 574 575 577 
f 573 570 578 
f 570 574 578 
f 573 574 579 
f 574 577 579 
f 576 573 580 
f 569 577 581 
f 575 572 582 
f 573 578 583 
f 574 570 584 
f 572 574 584 
f 582 572 584 
f 577 575 585 
f 581 577 585 
f 576 580 586 
f 580 573 587 
f 571 576 588 
f 579 577 589 
f 576 581 590 
f 585 575 590 
f 581 585 590 
f 588 576 590 
f 580 569 591 
f 569 581 591 
f 586 580 591 
f 570 571 592 
f 571 582 592 
f 584 570 592 
f 582 584 592 
f 577 569 593 
f 587 577 593 
f 582 571 594 
f 575 582 594 
f 571 588 594 
f 590 575 594 
f 588 590 594 
f 569 580 595 
f 580 587 595 
f 593 569 595 
f 587 593 595 
f 573 579 596 
f 577 587 596 
f 587 573 596 
f 579 589 596 
f 589 577 596 
f 581 576 597 
f 591 581 597 
f 586 591 597 
f 574 573 598 
f 578 574 598 
f 573 583 598 
f 583 578 598 
f 576 586 599 
f 597 576 599 
o convex_16
v -0.002352 -0.013265 -0.028249
v 0.021370 0.005376 -0.014694
v 0.021370 0.004811 -0.014694
v -0.019856 -0.013265 -0.014694
v -0.017595 0.005376 -0.028249
v 0.015160 0.005376 -0.028249
v 0.014028 -0.011570 -0.014694
v -0.008558 0.005376 -0.014694
v -0.023810 -0.013265 -0.028249
v -0.018728 0.005376 -0.022034
v 0.017982 -0.007616 -0.015259
v 0.005557 -0.013265 -0.014694
v 0.020809 0.004811 -0.019778
v -0.017595 0.005376 -0.019778
v 0.015160 0.004811 -0.028249
v -0.023810 -0.012699 -0.027684
v 0.013466 -0.010440 -0.016952
v -0.019856 -0.012699 -0.014694
v -0.018728 0.005376 -0.024295
f 615 609 618 
f 602 601 603 
f 604 601 605 
f 600 604 605 
f 602 603 606 
f 603 601 607 
f 601 604 607 
f 600 603 608 
f 604 600 608 
f 607 604 609 
f 602 606 610 
f 603 600 611 
f 606 603 611 
f 600 606 611 
f 601 602 612 
f 605 601 612 
f 602 610 612 
f 607 609 613 
f 600 605 614 
f 605 612 614 
f 612 610 614 
f 608 603 615 
f 604 608 615 
f 606 600 616 
f 610 606 616 
f 600 614 616 
f 614 610 616 
f 603 607 617 
f 607 613 617 
f 613 609 617 
f 615 603 617 
f 609 615 617 
f 609 604 618 
f 604 615 618 
o convex_17
v 0.025891 -0.000839 0.007901
v -0.019857 -0.013265 -0.014692
v -0.020425 -0.013265 -0.013561
v -0.007994 0.005376 -0.014692
v -0.014209 0.005376 0.009032
v -0.010255 -0.013265 0.009032
v 0.015159 -0.012699 -0.012997
v 0.021374 0.005376 -0.014692
v 0.025891 0.005376 0.009032
v 0.011205 -0.013265 0.009032
v -0.020987 -0.012699 0.002254
v -0.019857 -0.004789 -0.005087
v 0.020806 -0.009309 -0.008478
v 0.006120 -0.013265 -0.014692
v 0.027022 0.002552 0.000558
v 0.018545 -0.012133 -0.005654
v 0.021374 -0.006486 0.009032
v 0.020244 -0.004223 -0.014126
v -0.014772 -0.003663 0.009032
v -0.020987 -0.008179 0.001123
v 0.027022 -0.000273 0.005078
v -0.013642 0.005376 0.003382
v 0.017983 -0.008179 -0.014692
v -0.018164 -0.013265 0.005078
v 0.027022 0.005376 0.001123
v 0.015159 -0.013265 -0.011302
v -0.009688 0.003681 -0.014692
v -0.021555 -0.013265 -0.005654
v 0.023067 -0.005919 0.004513
v 0.017420 -0.010440 0.006206
v -0.018726 -0.007616 -0.011302
v -0.019857 -0.009309 0.003947
v 0.021374 -0.004789 -0.011302
v 0.027589 0.003681 0.004513
v 0.027022 0.000291 0.002254
v 0.018545 -0.011004 -0.011302
v -0.020425 -0.005919 -0.005087
f 630 649 655 
f 621 620 624 
f 620 622 626 
f 622 623 626 
f 623 624 627 
f 626 623 627 
f 624 620 628 
f 627 624 628 
f 620 626 632 
f 628 620 632 
f 619 627 635 
f 627 628 635 
f 624 623 637 
f 623 622 640 
f 630 623 640 
f 632 626 641 
f 625 632 641 
f 626 636 641 
f 621 624 642 
f 624 637 642 
f 626 627 643 
f 633 626 643 
f 632 625 644 
f 628 632 644 
f 634 628 644 
f 622 620 645 
f 640 622 645 
f 630 640 645 
f 629 638 646 
f 621 642 646 
f 642 629 646 
f 634 631 647 
f 619 635 647 
f 635 634 647 
f 639 619 647 
f 631 639 647 
f 628 634 648 
f 635 628 648 
f 634 635 648 
f 620 621 649 
f 645 620 649 
f 630 645 649 
f 637 623 650 
f 638 629 650 
f 623 638 650 
f 629 642 650 
f 642 637 650 
f 626 633 651 
f 631 636 651 
f 636 626 651 
f 627 619 652 
f 619 639 652 
f 643 627 652 
f 633 643 652 
f 639 631 653 
f 651 633 653 
f 631 651 653 
f 652 639 653 
f 633 652 653 
f 631 634 654 
f 636 631 654 
f 625 641 654 
f 641 636 654 
f 644 625 654 
f 634 644 654 
f 623 630 655 
f 638 623 655 
f 621 646 655 
f 646 638 655 
f 649 621 655 
