o convex_0
v -0.003896 -0.014634 -0.011818
v 0.006562 0.014661 -0.011119
v 0.010048 0.014658 -0.011119
v -0.003200 -0.012887 0.002481
v -0.013661 0.004544 0.002481
v 0.013186 -0.001727 0.002131
v 0.018070 -0.006610 -0.011818
v -0.012266 0.008728 -0.011818
v -0.000758 0.012567 0.002481
v -0.013661 -0.005564 0.001782
v 0.018418 0.009078 -0.011818
v 0.011794 -0.012887 -0.011468
v -0.012266 -0.005911 -0.011818
v 0.008653 0.008728 0.002481
v -0.008780 0.012914 -0.011818
v 0.009352 -0.008354 0.002481
v -0.008780 0.011171 0.002481
v 0.019813 0.000013 -0.010422
v -0.008432 -0.011494 0.002481
v -0.009476 -0.010797 -0.011818
v 0.012490 0.003497 0.002481
v 0.013186 0.014308 -0.011818
v -0.003896 0.013264 0.000387
v -0.013661 0.000710 -0.006934
v 0.005515 -0.014634 -0.011818
v 0.004120 -0.011491 0.002481
v -0.004943 0.014311 -0.011818
v 0.020164 0.004544 -0.011468
v 0.012142 -0.005214 0.002481
v -0.011918 0.008031 0.002481
v 0.003772 0.011518 0.002481
v -0.000758 -0.013237 0.001434
v 0.016327 -0.008354 -0.010074
v -0.012266 -0.008004 0.002481
v -0.007037 -0.013237 -0.011468
v 0.017722 0.009427 -0.010771
v 0.019465 -0.003124 -0.011119
v 0.013186 0.013958 -0.010771
v -0.014012 -0.002077 0.002481
v -0.007037 0.012914 -0.003448
v -0.013661 -0.002427 -0.005889
v -0.000410 0.012914 0.001782
v 0.013186 0.001754 0.002131
v 0.019813 0.006288 -0.011468
v -0.002852 -0.013237 0.001782
v 0.002380 -0.014634 -0.010074
v -0.005294 -0.014284 -0.011119
v 0.011794 0.004894 0.002481
v -0.010523 -0.009398 -0.011818
v -0.000062 0.014311 -0.007980
v 0.011095 -0.013234 -0.011468
v -0.013661 0.002801 -0.005190
v 0.020164 -0.000334 -0.011818
v 0.016327 -0.000334 -0.003448
v -0.009476 0.012218 -0.010771
v 0.016327 0.011521 -0.011468
v 0.011794 0.014658 -0.011468
v 0.007609 -0.009748 0.002131
v 0.009352 0.008381 0.002131
v 0.018070 -0.006610 -0.011468
v -0.003548 0.012914 0.002131
v 0.007258 -0.014281 -0.011468
v 0.011794 -0.012887 -0.011818
v -0.001805 -0.014634 -0.010074
f 1 46 64 
f 7 1 8 
f 5 4 9 
f 7 8 11 
f 8 1 13 
f 9 4 14 
f 11 8 15 
f 14 4 16 
f 5 9 17 
f 4 5 19 
f 13 1 20 
f 14 16 21 
f 11 15 22 
f 8 13 24 
f 1 7 25 
f 16 4 26 
f 22 15 27 
f 6 21 29 
f 21 16 29 
f 8 5 30 
f 5 17 30 
f 9 14 31 
f 26 4 32 
f 16 12 33 
f 29 16 33 
f 19 5 34 
f 34 20 35 
f 20 1 35 
f 19 34 35 
f 31 14 38 
f 34 5 39 
f 10 34 39 
f 15 17 40 
f 17 23 40 
f 27 15 40 
f 23 27 40 
f 13 10 41 
f 24 13 41 
f 39 24 41 
f 10 39 41 
f 9 31 42 
f 21 6 43 
f 43 28 44 
f 28 11 44 
f 11 36 44 
f 21 43 44 
f 4 19 45 
f 32 4 45 
f 32 45 46 
f 1 25 46 
f 25 32 46 
f 35 1 47 
f 19 35 47 
f 1 45 47 
f 45 19 47 
f 14 21 48 
f 21 44 48 
f 44 36 48 
f 10 13 49 
f 13 20 49 
f 34 10 49 
f 20 34 49 
f 3 2 50 
f 23 3 50 
f 2 27 50 
f 27 23 50 
f 12 26 51 
f 26 32 51 
f 5 8 52 
f 8 24 52 
f 39 5 52 
f 24 39 52 
f 7 11 53 
f 11 28 53 
f 28 18 53 
f 18 37 53 
f 37 7 53 
f 18 28 54 
f 6 29 54 
f 37 18 54 
f 29 37 54 
f 43 6 54 
f 28 43 54 
f 15 8 55 
f 17 15 55 
f 8 30 55 
f 30 17 55 
f 11 22 56 
f 36 11 56 
f 22 38 56 
f 2 3 57 
f 3 23 57 
f 27 2 57 
f 22 27 57 
f 38 22 57 
f 31 38 57 
f 23 42 57 
f 42 31 57 
f 12 16 58 
f 26 12 58 
f 16 26 58 
f 38 14 59 
f 14 48 59 
f 48 36 59 
f 36 56 59 
f 56 38 59 
f 33 7 60 
f 29 33 60 
f 7 37 60 
f 37 29 60 
f 17 9 61 
f 23 17 61 
f 42 23 61 
f 9 42 61 
f 32 25 62 
f 25 51 62 
f 51 32 62 
f 25 7 63 
f 7 33 63 
f 33 12 63 
f 12 51 63 
f 51 25 63 
f 45 1 64 
f 46 45 64 
o convex_1
v 0.003772 -0.011492 0.002484
v -0.000763 0.012217 0.002832
v -0.000763 0.012217 0.002484
v -0.016803 -0.004867 0.016428
v 0.008305 0.000011 0.016778
v -0.013660 -0.005914 0.002484
v -0.010524 0.009428 0.016778
v -0.009479 -0.011494 0.016778
v 0.012840 0.001756 0.002484
v -0.011917 0.008032 0.002484
v 0.002725 0.008381 0.016428
v 0.005864 -0.007656 0.016080
v -0.008432 -0.011494 0.002484
v 0.012140 -0.004867 0.003180
v -0.016803 0.002102 0.016778
v 0.009004 0.008381 0.002832
v -0.001111 -0.011492 0.016778
v -0.015404 0.000011 0.004576
v -0.006340 0.011522 0.014684
v -0.001807 -0.012888 0.002832
v -0.008780 0.011173 0.002484
v -0.014360 -0.008703 0.016778
v 0.007260 0.003498 0.016778
v 0.003421 0.011519 0.003180
v 0.009004 -0.003122 0.015731
v 0.007260 -0.009749 0.002484
v -0.000064 0.009774 0.016778
v -0.015056 0.004894 0.011547
v 0.012140 0.000011 0.006668
v -0.004245 0.011519 0.015034
v -0.013660 0.004545 0.002484
v 0.011792 0.004545 0.002832
v -0.016803 0.001407 0.013291
v 0.007608 -0.005216 0.016778
v 0.005864 0.005592 0.016778
v 0.009352 0.000360 0.015034
v -0.012268 -0.008007 0.002484
v 0.009004 -0.008354 0.003877
v -0.016803 -0.002775 0.012942
v -0.003548 0.012217 0.002832
v 0.007608 0.009428 0.002484
v 0.002377 -0.009747 0.016778
v -0.006340 0.010821 0.016778
v -0.015404 0.004545 0.016778
v -0.015056 -0.001726 0.003529
v -0.014708 -0.008354 0.016080
v 0.011792 -0.005565 0.002484
v -0.002504 -0.012888 0.002484
v -0.012964 -0.009749 0.016080
v 0.012140 -0.001380 0.006668
v 0.010397 0.006287 0.003877
v -0.012268 -0.009401 0.008410
v 0.007260 -0.006611 0.015034
v 0.003772 -0.011492 0.003180
v 0.005513 0.009774 0.005969
v 0.012840 -0.001729 0.002832
v 0.005165 -0.008354 0.015731
v -0.007735 0.011522 0.004576
v 0.005513 0.006636 0.015383
v -0.001459 0.011519 0.011199
v 0.007608 0.003498 0.016080
v -0.008780 0.011173 0.004576
v -0.014708 0.000011 0.002832
v -0.015404 0.002102 0.006668
f 97 92 128 
f 67 65 70 
f 69 71 72 
f 65 67 73 
f 67 70 74 
f 70 65 77 
f 72 71 79 
f 69 72 81 
f 81 72 84 
f 67 74 85 
f 79 68 86 
f 72 79 86 
f 71 69 87 
f 67 66 88 
f 65 73 90 
f 71 87 91 
f 85 74 92 
f 74 70 95 
f 92 74 95 
f 93 73 96 
f 68 79 97 
f 79 92 97 
f 69 81 98 
f 89 69 98 
f 78 89 98 
f 91 87 99 
f 75 91 99 
f 87 69 100 
f 69 89 100 
f 93 96 100 
f 70 77 101 
f 70 68 103 
f 68 97 103 
f 97 82 103 
f 66 67 104 
f 67 85 104 
f 94 66 104 
f 83 94 104 
f 73 67 105 
f 67 88 105 
f 96 73 105 
f 80 96 105 
f 76 98 106 
f 98 81 106 
f 83 71 107 
f 71 91 107 
f 94 83 107 
f 91 94 107 
f 79 71 108 
f 71 92 108 
f 92 79 108 
f 70 103 109 
f 103 82 109 
f 68 70 110 
f 86 68 110 
f 70 101 110 
f 90 73 111 
f 102 90 111 
f 77 65 112 
f 72 77 112 
f 65 84 112 
f 84 72 112 
f 77 72 113 
f 72 86 113 
f 86 110 113 
f 89 78 114 
f 100 89 114 
f 93 100 114 
f 96 80 115 
f 80 99 115 
f 101 77 116 
f 110 101 116 
f 77 113 116 
f 113 110 116 
f 98 76 117 
f 78 98 117 
f 76 102 117 
f 111 78 117 
f 102 111 117 
f 84 65 118 
f 81 84 118 
f 65 90 118 
f 106 81 118 
f 90 106 118 
f 75 80 119 
f 91 75 119 
f 88 91 119 
f 80 105 119 
f 105 88 119 
f 73 93 120 
f 111 73 120 
f 78 111 120 
f 114 78 120 
f 93 114 120 
f 102 76 121 
f 90 102 121 
f 106 90 121 
f 76 106 121 
f 104 85 122 
f 83 104 122 
f 80 75 123 
f 75 99 123 
f 99 80 123 
f 88 66 124 
f 91 88 124 
f 66 94 124 
f 94 91 124 
f 99 87 125 
f 87 100 125 
f 100 96 125 
f 96 115 125 
f 115 99 125 
f 71 83 126 
f 92 71 126 
f 85 92 126 
f 83 122 126 
f 122 85 126 
f 95 70 127 
f 82 95 127 
f 70 109 127 
f 109 82 127 
f 95 82 128 
f 92 95 128 
f 82 97 128 
o convex_2
v 0.004818 -0.002077 0.035260
v -0.017150 -0.001730 0.016779
v -0.017150 -0.000684 0.016779
v -0.022731 -0.003471 0.043283
v -0.009129 0.009776 0.036656
v 0.002376 -0.009747 0.016779
v 0.002376 0.008380 0.016779
v -0.015059 -0.011495 0.043283
v -0.003202 0.005940 0.043632
v -0.012965 -0.009747 0.016779
v -0.000763 -0.008703 0.042933
v -0.010523 0.009426 0.016779
v -0.019941 0.003150 0.042933
v 0.007957 -0.003821 0.016782
v -0.001112 -0.011491 0.016779
v 0.007257 0.003500 0.017131
v -0.020986 -0.008006 0.041884
v 0.001331 0.001057 0.043632
v -0.016453 0.003500 0.017478
v -0.005645 -0.011491 0.041535
v -0.012965 0.008030 0.043283
v -0.004596 0.010822 0.016779
v -0.009478 -0.011491 0.016779
v -0.016801 -0.005217 0.017129
v -0.006342 0.008380 0.042933
v 0.001679 -0.006261 0.042933
v -0.016453 0.006639 0.037702
v 0.005515 -0.006960 0.021313
v -0.000415 0.005243 0.039445
v -0.016105 -0.011495 0.040144
v -0.007735 -0.011143 0.043632
v -0.021335 -0.000684 0.035607
v -0.022031 -0.004867 0.043632
v -0.016453 0.005243 0.024108
v -0.022731 -0.004518 0.041884
v 0.007606 -0.003821 0.020966
v -0.005296 0.009776 0.031772
v 0.007606 0.000708 0.020966
v 0.001679 0.001754 0.042584
v -0.000415 -0.009747 0.034911
v -0.020986 0.001754 0.040144
v 0.004470 0.006637 0.018178
v -0.018195 -0.000336 0.019920
v -0.019589 -0.009400 0.040491
v -0.015059 -0.008006 0.016779
v -0.009826 0.009776 0.035957
v -0.019241 0.003150 0.043632
v 0.002376 0.008380 0.017828
v 0.003076 -0.000336 0.040838
v 0.001331 -0.008354 0.037006
v 0.000982 -0.006261 0.043632
v -0.019589 -0.009051 0.043632
v -0.000415 0.009776 0.017478
v -0.018195 -0.003122 0.020267
v 0.004470 -0.008354 0.018178
v -0.019589 0.003500 0.037006
v -0.003202 0.006637 0.042584
v -0.005993 0.010822 0.016779
v 0.002724 -0.004867 0.041535
v 0.007257 -0.005217 0.019571
v -0.012965 0.008380 0.042237
v -0.019941 -0.005217 0.030035
v -0.014708 0.006639 0.021313
v -0.011917 0.008030 0.043632
f 153 189 192 
f 130 131 134 
f 134 131 135 
f 130 134 138 
f 135 131 140 
f 134 135 142 
f 138 134 143 
f 142 135 144 
f 140 131 147 
f 136 143 148 
f 135 140 150 
f 138 143 151 
f 143 136 158 
f 138 151 158 
f 151 143 158 
f 146 137 159 
f 148 139 159 
f 136 148 159 
f 159 137 161 
f 132 160 163 
f 161 132 163 
f 145 161 163 
f 150 133 165 
f 133 153 165 
f 142 144 166 
f 129 164 166 
f 164 142 166 
f 137 146 167 
f 166 144 167 
f 143 134 168 
f 139 148 168 
f 148 143 168 
f 132 141 169 
f 160 132 169 
f 147 160 169 
f 144 135 170 
f 167 144 170 
f 157 167 170 
f 131 130 171 
f 147 131 171 
f 160 147 171 
f 163 160 171 
f 138 158 172 
f 130 138 173 
f 152 130 173 
f 172 145 173 
f 138 172 173 
f 141 132 175 
f 149 141 175 
f 132 161 175 
f 161 137 175 
f 165 153 176 
f 170 135 176 
f 157 170 176 
f 129 166 177 
f 167 146 177 
f 166 167 177 
f 154 139 178 
f 139 168 178 
f 139 154 179 
f 154 146 179 
f 146 159 179 
f 159 139 179 
f 158 136 180 
f 136 159 180 
f 161 145 180 
f 159 161 180 
f 145 172 180 
f 172 158 180 
f 135 150 181 
f 150 165 181 
f 176 135 181 
f 165 176 181 
f 130 152 182 
f 171 130 182 
f 163 171 182 
f 134 142 183 
f 168 134 183 
f 156 178 183 
f 178 168 183 
f 141 155 184 
f 162 147 184 
f 155 162 184 
f 169 141 184 
f 147 169 184 
f 153 137 185 
f 137 167 185 
f 167 157 185 
f 176 153 185 
f 157 176 185 
f 133 150 186 
f 150 140 186 
f 174 133 186 
f 140 174 186 
f 146 154 187 
f 164 129 187 
f 129 177 187 
f 177 146 187 
f 142 164 188 
f 154 178 188 
f 178 156 188 
f 183 142 188 
f 156 183 188 
f 187 154 188 
f 164 187 188 
f 141 149 189 
f 153 133 189 
f 140 155 189 
f 155 141 189 
f 133 174 189 
f 174 140 189 
f 145 163 190 
f 152 173 190 
f 173 145 190 
f 182 152 190 
f 163 182 190 
f 140 147 191 
f 155 140 191 
f 147 162 191 
f 162 155 191 
f 137 153 192 
f 175 137 192 
f 149 175 192 
f 189 149 192 
o convex_3
v -0.013664 -0.004168 -0.028904
v -0.001807 0.014309 -0.011818
v -0.001807 0.016056 -0.019143
v -0.001807 -0.017424 -0.022280
v -0.012268 -0.005911 -0.011818
v -0.013664 0.012218 -0.022631
v -0.001807 0.015007 -0.027511
v -0.001807 -0.014632 -0.011818
v -0.010873 0.000014 -0.033788
v -0.012268 0.008731 -0.011818
v -0.001807 -0.011843 -0.027509
v -0.015408 0.004546 -0.028904
v -0.009131 -0.012885 -0.018095
v -0.009828 0.015702 -0.023326
v -0.009131 -0.010447 -0.028554
v -0.012617 0.009079 -0.029603
v -0.015408 0.005939 -0.021586
v -0.008782 0.012916 -0.011818
v -0.005993 -0.013934 -0.011818
v -0.011920 -0.002077 -0.033788
v -0.009131 -0.012537 -0.025416
v -0.013664 -0.004866 -0.026113
v -0.009131 0.016052 -0.021586
v -0.003900 0.015705 -0.026812
v -0.015408 0.002102 -0.027160
v -0.005295 -0.016028 -0.020190
v -0.015058 0.009079 -0.026113
v -0.013664 0.005241 -0.014609
v -0.010524 -0.011145 -0.019143
v -0.011920 -0.008005 -0.028554
v -0.012268 0.013611 -0.020536
v -0.005295 0.014309 -0.011818
v -0.002157 -0.013586 -0.026812
v -0.010524 -0.009401 -0.011818
v -0.012966 0.011867 -0.026463
v -0.002157 -0.017424 -0.019493
v -0.015408 0.007332 -0.021586
v -0.014709 0.004546 -0.030300
v -0.012966 -0.002424 -0.032741
v -0.006341 -0.012541 -0.027509
v -0.001807 0.016056 -0.026113
v -0.010873 0.010471 -0.029253
v -0.012268 -0.007655 -0.018095
v -0.011920 0.000014 -0.033788
v -0.002157 -0.007658 -0.027859
v -0.006690 0.015358 -0.026113
v -0.001807 -0.016028 -0.014261
v -0.002157 0.011520 -0.027859
v -0.010524 -0.011145 -0.023672
v -0.015408 0.002800 -0.028904
v -0.013664 0.002102 -0.014609
v -0.002157 -0.016726 -0.023672
v -0.010873 -0.001726 -0.033788
v -0.013315 0.012565 -0.024717
v -0.007039 0.016056 -0.019839
v -0.005644 -0.015677 -0.022280
v -0.015408 0.004546 -0.022631
v -0.007039 -0.013239 -0.011818
v -0.011222 -0.008005 -0.029603
v -0.008084 -0.012888 -0.026113
v -0.009131 -0.012885 -0.023672
v -0.010524 0.011169 -0.011818
v -0.008433 -0.010447 -0.028904
v -0.014011 0.009426 -0.027859
f 246 227 256 
f 195 194 196 
f 195 196 199 
f 196 194 200 
f 194 197 200 
f 197 194 202 
f 199 196 203 
f 202 194 210 
f 200 197 211 
f 209 204 217 
f 193 214 217 
f 214 197 217 
f 197 202 220 
f 214 193 222 
f 198 202 223 
f 215 206 223 
f 210 215 223 
f 194 195 224 
f 210 194 224 
f 215 210 224 
f 203 196 225 
f 211 197 226 
f 221 205 226 
f 218 196 228 
f 211 218 228 
f 202 198 229 
f 204 209 229 
f 198 219 229 
f 219 204 229 
f 220 202 229 
f 209 220 229 
f 204 219 230 
f 222 193 231 
f 195 199 233 
f 206 215 233 
f 199 216 233 
f 216 206 233 
f 216 199 234 
f 208 227 234 
f 197 214 235 
f 214 221 235 
f 226 197 235 
f 221 226 235 
f 199 201 236 
f 201 212 236 
f 230 208 236 
f 212 231 236 
f 231 230 236 
f 234 199 236 
f 208 234 236 
f 199 203 237 
f 206 216 238 
f 227 206 238 
f 216 234 238 
f 234 227 238 
f 196 200 239 
f 200 211 239 
f 228 196 239 
f 211 228 239 
f 201 199 240 
f 199 237 240 
f 237 201 240 
f 205 221 241 
f 221 214 241 
f 214 222 241 
f 222 213 241 
f 193 217 242 
f 217 204 242 
f 204 230 242 
f 231 193 242 
f 230 231 242 
f 209 197 243 
f 197 220 243 
f 220 209 243 
f 225 196 244 
f 232 225 244 
f 212 201 245 
f 203 225 245 
f 225 212 245 
f 201 237 245 
f 237 203 245 
f 219 198 246 
f 198 223 246 
f 223 206 246 
f 206 227 246 
f 224 195 247 
f 215 224 247 
f 195 233 247 
f 233 215 247 
f 196 218 248 
f 244 196 248 
f 197 209 249 
f 217 197 249 
f 209 217 249 
f 218 211 250 
f 205 218 250 
f 211 226 250 
f 226 205 250 
f 207 213 251 
f 213 222 251 
f 231 212 251 
f 222 231 251 
f 213 207 252 
f 207 232 252 
f 232 244 252 
f 248 213 252 
f 244 248 252 
f 218 205 253 
f 205 241 253 
f 241 213 253 
f 213 248 253 
f 248 218 253 
f 202 210 254 
f 223 202 254 
f 210 223 254 
f 212 225 255 
f 232 207 255 
f 225 232 255 
f 207 251 255 
f 251 212 255 
f 227 208 256 
f 208 230 256 
f 230 219 256 
f 219 246 256 
o convex_4
v 0.026093 0.005589 -0.021930
v -0.001806 -0.017420 -0.022626
v -0.001806 -0.017420 -0.018795
v -0.001806 0.016049 -0.019144
v 0.018419 -0.006608 -0.011819
v -0.001806 0.015006 -0.027511
v 0.009702 -0.018120 -0.025417
v -0.001806 0.014310 -0.011818
v 0.014585 0.015705 -0.014260
v -0.001457 -0.014977 -0.011818
v 0.008656 0.018844 -0.026115
v 0.019115 -0.012886 -0.020884
v 0.020164 0.005937 -0.011819
v -0.001806 -0.011838 -0.027511
v 0.023648 0.009775 -0.023674
v 0.011447 -0.013237 -0.011818
v 0.013885 0.018840 -0.020534
v 0.008656 -0.019167 -0.022628
v 0.022952 -0.003121 -0.023674
v 0.020164 0.013262 -0.017051
v 0.022605 -0.004864 -0.017747
v 0.011097 0.015006 -0.011818
v 0.006564 0.019540 -0.024022
v 0.007959 0.016753 -0.026463
v 0.005168 -0.017072 -0.026463
v 0.017373 0.016749 -0.024021
v 0.022256 0.001406 -0.013911
v 0.022256 -0.008007 -0.022279
v 0.003776 -0.016028 -0.013214
v 0.024697 0.009775 -0.021233
v 0.010750 0.018844 -0.019489
v 0.003776 -0.018816 -0.025417
v 0.017373 -0.012886 -0.024371
v 0.026093 0.003849 -0.020535
v 0.003077 -0.019167 -0.021231
v 0.016327 -0.012538 -0.015655
v 0.017023 0.011171 -0.011819
v 0.000635 0.011867 -0.027511
v 0.013189 -0.017072 -0.021930
v -0.001806 -0.015677 -0.013214
v 0.020511 0.009076 -0.013563
v -0.001806 0.016049 -0.026113
v 0.023998 0.005937 -0.017050
v 0.019465 -0.008355 -0.014609
v 0.009005 0.019892 -0.024720
v 0.017373 0.017101 -0.021930
v 0.014235 -0.012886 -0.025069
v 0.022605 -0.006959 -0.019838
v 0.005168 0.015705 -0.012865
v 0.017720 -0.013933 -0.023325
v 0.026093 0.003849 -0.022279
v -0.001457 -0.014633 -0.026462
v 0.017373 0.015353 -0.016352
v 0.015977 0.016053 -0.025069
v 0.023302 -0.001725 -0.023674
v 0.019814 -0.002773 -0.011819
v 0.020511 -0.004864 -0.013563
v 0.023648 0.011171 -0.022279
v 0.010401 -0.016028 -0.016703
v 0.007263 0.019540 -0.025417
v -0.001107 -0.011142 -0.027511
v 0.012839 0.018840 -0.019489
v -0.000758 -0.016025 -0.013214
v 0.016327 0.013262 -0.012865
f 276 309 320 
f 258 259 260 
f 258 260 262 
f 260 259 264 
f 258 262 270 
f 264 266 272 
f 264 272 278 
f 272 269 278 
f 260 264 279 
f 262 267 280 
f 272 266 285 
f 257 271 286 
f 279 264 287 
f 263 274 288 
f 281 263 288 
f 275 284 289 
f 283 277 290 
f 257 286 290 
f 259 258 291 
f 274 285 291 
f 258 288 291 
f 288 274 291 
f 261 272 292 
f 278 269 293 
f 270 262 294 
f 262 280 294 
f 274 263 295 
f 268 292 295 
f 292 272 295 
f 264 259 296 
f 266 264 296 
f 286 276 297 
f 293 269 297 
f 262 260 298 
f 260 279 298 
f 269 283 299 
f 283 290 299 
f 290 286 299 
f 286 297 299 
f 297 269 299 
f 261 292 300 
f 292 268 300 
f 282 267 301 
f 273 282 301 
f 279 287 301 
f 282 273 302 
f 281 280 303 
f 263 281 303 
f 289 263 303 
f 268 284 304 
f 290 277 304 
f 277 300 304 
f 300 268 304 
f 264 278 305 
f 287 264 305 
f 284 268 306 
f 263 289 306 
f 289 284 306 
f 295 263 306 
f 268 295 306 
f 271 257 307 
f 284 275 307 
f 257 290 307 
f 304 284 307 
f 290 304 307 
f 258 270 308 
f 270 281 308 
f 288 258 308 
f 281 288 308 
f 273 265 309 
f 302 273 309 
f 276 302 309 
f 280 267 310 
f 267 282 310 
f 282 271 310 
f 275 289 311 
f 303 280 311 
f 289 303 311 
f 271 307 311 
f 307 275 311 
f 310 271 311 
f 280 310 311 
f 272 261 312 
f 269 272 312 
f 283 269 312 
f 277 283 313 
f 261 300 313 
f 300 277 313 
f 312 261 313 
f 283 312 313 
f 271 282 314 
f 286 271 314 
f 276 286 314 
f 302 276 314 
f 282 302 314 
f 272 285 315 
f 285 274 315 
f 274 295 315 
f 295 272 315 
f 267 262 316 
f 262 298 316 
f 298 279 316 
f 301 267 316 
f 279 301 316 
f 280 281 317 
f 281 270 317 
f 270 294 317 
f 294 280 317 
f 265 273 318 
f 278 265 318 
f 273 301 318 
f 301 287 318 
f 305 278 318 
f 287 305 318 
f 285 266 319 
f 259 291 319 
f 291 285 319 
f 296 259 319 
f 266 296 319 
f 265 278 320 
f 278 293 320 
f 297 276 320 
f 293 297 320 
f 309 265 320 
