o convex_0
v 0.006984 0.015345 -0.024981
v 0.007907 0.009349 -0.016681
v 0.008829 0.009349 -0.016681
v 0.004677 0.019960 -0.041591
v 0.003294 0.013040 -0.019911
v 0.001448 0.020422 -0.036054
v 0.006062 0.020422 -0.038359
v 0.006062 0.011657 -0.014835
v 0.003294 0.012118 -0.020372
v 0.008829 0.012118 -0.018525
v 0.001448 0.019960 -0.038359
v 0.006062 0.019960 -0.041127
v 0.004217 0.011196 -0.014835
f 5 9 13 
f 3 2 4 
f 6 1 7 
f 4 6 7 
f 1 6 8 
f 4 2 9 
f 5 6 9 
f 7 1 10 
f 1 8 10 
f 8 3 10 
f 6 4 11 
f 4 9 11 
f 9 6 11 
f 3 4 12 
f 4 7 12 
f 7 10 12 
f 10 3 12 
f 2 3 13 
f 6 5 13 
f 3 8 13 
f 8 6 13 
f 9 2 13 
o convex_1
v 0.022210 0.020420 0.006854
v 0.018058 0.003351 0.000392
v 0.018520 0.020420 -0.012984
v 0.022671 0.008428 0.001314
v 0.019904 0.017189 0.010082
v 0.023133 0.010272 0.011928
v 0.020366 0.020420 -0.012984
v 0.019443 0.005198 0.009621
v 0.021287 0.003814 0.002701
v 0.018520 0.019957 -0.005140
v 0.023133 0.017189 0.006854
v 0.019904 0.020884 0.006854
v 0.021287 0.020884 -0.008832
v 0.018058 0.003351 0.003623
v 0.022210 0.004274 0.007315
v 0.022210 0.015346 0.012389
v 0.018982 0.009813 -0.005601
v 0.021287 0.010272 0.012852
v 0.021287 0.007504 -0.001451
v 0.023133 0.016267 0.011467
v 0.021287 0.003351 0.007315
f 19 31 34 
f 19 17 24 
f 16 23 25 
f 23 18 25 
f 20 16 26 
f 17 20 26 
f 24 17 26 
f 14 24 26 
f 25 14 26 
f 16 25 26 
f 16 15 27 
f 21 18 27 
f 23 16 27 
f 18 23 27 
f 17 19 28 
f 22 17 28 
f 25 18 29 
f 15 16 30 
f 16 20 30 
f 18 21 31 
f 29 18 31 
f 19 29 31 
f 20 17 32 
f 17 22 32 
f 22 15 32 
f 15 30 32 
f 30 20 32 
f 19 24 33 
f 24 14 33 
f 14 25 33 
f 29 19 33 
f 25 29 33 
f 15 22 34 
f 27 15 34 
f 21 27 34 
f 28 19 34 
f 22 28 34 
f 31 21 34 
o convex_2
v 0.001448 0.052258 0.026232
v -0.001781 0.046722 0.025310
v -0.000859 0.046722 0.025310
v 0.001448 0.049029 0.034999
v -0.002704 0.049490 0.033152
v -0.003166 0.046722 0.030384
f 38 39 40 
f 37 36 35 
f 37 35 38 
f 38 35 39 
f 35 36 39 
f 39 36 40 
f 36 37 40 
f 37 38 40 
o convex_3
v -0.023007 -0.016487 0.006393
v -0.025312 0.006119 0.011006
v -0.024851 0.006119 0.010545
v -0.021622 -0.018334 0.008238
v -0.021622 -0.001265 0.005008
v -0.025312 -0.018334 0.011006
v -0.026697 0.005195 0.010545
v -0.021622 0.001504 0.007316
v -0.023929 -0.009104 0.006393
v -0.025312 -0.018334 0.010083
v -0.023929 0.003350 0.007316
v -0.024851 0.001042 0.011006
f 44 48 52 
f 44 41 45 
f 42 43 47 
f 46 42 47 
f 44 45 48 
f 45 41 49 
f 47 49 50 
f 41 44 50 
f 44 46 50 
f 46 47 50 
f 49 41 50 
f 47 43 51 
f 43 48 51 
f 48 45 51 
f 45 49 51 
f 49 47 51 
f 43 42 52 
f 42 46 52 
f 46 44 52 
f 48 43 52 
o convex_4
v -0.027158 0.001965 0.011007
v -0.027158 0.002427 0.020233
v -0.027158 0.005194 0.019310
v -0.024852 -0.018334 0.011007
v -0.024852 -0.001725 0.011007
v -0.028542 0.000121 0.017465
v -0.025775 -0.018334 0.017004
v -0.026236 -0.018334 0.012853
v -0.025775 -0.005415 0.018387
v -0.027158 0.007503 0.011930
v -0.028081 0.001965 0.011930
v -0.025775 0.006580 0.011930
v -0.028081 0.007041 0.016542
v -0.028081 0.000121 0.020233
v -0.026236 -0.018334 0.017004
f 59 66 67 
f 56 53 57 
f 56 59 60 
f 55 54 61 
f 56 57 61 
f 59 56 61 
f 54 59 61 
f 53 56 63 
f 56 60 63 
f 60 58 63 
f 62 53 63 
f 57 53 64 
f 55 61 64 
f 61 57 64 
f 53 62 64 
f 64 62 65 
f 63 58 65 
f 62 63 65 
f 55 64 65 
f 54 55 66 
f 59 54 66 
f 55 65 66 
f 65 58 66 
f 58 60 67 
f 60 59 67 
f 66 58 67 
o convex_5
v -0.020699 -0.000802 0.004549
v -0.014702 0.012578 0.014236
v -0.014240 0.014424 0.010543
v -0.011932 -0.000802 0.001318
v -0.015163 0.014424 0.003625
v -0.017930 0.002430 0.012852
v -0.021622 0.001045 0.006395
v -0.011932 0.007503 0.000856
v -0.016086 0.013500 0.010082
v -0.014702 0.009348 0.013774
v -0.011932 -0.000802 0.002242
v -0.015624 0.012116 0.014236
v -0.018391 0.000583 0.010544
v -0.019314 0.002890 0.011928
v -0.021622 -0.000802 0.006395
v -0.011932 0.007041 0.002703
v -0.014240 0.014424 0.003625
f 75 72 84 
f 72 68 74 
f 71 68 75 
f 68 72 75 
f 70 72 76 
f 72 74 76 
f 77 73 78 
f 68 71 78 
f 71 75 78 
f 69 77 78 
f 69 70 79 
f 70 76 79 
f 76 74 79 
f 77 69 79 
f 73 77 79 
f 78 73 80 
f 73 79 81 
f 79 74 81 
f 74 68 82 
f 68 78 82 
f 80 73 82 
f 78 80 82 
f 73 81 82 
f 81 74 82 
f 70 69 83 
f 75 70 83 
f 69 78 83 
f 78 75 83 
f 72 70 84 
f 70 75 84 
o convex_6
v 0.017136 -0.084773 0.009162
v 0.017136 -0.093542 0.017927
v 0.016675 -0.093542 0.017927
v 0.019442 -0.073706 0.015618
v 0.021288 -0.099536 0.013775
v 0.021288 -0.073706 0.008701
v 0.016675 -0.102767 0.011930
v 0.015290 -0.087542 0.016080
v 0.021288 -0.083849 0.008239
v 0.019903 -0.103226 0.017004
v 0.015290 -0.102305 0.017927
v 0.018519 -0.073706 0.009625
v 0.021288 -0.097232 0.016080
v 0.015290 -0.101381 0.013314
v 0.019903 -0.102305 0.011930
v 0.015290 -0.088463 0.013312
v 0.018057 -0.073706 0.013312
v 0.015290 -0.089381 0.017464
v 0.016675 -0.104150 0.014236
v 0.017597 -0.084311 0.008700
f 96 90 104 
f 90 89 93 
f 86 87 95 
f 94 86 95 
f 88 90 96 
f 88 86 97 
f 90 88 97 
f 89 90 97 
f 86 94 97 
f 94 89 97 
f 85 91 98 
f 95 92 98 
f 93 89 99 
f 91 93 99 
f 89 94 99 
f 96 85 100 
f 85 98 100 
f 98 92 100 
f 88 96 101 
f 96 100 101 
f 100 92 101 
f 87 86 102 
f 86 88 102 
f 95 87 102 
f 92 95 102 
f 88 101 102 
f 101 92 102 
f 94 95 103 
f 98 91 103 
f 95 98 103 
f 91 99 103 
f 99 94 103 
f 91 85 104 
f 90 93 104 
f 93 91 104 
f 85 96 104 
o convex_7
v 0.023597 -0.083854 0.008701
v 0.026363 -0.088927 0.018850
v 0.025901 -0.088927 0.018850
v 0.026362 -0.073701 0.016541
v 0.021288 -0.096308 0.016080
v 0.021288 -0.073701 0.009162
v 0.027285 -0.086156 0.011469
v 0.025440 -0.073701 0.010547
v 0.021288 -0.096768 0.013315
v 0.028209 -0.087541 0.017927
v 0.021288 -0.083854 0.008238
v 0.025440 -0.073701 0.016080
v 0.021750 -0.097694 0.014237
v 0.028209 -0.085235 0.015618
v 0.023135 -0.073701 0.008701
v 0.026823 -0.085698 0.010547
v 0.023134 -0.093539 0.017926
v 0.027747 -0.087079 0.012853
f 118 114 122 
f 107 106 108 
f 110 108 112 
f 109 110 113 
f 108 106 114 
f 105 113 115 
f 113 110 115 
f 107 108 116 
f 108 110 116 
f 110 109 116 
f 109 113 117 
f 112 108 118 
f 111 112 118 
f 108 114 118 
f 110 112 119 
f 105 115 119 
f 115 110 119 
f 112 111 120 
f 113 105 120 
f 117 113 120 
f 111 117 120 
f 105 119 120 
f 119 112 120 
f 106 107 121 
f 114 106 121 
f 107 116 121 
f 116 109 121 
f 109 117 121 
f 117 114 121 
f 117 111 122 
f 114 117 122 
f 111 118 122 
o convex_8
v -0.005936 0.019035 -0.002835
v -0.016085 0.019498 0.002239
v -0.016085 0.019498 0.003162
v -0.013776 0.007507 0.003624
v -0.007319 0.025495 0.001316
v -0.012853 0.017653 -0.003297
v -0.004089 0.007503 -0.002835
v -0.007782 0.008427 -0.004220
v -0.014699 0.025957 0.003624
v -0.002706 0.016730 -0.002374
v -0.012854 0.007507 0.003624
v -0.014237 0.017191 -0.002374
v -0.010549 0.025957 0.000855
v -0.011011 0.007507 -0.001451
v -0.008242 0.016730 -0.004220
v -0.003167 0.010273 -0.002374
v -0.005475 0.007966 -0.004220
v -0.002706 0.017191 -0.002835
v -0.013777 0.025957 0.003624
v -0.013776 0.007507 0.002701
v -0.015162 0.025495 0.003162
f 131 135 143 
f 125 124 126 
f 125 126 131 
f 126 129 133 
f 131 126 133 
f 128 130 134 
f 127 123 135 
f 134 130 136 
f 130 128 137 
f 135 123 137 
f 128 135 137 
f 132 127 138 
f 133 129 138 
f 127 133 138 
f 129 136 139 
f 136 130 139 
f 130 137 139 
f 138 129 139 
f 138 139 140 
f 123 127 140 
f 127 132 140 
f 137 123 140 
f 132 138 140 
f 139 137 140 
f 131 133 141 
f 133 127 141 
f 127 135 141 
f 135 131 141 
f 126 124 142 
f 129 126 142 
f 124 134 142 
f 136 129 142 
f 134 136 142 
f 124 125 143 
f 125 131 143 
f 134 124 143 
f 128 134 143 
f 135 128 143 
o convex_9
v 0.029131 -0.064936 0.013316
v 0.027285 -0.064014 0.020234
v 0.026364 -0.064014 0.020234
v 0.026364 -0.073700 0.016543
v 0.023595 -0.059398 0.008238
v 0.023595 -0.073700 0.009163
v 0.029593 -0.061246 0.016543
v 0.026824 -0.062629 0.008238
v 0.025441 -0.059398 0.016543
v 0.025441 -0.073700 0.010545
v 0.029593 -0.065398 0.017003
v 0.023595 -0.060784 0.010545
v 0.026364 -0.059398 0.010086
v 0.023595 -0.064936 0.007315
v 0.023595 -0.073700 0.010086
v 0.028208 -0.063091 0.010086
f 156 150 159 
f 145 146 147 
f 146 145 152 
f 145 150 152 
f 147 149 153 
f 149 151 153 
f 145 147 154 
f 150 145 154 
f 144 150 154 
f 153 144 154 
f 147 153 154 
f 148 149 155 
f 146 152 155 
f 152 148 155 
f 151 148 156 
f 148 152 156 
f 152 150 156 
f 149 148 157 
f 148 151 157 
f 151 149 157 
f 147 146 158 
f 149 147 158 
f 146 155 158 
f 155 149 158 
f 150 144 159 
f 144 153 159 
f 153 151 159 
f 151 156 159 
o convex_10
v 0.019903 -0.014182 -0.001450
v 0.010214 -0.017412 -0.005604
v 0.010214 -0.016951 -0.005604
v 0.019903 -0.014645 0.004086
v 0.020365 -0.021103 -0.002835
v 0.010214 -0.021103 -0.001450
v 0.010214 -0.014182 -0.002835
v 0.015290 -0.014182 -0.005604
v 0.016212 -0.021103 -0.005604
v 0.020365 -0.021103 -0.001450
v 0.020365 -0.014182 0.004086
v 0.018519 -0.014182 -0.003758
f 168 167 171 
f 162 161 165 
f 165 163 166 
f 162 165 166 
f 162 166 167 
f 161 162 167 
f 166 160 167 
f 165 161 168 
f 164 165 168 
f 161 167 168 
f 165 164 169 
f 163 165 169 
f 164 160 170 
f 166 163 170 
f 160 166 170 
f 163 169 170 
f 169 164 170 
f 160 164 171 
f 167 160 171 
f 164 168 171 
o convex_11
v 0.025439 -0.016029 0.014233
v 0.020365 -0.021103 -0.002372
v 0.020365 -0.018334 -0.002372
v 0.020827 -0.021103 0.012389
v 0.025901 -0.021103 0.006853
v 0.020365 -0.014182 0.003165
v 0.024055 -0.014182 0.005009
v 0.022211 -0.015106 0.014696
v 0.024055 -0.017873 0.001318
v 0.026824 -0.015567 0.010544
v 0.024517 -0.014182 0.012850
v 0.025439 -0.021103 0.009620
f 176 181 183 
f 175 173 176 
f 174 173 177 
f 173 175 177 
f 174 177 178 
f 175 172 179 
f 177 175 179 
f 173 174 180 
f 176 173 180 
f 174 178 180 
f 180 178 181 
f 176 180 181 
f 178 177 182 
f 177 179 182 
f 179 172 182 
f 181 178 182 
f 172 181 182 
f 172 175 183 
f 175 176 183 
f 181 172 183 
o convex_12
v 0.010677 0.009349 -0.015291
v 0.021288 0.007503 0.000394
v 0.018978 0.007503 0.000394
v 0.010215 0.001505 -0.006528
v 0.007446 0.013502 -0.014370
v 0.018518 0.013502 -0.008372
v 0.016673 0.002428 -0.004221
v 0.016673 0.002428 0.000394
v 0.007446 0.008887 -0.015291
v 0.010215 0.001967 -0.005604
v 0.012984 0.005658 -0.011139
v 0.018058 0.013502 -0.006991
v 0.017135 0.010272 -0.009294
v 0.021288 0.006119 -0.000069
v 0.009755 0.013502 -0.014830
v 0.011599 0.003351 -0.009755
v 0.017594 0.001505 0.000394
v 0.007446 0.007503 -0.012062
v 0.013444 0.010272 -0.013446
f 184 198 202 
f 185 186 191 
f 186 188 193 
f 191 186 193 
f 186 185 195 
f 188 186 195 
f 189 188 195 
f 185 189 195 
f 190 194 196 
f 189 185 197 
f 196 189 197 
f 190 196 197 
f 188 189 198 
f 184 192 198 
f 192 188 198 
f 190 187 199 
f 192 184 199 
f 187 192 199 
f 184 194 199 
f 194 190 199 
f 187 190 200 
f 185 191 200 
f 193 187 200 
f 191 193 200 
f 197 185 200 
f 190 197 200 
f 192 187 201 
f 188 192 201 
f 193 188 201 
f 187 193 201 
f 194 184 202 
f 189 196 202 
f 196 194 202 
f 198 189 202 
o convex_13
v -0.007780 0.050874 -0.005604
v -0.012857 0.037955 -0.014369
v -0.013316 0.038418 -0.015292
v -0.018853 0.044415 -0.006527
v -0.018853 0.043034 -0.016216
v -0.007780 0.044415 -0.015292
v -0.007780 0.049488 -0.002374
v -0.018853 0.039340 -0.010218
v -0.012857 0.037955 -0.011142
v -0.010087 0.049950 -0.009293
v -0.007319 0.043493 -0.013907
v -0.007319 0.049950 -0.010677
v -0.012395 0.049488 -0.006989
v -0.018853 0.043494 -0.006527
v -0.009165 0.049950 -0.002374
v -0.012857 0.039803 -0.016216
v -0.007319 0.049950 -0.002374
f 217 209 219 
f 205 204 210 
f 206 207 210 
f 207 205 210 
f 210 204 211 
f 211 204 213 
f 208 207 214 
f 212 203 214 
f 207 212 214 
f 213 208 214 
f 207 206 215 
f 203 212 215 
f 212 207 215 
f 206 210 216 
f 211 209 216 
f 210 211 216 
f 215 206 217 
f 203 215 217 
f 206 216 217 
f 216 209 217 
f 204 205 218 
f 205 207 218 
f 207 208 218 
f 213 204 218 
f 208 213 218 
f 209 211 219 
f 211 213 219 
f 214 203 219 
f 213 214 219 
f 203 217 219 
o convex_14
v 0.017595 0.017654 -0.007449
v 0.007446 0.013502 -0.014832
v 0.007446 0.013502 -0.014370
v 0.007446 0.020884 -0.012986
v 0.018519 0.019960 -0.011601
v 0.018058 0.013502 -0.006988
v 0.012983 0.013502 -0.013447
v 0.011599 0.020884 -0.013909
v 0.018519 0.020884 -0.010218
v 0.007446 0.019499 -0.012524
v 0.018519 0.013502 -0.008372
v 0.013904 0.020884 -0.010218
f 228 223 231 
f 221 222 223 
f 222 221 225 
f 225 221 226 
f 221 223 227 
f 226 221 227 
f 224 226 227 
f 220 225 228 
f 227 223 228 
f 224 227 228 
f 223 222 229 
f 220 223 229 
f 222 225 229 
f 225 220 229 
f 226 224 230 
f 225 226 230 
f 224 228 230 
f 228 225 230 
f 223 220 231 
f 220 228 231 
o convex_15
v -0.024852 -0.072775 0.020233
v -0.029003 -0.047867 0.022541
v -0.029464 -0.047867 0.022541
v -0.026236 -0.046018 0.015159
v -0.023006 -0.048328 0.017466
v -0.029925 -0.047867 0.016543
v -0.022544 -0.071853 0.021617
v -0.024390 -0.068624 0.017467
v -0.026697 -0.069085 0.022541
v -0.027619 -0.061246 0.017005
v -0.023007 -0.068163 0.017928
v -0.024391 -0.049250 0.015159
v -0.028080 -0.048789 0.015159
v -0.026697 -0.069085 0.019312
v -0.029925 -0.048789 0.019311
v -0.028541 -0.048328 0.022541
v -0.022544 -0.071853 0.019312
v -0.029464 -0.046482 0.020696
v -0.023468 -0.073239 0.022079
f 248 238 250 
f 233 234 240 
f 242 239 243 
f 235 236 243 
f 236 242 243 
f 237 235 244 
f 241 237 244 
f 239 241 244 
f 243 239 244 
f 235 243 244 
f 239 232 245 
f 232 240 245 
f 237 241 245 
f 241 239 245 
f 240 234 246 
f 245 240 246 
f 237 245 246 
f 236 233 247 
f 238 236 247 
f 233 240 247 
f 236 238 248 
f 232 239 248 
f 242 236 248 
f 239 242 248 
f 234 233 249 
f 236 235 249 
f 233 236 249 
f 235 237 249 
f 246 234 249 
f 237 246 249 
f 240 232 250 
f 238 247 250 
f 247 240 250 
f 232 248 250 
o convex_16
v -0.001782 -0.009567 -0.003759
v 0.001909 -0.004955 -0.000067
v 0.002370 -0.004494 -0.000529
v 0.004216 -0.011413 -0.003759
v 0.004216 -0.003109 -0.008372
v -0.001782 -0.003109 -0.004680
v -0.001320 -0.011875 -0.000529
v 0.000987 -0.011875 -0.005602
v -0.000397 -0.003109 -0.001451
v 0.002370 -0.010489 -0.000067
v 0.004216 -0.010028 -0.007449
v 0.003755 -0.007722 -0.001451
v 0.003293 -0.003109 -0.002837
f 262 255 263 
f 256 251 257 
f 254 257 258 
f 256 255 258 
f 251 256 258 
f 257 251 258 
f 252 253 259 
f 255 256 259 
f 256 257 259 
f 257 252 259 
f 252 257 260 
f 257 254 260 
f 255 254 261 
f 254 258 261 
f 258 255 261 
f 253 252 262 
f 254 255 262 
f 252 260 262 
f 260 254 262 
f 259 253 263 
f 255 259 263 
f 253 262 263 
o convex_17
v -0.025312 -0.038634 0.011930
v -0.022545 -0.043246 0.018850
v -0.022083 -0.041864 0.018387
v -0.025312 -0.018334 0.011930
v -0.021622 -0.019719 0.007315
v -0.025312 -0.045094 0.017927
v -0.022545 -0.042324 0.015157
v -0.021622 -0.026643 0.013312
v -0.024390 -0.018334 0.008240
v -0.023006 -0.026643 0.008240
v -0.025312 -0.028949 0.009623
v -0.021622 -0.018334 0.008240
v -0.021622 -0.030797 0.011469
v -0.024390 -0.044170 0.014696
v -0.024390 -0.044633 0.018850
v -0.023006 -0.019258 0.006854
f 272 275 279 
f 265 266 267 
f 267 264 269 
f 266 265 270 
f 267 266 271 
f 264 267 274 
f 267 272 274 
f 273 264 274 
f 267 271 275 
f 271 268 275 
f 272 267 275 
f 266 270 276 
f 271 266 276 
f 268 271 276 
f 273 268 276 
f 270 273 276 
f 269 264 277 
f 270 265 277 
f 264 273 277 
f 273 270 277 
f 265 267 278 
f 267 269 278 
f 277 265 278 
f 269 277 278 
f 268 273 279 
f 274 272 279 
f 273 274 279 
f 275 268 279 
o convex_18
v -0.021159 -0.052479 0.012392
v -0.012395 -0.051556 0.016542
v -0.012395 -0.052479 0.016542
v -0.020236 -0.053861 0.019773
v -0.017929 -0.057091 0.012853
v -0.013318 -0.049248 0.011930
v -0.020698 -0.048786 0.017466
v -0.013318 -0.054322 0.019311
v -0.019775 -0.048786 0.011469
v -0.018852 -0.057091 0.018388
v -0.014701 -0.057091 0.015620
v -0.014241 -0.052479 0.011007
v -0.020698 -0.056168 0.012392
v -0.012856 -0.052479 0.019311
v -0.021621 -0.053861 0.016542
v -0.018391 -0.053399 0.010545
v -0.012856 -0.049248 0.013776
f 286 293 296 
f 280 286 288 
f 287 283 289 
f 287 289 290 
f 282 287 290 
f 289 284 290 
f 290 284 291 
f 285 282 291 
f 288 285 291 
f 282 290 291 
f 284 289 292 
f 282 281 293 
f 286 283 293 
f 283 287 293 
f 287 282 293 
f 286 280 294 
f 283 286 294 
f 289 283 294 
f 280 292 294 
f 292 289 294 
f 280 288 295 
f 291 284 295 
f 288 291 295 
f 292 280 295 
f 284 292 295 
f 281 282 296 
f 282 285 296 
f 285 288 296 
f 288 286 296 
f 293 281 296 
o convex_19
v -0.014701 -0.020643 0.003163
v -0.012856 -0.045556 0.012852
v -0.013317 -0.045556 0.012852
v -0.011932 -0.024795 0.010084
v -0.011932 -0.021105 0.003625
v -0.016085 -0.046477 0.009622
v -0.016085 -0.020181 0.005470
v -0.012395 -0.040479 0.009161
v -0.014239 -0.043707 0.012389
v -0.011932 -0.040479 0.011006
v -0.016085 -0.032641 0.005931
v -0.011932 -0.019719 0.004547
v -0.015162 -0.046477 0.009622
v -0.012856 -0.046936 0.011467
v -0.016085 -0.044172 0.010084
f 305 303 311 
f 299 298 300 
f 299 300 305 
f 302 299 305 
f 300 303 305 
f 300 298 306 
f 301 300 306 
f 304 301 306 
f 297 301 307 
f 303 297 307 
f 302 303 307 
f 301 297 308 
f 300 301 308 
f 297 303 308 
f 303 300 308 
f 301 304 309 
f 307 301 309 
f 302 307 309 
f 298 299 310 
f 299 302 310 
f 306 298 310 
f 304 306 310 
f 302 309 310 
f 309 304 310 
f 303 302 311 
f 302 305 311 
o convex_20
v -0.011932 -0.011408 0.001780
v -0.021622 -0.004033 0.005470
v -0.021622 -0.004033 0.005931
v -0.021621 -0.019719 0.007777
v -0.017469 -0.012795 0.010545
v -0.011932 -0.000802 0.002241
v -0.011932 -0.019719 0.004085
v -0.014701 -0.009569 0.000856
v -0.016086 -0.001726 0.006393
v -0.011932 -0.004955 0.005008
v -0.014240 -0.019719 0.002701
v -0.021622 -0.000802 0.005931
v -0.021621 -0.019719 0.009160
v -0.019313 -0.009571 0.010082
v -0.021159 -0.001264 0.004547
v -0.019314 -0.009112 0.003624
v -0.012395 -0.000802 0.001318
v -0.020236 -0.019719 0.009160
v -0.015163 -0.016486 0.002241
v -0.019775 -0.012334 0.010545
f 316 325 331 
f 314 313 315 
f 312 317 318 
f 317 320 321 
f 318 317 321 
f 316 318 321 
f 320 316 321 
f 312 318 322 
f 318 315 322 
f 319 312 322 
f 313 314 323 
f 320 317 323 
f 314 315 324 
f 315 318 324 
f 323 314 324 
f 316 320 325 
f 320 323 325 
f 313 323 326 
f 315 313 327 
f 313 326 327 
f 326 319 327 
f 317 312 328 
f 312 319 328 
f 323 317 328 
f 319 326 328 
f 326 323 328 
f 318 316 329 
f 324 318 329 
f 316 324 329 
f 322 315 330 
f 319 322 330 
f 315 327 330 
f 327 319 330 
f 324 316 331 
f 323 324 331 
f 325 323 331 
o convex_21
v -0.018392 0.042569 -0.048052
v -0.012394 0.041187 -0.030057
v -0.016545 0.042569 -0.030057
v -0.023927 0.039801 -0.045741
v -0.021160 0.045799 -0.046204
v -0.021621 0.039801 -0.030057
v -0.012394 0.042569 -0.047587
v -0.012394 0.039801 -0.036057
v -0.013319 0.043952 -0.037903
v -0.023466 0.039801 -0.047590
v -0.019315 0.042570 -0.030057
v -0.022083 0.045336 -0.047590
v -0.012394 0.043491 -0.047587
v -0.019315 0.045799 -0.045279
v -0.012394 0.040263 -0.030057
v -0.022083 0.040264 -0.031907
f 343 335 347 
f 333 334 337 
f 337 335 339 
f 338 333 339 
f 334 333 340 
f 332 338 341 
f 339 335 341 
f 338 339 341 
f 337 334 342 
f 332 341 343 
f 341 335 343 
f 342 336 343 
f 333 338 344 
f 338 332 344 
f 340 333 344 
f 332 343 344 
f 343 336 344 
f 334 340 345 
f 342 334 345 
f 336 342 345 
f 340 344 345 
f 344 336 345 
f 333 337 346 
f 339 333 346 
f 337 339 346 
f 335 337 347 
f 337 342 347 
f 342 343 347 
o convex_22
v -0.011932 0.007042 0.002239
v 0.007906 0.007041 -0.012986
v 0.007906 0.007503 -0.012986
v 0.010214 0.001507 -0.005603
v -0.011932 -0.003570 0.001316
v 0.001448 0.007503 -0.000069
v 0.010214 -0.003108 -0.009755
v -0.006396 -0.003570 0.002239
v -0.010547 0.007503 -0.001912
v 0.003292 -0.003108 -0.008370
v 0.010214 0.007503 -0.011601
v 0.010214 -0.000800 -0.005603
v -0.004087 0.001506 -0.005140
v 0.006520 0.000584 -0.002837
v -0.011469 -0.003108 0.003162
v 0.002833 -0.003108 -0.002375
v -0.011932 0.007503 0.000393
v -0.011469 0.004273 0.002700
f 362 355 365 
f 352 354 355 
f 350 349 356 
f 353 350 356 
f 349 354 357 
f 354 352 357 
f 349 350 358 
f 350 353 358 
f 353 351 358 
f 354 349 358 
f 351 354 358 
f 354 351 359 
f 356 349 360 
f 352 356 360 
f 349 357 360 
f 357 352 360 
f 351 353 361 
f 353 355 361 
f 359 351 361 
f 348 352 362 
f 352 355 362 
f 355 354 363 
f 354 359 363 
f 361 355 363 
f 359 361 363 
f 352 348 364 
f 348 353 364 
f 356 352 364 
f 353 356 364 
f 353 348 365 
f 355 353 365 
f 348 362 365 
o convex_23
v -0.006857 -0.016490 0.006393
v -0.007319 -0.037250 0.011929
v -0.007780 -0.037250 0.011929
v -0.008242 -0.038636 0.005931
v -0.011932 -0.020181 0.008239
v -0.011932 -0.023412 0.005931
v -0.006857 -0.019261 0.009622
v -0.011932 -0.023875 0.009622
v -0.011009 -0.017413 0.009160
v -0.011009 -0.016490 0.005931
v -0.008703 -0.038636 0.010083
v -0.006857 -0.038173 0.011468
v -0.006857 -0.017413 0.005931
f 377 369 378 
f 368 367 372 
f 370 371 373 
f 372 366 374 
f 368 372 374 
f 370 373 374 
f 373 368 374 
f 371 370 375 
f 369 371 375 
f 370 374 375 
f 374 366 375 
f 371 369 376 
f 368 373 376 
f 373 371 376 
f 367 368 377 
f 372 367 377 
f 366 372 377 
f 368 376 377 
f 376 369 377 
f 375 366 378 
f 369 375 378 
f 366 377 378 
o convex_24
v -0.007780 -0.095844 0.013775
v -0.008703 -0.086161 0.020234
v -0.004550 -0.085698 0.018849
v -0.009163 -0.074163 0.012391
v -0.009625 -0.103690 0.017004
v -0.005012 -0.103690 0.018849
v -0.005474 -0.074163 0.014236
v -0.010086 -0.074163 0.017004
v -0.005012 -0.096764 0.014699
v -0.010548 -0.082015 0.013313
v -0.008241 -0.104613 0.015159
v -0.005935 -0.099539 0.020234
v -0.006858 -0.081092 0.012391
v -0.010086 -0.086161 0.019311
v -0.005474 -0.074163 0.016082
v -0.009625 -0.098616 0.018849
v -0.005935 -0.103690 0.015159
v -0.010086 -0.095384 0.014236
v -0.009625 -0.081552 0.012391
v -0.004550 -0.095844 0.015621
v -0.010548 -0.081552 0.017466
v -0.009163 -0.074163 0.017466
v -0.007780 -0.105076 0.017926
v -0.005012 -0.098147 0.020234
f 390 384 402 
f 385 382 386 
f 386 382 388 
f 382 385 391 
f 385 387 391 
f 380 386 392 
f 381 385 393 
f 385 386 393 
f 390 380 394 
f 380 392 394 
f 389 379 395 
f 379 391 395 
f 391 387 395 
f 389 383 396 
f 379 389 396 
f 388 382 397 
f 382 391 397 
f 391 379 397 
f 379 396 397 
f 396 388 397 
f 381 384 398 
f 385 381 398 
f 387 385 398 
f 384 395 398 
f 395 387 398 
f 386 388 399 
f 392 386 399 
f 383 394 399 
f 394 392 399 
f 396 383 399 
f 388 396 399 
f 380 381 400 
f 386 380 400 
f 381 393 400 
f 393 386 400 
f 383 389 401 
f 384 390 401 
f 390 394 401 
f 394 383 401 
f 395 384 401 
f 389 395 401 
f 381 380 402 
f 384 381 402 
f 380 390 402 
o convex_25
v 0.006062 0.007503 -0.012525
v 0.000064 0.022269 -0.009295
v -0.000398 0.022269 -0.009295
v 0.007446 0.030112 -0.018523
v -0.000398 0.025035 -0.017138
v 0.007446 0.025035 -0.012527
v 0.001910 0.009814 -0.009295
v 0.007446 0.008889 -0.014831
v 0.005600 0.007503 -0.009295
v 0.000064 0.015346 -0.012986
v 0.004677 0.009814 -0.014831
v 0.004216 0.027803 -0.013909
v 0.000064 0.027341 -0.017138
v 0.007446 0.007503 -0.011603
v 0.004677 0.028726 -0.018523
v -0.000398 0.016269 -0.010218
f 412 409 418 
f 404 405 409 
f 406 408 410 
f 408 404 411 
f 404 409 411 
f 409 403 411 
f 403 409 413 
f 410 403 413 
f 412 407 413 
f 409 412 413 
f 405 404 414 
f 404 408 414 
f 408 406 414 
f 407 405 415 
f 405 414 415 
f 414 406 415 
f 403 410 416 
f 410 408 416 
f 408 411 416 
f 411 403 416 
f 406 410 417 
f 413 407 417 
f 410 413 417 
f 415 406 417 
f 407 415 417 
f 405 407 418 
f 409 405 418 
f 407 412 418 
o convex_26
v -0.007781 -0.048787 0.005932
v -0.008703 -0.064471 0.019772
v -0.009164 -0.064471 0.019772
v -0.007781 -0.074163 0.011929
v -0.011471 -0.059393 0.012391
v -0.007319 -0.038636 0.011929
v -0.006858 -0.074156 0.013314
v -0.010086 -0.074156 0.016541
v -0.008704 -0.038636 0.005932
v -0.011471 -0.057091 0.015159
v -0.010547 -0.061699 0.009161
v -0.006858 -0.046944 0.005932
v -0.006858 -0.059397 0.007316
v -0.008704 -0.038636 0.010546
v -0.009625 -0.074156 0.012852
v -0.011009 -0.057554 0.016541
v -0.009164 -0.074156 0.017464
v -0.007319 -0.044638 0.013314
v -0.009164 -0.061699 0.008239
f 433 429 437 
f 421 420 424 
f 423 426 428 
f 427 423 428 
f 427 419 429 
f 423 427 429 
f 424 425 430 
f 419 427 430 
f 427 424 430 
f 425 422 431 
f 419 430 431 
f 430 425 431 
f 424 427 432 
f 427 428 432 
f 422 426 433 
f 426 423 433 
f 423 429 433 
f 421 424 434 
f 426 421 434 
f 428 426 434 
f 424 432 434 
f 432 428 434 
f 420 421 435 
f 425 420 435 
f 422 425 435 
f 426 422 435 
f 421 426 435 
f 424 420 436 
f 425 424 436 
f 420 425 436 
f 429 419 437 
f 431 422 437 
f 419 431 437 
f 422 433 437 
o convex_27
v -0.004089 -0.047868 0.005931
v -0.002705 -0.064935 0.019311
v -0.003166 -0.064935 0.019311
v -0.006857 -0.074161 0.012852
v -0.006857 -0.047409 0.006393
v -0.003166 -0.038636 0.006854
v -0.003628 -0.058933 0.009622
v -0.003628 -0.058937 0.017926
v -0.006857 -0.063085 0.012391
v -0.005472 -0.058933 0.007317
v -0.005011 -0.073699 0.015160
v -0.005472 -0.070931 0.017002
v -0.002705 -0.064935 0.017002
v -0.003166 -0.044179 0.005931
v -0.006857 -0.058933 0.007317
v -0.003628 -0.038636 0.006854
v -0.004551 -0.059855 0.008239
f 451 444 454 
f 440 439 445 
f 439 443 445 
f 442 441 446 
f 445 442 446 
f 439 440 449 
f 440 445 449 
f 446 441 449 
f 445 446 449 
f 448 439 449 
f 441 448 449 
f 443 439 450 
f 439 448 450 
f 448 444 450 
f 438 442 451 
f 443 450 451 
f 450 444 451 
f 442 438 452 
f 441 442 452 
f 438 447 452 
f 447 441 452 
f 442 445 453 
f 445 443 453 
f 451 442 453 
f 443 451 453 
f 447 438 454 
f 441 447 454 
f 448 441 454 
f 444 448 454 
f 438 451 454 
o convex_28
v -0.015625 0.026882 -0.022677
v -0.017931 0.024575 -0.022677
v -0.020237 0.031034 -0.034670
v -0.021160 0.031496 -0.022214
v -0.015625 0.031496 -0.033285
v -0.019314 0.031496 -0.023599
v -0.018392 0.031034 -0.035593
v -0.015625 0.027805 -0.027752
v -0.018853 0.025499 -0.022214
f 455 458 463 
f 457 458 459 
f 458 455 460 
f 455 459 460 
f 459 458 460 
f 456 457 461 
f 457 459 461 
f 461 459 462 
f 455 456 462 
f 459 455 462 
f 456 461 462 
f 456 455 463 
f 457 456 463 
f 458 457 463 
o convex_29
v 0.001448 -0.088470 0.009623
v 0.002371 -0.091240 0.017466
v 0.002832 -0.080164 0.014696
v 0.003755 -0.112453 0.014236
v 0.003755 -0.077854 0.009161
v 0.000987 -0.105070 0.016542
v 0.001448 -0.078321 0.013774
v 0.003755 -0.112453 0.017004
v 0.001909 -0.111993 0.014696
v 0.003755 -0.088011 0.009161
v 0.000987 -0.086164 0.010546
v 0.001909 -0.112453 0.017466
v 0.000987 -0.104610 0.014236
v 0.002371 -0.111070 0.013774
v 0.002371 -0.077854 0.010084
v 0.001909 -0.091240 0.017466
f 469 475 479 
f 466 468 470 
f 466 465 471 
f 467 468 471 
f 468 466 471 
f 464 468 473 
f 468 467 473 
f 469 470 474 
f 471 465 475 
f 467 471 475 
f 469 472 475 
f 472 467 475 
f 472 469 476 
f 474 464 476 
f 469 474 476 
f 467 472 477 
f 464 473 477 
f 473 467 477 
f 472 476 477 
f 476 464 477 
f 468 464 478 
f 470 468 478 
f 464 474 478 
f 474 470 478 
f 465 466 479 
f 466 470 479 
f 470 469 479 
f 475 465 479 
o convex_30
v -0.013779 0.038417 0.024385
v -0.014240 0.033341 0.014238
v -0.015624 0.037495 0.014238
v -0.017931 0.043030 0.028537
v -0.015624 0.043492 0.014238
v -0.014240 0.042107 0.028076
v -0.013779 0.035649 0.014700
v -0.017007 0.042568 0.017006
v -0.014240 0.037034 0.023463
v -0.016546 0.043492 0.029461
v -0.017931 0.043492 0.023463
f 483 489 490 
f 481 482 484 
f 484 485 486 
f 480 481 486 
f 481 484 486 
f 485 480 486 
f 484 482 487 
f 481 480 488 
f 483 481 488 
f 480 485 488 
f 488 485 489 
f 485 484 489 
f 483 488 489 
f 489 484 490 
f 482 481 490 
f 481 483 490 
f 487 482 490 
f 484 487 490 
o convex_31
v 0.018060 0.044876 -0.009299
v 0.024056 0.037495 -0.020828
v 0.024056 0.037033 -0.020828
v 0.019903 0.043953 -0.025904
v 0.014367 0.038418 0.002700
v 0.021750 0.037033 -0.025904
v 0.021287 0.044876 -0.015291
v 0.014829 0.039341 0.005470
v 0.014367 0.043491 -0.001452
v 0.023132 0.043030 -0.025904
v 0.022670 0.037033 -0.014827
v 0.018060 0.037495 -0.013445
v 0.019903 0.044876 -0.025904
v 0.015292 0.043491 0.000390
v 0.019903 0.042108 -0.025441
v 0.024056 0.038418 -0.024980
v 0.019442 0.037033 -0.013445
v 0.014829 0.038418 0.005470
f 495 507 508 
f 495 498 499 
f 496 494 500 
f 497 492 500 
f 493 492 501 
f 496 493 501 
f 492 497 501 
f 497 498 501 
f 495 499 502 
f 491 497 503 
f 499 491 503 
f 494 499 503 
f 500 494 503 
f 497 500 503 
f 497 491 504 
f 498 497 504 
f 491 499 504 
f 499 498 504 
f 494 496 505 
f 499 494 505 
f 496 502 505 
f 502 499 505 
f 492 493 506 
f 493 496 506 
f 500 492 506 
f 496 500 506 
f 496 501 507 
f 502 496 507 
f 495 502 507 
f 498 495 508 
f 501 498 508 
f 507 501 508 
o convex_32
v 0.024055 -0.032177 0.007774
v 0.017136 -0.045557 0.003165
v 0.018980 -0.045557 0.003165
v 0.021747 -0.044632 0.014236
v 0.012525 -0.030331 0.005011
v 0.018518 -0.030331 -0.000990
v 0.017599 -0.030331 0.011929
v 0.015752 -0.045557 0.011926
v 0.023594 -0.045557 0.005009
v 0.012060 -0.031717 0.002241
v 0.023132 -0.030331 0.003626
v 0.023594 -0.042787 0.012850
v 0.014829 -0.044632 0.005932
v 0.013906 -0.030331 0.009158
v 0.014368 -0.030793 -0.000528
v 0.021747 -0.030331 0.010081
v 0.024518 -0.037252 0.007313
v 0.021286 -0.032638 0.000857
v 0.019902 -0.042787 0.014236
v 0.015290 -0.045557 0.011006
v 0.021746 -0.045095 0.003626
v 0.016216 -0.045557 0.003626
f 528 521 530 
f 511 510 514 
f 514 513 515 
f 510 511 516 
f 516 511 517 
f 512 516 517 
f 514 515 519 
f 512 517 520 
f 515 513 522 
f 516 515 522 
f 514 510 523 
f 513 514 523 
f 518 513 523 
f 515 512 524 
f 509 519 524 
f 519 515 524 
f 520 509 524 
f 512 520 524 
f 519 509 525 
f 517 519 525 
f 509 520 525 
f 520 517 525 
f 514 519 526 
f 519 517 526 
f 512 515 527 
f 516 512 527 
f 515 516 527 
f 510 516 528 
f 513 518 528 
f 518 521 528 
f 522 513 528 
f 516 522 528 
f 511 514 529 
f 517 511 529 
f 514 526 529 
f 526 517 529 
f 521 518 530 
f 523 510 530 
f 518 523 530 
f 510 528 530 
o convex_33
v -0.004550 0.019039 0.014236
v 0.000063 0.031957 0.022541
v -0.000398 0.031957 0.022541
v 0.000063 0.031957 0.014236
v -0.000859 0.023191 0.016544
v -0.006857 0.018578 0.016544
v -0.001782 0.031957 0.019311
v -0.000398 0.025957 0.020233
v 0.000525 0.029650 0.014236
v -0.004550 0.017654 0.015621
v -0.005473 0.020884 0.014698
v -0.000859 0.023191 0.014236
v -0.002244 0.030111 0.016544
f 541 536 543 
f 533 532 534 
f 533 534 537 
f 536 533 537 
f 532 533 538 
f 533 536 538 
f 534 532 539 
f 531 534 539 
f 532 538 539 
f 538 535 539 
f 536 531 540 
f 535 538 540 
f 538 536 540 
f 534 531 541 
f 531 536 541 
f 531 539 542 
f 539 535 542 
f 540 531 542 
f 535 540 542 
f 537 534 543 
f 536 537 543 
f 534 541 543 
o convex_34
v 0.027285 -0.058471 0.007777
v 0.024979 -0.053397 0.021618
v 0.024518 -0.053397 0.021618
v 0.023595 -0.037254 0.005470
v 0.023595 -0.059394 0.007317
v 0.029593 -0.056165 0.016542
v 0.023595 -0.037717 0.010084
v 0.025442 -0.059397 0.016542
v 0.028670 -0.051550 0.018388
v 0.029130 -0.052474 0.013774
v 0.024518 -0.058009 0.005470
v 0.024518 -0.037254 0.007317
v 0.024057 -0.051089 0.020695
v 0.028208 -0.058473 0.017926
v 0.024057 -0.039564 0.005008
v 0.027746 -0.058933 0.008699
v 0.027285 -0.055703 0.020695
v 0.027285 -0.052935 0.008239
v 0.027285 -0.050172 0.018848
v 0.024518 -0.037254 0.009161
v 0.023595 -0.058009 0.005470
v 0.023595 -0.045098 0.013313
f 556 550 565 
f 547 548 550 
f 546 548 551 
f 552 549 553 
f 546 545 556 
f 548 546 556 
f 544 554 558 
f 547 555 558 
f 551 548 559 
f 553 549 559 
f 554 544 559 
f 548 554 559 
f 549 557 559 
f 557 551 559 
f 545 546 560 
f 546 551 560 
f 552 545 560 
f 549 552 560 
f 557 549 560 
f 551 557 560 
f 555 553 561 
f 544 558 561 
f 558 555 561 
f 553 559 561 
f 559 544 561 
f 545 552 562 
f 556 545 562 
f 550 556 562 
f 547 550 563 
f 552 553 563 
f 555 547 563 
f 553 555 563 
f 562 552 563 
f 550 562 563 
f 548 547 564 
f 554 548 564 
f 558 554 564 
f 547 558 564 
f 550 548 565 
f 548 556 565 
o convex_35
v -0.011932 -0.018797 0.003163
v -0.010086 -0.016026 0.005931
v -0.010547 -0.016026 0.005931
v -0.005934 -0.047863 0.005931
v -0.005934 -0.004034 -0.002373
v -0.006396 -0.003570 0.002240
v -0.006396 -0.014643 -0.002835
v -0.011932 -0.003570 0.002240
v -0.008242 -0.046476 0.005469
v -0.010086 -0.014184 -0.000989
v -0.007319 -0.016486 0.005931
v -0.011932 -0.005417 0.005007
v -0.011932 -0.022951 0.005931
v -0.008241 -0.006804 -0.001912
v -0.005934 -0.016950 -0.002373
v -0.005934 -0.003570 -0.000067
f 573 571 581 
f 567 568 569 
f 572 574 575 
f 566 573 575 
f 574 566 575 
f 567 569 576 
f 569 571 576 
f 576 571 577 
f 568 567 577 
f 573 566 577 
f 571 573 577 
f 567 576 577 
f 569 568 578 
f 566 574 578 
f 574 569 578 
f 577 566 578 
f 568 577 578 
f 570 572 579 
f 573 570 579 
f 572 575 579 
f 575 573 579 
f 570 569 580 
f 572 570 580 
f 569 574 580 
f 574 572 580 
f 569 570 581 
f 571 569 581 
f 570 573 581 
o convex_36
v -0.018853 0.033805 -0.046204
v -0.007319 0.038877 -0.043439
v -0.007319 0.038417 -0.043439
v -0.016084 0.031496 -0.032364
v -0.007780 0.031496 -0.047127
v -0.016545 0.039340 -0.037442
v -0.017006 0.038877 -0.047588
v -0.018853 0.031496 -0.034674
v -0.013317 0.031958 -0.033289
v -0.007319 0.039340 -0.046204
v -0.013779 0.037954 -0.035135
v -0.018853 0.035187 -0.047588
v -0.008704 0.036108 -0.048052
v -0.011010 0.031496 -0.046667
v -0.017006 0.039340 -0.038826
v -0.018853 0.031496 -0.037442
v -0.017929 0.035187 -0.048049
f 586 595 598 
f 586 585 589 
f 585 587 589 
f 584 583 590 
f 585 586 590 
f 586 584 590 
f 583 584 591 
f 584 586 591 
f 587 583 591 
f 583 587 592 
f 587 585 592 
f 590 583 592 
f 585 590 592 
f 582 589 593 
f 591 586 594 
f 588 591 594 
f 586 589 595 
f 589 587 596 
f 587 591 596 
f 591 588 596 
f 588 593 596 
f 593 589 596 
f 589 582 597 
f 582 595 597 
f 595 589 597 
f 582 593 598 
f 593 588 598 
f 594 586 598 
f 588 594 598 
f 595 582 598 
o convex_37
v -0.000398 0.023653 -0.032826
v 0.004215 0.020422 -0.042514
v 0.005600 0.020422 -0.042514
v 0.006985 0.031034 -0.047589
v 0.007446 0.024114 -0.026366
v -0.000398 0.027343 -0.047589
v -0.000398 0.020422 -0.026366
v 0.000065 0.023653 -0.047587
v 0.001910 0.027805 -0.038824
v 0.004677 0.023191 -0.048052
v 0.007446 0.030111 -0.047589
v 0.006062 0.022269 -0.026831
v 0.000987 0.020422 -0.039287
v 0.006062 0.020422 -0.041590
v 0.006062 0.024114 -0.026366
v -0.000398 0.027805 -0.045740
v 0.006985 0.031034 -0.046201
v 0.000987 0.020422 -0.026366
f 612 610 616 
f 600 601 605 
f 599 604 605 
f 605 604 606 
f 601 600 608 
f 604 602 608 
f 606 604 608 
f 600 606 608 
f 608 602 609 
f 600 605 611 
f 605 606 611 
f 606 600 611 
f 605 601 612 
f 601 608 612 
f 609 603 612 
f 608 609 612 
f 603 610 612 
f 599 605 613 
f 605 603 613 
f 607 599 613 
f 604 599 614 
f 602 604 614 
f 599 607 614 
f 614 607 615 
f 609 602 615 
f 603 609 615 
f 613 603 615 
f 607 613 615 
f 602 614 615 
f 603 605 616 
f 610 603 616 
f 605 612 616 
o convex_38
v 0.010214 -0.023872 0.005468
v 0.014828 -0.030331 -0.000989
v 0.016212 -0.030331 -0.000989
v 0.014367 -0.021103 -0.005604
v 0.014367 -0.028945 0.009161
v 0.016212 -0.021103 -0.004219
v 0.012060 -0.030331 0.002240
v 0.010214 -0.021103 -0.001913
v 0.013444 -0.030331 0.008698
v 0.011599 -0.024333 0.006853
v 0.011137 -0.023872 -0.002374
v 0.010214 -0.025717 0.001779
f 627 623 628 
f 619 618 620 
f 621 619 622 
f 619 620 622 
f 618 619 623 
f 622 620 624 
f 619 621 625 
f 623 619 625 
f 617 623 625 
f 621 622 626 
f 622 624 626 
f 624 617 626 
f 617 625 626 
f 625 621 626 
f 620 618 627 
f 618 623 627 
f 624 620 627 
f 624 627 628 
f 623 617 628 
f 617 624 628 
o convex_39
v 0.013445 0.001505 -0.004681
v 0.010214 -0.014182 -0.004220
v 0.013907 -0.014182 -0.005603
v 0.021749 -0.012795 0.000394
v 0.012061 -0.004955 -0.009756
v 0.021288 0.001043 0.000394
v 0.016212 0.001505 0.000394
v 0.010214 0.001505 -0.005142
v 0.010214 -0.014182 -0.002836
v 0.019440 -0.014182 -0.002836
v 0.010214 -0.010951 -0.009294
v 0.022211 -0.000803 -0.000068
v 0.018979 -0.014182 0.000394
v 0.010677 -0.002648 -0.009756
v 0.012061 -0.008646 -0.009756
f 639 642 643 
f 634 629 635 
f 632 634 635 
f 635 629 636 
f 635 636 637 
f 630 631 637 
f 636 630 637 
f 637 631 638 
f 631 630 639 
f 630 636 639 
f 634 632 640 
f 632 638 640 
f 638 633 640 
f 632 635 641 
f 635 637 641 
f 638 632 641 
f 637 638 641 
f 629 634 642 
f 636 629 642 
f 639 636 642 
f 634 640 642 
f 640 633 642 
f 638 631 643 
f 633 638 643 
f 631 639 643 
f 642 633 643 
o convex_40
v 0.000064 -0.062628 0.006855
v 0.001448 -0.068626 0.017005
v 0.000526 -0.068626 0.017005
v 0.003755 -0.077854 0.009162
v 0.003754 -0.055710 0.004548
v 0.000987 -0.052481 0.010544
v 0.001448 -0.060320 0.016543
v -0.000859 -0.063090 0.010086
v 0.000987 -0.052481 0.004086
v 0.001909 -0.077854 0.011928
v 0.002831 -0.077389 0.014695
v 0.003755 -0.066319 0.009624
v 0.002370 -0.062166 0.004548
v -0.000397 -0.058939 0.013312
v 0.001909 -0.052481 0.011004
v 0.000064 -0.069548 0.016080
v 0.002370 -0.077389 0.009624
v 0.003754 -0.060320 0.004086
v 0.000064 -0.069086 0.010086
v 0.000526 -0.060320 0.016543
f 657 659 663 
f 646 645 650 
f 644 651 652 
f 645 646 654 
f 650 645 654 
f 653 647 654 
f 654 647 655 
f 650 654 655 
f 644 652 656 
f 649 652 657 
f 652 651 657 
f 648 652 658 
f 652 649 658 
f 655 648 658 
f 650 655 658 
f 654 646 659 
f 653 654 659 
f 657 651 659 
f 647 653 660 
f 644 656 660 
f 656 647 660 
f 652 648 661 
f 655 647 661 
f 648 655 661 
f 647 656 661 
f 656 652 661 
f 651 644 662 
f 659 651 662 
f 653 659 662 
f 644 660 662 
f 660 653 662 
f 646 650 663 
f 649 657 663 
f 658 649 663 
f 650 658 663 
f 659 646 663 
o convex_41
v 0.018981 -0.014182 0.000394
v 0.025902 -0.003570 0.010545
v 0.025902 -0.003570 0.009160
v 0.024516 -0.014182 0.005931
v 0.022672 -0.014182 0.010545
v 0.021288 -0.003570 0.000394
v 0.023594 -0.004032 0.001317
v 0.018519 -0.013720 0.002241
v 0.024978 -0.003570 0.010545
v 0.022211 -0.012335 0.000394
v 0.025440 -0.011412 0.010545
v 0.024516 -0.004493 0.002702
v 0.022211 -0.012797 0.010083
v 0.025440 -0.010950 0.007315
f 667 675 677 
f 664 667 668 
f 665 666 669 
f 669 666 670 
f 664 668 671 
f 669 664 671 
f 669 671 672 
f 668 665 672 
f 665 669 672 
f 667 664 673 
f 664 669 673 
f 669 670 673 
f 666 665 674 
f 668 667 674 
f 665 668 674 
f 670 666 675 
f 667 673 675 
f 673 670 675 
f 671 668 676 
f 672 671 676 
f 668 672 676 
f 666 674 677 
f 674 667 677 
f 675 666 677 
o convex_42
v 0.024978 -0.011874 0.010545
v 0.022672 -0.010029 0.016082
v 0.023594 -0.009568 0.015619
v 0.024978 -0.003570 0.010545
v 0.021288 -0.014182 0.012391
v 0.020826 -0.004955 0.015159
v 0.024978 -0.003570 0.013775
v 0.024517 -0.011874 0.014235
v 0.022672 -0.012335 0.010545
v 0.021750 -0.012335 0.016082
v 0.025902 -0.004032 0.011929
v 0.020826 -0.004955 0.014235
v 0.024056 -0.014182 0.012391
f 685 687 690 
f 681 683 684 
f 679 680 684 
f 683 679 684 
f 684 680 685 
f 681 678 686 
f 680 679 687 
f 679 683 687 
f 683 682 687 
f 685 680 687 
f 678 681 688 
f 681 684 688 
f 685 678 688 
f 684 685 688 
f 682 683 689 
f 683 681 689 
f 681 686 689 
f 686 682 689 
f 678 685 690 
f 686 678 690 
f 682 686 690 
f 687 682 690 
o convex_43
v -0.001782 0.051800 0.016544
v 0.001448 0.052261 0.025310
v 0.001448 0.062409 0.021617
v -0.000859 0.046722 0.014236
v -0.001320 0.046722 0.025310
v -0.000859 0.062409 0.014236
v -0.000859 0.062409 0.017929
v 0.000064 0.055487 0.014236
v 0.001448 0.050877 0.024386
v -0.001782 0.046722 0.014698
v -0.001782 0.052261 0.020695
v 0.001448 0.062409 0.020232
v 0.000525 0.062409 0.021156
f 693 697 703 
f 693 696 697 
f 694 696 698 
f 693 692 699 
f 695 694 699 
f 692 695 699 
f 694 698 699 
f 694 695 700 
f 696 694 700 
f 691 696 700 
f 696 691 701 
f 695 697 701 
f 697 696 701 
f 691 700 701 
f 700 695 701 
f 696 693 702 
f 698 696 702 
f 693 699 702 
f 699 698 702 
f 692 693 703 
f 695 692 703 
f 697 695 703 
o convex_44
v -0.005473 -0.016489 -0.002834
v -0.002705 -0.034016 0.005931
v -0.003167 -0.034016 0.005931
v -0.004088 -0.003570 -0.001450
v -0.001782 -0.007723 -0.004681
v -0.005934 -0.047402 0.005469
v -0.005934 -0.003570 -0.001450
v -0.003167 -0.043245 0.005469
v -0.001782 -0.022032 0.003623
v -0.005934 -0.007723 -0.003296
v -0.001782 -0.003570 -0.003757
v -0.005934 -0.045094 0.005931
v -0.003628 -0.028948 0.000396
v -0.001782 -0.023877 0.000396
f 716 708 717 
f 706 705 712 
f 710 706 712 
f 707 710 712 
f 705 711 712 
f 708 704 713 
f 704 709 713 
f 709 710 713 
f 713 710 714 
f 710 707 714 
f 707 712 714 
f 712 708 714 
f 708 713 714 
f 705 706 715 
f 710 709 715 
f 706 710 715 
f 711 705 715 
f 709 711 715 
f 704 708 716 
f 709 704 716 
f 711 709 716 
f 711 716 717 
f 708 712 717 
f 712 711 717 
o convex_45
v 0.004216 0.018115 -0.002374
v 0.000064 0.014426 -0.009295
v 0.001448 0.010735 -0.009295
v 0.001909 0.007503 -0.002374
v 0.005139 0.007503 -0.009295
v 0.007446 0.022729 -0.002836
v 0.000064 0.022267 -0.009295
v 0.001448 0.021345 -0.009295
v 0.000064 0.022267 -0.008371
v 0.005139 0.007503 -0.007910
v 0.007446 0.022267 -0.002374
v 0.001909 0.011195 -0.002374
f 718 726 729 
f 719 720 721 
f 720 719 722 
f 721 720 722 
f 722 719 724 
f 723 722 725 
f 722 724 725 
f 724 723 725 
f 719 721 726 
f 723 724 726 
f 724 719 726 
f 721 722 727 
f 718 721 728 
f 722 723 728 
f 726 718 728 
f 723 726 728 
f 721 727 728 
f 727 722 728 
f 721 718 729 
f 726 721 729 
o convex_46
v -0.023927 0.031494 -0.002374
v -0.018394 0.022268 -0.019440
v -0.017932 0.022268 -0.019440
v -0.023468 0.036571 -0.030057
v -0.026234 0.028266 -0.012528
v -0.017932 0.024115 -0.009298
v -0.024850 0.036109 -0.004222
v -0.019316 0.031957 -0.024979
v -0.028080 0.036571 -0.008834
v -0.024389 0.026422 -0.008834
v -0.020239 0.031494 -0.030057
v -0.022545 0.036571 -0.022673
v -0.023468 0.035185 -0.030057
v -0.019778 0.023192 -0.019440
v -0.020240 0.022731 -0.012528
v -0.028080 0.035185 -0.011143
v -0.026695 0.030110 -0.008373
v -0.019316 0.031957 -0.030057
v -0.018394 0.023192 -0.009298
v -0.017932 0.026422 -0.022213
v -0.024389 0.035647 -0.004222
v -0.025773 0.032881 -0.003759
v -0.024389 0.028266 -0.005607
v -0.023006 0.031957 -0.002374
f 750 736 753 
f 732 731 740 
f 733 738 741 
f 738 736 741 
f 733 740 742 
f 742 740 743 
f 740 731 743 
f 734 742 743 
f 734 743 744 
f 731 732 744 
f 739 734 744 
f 743 731 744 
f 738 733 745 
f 742 734 745 
f 733 742 745 
f 734 739 746 
f 745 734 746 
f 738 745 746 
f 732 740 747 
f 740 733 747 
f 733 741 747 
f 741 737 747 
f 732 735 748 
f 744 732 748 
f 739 744 748 
f 735 732 749 
f 737 735 749 
f 732 747 749 
f 747 737 749 
f 735 737 750 
f 737 741 750 
f 741 736 750 
f 730 736 751 
f 736 738 751 
f 738 746 751 
f 751 746 752 
f 746 739 752 
f 748 730 752 
f 739 748 752 
f 730 751 752 
f 736 730 753 
f 748 735 753 
f 730 748 753 
f 735 750 753 
o convex_47
v 0.005139 0.046262 -0.048052
v 0.012521 0.050413 -0.025907
v 0.005601 0.050874 -0.024064
v 0.012059 0.043493 -0.032829
v 0.002372 0.049951 -0.021755
v 0.006985 0.042108 -0.047586
v 0.001909 0.047644 -0.047586
v 0.006524 0.046262 -0.048052
v 0.001909 0.047183 -0.036973
v 0.001909 0.050874 -0.027294
v 0.012059 0.050413 -0.028679
v 0.012521 0.044416 -0.034213
v 0.007446 0.049489 -0.021755
v 0.005139 0.047644 -0.047586
v 0.006985 0.042108 -0.046662
v 0.001909 0.046720 -0.047586
v 0.009753 0.050413 -0.030522
v 0.001909 0.050874 -0.021755
f 758 766 771 
f 759 754 761 
f 754 760 761 
f 760 762 763 
f 756 755 764 
f 763 756 764 
f 755 757 765 
f 757 759 765 
f 759 761 765 
f 764 755 765 
f 761 764 765 
f 757 755 766 
f 758 757 766 
f 761 760 767 
f 764 761 767 
f 757 758 768 
f 759 757 768 
f 758 762 768 
f 768 762 769 
f 754 759 769 
f 760 754 769 
f 762 760 769 
f 759 768 769 
f 760 763 770 
f 763 764 770 
f 767 760 770 
f 764 767 770 
f 755 756 771 
f 762 758 771 
f 763 762 771 
f 756 763 771 
f 766 755 771 
o convex_48
v 0.001447 0.050874 -0.020828
v -0.007319 0.047183 -0.021751
v -0.007319 0.043492 -0.014832
v 0.007446 0.049490 -0.021751
v 0.004216 0.049490 -0.013447
v 0.007446 0.047183 -0.013910
v -0.007319 0.045799 -0.013447
v -0.003165 0.049950 -0.021290
v 0.007446 0.050413 -0.017139
v 0.002831 0.045799 -0.015294
v -0.007319 0.047183 -0.016678
v -0.006395 0.044416 -0.013447
v -0.001780 0.049027 -0.016217
f 779 782 784 
f 774 773 775 
f 773 774 778 
f 775 773 779 
f 772 775 779 
f 775 772 780 
f 772 776 780 
f 776 777 780 
f 777 775 780 
f 774 775 781 
f 777 774 781 
f 775 777 781 
f 773 778 782 
f 779 773 782 
f 774 777 783 
f 777 776 783 
f 778 774 783 
f 776 778 783 
f 776 772 784 
f 778 776 784 
f 772 779 784 
f 782 778 784 
o convex_49
v -0.015163 0.057333 0.026692
v -0.016085 0.043492 0.014236
v -0.015624 0.043492 0.014236
v -0.017930 0.043492 0.029923
v -0.019315 0.048107 0.027154
v -0.014240 0.057795 0.014698
v -0.013317 0.055026 0.016544
v -0.017007 0.043492 0.029923
v -0.018853 0.051335 0.030385
v -0.016546 0.048570 0.014236
v -0.014240 0.057795 0.026692
v -0.019315 0.045339 0.026692
v -0.013317 0.057795 0.014236
v -0.016546 0.053641 0.029923
v -0.015163 0.057795 0.019312
f 795 790 799 
f 786 787 788 
f 788 787 792 
f 787 791 792 
f 788 792 793 
f 787 786 794 
f 789 790 794 
f 792 791 795 
f 786 788 796 
f 788 793 796 
f 793 789 796 
f 794 786 796 
f 789 794 796 
f 791 787 797 
f 787 794 797 
f 794 790 797 
f 790 795 797 
f 795 791 797 
f 793 792 798 
f 785 793 798 
f 795 785 798 
f 792 795 798 
f 790 789 799 
f 789 793 799 
f 793 785 799 
f 785 795 799 
o convex_50
v -0.014701 0.063792 0.031306
v -0.013778 0.057795 0.014236
v -0.013778 0.063332 0.014236
v -0.012394 0.064715 0.015159
v -0.013317 0.059642 0.031306
v -0.015624 0.066562 0.023003
v -0.015162 0.057795 0.023003
v -0.014701 0.066562 0.029922
v -0.012394 0.066100 0.014236
v -0.013317 0.057795 0.017928
v -0.015624 0.066100 0.029922
v -0.014701 0.057795 0.027616
v -0.015162 0.057795 0.019313
v -0.014701 0.066562 0.017466
v -0.013317 0.061025 0.031769
f 803 808 814 
f 801 802 808 
f 803 801 808 
f 801 803 809 
f 803 804 809 
f 806 801 809 
f 800 807 810 
f 807 805 810 
f 804 800 811 
f 809 804 811 
f 806 809 811 
f 800 810 811 
f 810 806 811 
f 801 806 812 
f 806 810 812 
f 810 805 812 
f 802 801 813 
f 805 807 813 
f 807 808 813 
f 808 802 813 
f 801 812 813 
f 812 805 813 
f 800 804 814 
f 804 803 814 
f 807 800 814 
f 808 807 814 
o convex_51
v -0.014699 0.070252 0.018390
v -0.007319 0.067947 0.034999
v -0.007319 0.067485 0.034999
v -0.007319 0.071175 0.014236
v -0.012854 0.066562 0.014236
v -0.015623 0.066562 0.028997
v -0.008243 0.072098 0.023926
v -0.014699 0.067947 0.030383
v -0.011011 0.072098 0.014236
v -0.011471 0.066562 0.033611
v -0.014238 0.070713 0.020699
v -0.007319 0.072560 0.021620
v -0.015161 0.066562 0.018852
v -0.013777 0.070252 0.014700
v -0.009165 0.068408 0.034072
v -0.015623 0.068870 0.023467
f 827 820 830 
f 816 817 818 
f 818 817 819 
f 818 819 823 
f 817 816 824 
f 819 817 824 
f 820 819 824 
f 822 820 824 
f 822 821 825 
f 823 815 825 
f 823 825 826 
f 816 818 826 
f 821 816 826 
f 818 823 826 
f 825 821 826 
f 819 820 827 
f 815 823 828 
f 823 819 828 
f 827 815 828 
f 819 827 828 
f 816 821 829 
f 821 822 829 
f 824 816 829 
f 822 824 829 
f 820 822 830 
f 825 815 830 
f 822 825 830 
f 815 827 830 
o convex_52
v -0.007319 0.072098 0.024388
v -0.002243 0.066100 0.035921
v -0.001320 0.066100 0.035921
v -0.001320 0.069791 0.014236
v -0.001320 0.070252 0.028076
v -0.007319 0.071174 0.014236
v -0.007319 0.068407 0.034996
v -0.005473 0.072560 0.018852
v -0.006396 0.067023 0.034996
v -0.002705 0.068407 0.034996
v -0.001320 0.070714 0.014236
v -0.005473 0.072098 0.024852
v -0.007319 0.072098 0.014236
v -0.002243 0.069791 0.014236
f 839 836 844 
f 833 832 834 
f 833 834 835 
f 832 833 837 
f 831 836 837 
f 832 837 839 
f 837 836 839 
f 833 835 840 
f 837 833 840 
f 835 834 841 
f 834 836 841 
f 838 835 841 
f 831 837 842 
f 838 831 842 
f 835 838 842 
f 840 835 842 
f 837 840 842 
f 836 831 843 
f 831 838 843 
f 841 836 843 
f 838 841 843 
f 834 832 844 
f 836 834 844 
f 832 839 844 
o convex_53
v 0.007447 0.028266 -0.042513
v 0.016673 0.031495 -0.028214
v 0.016673 0.030572 -0.028214
v 0.007447 0.024575 -0.028214
v 0.007908 0.032419 -0.046204
v 0.012060 0.026421 -0.033289
v 0.008831 0.031957 -0.047590
v 0.013443 0.032419 -0.034674
v 0.016673 0.031495 -0.031444
v 0.008831 0.024114 -0.029137
v 0.014366 0.028726 -0.033289
v 0.007908 0.030572 -0.047590
v 0.011599 0.025499 -0.028214
v 0.016673 0.032419 -0.031444
f 846 853 858 
f 847 846 848 
f 845 848 849 
f 848 846 852 
f 849 848 852 
f 846 847 853 
f 848 845 854 
f 845 850 854 
f 851 853 855 
f 853 847 855 
f 845 849 856 
f 850 845 856 
f 849 851 856 
f 855 850 856 
f 851 855 856 
f 847 848 857 
f 848 854 857 
f 854 850 857 
f 855 847 857 
f 850 855 857 
f 851 849 858 
f 852 846 858 
f 849 852 858 
f 853 851 858 
o convex_54
v 0.001449 0.025499 -0.019447
v 0.016673 0.032419 -0.019909
v 0.016673 0.031956 -0.019909
v 0.007448 0.024576 -0.028212
v 0.001910 0.021809 -0.020370
v 0.016210 0.031494 -0.028212
v 0.006524 0.030573 -0.019447
v 0.011598 0.025499 -0.027287
v -0.000398 0.020886 -0.026366
v 0.010215 0.032419 -0.019446
v 0.007448 0.029186 -0.018524
v 0.003755 0.021347 -0.026366
v 0.016673 0.030573 -0.028212
v -0.000398 0.021809 -0.019908
v 0.002371 0.023653 -0.018985
f 872 863 873 
f 861 863 866 
f 864 862 867 
f 865 864 867 
f 859 865 867 
f 860 864 868 
f 864 865 868 
f 868 865 869 
f 861 860 869 
f 865 859 869 
f 860 868 869 
f 862 866 870 
f 866 863 870 
f 863 867 870 
f 867 862 870 
f 860 861 871 
f 864 860 871 
f 862 864 871 
f 866 862 871 
f 861 866 871 
f 859 867 872 
f 867 863 872 
f 863 861 873 
f 861 869 873 
f 869 859 873 
f 859 872 873 
o convex_55
v 0.019443 0.029650 -0.000069
v 0.018982 0.020884 -0.013907
v 0.020364 0.020884 -0.013907
v 0.022671 0.032419 -0.024059
v 0.016674 0.026882 -0.015290
v 0.020364 0.020884 -0.003298
v 0.023595 0.029650 -0.017136
v 0.016674 0.020884 -0.009761
v 0.018059 0.031495 -0.004221
v 0.018059 0.026882 0.004086
v 0.022210 0.032419 -0.010216
v 0.020826 0.032419 -0.024059
v 0.020365 0.026882 -0.000532
v 0.016674 0.026882 -0.007912
v 0.021287 0.020884 -0.008372
v 0.018982 0.032419 -0.005144
v 0.022210 0.027804 -0.020828
v 0.016674 0.025498 -0.015290
v 0.023595 0.032419 -0.021291
v 0.020826 0.023192 -0.003298
f 888 880 893 
f 875 876 879 
f 875 879 881 
f 881 879 883 
f 878 882 885 
f 884 877 885 
f 874 883 886 
f 883 879 886 
f 884 874 886 
f 880 884 886 
f 878 881 887 
f 882 878 887 
f 881 883 887 
f 883 882 887 
f 879 876 888 
f 883 874 889 
f 882 883 889 
f 874 884 889 
f 885 882 889 
f 884 885 889 
f 876 875 890 
f 875 885 890 
f 885 877 890 
f 888 876 890 
f 880 888 890 
f 881 878 891 
f 875 881 891 
f 885 875 891 
f 878 885 891 
f 884 880 892 
f 877 884 892 
f 890 877 892 
f 880 890 892 
f 886 879 893 
f 880 886 893 
f 879 888 893 
o convex_56
v 0.016674 0.025959 0.005930
v 0.023133 0.023191 0.012390
v 0.022210 0.025497 0.012852
v 0.020364 0.026882 -0.003297
v 0.019904 0.020884 -0.003297
v 0.019904 0.021346 0.009161
v 0.022210 0.020884 -0.000990
v 0.016674 0.026882 0.004548
v 0.018982 0.025035 0.011466
v 0.017598 0.022730 0.001779
v 0.023133 0.021807 0.012390
v 0.019443 0.026882 -0.003297
v 0.022210 0.023191 -0.000066
v 0.021749 0.025959 0.012852
f 902 904 907 
f 898 897 900 
f 899 898 900 
f 894 899 902 
f 901 894 902 
f 898 899 903 
f 899 894 903 
f 894 901 903 
f 895 896 904 
f 900 895 904 
f 899 900 904 
f 902 899 904 
f 897 898 905 
f 901 897 905 
f 898 903 905 
f 903 901 905 
f 896 895 906 
f 897 896 906 
f 895 900 906 
f 900 897 906 
f 896 897 907 
f 897 901 907 
f 901 902 907 
f 904 896 907 
o convex_57
v 0.018058 0.029650 0.000390
v 0.016674 0.026882 -0.014828
v 0.016674 0.031033 -0.029596
v 0.016674 0.030111 -0.000533
v 0.018058 0.032419 -0.028211
v 0.018058 0.026882 0.005470
v 0.017596 0.026882 -0.014367
v 0.016674 0.026882 0.005005
v 0.016674 0.032419 -0.020828
f 912 910 916 
f 910 909 911 
f 908 911 913 
f 912 908 913 
f 912 913 914 
f 909 910 914 
f 910 912 914 
f 913 909 914 
f 911 909 915 
f 909 913 915 
f 913 911 915 
f 910 911 916 
f 911 908 916 
f 908 912 916 
o convex_58
v -0.004089 0.044876 0.028538
v 0.000064 0.031957 0.014236
v 0.000525 0.031957 0.014236
v -0.001320 0.046722 0.014236
v -0.000859 0.046722 0.025768
v 0.000064 0.032421 0.023001
v -0.004550 0.040262 0.026230
v -0.001320 0.031957 0.016544
v -0.002705 0.046722 0.029923
v -0.000398 0.046722 0.014236
v -0.001782 0.039340 0.014698
v -0.001782 0.031957 0.020236
v 0.000525 0.034726 0.014698
v -0.001782 0.046722 0.015159
f 927 923 930 
f 919 918 920 
f 918 919 924 
f 921 920 925 
f 922 921 925 
f 917 923 925 
f 923 922 925 
f 919 920 926 
f 920 921 926 
f 920 918 927 
f 924 923 927 
f 918 924 927 
f 919 922 928 
f 922 923 928 
f 923 924 928 
f 924 919 928 
f 922 919 929 
f 921 922 929 
f 919 926 929 
f 926 921 929 
f 923 917 930 
f 917 925 930 
f 925 920 930 
f 920 927 930 
o convex_59
v 0.012521 0.043492 -0.033287
v 0.008369 0.032419 -0.047588
v 0.008831 0.032419 -0.047588
v 0.007446 0.043492 -0.047128
v 0.010214 0.043030 -0.047588
v 0.012521 0.032419 -0.038825
v 0.009754 0.043030 -0.036978
v 0.012060 0.032419 -0.037441
v 0.008369 0.032419 -0.045744
v 0.007446 0.043492 -0.044358
f 939 937 940 
f 934 931 935 
f 933 932 935 
f 932 934 935 
f 932 933 936 
f 935 931 936 
f 933 935 936 
f 932 936 938 
f 936 931 938 
f 931 937 938 
f 938 937 939 
f 934 932 939 
f 932 938 939 
f 934 939 940 
f 931 934 940 
f 937 931 940 
o convex_60
v 0.000525 -0.014182 -0.006526
v 0.001909 -0.023409 0.004086
v -0.000397 -0.017412 0.002701
v -0.001782 -0.022487 0.001317
v 0.001909 -0.027101 -0.002374
v 0.001909 -0.011875 -0.005141
v -0.001782 -0.011875 -0.000529
v -0.001782 -0.022487 0.003624
v 0.000064 -0.012337 -0.000067
v 0.001448 -0.027101 0.004086
v 0.000064 -0.015106 -0.006064
v 0.001909 -0.012337 -0.006988
v 0.001448 -0.026639 -0.002835
f 952 945 953 
f 942 945 946 
f 942 943 948 
f 943 947 948 
f 947 944 948 
f 943 942 949 
f 942 946 949 
f 947 943 949 
f 946 947 949 
f 945 942 950 
f 942 948 950 
f 948 944 950 
f 944 947 951 
f 947 941 951 
f 946 945 952 
f 947 946 952 
f 941 947 952 
f 950 944 953 
f 945 950 953 
f 951 941 953 
f 944 951 953 
f 941 952 953 
o convex_61
v 0.021747 0.040724 -0.030521
v 0.013908 0.050413 -0.025905
v 0.013908 0.050413 -0.026368
v 0.012521 0.032419 -0.036515
v 0.017600 0.032419 -0.025906
v 0.018518 0.043491 -0.034670
v 0.023133 0.042569 -0.025905
v 0.012521 0.044877 -0.033285
v 0.012521 0.049950 -0.025905
v 0.022208 0.035189 -0.026368
v 0.012983 0.032419 -0.037900
v 0.015291 0.049488 -0.030059
v 0.019902 0.047181 -0.026368
v 0.018980 0.032882 -0.030059
v 0.020362 0.045337 -0.030519
v 0.012521 0.037956 -0.036515
v 0.013908 0.047644 -0.032362
v 0.019901 0.037493 -0.031903
v 0.017136 0.032419 -0.026368
v 0.023595 0.038878 -0.025906
f 958 963 973 
f 955 956 962 
f 960 955 962 
f 958 960 962 
f 961 957 962 
f 958 957 964 
f 962 956 965 
f 956 955 966 
f 955 960 966 
f 965 956 966 
f 963 958 967 
f 958 964 967 
f 954 959 968 
f 960 954 968 
f 959 965 968 
f 966 960 968 
f 965 966 968 
f 957 961 969 
f 964 957 969 
f 959 964 969 
f 961 962 970 
f 965 959 970 
f 962 965 970 
f 969 961 970 
f 959 969 970 
f 959 954 971 
f 954 963 971 
f 964 959 971 
f 963 967 971 
f 967 964 971 
f 957 958 972 
f 962 957 972 
f 958 962 972 
f 954 960 973 
f 960 958 973 
f 963 954 973 
o convex_62
v 0.012983 0.032418 -0.020828
v 0.016211 0.032418 -0.009295
v 0.014827 0.032418 -0.009295
v 0.007447 0.020884 -0.012526
v 0.016672 0.020884 -0.010682
v 0.011601 0.036569 -0.015293
v 0.016674 0.032418 -0.021291
v 0.007447 0.030112 -0.019445
v 0.012060 0.023192 -0.017138
v 0.007447 0.025960 -0.012988
v 0.016674 0.035185 -0.014834
v 0.016672 0.021807 -0.009295
v 0.012983 0.036108 -0.017598
v 0.012983 0.037033 -0.013910
v 0.015288 0.025036 -0.017138
v 0.009755 0.020884 -0.014370
f 982 978 989 
f 974 980 981 
f 981 980 982 
f 977 976 983 
f 979 981 983 
f 981 977 983 
f 978 980 984 
f 975 976 985 
f 976 977 985 
f 977 978 985 
f 984 975 985 
f 978 984 985 
f 980 974 986 
f 974 981 986 
f 981 979 986 
f 984 980 986 
f 984 986 987 
f 976 975 987 
f 983 976 987 
f 979 983 987 
f 975 984 987 
f 986 979 987 
f 980 978 988 
f 982 980 988 
f 978 982 988 
f 978 977 989 
f 977 981 989 
f 981 982 989 
o convex_63
v -0.025774 -0.038636 0.011930
v -0.027620 -0.040016 0.022080
v -0.028542 -0.040016 0.022080
v -0.025775 -0.018334 0.017003
v -0.029927 -0.041864 0.015161
v -0.025313 -0.046018 0.017465
v -0.025313 -0.018334 0.011469
v -0.026697 -0.018798 0.017003
v -0.028542 -0.046018 0.014700
v -0.028542 -0.046018 0.019772
v -0.029465 -0.039097 0.020696
v -0.025313 -0.032176 0.010545
v -0.025775 -0.018334 0.011469
v -0.025313 -0.044170 0.014237
v -0.025775 -0.022949 0.010545
v -0.029927 -0.039558 0.017002
v -0.029927 -0.044170 0.017465
v -0.029003 -0.045094 0.014237
v -0.025775 -0.022949 0.017927
v -0.026697 -0.018798 0.015158
f 1005 997 1009 
f 992 991 993 
f 993 995 996 
f 992 993 997 
f 998 995 999 
f 991 992 999 
f 995 991 999 
f 992 997 1000 
f 999 992 1000 
f 996 995 1001 
f 993 996 1002 
f 997 993 1002 
f 995 998 1003 
f 990 1001 1003 
f 1001 995 1003 
f 996 1001 1004 
f 1002 996 1004 
f 994 1002 1004 
f 1000 997 1005 
f 998 999 1006 
f 999 1000 1006 
f 1005 994 1006 
f 1000 1005 1006 
f 1001 990 1007 
f 990 1003 1007 
f 1003 998 1007 
f 1004 1001 1007 
f 994 1004 1007 
f 1006 994 1007 
f 998 1006 1007 
f 993 991 1008 
f 991 995 1008 
f 995 993 1008 
f 997 1002 1009 
f 1002 994 1009 
f 994 1005 1009 
o convex_64
v -0.018853 0.041647 -0.030056
v -0.007319 0.046721 -0.016217
v -0.007319 0.045799 -0.016217
v -0.018853 0.042108 -0.016217
v -0.012856 0.040262 -0.030056
v -0.008704 0.047645 -0.023137
v -0.007319 0.044875 -0.030056
v -0.012856 0.040724 -0.016217
v -0.018853 0.043031 -0.016217
v -0.018853 0.042570 -0.030056
v -0.018853 0.041186 -0.019908
v -0.008704 0.043031 -0.029594
v -0.010549 0.047183 -0.021753
v -0.015623 0.040262 -0.028208
f 1017 1020 1023 
f 1012 1011 1013 
f 1011 1012 1016 
f 1014 1010 1016 
f 1015 1011 1016 
f 1012 1013 1017 
f 1013 1011 1018 
f 1010 1013 1018 
f 1016 1010 1019 
f 1015 1016 1019 
f 1010 1018 1019 
f 1013 1010 1020 
f 1017 1013 1020 
f 1016 1012 1021 
f 1014 1016 1021 
f 1017 1014 1021 
f 1012 1017 1021 
f 1011 1015 1022 
f 1018 1011 1022 
f 1015 1019 1022 
f 1019 1018 1022 
f 1010 1014 1023 
f 1014 1017 1023 
f 1020 1010 1023 
o convex_65
v -0.017008 -0.088461 0.016544
v -0.017468 -0.083852 0.022541
v -0.017930 -0.083852 0.022541
v -0.018391 -0.057097 0.013776
v -0.013317 -0.059406 0.019311
v -0.019775 -0.058480 0.020696
v -0.019776 -0.083852 0.017467
v -0.014240 -0.084771 0.017005
v -0.016086 -0.060786 0.012852
v -0.014701 -0.090770 0.020234
v -0.020237 -0.061712 0.014700
v -0.013317 -0.057561 0.016543
v -0.018853 -0.088003 0.022079
v -0.013778 -0.084771 0.020696
v -0.019314 -0.073699 0.014700
v -0.020699 -0.058941 0.016545
v -0.018391 -0.089847 0.017467
v -0.017930 -0.061251 0.012852
v -0.015625 -0.083391 0.015621
v -0.019775 -0.057561 0.020233
v -0.014701 -0.061251 0.014238
v -0.015163 -0.089847 0.017467
f 1042 1031 1045 
f 1026 1025 1029 
f 1025 1028 1029 
f 1032 1027 1035 
f 1025 1026 1036 
f 1026 1029 1036 
f 1033 1025 1036 
f 1028 1025 1037 
f 1025 1033 1037 
f 1033 1031 1037 
f 1035 1028 1037 
f 1031 1035 1037 
f 1030 1034 1038 
f 1027 1034 1039 
f 1034 1030 1039 
f 1036 1029 1039 
f 1030 1036 1039 
f 1036 1030 1040 
f 1033 1036 1040 
f 1038 1024 1040 
f 1030 1038 1040 
f 1027 1032 1041 
f 1034 1027 1041 
f 1038 1034 1041 
f 1038 1041 1042 
f 1032 1031 1042 
f 1024 1038 1042 
f 1041 1032 1042 
f 1029 1028 1043 
f 1035 1027 1043 
f 1028 1035 1043 
f 1027 1039 1043 
f 1039 1029 1043 
f 1031 1032 1044 
f 1035 1031 1044 
f 1032 1035 1044 
f 1031 1033 1045 
f 1040 1024 1045 
f 1033 1040 1045 
f 1024 1042 1045 
o convex_66
v -0.016547 -0.036332 0.006854
v -0.017931 -0.046017 0.018389
v -0.018853 -0.046017 0.018389
v -0.017008 -0.032638 0.015158
v -0.020237 -0.048325 0.012391
v -0.016085 -0.046478 0.009623
v -0.017931 -0.032638 0.009161
v -0.020237 -0.048786 0.017004
v -0.016085 -0.032638 0.006393
v -0.017931 -0.032638 0.013774
v -0.017008 -0.039560 0.017004
v -0.019314 -0.048786 0.011470
f 1051 1053 1057 
f 1046 1050 1052 
f 1047 1048 1053 
f 1051 1047 1053 
f 1051 1046 1054 
f 1046 1052 1054 
f 1052 1049 1054 
f 1048 1049 1055 
f 1049 1052 1055 
f 1052 1050 1055 
f 1050 1053 1055 
f 1053 1048 1055 
f 1048 1047 1056 
f 1049 1048 1056 
f 1047 1051 1056 
f 1054 1049 1056 
f 1051 1054 1056 
f 1050 1046 1057 
f 1046 1051 1057 
f 1053 1050 1057 
o convex_67
v -0.021622 -0.023411 0.009161
v -0.016547 -0.028945 0.015159
v -0.017008 -0.028945 0.015159
v -0.016085 -0.032638 0.006393
v -0.016085 -0.019719 0.004547
v -0.021622 -0.031714 0.014697
v -0.017008 -0.022488 0.014235
v -0.021622 -0.019719 0.009622
v -0.017008 -0.032638 0.015159
v -0.016085 -0.023411 0.014235
v -0.021160 -0.022488 0.012851
v -0.021622 -0.030791 0.012390
v -0.021622 -0.020642 0.008240
v -0.016547 -0.032638 0.006393
f 1070 1062 1071 
f 1060 1059 1064 
f 1063 1060 1064 
f 1058 1063 1065 
f 1064 1062 1065 
f 1059 1060 1066 
f 1061 1059 1066 
f 1060 1063 1066 
f 1059 1061 1067 
f 1061 1062 1067 
f 1064 1059 1067 
f 1062 1064 1067 
f 1063 1064 1068 
f 1065 1063 1068 
f 1064 1065 1068 
f 1063 1058 1069 
f 1058 1065 1070 
f 1065 1062 1070 
f 1062 1061 1071 
f 1061 1066 1071 
f 1066 1063 1071 
f 1069 1058 1071 
f 1063 1069 1071 
f 1058 1070 1071 
o convex_68
v -0.002706 0.023193 -0.009295
v -0.017931 0.022269 -0.018984
v -0.017931 0.022269 -0.012063
v -0.010086 0.028266 -0.018060
v -0.000861 0.019961 -0.013449
v -0.000398 0.025959 -0.017137
v -0.017931 0.024114 -0.009295
v -0.008702 0.026420 -0.011602
v -0.000398 0.019961 -0.010680
v -0.000398 0.023193 -0.016216
v -0.005014 0.027804 -0.018060
v -0.000398 0.021807 -0.009295
v -0.017931 0.023192 -0.009295
v -0.017931 0.024114 -0.013910
v -0.010086 0.027804 -0.014369
v -0.014699 0.022730 -0.018984
v -0.011932 0.026881 -0.018984
v -0.006857 0.024574 -0.009295
f 1079 1078 1089 
f 1074 1073 1076 
f 1073 1074 1078 
f 1072 1077 1079 
f 1074 1076 1080 
f 1080 1076 1081 
f 1077 1080 1081 
f 1079 1077 1082 
f 1077 1072 1083 
f 1072 1078 1083 
f 1080 1077 1083 
f 1080 1083 1084 
f 1078 1074 1084 
f 1074 1080 1084 
f 1083 1078 1084 
f 1073 1078 1085 
f 1078 1075 1085 
f 1075 1078 1086 
f 1078 1079 1086 
f 1082 1075 1086 
f 1079 1082 1086 
f 1076 1073 1087 
f 1081 1076 1087 
f 1077 1081 1087 
f 1082 1077 1087 
f 1082 1087 1088 
f 1075 1082 1088 
f 1073 1085 1088 
f 1085 1075 1088 
f 1087 1073 1088 
f 1078 1072 1089 
f 1072 1079 1089 
o convex_69
v -0.022543 0.039801 -0.031442
v -0.019776 0.031496 -0.038364
v -0.019315 0.031496 -0.038364
v -0.023466 0.039801 -0.047588
v -0.023466 0.035188 -0.030057
v -0.024851 0.036570 -0.047588
v -0.018853 0.034726 -0.047588
v -0.021161 0.039801 -0.030057
v -0.019315 0.031496 -0.030057
v -0.022543 0.033342 -0.048052
v -0.020699 0.031496 -0.032828
v -0.024389 0.039801 -0.046206
v -0.023928 0.037031 -0.031903
v -0.024389 0.035188 -0.045743
v -0.021622 0.039801 -0.038364
v -0.018853 0.031958 -0.035135
f 1098 1092 1105 
f 1093 1090 1097 
f 1090 1094 1097 
f 1091 1092 1098 
f 1097 1094 1098 
f 1092 1091 1099 
f 1095 1093 1099 
f 1096 1092 1099 
f 1093 1096 1099 
f 1091 1098 1100 
f 1098 1094 1100 
f 1099 1091 1100 
f 1090 1093 1101 
f 1093 1095 1101 
f 1101 1095 1102 
f 1094 1090 1102 
f 1095 1094 1102 
f 1090 1101 1102 
f 1094 1095 1103 
f 1095 1099 1103 
f 1100 1094 1103 
f 1099 1100 1103 
f 1096 1093 1104 
f 1093 1097 1104 
f 1097 1096 1104 
f 1092 1096 1105 
f 1096 1097 1105 
f 1097 1098 1105 
o convex_70
v 0.001910 -0.053398 0.003162
v 0.001910 -0.027101 0.004086
v 0.001448 -0.027101 0.004086
v 0.004677 -0.027101 -0.003297
v 0.005139 -0.054784 0.004086
v 0.001448 -0.028026 -0.002373
v 0.000987 -0.049708 0.004086
v 0.005139 -0.028026 -0.001912
v 0.005139 -0.047859 0.003624
v 0.004216 -0.057091 0.003624
v 0.002833 -0.028486 -0.003297
f 1109 1115 1116 
f 1108 1107 1109 
f 1107 1108 1110 
f 1108 1109 1111 
f 1110 1108 1112 
f 1111 1106 1112 
f 1108 1111 1112 
f 1109 1107 1113 
f 1110 1109 1113 
f 1110 1113 1114 
f 1107 1110 1114 
f 1113 1107 1114 
f 1109 1110 1115 
f 1112 1106 1115 
f 1110 1112 1115 
f 1106 1111 1116 
f 1111 1109 1116 
f 1115 1106 1116 
o convex_71
v 0.010214 -0.003109 -0.009756
v 0.001909 -0.027099 -0.002836
v 0.001909 -0.027099 -0.001913
v 0.010214 -0.021100 -0.002375
v 0.004216 -0.010029 -0.003758
v 0.001909 -0.012339 -0.006987
v 0.010214 -0.010953 -0.009294
v 0.010214 -0.014182 -0.002836
v 0.006985 -0.027561 -0.002836
v 0.004216 -0.003109 -0.008371
v 0.008368 -0.003109 -0.007910
v 0.002833 -0.026637 -0.003759
v 0.001909 -0.015109 -0.006987
v 0.001909 -0.011877 -0.005603
v 0.010214 -0.017873 -0.006064
v 0.006985 -0.010953 -0.008833
f 1123 1129 1132 
f 1118 1119 1122 
f 1117 1120 1123 
f 1119 1120 1124 
f 1120 1117 1124 
f 1121 1119 1124 
f 1119 1118 1125 
f 1120 1119 1125 
f 1124 1117 1127 
f 1121 1124 1127 
f 1117 1126 1127 
f 1126 1121 1127 
f 1125 1118 1128 
f 1123 1125 1128 
f 1118 1122 1129 
f 1122 1126 1129 
f 1128 1118 1129 
f 1123 1128 1129 
f 1119 1121 1130 
f 1122 1119 1130 
f 1121 1126 1130 
f 1126 1122 1130 
f 1123 1120 1131 
f 1120 1125 1131 
f 1125 1123 1131 
f 1117 1123 1132 
f 1126 1117 1132 
f 1129 1126 1132 
o convex_72
v 0.005601 -0.030337 -0.002374
v 0.007907 -0.052474 0.008699
v 0.007445 -0.048323 0.008237
v 0.010214 -0.020645 -0.001450
v 0.009752 -0.023417 0.004085
v 0.006062 -0.054320 0.004085
v 0.005139 -0.027571 -0.001912
v 0.006524 -0.043250 0.007314
v 0.004678 -0.054320 0.004547
v 0.008368 -0.054320 0.007775
v 0.010214 -0.021571 -0.002374
v 0.010214 -0.024340 0.004085
v 0.007907 -0.022956 0.000856
v 0.007446 -0.028494 -0.002374
v 0.007907 -0.054320 0.006392
v 0.008368 -0.021571 -0.002374
f 1139 1145 1148 
f 1135 1134 1137 
f 1134 1135 1140 
f 1135 1137 1140 
f 1133 1138 1141 
f 1139 1133 1141 
f 1140 1139 1141 
f 1134 1140 1141 
f 1141 1138 1142 
f 1134 1141 1142 
f 1142 1143 1144 
f 1136 1137 1144 
f 1137 1134 1144 
f 1134 1142 1144 
f 1143 1136 1144 
f 1137 1136 1145 
f 1139 1140 1145 
f 1140 1137 1145 
f 1138 1133 1146 
f 1133 1143 1146 
f 1143 1138 1146 
f 1142 1138 1147 
f 1138 1143 1147 
f 1143 1142 1147 
f 1133 1139 1148 
f 1143 1133 1148 
f 1136 1143 1148 
f 1145 1136 1148 
o convex_73
v -0.017931 0.024113 -0.021752
v -0.011471 0.026882 -0.018984
v -0.000859 0.022268 -0.019446
v -0.017931 0.022268 -0.018984
v -0.000398 0.020885 -0.022214
v -0.013316 0.026882 -0.022214
v -0.006857 0.020422 -0.022214
v -0.002706 0.020885 -0.019446
v -0.017931 0.025497 -0.022214
v -0.000398 0.022268 -0.020829
f 1154 1150 1158 
f 1152 1149 1155 
f 1154 1153 1155 
f 1155 1153 1156 
f 1151 1150 1156 
f 1150 1152 1156 
f 1153 1151 1156 
f 1152 1155 1156 
f 1152 1150 1157 
f 1149 1152 1157 
f 1150 1154 1157 
f 1155 1149 1157 
f 1154 1155 1157 
f 1150 1151 1158 
f 1151 1153 1158 
f 1153 1154 1158 
o convex_74
v 0.000987 -0.052475 0.004086
v 0.002371 -0.049706 0.010545
v 0.002832 -0.046938 0.010083
v 0.001448 -0.023413 0.005470
v 0.003293 -0.038173 0.006855
v 0.000987 -0.052011 0.010083
v 0.001910 -0.052475 0.004086
v 0.002371 -0.027105 0.004086
v 0.002371 -0.023413 0.005470
v 0.001448 -0.023413 0.004086
f 1162 1167 1168 
f 1160 1161 1162 
f 1160 1162 1164 
f 1161 1160 1165 
f 1163 1161 1165 
f 1160 1164 1165 
f 1164 1159 1165 
f 1165 1159 1166 
f 1163 1165 1166 
f 1162 1161 1167 
f 1161 1163 1167 
f 1163 1166 1167 
f 1167 1166 1168 
f 1159 1164 1168 
f 1164 1162 1168 
f 1166 1159 1168 
o convex_75
v 0.005140 -0.071399 0.007315
v 0.005601 -0.105528 0.017927
v 0.005140 -0.105528 0.017927
v 0.007906 -0.071399 0.014236
v 0.006061 -0.105068 0.013772
v 0.003755 -0.068168 0.008239
v 0.003755 -0.111530 0.013772
v 0.007445 -0.068168 0.008239
v 0.007446 -0.092622 0.013772
v 0.006061 -0.088010 0.009623
v 0.003755 -0.088010 0.009161
v 0.003755 -0.112920 0.016081
v 0.006523 -0.105068 0.017464
v 0.008369 -0.067703 0.012391
v 0.007445 -0.071859 0.014236
v 0.008369 -0.072320 0.014236
v 0.004678 -0.111990 0.014234
v 0.008369 -0.070474 0.011468
f 1182 1184 1186 
f 1171 1170 1172 
f 1169 1174 1176 
f 1176 1177 1178 
f 1169 1176 1178 
f 1177 1173 1178 
f 1174 1169 1179 
f 1175 1174 1179 
f 1169 1178 1179 
f 1178 1175 1179 
f 1170 1171 1180 
f 1171 1174 1180 
f 1174 1175 1180 
f 1173 1177 1181 
f 1170 1180 1181 
f 1176 1174 1182 
f 1171 1172 1183 
f 1174 1171 1183 
f 1172 1182 1183 
f 1182 1174 1183 
f 1172 1170 1184 
f 1170 1181 1184 
f 1181 1177 1184 
f 1182 1172 1184 
f 1175 1178 1185 
f 1178 1173 1185 
f 1180 1175 1185 
f 1173 1181 1185 
f 1181 1180 1185 
f 1177 1176 1186 
f 1176 1182 1186 
f 1184 1177 1186 
o convex_76
v 0.006985 0.060561 0.031307
v 0.001448 0.049029 0.033152
v 0.001910 0.049029 0.033152
v 0.001910 0.061947 0.020696
v 0.001448 0.061484 0.038689
v 0.005139 0.055029 0.023928
v 0.006061 0.053643 0.034075
v 0.001448 0.052721 0.023467
v 0.005139 0.062409 0.035919
v 0.002371 0.055488 0.038689
v 0.006061 0.062409 0.027617
v 0.001448 0.062409 0.020696
v 0.006522 0.058253 0.025311
v 0.004677 0.050877 0.034075
v 0.006061 0.059639 0.035919
v 0.001910 0.051339 0.024849
v 0.006985 0.056410 0.029923
v 0.003294 0.062409 0.037766
v 0.001448 0.049491 0.034998
v 0.005139 0.051336 0.032691
f 1192 1203 1206 
f 1188 1191 1194 
f 1190 1192 1194 
f 1195 1187 1197 
f 1195 1197 1198 
f 1190 1194 1198 
f 1194 1191 1198 
f 1197 1190 1198 
f 1192 1190 1199 
f 1197 1187 1199 
f 1190 1197 1199 
f 1193 1196 1200 
f 1193 1187 1201 
f 1187 1195 1201 
f 1196 1193 1201 
f 1189 1188 1202 
f 1188 1194 1202 
f 1194 1192 1202 
f 1187 1193 1203 
f 1192 1199 1203 
f 1199 1187 1203 
f 1191 1196 1204 
f 1195 1198 1204 
f 1198 1191 1204 
f 1201 1195 1204 
f 1196 1201 1204 
f 1188 1189 1205 
f 1191 1188 1205 
f 1196 1191 1205 
f 1189 1200 1205 
f 1200 1196 1205 
f 1200 1189 1206 
f 1193 1200 1206 
f 1189 1202 1206 
f 1202 1192 1206 
f 1203 1193 1206 
o convex_77
v 0.006985 -0.059401 0.005009
v 0.008830 -0.063550 0.015159
v 0.007907 -0.063550 0.015159
v 0.006985 -0.067703 0.008701
v 0.003755 -0.055246 0.004547
v 0.003755 -0.067703 0.009622
v 0.009291 -0.055707 0.009162
v 0.010214 -0.061244 0.010544
v 0.003755 -0.061703 0.004547
v 0.007907 -0.067703 0.012851
v 0.007907 -0.054785 0.009162
v 0.006062 -0.054323 0.004086
v 0.010214 -0.060783 0.014234
v 0.008830 -0.060783 0.007317
f 1207 1218 1220 
f 1209 1211 1212 
f 1207 1210 1215 
f 1212 1211 1215 
f 1210 1212 1215 
f 1208 1209 1216 
f 1209 1212 1216 
f 1212 1210 1216 
f 1210 1214 1216 
f 1211 1209 1217 
f 1217 1213 1218 
f 1207 1215 1218 
f 1215 1211 1218 
f 1211 1217 1218 
f 1209 1208 1219 
f 1214 1213 1219 
f 1208 1216 1219 
f 1216 1214 1219 
f 1217 1209 1219 
f 1213 1217 1219 
f 1210 1207 1220 
f 1214 1210 1220 
f 1213 1214 1220 
f 1218 1213 1220 
o convex_78
v 0.014367 0.041645 0.004545
v 0.011598 0.037494 -0.010679
v 0.011137 0.037956 -0.010679
v 0.012059 0.037494 0.007777
v 0.007446 0.044876 0.004545
v 0.012520 0.044876 -0.009754
v 0.014367 0.037494 -0.006065
v 0.007446 0.042569 -0.000528
v 0.010215 0.044876 0.006391
v 0.010215 0.044414 -0.008833
v 0.009754 0.037956 -0.002372
v 0.014367 0.043491 -0.000528
v 0.014367 0.038417 0.006852
v 0.007908 0.041185 0.001779
v 0.010215 0.042107 0.007777
f 1233 1229 1235 
f 1222 1223 1226 
f 1224 1222 1227 
f 1222 1226 1227 
f 1226 1225 1229 
f 1226 1223 1230 
f 1225 1226 1230 
f 1223 1228 1230 
f 1228 1225 1230 
f 1223 1222 1231 
f 1222 1224 1231 
f 1228 1223 1231 
f 1221 1227 1232 
f 1227 1226 1232 
f 1229 1221 1232 
f 1226 1229 1232 
f 1227 1221 1233 
f 1224 1227 1233 
f 1221 1229 1233 
f 1224 1225 1234 
f 1225 1228 1234 
f 1231 1224 1234 
f 1228 1231 1234 
f 1225 1224 1235 
f 1229 1225 1235 
f 1224 1233 1235 
o convex_79
v 0.018520 -0.057092 0.004086
v 0.018059 -0.058935 0.010545
v 0.016674 -0.058935 0.010545
v 0.023132 -0.073701 0.008700
v 0.023595 -0.045557 0.005932
v 0.016674 -0.045557 0.003624
v 0.018520 -0.073701 0.010083
v 0.023595 -0.060318 0.010083
v 0.023595 -0.058015 0.005009
v 0.016674 -0.056629 0.004548
v 0.020826 -0.045557 0.003624
v 0.023595 -0.073701 0.010083
v 0.019443 -0.073701 0.008700
v 0.016674 -0.045557 0.004548
v 0.019443 -0.073701 0.010545
v 0.020826 -0.059858 0.010545
f 1237 1250 1251 
f 1238 1237 1240 
f 1239 1236 1244 
f 1240 1243 1244 
f 1241 1236 1245 
f 1238 1241 1245 
f 1242 1238 1245 
f 1236 1241 1246 
f 1241 1240 1246 
f 1244 1236 1246 
f 1240 1244 1246 
f 1242 1239 1247 
f 1239 1244 1247 
f 1244 1243 1247 
f 1236 1239 1248 
f 1239 1242 1248 
f 1245 1236 1248 
f 1242 1245 1248 
f 1238 1240 1249 
f 1241 1238 1249 
f 1240 1241 1249 
f 1237 1238 1250 
f 1238 1242 1250 
f 1242 1247 1250 
f 1250 1247 1251 
f 1240 1237 1251 
f 1243 1240 1251 
f 1247 1243 1251 
o convex_80
v 0.018980 -0.073701 0.010545
v 0.017597 -0.064476 0.018850
v 0.018980 -0.059860 0.015158
v 0.015751 -0.058475 0.010545
v 0.019904 -0.060322 0.010545
v 0.019442 -0.073239 0.016081
v 0.016674 -0.065398 0.017926
v 0.018057 -0.073239 0.011007
v 0.016674 -0.058475 0.015158
v 0.019442 -0.068165 0.017465
f 1253 1257 1261 
f 1252 1255 1256 
f 1252 1256 1257 
f 1257 1253 1258 
f 1258 1255 1259 
f 1255 1252 1259 
f 1252 1257 1259 
f 1257 1258 1259 
f 1253 1254 1260 
f 1256 1255 1260 
f 1254 1256 1260 
f 1258 1253 1260 
f 1255 1258 1260 
f 1254 1253 1261 
f 1256 1254 1261 
f 1257 1256 1261 
o convex_81
v 0.016212 -0.045557 0.012389
v 0.015751 -0.059398 0.007777
v 0.015290 -0.058935 0.007315
v 0.014829 -0.055244 0.020234
v 0.018058 -0.057090 0.017925
v 0.016212 -0.045558 0.003624
v 0.014367 -0.051556 0.017004
v 0.016674 -0.057550 0.005009
v 0.014367 -0.055705 0.010084
v 0.016674 -0.045558 0.003624
v 0.015290 -0.045558 0.007315
v 0.016674 -0.046019 0.013775
v 0.017135 -0.055244 0.019771
v 0.016674 -0.058474 0.016080
f 1263 1266 1275 
f 1264 1263 1265 
f 1263 1264 1269 
f 1266 1263 1269 
f 1264 1267 1269 
f 1264 1265 1270 
f 1267 1264 1270 
f 1265 1268 1270 
f 1267 1262 1271 
f 1266 1269 1271 
f 1269 1267 1271 
f 1262 1267 1272 
f 1268 1262 1272 
f 1267 1270 1272 
f 1270 1268 1272 
f 1262 1268 1273 
f 1268 1265 1273 
f 1271 1262 1273 
f 1266 1271 1273 
f 1265 1266 1274 
f 1273 1265 1274 
f 1266 1273 1274 
f 1265 1263 1275 
f 1266 1265 1275 
o convex_82
v 0.024516 -0.021103 0.002701
v 0.016675 -0.030331 -0.001449
v 0.017598 -0.030331 -0.001449
v 0.023593 -0.030331 0.006854
v 0.016213 -0.021103 -0.004219
v 0.024516 -0.022026 0.006854
v 0.021748 -0.029868 0.000856
v 0.016213 -0.028484 -0.000527
v 0.018981 -0.021565 -0.003758
v 0.025439 -0.021103 0.006854
v 0.023593 -0.030331 0.005008
f 1285 1279 1286 
f 1277 1278 1279 
f 1278 1277 1280 
f 1277 1279 1283 
f 1280 1277 1283 
f 1281 1280 1283 
f 1279 1281 1283 
f 1280 1276 1284 
f 1278 1280 1284 
f 1282 1278 1284 
f 1276 1282 1284 
f 1276 1280 1285 
f 1280 1281 1285 
f 1281 1279 1285 
f 1279 1278 1286 
f 1278 1282 1286 
f 1282 1276 1286 
f 1276 1285 1286 
o convex_83
v 0.022671 -0.021103 0.011929
v 0.016213 -0.025717 0.012851
v 0.016675 -0.028484 0.011929
v 0.024978 -0.021103 0.006854
v 0.023593 -0.030331 0.008239
v 0.018521 -0.030331 0.011929
v 0.023132 -0.030331 0.006854
v 0.018059 -0.021565 0.013313
v 0.025439 -0.021565 0.009162
f 1291 1290 1295 
f 1289 1288 1290 
f 1288 1289 1292 
f 1291 1287 1292 
f 1289 1290 1293 
f 1290 1291 1293 
f 1292 1289 1293 
f 1291 1292 1293 
f 1290 1288 1294 
f 1287 1290 1294 
f 1288 1292 1294 
f 1292 1287 1294 
f 1290 1287 1295 
f 1287 1291 1295 
o convex_84
v 0.017597 0.003351 0.001318
v 0.026824 0.000582 0.011927
v 0.026824 -0.000340 0.011927
v 0.020365 0.001506 0.013313
v 0.021288 -0.003570 0.000394
v 0.025439 0.002428 0.004547
v 0.023594 -0.003570 0.014236
v 0.016674 0.001044 0.000856
v 0.023133 0.002889 0.013774
v 0.024517 -0.003570 0.002702
v 0.022210 0.001044 0.000394
v 0.024517 0.003351 0.010080
v 0.025439 -0.003570 0.013774
v 0.026824 -0.000801 0.008238
v 0.018520 0.003351 0.000394
v 0.019443 0.001966 0.011927
v 0.025901 0.002428 0.012849
v 0.023594 0.001506 0.014698
f 1312 1304 1313 
f 1300 1302 1303 
f 1302 1300 1305 
f 1301 1305 1306 
f 1305 1300 1306 
f 1296 1304 1307 
f 1298 1297 1308 
f 1302 1305 1308 
f 1308 1305 1309 
f 1297 1298 1309 
f 1301 1297 1309 
f 1305 1301 1309 
f 1298 1308 1309 
f 1300 1303 1310 
f 1303 1296 1310 
f 1301 1306 1310 
f 1306 1300 1310 
f 1307 1301 1310 
f 1296 1307 1310 
f 1302 1299 1311 
f 1303 1302 1311 
f 1296 1303 1311 
f 1304 1296 1311 
f 1299 1304 1311 
f 1297 1301 1312 
f 1301 1307 1312 
f 1307 1304 1312 
f 1308 1297 1312 
f 1308 1312 1313 
f 1299 1302 1313 
f 1304 1299 1313 
f 1302 1308 1313 
o convex_85
v -0.014700 0.031496 -0.031440
v -0.006397 0.019500 -0.025446
v -0.005936 0.019500 -0.025446
v -0.006396 0.027805 -0.047589
v -0.014238 0.023653 -0.029136
v -0.006397 0.021348 -0.022214
v -0.007781 0.031496 -0.047589
v -0.015623 0.025958 -0.022214
v -0.011008 0.031033 -0.046663
v -0.015623 0.031496 -0.032826
v -0.005934 0.026881 -0.037902
v -0.012393 0.026420 -0.022214
v -0.010089 0.020884 -0.027753
v -0.012854 0.031496 -0.034210
v -0.011470 0.021348 -0.025446
v -0.005936 0.019963 -0.022214
v -0.005934 0.029650 -0.047589
v -0.006858 0.019963 -0.028215
v -0.010087 0.029650 -0.046663
v -0.007781 0.031496 -0.046205
f 1324 1330 1333 
f 1320 1317 1322 
f 1320 1322 1323 
f 1314 1320 1323 
f 1321 1314 1323 
f 1318 1321 1323 
f 1322 1318 1323 
f 1314 1321 1325 
f 1321 1319 1325 
f 1318 1317 1326 
f 1320 1314 1327 
f 1319 1324 1327 
f 1314 1325 1327 
f 1325 1319 1327 
f 1321 1318 1328 
f 1326 1315 1328 
f 1318 1326 1328 
f 1315 1316 1329 
f 1319 1321 1329 
f 1316 1324 1329 
f 1324 1319 1329 
f 1328 1315 1329 
f 1321 1328 1329 
f 1316 1317 1330 
f 1317 1320 1330 
f 1324 1316 1330 
f 1316 1315 1331 
f 1317 1316 1331 
f 1315 1326 1331 
f 1326 1317 1331 
f 1317 1318 1332 
f 1318 1322 1332 
f 1322 1317 1332 
f 1320 1327 1333 
f 1327 1324 1333 
f 1330 1320 1333 
o convex_86
v -0.005934 0.027342 -0.039744
v -0.005011 0.019500 -0.027293
v -0.005934 0.019962 -0.028215
v -0.000398 0.027342 -0.047588
v -0.000398 0.021346 -0.022216
v -0.005934 0.020885 -0.022216
v -0.005934 0.027342 -0.047126
v -0.000398 0.020423 -0.028677
v -0.000398 0.027804 -0.045742
v -0.005934 0.028728 -0.047588
v -0.003166 0.019500 -0.024062
f 1341 1338 1344 
f 1334 1336 1339 
f 1336 1335 1339 
f 1338 1334 1339 
f 1336 1334 1340 
f 1335 1336 1340 
f 1337 1335 1340 
f 1335 1337 1341 
f 1337 1338 1341 
f 1334 1338 1342 
f 1338 1337 1342 
f 1340 1334 1343 
f 1337 1340 1343 
f 1334 1342 1343 
f 1342 1337 1343 
f 1339 1335 1344 
f 1338 1339 1344 
f 1335 1341 1344 
o convex_87
v 0.016674 0.032880 -0.016676
v 0.024056 0.037033 -0.020366
v 0.024056 0.036571 -0.020366
v 0.020365 0.032880 -0.006065
v 0.022671 0.032419 -0.024520
v 0.019904 0.037033 -0.025905
v 0.020826 0.037033 -0.013449
v 0.017597 0.032419 -0.025905
v 0.016674 0.034726 -0.015296
v 0.022671 0.032419 -0.012064
v 0.018982 0.032419 -0.006065
v 0.022671 0.037033 -0.025905
v 0.022211 0.037033 -0.013449
v 0.023594 0.032419 -0.021751
v 0.016674 0.032880 -0.024056
f 1345 1353 1359 
f 1346 1350 1351 
f 1351 1350 1353 
f 1347 1346 1354 
f 1352 1349 1354 
f 1352 1354 1355 
f 1348 1351 1355 
f 1345 1352 1355 
f 1353 1345 1355 
f 1351 1353 1355 
f 1354 1348 1355 
f 1346 1347 1356 
f 1350 1346 1356 
f 1349 1352 1356 
f 1352 1350 1356 
f 1346 1351 1357 
f 1351 1348 1357 
f 1354 1346 1357 
f 1348 1354 1357 
f 1347 1354 1358 
f 1354 1349 1358 
f 1356 1347 1358 
f 1349 1356 1358 
f 1352 1345 1359 
f 1350 1352 1359 
f 1353 1350 1359 
o convex_88
v -0.011010 0.021347 0.014236
v -0.013316 0.038417 0.023925
v -0.013316 0.038417 0.023463
v -0.009625 0.026884 0.018389
v -0.013316 0.034263 0.014236
v -0.011932 0.020884 0.014698
v -0.013778 0.036570 0.023463
v -0.010549 0.033340 0.022080
v -0.010088 0.025960 0.019311
v -0.013778 0.031955 0.014236
f 1365 1366 1369 
f 1363 1360 1364 
f 1361 1362 1366 
f 1362 1364 1366 
f 1362 1361 1367 
f 1363 1364 1367 
f 1364 1362 1367 
f 1361 1366 1367 
f 1367 1366 1368 
f 1360 1363 1368 
f 1365 1360 1368 
f 1366 1365 1368 
f 1363 1367 1368 
f 1364 1360 1369 
f 1360 1365 1369 
f 1366 1364 1369 
o convex_89
v 0.002831 0.027343 -0.002374
v -0.018392 0.023653 -0.009295
v -0.018392 0.023653 -0.008833
v -0.015621 0.029189 -0.002374
v -0.008699 0.027343 -0.007910
v 0.002831 0.022729 -0.006065
v -0.014698 0.025959 -0.002374
v 0.000987 0.023653 -0.008371
v 0.001446 0.028266 -0.003759
v -0.011930 0.028727 -0.006526
v -0.002244 0.022729 -0.009295
v 0.003755 0.026419 -0.002374
v -0.018392 0.024575 -0.009295
v -0.006859 0.025037 -0.009295
f 1382 1374 1383 
f 1373 1372 1376 
f 1370 1373 1376 
f 1372 1375 1376 
f 1373 1370 1378 
f 1377 1374 1378 
f 1373 1378 1379 
f 1378 1374 1379 
f 1372 1371 1380 
f 1375 1372 1380 
f 1377 1375 1380 
f 1370 1376 1381 
f 1376 1375 1381 
f 1375 1377 1381 
f 1378 1370 1381 
f 1377 1378 1381 
f 1371 1372 1382 
f 1372 1373 1382 
f 1373 1379 1382 
f 1379 1374 1382 
f 1380 1371 1382 
f 1380 1382 1383 
f 1374 1377 1383 
f 1377 1380 1383 
o convex_90
v 0.011136 0.030572 0.008699
v 0.006523 0.022729 -0.003297
v 0.006523 0.025036 -0.003297
v 0.011599 0.030572 0.002701
v 0.011136 0.032419 0.007775
v 0.007446 0.022729 -0.002835
v 0.010214 0.028726 0.008237
v 0.007446 0.027805 -0.001450
v 0.011599 0.030110 0.008237
f 1384 1390 1392 
f 1385 1386 1389 
f 1386 1387 1389 
f 1386 1385 1390 
f 1384 1388 1390 
f 1385 1389 1390 
f 1390 1388 1391 
f 1387 1386 1391 
f 1388 1387 1391 
f 1386 1390 1391 
f 1388 1384 1392 
f 1387 1388 1392 
f 1389 1387 1392 
f 1390 1389 1392 
o convex_91
v 0.003755 0.067483 0.032230
v -0.001320 0.062409 0.014238
v -0.000397 0.062409 0.014238
v -0.001320 0.070252 0.014238
v -0.001320 0.066101 0.036381
v 0.006062 0.062409 0.027615
v 0.002371 0.062409 0.037767
v 0.004216 0.067021 0.019314
v -0.000859 0.070714 0.023925
v 0.005600 0.066562 0.028999
v 0.002371 0.068866 0.016545
v 0.006062 0.062872 0.033612
v 0.005600 0.063333 0.022541
v -0.001320 0.068405 0.034073
v 0.002832 0.065179 0.036381
v 0.003755 0.068405 0.028540
v 0.006062 0.065180 0.024385
f 1405 1400 1409 
f 1395 1394 1396 
f 1396 1394 1397 
f 1394 1395 1398 
f 1397 1394 1399 
f 1394 1398 1399 
f 1395 1396 1403 
f 1400 1395 1403 
f 1396 1401 1403 
f 1402 1400 1403 
f 1399 1398 1404 
f 1402 1393 1404 
f 1398 1395 1405 
f 1395 1400 1405 
f 1396 1397 1406 
f 1401 1396 1406 
f 1397 1399 1407 
f 1404 1393 1407 
f 1399 1404 1407 
f 1393 1406 1407 
f 1406 1397 1407 
f 1393 1402 1408 
f 1403 1401 1408 
f 1402 1403 1408 
f 1406 1393 1408 
f 1401 1406 1408 
f 1400 1402 1409 
f 1404 1398 1409 
f 1402 1404 1409 
f 1398 1405 1409 
o convex_92
v -0.011932 0.040725 -0.030057
v -0.010548 0.039340 -0.047590
v -0.012394 0.042108 -0.047590
v -0.007319 0.044876 -0.030057
v -0.007780 0.039340 -0.046205
v -0.007319 0.043491 -0.046205
v -0.012394 0.043491 -0.037902
v -0.012394 0.039801 -0.033287
v -0.008703 0.042108 -0.030981
v -0.012394 0.043030 -0.047590
v -0.007780 0.039340 -0.043435
v -0.012394 0.041647 -0.030057
f 1416 1417 1421 
f 1414 1411 1415 
f 1412 1411 1417 
f 1416 1412 1417 
f 1413 1410 1418 
f 1411 1412 1419 
f 1415 1411 1419 
f 1413 1415 1419 
f 1412 1416 1419 
f 1416 1413 1419 
f 1411 1414 1420 
f 1415 1413 1420 
f 1414 1415 1420 
f 1417 1411 1420 
f 1410 1417 1420 
f 1418 1410 1420 
f 1413 1418 1420 
f 1410 1413 1421 
f 1413 1416 1421 
f 1417 1410 1421 
o convex_93
v -0.000399 0.070251 0.014236
v -0.006857 0.058258 0.006854
v -0.006857 0.058258 0.007316
v 0.001448 0.053181 0.006854
v -0.000859 0.053181 0.014236
v -0.006856 0.071637 0.014236
v -0.004088 0.070251 0.011006
v 0.000524 0.055029 0.012851
v 0.000063 0.069791 0.013313
v -0.001782 0.057797 0.006854
v -0.006856 0.070251 0.011006
v -0.006857 0.061486 0.010085
v -0.001322 0.069791 0.011930
f 1431 1428 1434 
f 1424 1423 1426 
f 1423 1425 1426 
f 1426 1422 1427 
f 1427 1422 1428 
f 1422 1426 1429 
f 1426 1425 1429 
f 1422 1429 1430 
f 1429 1425 1430 
f 1425 1423 1431 
f 1423 1428 1431 
f 1428 1423 1432 
f 1427 1428 1432 
f 1423 1424 1433 
f 1424 1426 1433 
f 1426 1427 1433 
f 1432 1423 1433 
f 1427 1432 1433 
f 1428 1422 1434 
f 1430 1425 1434 
f 1422 1430 1434 
f 1425 1431 1434 
o convex_94
v -0.023468 0.036571 -0.030057
v -0.018855 0.043953 -0.006526
v -0.018855 0.043031 -0.006526
v -0.028081 0.036571 -0.008834
v -0.019777 0.042108 -0.030057
v -0.018855 0.039802 -0.010219
v -0.027157 0.038417 -0.011142
v -0.022084 0.036571 -0.023136
v -0.018855 0.041184 -0.029134
v -0.027157 0.036571 -0.007450
v -0.023007 0.038878 -0.030057
v -0.020700 0.043031 -0.006526
v -0.026696 0.038417 -0.006526
v -0.028081 0.037033 -0.011142
f 1447 1441 1448 
f 1436 1437 1440 
f 1438 1435 1442 
f 1440 1442 1443 
f 1435 1439 1443 
f 1439 1436 1443 
f 1436 1440 1443 
f 1442 1435 1443 
f 1440 1437 1444 
f 1438 1442 1444 
f 1442 1440 1444 
f 1439 1435 1445 
f 1441 1439 1445 
f 1437 1436 1446 
f 1436 1439 1446 
f 1439 1441 1446 
f 1444 1437 1447 
f 1438 1444 1447 
f 1437 1446 1447 
f 1446 1441 1447 
f 1435 1438 1448 
f 1445 1435 1448 
f 1441 1445 1448 
f 1438 1447 1448 
o convex_95
v -0.000859 0.050874 -0.022679
v -0.007319 0.039801 -0.047590
v -0.007319 0.040724 -0.047590
v 0.001909 0.045798 -0.047590
v -0.006394 0.044877 -0.045742
v -0.007319 0.047643 -0.021758
v 0.001909 0.050411 -0.021758
v 0.001448 0.047644 -0.047590
v -0.006394 0.044877 -0.027294
v -0.000859 0.050874 -0.025908
v -0.006857 0.039801 -0.046665
v 0.001909 0.047182 -0.036054
v 0.001909 0.050874 -0.026831
v -0.007319 0.043953 -0.045742
v -0.007319 0.047643 -0.024065
v -0.002245 0.046721 -0.046205
v -0.004549 0.047643 -0.021758
f 1457 1455 1465 
f 1450 1451 1452 
f 1451 1450 1454 
f 1449 1454 1455 
f 1452 1451 1456 
f 1451 1453 1456 
f 1454 1450 1457 
f 1454 1449 1458 
f 1450 1452 1459 
f 1457 1450 1459 
f 1455 1457 1459 
f 1452 1455 1460 
f 1459 1452 1460 
f 1455 1459 1460 
f 1449 1455 1461 
f 1455 1452 1461 
f 1452 1456 1461 
f 1458 1449 1461 
f 1456 1458 1461 
f 1453 1451 1462 
f 1451 1454 1462 
f 1462 1454 1463 
f 1458 1453 1463 
f 1454 1458 1463 
f 1453 1462 1463 
f 1456 1453 1464 
f 1453 1458 1464 
f 1458 1456 1464 
f 1455 1454 1465 
f 1454 1457 1465 
o convex_96
v 0.013905 0.047184 -0.012989
v 0.023595 0.050872 -0.016680
v 0.023595 0.050411 -0.016680
v 0.013905 0.049028 -0.025902
v 0.020826 0.044876 -0.025903
v 0.020364 0.053181 -0.019443
v 0.020826 0.044876 -0.014834
v 0.017136 0.051796 -0.012066
v 0.017136 0.044876 -0.025902
v 0.016674 0.045800 -0.010683
v 0.020364 0.049950 -0.024519
v 0.013905 0.050412 -0.025440
v 0.021287 0.050872 -0.012528
v 0.013905 0.049489 -0.011605
v 0.023595 0.049029 -0.020826
v 0.018982 0.053181 -0.013911
v 0.021748 0.044876 -0.018982
v 0.018521 0.047647 -0.010680
v 0.021287 0.053181 -0.019443
f 1471 1481 1484 
f 1466 1469 1474 
f 1469 1470 1474 
f 1470 1472 1474 
f 1474 1472 1475 
f 1466 1474 1475 
f 1470 1469 1476 
f 1469 1466 1477 
f 1476 1469 1477 
f 1468 1467 1478 
f 1472 1468 1478 
f 1466 1475 1479 
f 1477 1466 1479 
f 1473 1477 1479 
f 1467 1468 1480 
f 1470 1476 1480 
f 1471 1477 1481 
f 1477 1473 1481 
f 1478 1467 1481 
f 1473 1478 1481 
f 1468 1472 1482 
f 1472 1470 1482 
f 1480 1468 1482 
f 1470 1480 1482 
f 1475 1472 1483 
f 1472 1478 1483 
f 1478 1473 1483 
f 1473 1479 1483 
f 1479 1475 1483 
f 1477 1471 1484 
f 1476 1477 1484 
f 1467 1480 1484 
f 1480 1476 1484 
f 1481 1467 1484 
o convex_97
v 0.006984 0.052258 -0.008833
v -0.007319 0.045338 -0.013447
v -0.007319 0.045338 -0.012986
v -0.006856 0.051335 -0.005604
v 0.007446 0.050874 -0.002374
v 0.007446 0.048107 -0.013447
v -0.005472 0.050874 -0.010217
v -0.007319 0.049951 -0.002374
v -0.001780 0.052720 -0.004682
v 0.004216 0.049951 -0.013447
v -0.005010 0.045338 -0.012986
v 0.006984 0.051796 -0.002374
v -0.007319 0.049951 -0.010679
v 0.005138 0.052720 -0.008370
v -0.002243 0.051796 -0.009755
v 0.006523 0.050874 -0.012524
f 1494 1499 1500 
f 1485 1489 1490 
f 1486 1487 1492 
f 1488 1492 1493 
f 1490 1486 1494 
f 1487 1486 1495 
f 1490 1489 1495 
f 1486 1490 1495 
f 1492 1487 1495 
f 1489 1492 1495 
f 1489 1485 1496 
f 1492 1489 1496 
f 1493 1492 1496 
f 1488 1491 1497 
f 1486 1492 1497 
f 1492 1488 1497 
f 1494 1486 1497 
f 1491 1494 1497 
f 1496 1485 1498 
f 1493 1496 1498 
f 1491 1488 1499 
f 1488 1493 1499 
f 1494 1491 1499 
f 1493 1498 1499 
f 1499 1498 1500 
f 1485 1490 1500 
f 1490 1494 1500 
f 1498 1485 1500 
o convex_98
v 0.013442 0.037494 0.007315
v 0.016212 0.026882 -0.007909
v 0.013444 0.029651 -0.005602
v 0.012522 0.037494 -0.009755
v 0.011599 0.031034 0.008238
v 0.009292 0.036108 -0.001449
v 0.016674 0.028729 0.003622
v 0.016212 0.032880 -0.010218
v 0.009292 0.033803 -0.001449
v 0.014366 0.037494 -0.004677
v 0.016212 0.027344 0.004545
v 0.011599 0.030112 0.002239
v 0.011600 0.037494 -0.009755
v 0.012061 0.037494 0.007315
v 0.013905 0.037494 0.006852
v 0.013442 0.032419 -0.009294
v 0.009292 0.036569 -0.000070
v 0.016674 0.027344 -0.008832
v 0.016674 0.031496 -0.008832
f 1518 1508 1519 
f 1504 1501 1510 
f 1508 1504 1510 
f 1501 1505 1511 
f 1503 1502 1512 
f 1509 1503 1512 
f 1505 1509 1512 
f 1511 1505 1512 
f 1502 1511 1512 
f 1501 1504 1513 
f 1504 1508 1513 
f 1509 1506 1513 
f 1505 1501 1514 
f 1501 1513 1514 
f 1510 1501 1515 
f 1501 1511 1515 
f 1511 1507 1515 
f 1502 1503 1516 
f 1503 1509 1516 
f 1513 1508 1516 
f 1509 1513 1516 
f 1509 1505 1517 
f 1506 1509 1517 
f 1513 1506 1517 
f 1505 1514 1517 
f 1514 1513 1517 
f 1511 1502 1518 
f 1507 1511 1518 
f 1502 1516 1518 
f 1516 1508 1518 
f 1508 1510 1519 
f 1515 1507 1519 
f 1510 1515 1519 
f 1507 1518 1519 
o convex_99
v -0.008704 0.030111 0.002240
v -0.016546 0.027805 -0.002374
v -0.017007 0.028727 -0.001912
v -0.014699 0.025959 0.003624
v -0.006857 0.026421 -0.002374
v -0.017469 0.031034 -0.000989
v -0.014699 0.031034 0.003624
v -0.006857 0.028267 0.002701
v -0.014238 0.025959 -0.002374
v -0.006857 0.029188 -0.000067
v -0.016083 0.030111 -0.002374
v -0.010089 0.025959 0.001778
f 1528 1524 1531 
f 1522 1521 1523 
f 1522 1523 1525 
f 1520 1525 1526 
f 1525 1523 1526 
f 1526 1523 1527 
f 1520 1526 1527 
f 1523 1521 1528 
f 1521 1524 1528 
f 1525 1520 1529 
f 1520 1527 1529 
f 1527 1524 1529 
f 1521 1522 1530 
f 1524 1521 1530 
f 1522 1525 1530 
f 1529 1524 1530 
f 1525 1529 1530 
f 1527 1523 1531 
f 1524 1527 1531 
f 1523 1528 1531 
o convex_100
v 0.007446 0.050413 -0.017140
v 0.013905 0.049029 -0.014833
v 0.013905 0.048567 -0.014833
v 0.013905 0.049490 -0.025904
v 0.007908 0.049029 -0.024519
v 0.007446 0.048567 -0.014833
v 0.013905 0.050413 -0.025904
v 0.007446 0.050413 -0.025904
v 0.011136 0.049951 -0.014833
f 1538 1532 1540 
f 1533 1534 1535 
f 1535 1534 1536 
f 1536 1534 1537 
f 1534 1533 1537 
f 1533 1535 1538 
f 1535 1536 1539 
f 1536 1537 1539 
f 1537 1532 1539 
f 1532 1538 1539 
f 1538 1535 1539 
f 1537 1533 1540 
f 1532 1537 1540 
f 1533 1538 1540 
o convex_101
v -0.014701 0.036574 0.006851
v -0.013317 0.061945 0.014236
v -0.013317 0.061945 0.013775
v -0.018392 0.041186 0.003626
v -0.013317 0.045800 -0.001913
v -0.014701 0.036574 0.014236
v -0.016546 0.048107 0.014236
v -0.013778 0.036574 0.005011
v -0.014701 0.044879 -0.001913
v -0.017930 0.037957 0.003626
v -0.013778 0.061945 0.013775
v -0.016085 0.039343 0.014236
v -0.013317 0.055021 0.014236
v -0.018392 0.041186 0.002702
v -0.013778 0.036574 0.007776
f 1553 1546 1555 
f 1543 1542 1545 
f 1546 1542 1547 
f 1546 1541 1548 
f 1545 1548 1549 
f 1549 1548 1550 
f 1541 1546 1550 
f 1548 1541 1550 
f 1542 1543 1551 
f 1543 1545 1551 
f 1547 1542 1551 
f 1544 1547 1551 
f 1545 1549 1551 
f 1547 1544 1552 
f 1546 1547 1552 
f 1550 1546 1552 
f 1544 1550 1552 
f 1545 1542 1553 
f 1542 1546 1553 
f 1549 1550 1554 
f 1550 1544 1554 
f 1544 1551 1554 
f 1551 1549 1554 
f 1548 1545 1555 
f 1546 1548 1555 
f 1545 1553 1555 
o convex_102
v -0.012856 0.016274 0.011928
v -0.014239 0.036571 0.014236
v -0.013778 0.036571 0.007316
v -0.016085 0.020423 0.003624
v -0.012855 0.030109 0.003624
v -0.011471 0.025040 0.014236
v -0.013778 0.014886 0.003624
v -0.014700 0.014886 0.011007
v -0.015162 0.036571 0.014236
v -0.014240 0.036571 0.004087
v -0.011471 0.020887 0.014236
v -0.016085 0.025040 0.006393
v -0.013317 0.016737 0.013313
v -0.015162 0.014424 0.009161
v -0.011933 0.029187 0.014236
v -0.015162 0.036571 0.009161
v -0.013317 0.035184 0.004087
v -0.015162 0.014424 0.004087
f 1562 1569 1573 
f 1559 1560 1562 
f 1562 1556 1563 
f 1557 1558 1564 
f 1561 1557 1564 
f 1560 1559 1565 
f 1564 1558 1565 
f 1560 1561 1566 
f 1556 1562 1566 
f 1562 1560 1566 
f 1561 1564 1566 
f 1565 1559 1567 
f 1563 1556 1568 
f 1564 1563 1568 
f 1556 1566 1568 
f 1566 1564 1568 
f 1562 1563 1569 
f 1563 1564 1569 
f 1567 1559 1569 
f 1564 1567 1569 
f 1558 1557 1570 
f 1557 1561 1570 
f 1564 1565 1571 
f 1567 1564 1571 
f 1565 1567 1571 
f 1561 1560 1572 
f 1560 1565 1572 
f 1565 1558 1572 
f 1558 1570 1572 
f 1570 1561 1572 
f 1559 1562 1573 
f 1569 1559 1573 
o convex_103
v -0.013317 0.046724 -0.001450
v -0.006857 0.060102 0.008238
v -0.006857 0.060102 0.007776
v -0.006857 0.049493 -0.000528
v -0.007319 0.054564 -0.000528
v -0.013317 0.055025 0.008238
v -0.013317 0.056411 0.007776
v -0.012855 0.045802 0.000395
v -0.006857 0.057793 0.007315
v -0.006857 0.049493 -0.002374
v -0.010087 0.059638 0.007776
v -0.009165 0.052720 -0.000989
v -0.010547 0.045802 -0.000989
v -0.006857 0.049952 0.000858
v -0.012855 0.053642 0.007315
f 1587 1582 1588 
f 1576 1575 1577 
f 1574 1579 1580 
f 1579 1574 1581 
f 1577 1575 1582 
f 1575 1579 1582 
f 1576 1577 1583 
f 1578 1576 1583 
f 1575 1576 1584 
f 1576 1578 1584 
f 1579 1575 1584 
f 1580 1579 1584 
f 1580 1584 1585 
f 1574 1580 1585 
f 1583 1574 1585 
f 1578 1583 1585 
f 1584 1578 1585 
f 1581 1574 1586 
f 1583 1577 1586 
f 1574 1583 1586 
f 1577 1582 1587 
f 1581 1586 1587 
f 1586 1577 1587 
f 1579 1581 1588 
f 1582 1579 1588 
f 1581 1587 1588 
o convex_104
v -0.007319 0.072098 0.014236
v -0.013317 0.055488 0.008238
v -0.012855 0.055488 0.008238
v -0.012855 0.061026 0.014236
v -0.013317 0.069790 0.013774
v -0.006857 0.061026 0.008238
v -0.010087 0.070711 0.011467
v -0.006857 0.059642 0.008700
v -0.006857 0.070251 0.011007
v -0.006857 0.071175 0.014236
v -0.012393 0.058259 0.008238
v -0.011931 0.071637 0.014236
f 1595 1593 1600 
f 1590 1591 1592 
f 1590 1592 1593 
f 1591 1590 1594 
f 1592 1591 1596 
f 1591 1594 1596 
f 1596 1594 1597 
f 1595 1589 1597 
f 1594 1595 1597 
f 1589 1592 1598 
f 1592 1596 1598 
f 1596 1597 1598 
f 1597 1589 1598 
f 1590 1593 1599 
f 1594 1590 1599 
f 1595 1594 1599 
f 1593 1595 1599 
f 1592 1589 1600 
f 1593 1592 1600 
f 1589 1595 1600 
o convex_105
v -0.005011 0.007503 -0.001913
v 0.005139 0.017193 -0.001913
v 0.005139 0.017193 -0.002374
v -0.005473 0.016270 -0.002374
v 0.001909 0.015807 0.001317
v 0.002370 0.007503 -0.002374
v 0.001909 0.007503 -0.000067
v -0.002242 0.007503 -0.000067
v 0.004677 0.014885 0.000855
v -0.005473 0.016270 -0.001913
f 1608 1605 1610 
f 1602 1603 1604 
f 1604 1603 1606 
f 1601 1604 1606 
f 1601 1606 1607 
f 1601 1607 1608 
f 1607 1605 1608 
f 1603 1602 1609 
f 1602 1605 1609 
f 1606 1603 1609 
f 1607 1606 1609 
f 1605 1607 1609 
f 1602 1604 1610 
f 1604 1601 1610 
f 1605 1602 1610 
f 1601 1608 1610 
o convex_106
v -0.004550 0.017193 -0.002374
v -0.004088 0.029650 0.001778
v -0.004088 0.029650 0.001317
v 0.007446 0.021808 -0.001912
v -0.006857 0.027343 -0.002374
v 0.007446 0.027343 -0.002374
v 0.000524 0.026881 0.002240
v -0.006857 0.028264 0.002701
v 0.002369 0.017656 -0.000528
v 0.007446 0.027343 0.000394
v 0.005139 0.017193 -0.002374
v -0.006857 0.018579 -0.001912
v 0.004677 0.017193 -0.000989
v -0.003627 0.028264 -0.002374
v -0.000858 0.017193 -0.000989
f 1611 1623 1625 
f 1613 1612 1616 
f 1611 1615 1616 
f 1612 1613 1618 
f 1613 1615 1618 
f 1617 1612 1618 
f 1617 1618 1619 
f 1616 1612 1620 
f 1614 1616 1620 
f 1612 1617 1620 
f 1616 1614 1621 
f 1611 1616 1621 
f 1615 1611 1622 
f 1618 1615 1622 
f 1617 1619 1623 
f 1614 1620 1623 
f 1620 1617 1623 
f 1621 1614 1623 
f 1611 1621 1623 
f 1615 1613 1624 
f 1613 1616 1624 
f 1616 1615 1624 
f 1619 1618 1625 
f 1622 1611 1625 
f 1618 1622 1625 
f 1623 1619 1625 
o convex_107
v 0.007446 0.049953 0.001779
v -0.006857 0.049490 -0.001451
v -0.006857 0.049490 -0.000526
v -0.006857 0.058718 0.006854
v 0.006522 0.045338 0.006854
v 0.007446 0.051336 -0.002374
v 0.007446 0.043953 0.002240
v -0.005933 0.055486 -0.000066
v -0.000859 0.056872 0.006854
v 0.003754 0.045802 0.006854
v -0.006857 0.049953 -0.002374
v -0.001320 0.056410 0.002240
v 0.007446 0.046722 0.006392
v -0.005933 0.049953 0.001779
v 0.006061 0.043953 0.003162
v -0.006857 0.057794 0.006854
f 1639 1635 1641 
f 1627 1628 1629 
f 1631 1626 1632 
f 1629 1630 1634 
f 1626 1631 1634 
f 1630 1629 1635 
f 1627 1629 1636 
f 1632 1627 1636 
f 1631 1632 1636 
f 1629 1633 1636 
f 1633 1631 1636 
f 1633 1629 1637 
f 1631 1633 1637 
f 1629 1634 1637 
f 1634 1631 1637 
f 1632 1626 1638 
f 1630 1632 1638 
f 1626 1634 1638 
f 1634 1630 1638 
f 1628 1635 1639 
f 1628 1627 1640 
f 1627 1632 1640 
f 1632 1630 1640 
f 1635 1628 1640 
f 1630 1635 1640 
f 1629 1628 1641 
f 1635 1629 1641 
f 1628 1639 1641 
o convex_108
v 0.007446 0.051335 -0.001451
v 0.011598 0.044876 -0.010218
v 0.012982 0.044876 -0.010218
v 0.009754 0.044876 0.006391
v 0.011598 0.051795 -0.004220
v 0.007446 0.048106 -0.014832
v 0.013905 0.049029 -0.014832
v 0.008831 0.053643 -0.006985
v 0.007446 0.044876 0.005005
v 0.008369 0.045800 -0.013446
v 0.012521 0.045339 -0.004220
v 0.008369 0.049951 0.001777
v 0.007908 0.049489 -0.014832
v 0.007446 0.046261 0.006391
v 0.013905 0.048567 -0.011601
v 0.009754 0.053643 -0.006063
v 0.007446 0.051795 -0.007446
f 1649 1654 1658 
f 1643 1644 1645 
f 1643 1645 1650 
f 1642 1647 1650 
f 1650 1647 1651 
f 1644 1643 1651 
f 1648 1644 1651 
f 1647 1648 1651 
f 1643 1650 1651 
f 1645 1644 1652 
f 1646 1645 1652 
f 1645 1646 1653 
f 1648 1647 1654 
f 1649 1648 1654 
f 1650 1645 1655 
f 1642 1650 1655 
f 1645 1653 1655 
f 1653 1642 1655 
f 1644 1648 1656 
f 1648 1646 1656 
f 1652 1644 1656 
f 1646 1652 1656 
f 1646 1648 1657 
f 1648 1649 1657 
f 1649 1642 1657 
f 1653 1646 1657 
f 1642 1653 1657 
f 1647 1642 1658 
f 1642 1649 1658 
f 1654 1647 1658 
o convex_109
v 0.007446 0.037030 0.009162
v -0.003166 0.021807 0.013774
v -0.002243 0.021807 0.013774
v -0.001320 0.040262 0.014236
v 0.002370 0.040262 0.009623
v 0.000987 0.029651 0.014236
v 0.006523 0.030574 0.008238
v 0.005600 0.029192 0.010085
v 0.000066 0.040262 0.014236
v 0.006523 0.039800 0.008700
v 0.004677 0.029651 0.008700
v -0.001320 0.022269 0.014236
v 0.003293 0.036109 0.012852
f 1667 1664 1671 
f 1660 1662 1663 
f 1665 1659 1666 
f 1663 1662 1667 
f 1662 1664 1667 
f 1659 1665 1668 
f 1665 1663 1668 
f 1667 1659 1668 
f 1663 1667 1668 
f 1661 1660 1669 
f 1660 1663 1669 
f 1665 1661 1669 
f 1663 1665 1669 
f 1660 1661 1670 
f 1662 1660 1670 
f 1664 1662 1670 
f 1661 1665 1670 
f 1666 1664 1670 
f 1665 1666 1670 
f 1666 1659 1671 
f 1664 1666 1671 
f 1659 1667 1671 
o convex_110
v 0.002370 0.043032 0.008239
v -0.000397 0.053181 0.014236
v 0.000526 0.053181 0.012389
v 0.004216 0.040262 0.009622
v -0.000859 0.040262 0.014236
v 0.000987 0.053181 0.006854
v 0.004216 0.046722 0.006854
v -0.001320 0.051334 0.013312
v -0.000397 0.041185 0.011928
v 0.000064 0.040262 0.014236
f 1673 1676 1681 
f 1674 1673 1675 
f 1673 1674 1677 
f 1672 1677 1678 
f 1674 1675 1678 
f 1675 1672 1678 
f 1677 1674 1678 
f 1676 1673 1679 
f 1673 1677 1679 
f 1679 1677 1680 
f 1672 1675 1680 
f 1675 1676 1680 
f 1677 1672 1680 
f 1676 1679 1680 
f 1675 1673 1681 
f 1676 1675 1681 
