o convex_0
v 0.067065 0.008965 -0.033039
v 0.056092 -0.021360 -0.034972
v 0.049644 -0.019422 -0.038847
v 0.034799 0.010256 0.001158
v 0.034799 0.014128 -0.039492
v 0.065127 -0.006515 -0.005296
v 0.034799 -0.015550 -0.006587
v 0.066416 -0.009097 -0.041430
v 0.034799 -0.007159 -0.040138
v 0.050289 0.015418 -0.042717
v 0.068354 0.007674 -0.016270
v 0.065771 -0.018775 -0.022073
v 0.035447 0.018000 -0.024652
v 0.035447 -0.011674 0.001158
v 0.050934 -0.014903 -0.044659
v 0.072227 -0.000713 -0.024002
v 0.064482 0.001868 -0.004654
v 0.035447 0.013484 -0.002717
v 0.060609 -0.000066 -0.044659
v 0.034799 -0.014260 -0.027877
v 0.061254 -0.019422 -0.018849
v 0.063837 0.010899 -0.022719
v 0.044478 0.014128 -0.043367
v 0.066416 -0.016194 -0.035622
v 0.059965 -0.003930 -0.002071
v 0.069644 0.004450 -0.035622
v 0.061899 -0.011674 -0.006587
v 0.069644 -0.012322 -0.019495
v 0.047061 0.017353 -0.038847
v 0.059965 -0.016837 -0.042717
v 0.071578 -0.005225 -0.031747
v 0.061899 -0.021360 -0.024002
v 0.043834 0.003802 0.001158
v 0.070289 0.002512 -0.014978
v 0.034799 0.018000 -0.033039
v 0.035447 0.015418 -0.008525
v 0.065127 0.001868 -0.042076
v 0.034799 -0.011674 -0.036268
v 0.064482 0.005740 -0.008529
v 0.070289 0.007031 -0.024002
v 0.059965 -0.020066 -0.038847
v 0.050289 -0.018132 -0.042717
v 0.036737 -0.001357 -0.041425
v 0.047061 0.017353 -0.035622
v 0.069644 -0.013612 -0.028523
v 0.034799 -0.015550 -0.021432
v 0.053513 0.015418 -0.039492
v 0.048354 -0.012322 -0.044659
v 0.061899 0.010899 -0.018849
v 0.061254 -0.007802 -0.044659
v 0.063189 -0.021360 -0.027877
v 0.068354 -0.003934 -0.009816
v 0.036737 0.010256 0.001158
v 0.043834 -0.004578 0.001158
v 0.051578 0.014128 -0.043367
v 0.059965 -0.014260 -0.009171
v 0.071578 -0.000066 -0.033039
v 0.056092 -0.021360 -0.029168
v 0.071578 -0.007159 -0.023365
v 0.066416 -0.014256 -0.014978
v 0.068354 0.008965 -0.029814
v 0.061899 -0.010388 -0.005296
v 0.067710 0.007674 -0.034976
v 0.067065 -0.000066 -0.006587
f 52 34 64 
f 4 5 7 
f 7 5 9 
f 4 7 14 
f 7 9 20 
f 14 7 21 
f 6 17 25 
f 10 23 29 
f 8 24 30 
f 24 8 31 
f 21 7 32 
f 12 21 32 
f 4 14 33 
f 25 17 33 
f 5 4 35 
f 23 5 35 
f 13 29 35 
f 29 23 35 
f 4 18 36 
f 35 4 36 
f 13 35 36 
f 26 8 37 
f 3 20 38 
f 20 9 38 
f 11 18 39 
f 11 34 40 
f 34 16 40 
f 30 24 41 
f 2 3 42 
f 15 30 42 
f 3 38 42 
f 38 9 42 
f 41 2 42 
f 30 41 42 
f 9 5 43 
f 5 23 43 
f 29 13 44 
f 13 36 44 
f 28 12 45 
f 24 31 45 
f 3 2 46 
f 2 7 46 
f 20 3 46 
f 7 20 46 
f 10 29 47 
f 29 44 47 
f 44 22 47 
f 19 15 48 
f 23 19 48 
f 42 9 48 
f 15 42 48 
f 9 43 48 
f 43 23 48 
f 18 11 49 
f 11 22 49 
f 36 18 49 
f 22 44 49 
f 44 36 49 
f 15 19 50 
f 30 15 50 
f 8 30 50 
f 37 8 50 
f 19 37 50 
f 32 2 51 
f 12 32 51 
f 2 41 51 
f 41 24 51 
f 45 12 51 
f 24 45 51 
f 6 28 52 
f 18 4 53 
f 4 33 53 
f 33 17 53 
f 17 39 53 
f 39 18 53 
f 14 25 54 
f 33 14 54 
f 25 33 54 
f 23 10 55 
f 19 23 55 
f 37 19 55 
f 10 47 55 
f 14 21 56 
f 21 27 56 
f 27 14 56 
f 8 26 57 
f 31 8 57 
f 16 31 57 
f 26 40 57 
f 40 16 57 
f 7 2 58 
f 2 32 58 
f 32 7 58 
f 31 16 59 
f 16 34 59 
f 28 45 59 
f 45 31 59 
f 52 28 59 
f 34 52 59 
f 21 12 60 
f 6 27 60 
f 27 21 60 
f 28 6 60 
f 12 28 60 
f 22 11 61 
f 11 40 61 
f 40 26 61 
f 1 47 61 
f 47 22 61 
f 25 14 62 
f 6 25 62 
f 27 6 62 
f 14 27 62 
f 26 37 63 
f 47 1 63 
f 37 55 63 
f 55 47 63 
f 1 61 63 
f 61 26 63 
f 17 6 64 
f 34 11 64 
f 39 17 64 
f 11 39 64 
f 6 52 64 
o convex_1
v -0.011662 -0.029103 0.001158
v 0.036735 0.009614 0.001806
v 0.041250 0.006383 0.001806
v -0.003273 -0.031037 0.018581
v -0.003921 0.009614 0.018581
v -0.030377 -0.003294 0.001158
v 0.028987 -0.019422 0.018581
v 0.029635 -0.022645 0.001158
v 0.024465 0.008317 0.018581
v -0.000047 0.009614 0.001158
v -0.009077 -0.018133 0.018581
v 0.043187 -0.003939 0.001158
v 0.003179 -0.032331 0.017933
v -0.030377 -0.010397 0.001804
v 0.031565 -0.005877 0.018581
v 0.030276 -0.023938 0.008258
v 0.015435 -0.028455 0.005031
v -0.023918 -0.003939 0.008258
v -0.018755 0.003805 0.001158
v -0.016825 -0.026517 0.001804
v 0.038024 -0.008455 0.010837
v 0.002538 -0.029103 0.001158
v 0.025113 -0.023938 0.017290
v 0.019950 0.009614 0.018581
v 0.033502 -0.020066 0.009547
v 0.036735 -0.003939 0.012772
v 0.036735 0.009614 0.001158
v -0.004562 0.009614 0.007613
v 0.030276 -0.023294 0.001804
v 0.029635 0.000573 0.018581
v -0.009077 -0.013612 0.018581
v 0.025761 -0.025872 0.008904
v 0.043187 0.002511 0.001806
v -0.004562 -0.029748 0.018581
v -0.010373 -0.029748 0.001158
v -0.001336 -0.032331 0.018581
v -0.018755 0.003805 0.005031
v -0.005210 0.006387 0.018581
v 0.030924 -0.016839 0.017933
v 0.032854 -0.021356 0.005676
v -0.030377 -0.003294 0.001804
v -0.030377 -0.010397 0.001158
v -0.023918 -0.007815 0.008258
v 0.015435 -0.027165 0.001158
v 0.003179 -0.032331 0.018581
v -0.018755 -0.024583 0.001804
v 0.026409 0.006383 0.018581
v 0.028987 -0.024583 0.003740
v 0.026409 -0.023938 0.015999
f 109 96 113 
f 69 68 71 
f 65 70 72 
f 67 66 73 
f 69 71 73 
f 69 66 74 
f 72 70 74 
f 68 69 75 
f 72 74 76 
f 73 71 79 
f 74 70 83 
f 65 72 86 
f 81 77 86 
f 66 69 88 
f 73 66 88 
f 69 73 88 
f 76 85 89 
f 79 85 90 
f 66 67 91 
f 74 66 91 
f 76 74 91 
f 69 74 92 
f 74 83 92 
f 72 76 93 
f 73 79 94 
f 79 90 94 
f 75 69 95 
f 82 75 95 
f 77 81 96 
f 85 76 97 
f 90 85 97 
f 91 67 97 
f 76 91 97 
f 67 94 97 
f 94 90 97 
f 68 75 98 
f 75 78 98 
f 84 68 98 
f 84 65 99 
f 65 86 99 
f 86 77 99 
f 71 68 100 
f 68 84 100 
f 99 77 100 
f 84 99 100 
f 83 70 101 
f 69 92 101 
f 92 83 101 
f 69 82 102 
f 95 69 102 
f 82 95 102 
f 79 71 103 
f 85 79 103 
f 89 85 103 
f 71 89 103 
f 76 89 104 
f 89 80 104 
f 93 76 104 
f 80 93 104 
f 70 78 105 
f 82 69 105 
f 78 82 105 
f 69 101 105 
f 101 70 105 
f 70 65 106 
f 78 70 106 
f 65 84 106 
f 78 75 107 
f 75 82 107 
f 82 78 107 
f 86 72 108 
f 81 86 108 
f 72 93 108 
f 87 71 109 
f 77 96 109 
f 71 100 109 
f 100 77 109 
f 98 78 110 
f 84 98 110 
f 78 106 110 
f 106 84 110 
f 67 73 111 
f 94 67 111 
f 73 94 111 
f 93 80 112 
f 96 81 112 
f 80 96 112 
f 81 108 112 
f 108 93 112 
f 71 87 113 
f 80 89 113 
f 89 71 113 
f 96 80 113 
f 87 109 113 
o convex_2
v -0.055543 -0.023941 -0.037555
v -0.034249 -0.004584 -0.000133
v -0.034249 -0.008455 -0.000133
v -0.034896 -0.024582 -0.034974
v -0.061350 -0.003940 -0.040784
v -0.056187 -0.015555 -0.013042
v -0.034249 -0.003937 -0.027879
v -0.034249 -0.029102 -0.018203
v -0.061350 -0.003940 -0.016268
v -0.047799 -0.014908 -0.043364
v -0.056187 -0.024585 -0.029169
v -0.034896 -0.020070 -0.005943
v -0.047799 -0.027809 -0.034974
v -0.056187 -0.003940 -0.009172
v -0.060703 -0.013619 -0.040139
v -0.053606 -0.018776 -0.043364
v -0.050380 -0.022005 -0.016268
v -0.037477 -0.003937 -0.031749
v -0.038767 -0.026523 -0.036264
v -0.038122 -0.017487 -0.038200
v -0.060703 -0.008457 -0.015627
v -0.054251 -0.009101 -0.043364
v -0.047799 -0.027809 -0.025939
v -0.034249 -0.029749 -0.023359
v -0.034896 -0.012972 -0.001427
v -0.034249 -0.003937 -0.000782
v -0.055543 -0.013619 -0.044659
v -0.034896 -0.026523 -0.013042
v -0.040058 -0.023938 -0.038849
v -0.050380 -0.024585 -0.039490
v -0.052317 -0.018776 -0.013042
v -0.057477 -0.018776 -0.042070
v -0.034249 -0.019420 -0.033039
v -0.054896 -0.013619 -0.011107
v -0.058121 -0.020711 -0.030455
v -0.051025 -0.008457 -0.042070
v -0.048444 -0.025873 -0.021433
v -0.054896 -0.021356 -0.019493
v -0.054896 -0.025873 -0.034329
v -0.053606 -0.005231 -0.007878
v -0.045221 -0.012975 -0.041429
v -0.057477 -0.015555 -0.014978
v -0.060058 -0.010393 -0.042719
v -0.058769 -0.004586 -0.041429
v -0.040058 -0.027811 -0.034974
v -0.056187 -0.024585 -0.034974
v -0.034896 -0.018776 -0.034974
v -0.060058 -0.007810 -0.013688
v -0.049736 -0.027809 -0.029169
v -0.039411 -0.017487 -0.005943
v -0.045868 -0.020067 -0.042070
v -0.034249 -0.020070 -0.005943
v -0.054251 -0.025873 -0.028519
v -0.044576 -0.024585 -0.039490
f 164 142 167 
f 115 116 120 
f 120 116 121 
f 122 118 128 
f 118 122 131 
f 122 128 134 
f 120 121 137 
f 132 117 137 
f 121 136 137 
f 115 120 139 
f 127 115 139 
f 122 127 139 
f 120 131 139 
f 131 122 139 
f 123 129 140 
f 135 123 140 
f 117 132 142 
f 133 117 142 
f 123 133 142 
f 141 125 144 
f 130 141 144 
f 140 129 145 
f 143 114 145 
f 129 143 145 
f 137 117 146 
f 120 137 146 
f 119 144 147 
f 124 134 148 
f 134 128 148 
f 123 135 149 
f 136 121 150 
f 121 141 150 
f 141 130 150 
f 144 119 151 
f 130 144 151 
f 150 130 151 
f 114 143 152 
f 143 126 152 
f 116 115 153 
f 115 127 153 
f 138 116 153 
f 127 147 153 
f 147 138 153 
f 133 123 154 
f 131 133 154 
f 149 131 154 
f 123 149 154 
f 134 124 155 
f 151 119 155 
f 124 151 155 
f 128 118 156 
f 118 140 156 
f 145 128 156 
f 140 145 156 
f 118 131 157 
f 140 118 157 
f 135 140 157 
f 131 149 157 
f 149 135 157 
f 132 137 158 
f 137 126 158 
f 126 143 158 
f 145 114 159 
f 128 145 159 
f 124 148 159 
f 148 128 159 
f 152 124 159 
f 114 152 159 
f 131 120 160 
f 117 133 160 
f 133 131 160 
f 146 117 160 
f 120 146 160 
f 127 122 161 
f 122 134 161 
f 119 147 161 
f 147 127 161 
f 155 119 161 
f 134 155 161 
f 126 137 162 
f 137 136 162 
f 152 126 162 
f 125 138 163 
f 144 125 163 
f 138 147 163 
f 147 144 163 
f 129 123 164 
f 123 142 164 
f 121 116 165 
f 116 138 165 
f 138 125 165 
f 141 121 165 
f 125 141 165 
f 136 150 166 
f 151 124 166 
f 150 151 166 
f 124 152 166 
f 162 136 166 
f 152 162 166 
f 142 132 167 
f 143 129 167 
f 132 158 167 
f 158 143 167 
f 129 164 167 
o convex_3
v -0.031025 0.003808 -0.005300
v -0.061350 -0.003937 -0.035618
v -0.061350 -0.002644 -0.036261
v -0.031025 0.019934 -0.056920
v -0.051670 0.032845 -0.053691
v -0.060703 0.007682 -0.016915
v -0.031670 -0.003937 -0.031099
v -0.031025 0.032197 -0.049819
v -0.054252 -0.003937 -0.007881
v -0.046507 0.016067 -0.020144
v -0.056188 0.018645 -0.054981
v -0.031025 -0.003937 0.001158
v -0.060703 0.013493 -0.042719
v -0.031025 0.021875 -0.028523
v -0.031025 0.032845 -0.056920
v -0.052317 0.025745 -0.037557
v -0.053608 0.004452 -0.009814
v -0.051670 0.032845 -0.056920
v -0.060059 0.005745 -0.045942
v -0.034897 -0.002000 -0.035618
v -0.060059 -0.002000 -0.012401
v -0.045219 0.028323 -0.040132
v -0.035541 0.018645 -0.056914
v -0.056188 0.024456 -0.041428
v -0.031025 -0.002644 -0.033043
v -0.054252 0.017356 -0.055623
v -0.041995 0.014775 -0.017563
v -0.032314 -0.002644 0.001158
v -0.061350 -0.003937 -0.020138
v -0.051670 0.016067 -0.021434
v -0.059415 0.015416 -0.027881
v -0.055541 -0.000063 -0.008529
v -0.048443 0.032845 -0.051110
v -0.032961 0.014134 -0.016920
v -0.056832 0.005100 -0.045300
v -0.054252 0.028323 -0.054981
v -0.052961 0.023808 -0.056920
v -0.031670 0.001226 -0.002071
v -0.061350 0.002519 -0.018853
v -0.056188 0.019293 -0.029814
v -0.055541 -0.003937 -0.035618
v -0.060703 0.007682 -0.045942
v -0.049090 0.004452 -0.008529
v -0.058123 0.018001 -0.050462
v -0.043930 0.027034 -0.037557
v -0.031025 0.006389 -0.043367
v -0.060059 0.003163 -0.013043
v -0.056188 0.025097 -0.047238
v -0.054252 0.016067 -0.054981
v -0.060059 0.014134 -0.027881
f 215 180 217 
f 168 171 175 
f 169 174 176 
f 171 168 179 
f 176 174 179 
f 168 175 181 
f 175 171 182 
f 182 171 185 
f 172 182 185 
f 183 172 191 
f 171 179 192 
f 179 174 192 
f 174 187 192 
f 176 179 195 
f 170 169 196 
f 169 176 196 
f 176 188 196 
f 173 184 197 
f 194 177 197 
f 188 176 199 
f 176 195 199 
f 195 184 199 
f 175 182 200 
f 182 172 200 
f 172 183 200 
f 189 175 200 
f 183 189 200 
f 168 181 201 
f 181 194 201 
f 169 186 202 
f 186 190 202 
f 190 187 202 
f 185 178 203 
f 185 171 204 
f 178 185 204 
f 171 190 204 
f 193 178 204 
f 190 193 204 
f 179 168 205 
f 195 179 205 
f 168 201 205 
f 201 194 205 
f 180 170 206 
f 173 180 206 
f 170 196 206 
f 196 188 206 
f 183 191 207 
f 173 197 207 
f 197 183 207 
f 198 173 207 
f 191 198 207 
f 174 169 208 
f 187 174 208 
f 169 202 208 
f 202 187 208 
f 169 170 209 
f 170 180 209 
f 186 169 209 
f 178 186 209 
f 184 195 210 
f 197 184 210 
f 194 197 210 
f 205 194 210 
f 195 205 210 
f 203 178 211 
f 180 203 211 
f 209 180 211 
f 178 209 211 
f 181 175 212 
f 175 189 212 
f 189 183 212 
f 194 181 212 
f 177 194 212 
f 183 197 212 
f 197 177 212 
f 190 171 213 
f 187 190 213 
f 171 192 213 
f 192 187 213 
f 184 173 214 
f 199 184 214 
f 188 199 214 
f 173 206 214 
f 206 188 214 
f 172 185 215 
f 191 172 215 
f 203 180 215 
f 185 203 215 
f 186 178 216 
f 190 186 216 
f 178 193 216 
f 193 190 216 
f 180 173 217 
f 173 198 217 
f 198 191 217 
f 191 215 217 
o convex_4
v 0.033507 -0.006515 -0.040138
v 0.028346 0.015420 0.001154
v 0.034799 0.017999 -0.024650
v 0.023829 0.011543 -0.038848
v 0.023829 -0.022649 0.001154
v 0.034799 -0.012971 0.001154
v 0.023829 0.015420 0.001154
v 0.023829 -0.009741 -0.034979
v 0.034799 -0.014261 -0.027880
v 0.034799 0.010900 0.001154
v 0.034799 0.013484 -0.039495
v 0.023829 0.016706 -0.029813
v 0.024475 -0.023292 -0.007881
v 0.028992 -0.022003 0.001154
v 0.023829 -0.002646 -0.040138
v 0.034799 -0.011035 -0.036912
v 0.034154 0.017999 -0.032396
v 0.034799 -0.015551 -0.005945
v 0.034799 0.015420 -0.007239
v 0.023829 0.015420 -0.034979
v 0.030281 0.017999 -0.025297
v 0.034799 0.012194 -0.040138
v 0.034799 -0.015551 -0.021424
v 0.024475 -0.011035 -0.033686
v 0.026411 -0.007162 -0.038848
v 0.023829 0.016706 -0.014333
v 0.023829 -0.023292 -0.007881
v 0.023829 0.003802 -0.040138
v 0.034799 -0.006515 -0.040138
v 0.033507 -0.011035 -0.036912
f 244 241 247 
f 219 222 223 
f 219 220 224 
f 221 222 224 
f 222 219 224 
f 222 221 225 
f 220 223 226 
f 219 223 227 
f 223 220 227 
f 220 226 228 
f 221 224 229 
f 223 222 231 
f 222 230 231 
f 225 221 232 
f 228 226 233 
f 226 230 233 
f 220 228 234 
f 226 223 235 
f 223 231 235 
f 220 219 236 
f 227 220 236 
f 219 227 236 
f 228 221 237 
f 221 229 237 
f 234 228 237 
f 229 234 237 
f 224 220 238 
f 220 234 238 
f 234 229 238 
f 221 228 239 
f 218 232 239 
f 228 233 239 
f 230 226 240 
f 231 230 240 
f 226 235 240 
f 235 231 240 
f 232 218 242 
f 225 232 242 
f 229 224 243 
f 224 238 243 
f 238 229 243 
f 222 225 244 
f 230 222 244 
f 233 230 244 
f 225 241 244 
f 232 221 245 
f 221 239 245 
f 239 232 245 
f 233 218 246 
f 218 239 246 
f 239 233 246 
f 218 233 247 
f 241 225 247 
f 242 218 247 
f 225 242 247 
f 233 244 247 
o convex_5
v 0.005761 -0.024584 0.049556
v 0.027055 -0.009100 0.050206
v 0.027055 -0.010391 0.050206
v 0.012860 -0.009746 0.081815
v 0.015444 -0.007167 0.049556
v 0.016729 -0.023294 0.050206
v 0.005761 -0.015553 0.049556
v 0.012860 -0.007812 0.079882
v 0.015444 -0.010391 0.080526
v 0.023825 -0.005873 0.049556
v 0.023825 -0.016841 0.049556
v 0.010923 -0.012327 0.078591
v 0.011571 -0.023938 0.053431
v 0.005761 -0.016841 0.059238
v 0.016081 -0.007812 0.079235
v 0.004470 -0.023294 0.050206
v 0.010277 -0.010391 0.076655
v 0.007697 -0.025232 0.050851
v 0.012860 -0.012327 0.079235
v 0.020602 -0.018778 0.053431
v 0.025764 -0.013618 0.050206
v 0.025119 -0.006521 0.050206
v 0.014151 -0.024584 0.049556
v 0.006406 -0.019422 0.060530
f 265 259 271 
f 252 248 254 
f 252 254 255 
f 249 250 257 
f 248 252 257 
f 252 255 257 
f 257 250 258 
f 248 257 258 
f 250 249 262 
f 255 251 262 
f 251 256 262 
f 256 250 262 
f 257 255 262 
f 254 248 263 
f 261 254 263 
f 255 254 264 
f 251 255 264 
f 259 251 264 
f 254 261 264 
f 261 259 264 
f 265 260 266 
f 256 251 266 
f 253 256 266 
f 251 259 266 
f 260 253 266 
f 259 265 266 
f 256 253 267 
f 253 258 267 
f 258 256 267 
f 250 256 268 
f 258 250 268 
f 256 258 268 
f 249 257 269 
f 262 249 269 
f 257 262 269 
f 248 258 270 
f 258 253 270 
f 253 260 270 
f 265 248 270 
f 260 265 270 
f 259 261 271 
f 263 248 271 
f 261 263 271 
f 248 265 271 
o convex_6
v 0.014796 0.020586 0.003741
v 0.032218 0.019941 0.028901
v 0.028989 0.022522 0.048264
v 0.025760 0.029619 0.010195
v 0.001243 0.018003 0.037291
v 0.018019 0.027037 0.050847
v 0.009636 0.027037 0.018585
v 0.027051 0.018003 0.009553
v 0.028343 0.018003 0.050847
v 0.031572 0.025746 0.008259
v 0.011570 0.018003 0.050847
v 0.007698 0.018003 0.013420
v 0.025760 0.026391 0.049553
v 0.021245 0.026391 0.001805
v 0.018662 0.029619 0.022461
v 0.019311 0.018003 0.003099
v 0.031572 0.018003 0.017291
v 0.007055 0.023811 0.016649
v 0.027051 0.023166 0.001805
v 0.013504 0.024456 0.050847
v 0.015442 0.027681 0.008906
v 0.008344 0.026391 0.021814
v 0.032218 0.025100 0.012778
v 0.023825 0.027037 0.050847
v 0.010927 0.025100 0.010195
v 0.027051 0.027681 0.003741
v 0.012216 0.028327 0.019879
v 0.001243 0.018649 0.032773
v 0.029631 0.027681 0.012778
v 0.021245 0.029619 0.010195
v 0.001243 0.018649 0.037291
v 0.030280 0.021876 0.006323
v 0.023825 0.029619 0.021814
v 0.018019 0.024456 0.001805
v 0.005764 0.021231 0.016649
v 0.030280 0.018003 0.043741
v 0.027051 0.025100 0.050847
v 0.027051 0.027681 0.032773
v 0.011570 0.022522 0.050847
v 0.032218 0.023166 0.009548
v 0.019311 0.022522 0.001158
v 0.014153 0.028327 0.028259
v 0.021891 0.027681 0.003099
f 305 292 314 
f 276 279 280 
f 276 280 282 
f 280 277 282 
f 279 276 283 
f 283 272 287 
f 279 283 287 
f 280 279 288 
f 282 277 291 
f 278 289 293 
f 291 277 293 
f 274 273 294 
f 277 280 295 
f 286 277 295 
f 289 278 296 
f 278 292 296 
f 275 281 297 
f 281 290 297 
f 290 285 297 
f 292 278 298 
f 278 293 298 
f 283 276 299 
f 293 289 299 
f 281 275 300 
f 294 281 300 
f 286 275 301 
f 298 286 301 
f 292 298 301 
f 276 282 302 
f 291 293 302 
f 299 276 302 
f 293 299 302 
f 279 287 303 
f 288 279 303 
f 290 281 303 
f 287 290 303 
f 275 286 304 
f 286 295 304 
f 272 296 305 
f 296 292 305 
f 272 283 306 
f 296 272 306 
f 289 296 306 
f 283 299 306 
f 299 289 306 
f 273 274 307 
f 274 280 307 
f 280 288 307 
f 288 273 307 
f 280 274 308 
f 274 294 308 
f 295 280 308 
f 284 295 308 
f 295 284 309 
f 300 275 309 
f 294 300 309 
f 275 304 309 
f 304 295 309 
f 308 294 309 
f 284 308 309 
f 282 291 310 
f 302 282 310 
f 291 302 310 
f 273 288 311 
f 294 273 311 
f 281 294 311 
f 288 303 311 
f 303 281 311 
f 287 272 312 
f 285 290 312 
f 290 287 312 
f 272 305 312 
f 305 285 312 
f 277 286 313 
f 293 277 313 
f 286 298 313 
f 298 293 313 
f 275 297 314 
f 297 285 314 
f 301 275 314 
f 292 301 314 
f 285 305 314 
o convex_7
v 0.012214 0.019295 0.068919
v 0.028991 0.024454 0.084396
v 0.028991 0.023808 0.084396
v 0.028343 0.021877 0.050847
v 0.016086 0.030910 0.086978
v 0.012859 0.024454 0.051499
v 0.023827 0.013486 0.050847
v 0.018670 0.019295 0.090850
v 0.023827 0.027035 0.050847
v 0.025116 0.030261 0.092787
v 0.012214 0.027681 0.092787
v 0.014796 0.014777 0.050847
v 0.027052 0.022519 0.092787
v 0.028343 0.016068 0.052788
v 0.014796 0.021231 0.092787
v 0.011568 0.018004 0.050847
v 0.016732 0.027035 0.052144
v 0.027052 0.025101 0.050847
v 0.017377 0.014133 0.057304
v 0.011568 0.027035 0.079235
v 0.026409 0.014133 0.052788
v 0.020600 0.030261 0.076653
v 0.011568 0.025101 0.089560
v 0.027700 0.027681 0.092787
v 0.021247 0.019295 0.089560
v 0.011568 0.022519 0.050847
v 0.016086 0.030910 0.092787
v 0.013507 0.028970 0.080524
v 0.013507 0.016068 0.057304
v 0.028991 0.022519 0.062469
v 0.021890 0.014133 0.057949
v 0.025116 0.030261 0.090850
v 0.012214 0.024454 0.052788
f 334 342 347 
f 318 321 323 
f 323 321 326 
f 324 325 327 
f 321 318 328 
f 317 327 328 
f 322 327 329 
f 327 325 329 
f 323 326 330 
f 323 320 331 
f 318 323 332 
f 326 321 333 
f 322 329 333 
f 321 328 335 
f 328 327 335 
f 331 319 336 
f 323 331 336 
f 315 329 337 
f 329 325 337 
f 330 315 337 
f 325 334 337 
f 334 330 337 
f 317 316 338 
f 327 317 338 
f 324 327 338 
f 327 322 339 
f 335 327 339 
f 320 323 340 
f 323 330 340 
f 330 334 340 
f 324 319 341 
f 325 324 341 
f 325 341 342 
f 319 331 342 
f 334 325 342 
f 341 319 342 
f 329 315 343 
f 315 330 343 
f 330 326 343 
f 326 333 343 
f 333 329 343 
f 316 317 344 
f 317 328 344 
f 328 318 344 
f 318 332 344 
f 338 316 344 
f 332 338 344 
f 333 321 345 
f 322 333 345 
f 321 335 345 
f 339 322 345 
f 335 339 345 
f 319 324 346 
f 332 323 346 
f 336 319 346 
f 323 336 346 
f 324 338 346 
f 338 332 346 
f 331 320 347 
f 320 340 347 
f 340 334 347 
f 342 331 347 
o convex_8
v 0.012213 0.027685 0.092791
v 0.027701 0.029617 0.129566
v 0.027701 0.028973 0.129566
v 0.013505 0.028973 0.135382
v 0.023829 0.021230 0.100537
v 0.022537 0.032197 0.096018
v 0.018021 0.036072 0.134089
v 0.017377 0.024458 0.134731
v 0.014795 0.021230 0.092791
v 0.027701 0.023812 0.092791
v 0.025117 0.034779 0.134089
v 0.025117 0.025750 0.134731
v 0.027701 0.027685 0.092791
v 0.016085 0.030909 0.092791
v 0.013505 0.032197 0.120536
v 0.021246 0.022521 0.121824
v 0.024473 0.035425 0.128282
v 0.018021 0.034135 0.110864
v 0.013505 0.023168 0.099891
v 0.027701 0.029617 0.102476
v 0.013505 0.032197 0.134731
v 0.025765 0.033490 0.135382
v 0.027055 0.022521 0.094088
v 0.018668 0.021230 0.106349
v 0.025765 0.030262 0.093442
v 0.023829 0.024458 0.133443
v 0.021246 0.035425 0.121178
v 0.016731 0.035425 0.126985
v 0.014795 0.026393 0.134731
v 0.027701 0.026393 0.119890
v 0.012213 0.025750 0.093442
v 0.027055 0.032197 0.121178
v 0.023829 0.021230 0.092791
v 0.014152 0.030909 0.101188
v 0.025765 0.027040 0.135382
v 0.024473 0.033490 0.109572
v 0.017377 0.035425 0.135382
v 0.019957 0.032197 0.094730
f 365 374 385 
f 349 350 357 
f 356 348 357 
f 349 357 360 
f 357 348 360 
f 360 348 361 
f 354 358 364 
f 349 360 367 
f 362 348 368 
f 350 349 369 
f 356 352 371 
f 355 356 371 
f 352 363 371 
f 363 355 371 
f 360 361 372 
f 367 360 372 
f 359 355 373 
f 363 352 373 
f 355 363 373 
f 352 370 373 
f 370 359 373 
f 354 364 374 
f 374 365 375 
f 365 361 375 
f 368 354 375 
f 362 368 375 
f 354 374 375 
f 355 351 376 
f 356 355 376 
f 351 366 376 
f 366 356 376 
f 357 350 377 
f 370 357 377 
f 359 370 377 
f 348 356 378 
f 366 351 378 
f 356 366 378 
f 368 348 378 
f 351 368 378 
f 364 358 379 
f 349 367 379 
f 369 349 379 
f 358 369 379 
f 352 356 380 
f 356 357 380 
f 370 352 380 
f 357 370 380 
f 361 348 381 
f 348 362 381 
f 375 361 381 
f 362 375 381 
f 351 355 382 
f 355 359 382 
f 350 369 382 
f 369 351 382 
f 377 350 382 
f 359 377 382 
f 372 353 383 
f 367 372 383 
f 353 374 383 
f 374 364 383 
f 364 379 383 
f 379 367 383 
f 358 354 384 
f 368 351 384 
f 354 368 384 
f 369 358 384 
f 351 369 384 
f 361 365 385 
f 353 372 385 
f 372 361 385 
f 374 353 385 
o convex_9
v -0.032309 -0.030391 -0.026588
v -0.005855 -0.007812 0.001156
v -0.011664 -0.007809 0.001153
v -0.010374 -0.030394 0.000509
v -0.034249 -0.007809 0.000509
v -0.013601 -0.007809 -0.023360
v -0.005855 -0.026520 -0.013683
v -0.034249 -0.007809 -0.025297
v -0.020052 -0.031683 -0.027231
v -0.034249 -0.026520 -0.012399
v -0.034249 -0.017490 -0.030456
v -0.005855 -0.007812 -0.018198
v -0.020697 -0.034912 -0.017554
v -0.005855 -0.029749 0.001156
v -0.017473 -0.026520 0.001153
v -0.019410 -0.034912 -0.023360
v -0.030374 -0.032975 -0.020779
v -0.033601 -0.018782 -0.004006
v -0.023921 -0.029102 -0.029169
v -0.017473 -0.007809 -0.025297
v -0.005855 -0.018137 -0.017554
v -0.005855 -0.030394 -0.006587
v -0.034249 -0.025231 -0.029812
v -0.032956 -0.010393 0.001153
v -0.020697 -0.031683 -0.009168
v -0.034249 -0.029749 -0.025297
v -0.026503 -0.032975 -0.026588
v -0.024568 -0.021360 -0.029169
v -0.019410 -0.027812 -0.027231
v -0.005855 -0.030394 0.000509
v -0.017473 -0.032328 -0.024650
v -0.025213 -0.034912 -0.023360
v -0.018118 -0.034912 -0.018198
v -0.034249 -0.029102 -0.016908
v -0.033601 -0.022005 -0.006587
v -0.005855 -0.022650 -0.016261
f 416 406 421 
f 390 388 391 
f 390 391 393 
f 390 393 395 
f 395 393 396 
f 388 387 397 
f 391 388 397 
f 387 392 397 
f 392 387 399 
f 389 399 400 
f 390 395 403 
f 393 391 405 
f 396 393 405 
f 397 392 406 
f 392 399 407 
f 395 396 408 
f 396 404 408 
f 387 388 409 
f 388 390 409 
f 399 387 409 
f 400 399 409 
f 390 403 409 
f 403 400 409 
f 398 389 410 
f 389 400 410 
f 400 395 410 
f 402 398 410 
f 386 402 411 
f 408 386 411 
f 395 408 411 
f 394 401 412 
f 404 394 412 
f 386 408 412 
f 408 404 412 
f 404 396 413 
f 396 405 413 
f 413 405 414 
f 391 397 414 
f 394 404 414 
f 405 391 414 
f 406 394 414 
f 397 406 414 
f 404 413 414 
f 389 398 415 
f 399 389 415 
f 407 399 415 
f 401 394 416 
f 394 406 416 
f 392 407 416 
f 407 401 416 
f 401 398 417 
f 402 386 417 
f 398 402 417 
f 412 401 417 
f 386 412 417 
f 398 401 418 
f 401 407 418 
f 415 398 418 
f 407 415 418 
f 410 395 419 
f 402 410 419 
f 411 402 419 
f 395 411 419 
f 395 400 420 
f 403 395 420 
f 400 403 420 
f 406 392 421 
f 392 416 421 
o convex_10
v -0.014891 -0.004583 -0.033043
v -0.005855 -0.003937 0.001158
v -0.032954 -0.003937 0.001158
v -0.005855 -0.007809 0.001158
v -0.034249 -0.007809 -0.025296
v -0.033601 -0.007809 0.001158
v -0.034249 -0.003937 -0.027878
v -0.005855 -0.007809 -0.019491
v -0.007148 -0.003937 -0.029167
v -0.018118 -0.007809 -0.025296
v -0.034249 -0.003937 -0.000134
v -0.009730 -0.005228 -0.031105
v -0.005855 -0.003937 -0.024004
v -0.012956 -0.003937 -0.033043
f 430 433 435 
f 423 424 425 
f 425 424 427 
f 426 425 427 
f 424 423 428 
f 422 426 428 
f 423 425 429 
f 425 426 429 
f 428 423 430 
f 426 422 431 
f 429 426 431 
f 427 424 432 
f 426 427 432 
f 424 428 432 
f 428 426 432 
f 430 429 433 
f 431 422 433 
f 429 431 433 
f 423 429 434 
f 430 423 434 
f 429 430 434 
f 422 428 435 
f 428 430 435 
f 433 422 435 
o convex_11
v -0.029730 0.033491 -0.054981
v -0.031021 -0.003937 -0.027881
v -0.031021 -0.002644 -0.032389
v -0.020699 -0.001354 -0.034328
v -0.020699 0.001874 0.001158
v -0.031021 -0.003937 0.001158
v -0.020697 0.027680 -0.056272
v -0.031021 0.019939 -0.056920
v -0.020697 0.021229 -0.024657
v -0.031021 0.023163 -0.030462
v -0.020699 -0.003937 0.001158
v -0.020699 0.005746 -0.045942
v -0.031021 0.000580 -0.000781
v -0.023925 0.031553 -0.052394
v -0.020699 -0.003937 -0.025300
v -0.031021 0.032842 -0.056920
v -0.027795 0.003163 -0.042719
v -0.023279 0.022518 -0.056920
v -0.029730 0.019939 -0.024663
v -0.031021 0.032197 -0.049819
v -0.020697 0.023163 -0.028523
v -0.023925 0.021229 -0.024663
v -0.023925 0.031553 -0.056920
v -0.021344 0.003163 -0.043367
v -0.031021 0.005098 -0.042071
v -0.021344 0.024456 -0.056920
v -0.025859 0.023163 -0.028523
v -0.021990 0.029618 -0.052394
v -0.021344 0.001874 0.001158
f 457 454 464 
f 437 438 439 
f 438 437 441 
f 438 441 443 
f 443 441 445 
f 441 437 446 
f 440 441 446 
f 444 440 446 
f 442 439 447 
f 445 441 448 
f 437 439 450 
f 439 442 450 
f 442 444 450 
f 446 437 450 
f 444 446 450 
f 443 445 451 
f 443 447 452 
f 447 443 453 
f 443 451 453 
f 445 448 454 
f 449 436 455 
f 436 451 455 
f 451 445 455 
f 444 442 456 
f 449 455 456 
f 436 449 458 
f 451 436 458 
f 453 451 458 
f 439 438 459 
f 447 439 459 
f 438 452 459 
f 452 447 459 
f 438 443 460 
f 452 438 460 
f 443 452 460 
f 442 447 461 
f 447 453 461 
f 458 442 461 
f 453 458 461 
f 445 454 462 
f 455 445 462 
f 444 456 462 
f 456 455 462 
f 457 444 462 
f 454 457 462 
f 456 442 463 
f 449 456 463 
f 458 449 463 
f 442 458 463 
f 441 440 464 
f 440 444 464 
f 448 441 464 
f 454 448 464 
f 444 457 464 
o convex_12
v 0.022536 0.006385 -0.040142
v -0.005855 -0.003286 -0.027882
v -0.005855 -0.003286 -0.024654
v -0.001982 0.021230 -0.024654
v 0.023829 -0.014260 -0.024654
v 0.023829 0.016711 -0.024654
v -0.005855 0.017356 -0.039496
v 0.009632 -0.003286 -0.039496
v 0.023829 0.015419 -0.034978
v 0.007700 -0.015553 -0.025300
v 0.023829 -0.005871 -0.038849
v -0.005855 0.010259 -0.040142
v -0.005855 0.019293 -0.024654
v 0.023829 0.011548 -0.038849
v -0.000692 0.019293 -0.034978
v 0.003826 -0.002641 -0.036913
v 0.019953 -0.009097 -0.035623
v 0.023829 -0.002641 -0.040142
v 0.016730 0.018648 -0.025300
v -0.000692 0.015419 -0.040142
v -0.005855 -0.002641 -0.029174
v 0.014147 -0.015553 -0.024654
v 0.023829 -0.009097 -0.035623
v 0.001243 0.021230 -0.025300
v -0.005855 0.019293 -0.034334
v 0.009632 -0.001997 -0.040142
v -0.000692 0.016711 -0.039496
v 0.008987 -0.003934 -0.038849
f 472 481 492 
f 468 467 469 
f 468 469 470 
f 466 467 471 
f 470 469 473 
f 467 466 474 
f 473 469 475 
f 466 471 476 
f 467 468 477 
f 471 467 477 
f 473 475 478 
f 472 475 481 
f 476 465 482 
f 465 478 482 
f 478 475 482 
f 468 470 483 
f 470 473 483 
f 476 471 484 
f 465 476 484 
f 478 465 484 
f 474 466 485 
f 466 476 485 
f 480 474 485 
f 476 480 485 
f 469 467 486 
f 467 474 486 
f 475 469 487 
f 474 481 487 
f 481 475 487 
f 469 486 487 
f 486 474 487 
f 473 479 488 
f 468 483 488 
f 483 473 488 
f 477 468 489 
f 471 477 489 
f 479 471 489 
f 468 488 489 
f 488 479 489 
f 475 472 490 
f 472 476 490 
f 482 475 490 
f 476 482 490 
f 473 478 491 
f 471 479 491 
f 479 473 491 
f 484 471 491 
f 478 484 491 
f 476 472 492 
f 474 480 492 
f 480 476 492 
f 481 474 492 
o convex_13
v 0.005763 -0.036198 0.032780
v 0.022536 -0.002646 0.040521
v 0.030923 -0.002650 0.041163
v 0.030923 -0.002650 0.018581
v -0.014890 -0.003939 0.040521
v -0.008433 -0.018140 0.018581
v 0.017371 -0.023296 0.049556
v 0.027697 -0.020711 0.018581
v -0.011659 -0.012332 0.048910
v -0.004563 -0.002646 0.018581
v -0.003915 -0.031039 0.018581
v 0.024471 -0.005877 0.049556
v -0.007785 -0.028458 0.032137
v 0.007697 -0.025877 0.049556
v 0.030280 -0.013617 0.038583
v 0.015436 -0.032328 0.026325
v -0.013593 -0.002646 0.042452
v 0.034154 -0.005877 0.031488
v 0.003180 -0.032971 0.018581
v 0.014145 -0.031682 0.038583
v -0.003915 -0.022650 0.046973
v 0.027054 -0.011039 0.049556
v -0.011015 -0.005874 0.048261
v 0.023179 -0.023938 0.036649
v 0.004471 -0.036848 0.026325
v -0.008433 -0.027162 0.026974
v -0.014242 -0.009747 0.046324
v -0.010367 -0.010393 0.049556
v 0.025762 -0.016198 0.047618
v 0.034154 -0.002650 0.036000
v -0.003915 -0.032971 0.027616
v -0.008433 -0.013617 0.018581
v 0.008345 -0.036848 0.031488
v 0.010919 -0.034263 0.024390
v 0.030923 -0.010393 0.018581
v 0.018662 -0.029744 0.030843
v -0.011015 -0.014913 0.048261
v 0.010919 -0.031682 0.041163
v -0.002629 -0.032328 0.032137
v -0.013593 -0.002646 0.037295
v 0.028345 -0.020065 0.019227
v -0.005850 -0.003939 0.018581
v -0.014890 -0.007166 0.042452
v 0.028988 -0.011039 0.046324
v -0.006498 -0.029101 0.021164
v 0.027054 -0.018780 0.037937
v 0.025119 -0.022646 0.018581
v -0.007141 -0.016198 0.049556
v 0.023179 -0.019426 0.046973
v 0.007054 -0.032328 0.039872
v 0.027054 -0.008458 0.049556
v 0.000602 -0.034909 0.023099
v -0.011659 -0.005231 0.047618
v 0.030280 -0.014263 0.037295
v 0.034154 -0.005231 0.034711
v 0.004471 -0.036848 0.030200
v 0.034154 -0.002650 0.030843
f 510 527 549 
f 498 496 500 
f 494 496 502 
f 496 498 502 
f 498 500 503 
f 499 504 506 
f 495 494 509 
f 494 502 509 
f 504 495 509 
f 503 500 511 
f 504 499 514 
f 518 505 519 
f 509 497 519 
f 506 504 520 
f 515 501 520 
f 504 515 520 
f 514 499 521 
f 494 495 522 
f 498 497 524 
f 502 498 524 
f 525 517 526 
f 517 511 526 
f 508 525 526 
f 500 496 527 
f 508 500 528 
f 516 512 528 
f 512 525 528 
f 525 508 528 
f 505 513 529 
f 519 505 529 
f 501 519 529 
f 499 506 530 
f 512 499 530 
f 493 525 530 
f 525 512 530 
f 513 505 531 
f 493 513 531 
f 505 523 531 
f 497 509 532 
f 509 502 532 
f 524 497 532 
f 500 527 533 
f 527 510 533 
f 528 500 533 
f 516 528 533 
f 502 524 534 
f 532 502 534 
f 524 532 534 
f 497 498 535 
f 498 518 535 
f 518 519 535 
f 519 497 535 
f 514 521 536 
f 521 507 536 
f 498 503 537 
f 518 498 537 
f 505 518 537 
f 523 505 537 
f 503 523 537 
f 521 516 538 
f 516 533 538 
f 500 508 539 
f 511 500 539 
f 508 526 539 
f 526 511 539 
f 513 506 540 
f 506 520 540 
f 520 501 540 
f 501 529 540 
f 529 513 540 
f 499 512 541 
f 512 516 541 
f 521 499 541 
f 516 521 541 
f 513 493 542 
f 506 513 542 
f 493 530 542 
f 530 506 542 
f 495 504 543 
f 504 514 543 
f 522 495 543 
f 514 536 543 
f 536 522 543 
f 503 511 544 
f 511 517 544 
f 517 523 544 
f 523 503 544 
f 504 509 545 
f 501 515 545 
f 515 504 545 
f 519 501 545 
f 509 519 545 
f 507 521 546 
f 533 510 546 
f 521 538 546 
f 538 533 546 
f 510 522 547 
f 536 507 547 
f 522 536 547 
f 507 546 547 
f 546 510 547 
f 523 517 548 
f 525 493 548 
f 517 525 548 
f 493 531 548 
f 531 523 548 
f 496 494 549 
f 494 522 549 
f 522 510 549 
f 527 496 549 
o convex_14
v 0.009632 0.009614 0.038583
v -0.004559 -0.002646 0.018581
v -0.013594 -0.002646 0.037294
v 0.033504 -0.002646 0.037940
v 0.026408 0.009614 0.019229
v -0.003269 0.009614 0.018581
v 0.030279 -0.002646 0.018581
v -0.008434 0.009614 0.040518
v 0.005117 -0.002646 0.041812
v 0.031569 0.002518 0.039229
v -0.013594 -0.002646 0.041812
v 0.027698 0.009614 0.025037
v 0.034149 -0.001354 0.032130
v -0.008434 0.009614 0.029553
v 0.030924 -0.002001 0.040521
v 0.001247 0.009614 0.040518
v 0.017368 0.009614 0.036002
v -0.004559 0.007033 0.018581
v 0.025114 0.009614 0.018581
v 0.027698 0.009614 0.021164
v -0.009724 0.008322 0.039227
v 0.031569 0.003164 0.038583
f 562 569 571 
f 552 551 553 
f 550 554 555 
f 553 551 556 
f 551 555 556 
f 550 555 557 
f 552 553 558 
f 552 558 560 
f 558 557 560 
f 554 550 561 
f 553 556 562 
f 557 555 563 
f 558 553 564 
f 553 559 564 
f 564 559 565 
f 550 557 565 
f 557 558 565 
f 559 550 565 
f 558 564 565 
f 561 550 566 
f 551 552 567 
f 555 551 567 
f 552 563 567 
f 563 555 567 
f 555 554 568 
f 554 556 568 
f 556 555 568 
f 556 554 569 
f 554 561 569 
f 562 556 569 
f 552 560 570 
f 560 557 570 
f 563 552 570 
f 557 563 570 
f 550 559 571 
f 559 553 571 
f 553 562 571 
f 566 550 571 
f 561 566 571 
f 569 561 571 
o convex_15
v -0.000691 0.013488 0.010841
v 0.009630 0.011551 0.037937
v 0.008985 0.010260 0.038579
v -0.008435 0.010905 0.039871
v 0.002532 0.018003 0.039871
v 0.009630 0.009614 0.001162
v 0.009630 0.018003 0.012775
v -0.001982 0.009614 0.003100
v -0.000691 0.018003 0.034064
v -0.008435 0.009614 0.040517
v 0.006403 0.014775 0.001162
v 0.009630 0.018003 0.035356
v -0.008435 0.010260 0.030192
v 0.009630 0.009614 0.037937
v 0.009630 0.015422 0.001162
v -0.001982 0.015422 0.041163
v 0.007049 0.018003 0.014714
v -0.003273 0.010905 0.008261
v -0.001982 0.016713 0.030192
v 0.001887 0.009614 0.040517
v 0.004469 0.018003 0.039871
v -0.000046 0.009614 0.001162
v -0.000691 0.011551 0.003100
f 593 579 594 
f 573 577 578 
f 576 578 580 
f 579 577 581 
f 578 576 583 
f 573 578 583 
f 581 575 584 
f 579 581 584 
f 573 574 585 
f 577 573 585 
f 581 577 585 
f 578 577 586 
f 577 582 586 
f 580 575 587 
f 576 580 587 
f 575 581 587 
f 580 578 588 
f 582 572 588 
f 578 586 588 
f 586 582 588 
f 579 584 589 
f 589 584 590 
f 575 580 590 
f 584 575 590 
f 588 572 590 
f 580 588 590 
f 572 589 590 
f 585 574 591 
f 581 585 591 
f 587 581 591 
f 587 591 592 
f 574 573 592 
f 573 583 592 
f 583 576 592 
f 576 587 592 
f 591 574 592 
f 577 579 593 
f 582 577 593 
f 582 593 594 
f 572 582 594 
f 589 572 594 
f 579 589 594 
o convex_16
v 0.017379 0.018003 0.003741
v 0.035444 0.010260 0.001805
v 0.035444 0.009614 0.001805
v 0.028344 0.016067 0.050847
v 0.009632 0.009614 0.037938
v 0.009632 0.009614 0.001158
v 0.011570 0.018003 0.048901
v 0.031570 0.018003 0.017296
v 0.026409 0.009614 0.037938
v 0.009632 0.016067 0.001158
v 0.019956 0.012842 0.050847
v 0.030282 0.018003 0.043745
v 0.027700 0.015422 0.001158
v 0.009632 0.018003 0.037291
v 0.009632 0.018003 0.011489
v 0.012217 0.018003 0.050847
v 0.028344 0.018003 0.050847
v 0.021247 0.017358 0.001158
v 0.029635 0.010905 0.032126
v 0.024471 0.010905 0.044387
v 0.014796 0.014775 0.050847
v 0.031570 0.018003 0.031484
v 0.031570 0.013488 0.001158
v 0.026409 0.014130 0.050847
v 0.030282 0.014130 0.038580
v 0.013505 0.017358 0.001158
f 612 604 620 
f 597 599 600 
f 595 601 602 
f 599 597 603 
f 600 599 604 
f 597 596 606 
f 602 601 606 
f 600 604 607 
f 601 595 608 
f 599 601 608 
f 604 599 608 
f 604 608 609 
f 608 595 609 
f 601 599 610 
f 605 598 610 
f 606 601 610 
f 606 610 611 
f 598 606 611 
f 610 598 611 
f 595 602 612 
f 602 607 612 
f 607 604 612 
f 603 597 613 
f 598 603 613 
f 599 603 614 
f 605 599 614 
f 599 605 615 
f 610 599 615 
f 605 610 615 
f 596 602 616 
f 606 596 616 
f 602 606 616 
f 596 597 617 
f 597 600 617 
f 602 596 617 
f 600 607 617 
f 607 602 617 
f 603 598 618 
f 598 605 618 
f 614 603 618 
f 605 614 618 
f 597 606 619 
f 606 598 619 
f 613 597 619 
f 598 613 619 
f 604 609 620 
f 609 595 620 
f 595 612 620 
o convex_17
v -0.018759 0.004451 -0.044013
v -0.005855 0.005096 0.001158
v -0.005855 -0.003937 0.001158
v -0.020697 -0.003937 0.001158
v -0.006502 -0.003937 -0.029168
v -0.020697 0.005096 -0.007233
v -0.005855 0.005743 -0.034976
v -0.020697 -0.003937 -0.025298
v -0.020697 0.005743 -0.044659
v -0.014889 -0.003937 -0.033680
v -0.018759 0.003806 0.001158
v -0.020697 0.005743 -0.011749
v -0.008437 -0.002000 -0.033680
v -0.019406 -0.002646 -0.034330
v -0.005855 0.005743 -0.009816
v -0.005855 -0.002646 -0.030455
v -0.015534 0.005096 -0.042721
v -0.020697 0.001870 0.001158
v -0.020697 0.003161 -0.042721
v -0.010375 -0.003937 -0.033043
f 633 636 640 
f 623 622 624 
f 623 624 625 
f 622 623 627 
f 625 624 628 
f 624 626 628 
f 628 626 629 
f 625 628 630 
f 624 622 631 
f 622 626 631 
f 626 622 632 
f 629 626 632 
f 627 629 632 
f 630 628 634 
f 622 627 635 
f 632 622 635 
f 627 632 635 
f 623 625 636 
f 627 623 636 
f 633 627 636 
f 621 629 637 
f 629 627 637 
f 633 621 637 
f 627 633 637 
f 626 624 638 
f 624 631 638 
f 631 626 638 
f 628 629 639 
f 629 621 639 
f 621 630 639 
f 634 628 639 
f 630 634 639 
f 630 621 640 
f 625 630 640 
f 621 633 640 
f 636 625 640 
o convex_18
v -0.014889 0.024456 -0.035619
v -0.020697 0.005743 -0.045945
v -0.020697 0.009615 -0.047879
v -0.005855 0.013489 -0.042076
v -0.020697 0.005743 -0.012396
v -0.005855 0.005743 -0.010458
v -0.005855 0.018001 -0.014330
v -0.020697 0.021874 -0.025947
v -0.020697 0.023810 -0.047879
v -0.005855 0.005743 -0.034979
v -0.006502 0.017356 -0.043363
v -0.011664 0.010906 -0.047879
v -0.020697 0.017356 -0.019493
v -0.005855 0.019293 -0.035619
v -0.020051 0.021874 -0.049821
v -0.006502 0.016065 -0.012396
v -0.020697 0.024456 -0.034328
v -0.016178 0.005743 -0.045945
v -0.013597 0.023810 -0.038204
v -0.008437 0.021229 -0.027881
v -0.008437 0.010260 -0.044658
v -0.020051 0.024456 -0.046592
v -0.009729 0.015422 -0.046592
v -0.016823 0.023165 -0.029172
v -0.020697 0.006389 -0.012396
v -0.012955 0.007679 -0.046592
f 652 661 666 
f 643 642 645 
f 645 642 646 
f 646 644 647 
f 643 645 648 
f 643 648 649 
f 646 642 650 
f 644 646 650 
f 648 645 653 
f 647 648 653 
f 647 644 654 
f 644 651 654 
f 643 649 655 
f 652 643 655 
f 646 647 656 
f 647 653 656 
f 649 648 657 
f 642 643 658 
f 650 642 658 
f 654 651 659 
f 654 659 660 
f 641 647 660 
f 647 654 660 
f 659 641 660 
f 644 650 661 
f 651 644 661 
f 655 649 662 
f 651 655 662 
f 657 641 662 
f 649 657 662 
f 641 659 662 
f 659 651 662 
f 655 651 663 
f 652 655 663 
f 651 661 663 
f 661 652 663 
f 647 641 664 
f 648 647 664 
f 641 657 664 
f 657 648 664 
f 645 646 665 
f 653 645 665 
f 646 656 665 
f 656 653 665 
f 643 652 666 
f 658 643 666 
f 650 658 666 
f 661 650 666 
o convex_19
v 0.003828 0.021230 -0.022071
v -0.005853 -0.028456 -0.009814
v 0.008343 -0.029745 -0.017555
v 0.023829 0.015418 -0.009167
v 0.023829 -0.014258 -0.024654
v 0.023829 -0.023294 -0.009167
v -0.005853 -0.003938 -0.024654
v -0.005853 0.016712 -0.012395
v 0.023829 0.016707 -0.024654
v -0.005853 0.019291 -0.024654
v -0.005853 0.003803 -0.009167
v 0.006405 -0.026522 -0.021427
v 0.016731 -0.030390 -0.009167
v -0.001980 0.021230 -0.017555
v -0.005853 -0.025228 -0.014332
v 0.007698 -0.016197 -0.024654
v 0.019311 -0.027811 -0.013039
v 0.011565 -0.027811 -0.020137
v -0.005853 -0.028456 -0.009167
v 0.023829 0.016707 -0.014332
v 0.008343 -0.031040 -0.009167
v -0.001980 0.021230 -0.024654
v 0.003183 -0.023938 -0.021427
v 0.012855 0.012839 -0.009167
v -0.003918 0.019291 -0.014332
v 0.017376 0.018646 -0.024654
v 0.001245 0.021230 -0.017555
v 0.013503 -0.029745 -0.016266
v 0.003183 -0.016842 -0.024007
v 0.009630 -0.031040 -0.013039
v -0.004560 0.016067 -0.011750
v 0.005760 -0.027811 -0.020137
v -0.005853 0.019291 -0.016266
v -0.005853 -0.022004 -0.016266
v 0.022536 -0.025228 -0.010459
f 679 683 701 
f 671 670 672 
f 673 668 674 
f 670 671 675 
f 671 673 675 
f 675 673 676 
f 673 674 676 
f 672 670 677 
f 674 668 677 
f 672 677 679 
f 668 673 681 
f 673 671 682 
f 671 678 682 
f 678 671 684 
f 677 668 685 
f 679 677 685 
f 670 675 686 
f 685 668 687 
f 679 685 687 
f 675 676 688 
f 680 667 688 
f 676 680 688 
f 677 670 690 
f 667 686 692 
f 686 675 692 
f 688 667 692 
f 675 688 692 
f 667 680 693 
f 686 667 693 
f 670 686 693 
f 691 670 693 
f 680 691 693 
f 671 683 694 
f 683 679 694 
f 669 684 694 
f 684 671 694 
f 673 682 695 
f 682 678 695 
f 689 673 695 
f 678 689 695 
f 668 669 696 
f 687 668 696 
f 679 687 696 
f 694 679 696 
f 669 694 696 
f 674 677 697 
f 690 670 697 
f 677 690 697 
f 670 691 697 
f 691 674 697 
f 669 668 698 
f 668 681 698 
f 684 669 698 
f 678 684 698 
f 681 689 698 
f 689 678 698 
f 676 674 699 
f 680 676 699 
f 674 691 699 
f 691 680 699 
f 681 673 700 
f 673 689 700 
f 689 681 700 
f 671 672 701 
f 672 679 701 
f 683 671 701 
o convex_20
v 0.022536 0.016709 0.001157
v -0.005855 -0.030391 -0.005940
v 0.008342 -0.031040 -0.009166
v -0.005855 0.003160 -0.009166
v 0.023829 0.015416 -0.009166
v 0.023829 -0.022650 0.001157
v -0.005855 0.005093 0.001157
v -0.005855 -0.029747 0.001157
v 0.023829 -0.023938 -0.009166
v 0.013502 0.017358 -0.002069
v 0.014147 -0.031040 -0.004005
v -0.005855 -0.029102 -0.009166
v 0.004474 0.013483 0.001157
v 0.012854 0.013483 -0.009166
v 0.023829 0.015416 0.001157
v 0.018665 -0.029747 -0.009166
v 0.014147 -0.027809 0.001157
v -0.005207 -0.030391 0.000511
v 0.020598 -0.028458 -0.006584
v 0.013502 0.017358 0.001157
v 0.010922 0.016065 -0.002714
v 0.015437 0.017358 -0.004005
v 0.020598 0.017358 -0.002714
f 723 721 724 
f 704 705 706 
f 707 702 708 
f 705 703 708 
f 707 708 709 
f 708 703 709 
f 704 706 710 
f 706 707 710 
f 704 703 713 
f 705 704 713 
f 703 705 713 
f 708 702 714 
f 705 708 714 
f 706 705 715 
f 706 702 716 
f 707 706 716 
f 702 707 716 
f 704 710 717 
f 712 704 717 
f 707 709 718 
f 712 707 718 
f 712 718 719 
f 703 704 719 
f 709 703 719 
f 704 712 719 
f 718 709 719 
f 710 707 720 
f 707 712 720 
f 717 710 720 
f 712 717 720 
f 714 702 721 
f 711 714 721 
f 705 714 722 
f 714 711 722 
f 715 705 722 
f 715 722 723 
f 706 715 723 
f 711 721 723 
f 722 711 723 
f 702 706 724 
f 721 702 724 
f 706 723 724 
