o convex_0
v 0.002544 0.015610 0.026170
v -0.000566 -0.013569 0.002051
v 0.002154 -0.013569 0.002051
v -0.001734 -0.008899 0.032785
v -0.014185 0.004325 0.002051
v 0.013437 0.002380 0.002051
v -0.014185 -0.001504 0.032785
v 0.011490 -0.001896 0.032785
v 0.002544 0.014442 0.002051
v -0.009515 0.012494 0.032785
v -0.009905 -0.010064 0.002051
v 0.008378 0.010551 0.032785
v 0.009157 -0.009673 0.011780
v -0.003678 0.014442 0.002051
v 0.013048 -0.005786 0.002051
v 0.005656 -0.008510 0.032785
v -0.014185 -0.005009 0.002051
v -0.014185 0.006659 0.032785
v 0.011101 0.007827 0.002051
v -0.003291 0.015610 0.032785
v -0.011070 0.009383 0.002051
v 0.013048 0.002380 0.020725
v -0.010683 -0.008507 0.014112
v -0.002513 -0.013177 0.007114
v -0.007569 -0.006954 0.032785
v 0.004877 0.014053 0.005556
v 0.005266 0.014053 0.032785
v 0.002933 -0.011621 0.018390
v 0.009544 -0.006565 0.028113
v 0.011490 0.003937 0.032785
v -0.008347 0.012105 0.002051
v 0.013437 0.000438 0.018390
v 0.009544 0.009383 0.030451
v -0.013017 -0.004617 0.025779
v -0.012627 0.009383 0.032006
v 0.013048 0.003937 0.007114
v 0.008378 -0.010455 0.009837
v -0.006403 0.014053 0.024226
v -0.010683 -0.005397 0.032394
v 0.002933 0.015610 0.032785
v 0.013048 -0.005786 0.003998
v 0.001765 -0.011621 0.019557
v 0.002544 -0.013177 0.007887
v -0.000566 0.015610 0.023835
v -0.010683 0.011325 0.026555
v 0.005656 -0.011621 0.011780
v -0.007958 -0.010064 0.012945
v -0.013796 -0.005786 0.002442
v 0.004877 -0.012400 0.004386
v 0.006432 0.012497 0.002051
v 0.011101 -0.003449 0.031227
v 0.013048 -0.003061 0.015279
v 0.004488 -0.008899 0.032785
v 0.007989 -0.006954 0.032785
v -0.013796 -0.003841 0.024611
v 0.007600 -0.008510 0.026555
v 0.011101 -0.006565 0.016838
v 0.011490 0.005493 0.027334
v 0.011101 0.007827 0.008667
v 0.006821 0.012497 0.027722
v -0.002902 -0.013177 0.002051
v -0.012627 -0.006174 0.017226
v -0.000182 -0.010064 0.027722
v -0.003291 -0.008510 0.032785
f 4 25 64 
f 3 2 5 
f 3 5 6 
f 7 4 8 
f 6 5 9 
f 7 8 10 
f 5 2 11 
f 10 8 12 
f 9 5 14 
f 3 6 15 
f 8 4 16 
f 7 5 17 
f 5 11 17 
f 5 7 18 
f 7 10 18 
f 6 9 19 
f 10 12 20 
f 14 5 21 
f 4 7 25 
f 9 1 26 
f 20 12 27 
f 12 8 30 
f 14 21 31 
f 15 6 32 
f 6 22 32 
f 30 8 32 
f 22 30 32 
f 27 12 33 
f 12 30 33 
f 5 18 35 
f 18 10 35 
f 21 5 35 
f 6 19 36 
f 22 6 36 
f 10 20 38 
f 20 14 38 
f 31 10 38 
f 14 31 38 
f 23 25 39 
f 25 7 39 
f 7 34 39 
f 34 23 39 
f 1 20 40 
f 26 1 40 
f 27 26 40 
f 20 27 40 
f 15 32 41 
f 37 15 41 
f 13 37 41 
f 28 42 43 
f 2 3 43 
f 24 2 43 
f 42 24 43 
f 1 9 44 
f 9 14 44 
f 20 1 44 
f 14 20 44 
f 10 31 45 
f 31 21 45 
f 35 10 45 
f 21 35 45 
f 16 28 46 
f 28 43 46 
f 23 11 47 
f 11 24 47 
f 25 23 47 
f 24 25 47 
f 17 11 48 
f 11 23 48 
f 3 15 49 
f 15 37 49 
f 43 3 49 
f 37 46 49 
f 46 43 49 
f 19 9 50 
f 9 26 50 
f 51 41 52 
f 32 8 52 
f 41 32 52 
f 8 51 52 
f 16 4 53 
f 28 16 53 
f 42 28 53 
f 8 16 54 
f 51 8 54 
f 29 51 54 
f 7 17 55 
f 34 7 55 
f 17 48 55 
f 13 29 56 
f 37 13 56 
f 16 46 56 
f 46 37 56 
f 54 16 56 
f 29 54 56 
f 29 13 57 
f 13 41 57 
f 51 29 57 
f 41 51 57 
f 30 22 58 
f 33 30 58 
f 22 36 58 
f 36 33 58 
f 36 19 59 
f 33 36 59 
f 26 27 60 
f 27 33 60 
f 19 50 60 
f 50 26 60 
f 59 19 60 
f 33 59 60 
f 11 2 61 
f 2 24 61 
f 24 11 61 
f 23 34 62 
f 48 23 62 
f 34 55 62 
f 55 48 62 
f 4 24 63 
f 24 42 63 
f 53 4 63 
f 42 53 63 
f 24 4 64 
f 25 24 64 
o convex_1
v -0.016130 0.003551 0.044850
v 0.011492 0.003162 0.044068
v 0.011492 0.001216 0.044068
v 0.009545 0.005492 0.060797
v 0.002932 0.015606 0.032785
v -0.001738 -0.008900 0.032785
v -0.000570 -0.006955 0.060797
v -0.009127 0.014050 0.060407
v -0.012626 0.009382 0.032785
v -0.014962 0.000829 0.060797
v 0.009935 -0.004620 0.032785
v 0.003710 0.015219 0.060407
v -0.011071 -0.005007 0.032785
v 0.007212 -0.004620 0.059626
v 0.008377 0.010549 0.032785
v -0.004458 0.015606 0.035514
v -0.013794 0.011328 0.059626
v 0.004100 -0.008900 0.034346
v -0.001738 0.016777 0.060407
v -0.006402 -0.005396 0.059626
v -0.014183 -0.001506 0.032785
v 0.008377 0.010549 0.053404
v 0.011492 0.003938 0.032785
v 0.009545 -0.001116 0.060407
v 0.004878 0.015219 0.044460
v -0.015738 0.007827 0.060018
v -0.007959 0.013663 0.033175
v -0.013794 -0.001116 0.059236
v -0.014183 0.007437 0.033956
v 0.001764 -0.007342 0.059236
v -0.006012 0.015606 0.044460
v 0.000209 0.016385 0.060797
v 0.000598 0.016777 0.049900
v 0.007988 -0.006952 0.032785
v -0.012239 0.012497 0.053404
v 0.011492 -0.001508 0.033953
v -0.016130 0.002775 0.059236
v -0.015738 0.007437 0.049511
v -0.012626 0.010938 0.040959
v 0.006822 0.012104 0.060018
v -0.007181 -0.006955 0.033956
v -0.013405 0.010938 0.060797
v 0.004489 -0.006952 0.054567
v 0.009935 0.005492 0.060018
v -0.012239 -0.002282 0.060018
v 0.000985 -0.008900 0.040570
v -0.000570 -0.007342 0.059236
v -0.003290 0.015606 0.032785
v 0.009156 -0.004230 0.046791
v -0.013794 -0.002282 0.039015
v -0.001738 0.016777 0.049511
v 0.006822 -0.004230 0.060797
v -0.006012 0.015606 0.060018
v 0.009935 0.007047 0.053012
v 0.005265 0.014052 0.032785
v -0.015351 0.000829 0.060018
v 0.009935 0.000440 0.060407
v -0.016130 0.006660 0.059626
v -0.015738 0.001606 0.044460
v 0.011492 -0.001119 0.038234
v -0.014183 0.006660 0.032785
v -0.002900 -0.008508 0.034346
v 0.000209 0.016777 0.060407
v -0.013794 0.010938 0.052234
f 99 103 128 
f 69 70 73 
f 71 68 74 
f 70 69 75 
f 73 70 77 
f 75 69 79 
f 73 77 85 
f 79 86 87 
f 66 67 87 
f 75 79 87 
f 86 79 89 
f 80 91 95 
f 74 68 96 
f 68 76 96 
f 83 72 96 
f 89 69 97 
f 70 75 98 
f 82 70 98 
f 81 72 99 
f 95 91 99 
f 87 67 100 
f 75 87 100 
f 90 81 102 
f 93 65 102 
f 91 73 103 
f 73 93 103 
f 99 91 103 
f 76 68 104 
f 89 76 104 
f 86 89 104 
f 77 70 105 
f 84 77 105 
f 72 81 106 
f 90 74 106 
f 81 90 106 
f 74 96 106 
f 96 72 106 
f 78 94 107 
f 94 82 107 
f 98 78 107 
f 82 98 107 
f 104 68 108 
f 86 104 108 
f 71 74 109 
f 84 71 109 
f 77 84 109 
f 92 77 109 
f 70 82 110 
f 82 94 110 
f 110 94 111 
f 71 84 111 
f 94 71 111 
f 70 110 111 
f 69 73 112 
f 73 91 112 
f 91 80 112 
f 88 78 113 
f 98 75 113 
f 78 98 113 
f 85 77 114 
f 77 92 114 
f 95 83 115 
f 80 95 115 
f 97 69 115 
f 83 97 115 
f 69 112 115 
f 112 80 115 
f 68 71 116 
f 88 68 116 
f 78 88 116 
f 71 94 116 
f 94 78 116 
f 72 83 117 
f 83 95 117 
f 99 72 117 
f 95 99 117 
f 87 86 118 
f 66 87 118 
f 108 66 118 
f 86 108 118 
f 79 69 119 
f 69 89 119 
f 89 79 119 
f 74 101 120 
f 109 74 120 
f 92 109 120 
f 85 114 120 
f 114 92 120 
f 67 66 121 
f 68 88 121 
f 66 108 121 
f 108 68 121 
f 74 90 122 
f 65 101 122 
f 101 74 122 
f 102 65 122 
f 90 102 122 
f 65 85 123 
f 101 65 123 
f 85 120 123 
f 120 101 123 
f 100 67 124 
f 75 100 124 
f 88 113 124 
f 113 75 124 
f 67 121 124 
f 121 88 124 
f 85 65 125 
f 73 85 125 
f 93 73 125 
f 65 93 125 
f 105 70 126 
f 84 105 126 
f 70 111 126 
f 111 84 126 
f 76 89 127 
f 96 76 127 
f 83 96 127 
f 97 83 127 
f 89 97 127 
f 81 99 128 
f 102 81 128 
f 93 102 128 
f 103 93 128 
o convex_2
v 0.004486 -0.014735 -0.014288
v -0.016130 -0.003841 -0.013121
v -0.015740 -0.008898 -0.014678
v -0.002903 -0.013174 0.002051
v 0.006433 0.012493 -0.014678
v 0.006433 0.012493 0.002051
v -0.012627 0.007047 0.002051
v -0.007570 0.014440 -0.014678
v 0.007602 -0.008509 0.002051
v -0.014183 -0.005396 0.002051
v -0.005623 -0.017453 -0.014678
v -0.003681 0.014437 0.002051
v 0.007602 -0.008120 -0.014678
v -0.015740 0.003549 -0.014678
v 0.003711 -0.014735 -0.000284
v -0.011071 -0.010841 0.000106
v -0.000568 0.015610 -0.014678
v 0.007602 0.011327 0.002051
v 0.000598 -0.018626 -0.014678
v 0.007602 0.011327 -0.014678
v -0.014183 0.004326 0.002051
v -0.013405 -0.012788 -0.013898
v -0.010683 0.012104 -0.014288
v -0.008348 0.012104 0.002051
v 0.002542 0.014437 0.002051
v -0.016130 -0.001894 -0.008062
v 0.004486 -0.015513 -0.006895
v -0.000959 -0.014735 0.000106
v -0.005235 0.015610 -0.013898
v -0.013017 0.008994 -0.014678
v 0.002154 -0.013955 0.002051
v -0.009126 -0.015902 -0.013898
v -0.009126 -0.011619 0.000883
v -0.012239 0.008217 0.000494
v -0.004847 -0.017453 -0.013121
v 0.005655 -0.013174 -0.001064
v -0.011849 -0.014343 -0.014678
v -0.009904 -0.010456 0.002051
v 0.004486 -0.015513 -0.011953
v -0.000959 -0.018626 -0.014288
v -0.016130 0.001990 -0.014288
v -0.006013 0.014051 -0.001840
v -0.002125 0.015610 -0.011953
v 0.001764 -0.018231 -0.014678
v 0.002542 0.014437 -0.014678
v 0.004877 -0.013955 0.000106
v 0.007602 -0.008509 -0.010785
v 0.002154 -0.014735 0.000494
v -0.012627 -0.009286 -0.001064
v -0.009904 -0.011619 0.000106
v -0.011071 0.009380 0.002051
v -0.014183 -0.011619 -0.013898
v -0.016130 -0.003060 -0.008840
v -0.007570 0.014048 -0.010009
f 170 157 182 
f 132 134 135 
f 133 131 136 
f 134 132 137 
f 132 135 138 
f 131 133 139 
f 135 134 140 
f 139 133 141 
f 136 131 142 
f 133 136 145 
f 133 134 146 
f 134 137 146 
f 137 141 146 
f 139 141 147 
f 141 133 148 
f 133 146 148 
f 146 141 148 
f 138 135 149 
f 135 140 152 
f 134 133 153 
f 140 134 153 
f 138 149 154 
f 145 136 157 
f 136 142 158 
f 142 149 158 
f 151 136 158 
f 137 132 159 
f 132 156 159 
f 156 132 161 
f 149 135 162 
f 158 149 162 
f 151 158 162 
f 160 139 163 
f 131 139 165 
f 150 131 165 
f 144 150 165 
f 139 160 165 
f 132 138 166 
f 138 144 166 
f 161 132 166 
f 129 141 167 
f 164 155 167 
f 139 147 168 
f 163 139 168 
f 156 163 168 
f 131 130 169 
f 142 131 169 
f 149 142 169 
f 130 154 169 
f 154 149 169 
f 152 140 170 
f 140 157 170 
f 140 153 171 
f 153 145 171 
f 145 157 171 
f 157 140 171 
f 141 129 172 
f 147 141 172 
f 143 147 172 
f 155 143 172 
f 129 167 172 
f 167 155 172 
f 133 145 173 
f 153 133 173 
f 145 153 173 
f 143 155 174 
f 137 159 174 
f 159 143 174 
f 164 137 174 
f 155 164 174 
f 141 137 175 
f 137 164 175 
f 167 141 175 
f 164 167 175 
f 147 143 176 
f 143 159 176 
f 159 156 176 
f 168 147 176 
f 156 168 176 
f 144 138 177 
f 150 144 177 
f 156 161 178 
f 163 156 178 
f 160 163 178 
f 144 165 178 
f 165 160 178 
f 166 144 178 
f 161 166 178 
f 135 152 179 
f 152 151 179 
f 162 135 179 
f 151 162 179 
f 138 131 180 
f 131 150 180 
f 177 138 180 
f 150 177 180 
f 130 131 181 
f 131 138 181 
f 154 130 181 
f 138 154 181 
f 136 151 182 
f 151 152 182 
f 157 136 182 
f 152 170 182 
o convex_3
v 0.011494 0.011715 -0.038408
v 0.007602 -0.006955 -0.017015
v 0.007992 -0.006955 -0.017015
v 0.007602 0.011715 -0.015069
v 0.025498 -0.000730 -0.032573
v 0.007602 -0.002673 -0.034128
v 0.017327 -0.000730 -0.014678
v 0.024718 0.006270 -0.036460
v 0.007602 0.014054 -0.036851
v 0.021605 -0.004619 -0.031405
v 0.022383 0.005493 -0.039188
v 0.015772 -0.005398 -0.014678
v 0.016162 0.004325 -0.014678
v 0.014216 0.012497 -0.030625
v 0.017327 0.008215 -0.022849
v 0.007602 -0.006955 -0.014678
v 0.007992 0.010549 -0.038408
v 0.016938 -0.004619 -0.032573
v 0.007602 -0.004230 -0.032571
v 0.022383 0.007827 -0.038405
v 0.009548 0.010940 -0.014678
v 0.016550 -0.002285 -0.035296
v 0.025107 -0.001117 -0.034519
v 0.018885 0.005493 -0.039188
v 0.007992 0.014054 -0.028293
v 0.025107 0.004325 -0.034125
v 0.018494 -0.005398 -0.030236
v 0.020440 0.008995 -0.031791
v 0.007602 -0.000730 -0.035296
v 0.023162 -0.003839 -0.030236
v 0.018494 -0.005398 -0.022461
v 0.017327 0.000438 -0.014678
v 0.013050 0.012885 -0.033350
v 0.007992 0.012497 -0.017794
v 0.013050 0.008215 -0.014678
v 0.016550 -0.004619 -0.015069
v 0.025107 0.005493 -0.035296
v 0.015772 0.007049 -0.039188
v 0.025107 0.004325 -0.036853
v 0.008770 -0.006955 -0.014678
v 0.022383 0.007049 -0.039188
v 0.025498 0.001215 -0.032962
v 0.014216 -0.002285 -0.035296
v 0.016938 -0.005398 -0.030236
v 0.012659 0.012497 -0.036462
v 0.016938 0.009772 -0.026350
v 0.007602 0.013274 -0.038019
v 0.022774 -0.003062 -0.033348
v 0.020440 0.007827 -0.028679
v 0.020440 0.003549 -0.038405
v 0.007602 -0.005009 -0.028679
v 0.007602 0.011329 -0.014678
v 0.018494 0.006270 -0.022074
v 0.011881 0.012108 -0.038019
v 0.015772 0.008215 -0.039188
v 0.016938 0.001997 -0.014678
v 0.016938 -0.003839 -0.033739
v 0.014994 0.011329 -0.027513
v 0.007602 0.014054 -0.028293
v 0.025498 -0.001117 -0.034125
v 0.024329 -0.001507 -0.034519
v 0.016162 -0.005398 -0.015069
v 0.021996 -0.004619 -0.029459
f 244 213 245 
f 184 186 188 
f 188 186 191 
f 194 189 195 
f 184 185 198 
f 186 184 198 
f 194 195 198 
f 184 188 201 
f 198 195 203 
f 185 184 209 
f 200 192 209 
f 190 202 210 
f 202 196 210 
f 188 191 211 
f 189 187 214 
f 195 189 214 
f 196 202 215 
f 191 207 215 
f 207 196 215 
f 186 203 216 
f 203 196 216 
f 196 207 216 
f 203 195 217 
f 197 203 217 
f 187 189 218 
f 189 194 218 
f 212 187 218 
f 195 208 219 
f 190 210 219 
f 193 206 220 
f 211 199 220 
f 206 211 220 
f 205 193 221 
f 190 219 221 
f 198 185 222 
f 194 198 222 
f 185 209 222 
f 209 213 222 
f 202 190 223 
f 193 220 223 
f 221 193 223 
f 190 221 223 
f 214 187 224 
f 219 208 224 
f 221 219 224 
f 201 188 225 
f 188 211 225 
f 211 206 225 
f 201 200 226 
f 209 184 226 
f 200 209 226 
f 191 215 227 
f 215 202 227 
f 203 197 228 
f 197 210 228 
f 211 191 229 
f 199 211 229 
f 210 197 231 
f 219 210 231 
f 206 193 232 
f 204 225 232 
f 225 206 232 
f 184 201 233 
f 226 184 233 
f 201 226 233 
f 186 198 234 
f 203 186 234 
f 198 203 234 
f 217 195 235 
f 197 217 235 
f 195 219 235 
f 231 197 235 
f 219 231 235 
f 223 183 236 
f 202 223 236 
f 191 227 236 
f 227 202 236 
f 183 229 236 
f 229 191 236 
f 220 199 237 
f 183 223 237 
f 223 220 237 
f 229 183 237 
f 199 229 237 
f 208 195 238 
f 195 214 238 
f 214 224 238 
f 224 208 238 
f 192 200 239 
f 200 201 239 
f 201 225 239 
f 225 204 239 
f 230 192 239 
f 204 230 239 
f 196 203 240 
f 210 196 240 
f 203 228 240 
f 228 210 240 
f 191 186 241 
f 207 191 241 
f 186 216 241 
f 216 207 241 
f 187 212 242 
f 212 192 242 
f 205 221 242 
f 224 187 242 
f 221 224 242 
f 192 230 242 
f 230 205 242 
f 193 205 243 
f 230 204 243 
f 205 230 243 
f 232 193 243 
f 204 232 243 
f 218 194 244 
f 212 218 244 
f 194 222 244 
f 222 213 244 
f 209 192 245 
f 192 212 245 
f 213 209 245 
f 212 244 245 
o convex_4
v 0.016159 -0.005009 -0.014678
v 0.007991 0.010938 0.002051
v 0.008769 0.011330 -0.013510
v 0.007602 -0.007732 -0.013121
v 0.011882 -0.006951 0.002051
v 0.016159 0.002769 -0.011953
v 0.007602 -0.008511 0.002051
v 0.013437 0.002381 0.002051
v 0.007602 0.011330 -0.014678
v 0.015771 0.004713 -0.014678
v 0.007602 -0.007344 -0.014678
v 0.014604 -0.001896 -0.002618
v 0.011103 0.007828 0.002051
v 0.007602 0.010938 0.002051
v 0.012658 0.008217 -0.012343
v 0.013047 -0.005786 0.002051
v 0.016939 -0.001896 -0.014288
v 0.014992 -0.005786 -0.014678
v 0.016939 0.001602 -0.014288
v 0.007991 -0.008119 -0.010009
v 0.011493 0.009384 -0.014678
v 0.013047 0.003936 0.002051
v 0.012270 -0.006951 -0.007284
v 0.014604 0.000439 -0.002229
v 0.007991 -0.008511 0.001661
v 0.014604 0.006269 -0.013898
v 0.016159 -0.005009 -0.013898
v 0.016159 0.003936 -0.014288
f 258 267 273 
f 250 247 252 
f 247 250 253 
f 249 252 254 
f 246 254 255 
f 254 246 256 
f 249 254 256 
f 247 253 258 
f 247 248 259 
f 252 247 259 
f 248 254 259 
f 254 252 259 
f 247 258 260 
f 253 250 261 
f 257 261 262 
f 256 246 263 
f 249 256 263 
f 246 255 264 
f 262 246 264 
f 252 249 265 
f 249 263 265 
f 248 247 266 
f 254 248 266 
f 255 254 266 
f 247 260 266 
f 258 253 267 
f 264 251 267 
f 253 264 267 
f 263 250 268 
f 265 263 268 
f 253 261 269 
f 261 257 269 
f 257 262 269 
f 264 253 269 
f 262 264 269 
f 250 252 270 
f 252 265 270 
f 268 250 270 
f 265 268 270 
f 258 255 271 
f 260 258 271 
f 255 266 271 
f 266 260 271 
f 261 250 272 
f 262 261 272 
f 246 262 272 
f 263 246 272 
f 250 263 272 
f 255 258 273 
f 251 264 273 
f 264 255 273 
f 267 251 273 
o convex_5
v 0.004488 0.014051 -0.016625
v -0.018853 -0.008116 -0.027127
v -0.018853 -0.008116 -0.025569
v 0.000985 -0.022517 -0.023623
v 0.007601 0.014051 -0.027905
v -0.015741 0.003544 -0.014678
v -0.010684 0.017160 -0.027905
v 0.002153 -0.018235 -0.014678
v 0.007601 -0.006175 -0.027905
v -0.012628 -0.013954 -0.014678
v 0.007601 0.011718 -0.014678
v -0.009127 -0.019788 -0.027905
v -0.005626 0.015607 -0.014678
v 0.007601 -0.008116 -0.014678
v -0.017683 0.007045 -0.027905
v -0.004458 0.017944 -0.027514
v -0.011072 0.011714 -0.014678
v 0.000208 -0.022124 -0.026348
v -0.015741 -0.008896 -0.014678
v -0.015741 -0.014342 -0.024013
v -0.006015 -0.021736 -0.024791
v -0.001737 -0.018623 -0.014678
v 0.002544 -0.020960 -0.024013
v -0.013794 0.014439 -0.027514
v -0.018853 0.002767 -0.027905
v -0.000180 0.015607 -0.015069
v -0.017295 -0.002286 -0.017792
v 0.001376 -0.016287 -0.027905
v -0.012628 -0.017455 -0.023623
v -0.018462 -0.008508 -0.027905
v -0.013794 0.007825 -0.014678
v -0.017295 0.007433 -0.025569
v -0.009516 -0.015899 -0.014678
v -0.013794 -0.016679 -0.026348
v -0.000960 0.017164 -0.027905
v -0.009127 0.017944 -0.027514
v -0.002125 0.015995 -0.014678
v -0.018853 -0.001122 -0.024791
v -0.017295 -0.011617 -0.023235
v -0.016129 0.002379 -0.014678
v 0.002544 -0.020568 -0.021292
v -0.000569 -0.022124 -0.022068
v -0.010292 -0.017843 -0.020126
v -0.017295 -0.005395 -0.017792
v 0.007601 -0.006952 -0.025569
v -0.006015 -0.017459 -0.014678
v -0.014182 -0.012397 -0.015069
v -0.009516 -0.020176 -0.026348
v -0.004849 -0.022124 -0.025958
v -0.011460 0.015603 -0.024791
v 0.001764 -0.021736 -0.025180
v 0.003709 -0.015899 -0.014678
v 0.006822 0.012494 -0.014678
v -0.004070 -0.022124 -0.024013
v 0.006433 -0.008896 -0.027905
v -0.015741 0.011326 -0.027514
v -0.016906 -0.012397 -0.025958
v 0.000208 -0.019011 -0.015069
v -0.014182 -0.015122 -0.020904
v -0.001348 0.017164 -0.025958
v -0.006403 0.015219 -0.014678
v -0.000569 -0.021736 -0.026736
v 0.004877 0.014051 -0.017403
v -0.016129 -0.006564 -0.014678
f 313 317 337 
f 280 278 282 
f 281 279 283 
f 279 281 284 
f 282 278 284 
f 280 282 285 
f 279 284 286 
f 284 281 287 
f 282 284 287 
f 280 285 288 
f 279 286 290 
f 283 279 292 
f 281 283 295 
f 280 288 297 
f 275 276 298 
f 288 285 298 
f 285 282 301 
f 275 298 303 
f 298 285 303 
f 279 290 304 
f 290 297 304 
f 288 298 305 
f 279 304 305 
f 295 283 306 
f 302 293 307 
f 303 285 307 
f 278 280 308 
f 308 280 309 
f 289 308 309 
f 286 284 310 
f 309 286 310 
f 289 309 310 
f 298 276 311 
f 276 275 312 
f 292 276 312 
f 292 279 313 
f 279 305 313 
f 305 298 313 
f 298 311 313 
f 311 300 313 
f 281 277 314 
f 277 296 314 
f 296 287 314 
f 283 302 316 
f 306 283 316 
f 294 306 316 
f 276 292 317 
f 311 276 317 
f 300 311 317 
f 313 300 317 
f 282 287 318 
f 287 296 318 
f 296 282 318 
f 295 306 319 
f 306 294 319 
f 283 292 320 
f 292 312 320 
f 312 293 320 
f 302 307 321 
f 307 285 321 
f 316 302 321 
f 294 316 321 
f 291 277 322 
f 321 285 322 
f 294 321 322 
f 280 297 323 
f 297 290 323 
f 277 291 324 
f 296 277 324 
f 287 281 325 
f 281 314 325 
f 314 287 325 
f 284 278 326 
f 274 299 326 
f 310 284 326 
f 299 310 326 
f 277 315 327 
f 315 295 327 
f 295 319 327 
f 319 294 327 
f 322 277 327 
f 294 322 327 
f 282 296 328 
f 301 282 328 
f 291 301 328 
f 324 291 328 
f 296 324 328 
f 297 288 329 
f 304 297 329 
f 305 304 329 
f 288 305 329 
f 275 303 330 
f 307 293 330 
f 303 307 330 
f 312 275 330 
f 293 312 330 
f 277 281 331 
f 281 295 331 
f 315 277 331 
f 295 315 331 
f 302 283 332 
f 293 302 332 
f 283 320 332 
f 320 293 332 
f 278 308 333 
f 308 289 333 
f 310 299 333 
f 289 310 333 
f 290 286 334 
f 309 280 334 
f 286 309 334 
f 280 323 334 
f 323 290 334 
f 285 301 335 
f 301 291 335 
f 291 322 335 
f 322 285 335 
f 299 274 336 
f 274 326 336 
f 326 278 336 
f 278 333 336 
f 333 299 336 
f 292 313 337 
f 317 292 337 
o convex_6
v -0.007962 0.018722 -0.029851
v -0.020021 -0.003842 -0.031019
v -0.019629 -0.003842 -0.031794
v -0.003681 -0.011234 -0.027905
v -0.003681 0.000052 -0.035297
v -0.018853 0.003550 -0.027905
v -0.016908 0.006659 -0.034518
v -0.003681 0.017552 -0.027905
v -0.003681 0.013664 -0.034908
v -0.017684 -0.008510 -0.027905
v -0.016908 -0.000728 -0.034908
v -0.013404 0.015215 -0.027905
v -0.015352 0.012104 -0.032961
v -0.018853 0.005882 -0.031794
v -0.009128 0.017552 -0.032573
v -0.014573 0.004714 -0.035297
v -0.004460 -0.011234 -0.028295
v -0.004848 0.017942 -0.031794
v -0.017297 -0.002285 -0.034129
v -0.011464 0.013271 -0.034129
v -0.017297 0.010163 -0.029851
v -0.019629 -0.001115 -0.032961
v -0.003681 -0.002285 -0.034129
v -0.012628 0.015998 -0.031019
v -0.019242 -0.005009 -0.027905
v -0.009519 0.017942 -0.027905
v -0.017684 -0.008510 -0.028295
v -0.003681 0.008603 -0.035297
v -0.020021 -0.001892 -0.029462
v -0.018074 0.003163 -0.034518
v -0.018853 -0.003842 -0.032573
v -0.018464 0.005882 -0.033351
v -0.003681 0.017942 -0.030629
v -0.011073 0.007829 -0.035297
v -0.013794 0.000052 -0.035297
v -0.017297 0.008603 -0.027905
v -0.016516 0.011330 -0.031408
v -0.006016 0.018722 -0.029074
v -0.010685 0.017552 -0.030240
v -0.018464 -0.001508 -0.034129
v -0.018853 0.005492 -0.029851
v -0.020021 -0.001115 -0.031408
f 366 378 379 
f 341 342 345 
f 343 341 345 
f 345 342 346 
f 341 343 347 
f 343 345 349 
f 341 347 354 
f 352 338 355 
f 346 352 355 
f 344 350 357 
f 352 346 357 
f 350 352 357 
f 340 339 359 
f 342 341 360 
f 348 342 360 
f 341 354 360 
f 356 348 360 
f 354 356 360 
f 352 350 361 
f 339 347 362 
f 347 343 362 
f 349 345 363 
f 339 340 364 
f 347 339 364 
f 354 347 364 
f 346 342 365 
f 342 353 365 
f 339 362 366 
f 362 343 366 
f 344 353 367 
f 353 348 367 
f 356 354 368 
f 364 340 368 
f 354 364 368 
f 350 344 369 
f 344 367 369 
f 367 359 369 
f 345 346 370 
f 346 355 370 
f 353 344 371 
f 344 357 371 
f 357 346 371 
f 346 365 371 
f 365 353 371 
f 342 348 372 
f 353 342 372 
f 348 353 372 
f 343 349 373 
f 349 358 373 
f 358 349 374 
f 351 358 374 
f 349 361 374 
f 361 350 374 
f 350 369 374 
f 369 351 374 
f 355 338 375 
f 338 363 375 
f 363 345 375 
f 345 370 375 
f 370 355 375 
f 338 352 376 
f 361 349 376 
f 352 361 376 
f 363 338 376 
f 349 363 376 
f 348 356 377 
f 340 359 377 
f 367 348 377 
f 359 367 377 
f 356 368 377 
f 368 340 377 
f 358 351 378 
f 366 343 378 
f 343 373 378 
f 373 358 378 
f 359 339 379 
f 339 366 379 
f 351 369 379 
f 369 359 379 
f 378 351 379 
o convex_7
v 0.007602 0.014442 -0.036853
v -0.003681 -0.011620 -0.028295
v 0.000210 -0.015511 -0.028295
v 0.007602 0.014053 -0.027905
v -0.003681 0.017552 -0.027905
v -0.003681 0.000050 -0.035296
v 0.007600 -0.002672 -0.034128
v 0.002542 0.016772 -0.038019
v 0.007211 -0.007342 -0.027905
v -0.003681 0.014438 -0.034907
v 0.007600 0.009772 -0.038019
v 0.004098 -0.008895 -0.032964
v 0.004098 0.017160 -0.035296
v 0.001766 -0.015511 -0.027905
v 0.006434 -0.008119 -0.031407
v 0.002931 0.014827 -0.038409
v -0.003681 0.017552 -0.031407
v 0.002542 -0.008119 -0.033351
v -0.003681 -0.011620 -0.027905
v -0.001735 0.014438 -0.036464
v 0.007600 -0.005785 -0.027905
v 0.004878 0.015995 -0.038409
v -0.000957 0.017160 -0.027905
v 0.007600 -0.000339 -0.035296
v -0.003681 -0.002284 -0.034128
v 0.001766 0.017160 -0.037240
v 0.004878 0.016772 -0.037240
v 0.004488 0.013270 -0.038409
v 0.002542 -0.014731 -0.028295
v 0.007602 0.013662 -0.038020
v -0.002513 0.015215 -0.035686
v 0.007211 -0.007342 -0.029463
v 0.005656 -0.008507 -0.032187
v 0.002542 -0.009675 -0.032574
v 0.001766 -0.015511 -0.028295
f 413 391 414 
f 381 384 385 
f 383 384 388 
f 385 384 389 
f 388 384 393 
f 389 384 396 
f 384 392 396 
f 385 390 397 
f 381 382 398 
f 384 381 398 
f 382 393 398 
f 393 384 398 
f 385 389 399 
f 387 395 399 
f 395 385 399 
f 383 388 400 
f 395 387 401 
f 384 383 402 
f 383 392 402 
f 392 384 402 
f 386 391 403 
f 397 390 403 
f 391 397 403 
f 382 381 404 
f 381 385 404 
f 396 392 405 
f 383 380 406 
f 392 383 406 
f 380 401 406 
f 401 387 406 
f 387 405 406 
f 405 392 406 
f 390 385 407 
f 385 395 407 
f 401 390 407 
f 395 401 407 
f 388 393 408 
f 380 383 409 
f 383 400 409 
f 400 386 409 
f 401 380 409 
f 390 401 409 
f 386 403 409 
f 403 390 409 
f 389 396 410 
f 399 389 410 
f 387 399 410 
f 405 387 410 
f 396 405 410 
f 394 386 411 
f 386 400 411 
f 400 388 411 
f 388 408 411 
f 408 394 411 
f 391 386 412 
f 386 394 412 
f 394 408 412 
f 385 397 413 
f 397 391 413 
f 382 404 413 
f 404 385 413 
f 393 382 414 
f 408 393 414 
f 391 412 414 
f 412 408 414 
f 382 413 414 
