o convex_0
v -0.005572 -0.014042 -0.023976
v -0.002445 -0.012948 -0.018505
v -0.005572 -0.011697 -0.018505
v -0.002758 -0.013417 -0.023351
v -0.005103 -0.014355 -0.023194
v -0.005884 -0.013417 -0.021007
v -0.005415 -0.012323 -0.021474
v -0.003696 -0.014511 -0.023819
v -0.003383 -0.013104 -0.018505
v -0.005884 -0.012010 -0.018505
v -0.002445 -0.012948 -0.020381
v -0.002445 -0.013729 -0.022412
v -0.005884 -0.013886 -0.023819
v -0.004790 -0.012323 -0.021474
v -0.005884 -0.011854 -0.019756
v -0.004009 -0.013260 -0.023351
f 14 4 16 
f 1 4 8 
f 5 1 8 
f 5 8 9 
f 2 3 9 
f 6 5 9 
f 8 2 9 
f 6 9 10 
f 9 3 10 
f 3 2 11 
f 4 11 12 
f 2 8 12 
f 8 4 12 
f 11 2 12 
f 1 5 13 
f 5 6 13 
f 6 10 13 
f 3 11 14 
f 11 4 14 
f 10 3 15 
f 7 13 15 
f 13 10 15 
f 3 14 15 
f 14 7 15 
f 4 1 16 
f 1 13 16 
f 13 7 16 
f 7 14 16 
o convex_1
v -0.013858 -0.008570 -0.022100
v -0.014640 -0.010602 -0.025851
v -0.014483 -0.010602 -0.025851
v -0.016202 -0.006225 -0.026946
v -0.016202 -0.006538 -0.022726
v -0.016984 -0.008101 -0.027103
v -0.014483 -0.010602 -0.023664
v -0.014796 -0.006225 -0.022100
v -0.014327 -0.009196 -0.026165
v -0.016046 -0.010133 -0.026790
v -0.015265 -0.008414 -0.022414
v -0.013858 -0.010602 -0.023351
v -0.015109 -0.007164 -0.026165
v -0.015264 -0.010290 -0.026790
v -0.014014 -0.008883 -0.021788
v -0.014014 -0.007788 -0.022258
v -0.016046 -0.006225 -0.022414
v -0.016514 -0.006382 -0.026633
f 21 33 34 
f 18 19 23 
f 21 22 26 
f 18 23 26 
f 21 26 27 
f 26 23 27 
f 23 19 28 
f 25 17 28 
f 19 25 28 
f 20 24 29 
f 25 20 29 
f 19 18 30 
f 22 20 30 
f 25 19 30 
f 20 25 30 
f 18 26 30 
f 26 22 30 
f 27 23 31 
f 23 28 31 
f 28 17 31 
f 17 25 32 
f 29 24 32 
f 25 29 32 
f 31 17 32 
f 24 31 32 
f 24 20 33 
f 21 27 33 
f 31 24 33 
f 27 31 33 
f 22 21 34 
f 20 22 34 
f 33 20 34 
o convex_2
v -0.013857 -0.009040 -0.023194
v -0.009011 -0.010446 -0.018505
v -0.009011 -0.010602 -0.018505
v -0.013544 -0.008727 -0.018505
v -0.013857 -0.010602 -0.023350
v -0.011200 -0.009977 -0.021787
v -0.013231 -0.009196 -0.018505
v -0.013544 -0.008727 -0.021631
v -0.013544 -0.010602 -0.023663
v -0.009480 -0.010602 -0.018505
v -0.011356 -0.010602 -0.021943
v -0.009950 -0.009977 -0.018818
v -0.012919 -0.009509 -0.023194
f 45 43 47 
f 37 36 38 
f 38 35 39 
f 36 37 40 
f 37 38 41 
f 38 39 41 
f 35 38 42 
f 39 35 43 
f 37 39 43 
f 39 37 44 
f 37 41 44 
f 41 39 44 
f 40 37 45 
f 37 43 45 
f 38 36 46 
f 36 40 46 
f 42 38 46 
f 40 42 46 
f 35 42 47 
f 42 40 47 
f 43 35 47 
f 40 45 47 
o convex_3
v -0.003228 -0.010133 -0.003186
v -0.002445 -0.008727 -0.001151
v -0.002445 -0.008883 -0.001151
v -0.005571 -0.008883 0.000255
v -0.007448 -0.008727 -0.008968
v -0.002445 -0.010603 -0.008968
v -0.003540 -0.008727 0.001663
v -0.007135 -0.009040 -0.008811
v -0.002445 -0.009977 -0.001934
v -0.006822 -0.008727 -0.008968
v -0.002758 -0.010759 -0.008186
v -0.004165 -0.009196 0.001349
v -0.004322 -0.009665 -0.008968
v -0.005259 -0.008727 0.001036
v -0.002445 -0.008727 -0.001464
f 60 57 62 
f 49 50 53 
f 50 49 54 
f 48 51 55 
f 51 52 55 
f 52 53 55 
f 53 50 56 
f 50 54 56 
f 53 52 57 
f 54 49 57 
f 52 54 57 
f 48 55 58 
f 55 53 58 
f 56 48 58 
f 53 56 58 
f 51 48 59 
f 48 56 59 
f 56 54 59 
f 53 57 60 
f 52 51 61 
f 54 52 61 
f 51 59 61 
f 59 54 61 
f 49 53 62 
f 57 49 62 
f 53 60 62 
o convex_4
v -0.006979 0.008314 -0.012257
v -0.006666 0.005812 -0.006469
v -0.006197 0.005812 -0.006469
v -0.007291 0.008001 -0.024758
v -0.004790 0.008626 -0.006156
v -0.004947 0.008626 -0.016157
v -0.007291 0.006907 -0.007094
v -0.007135 0.008626 -0.024286
v -0.005259 0.007845 -0.016157
v -0.007291 0.005969 -0.006154
v -0.005103 0.007376 -0.008970
v -0.006040 0.005812 -0.006313
v -0.007135 0.008626 -0.020377
v -0.007135 0.008001 -0.024758
v -0.007291 0.007219 -0.007875
v -0.007291 0.007376 -0.020377
v -0.004947 0.008626 -0.006156
v -0.005103 0.007376 -0.006156
f 72 74 80 
f 67 68 70 
f 69 66 72 
f 68 67 73 
f 71 68 73 
f 71 73 74 
f 64 65 74 
f 72 64 74 
f 67 70 75 
f 70 66 75 
f 70 68 76 
f 66 70 76 
f 68 71 76 
f 71 74 76 
f 66 69 77 
f 63 75 77 
f 75 66 77 
f 65 64 78 
f 64 72 78 
f 72 66 78 
f 74 65 78 
f 66 76 78 
f 76 74 78 
f 72 67 79 
f 69 72 79 
f 75 63 79 
f 67 75 79 
f 63 77 79 
f 77 69 79 
f 67 72 80 
f 73 67 80 
f 74 73 80 
o convex_5
v -0.000725 -0.011385 -0.012096
v -0.001663 -0.014042 -0.023037
v -0.002445 -0.013885 -0.023350
v -0.000725 -0.012947 -0.022881
v -0.002445 -0.011072 -0.015223
v -0.002445 -0.013104 -0.017256
v -0.001038 -0.013885 -0.021630
v -0.002445 -0.011072 -0.012096
v -0.001507 -0.011854 -0.019598
v -0.000725 -0.011072 -0.012252
v -0.000725 -0.011854 -0.012878
v -0.001976 -0.012010 -0.020067
v -0.002445 -0.013573 -0.023350
v -0.000725 -0.012010 -0.019129
v -0.000725 -0.013416 -0.022881
f 91 87 95 
f 85 83 86 
f 83 82 86 
f 86 82 87 
f 85 86 88 
f 89 85 90 
f 81 84 90 
f 88 81 90 
f 85 88 90 
f 84 81 91 
f 86 87 91 
f 81 88 91 
f 88 86 91 
f 89 84 92 
f 85 89 92 
f 84 83 93 
f 83 85 93 
f 92 84 93 
f 85 92 93 
f 84 89 94 
f 89 90 94 
f 90 84 94 
f 82 83 95 
f 83 84 95 
f 87 82 95 
f 84 91 95 
o convex_6
v 0.005373 -0.009665 -0.021160
v 0.008030 -0.007320 -0.012721
v 0.008030 -0.007789 -0.012721
v 0.003965 -0.009665 -0.012096
v 0.007873 -0.007476 -0.020692
v 0.007717 -0.008883 -0.015380
v 0.004435 -0.008883 -0.013660
v 0.007560 -0.009039 -0.021160
v 0.005841 -0.009665 -0.015224
v 0.005685 -0.008883 -0.021160
v 0.005997 -0.009196 -0.012096
v 0.008030 -0.008570 -0.013973
v 0.003965 -0.009508 -0.014286
v 0.004435 -0.008883 -0.012096
v 0.008030 -0.008101 -0.020379
v 0.007091 -0.007633 -0.012879
f 102 109 111 
f 103 101 104 
f 99 96 104 
f 96 103 104 
f 102 100 105 
f 103 96 105 
f 100 103 105 
f 98 97 106 
f 99 104 106 
f 106 104 107 
f 97 98 107 
f 101 103 107 
f 104 101 107 
f 98 106 107 
f 96 99 108 
f 105 96 108 
f 102 105 108 
f 106 97 109 
f 99 106 109 
f 108 99 109 
f 102 108 109 
f 100 97 110 
f 103 100 110 
f 97 107 110 
f 107 103 110 
f 97 100 111 
f 100 102 111 
f 109 97 111 
o convex_7
v -0.002289 -0.011228 -0.012094
v 0.000369 -0.008727 0.003537
v 0.000056 -0.008727 0.003695
v -0.001819 -0.008883 -0.004903
v 0.000369 -0.010290 -0.011781
v -0.002445 -0.009977 -0.001932
v -0.001194 -0.011071 -0.007717
v -0.002445 -0.008727 -0.001152
v 0.000369 -0.009352 0.002131
v 0.000369 -0.010759 -0.011937
v -0.000256 -0.009821 -0.010842
v -0.002445 -0.010915 -0.012094
v -0.001194 -0.008727 -0.002871
v -0.000569 -0.008883 0.003537
v -0.000882 -0.009978 -0.011625
v -0.001038 -0.011384 -0.012094
v -0.001663 -0.011071 -0.007405
v -0.002445 -0.010915 -0.008343
f 128 117 129 
f 114 113 119 
f 113 114 120 
f 116 113 120 
f 120 118 121 
f 116 120 121 
f 113 116 122 
f 119 115 123 
f 117 119 123 
f 116 121 123 
f 119 113 124 
f 115 119 124 
f 113 122 124 
f 122 115 124 
f 114 119 125 
f 119 117 125 
f 120 114 125 
f 117 120 125 
f 115 122 126 
f 122 116 126 
f 116 123 126 
f 123 115 126 
f 121 118 127 
f 112 123 127 
f 123 121 127 
f 120 117 128 
f 118 120 128 
f 112 127 128 
f 127 118 128 
f 123 112 129 
f 117 123 129 
f 112 128 129 
o convex_8
v 0.014752 0.002060 0.017921
v 0.013189 -0.000285 0.006823
v 0.013189 -0.000128 0.006665
v 0.013501 -0.000128 0.016982
v 0.013189 0.002060 0.010731
v 0.014439 0.002060 0.011199
v 0.013658 -0.000285 0.008385
v 0.013814 -0.000285 0.017921
v 0.014283 0.001747 0.017921
v 0.013501 0.000654 0.006823
v 0.014752 0.001904 0.016357
v 0.013658 0.000185 0.017921
f 137 138 141 
f 132 131 134 
f 131 133 134 
f 134 130 135 
f 133 131 137 
f 131 136 137 
f 130 134 138 
f 137 130 138 
f 131 132 139 
f 132 134 139 
f 134 135 139 
f 136 131 139 
f 135 136 139 
f 135 130 140 
f 136 135 140 
f 130 137 140 
f 137 136 140 
f 134 133 141 
f 133 137 141 
f 138 134 141 
o convex_9
v -0.014482 -0.010916 -0.026009
v -0.012918 -0.010603 -0.022726
v -0.006041 -0.013573 -0.022726
v -0.011198 -0.012010 -0.022726
v -0.006823 -0.013417 -0.024602
v -0.006197 -0.014042 -0.023664
v -0.014013 -0.010759 -0.026165
v -0.014325 -0.010759 -0.023820
v -0.013857 -0.011228 -0.026165
v -0.006667 -0.013886 -0.024445
v -0.006823 -0.013729 -0.022726
v -0.014170 -0.011072 -0.025071
f 147 152 153 
f 144 143 145 
f 143 144 146 
f 146 144 147 
f 143 146 148 
f 145 143 149 
f 143 148 149 
f 148 142 149 
f 142 148 150 
f 148 146 150 
f 146 147 151 
f 150 146 151 
f 147 150 151 
f 144 145 152 
f 147 144 152 
f 145 149 153 
f 149 142 153 
f 150 147 153 
f 142 150 153 
f 152 145 153 
o convex_10
v -0.005884 -0.011540 -0.013189
v -0.013543 -0.008883 -0.018505
v -0.013543 -0.008883 -0.017566
v -0.011511 -0.008727 -0.013346
v -0.005884 -0.011540 -0.018505
v -0.006198 -0.011853 -0.018505
v -0.010417 -0.009821 -0.013189
v -0.013231 -0.008727 -0.018505
v -0.006198 -0.011072 -0.013189
v -0.008856 -0.010915 -0.018192
v -0.012137 -0.008727 -0.016159
v -0.013231 -0.009196 -0.018192
v -0.006042 -0.011697 -0.014597
v -0.011824 -0.009040 -0.013189
f 165 160 167 
f 155 158 159 
f 158 154 159 
f 155 156 161 
f 156 157 161 
f 158 155 161 
f 154 158 162 
f 158 157 162 
f 160 154 162 
f 157 158 164 
f 161 157 164 
f 158 161 164 
f 156 155 165 
f 155 159 165 
f 159 163 165 
f 165 163 166 
f 159 154 166 
f 154 160 166 
f 163 159 166 
f 160 165 166 
f 157 156 167 
f 162 157 167 
f 160 162 167 
f 156 165 167 
o convex_11
v -0.005884 -0.011071 -0.011469
v -0.011825 -0.008883 -0.013189
v -0.011825 -0.008727 -0.013189
v -0.007604 -0.008727 -0.008968
v -0.008542 -0.009978 -0.009907
v -0.005884 -0.011228 -0.013189
v -0.005884 -0.009196 -0.009281
v -0.008855 -0.008727 -0.011625
v -0.006041 -0.011541 -0.013033
v -0.007135 -0.010759 -0.010376
v -0.010261 -0.009821 -0.012877
v -0.005884 -0.009509 -0.008968
v -0.010886 -0.008727 -0.013033
v -0.005884 -0.009509 -0.010219
f 175 174 181 
f 170 169 171 
f 171 169 172 
f 169 170 173 
f 168 173 174 
f 170 171 175 
f 171 174 175 
f 169 173 176 
f 173 168 176 
f 176 168 177 
f 176 177 178 
f 172 169 178 
f 169 176 178 
f 177 172 178 
f 171 172 179 
f 168 174 179 
f 174 171 179 
f 172 177 179 
f 177 168 179 
f 173 170 180 
f 170 175 180 
f 175 173 180 
f 174 173 181 
f 173 175 181 
o convex_12
v -0.005728 -0.011854 -0.015066
v -0.002445 -0.011228 -0.015066
v -0.002445 -0.011385 -0.015066
v -0.002445 -0.013104 -0.018504
v -0.005884 -0.011697 -0.018504
v -0.005728 -0.011228 -0.012095
v -0.002445 -0.012948 -0.016628
v -0.002445 -0.011228 -0.015847
v -0.003227 -0.013104 -0.017879
v -0.004946 -0.011385 -0.012095
v -0.005884 -0.011541 -0.012721
v -0.005728 -0.012010 -0.018504
v -0.005884 -0.011228 -0.013190
f 186 192 194 
f 183 184 185 
f 185 184 188 
f 183 185 189 
f 185 186 189 
f 187 183 189 
f 185 188 190 
f 184 183 191 
f 183 187 191 
f 188 184 191 
f 191 187 192 
f 182 190 192 
f 190 188 192 
f 188 191 192 
f 186 185 193 
f 190 182 193 
f 185 190 193 
f 182 192 193 
f 192 186 193 
f 189 186 194 
f 187 189 194 
f 192 187 194 
o convex_13
v -0.005572 -0.009821 -0.011470
v -0.002445 -0.010603 -0.008968
v -0.002602 -0.010446 -0.008968
v -0.002445 -0.011072 -0.015378
v -0.005884 -0.011228 -0.011939
v -0.005728 -0.009196 -0.008968
v -0.002602 -0.010915 -0.009281
v -0.003071 -0.011228 -0.015534
v -0.005884 -0.009509 -0.008968
v -0.002445 -0.011228 -0.013501
v -0.005884 -0.011072 -0.012564
v -0.004321 -0.010446 -0.013814
v -0.004477 -0.009665 -0.009907
f 198 200 207 
f 197 196 198 
f 196 197 200 
f 196 200 203 
f 200 195 203 
f 201 196 203 
f 199 201 203 
f 198 196 204 
f 196 201 204 
f 201 199 204 
f 202 198 204 
f 199 202 204 
f 202 199 205 
f 203 195 205 
f 199 203 205 
f 200 198 206 
f 195 200 206 
f 198 202 206 
f 205 195 206 
f 202 205 206 
f 197 198 207 
f 200 197 207 
o convex_14
v 0.000837 -0.012948 -0.022725
v 0.002089 -0.010446 -0.012095
v 0.001932 -0.010446 -0.012095
v -0.000100 -0.011853 -0.012565
v 0.000213 -0.010916 -0.017097
v -0.000725 -0.013104 -0.022882
v -0.000725 -0.010916 -0.012095
v 0.001776 -0.011854 -0.022255
v 0.001150 -0.012791 -0.018504
v 0.002089 -0.012166 -0.021631
v 0.001932 -0.010916 -0.012095
v -0.000725 -0.012791 -0.022882
v -0.000725 -0.012009 -0.013660
v 0.002089 -0.010446 -0.013816
v -0.000256 -0.010603 -0.012252
v 0.000526 -0.012948 -0.019129
v 0.002089 -0.011697 -0.016472
v 0.000837 -0.013104 -0.022725
f 216 223 225 
f 209 210 214 
f 209 214 218 
f 214 211 218 
f 211 216 218 
f 208 213 219 
f 214 212 219 
f 213 214 219 
f 215 208 219 
f 212 215 219 
f 214 213 220 
f 211 214 220 
f 210 209 221 
f 215 212 221 
f 209 217 221 
f 217 215 221 
f 212 214 222 
f 214 210 222 
f 210 221 222 
f 221 212 222 
f 216 211 223 
f 220 213 223 
f 211 220 223 
f 217 209 224 
f 216 217 224 
f 218 216 224 
f 209 218 224 
f 213 208 225 
f 208 215 225 
f 215 217 225 
f 217 216 225 
f 223 213 225 
o convex_15
v -0.006979 0.002529 0.008541
v -0.009792 -0.000441 0.005415
v -0.009636 -0.000441 0.005415
v -0.008073 0.002842 0.005415
v -0.006666 0.002686 0.006196
v -0.007917 -0.000441 0.008541
v -0.009323 0.000654 0.007447
v -0.008698 0.002373 0.006978
v -0.008229 -0.000441 0.007134
v -0.006510 0.002842 0.008541
v -0.009011 0.002060 0.005415
v -0.006979 0.002529 0.005727
v -0.009480 -0.000128 0.007290
f 232 227 238 
f 228 227 229 
f 227 228 231 
f 231 226 232 
f 232 226 233 
f 231 228 234 
f 230 231 234 
f 230 229 235 
f 231 230 235 
f 226 231 235 
f 229 233 235 
f 233 226 235 
f 229 227 236 
f 227 232 236 
f 233 229 236 
f 232 233 236 
f 228 229 237 
f 229 230 237 
f 234 228 237 
f 230 234 237 
f 227 231 238 
f 231 232 238 
o convex_16
v 0.002089 -0.011853 -0.017255
v 0.005684 -0.009665 -0.015065
v 0.004121 -0.009665 -0.012095
v 0.005372 -0.009665 -0.021004
v 0.002245 -0.009821 -0.013347
v 0.002089 -0.012322 -0.022412
v 0.005372 -0.010916 -0.016786
v 0.003183 -0.011697 -0.015222
v 0.005215 -0.010916 -0.021474
v 0.002089 -0.010603 -0.012095
v 0.003340 -0.010916 -0.021943
v 0.002558 -0.012322 -0.021943
v 0.005215 -0.010759 -0.015378
v 0.002089 -0.011853 -0.021787
v 0.002558 -0.009665 -0.012095
v 0.003965 -0.009978 -0.012095
v 0.005684 -0.009821 -0.019285
v 0.003183 -0.011853 -0.016161
v 0.005372 -0.010290 -0.021630
f 255 247 257 
f 241 240 242 
f 244 239 248 
f 239 246 248 
f 243 242 249 
f 244 247 250 
f 247 245 250 
f 245 240 251 
f 248 243 252 
f 244 248 252 
f 243 249 252 
f 249 244 252 
f 241 242 253 
f 242 243 253 
f 248 241 253 
f 243 248 253 
f 240 241 254 
f 241 248 254 
f 248 246 254 
f 251 240 254 
f 246 251 254 
f 242 240 255 
f 240 245 255 
f 245 247 255 
f 239 244 256 
f 246 239 256 
f 244 250 256 
f 250 245 256 
f 245 251 256 
f 251 246 256 
f 247 244 257 
f 249 242 257 
f 244 249 257 
f 242 255 257 
o convex_17
v 0.008499 -0.005444 0.007134
v 0.007091 -0.007007 -0.001773
v 0.007091 -0.006538 -0.001773
v 0.007091 -0.005913 0.015886
v 0.007873 -0.006225 0.015262
v 0.008499 -0.006381 -0.001773
v 0.008499 -0.004975 0.015886
v 0.007404 -0.006069 -0.001305
v 0.007248 -0.007007 0.004010
v 0.008499 -0.005444 0.015886
v 0.008342 -0.004975 0.014949
v 0.007091 -0.006381 0.012760
v 0.008186 -0.006069 -0.001618
v 0.008499 -0.006381 0.000101
f 263 267 271 
f 260 259 261 
f 259 260 263 
f 263 258 264 
f 260 261 265 
f 259 263 266 
f 261 262 267 
f 264 261 267 
f 263 264 267 
f 264 258 268 
f 261 264 268 
f 265 261 268 
f 258 265 268 
f 261 259 269 
f 262 261 269 
f 259 266 269 
f 266 262 269 
f 258 263 270 
f 263 260 270 
f 260 265 270 
f 265 258 270 
f 262 266 271 
f 266 263 271 
f 267 262 271 
o convex_18
v 0.000369 -0.010759 -0.011937
v 0.002714 -0.008727 -0.001934
v 0.002714 -0.008883 -0.001934
v 0.000369 -0.008883 0.003381
v 0.001307 -0.008727 -0.006465
v 0.002245 -0.010759 -0.008498
v 0.002714 -0.009665 -0.012093
v 0.001307 -0.009508 0.002285
v 0.000369 -0.010289 -0.011624
v 0.001932 -0.010915 -0.012093
v 0.000526 -0.009508 0.001817
v 0.001464 -0.008727 0.003225
v 0.001464 -0.010759 -0.008342
v 0.000369 -0.008727 0.003069
v 0.002401 -0.008727 -0.005529
v 0.002714 -0.009977 -0.008498
v 0.001464 -0.009352 0.002755
f 283 275 288 
f 273 274 278 
f 272 275 280 
f 278 272 280 
f 276 278 280 
f 272 278 281 
f 278 277 281 
f 275 272 282 
f 279 275 282 
f 274 273 283 
f 277 279 284 
f 272 281 284 
f 281 277 284 
f 282 272 284 
f 279 282 284 
f 280 275 285 
f 276 280 285 
f 283 273 285 
f 275 283 285 
f 273 278 286 
f 278 276 286 
f 285 273 286 
f 276 285 286 
f 274 277 287 
f 277 278 287 
f 278 274 287 
f 277 274 288 
f 275 279 288 
f 279 277 288 
f 274 283 288 
o convex_19
v 0.009437 0.007689 0.001820
v 0.012563 0.007063 0.017918
v 0.012094 0.008783 0.017921
v 0.010062 0.009408 0.017921
v 0.010218 0.007063 0.011978
v 0.009906 0.008314 0.002446
v 0.009437 0.006907 0.001978
v 0.012093 0.006907 0.017918
v 0.011938 0.008783 0.015105
v 0.010062 0.009564 0.016044
v 0.012563 0.006907 0.017293
v 0.010062 0.007376 0.012760
v 0.009437 0.008314 0.002760
v 0.009750 0.006907 0.002446
v 0.012094 0.008470 0.014793
v 0.011312 0.009252 0.016668
v 0.009906 0.007845 0.002134
v 0.009437 0.006907 0.002760
f 292 301 306 
f 290 291 296 
f 291 292 296 
f 290 296 299 
f 296 295 299 
f 296 292 300 
f 293 296 300 
f 294 289 301 
f 289 295 301 
f 298 294 301 
f 292 298 301 
f 299 295 302 
f 291 290 303 
f 297 291 303 
f 294 297 303 
f 290 299 303 
f 292 291 304 
f 291 297 304 
f 297 294 304 
f 294 298 304 
f 298 292 304 
f 289 294 305 
f 295 289 305 
f 302 295 305 
f 299 302 305 
f 294 303 305 
f 303 299 305 
f 296 293 306 
f 295 296 306 
f 300 292 306 
f 293 300 306 
f 301 295 306 
o convex_20
v 0.010687 0.002686 -0.005529
v 0.008655 0.002060 -0.017567
v 0.006935 0.005812 -0.017567
v 0.009280 0.002686 -0.006311
v 0.009436 0.005812 -0.005687
v 0.009123 0.003468 -0.017567
v 0.008499 0.004718 -0.005842
v 0.008186 0.005656 -0.017252
v 0.008499 0.002060 -0.015845
v 0.010687 0.002060 -0.005529
v 0.008655 0.005969 -0.006155
v 0.009905 0.002060 -0.011937
v 0.007561 0.005969 -0.017567
v 0.006935 0.005812 -0.016940
v 0.009280 0.005969 -0.005529
v 0.009124 0.002530 -0.017409
v 0.010061 0.002060 -0.006937
v 0.009593 0.002842 -0.005529
f 321 313 324 
f 308 309 312 
f 311 307 312 
f 311 312 314 
f 309 308 315 
f 310 313 315 
f 315 308 316 
f 312 307 318 
f 307 316 318 
f 316 308 318 
f 312 309 319 
f 314 312 319 
f 317 319 320 
f 309 315 320 
f 315 313 320 
f 313 317 320 
f 319 309 320 
f 307 311 321 
f 311 314 321 
f 316 307 321 
f 317 313 321 
f 314 319 321 
f 319 317 321 
f 308 312 322 
f 318 308 322 
f 312 318 322 
f 310 315 323 
f 316 310 323 
f 315 316 323 
f 313 310 324 
f 310 316 324 
f 316 321 324 
o convex_21
v 0.002871 -0.009977 -0.011625
v 0.006310 -0.008727 -0.006468
v 0.006153 -0.008727 -0.005999
v 0.004590 -0.008727 -0.010843
v 0.002714 -0.008727 -0.001933
v 0.004278 -0.009665 -0.004436
v 0.005997 -0.009196 -0.012095
v 0.002714 -0.009665 -0.012095
v 0.004121 -0.009977 -0.011000
v 0.006310 -0.008727 -0.012095
v 0.002714 -0.009821 -0.008499
v 0.004434 -0.009196 -0.003184
v 0.006310 -0.008883 -0.006468
v 0.002714 -0.008727 -0.003497
v 0.004434 -0.008883 -0.012095
v 0.002714 -0.008883 -0.001933
f 330 336 340 
f 327 326 328 
f 327 328 329 
f 331 325 332 
f 330 325 333 
f 325 331 333 
f 328 326 334 
f 331 332 334 
f 325 330 335 
f 332 325 335 
f 329 332 335 
f 327 329 336 
f 336 330 337 
f 326 327 337 
f 330 333 337 
f 333 331 337 
f 334 326 337 
f 331 334 337 
f 327 336 337 
f 329 328 338 
f 332 329 338 
f 332 338 339 
f 328 334 339 
f 334 332 339 
f 338 328 339 
f 329 335 340 
f 335 330 340 
f 336 329 340 
o convex_22
v -0.002602 0.005656 0.020423
v -0.005415 0.002842 0.019485
v -0.005415 0.002842 0.019641
v -0.000413 0.002842 0.020266
v -0.000413 0.008626 0.019485
v -0.004165 0.002842 0.020579
v -0.002758 0.007844 0.019797
v -0.000413 0.007844 0.020110
v -0.000413 0.002842 0.020110
v -0.002602 0.007376 0.020266
v -0.002914 0.007688 0.019485
v -0.001038 0.002999 0.020423
f 344 348 352 
f 343 342 344 
f 343 344 346 
f 344 345 348 
f 344 342 349 
f 345 344 349 
f 342 345 349 
f 346 341 350 
f 343 346 350 
f 347 343 350 
f 345 347 350 
f 341 348 350 
f 348 345 350 
f 342 343 351 
f 345 342 351 
f 343 347 351 
f 347 345 351 
f 341 346 352 
f 346 344 352 
f 348 341 352 
o convex_23
v -0.002758 0.010659 -0.023507
v -0.000413 0.010971 -0.013189
v -0.000725 0.011128 -0.013971
v -0.002758 0.009877 -0.013189
v -0.000413 0.009877 -0.022725
v -0.002288 0.011441 -0.014284
v -0.001976 0.010815 -0.023194
v -0.001507 0.010034 -0.013189
v -0.000725 0.010346 -0.023194
v -0.002758 0.010971 -0.015536
v -0.001819 0.011441 -0.016005
v -0.002758 0.010503 -0.023038
v -0.000413 0.010659 -0.013971
v -0.002758 0.010815 -0.023507
f 363 359 366 
f 354 355 358 
f 356 354 358 
f 354 356 360 
f 356 357 360 
f 355 354 361 
f 357 353 361 
f 354 357 361 
f 353 356 362 
f 356 358 362 
f 358 355 363 
f 355 361 363 
f 361 359 363 
f 356 353 364 
f 353 357 364 
f 357 356 364 
f 357 354 365 
f 354 360 365 
f 360 357 365 
f 361 353 366 
f 359 361 366 
f 353 362 366 
f 362 358 366 
f 358 363 366 
o convex_24
v -0.003696 0.008157 -0.003497
v -0.002914 0.008627 0.001348
v -0.003070 0.008627 0.002443
v -0.004477 0.009721 -0.006777
v -0.003227 0.009252 -0.013189
v -0.005103 0.008627 -0.013189
v -0.004633 0.008627 0.002912
v -0.003540 0.009721 -0.004592
v -0.003383 0.008783 -0.013189
v -0.004321 0.008939 0.002912
v -0.004633 0.009252 -0.013189
v -0.004633 0.008314 -0.000840
v -0.003227 0.008157 -0.000996
v -0.004790 0.009408 -0.005684
v -0.002914 0.008470 -0.002715
v -0.003227 0.009564 -0.004281
v -0.004477 0.009721 -0.004592
f 370 380 383 
f 371 370 374 
f 367 372 375 
f 372 371 375 
f 373 369 376 
f 369 374 376 
f 370 371 377 
f 371 372 377 
f 372 367 378 
f 373 372 378 
f 373 378 379 
f 368 369 379 
f 369 373 379 
f 367 375 379 
f 378 367 379 
f 372 373 380 
f 370 377 380 
f 377 372 380 
f 371 368 381 
f 375 371 381 
f 368 379 381 
f 379 375 381 
f 369 368 382 
f 368 371 382 
f 374 369 382 
f 371 374 382 
f 374 370 383 
f 373 376 383 
f 376 374 383 
f 380 373 383 
o convex_25
v -0.000413 -0.003568 0.020579
v 0.011781 0.006438 0.019485
v 0.012875 -0.000284 0.019954
v 0.012094 -0.003568 0.019641
v 0.000057 0.006281 0.019798
v -0.000099 0.004561 0.020266
v 0.000995 -0.003568 0.020735
v 0.008497 0.006281 0.019329
v 0.012094 -0.003568 0.020110
v -0.000413 -0.002629 0.020423
v -0.000413 0.006438 0.020110
v 0.011781 0.003622 0.019329
v 0.013345 -0.000597 0.019641
v -0.000255 -0.002316 0.020735
v 0.012247 -0.002004 0.020110
v 0.011781 0.006438 0.019329
v 0.000370 0.006438 0.020110
f 389 398 400 
f 384 387 390 
f 387 388 391 
f 390 387 392 
f 387 384 393 
f 388 387 393 
f 393 384 394 
f 388 393 394 
f 387 391 395 
f 385 386 396 
f 386 392 396 
f 392 387 396 
f 387 395 396 
f 384 390 397 
f 389 394 397 
f 394 384 397 
f 392 386 398 
f 390 392 398 
f 389 397 398 
f 397 390 398 
f 391 388 399 
f 394 385 399 
f 388 394 399 
f 395 391 399 
f 385 396 399 
f 396 395 399 
f 386 385 400 
f 385 394 400 
f 394 389 400 
f 398 386 400 
o convex_26
v 0.015221 0.004249 0.018860
v 0.011782 -0.000285 0.019641
v 0.013658 -0.000285 0.017921
v 0.011782 0.008939 0.017921
v 0.011782 0.008782 0.019172
v 0.013502 -0.000127 0.019797
v 0.015377 0.003624 0.017921
v 0.014595 0.003779 0.019641
v 0.014439 0.006280 0.018703
v 0.012407 -0.000128 0.019954
v 0.011782 0.007374 0.017921
v 0.011782 0.006593 0.019485
v 0.014439 0.006280 0.017921
v 0.015064 0.002843 0.019016
v 0.013970 0.005968 0.019485
v 0.013814 -0.000285 0.019172
f 407 414 416 
f 404 402 405 
f 403 404 407 
f 404 405 409 
f 402 406 410 
f 406 408 410 
f 403 402 411 
f 404 403 411 
f 402 404 411 
f 405 402 412 
f 402 410 412 
f 410 408 412 
f 407 404 413 
f 401 407 413 
f 404 409 413 
f 409 401 413 
f 407 401 414 
f 401 408 414 
f 408 406 414 
f 408 401 415 
f 409 405 415 
f 401 409 415 
f 405 412 415 
f 412 408 415 
f 402 403 416 
f 406 402 416 
f 403 407 416 
f 414 406 416 
o convex_27
v -0.012450 0.003311 -0.025068
v -0.009481 0.005812 -0.016629
v -0.009637 0.005812 -0.016629
v -0.010888 0.007063 -0.025537
v -0.014013 0.002999 -0.023507
v -0.010575 0.002999 -0.017100
v -0.009481 0.006750 -0.025383
v -0.012294 0.003311 -0.017412
v -0.014013 0.002842 -0.026007
v -0.011825 0.004718 -0.018977
v -0.009637 0.005655 -0.023506
v -0.011981 0.002842 -0.016786
v -0.013544 0.004093 -0.026321
v -0.009481 0.007063 -0.024600
v -0.010888 0.007063 -0.025067
v -0.010262 0.003468 -0.016629
v -0.010731 0.002842 -0.017100
v -0.012137 0.004249 -0.026007
v -0.009481 0.005500 -0.018975
v -0.014013 0.003155 -0.023819
v -0.011356 0.005969 -0.022098
v -0.009637 0.006281 -0.018662
f 430 431 438 
f 424 419 426 
f 417 423 427 
f 419 424 428 
f 424 421 428 
f 421 425 428 
f 420 423 429 
f 418 423 430 
f 423 420 430 
f 420 429 431 
f 430 420 431 
f 418 419 432 
f 422 427 432 
f 419 428 432 
f 432 428 433 
f 425 417 433 
f 427 422 433 
f 417 427 433 
f 428 425 433 
f 422 432 433 
f 423 417 434 
f 417 425 434 
f 429 423 434 
f 425 429 434 
f 423 418 435 
f 427 423 435 
f 418 432 435 
f 432 427 435 
f 421 424 436 
f 425 421 436 
f 424 426 436 
f 429 425 436 
f 431 429 436 
f 431 436 437 
f 426 419 437 
f 419 431 437 
f 436 426 437 
f 419 418 438 
f 418 430 438 
f 431 419 438 
o convex_28
v -0.006041 -0.011541 -0.018505
v -0.013076 -0.010916 -0.022726
v -0.013076 -0.010603 -0.022726
v -0.005884 -0.013729 -0.022726
v -0.009636 -0.012010 -0.019130
v -0.009324 -0.010603 -0.018505
v -0.007292 -0.011229 -0.019913
v -0.006510 -0.013573 -0.020849
v -0.011199 -0.012010 -0.022569
v -0.011669 -0.010603 -0.022100
v -0.005884 -0.011854 -0.018505
v -0.005884 -0.012010 -0.020225
v -0.009793 -0.012322 -0.020068
v -0.006823 -0.013729 -0.022726
v -0.011355 -0.011541 -0.020537
v -0.008699 -0.010603 -0.018661
f 445 448 454 
f 440 441 442 
f 442 441 448 
f 441 444 448 
f 444 443 449 
f 439 444 449 
f 446 442 449 
f 443 446 449 
f 445 439 450 
f 442 448 450 
f 448 445 450 
f 439 449 450 
f 449 442 450 
f 446 443 451 
f 451 447 452 
f 440 442 452 
f 442 446 452 
f 447 440 452 
f 446 451 452 
f 441 440 453 
f 443 444 453 
f 444 441 453 
f 440 447 453 
f 451 443 453 
f 447 451 453 
f 444 439 454 
f 439 445 454 
f 448 444 454 
o convex_29
v 0.001151 0.010503 -0.010529
v 0.003965 0.011597 0.012604
v 0.003652 0.011753 0.012604
v 0.001151 0.010815 0.012602
v 0.003965 0.010503 0.003694
v 0.001932 0.012066 0.009946
v 0.001151 0.011284 -0.003806
v 0.003965 0.010659 0.001038
v 0.001151 0.010503 0.005413
v 0.002714 0.012066 0.010258
v 0.001307 0.010659 -0.010529
v 0.002089 0.010815 0.012602
v 0.001151 0.011128 0.012602
v 0.003965 0.011284 0.012133
v 0.001932 0.012066 0.011821
f 461 467 469 
f 456 457 458 
f 455 458 461 
f 459 455 462 
f 456 459 462 
f 458 455 463 
f 455 459 463 
f 457 456 464 
f 461 460 464 
f 456 462 464 
f 464 462 465 
f 455 461 465 
f 462 455 465 
f 461 464 465 
f 456 458 466 
f 458 463 466 
f 463 459 466 
f 458 457 467 
f 461 458 467 
f 459 456 468 
f 456 466 468 
f 466 459 468 
f 460 461 469 
f 457 464 469 
f 464 460 469 
f 467 457 469 
o convex_30
v -0.016358 -0.002630 -0.026633
v -0.012450 0.002842 -0.021944
v -0.012764 0.002842 -0.021944
v -0.014795 -0.003255 -0.021944
v -0.015577 -0.001222 -0.022883
v -0.014014 0.002686 -0.026477
v -0.014170 0.002842 -0.023977
v -0.014638 -0.002786 -0.023195
v -0.015577 -0.001691 -0.026790
v -0.016515 -0.003099 -0.025071
v -0.012450 0.002686 -0.022413
v -0.016358 -0.003255 -0.026477
v -0.014327 0.002529 -0.026477
v -0.013858 0.002842 -0.023039
v -0.014327 0.001435 -0.026477
v -0.016202 -0.003255 -0.023977
v -0.014483 -0.001222 -0.021944
f 472 474 486 
f 471 472 473 
f 472 471 476 
f 471 475 476 
f 476 470 479 
f 474 476 479 
f 471 473 480 
f 475 471 480 
f 473 477 480 
f 477 473 481 
f 478 477 481 
f 470 478 481 
f 479 470 481 
f 470 476 482 
f 476 475 482 
f 475 478 482 
f 478 470 482 
f 474 472 483 
f 472 476 483 
f 476 474 483 
f 478 475 484 
f 477 478 484 
f 475 480 484 
f 480 477 484 
f 473 474 485 
f 474 479 485 
f 481 473 485 
f 479 481 485 
f 473 472 486 
f 474 473 486 
o convex_31
v -0.013232 -0.006225 -0.015848
v -0.014170 -0.008727 -0.022100
v -0.013858 -0.008727 -0.022100
v -0.014639 -0.006225 -0.022100
v -0.014326 -0.006695 -0.016317
v -0.013076 -0.008727 -0.016160
v -0.013389 -0.007476 -0.021787
v -0.014952 -0.006851 -0.021943
v -0.013545 -0.008727 -0.016629
v -0.013076 -0.006225 -0.016160
v -0.014483 -0.006225 -0.016942
f 494 491 497 
f 489 488 490 
f 488 489 492 
f 487 491 492 
f 492 489 493 
f 489 490 493 
f 490 488 494 
f 491 494 495 
f 488 492 495 
f 492 491 495 
f 494 488 495 
f 490 487 496 
f 487 492 496 
f 492 493 496 
f 493 490 496 
f 487 490 497 
f 491 487 497 
f 490 494 497 
o convex_32
v -0.012763 -0.008570 -0.016627
v -0.010418 -0.006225 -0.003810
v -0.010575 -0.006225 -0.003810
v -0.012919 -0.006225 -0.016003
v -0.010418 -0.007944 -0.012718
v -0.012606 -0.006695 -0.010064
v -0.010575 -0.007320 -0.004749
v -0.010731 -0.006225 -0.009281
v -0.010418 -0.008727 -0.012406
v -0.013075 -0.008727 -0.016158
v -0.011669 -0.007632 -0.015690
v -0.010887 -0.007007 -0.004281
v -0.011825 -0.008727 -0.013033
v -0.012606 -0.006225 -0.010375
v -0.012606 -0.006225 -0.015690
v -0.013075 -0.006225 -0.015533
v -0.012137 -0.008727 -0.016003
v -0.010418 -0.007632 -0.012250
f 508 512 515 
f 500 499 501 
f 501 499 505 
f 502 499 506 
f 499 504 506 
f 501 498 507 
f 498 501 508 
f 502 506 508 
f 499 500 509 
f 504 499 509 
f 503 507 509 
f 509 507 510 
f 506 504 510 
f 507 506 510 
f 504 509 510 
f 500 501 511 
f 509 500 511 
f 503 509 511 
f 501 505 512 
f 508 501 512 
f 501 507 513 
f 507 503 513 
f 511 501 513 
f 503 511 513 
f 506 507 514 
f 507 498 514 
f 498 508 514 
f 508 506 514 
f 499 502 515 
f 505 499 515 
f 502 508 515 
f 512 505 515 
o convex_33
v 0.007248 0.002529 -0.021162
v 0.007561 0.005969 -0.017567
v 0.006779 0.005969 -0.017567
v 0.008655 0.002060 -0.017567
v 0.008967 0.003311 -0.018974
v 0.006466 0.005655 -0.021319
v 0.006310 0.004405 -0.019443
v 0.008185 0.005343 -0.018974
v 0.009124 0.003468 -0.017567
v 0.007248 0.002373 -0.019287
v 0.005997 0.005969 -0.021006
v 0.007561 0.002060 -0.021006
v 0.006310 0.004093 -0.021006
v 0.008811 0.002060 -0.018505
v 0.007405 0.003780 -0.021006
f 527 516 530 
f 517 518 519 
f 517 519 524 
f 523 517 524 
f 520 523 524 
f 519 518 525 
f 518 522 525 
f 518 517 526 
f 522 518 526 
f 517 523 526 
f 523 521 526 
f 519 525 527 
f 525 516 527 
f 521 516 528 
f 516 525 528 
f 525 522 528 
f 526 521 528 
f 522 526 528 
f 524 519 529 
f 520 524 529 
f 519 527 529 
f 527 520 529 
f 516 521 530 
f 523 520 530 
f 521 523 530 
f 520 527 530 
o convex_34
v -0.000569 -0.008570 0.002757
v -0.002289 -0.008727 -0.001464
v -0.003070 -0.008727 -0.001308
v -0.005259 -0.006851 0.002131
v -0.005259 -0.008727 0.001350
v -0.001351 -0.008570 -0.001308
v -0.004790 -0.006851 0.002757
v -0.001038 -0.008727 0.002757
v -0.005259 -0.008570 0.000412
v -0.003070 -0.008258 -0.001151
v -0.005102 -0.007164 0.002757
f 538 537 541 
f 533 532 535 
f 536 534 537 
f 531 536 537 
f 535 532 538 
f 532 536 538 
f 536 531 538 
f 531 537 538 
f 535 534 539 
f 533 535 539 
f 532 533 540 
f 536 532 540 
f 534 536 540 
f 533 539 540 
f 539 534 540 
f 534 535 541 
f 537 534 541 
f 535 538 541 
o convex_35
v -0.006979 -0.006225 0.002757
v -0.000413 -0.007476 0.015264
v -0.000413 -0.007788 0.015264
v -0.000413 -0.008570 0.002914
v -0.001038 -0.008727 0.003539
v -0.004164 -0.006382 0.015264
v -0.006040 -0.006225 0.003383
v -0.003540 -0.006225 0.014794
v -0.006666 -0.006538 0.002914
v -0.000569 -0.007945 0.014481
v -0.001820 -0.007945 0.002914
v -0.000413 -0.008727 0.005415
v -0.001038 -0.008727 0.002757
f 553 546 554 
f 543 544 545 
f 544 543 547 
f 547 543 549 
f 542 547 549 
f 548 542 549 
f 547 542 550 
f 547 550 551 
f 544 547 551 
f 550 546 551 
f 543 545 552 
f 542 548 552 
f 548 549 552 
f 549 543 552 
f 545 544 553 
f 544 551 553 
f 551 546 553 
f 550 542 554 
f 546 550 554 
f 552 545 554 
f 542 552 554 
f 545 553 554 
o convex_36
v 0.003965 -0.007320 0.019641
v -0.004165 -0.006382 0.015264
v -0.001820 -0.007320 0.015577
v 0.003965 -0.007476 0.015889
v 0.000369 -0.005756 0.019641
v -0.002913 -0.006382 0.019328
v -0.000100 -0.007789 0.016046
v 0.000369 -0.006069 0.016984
v -0.001350 -0.007163 0.018859
v 0.002088 -0.006695 0.015889
v -0.004165 -0.006225 0.015264
v -0.000569 -0.007789 0.015264
v 0.003808 -0.007476 0.019484
v -0.001350 -0.006538 0.019797
v 0.003965 -0.007163 0.019172
v 0.003965 -0.007632 0.015889
v -0.003694 -0.006225 0.018077
v -0.003694 -0.006382 0.018077
f 571 556 572 
f 562 559 564 
f 562 564 565 
f 559 562 565 
f 564 558 565 
f 557 556 566 
f 563 557 566 
f 561 563 566 
f 556 565 566 
f 565 558 566 
f 563 561 567 
f 563 567 568 
f 555 559 568 
f 559 560 568 
f 560 563 568 
f 567 555 568 
f 555 558 569 
f 559 555 569 
f 558 564 569 
f 564 559 569 
f 558 555 570 
f 566 558 570 
f 561 566 570 
f 555 567 570 
f 567 561 570 
f 560 559 571 
f 565 556 571 
f 559 565 571 
f 556 557 572 
f 557 563 572 
f 563 560 572 
f 560 571 572 
o convex_37
v -0.004789 -0.005756 0.017922
v -0.005414 -0.002786 0.020110
v -0.005414 -0.002786 0.019953
v -0.000413 -0.005600 0.019953
v -0.004633 -0.003881 0.017609
v -0.004477 -0.005600 0.019641
v -0.007135 -0.003099 0.017609
v -0.003540 -0.006225 0.017609
v -0.006978 -0.003099 0.019328
v -0.000413 -0.006225 0.019328
v -0.001976 -0.006225 0.019797
v -0.005414 -0.003724 0.020110
v -0.006978 -0.002786 0.017609
v -0.001038 -0.005913 0.020110
v -0.003851 -0.006225 0.018703
f 583 578 587 
f 575 574 576 
f 575 576 577 
f 573 579 580 
f 579 577 580 
f 573 578 581 
f 579 573 581 
f 577 576 582 
f 580 577 582 
f 580 582 583 
f 574 581 584 
f 581 578 584 
f 574 575 585 
f 575 577 585 
f 577 579 585 
f 581 574 585 
f 579 581 585 
f 576 574 586 
f 582 576 586 
f 583 582 586 
f 578 583 586 
f 584 578 586 
f 574 584 586 
f 578 573 587 
f 573 580 587 
f 580 583 587 
o convex_38
v -0.003695 -0.002785 0.021048
v -0.005572 -0.003567 0.020110
v -0.005572 -0.003567 0.020267
v -0.004321 0.002842 0.020267
v -0.000413 -0.005756 0.020110
v -0.000413 0.002842 0.020110
v -0.000413 -0.004974 0.020892
v -0.000726 0.002842 0.020423
v -0.004321 0.001591 0.020735
v -0.005103 -0.003567 0.020892
v -0.000413 -0.003724 0.020892
v -0.000882 -0.005756 0.020267
f 594 597 599 
f 589 590 591 
f 592 589 593 
f 589 591 593 
f 592 593 594 
f 593 591 595 
f 591 590 596 
f 588 595 596 
f 595 591 596 
f 594 588 597 
f 588 596 597 
f 596 590 597 
f 588 594 598 
f 594 593 598 
f 595 588 598 
f 593 595 598 
f 590 589 599 
f 589 592 599 
f 592 594 599 
f 597 590 599 
o convex_39
v 0.006935 0.006907 -0.008494
v 0.014439 0.006282 0.017921
v 0.014439 0.005969 0.017921
v 0.007092 0.006125 -0.017723
v 0.008499 0.005969 -0.006624
v 0.010687 0.006750 0.011352
v 0.013031 0.006907 0.017293
v 0.006935 0.006438 -0.008808
v 0.012563 0.005969 0.012915
v 0.013813 0.006594 0.016198
v 0.007873 0.006907 -0.006624
v 0.012406 0.006907 0.017921
v 0.014282 0.005969 0.014949
v 0.006935 0.005969 -0.017723
v 0.008187 0.006907 -0.000058
v 0.014282 0.006125 0.014949
v 0.012406 0.006750 0.017921
v 0.007717 0.006125 -0.015218
v 0.006935 0.005969 -0.014750
f 613 604 618 
f 605 607 608 
f 604 602 608 
f 607 604 608 
f 606 601 609 
f 606 609 610 
f 603 600 610 
f 600 606 610 
f 602 601 611 
f 606 600 611 
f 601 606 611 
f 601 602 612 
f 602 604 612 
f 600 603 613 
f 607 600 613 
f 612 604 613 
f 600 607 614 
f 607 605 614 
f 611 600 614 
f 605 611 614 
f 609 601 615 
f 601 612 615 
f 605 608 616 
f 608 602 616 
f 602 611 616 
f 611 605 616 
f 610 609 617 
f 603 610 617 
f 613 603 617 
f 612 613 617 
f 609 615 617 
f 615 612 617 
f 604 607 618 
f 607 613 618 
o convex_40
v -0.002757 0.007845 0.013857
v -0.000569 0.008626 0.019485
v -0.000725 0.008626 0.019485
v -0.003227 0.006750 0.019485
v -0.001351 0.007532 0.016045
v -0.002757 0.008626 0.013857
v -0.002757 0.008001 0.019485
v -0.003383 0.006750 0.013857
v -0.001038 0.008626 0.015264
v -0.000725 0.007845 0.019485
v -0.003383 0.007063 0.018234
v -0.002914 0.006750 0.019328
f 623 628 630 
f 620 621 622 
f 621 620 624 
f 622 621 625 
f 621 624 625 
f 624 619 626 
f 624 620 627 
f 619 624 627 
f 626 619 627 
f 623 626 627 
f 620 622 628 
f 627 620 628 
f 623 627 628 
f 622 625 629 
f 625 624 629 
f 626 622 629 
f 624 626 629 
f 626 623 630 
f 622 626 630 
f 628 622 630 
o convex_41
v -0.006197 0.009877 -0.024602
v -0.005103 0.008783 -0.016003
v -0.005103 0.008626 -0.016003
v -0.006979 0.008626 -0.018505
v -0.005259 0.008783 -0.023194
v -0.006979 0.008626 -0.024445
v -0.005103 0.010033 -0.024132
v -0.006510 0.009408 -0.018036
v -0.006510 0.010033 -0.024289
v -0.005103 0.009252 -0.017255
v -0.005416 0.010190 -0.024132
f 640 637 641 
f 633 632 634 
f 635 633 636 
f 633 634 636 
f 636 631 637 
f 632 633 637 
f 633 635 637 
f 635 636 637 
f 634 632 638 
f 636 634 639 
f 631 636 639 
f 634 638 639 
f 632 637 640 
f 638 632 640 
f 638 640 641 
f 637 631 641 
f 639 638 641 
f 631 639 641 
o convex_42
v 0.011625 -0.000285 -0.000526
v 0.009437 -0.004975 -0.006311
v 0.009437 -0.004506 -0.006311
v 0.009593 -0.004975 0.003538
v 0.011000 -0.000441 -0.006154
v 0.011156 -0.000754 0.003538
v 0.009906 -0.004975 0.003695
v 0.011469 -0.000598 -0.005685
v 0.011312 -0.001536 0.003695
v 0.009906 -0.004349 -0.006311
v 0.009906 -0.003880 0.003538
v 0.009906 -0.004975 0.001818
v 0.011469 -0.000285 0.003695
v 0.011312 -0.000285 -0.006311
f 646 654 655 
f 644 643 645 
f 645 643 648 
f 649 642 650 
f 643 644 651 
f 644 645 652 
f 646 644 652 
f 647 646 652 
f 645 648 652 
f 648 643 653 
f 650 648 653 
f 649 650 653 
f 643 651 653 
f 651 649 653 
f 646 647 654 
f 648 650 654 
f 650 642 654 
f 647 652 654 
f 652 648 654 
f 644 646 655 
f 642 649 655 
f 651 644 655 
f 649 651 655 
f 654 642 655 
o convex_43
v -0.010731 0.002842 -0.012096
v -0.011981 -0.000754 -0.012565
v -0.011981 -0.000441 -0.013034
v -0.010574 0.002685 -0.016315
v -0.011981 0.002842 -0.017098
v -0.010887 0.001435 -0.012096
v -0.011981 -0.000128 -0.012252
v -0.011356 0.002060 -0.016628
v -0.011825 -0.000754 -0.012565
v -0.011981 0.001904 -0.015065
f 660 662 665 
f 656 659 660 
f 658 657 660 
f 659 656 661 
f 660 657 662 
f 661 656 662 
f 660 659 663 
f 658 660 663 
f 657 658 664 
f 659 661 664 
f 662 657 664 
f 661 662 664 
f 658 663 664 
f 663 659 664 
f 656 660 665 
f 662 656 665 
o convex_44
v 0.004122 -0.007632 0.016984
v 0.011312 -0.003568 0.019641
v 0.011312 -0.003568 0.019484
v 0.011938 -0.004350 0.015889
v 0.004591 -0.006381 0.015889
v 0.004435 -0.007319 0.019641
v 0.004903 -0.006069 0.019641
v 0.011938 -0.004194 0.019328
v 0.010530 -0.004037 0.015889
v 0.010687 -0.003568 0.019484
v 0.003965 -0.007632 0.015889
v 0.010217 -0.005131 0.018390
v 0.003965 -0.007163 0.019641
v 0.010217 -0.004975 0.019641
v 0.008029 -0.006069 0.015889
v 0.004279 -0.007476 0.019484
f 677 679 681 
f 671 667 672 
f 668 667 673 
f 669 668 673 
f 668 669 674 
f 669 670 674 
f 667 668 675 
f 672 667 675 
f 670 672 675 
f 668 674 675 
f 674 670 675 
f 670 669 676 
f 669 673 677 
f 672 670 678 
f 671 672 678 
f 670 676 678 
f 667 671 679 
f 673 667 679 
f 677 673 679 
f 666 676 680 
f 676 669 680 
f 677 666 680 
f 669 677 680 
f 676 666 681 
f 666 677 681 
f 671 678 681 
f 678 676 681 
f 679 671 681 
o convex_45
v 0.013657 0.005343 0.013700
v 0.012564 0.002060 0.006196
v 0.011938 0.003311 0.006196
v 0.012407 0.005969 0.006196
v 0.012407 0.004874 0.013387
v 0.014596 0.002060 0.013230
v 0.012564 0.002060 0.009948
v 0.013345 0.003937 0.006822
v 0.012407 0.005969 0.012136
v 0.013345 0.002842 0.013700
v 0.014439 0.002217 0.011199
v 0.011938 0.004874 0.006510
v 0.013345 0.005969 0.013700
v 0.012876 0.002373 0.006196
v 0.014283 0.002060 0.013700
v 0.012095 0.005969 0.006196
f 693 690 697 
f 683 684 685 
f 684 683 688 
f 686 684 688 
f 683 687 688 
f 685 682 689 
f 686 688 691 
f 687 683 692 
f 682 687 692 
f 689 682 692 
f 684 686 693 
f 686 690 693 
f 682 685 694 
f 685 690 694 
f 690 686 694 
f 691 682 694 
f 686 691 694 
f 683 685 695 
f 685 689 695 
f 692 683 695 
f 689 692 695 
f 687 682 696 
f 688 687 696 
f 682 691 696 
f 691 688 696 
f 685 684 697 
f 690 685 697 
f 684 693 697 
o convex_46
v 0.013345 -0.001066 0.019640
v 0.011938 -0.004349 0.015889
v 0.011938 -0.003568 0.008231
v 0.013032 -0.000441 0.019640
v 0.013501 -0.000597 0.008231
v 0.012564 -0.003724 0.019172
v 0.011938 -0.003724 0.019640
v 0.013814 -0.000441 0.018703
v 0.013188 -0.000441 0.008231
v 0.012251 -0.003568 0.008231
v 0.011938 -0.003255 0.008231
v 0.012564 -0.003724 0.017140
v 0.013501 -0.000285 0.008231
f 702 706 710 
f 703 698 704 
f 700 699 704 
f 698 701 704 
f 699 703 704 
f 701 698 705 
f 698 703 705 
f 702 700 706 
f 699 700 707 
f 700 702 707 
f 700 704 708 
f 704 701 708 
f 706 700 708 
f 701 706 708 
f 703 699 709 
f 702 705 709 
f 705 703 709 
f 699 707 709 
f 707 702 709 
f 701 705 710 
f 705 702 710 
f 706 701 710 
o convex_47
v -0.000254 -0.005444 0.020735
v 0.012407 -0.003568 0.019798
v 0.012407 -0.003568 0.019641
v 0.004434 -0.007319 0.019641
v -0.000413 -0.005756 0.019641
v 0.004121 -0.007006 0.020735
v -0.000413 -0.003568 0.020735
v 0.009591 -0.003724 0.020423
v 0.003809 -0.005912 0.020892
v 0.000838 -0.003568 0.020423
v -0.000413 -0.006225 0.019798
v -0.000413 -0.003881 0.020892
v 0.012093 -0.004037 0.019798
v 0.010530 -0.003568 0.019641
v 0.012093 -0.003568 0.020110
v 0.004278 -0.007319 0.020266
v 0.003966 -0.006538 0.020892
f 725 718 727 
f 712 713 717 
f 717 713 720 
f 715 717 720 
f 715 714 721 
f 716 711 721 
f 717 715 721 
f 717 721 722 
f 718 717 722 
f 719 718 722 
f 721 711 722 
f 713 712 723 
f 714 713 723 
f 713 714 724 
f 714 715 724 
f 720 713 724 
f 715 720 724 
f 712 717 725 
f 717 718 725 
f 723 712 725 
f 716 723 725 
f 721 714 726 
f 716 721 726 
f 714 723 726 
f 723 716 726 
f 711 716 727 
f 718 719 727 
f 722 711 727 
f 719 722 727 
f 716 725 727 
o convex_48
v 0.010687 0.005969 -0.000057
v 0.010531 0.002060 -0.005529
v 0.010062 0.002999 -0.005529
v 0.011156 0.002843 0.001975
v 0.012407 0.002217 0.000881
v 0.011156 0.003780 -0.005215
v 0.008968 0.005969 -0.005529
v 0.010374 0.005656 0.001975
v 0.010374 0.005812 -0.004902
v 0.010375 0.004561 0.001662
v 0.010531 0.002060 -0.003807
v 0.012407 0.002060 0.001975
v 0.012094 0.002060 -0.001777
v 0.010687 0.005969 0.001975
v 0.008968 0.005812 -0.005372
v 0.010062 0.005656 -0.005529
f 734 736 743 
f 729 730 734 
f 728 732 736 
f 732 733 736 
f 734 728 736 
f 731 735 737 
f 730 729 738 
f 731 737 738 
f 735 731 739 
f 738 729 739 
f 731 738 739 
f 729 733 740 
f 733 732 740 
f 732 739 740 
f 739 729 740 
f 732 728 741 
f 728 734 741 
f 734 735 741 
f 739 732 741 
f 735 739 741 
f 734 730 742 
f 735 734 742 
f 737 735 742 
f 730 738 742 
f 738 737 742 
f 733 729 743 
f 729 734 743 
f 736 733 743 
o convex_49
v -0.013700 -0.004193 -0.014284
v -0.009168 -0.003255 0.005102
v -0.009324 -0.003255 0.005102
v -0.009324 -0.005287 0.004318
v -0.009793 -0.003881 -0.002245
v -0.013544 -0.004662 -0.010530
v -0.009949 -0.005287 -0.002245
v -0.012919 -0.003255 -0.014284
v -0.013075 -0.003255 -0.009904
v -0.013388 -0.004975 -0.014284
v -0.010418 -0.003255 0.002442
v -0.009793 -0.004974 0.004631
v -0.013544 -0.004975 -0.011468
v -0.009168 -0.005287 0.003068
v -0.011669 -0.004193 -0.009748
v -0.009168 -0.003255 0.004007
v -0.011200 -0.005287 -0.003498
f 755 756 760 
f 746 745 751 
f 744 749 752 
f 746 751 752 
f 751 744 752 
f 744 751 753 
f 752 749 754 
f 746 752 754 
f 745 746 755 
f 747 745 755 
f 746 754 755 
f 754 749 755 
f 749 744 756 
f 744 753 756 
f 755 749 756 
f 745 747 757 
f 747 750 757 
f 750 748 757 
f 748 750 758 
f 751 748 758 
f 750 753 758 
f 753 751 758 
f 748 751 759 
f 751 745 759 
f 745 757 759 
f 757 748 759 
f 750 747 760 
f 753 750 760 
f 747 755 760 
f 756 753 760 
o convex_50
v -0.014795 -0.003255 -0.021944
v -0.012294 0.002842 -0.018348
v -0.012607 0.002842 -0.018348
v -0.012607 0.002842 -0.021944
v -0.014795 -0.002473 -0.018348
v -0.014482 -0.001379 -0.021944
v -0.014639 -0.003255 -0.018348
v -0.012607 0.001904 -0.021475
v -0.014482 -0.002786 -0.021944
v -0.013545 -0.000597 -0.018348
f 769 768 770 
f 763 762 764 
f 762 763 765 
f 765 763 766 
f 763 764 766 
f 764 761 766 
f 761 765 766 
f 765 761 767 
f 762 765 767 
f 764 762 768 
f 761 764 769 
f 767 761 769 
f 764 768 769 
f 762 767 770 
f 768 762 770 
f 767 769 770 
o convex_51
v -0.000413 0.006438 0.019954
v 0.011782 0.008626 0.019329
v 0.011782 0.008626 0.019016
v -0.000413 0.008626 0.019641
v 0.011625 0.007376 0.018860
v 0.011782 0.006438 0.019485
v 0.000056 0.008157 0.020110
v 0.000056 0.006438 0.019797
v 0.011469 0.008626 0.019485
v 0.000213 0.006438 0.020110
v 0.010843 0.006438 0.019172
v -0.000413 0.008626 0.019954
f 777 779 782 
f 772 773 774 
f 774 773 775 
f 775 773 776 
f 773 772 776 
f 771 774 778 
f 774 775 778 
f 776 771 778 
f 772 774 779 
f 776 772 779 
f 777 776 779 
f 771 776 780 
f 777 771 780 
f 776 777 780 
f 775 776 781 
f 778 775 781 
f 776 778 781 
f 774 771 782 
f 771 777 782 
f 779 774 782 
o convex_52
v 0.003966 0.008626 0.019485
v 0.004280 0.012066 0.018547
v 0.004435 0.011909 0.019172
v 0.011782 0.008783 0.017921
v -0.000413 0.009721 0.017921
v 0.011782 0.008783 0.019328
v 0.000058 0.009721 0.019954
v 0.000370 0.011440 0.017921
v -0.000413 0.008627 0.019954
v 0.004591 0.011440 0.019641
v 0.004747 0.011909 0.017921
v 0.011782 0.009096 0.018547
v 0.010529 0.008626 0.019485
v -0.000413 0.008627 0.019641
v -0.000099 0.010190 0.019485
v 0.003966 0.011909 0.019172
f 790 797 798 
f 786 787 790 
f 788 785 792 
f 790 784 793 
f 786 790 793 
f 784 785 794 
f 785 788 794 
f 788 786 794 
f 793 784 794 
f 786 793 794 
f 783 786 795 
f 786 788 795 
f 791 783 795 
f 789 791 795 
f 788 792 795 
f 792 789 795 
f 786 783 796 
f 787 786 796 
f 783 791 796 
f 791 787 796 
f 790 787 797 
f 787 791 797 
f 791 789 797 
f 785 784 798 
f 784 790 798 
f 792 785 798 
f 789 792 798 
f 797 789 798 
o convex_53
v 0.009280 -0.000285 -0.010533
v 0.008499 -0.003255 -0.020379
v 0.008967 -0.003255 -0.020379
v 0.009124 -0.000285 -0.020536
v 0.009593 -0.003255 -0.015063
v 0.008342 -0.002473 -0.016941
v 0.009593 -0.000754 -0.008030
v 0.009593 -0.000285 -0.014908
v 0.008655 -0.002785 -0.014752
v 0.008186 -0.002473 -0.020536
v 0.009280 -0.000754 -0.020693
v 0.008967 -0.000285 -0.019910
v 0.009436 -0.000285 -0.008030
v 0.009593 -0.003255 -0.016315
v 0.008499 -0.001692 -0.016783
f 804 811 813 
f 800 801 803 
f 802 799 806 
f 805 803 806 
f 800 803 807 
f 804 800 807 
f 803 805 807 
f 801 800 808 
f 800 804 808 
f 802 806 809 
f 801 808 809 
f 808 802 809 
f 799 802 810 
f 802 808 810 
f 806 799 811 
f 805 806 811 
f 804 807 811 
f 807 805 811 
f 803 801 812 
f 806 803 812 
f 801 809 812 
f 809 806 812 
f 808 804 813 
f 799 810 813 
f 810 808 813 
f 811 799 813 
o convex_54
v -0.008854 -0.008727 -0.011625
v -0.006197 -0.008570 -0.004435
v -0.006197 -0.008727 -0.004435
v -0.010418 -0.007007 -0.004435
v -0.010105 -0.007633 -0.011625
v -0.010418 -0.008727 -0.012250
v -0.009793 -0.007633 -0.004435
v -0.006979 -0.008570 -0.008500
v -0.006823 -0.008727 -0.004435
v -0.010105 -0.007007 -0.004592
v -0.010418 -0.007789 -0.012563
f 818 821 824 
f 816 815 817 
f 814 816 819 
f 816 817 820 
f 817 819 820 
f 816 814 821 
f 815 816 821 
f 819 816 822 
f 816 820 822 
f 820 819 822 
f 817 815 823 
f 818 817 823 
f 815 821 823 
f 821 818 823 
f 817 818 824 
f 814 819 824 
f 819 817 824 
f 821 814 824 
o convex_55
v -0.007135 0.001747 0.017609
v -0.004321 -0.002473 0.021048
v -0.004634 0.000028 0.020891
v -0.006197 -0.001378 0.020735
v -0.007135 -0.002786 0.017609
v -0.004321 0.002842 0.020110
v -0.006197 -0.001066 0.017609
v -0.007291 0.000653 0.019328
v -0.006978 -0.002786 0.019328
v -0.006353 0.002842 0.017609
v -0.006353 0.002842 0.019172
v -0.004321 -0.002786 0.020735
v -0.004478 0.002373 0.020579
v -0.005884 -0.000597 0.020891
v -0.007448 -0.000128 0.017609
v -0.004634 -0.002786 0.021048
f 838 828 840 
f 829 825 831 
f 828 832 833 
f 831 825 834 
f 830 831 834 
f 825 832 835 
f 834 825 835 
f 830 834 835 
f 830 826 836 
f 831 830 836 
f 829 831 836 
f 833 829 836 
f 827 826 837 
f 826 830 837 
f 830 835 837 
f 837 835 838 
f 826 827 838 
f 832 828 838 
f 835 832 838 
f 827 837 838 
f 825 829 839 
f 832 825 839 
f 829 833 839 
f 833 832 839 
f 828 833 840 
f 836 826 840 
f 833 836 840 
f 826 838 840 
o convex_56
v -0.002758 0.008626 0.004321
v -0.003383 0.006594 0.010104
v -0.003227 0.006594 0.010104
v -0.002758 0.008626 0.013857
v -0.003383 0.008626 0.002444
v -0.003383 0.007220 0.013857
v -0.002601 0.008314 0.013857
v -0.003227 0.007376 0.004477
v -0.003227 0.006594 0.013857
v -0.002758 0.008157 0.005571
v -0.002914 0.008626 0.013543
f 846 844 851 
f 844 841 845 
f 845 842 846 
f 844 846 847 
f 841 844 847 
f 843 842 848 
f 845 841 848 
f 842 845 848 
f 842 843 849 
f 846 842 849 
f 847 846 849 
f 843 847 849 
f 841 847 850 
f 847 843 850 
f 848 841 850 
f 843 848 850 
f 844 845 851 
f 845 846 851 
o convex_57
v -0.005884 0.003468 0.019328
v -0.006666 0.002842 0.013857
v -0.006666 0.003155 0.013857
v -0.003227 0.006594 0.013857
v -0.004321 0.003781 0.015890
v -0.003383 0.006750 0.019328
v -0.005728 0.005187 0.014013
v -0.005103 0.002842 0.019485
v -0.003227 0.005968 0.019485
v -0.006196 0.003937 0.018234
v -0.006509 0.002842 0.018547
v -0.003539 0.006750 0.013857
v -0.003852 0.005187 0.014013
v -0.003852 0.004406 0.019328
v -0.006353 0.002842 0.013857
v -0.003070 0.006750 0.019485
f 863 857 867 
f 853 854 855 
f 852 857 861 
f 858 854 861 
f 857 858 861 
f 854 853 862 
f 853 859 862 
f 859 852 862 
f 852 861 862 
f 861 854 862 
f 855 854 863 
f 854 858 863 
f 858 857 863 
f 855 856 864 
f 856 855 865 
f 859 856 865 
f 855 860 865 
f 860 859 865 
f 853 855 866 
f 859 853 866 
f 856 859 866 
f 855 864 866 
f 864 856 866 
f 857 852 867 
f 852 859 867 
f 860 855 867 
f 859 860 867 
f 855 863 867 
o convex_58
v -0.008229 0.002842 0.005415
v -0.011043 -0.003255 -0.002402
v -0.011043 -0.002630 -0.002402
v -0.008542 0.002529 -0.002402
v -0.010418 -0.003255 0.001038
v -0.009636 0.000497 0.005415
v -0.008855 0.002686 -0.002402
v -0.010887 -0.002317 0.001038
v -0.008699 0.002842 0.004476
v -0.010105 0.000027 -0.002245
v -0.009636 -0.000440 0.005415
v -0.010731 -0.003255 -0.001932
v -0.008229 0.002685 0.005415
v -0.010887 -0.003099 0.001038
v -0.010418 -0.003255 0.000255
f 880 872 882 
f 869 870 871 
f 871 870 874 
f 868 871 874 
f 870 869 875 
f 873 868 876 
f 868 874 876 
f 873 876 877 
f 874 870 877 
f 870 875 877 
f 875 873 877 
f 876 874 877 
f 868 873 878 
f 873 875 878 
f 869 871 879 
f 872 869 879 
f 871 868 880 
f 868 878 880 
f 878 872 880 
f 869 872 881 
f 875 869 881 
f 872 878 881 
f 878 875 881 
f 879 871 882 
f 872 879 882 
f 871 880 882 
o convex_59
v -0.005103 0.009721 -0.023975
v -0.002758 0.010033 -0.013190
v -0.002758 0.009565 -0.013190
v -0.005103 0.008783 -0.013190
v -0.004321 0.010502 -0.015223
v -0.002758 0.010815 -0.023662
v -0.003383 0.009565 -0.023350
v -0.004946 0.008626 -0.016629
v -0.003383 0.008783 -0.013659
v -0.005103 0.010033 -0.024132
v -0.002758 0.010659 -0.015066
v -0.005103 0.009096 -0.022724
v -0.003071 0.009721 -0.022568
v -0.004790 0.010033 -0.016003
f 887 892 896 
f 885 884 886 
f 886 884 887 
f 884 885 888 
f 886 890 891 
f 885 886 891 
f 890 889 891 
f 883 886 892 
f 887 888 892 
f 888 889 892 
f 889 883 892 
f 887 884 893 
f 884 888 893 
f 888 887 893 
f 886 883 894 
f 883 889 894 
f 889 890 894 
f 890 886 894 
f 888 885 895 
f 889 888 895 
f 885 891 895 
f 891 889 895 
f 886 887 896 
f 892 886 896 
o convex_60
v 0.008342 0.001122 -0.020850
v 0.010531 0.002060 -0.007405
v 0.010531 0.001435 -0.007405
v 0.008186 0.001122 -0.015378
v 0.009280 -0.000285 -0.020067
v 0.009593 -0.000285 -0.007563
v 0.008030 0.000185 -0.020535
v 0.007561 0.002060 -0.020692
v 0.010061 0.001747 -0.014438
v 0.010061 -0.000285 -0.007563
v 0.010218 0.002060 -0.007405
v 0.008342 0.002060 -0.020067
v 0.010218 0.000965 -0.013346
v 0.008186 0.000654 -0.015536
v 0.008811 -0.000285 -0.020379
f 903 897 911 
f 897 903 904 
f 899 902 906 
f 902 901 906 
f 899 898 907 
f 902 899 907 
f 900 902 907 
f 898 904 907 
f 904 900 907 
f 901 897 908 
f 904 898 908 
f 897 904 908 
f 898 905 908 
f 905 901 908 
f 898 899 909 
f 905 898 909 
f 901 905 909 
f 899 906 909 
f 906 901 909 
f 902 900 910 
f 903 902 910 
f 900 904 910 
f 904 903 910 
f 897 901 911 
f 901 902 911 
f 902 903 911 
o convex_61
v -0.001976 0.010972 0.001506
v -0.003227 0.008626 -0.003497
v -0.003227 0.009096 -0.013189
v -0.001976 0.009877 -0.013032
v -0.001976 0.009877 0.002132
v -0.002914 0.010033 -0.013189
v -0.003227 0.008783 0.002132
v -0.003227 0.009565 -0.004124
v -0.002914 0.008626 -0.003185
v -0.002445 0.010659 0.000881
v -0.001976 0.010190 -0.013189
v -0.002601 0.008939 0.002132
v -0.002132 0.010972 -0.001310
f 922 917 924 
f 915 912 916 
f 914 913 918 
f 916 912 918 
f 917 914 919 
f 914 918 919 
f 913 914 920 
f 914 915 920 
f 918 913 920 
f 918 912 921 
f 917 919 921 
f 919 918 921 
f 915 914 922 
f 912 915 922 
f 914 917 922 
f 915 916 923 
f 916 918 923 
f 920 915 923 
f 918 920 923 
f 921 912 924 
f 917 921 924 
f 912 922 924 
o convex_62
v -0.001038 0.010971 0.001506
v -0.001820 0.009721 -0.012720
v -0.001976 0.009877 -0.013189
v -0.000413 0.010971 -0.013189
v -0.000413 0.010190 -0.000370
v -0.001976 0.011128 0.001349
v -0.001976 0.010034 0.002132
v -0.000413 0.011284 -0.003810
v -0.001038 0.010971 -0.013189
v -0.001350 0.009721 -0.012720
v -0.000413 0.010659 0.002132
v -0.001976 0.010190 -0.013189
v -0.000569 0.011284 -0.008812
v -0.000413 0.010815 -0.013189
f 929 934 938 
f 927 926 931 
f 930 927 931 
f 929 928 932 
f 930 925 932 
f 928 927 933 
f 926 927 934 
f 931 926 934 
f 929 931 934 
f 925 930 935 
f 930 931 935 
f 931 929 935 
f 932 925 935 
f 929 932 935 
f 927 930 936 
f 930 933 936 
f 933 927 936 
f 932 928 937 
f 930 932 937 
f 933 930 937 
f 928 933 937 
f 927 928 938 
f 928 929 938 
f 934 927 938 
o convex_63
v -0.000569 0.010659 0.003072
v -0.000413 0.008939 0.019796
v -0.000413 0.008626 0.019796
v -0.003227 0.008627 0.003541
v -0.002288 0.010190 0.009792
v -0.000882 0.009408 0.003385
v -0.002758 0.008626 0.014637
v -0.000569 0.009877 0.018390
v -0.001819 0.010502 0.002133
v -0.002913 0.008627 0.002133
v -0.000413 0.010502 0.002133
v -0.000413 0.010502 0.010574
v -0.000882 0.008626 0.011980
v -0.002601 0.009721 0.002133
v -0.002758 0.008783 0.014637
v -0.003227 0.008783 0.003541
f 953 943 954 
f 941 940 945 
f 945 942 948 
f 940 941 949 
f 941 944 949 
f 947 939 949 
f 944 948 949 
f 948 947 949 
f 943 946 950 
f 946 940 950 
f 939 947 950 
f 947 943 950 
f 940 949 950 
f 949 939 950 
f 944 941 951 
f 941 945 951 
f 948 944 951 
f 945 948 951 
f 943 947 952 
f 947 948 952 
f 945 940 953 
f 942 945 953 
f 946 943 953 
f 940 946 953 
f 948 942 954 
f 943 952 954 
f 952 948 954 
f 942 953 954 
o convex_64
v 0.001463 -0.007320 0.005572
v 0.001307 -0.008727 0.002757
v 0.001307 -0.008570 0.002757
v -0.000413 -0.007476 0.015889
v -0.000413 -0.008570 0.003383
v 0.000682 -0.007945 0.015889
v 0.001463 -0.006694 0.015889
v 0.000525 -0.007476 0.004008
v -0.000413 -0.008727 0.005728
v 0.001463 -0.008727 0.003226
v 0.000994 -0.006694 0.015732
v 0.000213 -0.008101 0.015106
v -0.000413 -0.007945 0.014951
v 0.001463 -0.007007 0.015263
f 964 961 968 
f 957 956 959 
f 958 960 961 
f 955 957 962 
f 959 958 962 
f 957 959 962 
f 958 959 963 
f 959 956 963 
f 957 955 964 
f 956 957 964 
f 955 961 964 
f 963 956 964 
f 958 961 965 
f 961 955 965 
f 955 962 965 
f 962 958 965 
f 964 960 966 
f 963 964 966 
f 960 958 967 
f 958 963 967 
f 966 960 967 
f 963 966 967 
f 961 960 968 
f 960 964 968 
o convex_65
v 0.001620 -0.006694 0.014166
v 0.001776 -0.008727 -0.005216
v 0.001933 -0.008727 -0.005216
v 0.002870 -0.007633 0.014635
v 0.001463 -0.008727 0.003070
v 0.003027 -0.008570 -0.002400
v 0.003027 -0.007163 0.015263
v 0.003027 -0.008727 0.000568
v 0.001463 -0.006851 0.015889
v 0.001463 -0.007476 0.004634
v 0.002089 -0.006694 0.015418
v 0.001620 -0.008570 -0.005059
v 0.003027 -0.008258 0.007603
f 976 975 981 
f 970 971 973 
f 973 971 976 
f 971 974 976 
f 974 975 976 
f 973 972 977 
f 972 975 977 
f 977 969 978 
f 973 977 978 
f 975 974 979 
f 969 977 979 
f 977 975 979 
f 974 978 979 
f 978 969 979 
f 971 970 980 
f 970 973 980 
f 974 971 980 
f 973 978 980 
f 978 974 980 
f 972 973 981 
f 975 972 981 
f 973 976 981 
o convex_66
v 0.004746 -0.008727 -0.008655
v 0.005372 -0.007320 0.000568
v 0.005372 -0.007633 0.000568
v 0.003027 -0.008570 0.000568
v 0.003496 -0.007633 -0.002246
v 0.005372 -0.008570 -0.003654
v 0.003027 -0.008727 -0.002715
v 0.005215 -0.008570 -0.008812
v 0.005372 -0.007164 -0.000526
v 0.003652 -0.007476 0.000568
v 0.003183 -0.008727 0.000411
v 0.005372 -0.008727 -0.008343
f 987 992 993 
f 984 983 985 
f 983 984 987 
f 986 982 988 
f 985 986 988 
f 982 986 989 
f 983 987 990 
f 989 986 990 
f 990 986 991 
f 985 983 991 
f 986 985 991 
f 983 990 991 
f 984 985 992 
f 987 984 992 
f 985 988 992 
f 988 982 992 
f 982 989 993 
f 990 987 993 
f 989 990 993 
f 992 982 993 
o convex_67
v 0.009436 -0.005913 -0.001773
v 0.010062 -0.004975 0.015886
v 0.008499 -0.004975 0.015886
v 0.009436 -0.004975 -0.001773
v 0.008499 -0.006538 -0.001618
v 0.009749 -0.005444 0.014167
v 0.008499 -0.005288 0.015104
v 0.008499 -0.006225 -0.001773
v 0.010062 -0.005131 0.008228
v 0.009280 -0.006225 0.002445
v 0.009749 -0.004975 -0.001462
v 0.008499 -0.005288 0.009478
f 997 1001 1005 
f 996 995 997 
f 995 996 1000 
f 996 998 1000 
f 998 999 1000 
f 999 995 1000 
f 997 994 1001 
f 994 998 1001 
f 998 996 1001 
f 995 999 1002 
f 1002 999 1003 
f 998 994 1003 
f 999 998 1003 
f 994 1002 1003 
f 997 995 1004 
f 994 997 1004 
f 995 1002 1004 
f 1002 994 1004 
f 996 997 1005 
f 1001 996 1005 
o convex_68
v 0.010218 -0.003568 -0.006311
v 0.008968 -0.004975 -0.020224
v 0.008655 -0.003411 -0.020378
v 0.009280 -0.004975 -0.006311
v 0.009593 -0.003724 -0.020378
v 0.009905 -0.003255 -0.006311
v 0.009280 -0.004975 -0.020224
v 0.010062 -0.003255 -0.014126
v 0.009593 -0.004975 -0.006311
v 0.008655 -0.003255 -0.020224
f 1011 1013 1015 
f 1008 1007 1009 
f 1007 1008 1010 
f 1009 1006 1011 
f 1009 1007 1012 
f 1007 1010 1012 
f 1012 1010 1013 
f 1011 1006 1013 
f 1006 1012 1013 
f 1006 1009 1014 
f 1009 1012 1014 
f 1012 1006 1014 
f 1008 1009 1015 
f 1010 1008 1015 
f 1009 1011 1015 
f 1013 1010 1015 
o convex_69
v 0.011937 -0.003880 0.007915
v 0.013501 -0.000285 0.008229
v 0.013501 -0.000285 0.007290
v 0.011313 -0.000441 0.003695
v 0.009749 -0.004818 0.008229
v 0.009906 -0.004975 0.003695
v 0.012875 -0.001380 0.004946
v 0.011782 -0.000285 0.006196
v 0.012250 -0.003411 0.005727
v 0.009749 -0.004349 0.003695
v 0.011625 -0.004192 0.008229
v 0.011625 -0.000285 0.003695
v 0.012563 -0.002942 0.008229
v 0.010062 -0.004975 0.008229
v 0.010062 -0.003724 0.006977
f 1025 1020 1030 
f 1017 1018 1023 
f 1020 1017 1023 
f 1022 1018 1024 
f 1021 1022 1024 
f 1019 1021 1025 
f 1021 1020 1025 
f 1017 1020 1026 
f 1024 1016 1026 
f 1021 1024 1026 
f 1021 1019 1027 
f 1018 1022 1027 
f 1022 1021 1027 
f 1023 1018 1027 
f 1019 1023 1027 
f 1018 1017 1028 
f 1016 1024 1028 
f 1024 1018 1028 
f 1017 1026 1028 
f 1026 1016 1028 
f 1020 1021 1029 
f 1026 1020 1029 
f 1021 1026 1029 
f 1023 1019 1030 
f 1020 1023 1030 
f 1019 1025 1030 
o convex_70
v 0.000525 0.009721 -0.022254
v 0.003965 0.010503 0.001975
v 0.003808 0.010503 0.001975
v -0.000413 0.011284 -0.009440
v -0.000413 0.010971 -0.008659
v 0.003808 0.009721 -0.005063
v 0.003808 0.009877 -0.008344
v -0.000099 0.009721 -0.021785
v 0.000213 0.011284 -0.008970
v -0.000256 0.010190 -0.022411
v 0.003965 0.010503 -0.000684
v 0.003808 0.010346 0.001975
v 0.001464 0.009877 -0.018659
v -0.000413 0.009877 -0.022726
v 0.003965 0.009721 -0.007563
v -0.000413 0.011284 -0.008501
f 1035 1042 1046 
f 1036 1035 1038 
f 1031 1036 1038 
f 1034 1039 1040 
f 1039 1032 1041 
f 1037 1039 1041 
f 1032 1033 1042 
f 1035 1036 1042 
f 1036 1032 1042 
f 1039 1037 1043 
f 1040 1039 1043 
f 1031 1040 1043 
f 1035 1034 1044 
f 1031 1038 1044 
f 1038 1035 1044 
f 1034 1040 1044 
f 1040 1031 1044 
f 1032 1036 1045 
f 1036 1031 1045 
f 1041 1032 1045 
f 1037 1041 1045 
f 1031 1043 1045 
f 1043 1037 1045 
f 1033 1032 1046 
f 1034 1035 1046 
f 1032 1039 1046 
f 1039 1034 1046 
f 1042 1033 1046 
o convex_71
v 0.011469 -0.004818 0.008542
v 0.012407 -0.003568 0.015888
v 0.012251 -0.003568 0.015888
v 0.010219 -0.004975 0.015888
v 0.010375 -0.004193 0.008229
v 0.012094 -0.003568 0.008229
v 0.010531 -0.004037 0.015888
v 0.009749 -0.004975 0.008229
v 0.012094 -0.004349 0.015888
v 0.011782 -0.004818 0.009637
v 0.010062 -0.004506 0.015888
v 0.011782 -0.003568 0.008229
v 0.012251 -0.003881 0.009793
f 1055 1056 1059 
f 1048 1049 1050 
f 1049 1048 1052 
f 1050 1049 1053 
f 1051 1052 1054 
f 1052 1047 1054 
f 1048 1050 1055 
f 1047 1052 1056 
f 1054 1047 1056 
f 1050 1054 1056 
f 1055 1050 1056 
f 1050 1053 1057 
f 1053 1051 1057 
f 1054 1050 1057 
f 1051 1054 1057 
f 1049 1052 1058 
f 1052 1051 1058 
f 1053 1049 1058 
f 1051 1053 1058 
f 1052 1048 1059 
f 1048 1055 1059 
f 1056 1052 1059 
o convex_72
v 0.010375 -0.000285 -0.007405
v 0.012407 0.002060 0.001819
v 0.012250 0.002060 0.001819
v 0.011469 -0.000285 0.001819
v 0.010375 0.001904 -0.003965
v 0.011469 -0.000128 -0.006623
v 0.010531 0.002060 -0.007405
v 0.012250 0.001904 -0.002558
v 0.009906 -0.000285 -0.007248
v 0.012407 0.001278 0.000411
v 0.010375 0.001435 -0.003184
v 0.011625 -0.000285 -0.003963
v 0.010218 0.002060 -0.007405
v 0.011782 -0.000128 0.001819
f 1071 1069 1073 
f 1061 1062 1063 
f 1062 1061 1066 
f 1065 1060 1066 
f 1065 1066 1067 
f 1066 1061 1067 
f 1060 1063 1068 
f 1065 1067 1069 
f 1067 1061 1069 
f 1063 1062 1070 
f 1062 1064 1070 
f 1068 1063 1070 
f 1064 1068 1070 
f 1063 1060 1071 
f 1060 1065 1071 
f 1065 1069 1071 
f 1064 1062 1072 
f 1062 1066 1072 
f 1066 1060 1072 
f 1060 1068 1072 
f 1068 1064 1072 
f 1061 1063 1073 
f 1069 1061 1073 
f 1063 1071 1073 
o convex_73
v 0.005841 0.005969 -0.019283
v 0.007091 0.008314 -0.007094
v 0.007091 0.008157 -0.007094
v 0.004121 0.008314 -0.021160
v 0.006153 0.007063 -0.007720
v 0.006935 0.006125 -0.018191
v 0.005528 0.008001 -0.021473
v 0.006935 0.006438 -0.009284
v 0.005997 0.005969 -0.021472
v 0.006310 0.008314 -0.008033
v 0.005372 0.006282 -0.020379
v 0.005216 0.008314 -0.020065
v 0.007091 0.006907 -0.007563
v 0.006935 0.005969 -0.015219
v 0.004121 0.008157 -0.021631
v 0.006153 0.006751 -0.009284
v 0.005684 0.007844 -0.021317
f 1082 1080 1090 
f 1076 1075 1078 
f 1075 1077 1083 
f 1077 1078 1083 
f 1078 1075 1083 
f 1082 1074 1084 
f 1077 1075 1085 
f 1075 1080 1085 
f 1080 1077 1085 
f 1075 1076 1086 
f 1076 1078 1086 
f 1079 1075 1086 
f 1078 1081 1086 
f 1086 1081 1087 
f 1081 1074 1087 
f 1074 1082 1087 
f 1082 1079 1087 
f 1079 1086 1087 
f 1078 1077 1088 
f 1077 1080 1088 
f 1080 1082 1088 
f 1082 1084 1088 
f 1088 1084 1089 
f 1074 1081 1089 
f 1081 1078 1089 
f 1084 1074 1089 
f 1078 1088 1089 
f 1075 1079 1090 
f 1080 1075 1090 
f 1079 1082 1090 
o convex_74
v 0.000994 0.011597 0.017765
v -0.000413 0.009721 0.015576
v -0.000413 0.010346 0.004789
v 0.001151 0.010503 0.004789
v 0.000213 0.011597 0.015888
v -0.000256 0.009721 0.017921
v 0.001151 0.011284 0.017921
v 0.001151 0.010815 0.005258
v -0.000413 0.010815 0.007135
v -0.000413 0.010346 0.017452
v 0.001151 0.010503 0.007604
v 0.000994 0.010346 0.004789
v -0.000256 0.010815 0.005415
v 0.000057 0.011440 0.017295
f 1099 1100 1104 
f 1091 1096 1097 
f 1095 1091 1098 
f 1091 1097 1098 
f 1097 1094 1098 
f 1093 1092 1099 
f 1092 1096 1100 
f 1099 1092 1100 
f 1094 1097 1101 
f 1097 1096 1101 
f 1092 1093 1102 
f 1093 1094 1102 
f 1096 1092 1102 
f 1094 1101 1102 
f 1101 1096 1102 
f 1094 1093 1103 
f 1098 1094 1103 
f 1095 1098 1103 
f 1093 1099 1103 
f 1099 1095 1103 
f 1091 1095 1104 
f 1096 1091 1104 
f 1095 1099 1104 
f 1100 1096 1104 
o convex_75
v 0.003340 0.008470 -0.022255
v 0.010062 0.009721 0.017921
v 0.009592 0.009721 0.017921
v 0.000682 0.009721 -0.022882
v 0.009749 0.008627 0.003535
v 0.008186 0.008314 0.001034
v 0.000213 0.009564 -0.022099
v 0.005529 0.008470 -0.016935
v 0.009904 0.009408 0.017921
v 0.010062 0.008314 0.007597
v 0.010062 0.009721 0.016823
v 0.003653 0.008314 -0.021312
v 0.008341 0.009564 0.013228
v 0.009904 0.008314 0.003219
v 0.001933 0.009721 -0.018345
v 0.004434 0.008314 -0.021312
v 0.000213 0.009721 -0.022099
v 0.007560 0.008783 -0.004905
v 0.004434 0.008470 -0.021312
v 0.000526 0.009408 -0.022255
f 1116 1110 1124 
f 1107 1106 1108 
f 1106 1107 1113 
f 1106 1113 1114 
f 1113 1110 1114 
f 1108 1106 1115 
f 1106 1114 1115 
f 1114 1110 1116 
f 1111 1110 1117 
f 1113 1107 1117 
f 1110 1113 1117 
f 1112 1109 1118 
f 1109 1115 1118 
f 1115 1114 1118 
f 1114 1116 1118 
f 1108 1115 1119 
f 1116 1105 1120 
f 1112 1118 1120 
f 1118 1116 1120 
f 1107 1108 1121 
f 1108 1111 1121 
f 1111 1117 1121 
f 1117 1107 1121 
f 1109 1112 1122 
f 1115 1109 1122 
f 1112 1119 1122 
f 1119 1115 1122 
f 1105 1108 1123 
f 1108 1119 1123 
f 1119 1112 1123 
f 1120 1105 1123 
f 1112 1120 1123 
f 1108 1105 1124 
f 1110 1111 1124 
f 1111 1108 1124 
f 1105 1116 1124 
o convex_76
v -0.010887 -0.002317 0.001507
v -0.007917 -0.000441 0.008540
v -0.007917 -0.000754 0.008540
v -0.009793 -0.000441 0.001037
v -0.009168 -0.003255 0.003852
v -0.009011 -0.003255 0.008540
v -0.009793 -0.000441 0.005883
v -0.010730 -0.003255 0.001037
v -0.010730 -0.003099 0.003227
v -0.008855 -0.002473 0.003852
v -0.008699 -0.003255 0.007133
v -0.008230 -0.000754 0.006352
v -0.010418 -0.003255 0.001037
v -0.009011 -0.002317 0.008540
v -0.010106 -0.000597 0.001037
v -0.010106 -0.001067 0.005257
f 1138 1131 1140 
f 1127 1126 1130 
f 1126 1128 1131 
f 1129 1130 1132 
f 1132 1130 1133 
f 1125 1132 1133 
f 1127 1130 1135 
f 1130 1129 1135 
f 1134 1127 1135 
f 1129 1134 1135 
f 1126 1127 1136 
f 1128 1126 1136 
f 1127 1134 1136 
f 1134 1128 1136 
f 1132 1128 1137 
f 1129 1132 1137 
f 1128 1134 1137 
f 1134 1129 1137 
f 1130 1126 1138 
f 1126 1131 1138 
f 1125 1131 1139 
f 1131 1128 1139 
f 1132 1125 1139 
f 1128 1132 1139 
f 1131 1125 1140 
f 1133 1130 1140 
f 1125 1133 1140 
f 1130 1138 1140 
o convex_77
v 0.006623 -0.007788 -0.001777
v 0.005997 -0.008727 -0.012720
v 0.005997 -0.008570 -0.012720
v 0.008030 -0.007320 -0.012720
v 0.006935 -0.006695 -0.011468
v 0.005372 -0.007632 -0.001777
v 0.008030 -0.006069 -0.001777
v 0.006623 -0.008570 -0.003028
v 0.005372 -0.008727 -0.005060
v 0.008030 -0.007632 -0.012563
v 0.007248 -0.006226 -0.001777
v 0.008030 -0.006382 -0.001777
v 0.006466 -0.008727 -0.010374
v 0.005372 -0.008570 -0.007873
v 0.006623 -0.007007 -0.011781
v 0.008030 -0.006851 -0.011468
v 0.005372 -0.008257 -0.002246
f 1149 1148 1157 
f 1142 1143 1144 
f 1146 1141 1147 
f 1142 1144 1150 
f 1144 1147 1150 
f 1145 1146 1151 
f 1146 1147 1151 
f 1147 1145 1151 
f 1147 1141 1152 
f 1141 1148 1152 
f 1150 1147 1152 
f 1148 1150 1152 
f 1149 1142 1153 
f 1148 1149 1153 
f 1142 1150 1153 
f 1150 1148 1153 
f 1143 1142 1154 
f 1142 1149 1154 
f 1149 1146 1154 
f 1144 1143 1155 
f 1145 1144 1155 
f 1146 1145 1155 
f 1143 1154 1155 
f 1154 1146 1155 
f 1144 1145 1156 
f 1147 1144 1156 
f 1145 1147 1156 
f 1141 1146 1157 
f 1148 1141 1157 
f 1146 1149 1157 
o convex_78
v 0.004122 0.009721 -0.003651
v 0.009749 0.009877 0.017921
v 0.004747 0.011909 0.017921
v 0.004122 0.009877 -0.006936
v 0.003965 0.011753 0.017921
v 0.009123 0.009721 0.017921
v 0.004590 0.011909 0.016668
v 0.009749 0.009877 0.017294
v 0.003965 0.009721 -0.006936
v 0.003965 0.012066 0.017608
v 0.009749 0.009721 0.017294
v 0.008028 0.009721 0.013542
v 0.003965 0.011440 0.014792
f 1158 1169 1170 
f 1159 1160 1162 
f 1159 1162 1163 
f 1160 1159 1165 
f 1164 1160 1165 
f 1161 1164 1165 
f 1163 1158 1166 
f 1162 1160 1167 
f 1160 1164 1167 
f 1164 1161 1167 
f 1166 1162 1167 
f 1161 1166 1167 
f 1159 1163 1168 
f 1165 1159 1168 
f 1161 1165 1168 
f 1166 1161 1168 
f 1163 1166 1168 
f 1158 1163 1169 
f 1169 1163 1170 
f 1163 1162 1170 
f 1166 1158 1170 
f 1162 1166 1170 
o convex_79
v -0.009636 -0.007632 -0.003965
v -0.005259 -0.006695 0.002757
v -0.005572 -0.006538 0.002757
v -0.007292 -0.007945 0.001506
v -0.006198 -0.008727 -0.004435
v -0.010418 -0.006226 -0.004121
v -0.005260 -0.008727 0.001193
v -0.007449 -0.006226 -0.000839
v -0.007136 -0.006226 0.002600
v -0.010418 -0.007007 -0.003807
v -0.009167 -0.006226 -0.003496
v -0.006041 -0.008727 -0.000057
v -0.006198 -0.008570 -0.004435
v -0.006823 -0.008727 -0.004435
v -0.007449 -0.007632 0.001819
v -0.010262 -0.007320 -0.004435
v -0.005260 -0.008570 0.000099
v -0.005259 -0.006695 0.002444
f 1177 1187 1188 
f 1178 1176 1179 
f 1172 1173 1179 
f 1173 1178 1179 
f 1179 1176 1180 
f 1176 1178 1181 
f 1174 1171 1182 
f 1177 1174 1182 
f 1175 1177 1182 
f 1176 1181 1183 
f 1181 1178 1183 
f 1182 1171 1184 
f 1175 1182 1184 
f 1183 1175 1184 
f 1177 1172 1185 
f 1174 1177 1185 
f 1172 1179 1185 
f 1180 1174 1185 
f 1179 1180 1185 
f 1171 1174 1186 
f 1174 1180 1186 
f 1180 1176 1186 
f 1176 1183 1186 
f 1184 1171 1186 
f 1183 1184 1186 
f 1177 1175 1187 
f 1175 1183 1187 
f 1187 1183 1188 
f 1173 1172 1188 
f 1172 1177 1188 
f 1178 1173 1188 
f 1183 1178 1188 
o convex_80
v -0.007448 0.000028 0.017609
v -0.009011 -0.003255 0.008541
v -0.008698 -0.003255 0.008541
v -0.006823 -0.003255 0.017609
v -0.007760 0.000028 0.008541
v -0.006197 -0.000910 0.016983
v -0.007135 -0.003255 0.012763
v -0.008855 -0.002629 0.011824
v -0.007916 0.000028 0.014951
v -0.009011 -0.002317 0.008541
v -0.008073 -0.001223 0.016044
v -0.006197 -0.000441 0.017609
v -0.007135 -0.003255 0.017452
v -0.006979 -0.002317 0.012449
v -0.008073 -0.000128 0.008541
v -0.008855 -0.003099 0.011668
f 1201 1199 1204 
f 1190 1191 1192 
f 1191 1190 1193 
f 1192 1191 1195 
f 1194 1192 1195 
f 1189 1193 1197 
f 1193 1190 1198 
f 1190 1196 1198 
f 1196 1197 1198 
f 1197 1196 1199 
f 1189 1197 1199 
f 1189 1192 1200 
f 1193 1189 1200 
f 1194 1193 1200 
f 1192 1194 1200 
f 1190 1192 1201 
f 1192 1189 1201 
f 1189 1199 1201 
f 1191 1193 1202 
f 1193 1194 1202 
f 1195 1191 1202 
f 1194 1195 1202 
f 1197 1193 1203 
f 1193 1198 1203 
f 1198 1197 1203 
f 1196 1190 1204 
f 1199 1196 1204 
f 1190 1201 1204 
o convex_81
v -0.016358 -0.006225 -0.026947
v -0.010105 -0.005600 -0.003810
v -0.010105 -0.006225 -0.003810
v -0.011670 -0.005131 -0.004281
v -0.016045 -0.005131 -0.026630
v -0.016202 -0.006225 -0.022879
v -0.010732 -0.006069 -0.009594
v -0.011670 -0.004975 -0.008969
v -0.016515 -0.005131 -0.026319
v -0.010732 -0.006225 -0.004281
v -0.013387 -0.004975 -0.011470
v -0.014327 -0.005600 -0.022098
v -0.010732 -0.005756 -0.009594
v -0.014327 -0.006225 -0.021629
v -0.011044 -0.004975 -0.003810
v -0.014014 -0.005131 -0.019444
v -0.010732 -0.006225 -0.009438
f 1218 1211 1221 
f 1205 1207 1210 
f 1206 1207 1211 
f 1209 1205 1213 
f 1205 1210 1213 
f 1207 1208 1214 
f 1210 1207 1214 
f 1208 1210 1214 
f 1210 1208 1215 
f 1212 1209 1215 
f 1209 1213 1215 
f 1213 1210 1215 
f 1205 1209 1216 
f 1206 1211 1217 
f 1212 1206 1217 
f 1211 1216 1217 
f 1207 1205 1218 
f 1205 1216 1218 
f 1216 1211 1218 
f 1207 1206 1219 
f 1208 1207 1219 
f 1206 1212 1219 
f 1215 1208 1219 
f 1212 1215 1219 
f 1209 1212 1220 
f 1216 1209 1220 
f 1212 1217 1220 
f 1217 1216 1220 
f 1211 1207 1221 
f 1207 1218 1221 
o convex_82
v 0.000838 0.011440 -0.003809
v 0.000057 0.009877 -0.002245
v 0.000525 0.009877 -0.002245
v -0.000413 0.010659 0.004789
v -0.000413 0.011284 -0.008499
v 0.001151 0.010503 0.004789
v 0.001151 0.010659 -0.008499
v -0.000256 0.011597 -0.003653
v -0.000413 0.010034 -0.002245
v 0.001151 0.010815 0.003850
v -0.000413 0.010346 0.004789
v 0.000682 0.009877 -0.000527
v 0.001151 0.011284 -0.004747
v 0.000369 0.011284 -0.008341
v 0.001151 0.010346 0.004476
f 1232 1233 1236 
f 1224 1223 1228 
f 1226 1225 1229 
f 1225 1226 1230 
f 1228 1223 1230 
f 1226 1228 1230 
f 1225 1227 1231 
f 1227 1228 1231 
f 1222 1229 1231 
f 1229 1225 1231 
f 1227 1225 1232 
f 1230 1223 1232 
f 1225 1230 1232 
f 1223 1224 1233 
f 1224 1228 1233 
f 1232 1223 1233 
f 1222 1231 1234 
f 1231 1228 1234 
f 1228 1226 1235 
f 1229 1222 1235 
f 1226 1229 1235 
f 1222 1234 1235 
f 1234 1228 1235 
f 1228 1227 1236 
f 1227 1232 1236 
f 1233 1228 1236 
o convex_83
v 0.013032 0.002060 0.010730
v 0.011469 -0.000285 0.001819
v 0.011469 0.000028 0.001819
v 0.012563 0.001904 0.002289
v 0.013189 -0.000285 0.006507
v 0.011782 -0.000285 0.006352
v 0.012407 0.002060 0.009165
v 0.012251 0.002060 0.001819
v 0.012719 0.001278 0.010573
v 0.013189 0.002060 0.010417
v 0.011469 0.000028 0.004321
v 0.012407 0.001278 0.001819
v 0.013189 0.000966 0.010105
v 0.013189 0.000810 0.006821
f 1246 1241 1250 
f 1238 1241 1242 
f 1243 1237 1244 
f 1238 1239 1244 
f 1243 1242 1245 
f 1237 1243 1245 
f 1244 1237 1246 
f 1240 1244 1246 
f 1239 1238 1247 
f 1238 1242 1247 
f 1242 1243 1247 
f 1243 1244 1247 
f 1244 1239 1247 
f 1240 1241 1248 
f 1241 1238 1248 
f 1238 1244 1248 
f 1244 1240 1248 
f 1242 1241 1249 
f 1237 1245 1249 
f 1245 1242 1249 
f 1241 1246 1249 
f 1246 1237 1249 
f 1241 1240 1250 
f 1240 1246 1250 
o convex_84
v -0.009324 -0.006225 -0.003652
v -0.003540 -0.006069 0.017609
v -0.003540 -0.006225 0.017609
v -0.007759 -0.005287 0.010105
v -0.009792 -0.005287 -0.002400
v -0.010261 -0.006225 -0.003652
v -0.006510 -0.006069 0.003227
v -0.004634 -0.005287 0.016355
v -0.004478 -0.006069 0.017609
v -0.010887 -0.005287 -0.003495
v -0.006353 -0.005444 0.014950
v -0.007604 -0.006225 -0.000524
v -0.009479 -0.005444 0.003227
v -0.004791 -0.005287 0.017609
v -0.009010 -0.005913 -0.003495
v -0.004322 -0.006225 0.017294
v -0.007761 -0.005756 0.000726
v -0.004165 -0.006069 0.013699
f 1258 1252 1268 
f 1251 1253 1256 
f 1255 1254 1258 
f 1253 1252 1259 
f 1254 1255 1260 
f 1251 1256 1260 
f 1253 1251 1262 
f 1257 1253 1262 
f 1254 1260 1263 
f 1260 1256 1263 
f 1261 1254 1263 
f 1256 1261 1263 
f 1252 1258 1264 
f 1258 1254 1264 
f 1259 1252 1264 
f 1254 1261 1264 
f 1261 1259 1264 
f 1251 1260 1265 
f 1260 1255 1265 
f 1262 1251 1265 
f 1257 1262 1265 
f 1256 1253 1266 
f 1253 1259 1266 
f 1261 1256 1266 
f 1259 1261 1266 
f 1255 1258 1267 
f 1258 1257 1267 
f 1265 1255 1267 
f 1257 1265 1267 
f 1252 1253 1268 
f 1253 1257 1268 
f 1257 1258 1268 
o convex_85
v -0.012763 -0.002473 -0.006935
v -0.008543 0.002842 -0.002403
v -0.008699 0.002842 -0.002403
v -0.011043 -0.003255 -0.002403
v -0.008699 0.002685 -0.005841
v -0.011356 0.000654 -0.003497
v -0.010575 0.002842 -0.006935
v -0.011043 -0.003255 -0.005215
v -0.012137 -0.003255 -0.006935
v -0.011356 0.000341 -0.003029
v -0.010262 -0.001848 -0.002716
v -0.012607 -0.003098 -0.005997
v -0.009012 0.002842 -0.006310
v -0.008543 0.002685 -0.005059
v -0.010887 0.002060 -0.005215
v -0.011981 -0.001066 -0.004279
f 1280 1272 1284 
f 1270 1271 1272 
f 1271 1270 1275 
f 1273 1276 1277 
f 1269 1275 1277 
f 1276 1272 1277 
f 1272 1271 1278 
f 1271 1274 1278 
f 1270 1272 1279 
f 1272 1276 1279 
f 1269 1277 1280 
f 1277 1272 1280 
f 1275 1270 1281 
f 1273 1277 1281 
f 1277 1275 1281 
f 1276 1273 1282 
f 1270 1279 1282 
f 1279 1276 1282 
f 1281 1270 1282 
f 1273 1281 1282 
f 1274 1271 1283 
f 1269 1274 1283 
f 1271 1275 1283 
f 1275 1269 1283 
f 1274 1269 1284 
f 1272 1278 1284 
f 1278 1274 1284 
f 1269 1280 1284 
o convex_86
v -0.007291 -0.005131 0.010417
v -0.004477 -0.004037 0.017609
v -0.004477 -0.005131 0.017609
v -0.006978 -0.003412 0.017609
v -0.006197 -0.004037 0.011356
v -0.007291 -0.003255 0.012451
v -0.006353 -0.005287 0.015107
v -0.004791 -0.005287 0.015732
v -0.004477 -0.004349 0.015732
v -0.006666 -0.005287 0.010887
v -0.006510 -0.003255 0.017609
v -0.004791 -0.005287 0.017609
v -0.004791 -0.003881 0.016670
v -0.007291 -0.005287 0.010887
f 1294 1291 1298 
f 1287 1286 1288 
f 1289 1285 1290 
f 1286 1287 1293 
f 1287 1292 1293 
f 1293 1292 1294 
f 1285 1289 1294 
f 1292 1291 1294 
f 1289 1293 1294 
f 1288 1286 1295 
f 1290 1288 1295 
f 1287 1288 1296 
f 1288 1291 1296 
f 1292 1287 1296 
f 1291 1292 1296 
f 1289 1290 1297 
f 1286 1293 1297 
f 1293 1289 1297 
f 1295 1286 1297 
f 1290 1295 1297 
f 1288 1290 1298 
f 1290 1285 1298 
f 1291 1288 1298 
f 1285 1294 1298 
o convex_87
v -0.013076 -0.003255 -0.010062
v -0.010262 0.002842 -0.006936
v -0.010575 0.002842 -0.006936
v -0.010731 0.002842 -0.012094
v -0.012294 -0.003255 -0.007875
v -0.012450 -0.001535 -0.006936
v -0.010887 0.001435 -0.012094
v -0.012763 -0.003099 -0.012094
v -0.013076 -0.002942 -0.012094
v -0.012294 -0.003255 -0.006936
v -0.010887 0.002529 -0.009125
v -0.010418 0.002686 -0.011156
v -0.012763 -0.003099 -0.006936
f 1308 1304 1311 
f 1301 1300 1302 
f 1300 1301 1304 
f 1305 1303 1306 
f 1303 1299 1306 
f 1302 1305 1306 
f 1302 1306 1307 
f 1299 1304 1307 
f 1306 1299 1307 
f 1299 1303 1308 
f 1303 1300 1308 
f 1300 1304 1308 
f 1301 1302 1309 
f 1304 1301 1309 
f 1302 1307 1309 
f 1307 1304 1309 
f 1302 1300 1310 
f 1300 1303 1310 
f 1305 1302 1310 
f 1303 1305 1310 
f 1304 1299 1311 
f 1299 1308 1311 
o convex_88
v -0.005572 0.005499 0.012917
v -0.007917 0.000029 0.008542
v -0.007604 0.000029 0.008542
v -0.007448 0.000029 0.017609
v -0.005572 0.005343 0.004633
v -0.006822 0.003936 0.004947
v -0.007448 0.000967 0.017609
v -0.005572 0.004717 0.013855
v -0.005728 0.005812 0.011197
v -0.007291 0.000029 0.016983
v -0.006666 0.002843 0.017609
v -0.005728 0.005968 0.004633
v -0.007760 0.000341 0.015888
v -0.006354 0.002686 0.017609
v -0.006666 0.003624 0.004633
v -0.007917 0.000341 0.008699
v -0.006041 0.003936 0.006666
f 1319 1321 1328 
f 1313 1314 1315 
f 1316 1312 1319 
f 1315 1314 1321 
f 1317 1318 1322 
f 1318 1315 1322 
f 1312 1320 1322 
f 1320 1317 1322 
f 1312 1316 1323 
f 1320 1312 1323 
f 1317 1320 1323 
f 1313 1315 1324 
f 1318 1317 1324 
f 1315 1318 1324 
f 1319 1312 1325 
f 1315 1321 1325 
f 1321 1319 1325 
f 1322 1315 1325 
f 1312 1322 1325 
f 1314 1313 1326 
f 1316 1314 1326 
f 1313 1317 1326 
f 1323 1316 1326 
f 1317 1323 1326 
f 1317 1313 1327 
f 1313 1324 1327 
f 1324 1317 1327 
f 1314 1316 1328 
f 1316 1319 1328 
f 1321 1314 1328 
o convex_89
v -0.009636 0.004874 -0.010220
v -0.010887 0.002842 -0.016629
v -0.010574 0.002842 -0.016629
v -0.008855 0.002842 -0.006154
v -0.008230 0.005812 -0.016629
v -0.010574 0.002999 -0.007092
v -0.009793 0.005656 -0.016629
v -0.008230 0.004093 -0.006154
v -0.008230 0.004405 -0.013189
v -0.009480 0.005969 -0.014752
v -0.008542 0.003312 -0.008813
v -0.010106 0.003624 -0.006780
v -0.010106 0.002842 -0.006154
v -0.010106 0.004562 -0.010690
v -0.010887 0.003155 -0.016471
v -0.008230 0.005656 -0.014282
v -0.008230 0.005499 -0.016629
f 1333 1337 1345 
f 1330 1331 1332 
f 1331 1330 1333 
f 1333 1330 1335 
f 1333 1336 1337 
f 1333 1335 1338 
f 1329 1336 1338 
f 1332 1331 1339 
f 1336 1332 1339 
f 1331 1337 1339 
f 1337 1336 1339 
f 1336 1329 1340 
f 1330 1332 1341 
f 1334 1330 1341 
f 1332 1336 1341 
f 1340 1334 1341 
f 1336 1340 1341 
f 1329 1338 1342 
f 1338 1335 1342 
f 1334 1340 1342 
f 1340 1329 1342 
f 1330 1334 1343 
f 1335 1330 1343 
f 1334 1342 1343 
f 1342 1335 1343 
f 1336 1333 1344 
f 1333 1338 1344 
f 1338 1336 1344 
f 1331 1333 1345 
f 1337 1331 1345 
o convex_90
v 0.010844 0.005969 0.004164
v 0.012094 0.002060 0.001975
v 0.012407 0.002060 0.001975
v 0.012720 0.002060 0.006196
v 0.012407 0.005969 0.005571
v 0.011469 0.002998 0.006040
v 0.010375 0.005655 0.001975
v 0.011156 0.002842 0.001975
v 0.010687 0.005969 0.001975
v 0.012094 0.005969 0.006196
v 0.010375 0.004874 0.003539
v 0.012250 0.005655 0.004476
v 0.010531 0.005187 0.004164
v 0.012563 0.002217 0.002757
f 1357 1350 1359 
f 1347 1348 1349 
f 1347 1349 1351 
f 1348 1347 1352 
f 1347 1351 1353 
f 1352 1347 1353 
f 1346 1350 1354 
f 1348 1352 1354 
f 1352 1346 1354 
f 1350 1346 1355 
f 1349 1350 1355 
f 1351 1349 1355 
f 1353 1351 1356 
f 1352 1353 1356 
f 1354 1350 1357 
f 1348 1354 1357 
f 1346 1352 1358 
f 1355 1346 1358 
f 1351 1355 1358 
f 1356 1351 1358 
f 1352 1356 1358 
f 1349 1348 1359 
f 1350 1349 1359 
f 1348 1357 1359 
o convex_91
v -0.008230 0.008314 -0.022569
v -0.009480 0.005656 -0.017724
v -0.009323 0.005656 -0.017724
v -0.009480 0.006907 -0.025071
v -0.007448 0.006751 -0.020694
v -0.007292 0.007375 -0.016629
v -0.009167 0.007063 -0.017880
v -0.007292 0.008157 -0.024601
v -0.007917 0.005656 -0.016786
v -0.009323 0.006282 -0.023506
v -0.009011 0.008001 -0.024914
v -0.009480 0.005969 -0.016629
v -0.008699 0.008314 -0.022412
v -0.007292 0.007845 -0.024601
v -0.009480 0.006751 -0.018974
v -0.007292 0.008157 -0.021631
v -0.007292 0.006907 -0.016629
f 1373 1365 1376 
f 1361 1362 1368 
f 1362 1361 1369 
f 1361 1363 1369 
f 1368 1362 1369 
f 1364 1368 1369 
f 1367 1363 1370 
f 1363 1361 1371 
f 1365 1366 1371 
f 1361 1368 1371 
f 1366 1365 1372 
f 1360 1367 1372 
f 1367 1370 1372 
f 1363 1367 1373 
f 1367 1365 1373 
f 1369 1363 1373 
f 1364 1369 1373 
f 1370 1363 1374 
f 1363 1371 1374 
f 1371 1366 1374 
f 1366 1372 1374 
f 1372 1370 1374 
f 1367 1360 1375 
f 1365 1367 1375 
f 1360 1372 1375 
f 1372 1365 1375 
f 1368 1364 1376 
f 1365 1371 1376 
f 1371 1368 1376 
f 1364 1373 1376 
o convex_92
v -0.007291 0.007376 -0.014752
v -0.008229 0.003936 -0.007092
v -0.008229 0.004562 -0.013032
v -0.008229 0.005656 -0.013813
v -0.007448 0.006906 -0.007718
v -0.007291 0.005812 -0.006780
v -0.007604 0.005812 -0.015846
v -0.008073 0.005187 -0.006154
v -0.008229 0.005812 -0.016629
v -0.008073 0.003936 -0.007092
v -0.007291 0.006906 -0.016629
v -0.007448 0.007376 -0.016629
f 1377 1387 1388 
f 1379 1378 1380 
f 1377 1381 1382 
f 1380 1378 1384 
f 1381 1380 1384 
f 1382 1381 1384 
f 1379 1380 1385 
f 1380 1381 1385 
f 1383 1379 1385 
f 1378 1379 1386 
f 1379 1383 1386 
f 1383 1382 1386 
f 1384 1378 1386 
f 1382 1384 1386 
f 1377 1382 1387 
f 1382 1383 1387 
f 1383 1385 1387 
f 1387 1385 1388 
f 1381 1377 1388 
f 1385 1381 1388 
o convex_93
v 0.011000 -0.000441 -0.006311
v 0.009593 -0.003255 -0.015534
v 0.009749 -0.003255 -0.015534
v 0.010062 -0.003255 -0.006311
v 0.009593 -0.000285 -0.007406
v 0.010531 -0.001847 -0.013658
v 0.009593 -0.001223 -0.013814
v 0.011313 -0.000285 -0.006780
v 0.010218 -0.003255 -0.010999
v 0.011000 -0.001692 -0.006311
v 0.010531 -0.002473 -0.012875
v 0.010375 -0.001692 -0.014283
v 0.009593 -0.000910 -0.007718
v 0.009749 -0.000285 -0.008500
f 1396 1395 1402 
f 1390 1391 1392 
f 1392 1389 1393 
f 1390 1393 1395 
f 1393 1389 1396 
f 1392 1391 1397 
f 1392 1397 1398 
f 1389 1392 1398 
f 1396 1389 1398 
f 1391 1394 1399 
f 1394 1396 1399 
f 1397 1391 1399 
f 1398 1397 1399 
f 1396 1398 1399 
f 1391 1390 1400 
f 1394 1391 1400 
f 1390 1395 1400 
f 1395 1396 1400 
f 1396 1394 1400 
f 1390 1392 1401 
f 1392 1393 1401 
f 1393 1390 1401 
f 1395 1393 1402 
f 1393 1396 1402 
o convex_94
v -0.007604 0.004093 0.004789
v -0.009167 0.002842 -0.006154
v -0.008854 0.002842 -0.006154
v -0.007761 0.005812 -0.006154
v -0.008542 0.003155 0.004632
v -0.007604 0.002842 0.005412
v -0.007604 0.005343 -0.006154
v -0.007917 0.004874 0.003069
v -0.008542 0.002842 -0.005529
v -0.007761 0.005812 -0.003339
v -0.008386 0.002842 0.005569
v -0.009167 0.002999 -0.005997
v -0.007604 0.005031 0.003381
v -0.008073 0.003937 -0.006154
f 1408 1411 1416 
f 1405 1404 1406 
f 1404 1405 1408 
f 1403 1408 1409 
f 1405 1406 1409 
f 1408 1405 1411 
f 1409 1406 1412 
f 1407 1404 1413 
f 1404 1408 1413 
f 1408 1403 1413 
f 1410 1407 1413 
f 1406 1404 1414 
f 1404 1407 1414 
f 1407 1410 1414 
f 1412 1406 1414 
f 1410 1412 1414 
f 1403 1409 1415 
f 1409 1412 1415 
f 1412 1410 1415 
f 1413 1403 1415 
f 1410 1413 1415 
f 1409 1408 1416 
f 1405 1409 1416 
f 1411 1405 1416 
o convex_95
v -0.005572 0.006907 -0.005684
v -0.007604 0.002842 0.005414
v -0.007135 0.002842 0.005414
v -0.005728 0.005969 0.004633
v -0.007604 0.005969 -0.006154
v -0.007604 0.005187 0.003538
v -0.005884 0.005656 -0.005684
v -0.005728 0.005031 0.004162
v -0.007447 0.006125 -0.002714
v -0.006822 0.002842 0.006353
v -0.007604 0.005655 -0.006154
v -0.005572 0.005969 -0.004902
v -0.005572 0.006125 0.004162
v -0.006041 0.005656 -0.006154
v -0.007604 0.003312 0.005570
v -0.005884 0.004875 -0.000525
v -0.005728 0.006125 0.004162
f 1429 1417 1433 
f 1421 1418 1422 
f 1417 1421 1425 
f 1421 1422 1425 
f 1418 1419 1426 
f 1424 1420 1426 
f 1419 1418 1427 
f 1418 1421 1427 
f 1423 1417 1428 
f 1420 1424 1429 
f 1428 1417 1429 
f 1424 1428 1429 
f 1421 1417 1430 
f 1417 1423 1430 
f 1426 1419 1430 
f 1423 1426 1430 
f 1419 1427 1430 
f 1427 1421 1430 
f 1422 1418 1431 
f 1420 1422 1431 
f 1418 1426 1431 
f 1426 1420 1431 
f 1426 1423 1432 
f 1424 1426 1432 
f 1423 1428 1432 
f 1428 1424 1432 
f 1422 1420 1433 
f 1417 1425 1433 
f 1425 1422 1433 
f 1420 1429 1433 
o convex_96
v 0.007091 0.006907 -0.007874
v 0.009437 0.008314 0.002444
v 0.009280 0.008314 0.002444
v 0.009437 0.006907 0.002288
v 0.008030 0.007220 0.001506
v 0.007873 0.008314 -0.006936
v 0.007091 0.008314 -0.006936
v 0.008186 0.008314 0.001036
v 0.008030 0.007688 -0.006936
v 0.007873 0.006907 -0.006466
v 0.008186 0.006907 0.000881
v 0.009437 0.006907 0.001506
f 1443 1442 1445 
f 1435 1436 1437 
f 1437 1436 1438 
f 1436 1435 1439 
f 1439 1434 1440 
f 1434 1438 1440 
f 1436 1439 1440 
f 1436 1440 1441 
f 1438 1436 1441 
f 1440 1438 1441 
f 1439 1435 1442 
f 1434 1439 1442 
f 1437 1434 1443 
f 1434 1442 1443 
f 1434 1437 1444 
f 1438 1434 1444 
f 1437 1438 1444 
f 1435 1437 1445 
f 1442 1435 1445 
f 1437 1443 1445 
o convex_97
v 0.002402 0.010346 0.013388
v 0.003965 0.011910 0.017921
v 0.003652 0.011910 0.017921
v 0.003496 0.011753 0.012606
v 0.001151 0.011440 0.017921
v 0.003339 0.010815 0.017921
v 0.001151 0.011128 0.012606
v 0.003965 0.011440 0.012606
v 0.001307 0.011128 0.017921
v 0.002870 0.010346 0.014795
v 0.001151 0.010815 0.012606
v 0.001151 0.011440 0.015419
f 1452 1450 1457 
f 1448 1447 1449 
f 1447 1448 1450 
f 1447 1450 1451 
f 1449 1447 1453 
f 1447 1451 1453 
f 1452 1449 1453 
f 1451 1450 1454 
f 1453 1451 1455 
f 1446 1453 1455 
f 1454 1446 1455 
f 1451 1454 1455 
f 1450 1452 1456 
f 1453 1446 1456 
f 1452 1453 1456 
f 1446 1454 1456 
f 1454 1450 1456 
f 1448 1449 1457 
f 1450 1448 1457 
f 1449 1452 1457 
o convex_98
v -0.005103 0.008470 -0.006154
v -0.005572 0.005812 0.004006
v -0.005415 0.005812 0.004006
v -0.004946 0.007688 0.007134
v -0.004634 0.008157 -0.003339
v -0.005415 0.006438 -0.005372
v -0.004634 0.007376 0.004006
v -0.005572 0.006438 0.006821
v -0.005572 0.007219 -0.006154
v -0.004790 0.008626 0.002756
v -0.004634 0.007532 0.007134
v -0.004634 0.008626 -0.004903
v -0.005415 0.005812 0.007134
v -0.005103 0.008157 0.000724
f 1465 1467 1471 
f 1460 1459 1463 
f 1460 1463 1464 
f 1463 1462 1464 
f 1463 1459 1466 
f 1458 1463 1466 
f 1459 1465 1466 
f 1465 1461 1467 
f 1464 1462 1468 
f 1467 1461 1468 
f 1467 1468 1469 
f 1462 1463 1469 
f 1463 1458 1469 
f 1458 1467 1469 
f 1468 1462 1469 
f 1459 1460 1470 
f 1460 1464 1470 
f 1465 1459 1470 
f 1461 1465 1470 
f 1464 1468 1470 
f 1468 1461 1470 
f 1458 1466 1471 
f 1466 1465 1471 
f 1467 1458 1471 
o convex_99
v -0.005102 0.007376 0.007604
v -0.005572 0.005031 0.013388
v -0.005415 0.005031 0.013388
v -0.003539 0.006751 0.013857
v -0.003383 0.007219 0.004477
v -0.004634 0.008626 0.002444
v -0.005572 0.005656 0.007448
v -0.004165 0.005187 0.013700
v -0.003383 0.008626 0.003383
v -0.005259 0.006594 0.012449
v -0.003383 0.006282 0.013857
v -0.004477 0.008626 0.003539
v -0.003696 0.006125 0.008851
v -0.005572 0.006282 0.008073
v -0.005572 0.005344 0.013857
v -0.004634 0.007844 0.003226
v -0.003383 0.008470 0.002444
f 1487 1477 1488 
f 1474 1473 1478 
f 1474 1478 1479 
f 1473 1474 1479 
f 1477 1472 1481 
f 1480 1475 1482 
f 1476 1480 1482 
f 1475 1480 1483 
f 1480 1477 1483 
f 1481 1475 1483 
f 1477 1481 1483 
f 1478 1476 1484 
f 1479 1478 1484 
f 1482 1479 1484 
f 1476 1482 1484 
f 1472 1477 1485 
f 1477 1478 1485 
f 1478 1473 1485 
f 1481 1472 1485 
f 1481 1485 1486 
f 1473 1479 1486 
f 1475 1481 1486 
f 1482 1475 1486 
f 1479 1482 1486 
f 1485 1473 1486 
f 1476 1478 1487 
f 1478 1477 1487 
f 1480 1476 1488 
f 1477 1480 1488 
f 1476 1487 1488 
o convex_100
v 0.013501 0.003468 0.016670
v 0.014283 0.002060 0.013700
v 0.014595 0.002060 0.013700
v 0.013189 0.005969 0.013700
v 0.015377 0.004093 0.017921
v 0.014752 0.002060 0.017921
v 0.014283 0.005969 0.017921
v 0.014283 0.005969 0.014170
v 0.013345 0.002842 0.013700
v 0.013345 0.003155 0.016201
v 0.015377 0.003937 0.017452
v 0.014595 0.002060 0.017921
f 1489 1498 1500 
f 1491 1490 1492 
f 1490 1491 1494 
f 1492 1489 1495 
f 1494 1493 1495 
f 1495 1493 1496 
f 1491 1492 1496 
f 1492 1495 1496 
f 1492 1490 1497 
f 1489 1492 1498 
f 1492 1497 1498 
f 1494 1491 1499 
f 1493 1494 1499 
f 1496 1493 1499 
f 1491 1496 1499 
f 1490 1494 1500 
f 1495 1489 1500 
f 1494 1495 1500 
f 1497 1490 1500 
f 1498 1497 1500 
o convex_101
v -0.016984 -0.004818 -0.026789
v -0.012919 -0.003255 -0.014286
v -0.012919 -0.003568 -0.014286
v -0.014952 -0.003255 -0.023507
v -0.013858 -0.005131 -0.018974
v -0.014639 -0.003255 -0.017099
v -0.013702 -0.004975 -0.014286
v -0.016515 -0.003255 -0.024912
v -0.016358 -0.005131 -0.026789
v -0.016827 -0.004818 -0.025069
v -0.013545 -0.004349 -0.018974
v -0.016515 -0.003568 -0.026946
v -0.013233 -0.005131 -0.014286
v -0.015421 -0.004818 -0.019599
v -0.015734 -0.005131 -0.022099
v -0.016984 -0.004349 -0.025539
v -0.012919 -0.003255 -0.015379
v -0.015265 -0.004037 -0.024446
f 1509 1512 1518 
f 1502 1504 1506 
f 1503 1502 1507 
f 1502 1506 1507 
f 1506 1504 1508 
f 1501 1509 1510 
f 1505 1509 1511 
f 1508 1504 1512 
f 1509 1501 1512 
f 1503 1507 1513 
f 1509 1505 1513 
f 1505 1511 1513 
f 1507 1506 1514 
f 1514 1510 1515 
f 1510 1509 1515 
f 1513 1507 1515 
f 1509 1513 1515 
f 1507 1514 1515 
f 1506 1508 1516 
f 1501 1510 1516 
f 1512 1501 1516 
f 1508 1512 1516 
f 1514 1506 1516 
f 1510 1514 1516 
f 1502 1503 1517 
f 1504 1502 1517 
f 1511 1504 1517 
f 1503 1513 1517 
f 1513 1511 1517 
f 1504 1511 1518 
f 1511 1509 1518 
f 1512 1504 1518 
o convex_102
v -0.011981 0.002060 -0.015221
v -0.014795 -0.003255 -0.018347
v -0.014639 -0.003255 -0.018347
v -0.013076 -0.003255 -0.012096
v -0.013857 -0.000753 -0.013816
v -0.012763 -0.002785 -0.015690
v -0.012607 0.002842 -0.018347
v -0.011981 -0.000596 -0.012096
v -0.012294 0.002685 -0.018347
v -0.013076 0.000653 -0.013659
v -0.014795 -0.002785 -0.017409
v -0.011981 -0.001222 -0.012409
v -0.011981 0.002685 -0.017253
v -0.013076 -0.003255 -0.016002
v -0.014639 -0.003255 -0.016472
v -0.012920 0.001903 -0.015846
v -0.013857 -0.001065 -0.013503
v -0.014639 -0.002160 -0.018347
v -0.014013 -0.000753 -0.014910
v -0.012763 -0.003098 -0.012096
f 1532 1524 1538 
f 1520 1521 1522 
f 1521 1520 1525 
f 1521 1525 1527 
f 1526 1519 1528 
f 1519 1526 1530 
f 1525 1519 1531 
f 1524 1527 1531 
f 1527 1525 1531 
f 1530 1524 1531 
f 1519 1530 1531 
f 1522 1521 1532 
f 1527 1524 1532 
f 1521 1527 1532 
f 1520 1522 1533 
f 1529 1520 1533 
f 1519 1525 1534 
f 1528 1519 1534 
f 1523 1528 1534 
f 1522 1526 1535 
f 1528 1523 1535 
f 1526 1528 1535 
f 1523 1529 1535 
f 1533 1522 1535 
f 1529 1533 1535 
f 1525 1520 1536 
f 1520 1529 1536 
f 1529 1523 1537 
f 1534 1525 1537 
f 1523 1534 1537 
f 1525 1536 1537 
f 1536 1529 1537 
f 1526 1522 1538 
f 1524 1530 1538 
f 1530 1526 1538 
f 1522 1532 1538 
o convex_103
v 0.004434 -0.006851 0.008385
v 0.003027 -0.008570 0.000568
v 0.003027 -0.008414 0.000568
v 0.003027 -0.007320 0.015889
v 0.004121 -0.007632 0.015889
v 0.004434 -0.007632 0.000568
v 0.003652 -0.007476 0.000568
v 0.004434 -0.006694 0.015889
v 0.003340 -0.008570 0.002444
v 0.003027 -0.008101 0.010102
v 0.004277 -0.006694 0.011667
v 0.004434 -0.007164 0.015889
f 1544 1546 1550 
f 1541 1540 1542 
f 1540 1541 1544 
f 1544 1541 1545 
f 1541 1542 1545 
f 1539 1544 1545 
f 1542 1543 1546 
f 1544 1539 1546 
f 1540 1544 1547 
f 1544 1543 1547 
f 1542 1540 1548 
f 1543 1542 1548 
f 1540 1547 1548 
f 1547 1543 1548 
f 1545 1542 1549 
f 1539 1545 1549 
f 1546 1539 1549 
f 1542 1546 1549 
f 1543 1544 1550 
f 1546 1543 1550 
o convex_104
v 0.005372 -0.007789 -0.001772
v 0.007091 -0.005756 0.015884
v 0.007091 -0.006069 0.015884
v 0.004434 -0.006851 0.015889
v 0.005528 -0.006851 -0.000368
v 0.006779 -0.007632 -0.001618
v 0.007091 -0.006851 -0.001772
v 0.004434 -0.006538 0.013543
v 0.005997 -0.006851 0.014634
v 0.004434 -0.007789 0.000882
v 0.006622 -0.005756 0.015415
v 0.005059 -0.007789 0.001508
v 0.004434 -0.007476 0.000569
v 0.007091 -0.007320 -0.000992
v 0.004590 -0.006382 0.015889
v 0.005528 -0.007007 -0.001462
v 0.006154 -0.006695 0.015884
f 1559 1556 1567 
f 1556 1551 1557 
f 1552 1553 1557 
f 1554 1558 1560 
f 1552 1557 1561 
f 1557 1555 1561 
f 1555 1558 1561 
f 1551 1556 1562 
f 1559 1554 1562 
f 1556 1559 1562 
f 1560 1551 1562 
f 1554 1560 1562 
f 1558 1555 1563 
f 1551 1560 1563 
f 1560 1558 1563 
f 1553 1556 1564 
f 1556 1557 1564 
f 1557 1553 1564 
f 1553 1552 1565 
f 1554 1553 1565 
f 1558 1554 1565 
f 1552 1561 1565 
f 1561 1558 1565 
f 1557 1551 1566 
f 1555 1557 1566 
f 1551 1563 1566 
f 1563 1555 1566 
f 1553 1554 1567 
f 1556 1553 1567 
f 1554 1559 1567 
o convex_105
v -0.007291 -0.005287 0.010729
v -0.009167 -0.005287 0.003539
v -0.009167 -0.005131 0.003539
v -0.008542 -0.003255 0.011041
v -0.007917 -0.003881 0.005258
v -0.007291 -0.003255 0.012919
v -0.009167 -0.003255 0.004790
v -0.008073 -0.004974 0.010729
v -0.008073 -0.005287 0.005571
v -0.009167 -0.005287 0.004477
v -0.007291 -0.003568 0.011041
f 1572 1573 1578 
f 1569 1570 1572 
f 1573 1572 1574 
f 1570 1569 1574 
f 1572 1570 1574 
f 1571 1573 1574 
f 1568 1573 1575 
f 1573 1571 1575 
f 1568 1569 1576 
f 1572 1568 1576 
f 1569 1572 1576 
f 1569 1568 1577 
f 1574 1569 1577 
f 1571 1574 1577 
f 1568 1575 1577 
f 1575 1571 1577 
f 1568 1572 1578 
f 1573 1568 1578 
o convex_106
v 0.009593 -0.004975 -0.001777
v 0.008030 -0.008258 -0.014907
v 0.008186 -0.008258 -0.014907
v 0.009124 -0.004975 -0.020222
v 0.008030 -0.006225 -0.001777
v 0.008030 -0.007007 -0.020693
v 0.009280 -0.006225 -0.001777
v 0.008811 -0.005132 -0.020222
v 0.009280 -0.005132 -0.017566
v 0.008186 -0.007632 -0.020693
v 0.009280 -0.004975 -0.004437
v 0.008499 -0.006538 -0.001777
v 0.009436 -0.005913 -0.002873
v 0.008968 -0.004975 -0.015064
v 0.008186 -0.006538 -0.020850
f 1582 1588 1593 
f 1580 1583 1584 
f 1579 1583 1585 
f 1582 1579 1587 
f 1581 1580 1588 
f 1580 1584 1588 
f 1587 1581 1588 
f 1582 1587 1588 
f 1579 1582 1589 
f 1583 1579 1589 
f 1580 1581 1590 
f 1583 1580 1590 
f 1581 1585 1590 
f 1585 1583 1590 
f 1585 1581 1591 
f 1579 1585 1591 
f 1581 1587 1591 
f 1587 1579 1591 
f 1582 1586 1592 
f 1586 1583 1592 
f 1589 1582 1592 
f 1583 1589 1592 
f 1584 1583 1593 
f 1586 1582 1593 
f 1583 1586 1593 
f 1588 1584 1593 
