# vtk DataFile Version 2.0
rectangle, Created by Gmsh 4.15.0 
ASCII
DATASET UNSTRUCTURED_GRID
POINTS 34 double
-0.025 -0.0025 -0.0005
0.025 -0.0025 -0.0005
0.025 0.0025 -0.0005
-0.025 0.0025 -0.0005
-0.025 -0.0025 0.0005
0.025 -0.0025 0.0005
0.025 0.0025 0.0005
-0.025 0.0025 0.0005
-0.01500000000002304 -0.0025 -0.0005
-0.005000000000052851 -0.0025 -0.0005
0.004999999999946613 -0.0025 -0.0005
0.01499999999997342 -0.0025 -0.0005
0.01500000000002304 0.0025 -0.0005
0.005000000000052851 0.0025 -0.0005
-0.004999999999946613 0.0025 -0.0005
-0.01499999999997342 0.0025 -0.0005
-0.01500000000002304 -0.0025 0.0005
-0.005000000000052851 -0.0025 0.0005
0.004999999999946613 -0.0025 0.0005
0.01499999999997342 -0.0025 0.0005
0.01500000000002304 0.0025 0.0005
0.005000000000052851 0.0025 0.0005
-0.004999999999946613 0.0025 0.0005
-0.01499999999997342 0.0025 0.0005
-0.01999999999999912 0 -0.0005
0.01999999999999911 0 -0.0005
0.009999999999998982 -1.084202172485504e-19 -0.0005
-0.01000000000001011 -1.417561814459622e-14 -0.0005
-2.168404344971009e-19 0 -0.0005
-0.01999999999999912 0 0.0005
0.01999999999999911 0 0.0005
-0.009999999999998982 -1.084202172485504e-19 0.0005
0.009999999999998982 -1.084202172485504e-19 0.0005
2.168404344971009e-19 -1.084202172485504e-19 0.0005

CELLS 60 300
4 29 3 23 24
4 23 27 14 31
4 12 2 30 25
4 11 25 5 1
4 29 3 7 23
4 15 3 24 23
4 22 23 14 31
4 8 9 27 17
4 2 20 30 6
4 4 0 29 16
4 21 14 33 22
4 27 23 14 15
4 12 26 21 13
4 10 26 18 11
4 17 10 33 18
4 20 2 30 12
4 30 2 5 25
4 29 0 3 24
4 27 17 14 31
4 18 26 21 32
4 3 4 29 7
4 30 12 19 20
4 2 30 5 6
4 0 29 3 4
4 24 23 8 15
4 17 27 14 9
4 21 13 26 10
4 2 5 25 1
4 17 14 22 33
4 14 31 17 22
4 8 23 27 15
4 21 18 33 10
4 26 18 21 10
4 30 12 11 19
4 11 12 30 25
4 11 5 30 19
4 30 5 11 25
4 14 28 17 9
4 14 17 28 33
4 10 17 28 9
4 10 28 17 33
4 10 28 21 13
4 10 21 28 33
4 14 21 28 13
4 14 28 21 33
4 24 23 16 8
4 16 23 24 29
4 16 0 24 8
4 24 0 16 29
4 19 12 32 20
4 21 12 32 26
4 21 32 12 20
4 23 31 8 27
4 23 8 31 16
4 17 8 31 27
4 17 31 8 16
4 12 11 32 26
4 12 32 11 19
4 18 32 11 26
4 18 11 32 19

CELL_TYPES 60
10
10
10
10
10
10
10
10
10
10
10
10
10
10
10
10
10
10
10
10
10
10
10
10
10
10
10
10
10
10
10
10
10
10
10
10
10
10
10
10
10
10
10
10
10
10
10
10
10
10
10
10
10
10
10
10
10
10
10
10

CELL_DATA 60
SCALARS CellEntityIds int 1
LOOKUP_TABLE default
1
1
1
1
1
1
1
1
1
1
1
1
1
1
1
1
1
1
1
1
1
1
1
1
1
1
1
1
1
1
1
1
1
1
1
1
1
1
1
1
1
1
1
1
1
1
1
1
1
1
1
1
1
1
1
1
1
1
1
1
