# vtk DataFile Version 2.0
rectangle, Created by Gmsh 4.15.0 
ASCII
DATASET UNSTRUCTURED_GRID
POINTS 156 double
-0.025 -0.0025 -0.0005
0.025 -0.0025 -0.0005
0.025 0.0025 -0.0005
-0.025 0.0025 -0.0005
-0.025 -0.0025 0.0005
0.025 -0.0025 0.0005
0.025 0.0025 0.0005
-0.025 0.0025 0.0005
-0.02250000000000576 -0.0025 -0.0005
-0.02000000000001098 -0.0025 -0.0005
-0.01750000000001592 -0.0025 -0.0005
-0.01500000000002304 -0.0025 -0.0005
-0.01250000000003015 -0.0025 -0.0005
-0.01000000000003727 -0.0025 -0.0005
-0.007500000000044384 -0.0025 -0.0005
-0.005000000000052851 -0.0025 -0.0005
-0.002500000000059965 -0.0025 -0.0005
-6.639827576648827e-14 -0.0025 -0.0005
0.002499999999939495 -0.0025 -0.0005
0.004999999999946613 -0.0025 -0.0005
0.007499999999953863 -0.0025 -0.0005
0.009999999999959479 -0.0025 -0.0005
0.01249999999996645 -0.0025 -0.0005
0.01499999999997342 -0.0025 -0.0005
0.01749999999997905 -0.0025 -0.0005
0.01999999999998631 -0.0025 -0.0005
0.02249999999999383 -0.0025 -0.0005
0.025 -6.354725773372039e-15 -0.0005
0.02250000000000576 0.0025 -0.0005
0.02000000000001098 0.0025 -0.0005
0.01750000000001592 0.0025 -0.0005
0.01500000000002304 0.0025 -0.0005
0.01250000000003015 0.0025 -0.0005
0.01000000000003727 0.0025 -0.0005
0.007500000000044384 0.0025 -0.0005
0.005000000000052851 0.0025 -0.0005
0.002500000000059965 0.0025 -0.0005
6.639827576648827e-14 0.0025 -0.0005
-0.002499999999939495 0.0025 -0.0005
-0.004999999999946613 0.0025 -0.0005
-0.007499999999953863 0.0025 -0.0005
-0.009999999999959479 0.0025 -0.0005
-0.01249999999996645 0.0025 -0.0005
-0.01499999999997342 0.0025 -0.0005
-0.01749999999997905 0.0025 -0.0005
-0.01999999999998631 0.0025 -0.0005
-0.02249999999999383 0.0025 -0.0005
-0.025 6.354725773372039e-15 -0.0005
-0.02250000000000576 -0.0025 0.0005
-0.02000000000001098 -0.0025 0.0005
-0.01750000000001592 -0.0025 0.0005
-0.01500000000002304 -0.0025 0.0005
-0.01250000000003015 -0.0025 0.0005
-0.01000000000003727 -0.0025 0.0005
-0.007500000000044384 -0.0025 0.0005
-0.005000000000052851 -0.0025 0.0005
-0.002500000000059965 -0.0025 0.0005
-6.639827576648827e-14 -0.0025 0.0005
0.002499999999939495 -0.0025 0.0005
0.004999999999946613 -0.0025 0.0005
0.007499999999953863 -0.0025 0.0005
0.009999999999959479 -0.0025 0.0005
0.01249999999996645 -0.0025 0.0005
0.01499999999997342 -0.0025 0.0005
0.01749999999997905 -0.0025 0.0005
0.01999999999998631 -0.0025 0.0005
0.02249999999999383 -0.0025 0.0005
0.025 -6.354725773372039e-15 0.0005
0.02250000000000576 0.0025 0.0005
0.02000000000001098 0.0025 0.0005
0.01750000000001592 0.0025 0.0005
0.01500000000002304 0.0025 0.0005
0.01250000000003015 0.0025 0.0005
0.01000000000003727 0.0025 0.0005
0.007500000000044384 0.0025 0.0005
0.005000000000052851 0.0025 0.0005
0.002500000000059965 0.0025 0.0005
6.639827576648827e-14 0.0025 0.0005
-0.002499999999939495 0.0025 0.0005
-0.004999999999946613 0.0025 0.0005
-0.007499999999953863 0.0025 0.0005
-0.009999999999959479 0.0025 0.0005
-0.01249999999996645 0.0025 0.0005
-0.01499999999997342 0.0025 0.0005
-0.01749999999997905 0.0025 0.0005
-0.01999999999998631 0.0025 0.0005
-0.02249999999999383 0.0025 0.0005
-0.025 6.354725773372039e-15 0.0005
-0.02125000000000836 -0.0003349364905436556 -0.0005
0.02125000000000836 0.0003349364905436556 -0.0005
-0.01625000000000935 -3.479288837677015e-05 -0.0005
0.01625000000000935 3.479288837677e-05 -0.0005
0.01125000000001689 3.479288837944414e-05 -0.0005
-0.01125000000001689 -3.479288837944396e-05 -0.0005
0.006250000000025176 3.479288838272573e-05 -0.0005
-0.006250000000025178 -3.47928883827257e-05 -0.0005
-0.001250000000030296 -0.000113818370540075 -0.0005
0.001250000000021056 5.169470825304176e-05 -0.0005
-0.01875000000000758 9.384711633889364e-05 -0.0005
0.01875000000000759 -9.384711633889429e-05 -0.0005
0.01375000000000321 1.159762945936902e-05 -0.0005
-0.01375000000000321 -1.159762945936909e-05 -0.0005
0.008750000000006176 1.159762946036164e-05 -0.0005
-0.008750000000006178 -1.159762946036161e-05 -0.0005
0.003750000000007526 1.441459943929437e-05 -0.0005
-0.003750000000022497 5.539208558780546e-05 -0.0005
0.02335637083460341 -0.0006657942920937565 -0.0005
-0.02335637083460341 0.0006657942920937565 -0.0005
-0.02355046966569303 -0.001055044837980081 -0.0005
0.02355046966569303 0.001055044837980081 -0.0005
-0.0137500000000266 -0.0025 -3.252606517456513e-18
-0.01125000000003371 -0.0025 0
-0.008750000000040826 -0.0025 0
-0.00375000000005641 -0.0025 -1.084202172485504e-19
-0.01875000000001345 -0.0025 -4.336808689942018e-19
-0.02125000000000837 -0.0025 1.517883041479706e-18
-0.02375000000000288 -0.0025 2.168404344971009e-19
-0.01624126325483127 -0.0025 -8.456776945386935e-18
-0.006258736745236804 -0.0025 0
-0.001258736745251392 -0.0025 -1.084202172485504e-19
0.025 -0.001275391740863321 0
0.0137500000000266 0.0025 -3.252606517456513e-18
0.01125000000003371 0.0025 0
0.008750000000040826 0.0025 0
0.00375000000005641 0.0025 -1.084202172485504e-19
0.01875000000001345 0.0025 -4.336808689942018e-19
0.02125000000000837 0.0025 1.517883041479706e-18
0.02375873674519108 0.0025 -1.084202172485504e-19
0.01624126325483127 0.0025 -8.456776945386935e-18
0.006258736745236804 0.0025 0
0.001258736745251392 0.0025 -1.084202172485504e-19
-0.025 0.001275391740863321 0
0.02125000000000836 0.0003349364905436556 0.0005
-0.02125000000000836 -0.0003349364905436556 0.0005
-0.01625000000000935 -3.479288837677015e-05 0.0005
0.01625000000000935 3.479288837677046e-05 0.0005
-0.01125000000001689 -3.479288837944396e-05 0.0005
0.01125000000001689 3.479288837944414e-05 0.0005
0.006250000000025176 3.479288838272573e-05 0.0005
-0.006250000000025178 -3.47928883827257e-05 0.0005
-0.001250000000030296 -0.000113818370540075 0.0005
0.001250000000021056 5.169470825304176e-05 0.0005
0.01875000000000758 -9.384711633889221e-05 0.0005
-0.01875000000000758 9.384711633889364e-05 0.0005
0.01375000000000321 1.15976294593691e-05 0.0005
-0.01375000000000321 -1.159762945936909e-05 0.0005
0.008750000000006176 1.159762946036164e-05 0.0005
-0.008750000000006178 -1.159762946036161e-05 0.0005
0.003750000000007526 1.441459943929437e-05 0.0005
-0.003750000000022497 5.539208558780546e-05 0.0005
-0.02335637083460341 0.0006657942920937565 0.0005
0.02335637083460341 -0.0006657942920937566 0.0005
-0.02355046966569303 -0.001055044837980081 0.0005
0.02355046966569303 0.001055044837980081 0.0005
0.0244199440713236 0.001112329892950912 -5.334280082265761e-06
-0.003749999999969534 0.001685130695195935 4.130486335772222e-21

CELLS 336 1680
4 7 131 150 87
4 11 12 101 110
4 32 31 121 100
4 145 51 110 52
4 144 72 71 121
4 53 54 112 147
4 73 146 74 123
4 103 13 14 112
4 34 33 123 102
4 124 36 35 104
4 76 75 148 124
4 52 53 111 136
4 13 12 111 93
4 137 73 72 122
4 33 32 122 92
4 138 75 74 129
4 35 34 129 94
4 0 8 108 116
4 113 16 15 105
4 56 149 113 55
4 68 6 153 127
4 2 67 6 154
4 2 27 67 154
4 10 9 114 98
4 30 29 125 99
4 142 70 69 125
4 50 143 114 49
4 95 14 15 118
4 54 55 118 139
4 151 5 120 67
4 27 1 120 106
4 90 10 11 117
4 31 30 128 91
4 71 70 135 128
4 134 51 50 117
4 130 37 36 97
4 77 76 141 130
4 4 152 48 116
4 28 2 127 109
4 109 27 2 154
4 3 47 107 131
4 17 16 119 96
4 119 56 57 140
4 67 153 6 154
4 133 115 49 48
4 132 69 68 126
4 126 29 28 89
4 9 8 115 88
4 79 149 39 155
4 105 39 149 155
4 78 105 149 155
4 38 105 78 155
4 38 79 39 155
4 6 153 109 154
4 79 38 78 155
4 2 6 109 154
4 120 66 151 106
4 107 86 131 150
4 143 9 114 49
4 125 69 142 29
4 98 9 114 143
4 29 142 125 99
4 30 125 70 99
4 98 114 10 50
4 125 142 70 99
4 114 98 143 50
4 105 15 113 149
4 15 113 149 55
4 149 113 16 56
4 113 16 105 149
4 51 11 145 110
4 121 71 144 31
4 73 123 33 102
4 53 112 13 147
4 12 145 110 52
4 32 121 72 100
4 14 112 54 147
4 123 146 74 34
4 124 75 148 35
4 148 76 124 36
4 31 144 121 100
4 145 11 101 110
4 123 73 146 102
4 103 13 112 147
4 145 101 12 110
4 121 144 72 100
4 34 123 146 102
4 112 14 103 147
4 35 148 124 104
4 36 124 148 104
4 66 5 120 151
4 7 131 86 150
4 52 111 12 136
4 72 122 32 92
4 53 13 111 136
4 137 73 122 33
4 129 74 138 34
4 54 118 14 139
4 135 71 128 31
4 11 134 117 51
4 138 75 129 35
4 93 12 111 136
4 122 72 137 92
4 93 111 13 136
4 33 122 137 92
4 34 138 129 94
4 118 95 14 139
4 134 11 117 90
4 128 135 31 91
4 35 129 138 94
4 76 141 130 36
4 95 118 55 139
4 36 141 130 97
4 118 15 95 55
4 50 90 134 117
4 128 70 135 91
4 120 1 5 66
4 86 3 131 7
4 46 3 107 131
4 106 1 120 26
4 10 90 50 117
4 70 128 30 91
4 141 37 130 97
4 37 141 130 77
4 144 91 23 100
4 101 83 90 145
4 101 82 145 136
4 92 144 62 100
4 147 81 103 136
4 61 146 137 102
4 60 102 138 146
4 40 95 147 103
4 148 138 59 104
4 107 133 86 150
4 89 151 66 106
4 104 18 148 97
4 90 84 43 44
4 64 23 135 24
4 82 41 93 42
4 62 21 92 22
4 60 19 138 20
4 95 39 40 80
4 135 24 23 91
4 83 90 134 84
4 83 90 84 43
4 23 64 135 63
4 82 41 81 93
4 81 82 93 136
4 62 61 137 92
4 21 62 92 61
4 80 95 39 139
4 138 20 19 94
4 79 80 39 139
4 19 60 138 59
4 19 138 104 59
4 19 138 94 104
4 42 101 93 82
4 62 92 100 22
4 80 95 147 40
4 102 60 138 20
4 90 145 83 134
4 23 135 91 144
4 83 101 90 43
4 23 135 144 63
4 82 101 93 136
4 137 144 62 92
4 102 92 61 21
4 81 93 103 136
4 41 93 103 81
4 92 61 137 102
4 20 138 102 94
4 95 80 147 139
4 82 83 101 145
4 100 144 62 23
4 81 103 40 147
4 61 60 146 102
4 58 18 17 97
4 141 58 17 97
4 58 17 57 141
4 59 104 18 148
4 148 18 58 97
4 58 141 148 97
4 42 83 101 82
4 22 100 62 23
4 80 81 40 147
4 61 60 102 20
4 83 42 101 43
4 144 63 62 23
4 41 103 40 81
4 21 61 102 20
4 11 145 134 51
4 71 135 144 31
4 52 12 145 136
4 92 32 72 100
4 13 53 147 136
4 137 73 33 102
4 146 34 138 74
4 147 54 14 139
4 138 148 75 35
4 104 59 18 19
4 91 144 31 100
4 11 101 90 145
4 145 12 101 136
4 144 92 72 100
4 103 13 147 136
4 73 137 146 102
4 34 146 138 102
4 147 95 14 103
4 58 59 18 148
4 138 148 35 104
4 76 148 141 36
4 31 135 144 91
4 145 90 11 134
4 137 33 92 102
4 13 103 93 136
4 12 93 101 136
4 92 144 72 137
4 138 34 102 94
4 147 95 139 14
4 104 35 138 94
4 96 38 78 37
4 77 96 78 37
4 96 78 140 77
4 55 149 95 139
4 57 17 119 140
4 56 119 16 140
4 148 36 104 97
4 99 135 70 91
4 134 143 90 50
4 105 95 15 149
4 149 95 15 55
4 149 79 39 139
4 149 39 95 139
4 36 148 141 97
4 95 105 39 149
4 96 16 119 140
4 96 119 17 140
4 91 30 70 99
4 10 90 98 50
4 135 99 70 142
4 143 98 90 50
4 37 141 96 97
4 27 109 153 154
4 105 78 149 140
4 99 64 135 24
4 44 98 90 84
4 135 91 99 24
4 143 90 84 134
4 141 96 140 77
4 77 141 96 37
4 120 66 106 26
4 86 107 131 46
4 38 105 96 78
4 78 105 96 140
4 68 126 28 89
4 133 8 115 48
4 64 99 135 142
4 90 143 84 98
4 140 57 17 141
4 17 96 141 97
4 56 16 149 140
4 16 105 149 140
4 66 25 89 26
4 45 46 88 86
4 85 88 86 45
4 25 66 89 65
4 85 88 133 86
4 66 89 65 132
4 98 85 88 143
4 65 142 132 99
4 17 96 140 141
4 105 16 96 140
4 86 3 46 131
4 66 120 1 26
4 88 143 85 133
4 85 98 88 45
4 89 65 132 99
4 99 89 65 25
4 153 67 27 154
4 106 66 89 26
4 46 107 88 86
4 107 133 88 86
4 132 151 66 89
4 44 85 98 84
4 65 24 64 99
4 84 85 98 143
4 65 64 142 99
4 69 132 142 29
4 29 132 142 99
4 9 143 133 49
4 98 88 9 143
4 47 0 108 152
4 127 6 153 109
4 152 0 108 116
4 108 133 152 48
4 68 153 132 109
4 85 44 98 45
4 65 24 99 25
4 132 29 89 99
4 143 88 9 133
4 126 68 132 89
4 88 8 115 133
4 133 108 8 48
4 68 28 109 89
4 132 69 126 29
4 133 115 9 49
4 4 0 47 152
4 87 4 47 152
4 108 133 107 152
4 151 132 153 109
4 2 6 127 109
4 89 109 151 106
4 152 133 107 150
4 152 4 0 116
4 29 126 132 89
4 88 115 9 133
4 88 108 8 133
4 109 132 68 89
4 133 108 107 88
4 151 132 109 89
4 120 151 27 106
4 48 152 108 116
4 153 68 127 109
4 48 108 8 116
4 28 127 68 109
4 109 151 27 153
4 47 107 131 150
4 151 109 27 106
4 150 131 47 87
4 120 151 67 27
4 107 47 108 152
4 47 107 150 152
4 47 150 87 152
4 153 67 151 27
4 78 149 79 155
4 39 105 38 155

CELL_TYPES 336
10
10
10
10
10
10
10
10
10
10
10
10
10
10
10
10
10
10
10
10
10
10
10
10
10
10
10
10
10
10
10
10
10
10
10
10
10
10
10
10
10
10
10
10
10
10
10
10
10
10
10
10
10
10
10
10
10
10
10
10
10
10
10
10
10
10
10
10
10
10
10
10
10
10
10
10
10
10
10
10
10
10
10
10
10
10
10
10
10
10
10
10
10
10
10
10
10
10
10
10
10
10
10
10
10
10
10
10
10
10
10
10
10
10
10
10
10
10
10
10
10
10
10
10
10
10
10
10
10
10
10
10
10
10
10
10
10
10
10
10
10
10
10
10
10
10
10
10
10
10
10
10
10
10
10
10
10
10
10
10
10
10
10
10
10
10
10
10
10
10
10
10
10
10
10
10
10
10
10
10
10
10
10
10
10
10
10
10
10
10
10
10
10
10
10
10
10
10
10
10
10
10
10
10
10
10
10
10
10
10
10
10
10
10
10
10
10
10
10
10
10
10
10
10
10
10
10
10
10
10
10
10
10
10
10
10
10
10
10
10
10
10
10
10
10
10
10
10
10
10
10
10
10
10
10
10
10
10
10
10
10
10
10
10
10
10
10
10
10
10
10
10
10
10
10
10
10
10
10
10
10
10
10
10
10
10
10
10
10
10
10
10
10
10
10
10
10
10
10
10
10
10
10
10
10
10
10
10
10
10
10
10
10
10
10
10
10
10
10
10
10
10
10
10
10
10
10
10
10
10
10
10
10
10
10
10

CELL_DATA 336
SCALARS CellEntityIds int 1
LOOKUP_TABLE default
1
1
1
1
1
1
1
1
1
1
1
1
1
1
1
1
1
1
1
1
1
1
1
1
1
1
1
1
1
1
1
1
1
1
1
1
1
1
1
1
1
1
1
1
1
1
1
1
1
1
1
1
1
1
1
1
1
1
1
1
1
1
1
1
1
1
1
1
1
1
1
1
1
1
1
1
1
1
1
1
1
1
1
1
1
1
1
1
1
1
1
1
1
1
1
1
1
1
1
1
1
1
1
1
1
1
1
1
1
1
1
1
1
1
1
1
1
1
1
1
1
1
1
1
1
1
1
1
1
1
1
1
1
1
1
1
1
1
1
1
1
1
1
1
1
1
1
1
1
1
1
1
1
1
1
1
1
1
1
1
1
1
1
1
1
1
1
1
1
1
1
1
1
1
1
1
1
1
1
1
1
1
1
1
1
1
1
1
1
1
1
1
1
1
1
1
1
1
1
1
1
1
1
1
1
1
1
1
1
1
1
1
1
1
1
1
1
1
1
1
1
1
1
1
1
1
1
1
1
1
1
1
1
1
1
1
1
1
1
1
1
1
1
1
1
1
1
1
1
1
1
1
1
1
1
1
1
1
1
1
1
1
1
1
1
1
1
1
1
1
1
1
1
1
1
1
1
1
1
1
1
1
1
1
1
1
1
1
1
1
1
1
1
1
1
1
1
1
1
1
1
1
1
1
1
1
1
1
1
1
1
1
1
1
1
1
1
1
1
1
1
1
1
1
1
1
1
1
1
1
1
1
1
1
1
1
