# vtk DataFile Version 2.0
rectangle, Created by Gmsh 4.15.0 
ASCII
DATASET UNSTRUCTURED_GRID
POINTS 48 double
-0.025 -0.0025 -0.0005
0.025 -0.0025 -0.0005
0.025 0.0025 -0.0005
-0.025 0.0025 -0.0005
-0.025 -0.0025 0.0005
0.025 -0.0025 0.0005
0.025 0.0025 0.0005
-0.025 0.0025 0.0005
-0.01785714285715776 -0.0025 -0.0005
-0.01071428571432093 -0.0025 -0.0005
-0.003571428571485465 -0.0025 -0.0005
0.003571428571371292 -0.0025 -0.0005
0.0107142857142476 -0.0025 -0.0005
0.01785714285712313 -0.0025 -0.0005
0.01785714285715776 0.0025 -0.0005
0.01071428571432093 0.0025 -0.0005
0.003571428571485465 0.0025 -0.0005
-0.003571428571371292 0.0025 -0.0005
-0.0107142857142476 0.0025 -0.0005
-0.01785714285712313 0.0025 -0.0005
-0.01785714285715776 -0.0025 0.0005
-0.01071428571432093 -0.0025 0.0005
-0.003571428571485465 -0.0025 0.0005
0.003571428571371292 -0.0025 0.0005
0.0107142857142476 -0.0025 0.0005
0.01785714285712313 -0.0025 0.0005
0.01785714285715776 0.0025 0.0005
0.01071428571432093 0.0025 0.0005
0.003571428571485465 0.0025 0.0005
-0.003571428571371292 0.0025 0.0005
-0.0107142857142476 0.0025 0.0005
-0.01785714285712313 0.0025 0.0005
-0.02142857142857022 1.084202172485504e-19 -0.0005
0.02142857142857022 0 -0.0005
-0.01428571428573935 -2.473622745110788e-14 -0.0005
0.01428571428573935 2.473622745110788e-14 -0.0005
-0.007142857142869719 -1.496570724469835e-14 -0.0005
0.007142857142869719 1.496562980168603e-14 -0.0005
1.084202172485505e-19 0 -0.0005
-0.02142857142857022 1.084202172485504e-19 0.0005
0.02142857142857022 0 0.0005
-0.01428571428573935 -2.473622745110788e-14 0.0005
0.01428571428573935 2.473622745110788e-14 0.0005
-0.007142857142869719 -1.496570724469835e-14 0.0005
0.007142857142869719 1.496562980168603e-14 0.0005
1.084202172485505e-19 0 0.0005
-0.01428571428573935 -0.001666666666674912 2.827277484348124e-21
-3.805745068816027e-14 -0.001666666666666667 0

CELLS 94 470
4 22 23 10 47
4 9 8 21 46
4 20 21 8 46
4 23 11 10 47
4 40 2 33 26
4 38 29 45 16
4 30 36 17 43
4 37 27 28 44
4 22 38 45 47
4 34 41 20 46
4 1 25 5 40
4 31 3 39 7
4 4 0 39 20
4 40 2 26 6
4 37 24 11 12
4 19 34 18 31
4 14 27 42 26
4 28 45 29 16
4 26 2 33 14
4 37 27 15 28
4 17 29 30 43
4 38 17 29 16
4 9 22 10 36
4 15 28 16 37
4 18 36 17 30
4 24 13 42 25
4 34 9 41 46
4 45 38 11 47
4 38 22 10 47
4 8 34 20 46
4 41 9 21 46
4 23 45 11 47
4 3 39 0 32
4 1 40 2 33
4 38 29 22 45
4 17 36 22 43
4 16 45 38 11
4 37 24 27 44
4 42 14 13 35
4 41 31 34 20
4 5 2 40 6
4 3 4 39 7
4 4 3 39 0
4 40 1 2 5
4 27 12 37 15
4 8 34 19 20
4 24 37 27 12
4 31 19 34 20
4 9 30 41 21
4 26 33 13 14
4 17 36 10 22
4 22 29 17 43
4 28 16 37 11
4 17 22 38 29
4 22 17 38 10
4 16 28 45 11
4 28 23 45 11
4 30 36 9 18
4 14 42 13 26
4 25 42 26 13
4 20 41 21 46
4 38 10 11 47
4 45 23 22 47
4 9 34 8 46
4 26 25 33 40
4 26 33 25 13
4 1 33 25 40
4 1 25 33 13
4 14 27 35 42
4 14 35 27 15
4 12 27 35 15
4 19 20 32 8
4 0 32 20 8
4 0 20 32 39
4 22 9 43 36
4 22 43 9 21
4 30 43 9 36
4 30 9 43 21
4 11 28 44 37
4 44 28 11 23
4 44 24 11 37
4 11 24 44 23
4 31 18 41 34
4 31 41 18 30
4 9 41 18 34
4 9 18 41 30
4 20 31 32 39
4 20 32 31 19
4 3 32 31 39
4 3 31 32 19
4 13 24 35 12
4 13 35 24 42
4 27 35 24 12
4 27 24 35 42

CELL_TYPES 94
10
10
10
10
10
10
10
10
10
10
10
10
10
10
10
10
10
10
10
10
10
10
10
10
10
10
10
10
10
10
10
10
10
10
10
10
10
10
10
10
10
10
10
10
10
10
10
10
10
10
10
10
10
10
10
10
10
10
10
10
10
10
10
10
10
10
10
10
10
10
10
10
10
10
10
10
10
10
10
10
10
10
10
10
10
10
10
10
10
10
10
10
10
10

CELL_DATA 94
SCALARS CellEntityIds int 1
LOOKUP_TABLE default
1
1
1
1
1
1
1
1
1
1
1
1
1
1
1
1
1
1
1
1
1
1
1
1
1
1
1
1
1
1
1
1
1
1
1
1
1
1
1
1
1
1
1
1
1
1
1
1
1
1
1
1
1
1
1
1
1
1
1
1
1
1
1
1
1
1
1
1
1
1
1
1
1
1
1
1
1
1
1
1
1
1
1
1
1
1
1
1
1
1
1
1
1
1
