o convex_0
v -0.004886 -0.015426 0.004777
v 0.009054 -0.004974 -0.003684
v 0.009054 -0.005970 -0.003684
v 0.002581 -0.007132 -0.010984
v -0.001069 -0.002319 0.008594
v -0.001069 -0.002319 -0.007499
v -0.000073 -0.013104 0.009258
v 0.004904 -0.012273 -0.006836
v 0.007228 -0.002319 -0.010323
v -0.005715 -0.010614 0.000631
v 0.003742 -0.002319 0.006769
v 0.007061 -0.009786 0.000296
v -0.004553 -0.013435 0.009258
v 0.000591 -0.010447 -0.008495
v -0.003226 -0.002319 0.000961
v 0.000591 -0.014930 0.004280
v 0.008223 -0.006965 -0.008828
v -0.000737 -0.009453 0.010753
v 0.008556 -0.002318 -0.002357
v 0.004573 -0.009786 -0.010654
v 0.006895 -0.011278 -0.002854
v 0.002084 -0.013435 -0.005177
v -0.002893 -0.015260 0.009258
v -0.005881 -0.014098 0.002787
v 0.004739 -0.002319 -0.011319
v -0.005881 -0.011776 0.003781
v 0.000922 -0.010282 0.009422
v 0.001584 -0.002319 0.009258
v 0.003410 -0.013768 0.000959
v -0.001069 -0.015427 0.003448
v 0.002084 -0.011609 -0.008662
v 0.008887 -0.004643 -0.007832
v 0.006066 -0.006302 -0.011150
v 0.004075 -0.004974 0.006270
v -0.004055 -0.005307 -0.001195
v -0.005383 -0.014928 0.007763
v -0.005383 -0.011443 -0.000035
v -0.000737 -0.002485 -0.008165
v -0.002728 -0.002319 0.003945
v 0.005568 -0.011112 -0.008828
v 0.008556 -0.008127 -0.005509
v 0.003410 -0.013601 -0.003848
v -0.002230 -0.011609 0.010753
v 0.002084 -0.013435 0.005274
v 0.000425 -0.009286 -0.008828
v -0.005217 -0.013601 0.008095
v 0.001420 -0.002319 -0.010157
v -0.000737 -0.005306 0.010087
v 0.003577 -0.008294 -0.011317
v 0.007061 -0.009287 0.000629
v -0.005217 -0.014928 0.003284
v -0.003559 -0.015757 0.008095
v -0.005550 -0.009453 0.002121
v 0.007061 -0.010449 -0.006339
v 0.005237 -0.002319 0.004278
v -0.001733 -0.012938 0.010584
v 0.002415 -0.006136 0.008426
v 0.003908 -0.011775 -0.008826
v 0.008721 -0.002318 -0.004016
v -0.001235 -0.014930 0.008262
v -0.003060 -0.002485 -0.001525
v -0.003890 -0.014597 0.009757
v 0.005899 -0.012108 -0.004513
v -0.001899 -0.007132 0.009921
f 43 48 64 
f 3 2 19 
f 10 24 26 
f 18 27 28 
f 19 5 28 
f 11 19 28 
f 21 12 29 
f 1 22 30 
f 24 14 31 
f 2 3 32 
f 17 9 32 
f 9 17 33 
f 17 20 33 
f 25 9 33 
f 6 10 35 
f 24 1 36 
f 26 24 36 
f 24 10 37 
f 14 24 37 
f 10 6 38 
f 37 10 38 
f 5 19 39 
f 19 15 39 
f 20 17 40 
f 3 12 41 
f 12 21 41 
f 32 3 41 
f 17 32 41 
f 22 8 42 
f 29 16 42 
f 30 22 42 
f 16 30 42 
f 12 7 44 
f 29 12 44 
f 16 29 44 
f 14 37 45 
f 38 4 45 
f 37 38 45 
f 13 5 46 
f 36 13 46 
f 26 36 46 
f 5 39 46 
f 39 26 46 
f 25 4 47 
f 38 6 47 
f 4 38 47 
f 18 28 48 
f 28 5 48 
f 43 18 48 
f 4 25 49 
f 31 14 49 
f 20 31 49 
f 33 20 49 
f 25 33 49 
f 45 4 49 
f 14 45 49 
f 12 3 50 
f 7 12 50 
f 3 19 50 
f 27 7 50 
f 22 1 51 
f 1 24 51 
f 31 22 51 
f 24 31 51 
f 1 30 52 
f 30 16 52 
f 36 1 52 
f 10 26 53 
f 35 10 53 
f 15 35 53 
f 39 15 53 
f 26 39 53 
f 40 17 54 
f 41 21 54 
f 17 41 54 
f 19 11 55 
f 11 34 55 
f 50 19 55 
f 34 50 55 
f 23 7 56 
f 7 27 56 
f 27 18 56 
f 18 43 56 
f 28 27 57 
f 11 28 57 
f 34 11 57 
f 27 50 57 
f 50 34 57 
f 8 22 58 
f 31 20 58 
f 22 31 58 
f 20 40 58 
f 40 8 58 
f 6 15 59 
f 19 2 59 
f 15 19 59 
f 9 25 59 
f 2 32 59 
f 32 9 59 
f 47 6 59 
f 25 47 59 
f 7 23 60 
f 44 7 60 
f 16 44 60 
f 52 16 60 
f 23 52 60 
f 15 6 61 
f 6 35 61 
f 35 15 61 
f 13 36 62 
f 43 13 62 
f 52 23 62 
f 36 52 62 
f 23 56 62 
f 56 43 62 
f 21 29 63 
f 8 40 63 
f 42 8 63 
f 29 42 63 
f 54 21 63 
f 40 54 63 
f 5 13 64 
f 13 43 64 
f 48 5 64 
o convex_1
v -0.006379 0.001167 0.004280
v -0.002563 -0.002317 -0.002689
v -0.002563 0.002826 -0.004017
v -0.002397 0.002992 0.005608
v -0.002397 -0.002317 0.004446
v -0.007210 -0.000326 0.001956
v -0.006048 0.002992 0.000960
v -0.005052 -0.000824 0.005110
v -0.005550 -0.001487 0.002952
v -0.002397 0.002992 -0.004017
v -0.007043 0.000337 0.001293
v -0.006048 0.002992 0.002455
v -0.007210 0.001333 0.001790
v -0.002563 -0.000990 0.005276
v -0.002397 -0.002317 -0.002689
v -0.005218 -0.000824 -0.000532
v -0.006877 -0.000160 0.003616
v -0.005218 0.000669 0.005276
v -0.003227 -0.002317 0.001126
v -0.005716 -0.001321 0.000796
v -0.007210 0.001001 0.003118
v -0.004886 0.002992 0.003948
v -0.005716 -0.001156 0.004114
v -0.005550 0.001333 0.004944
v -0.006877 -0.000824 0.002455
v -0.005881 0.000006 0.004944
v -0.003227 0.002992 -0.003187
v -0.004886 -0.000492 0.005276
v -0.002895 -0.002317 0.003948
v -0.005052 -0.001654 0.000631
v -0.007043 0.001001 0.001293
v -0.005383 -0.001156 -0.000199
v -0.006712 0.001499 0.003616
v -0.005218 -0.001321 0.004446
v -0.007043 0.001664 0.002621
v -0.002563 0.002992 0.005608
v -0.002397 0.002329 0.005608
v -0.007210 -0.000326 0.002786
v -0.002397 -0.001986 0.004778
f 101 78 103 
f 68 69 74 
f 71 68 74 
f 68 71 76 
f 75 70 77 
f 66 67 79 
f 69 66 79 
f 67 74 79 
f 74 69 79 
f 67 66 80 
f 75 67 80 
f 66 69 83 
f 77 70 85 
f 81 65 85 
f 68 76 86 
f 70 84 89 
f 73 87 89 
f 65 81 90 
f 87 72 90 
f 81 87 90 
f 88 65 90 
f 82 88 90 
f 74 67 91 
f 71 74 91 
f 72 78 92 
f 90 72 92 
f 82 90 92 
f 83 69 93 
f 73 83 93 
f 66 83 94 
f 83 73 94 
f 84 66 94 
f 73 89 94 
f 89 84 94 
f 67 75 95 
f 77 71 95 
f 75 77 95 
f 91 67 95 
f 71 91 95 
f 70 75 96 
f 80 66 96 
f 75 80 96 
f 84 70 96 
f 66 84 96 
f 85 65 97 
f 86 76 97 
f 65 88 97 
f 88 86 97 
f 69 72 98 
f 72 87 98 
f 87 73 98 
f 93 69 98 
f 73 93 98 
f 76 71 99 
f 71 77 99 
f 77 85 99 
f 85 97 99 
f 97 76 99 
f 68 86 100 
f 88 82 100 
f 86 88 100 
f 69 68 101 
f 92 78 101 
f 82 92 101 
f 68 100 101 
f 100 82 101 
f 85 70 102 
f 81 85 102 
f 87 81 102 
f 70 89 102 
f 89 87 102 
f 72 69 103 
f 78 72 103 
f 69 101 103 
o convex_2
v -0.001235 0.002992 -0.006671
v 0.008722 -0.000492 -0.002856
v 0.008555 -0.000658 -0.002356
v 0.001918 0.002992 0.008926
v -0.002397 -0.002317 0.004611
v 0.001586 -0.002317 -0.010322
v 0.007891 0.002992 -0.008828
v 0.002582 -0.002317 0.008262
v 0.007725 -0.002317 -0.009491
v -0.002397 0.002992 0.005939
v 0.003576 0.002992 -0.011319
v 0.005734 0.002992 0.004611
v -0.002397 -0.002317 -0.003185
v -0.000073 -0.002317 0.009425
v 0.008555 -0.002317 -0.002356
v 0.005734 -0.002317 -0.011319
v -0.002397 0.002992 -0.004182
v -0.001235 -0.001487 -0.007666
v 0.007394 0.002992 -0.000035
v 0.005402 0.001167 0.005275
v 0.002085 0.002992 -0.010655
v 0.006398 0.001333 -0.010984
v 0.000093 0.002992 0.008759
v 0.008223 0.002992 -0.008166
v 0.005237 -0.002317 0.004278
v -0.001069 -0.002317 0.008428
v 0.001918 0.001664 0.009259
v 0.008722 -0.002317 -0.004017
v -0.000405 0.002992 -0.008166
v -0.000903 -0.002317 -0.007997
v 0.008223 0.002992 -0.005841
v 0.001254 -0.002317 0.009425
v 0.004738 -0.002317 -0.011319
v 0.004905 0.002992 -0.011150
v 0.007394 -0.000658 -0.010155
v 0.001089 0.001333 0.009425
v -0.001235 -0.000326 -0.007666
v -0.001899 0.002992 0.006767
v 0.004406 0.002992 0.006436
v 0.008058 0.001664 -0.008994
v 0.002416 0.000006 0.008761
v 0.002914 0.001997 -0.011152
v 0.007227 0.001997 -0.010155
v 0.005734 0.001167 -0.011319
v 0.005569 0.000835 0.004944
v 0.003743 -0.002317 0.006769
v -0.001567 -0.000990 -0.006836
v 0.007062 -0.002317 -0.010488
v -0.001400 -0.002317 0.007762
v 0.000425 -0.001654 -0.009327
v 0.001752 -0.001986 -0.010488
v 0.008555 0.000503 -0.003020
v 0.008223 0.001830 -0.008330
v -0.002397 -0.000658 0.005275
v -0.000737 -0.001820 0.008759
v 0.008722 -0.000326 -0.003684
v 0.002416 0.002329 0.008761
v 0.003411 0.001830 -0.011319
v 0.005569 0.002992 -0.010819
v 0.008058 0.002992 -0.004348
v 0.006232 -0.000326 -0.011150
v 0.007227 0.001167 -0.010322
v 0.001586 -0.002317 0.009259
v 0.007725 0.001664 -0.009658
f 165 146 167 
f 104 107 110 
f 108 109 111 
f 111 109 112 
f 107 104 113 
f 104 110 114 
f 106 105 115 
f 110 107 115 
f 109 108 116 
f 108 113 116 
f 108 111 117 
f 105 106 118 
f 111 112 118 
f 106 115 118 
f 112 109 119 
f 113 104 120 
f 116 113 120 
f 115 105 122 
f 110 115 122 
f 104 114 124 
f 107 113 126 
f 110 122 127 
f 111 118 128 
f 108 117 129 
f 105 118 131 
f 118 112 131 
f 104 124 132 
f 109 116 133 
f 116 121 133 
f 127 122 134 
f 117 111 135 
f 119 109 136 
f 114 119 136 
f 114 110 137 
f 107 126 139 
f 126 117 139 
f 130 107 139 
f 117 135 139 
f 135 130 139 
f 120 104 140 
f 104 132 140 
f 132 124 140 
f 126 113 141 
f 113 129 141 
f 115 107 142 
f 123 115 142 
f 110 127 143 
f 111 123 144 
f 124 114 145 
f 119 114 147 
f 114 137 147 
f 137 125 147 
f 118 115 148 
f 115 123 148 
f 128 118 148 
f 128 148 149 
f 123 111 149 
f 111 128 149 
f 148 123 149 
f 116 120 150 
f 121 116 150 
f 120 140 150 
f 140 121 150 
f 112 119 151 
f 138 112 151 
f 108 129 152 
f 129 113 152 
f 109 133 153 
f 133 121 153 
f 121 140 153 
f 140 124 153 
f 136 109 154 
f 124 145 154 
f 109 153 154 
f 153 124 154 
f 122 105 155 
f 105 134 155 
f 131 112 156 
f 127 131 156 
f 143 127 156 
f 112 143 156 
f 113 108 157 
f 108 152 157 
f 152 113 157 
f 117 126 158 
f 129 117 158 
f 126 141 158 
f 141 129 158 
f 105 131 159 
f 131 127 159 
f 134 105 159 
f 127 134 159 
f 107 130 160 
f 142 107 160 
f 123 142 160 
f 144 123 160 
f 130 144 160 
f 114 136 161 
f 145 114 161 
f 136 154 161 
f 154 145 161 
f 137 110 162 
f 125 137 162 
f 110 146 162 
f 146 125 162 
f 134 122 163 
f 122 155 163 
f 155 134 163 
f 119 147 164 
f 147 125 164 
f 151 119 164 
f 151 164 165 
f 125 146 165 
f 138 151 165 
f 164 125 165 
f 135 111 166 
f 130 135 166 
f 111 144 166 
f 144 130 166 
f 112 138 167 
f 110 143 167 
f 143 112 167 
f 146 110 167 
f 138 165 167 
o convex_3
v -0.008039 0.006975 0.003449
v 0.008390 0.003657 -0.005510
v 0.008390 0.003491 -0.005510
v 0.002082 0.002993 0.008760
v 0.004905 0.008137 0.004446
v 0.002415 0.002993 -0.010821
v 0.004073 0.008137 -0.007336
v -0.006212 0.002993 0.000961
v -0.006378 0.008137 -0.001858
v -0.000902 0.008137 0.008927
v -0.006544 0.005316 0.007764
v 0.005735 0.002993 0.004611
v -0.001234 0.008137 -0.006837
v 0.007725 0.002993 -0.008993
v 0.007061 0.006975 -0.000865
v -0.007208 0.007970 0.005938
v -0.007042 0.004653 0.000131
v 0.003411 0.005814 -0.009989
v 0.005735 0.008137 -0.004846
v 0.000423 0.002993 0.008927
v -0.000240 0.003325 -0.008496
v 0.002581 0.006644 0.007931
v 0.007393 0.005316 -0.000036
v -0.006212 0.002993 0.002453
v -0.008039 0.005979 0.005275
v 0.006730 0.005482 -0.008330
v -0.004553 0.005814 0.008760
v 0.004737 0.003159 -0.011153
v 0.007393 0.002993 -0.000036
v -0.006544 0.006809 0.007764
v 0.008222 0.004321 -0.006339
v 0.000257 0.008137 0.008927
v -0.005217 0.004486 0.007764
v -0.007042 0.008137 -0.000366
v -0.000073 0.004985 -0.008663
v 0.002581 0.004486 -0.010654
v 0.004073 0.006975 -0.008995
v -0.007541 0.004819 0.001293
v 0.005236 0.003491 0.005440
v 0.005900 0.008137 0.000629
v -0.000405 0.002993 -0.008163
v -0.007208 0.008137 0.004611
v 0.005567 0.007473 0.003614
v 0.006896 0.007141 -0.003517
v 0.005070 0.006809 -0.008663
v -0.007872 0.006809 0.006105
v -0.007042 0.005316 -0.000201
v -0.007541 0.005482 0.006437
v 0.006231 0.005150 -0.009160
v 0.008222 0.002993 -0.007998
v 0.002581 0.006644 -0.009327
v -0.005051 0.002993 0.003946
v -0.005051 0.004985 0.008428
v -0.007541 0.006644 0.000629
v 0.003079 0.007473 -0.008498
v -0.006877 0.003989 0.000463
v 0.007891 0.004321 -0.007666
v 0.001585 0.004653 0.008927
v -0.001732 0.008137 -0.006504
v -0.007208 0.004155 0.001955
v -0.006711 0.004985 0.007101
v 0.007227 0.006477 -0.000368
v -0.007872 0.007473 0.004611
v 0.003576 0.006809 0.006769
f 189 206 231 
f 173 171 175 
f 172 174 176 
f 172 176 177 
f 171 173 179 
f 176 174 180 
f 179 173 181 
f 174 172 186 
f 175 171 187 
f 170 169 190 
f 175 187 191 
f 187 177 194 
f 181 173 195 
f 179 181 196 
f 170 190 196 
f 190 179 196 
f 177 183 197 
f 194 177 197 
f 178 194 197 
f 172 177 199 
f 177 187 199 
f 189 172 199 
f 177 176 201 
f 173 188 202 
f 188 176 202 
f 195 173 203 
f 185 195 203 
f 173 202 203 
f 195 185 204 
f 192 168 205 
f 171 179 206 
f 189 171 206 
f 186 172 207 
f 173 175 208 
f 188 173 208 
f 183 177 209 
f 177 201 209 
f 179 190 210 
f 206 179 210 
f 172 206 210 
f 207 172 210 
f 182 207 210 
f 182 198 211 
f 207 182 211 
f 186 207 211 
f 174 186 212 
f 186 193 212 
f 204 174 212 
f 195 204 212 
f 168 192 213 
f 197 183 213 
f 178 197 213 
f 176 188 214 
f 184 205 214 
f 208 184 214 
f 188 208 214 
f 213 192 215 
f 178 213 215 
f 193 181 216 
f 181 195 216 
f 212 193 216 
f 195 212 216 
f 169 170 217 
f 170 196 217 
f 196 181 217 
f 198 169 217 
f 203 180 218 
f 185 203 218 
f 204 185 218 
f 191 187 219 
f 187 200 219 
f 200 191 219 
f 194 178 220 
f 187 194 220 
f 178 200 220 
f 200 187 220 
f 201 176 221 
f 168 201 221 
f 205 168 221 
f 176 214 221 
f 214 205 221 
f 180 174 222 
f 174 204 222 
f 218 180 222 
f 204 218 222 
f 205 184 223 
f 208 175 223 
f 184 208 223 
f 181 193 224 
f 193 186 224 
f 211 198 224 
f 186 211 224 
f 217 181 224 
f 198 217 224 
f 187 171 225 
f 171 189 225 
f 199 187 225 
f 189 199 225 
f 176 180 226 
f 202 176 226 
f 180 203 226 
f 203 202 226 
f 175 191 227 
f 192 205 227 
f 191 215 227 
f 215 192 227 
f 223 175 227 
f 205 223 227 
f 200 178 228 
f 191 200 228 
f 178 215 228 
f 215 191 228 
f 190 169 229 
f 169 198 229 
f 198 182 229 
f 210 190 229 
f 182 210 229 
f 201 168 230 
f 183 209 230 
f 209 201 230 
f 168 213 230 
f 213 183 230 
f 172 189 231 
f 206 172 231 
o convex_4
v -0.007707 0.008968 0.001127
v 0.005735 0.008304 0.000961
v 0.005568 0.008470 0.001127
v -0.005383 0.014940 -0.003020
v -0.004719 0.012783 0.008097
v -0.000073 0.008137 -0.007170
v -0.001071 0.008137 0.008926
v 0.000922 0.012784 -0.001527
v -0.009034 0.013281 -0.000863
v 0.004573 0.008137 -0.006505
v -0.000240 0.012119 0.006603
v -0.006545 0.008139 0.005607
v -0.007043 0.014774 0.004943
v -0.008038 0.011953 0.006436
v -0.006545 0.008139 -0.001692
v -0.004221 0.015106 0.001291
v 0.004406 0.008137 0.005108
v -0.007209 0.012949 -0.003351
v -0.000739 0.010627 0.008926
v -0.007209 0.015438 -0.001361
v -0.009367 0.013281 0.002951
v 0.003742 0.009964 0.004279
v -0.001071 0.012783 -0.004346
v -0.006047 0.011125 0.008095
v 0.005735 0.008304 -0.004015
v 0.001087 0.012617 0.001125
v -0.002563 0.008137 -0.005841
v -0.005383 0.014442 0.005772
v -0.003558 0.014941 -0.001527
v -0.009200 0.012119 0.003450
v 0.000423 0.012784 -0.003186
v -0.006379 0.014276 -0.003517
v -0.007374 0.013447 0.006769
v 0.004075 0.008304 -0.007003
v -0.008702 0.011623 -0.000863
v 0.000590 0.008137 0.008759
v -0.008702 0.014442 0.002455
v -0.001402 0.012949 0.006105
v -0.007872 0.011953 -0.002522
v -0.005881 0.015604 0.000465
v -0.003725 0.010958 0.008926
v -0.001733 0.012617 -0.004679
v -0.007209 0.008470 0.004610
v -0.008204 0.014442 -0.001858
v -0.005052 0.008305 0.007100
v 0.000922 0.009964 0.007931
v -0.009367 0.012451 0.000798
v -0.008869 0.013612 0.004445
v -0.001237 0.008304 -0.006836
v 0.002249 0.011622 0.002120
v -0.007209 0.015438 0.001458
v -0.007043 0.008139 -0.000696
v 0.005735 0.008470 -0.002025
v -0.000904 0.011623 0.008097
v -0.005218 0.015106 0.003284
v 0.005237 0.008470 -0.005177
v -0.006214 0.012285 0.008095
v 0.003908 0.009465 0.004943
v -0.009034 0.014110 0.000299
v -0.005218 0.015272 -0.002356
v -0.005218 0.013944 0.006769
v 0.005402 0.008137 0.002951
v -0.000073 0.008304 -0.007170
v -0.008536 0.011789 0.005441
f 279 252 295 
f 238 237 241 
f 238 241 248 
f 233 234 253 
f 245 243 255 
f 237 238 258 
f 238 243 258 
f 257 239 260 
f 247 257 260 
f 260 239 262 
f 251 235 263 
f 241 237 265 
f 254 262 265 
f 238 248 267 
f 250 238 267 
f 257 247 269 
f 242 257 269 
f 240 249 270 
f 258 246 270 
f 249 258 270 
f 246 266 270 
f 266 240 270 
f 247 260 271 
f 250 236 272 
f 238 250 272 
f 255 238 272 
f 235 254 273 
f 263 235 273 
f 254 265 273 
f 261 232 274 
f 249 240 275 
f 263 249 275 
f 251 263 275 
f 243 238 276 
f 238 255 276 
f 255 243 276 
f 267 248 277 
f 250 267 277 
f 232 261 278 
f 261 252 278 
f 240 266 278 
f 245 264 279 
f 264 244 279 
f 244 268 279 
f 268 252 279 
f 237 258 280 
f 258 249 280 
f 249 263 280 
f 253 234 281 
f 242 253 281 
f 239 257 281 
f 257 242 281 
f 251 268 282 
f 268 244 282 
f 271 251 282 
f 258 243 283 
f 246 258 283 
f 266 246 283 
f 243 274 283 
f 274 232 283 
f 232 278 283 
f 278 266 283 
f 234 233 284 
f 233 256 284 
f 256 239 284 
f 281 234 284 
f 239 281 284 
f 236 250 285 
f 242 269 285 
f 250 277 285 
f 244 259 286 
f 269 247 286 
f 259 269 286 
f 247 271 286 
f 282 244 286 
f 271 282 286 
f 239 256 287 
f 256 241 287 
f 262 239 287 
f 241 265 287 
f 265 262 287 
f 245 255 288 
f 264 245 288 
f 236 264 288 
f 272 236 288 
f 255 272 288 
f 253 242 289 
f 277 248 289 
f 242 285 289 
f 285 277 289 
f 268 251 290 
f 252 268 290 
f 275 240 290 
f 251 275 290 
f 240 278 290 
f 278 252 290 
f 235 251 291 
f 254 235 291 
f 262 254 291 
f 260 262 291 
f 251 271 291 
f 271 260 291 
f 259 244 292 
f 244 264 292 
f 264 236 292 
f 269 259 292 
f 236 285 292 
f 285 269 292 
f 248 241 293 
f 233 253 293 
f 256 233 293 
f 241 256 293 
f 289 248 293 
f 253 289 293 
f 265 237 294 
f 263 273 294 
f 273 265 294 
f 237 280 294 
f 280 263 294 
f 243 245 295 
f 252 261 295 
f 274 243 295 
f 261 274 295 
f 245 279 295 
