o convex_0
v 0.019339 -0.012223 -0.011072
v -0.009571 -0.015430 -0.005567
v -0.009571 -0.015430 -0.005107
v -0.007735 0.034118 -0.010155
v -0.004981 -0.036539 -0.012449
v 0.019339 -0.009010 -0.005107
v 0.011078 0.022180 -0.005107
v 0.017044 0.013002 -0.012449
v 0.007866 -0.038380 -0.007402
v -0.009571 0.033194 -0.012449
v -0.009571 0.019422 -0.005107
v 0.011078 -0.037463 -0.012449
v -0.000850 -0.032408 -0.005107
v 0.000526 0.031814 -0.011990
v -0.002686 -0.040677 -0.010614
v -0.009571 0.009788 -0.012449
v 0.018877 0.010250 -0.010155
v 0.014749 -0.030581 -0.010614
v -0.006815 -0.032408 -0.011990
v -0.005440 0.030435 -0.007402
v 0.013832 0.019429 -0.005107
v 0.006947 -0.031953 -0.005107
v 0.018877 -0.012223 -0.012449
v -0.008651 -0.021857 -0.005107
v 0.005110 -0.042056 -0.011990
v 0.019339 -0.003059 -0.005107
v -0.004981 0.034118 -0.009696
v -0.008651 -0.022319 -0.009696
v -0.000391 -0.041587 -0.009696
v 0.011078 -0.037001 -0.009237
v -0.004981 -0.037001 -0.009696
v -0.009571 0.032739 -0.009237
v 0.002362 0.023552 -0.005107
v 0.014749 0.016678 -0.011990
v 0.018877 0.010250 -0.011990
v 0.012912 -0.023236 -0.005107
v -0.000391 -0.041587 -0.012449
v -0.004064 0.033194 -0.012449
v 0.002362 -0.036084 -0.006025
v 0.014749 -0.030581 -0.011990
v 0.000526 0.031814 -0.010155
v 0.004654 -0.042056 -0.010155
v 0.008322 0.023552 -0.005107
v 0.008783 -0.039752 -0.009696
v 0.017502 -0.014058 -0.005107
v 0.009242 -0.037001 -0.007402
v -0.002686 -0.035629 -0.007402
v 0.019339 -0.004424 -0.011530
v 0.000526 0.031352 -0.012449
v 0.000067 -0.038380 -0.007402
v 0.019339 -0.012223 -0.009237
v -0.009571 0.000617 -0.011072
v 0.017044 0.013919 -0.011530
v -0.006815 -0.025071 -0.005107
v 0.003738 -0.033787 -0.005107
v -0.006356 -0.032408 -0.012449
v -0.007735 0.029518 -0.007402
v 0.012454 -0.034250 -0.009237
v -0.004981 0.034118 -0.011530
v -0.003606 -0.039752 -0.011990
v -0.006815 -0.032408 -0.010614
v -0.000391 -0.042056 -0.011990
f 60 37 62 
f 3 6 7 
f 2 3 10 
f 8 5 10 
f 3 7 11 
f 10 3 11 
f 5 8 12 
f 6 3 13 
f 2 10 16 
f 10 5 16 
f 7 6 21 
f 14 7 21 
f 6 13 22 
f 12 8 23 
f 13 3 24 
f 6 1 26 
f 21 6 26 
f 17 21 26 
f 3 2 28 
f 16 19 28 
f 24 3 28 
f 12 18 30 
f 19 5 31 
f 15 29 31 
f 4 10 32 
f 10 11 32 
f 27 4 32 
f 20 27 32 
f 11 7 33 
f 20 11 33 
f 14 21 34 
f 23 8 35 
f 17 26 35 
f 6 22 36 
f 5 12 37 
f 12 25 37 
f 8 10 38 
f 1 18 40 
f 18 12 40 
f 12 23 40 
f 23 1 40 
f 7 14 41 
f 14 27 41 
f 9 29 42 
f 27 20 43 
f 33 7 43 
f 20 33 43 
f 7 41 43 
f 41 27 43 
f 25 12 44 
f 30 9 44 
f 12 30 44 
f 9 42 44 
f 42 25 44 
f 18 6 45 
f 6 36 45 
f 45 36 46 
f 22 9 46 
f 9 30 46 
f 36 22 46 
f 1 23 48 
f 26 1 48 
f 23 35 48 
f 35 26 48 
f 34 8 49 
f 14 34 49 
f 8 38 49 
f 38 14 49 
f 29 9 50 
f 31 29 50 
f 9 39 50 
f 39 13 50 
f 13 47 50 
f 47 31 50 
f 1 6 51 
f 18 1 51 
f 6 18 51 
f 2 16 52 
f 28 2 52 
f 16 28 52 
f 21 17 53 
f 8 34 53 
f 34 21 53 
f 17 35 53 
f 35 8 53 
f 13 24 54 
f 24 31 54 
f 47 13 54 
f 31 47 54 
f 9 22 55 
f 22 13 55 
f 39 9 55 
f 13 39 55 
f 16 5 56 
f 5 19 56 
f 19 16 56 
f 11 20 57 
f 32 11 57 
f 20 32 57 
f 30 18 58 
f 18 45 58 
f 45 46 58 
f 46 30 58 
f 10 4 59 
f 4 27 59 
f 27 14 59 
f 38 10 59 
f 14 38 59 
f 31 5 60 
f 15 31 60 
f 5 37 60 
f 28 19 61 
f 24 28 61 
f 19 31 61 
f 31 24 61 
f 29 15 62 
f 37 25 62 
f 42 29 62 
f 25 42 62 
f 15 60 62 
o convex_1
v -0.003605 0.020350 0.049494
v -0.018286 -0.008558 0.022890
v -0.017369 -0.009013 0.022890
v 0.006488 0.022639 0.015090
v 0.014287 -0.008553 0.037564
v -0.010487 -0.008553 0.049959
v -0.013698 0.024477 0.024265
v 0.014748 0.010713 0.049959
v 0.012914 -0.005800 0.015090
v -0.018286 0.005671 0.049959
v -0.018286 0.000624 0.015090
v 0.020253 0.012087 0.029771
v 0.006488 -0.014978 0.025641
v 0.004651 -0.012225 0.049959
v 0.006028 0.024477 0.031608
v -0.015536 -0.007639 0.015090
v -0.007733 0.027230 0.019678
v -0.003145 -0.014982 0.033895
v 0.016585 0.011172 0.015087
v -0.011864 0.024018 0.038025
v 0.011076 0.016678 0.049959
v 0.011537 0.023103 0.020135
v 0.019336 0.000624 0.033434
v 0.013370 -0.003048 0.049959
v -0.010027 0.018512 0.015090
v -0.017830 -0.007639 0.035728
v 0.006945 -0.010387 0.015090
v 0.011993 -0.012685 0.026102
v -0.018286 0.009334 0.027935
v -0.001767 0.026315 0.032523
v 0.016125 0.017597 0.034352
v -0.009110 0.018512 0.049959
v -0.018286 0.000165 0.049959
v 0.003734 0.026311 0.020135
v -0.015536 0.019431 0.036189
v 0.016585 0.005211 0.015087
v -0.008193 -0.013604 0.028853
v 0.002817 0.019886 0.049959
v -0.017369 0.006585 0.015090
v -0.007733 -0.010391 0.049494
v 0.004651 -0.014978 0.037107
v 0.009243 -0.010387 0.048119
v -0.009570 0.024933 0.017841
v -0.004061 -0.011770 0.019678
v -0.001767 0.024937 0.015548
v -0.010944 -0.011766 0.036646
v 0.020253 0.005211 0.032519
v 0.014748 0.000624 0.049959
v -0.007276 0.027694 0.022429
v 0.018879 -0.000754 0.031601
v -0.000851 -0.012225 0.049959
v 0.011993 0.022643 0.018760
v 0.018879 0.013925 0.034813
v 0.017502 -0.003967 0.035731
v 0.014287 0.019431 0.034352
v 0.007405 0.021265 0.042152
v -0.013698 0.022184 0.038025
v 0.020253 0.005671 0.029314
v -0.010027 0.024477 0.038483
v -0.000394 0.021265 0.048119
v 0.003277 0.025856 0.016923
v -0.012321 0.015299 0.049959
v 0.008322 -0.013140 0.039401
v -0.018286 0.009334 0.041237
f 97 91 126 
f 68 70 72 
f 64 72 73 
f 70 68 76 
f 65 64 78 
f 64 73 78 
f 72 70 83 
f 70 76 86 
f 66 81 87 
f 89 71 90 
f 75 89 90 
f 73 72 91 
f 72 83 94 
f 72 64 95 
f 68 72 95 
f 64 88 95 
f 88 68 95 
f 77 84 96 
f 92 77 96 
f 69 91 97 
f 78 73 98 
f 73 81 98 
f 71 89 98 
f 89 78 98 
f 64 65 99 
f 65 78 99 
f 75 80 99 
f 63 94 100 
f 94 83 100 
f 81 73 101 
f 87 81 101 
f 91 69 101 
f 73 91 101 
f 80 75 103 
f 75 90 103 
f 67 86 104 
f 86 76 104 
f 69 79 105 
f 101 69 105 
f 87 101 105 
f 89 75 106 
f 78 89 106 
f 99 78 106 
f 75 99 106 
f 66 87 107 
f 105 79 107 
f 87 105 107 
f 88 64 108 
f 68 88 108 
f 64 99 108 
f 99 80 108 
f 102 68 108 
f 80 102 108 
f 70 86 110 
f 109 70 110 
f 85 109 110 
f 79 69 111 
f 69 82 111 
f 92 96 111 
f 90 71 112 
f 71 98 112 
f 76 68 113 
f 68 102 113 
f 102 80 113 
f 103 76 113 
f 80 103 113 
f 81 66 114 
f 74 81 114 
f 93 74 114 
f 84 93 114 
f 96 84 114 
f 83 70 115 
f 74 93 115 
f 93 83 115 
f 70 109 115 
f 109 74 115 
f 86 67 116 
f 67 90 116 
f 110 86 116 
f 85 110 116 
f 112 85 116 
f 90 112 116 
f 84 77 117 
f 83 93 117 
f 93 84 117 
f 77 92 118 
f 100 83 118 
f 117 77 118 
f 83 117 118 
f 82 69 119 
f 94 82 119 
f 97 72 119 
f 69 97 119 
f 81 74 120 
f 98 81 120 
f 74 109 120 
f 109 85 120 
f 85 112 120 
f 112 98 120 
f 94 63 121 
f 82 94 121 
f 111 82 121 
f 92 111 121 
f 63 100 122 
f 118 92 122 
f 100 118 122 
f 121 63 122 
f 92 121 122 
f 66 107 123 
f 107 79 123 
f 79 111 123 
f 111 96 123 
f 114 66 123 
f 96 114 123 
f 72 94 124 
f 94 119 124 
f 119 72 124 
f 90 67 125 
f 76 103 125 
f 103 90 125 
f 67 104 125 
f 104 76 125 
f 91 72 126 
f 72 97 126 
o convex_2
v -0.000396 -0.012229 0.050879
v 0.002360 0.019893 0.050419
v 0.002360 0.019893 0.049962
v -0.018290 0.005206 0.050419
v -0.007734 0.013466 0.066478
v 0.011535 0.002917 0.066478
v -0.008193 -0.008094 0.066478
v 0.014750 0.001540 0.049962
v 0.008324 0.014843 0.066018
v 0.005571 -0.009016 0.065558
v -0.015994 0.004288 0.066018
v -0.015075 -0.004425 0.049962
v -0.009571 0.018053 0.049962
v 0.012913 0.013925 0.049962
v 0.010161 -0.008557 0.049962
v 0.001901 0.017138 0.065099
v 0.002816 -0.010393 0.066478
v 0.010161 -0.003510 0.065558
v -0.007275 -0.010390 0.049962
v 0.013372 0.008878 0.058675
v -0.015534 0.000163 0.065099
v 0.004653 -0.012229 0.049962
v -0.002689 -0.010849 0.065099
v -0.018290 0.000622 0.049962
v 0.010161 0.017138 0.050419
v -0.015075 0.006124 0.066478
v -0.004522 0.019893 0.050419
v -0.004063 0.015302 0.066478
v 0.010161 0.013007 0.065558
v 0.014750 0.010252 0.050879
v -0.011404 0.016217 0.050419
v -0.012779 -0.003969 0.066018
v -0.008193 -0.008553 0.066018
v 0.012913 -0.003969 0.050419
v 0.011535 0.007957 0.066478
v -0.011404 0.010712 0.066018
v 0.014750 0.003379 0.052714
v -0.012323 -0.007179 0.050419
v 0.008324 -0.009934 0.053173
v 0.004194 0.016679 0.065558
v -0.016912 0.007957 0.049962
v -0.002229 0.019893 0.052714
v -0.016912 -0.000752 0.055467
v -0.017371 0.001999 0.058675
v 0.003734 0.016220 0.066478
v -0.015534 0.006124 0.065099
v 0.007405 -0.007638 0.065099
v -0.004982 0.015302 0.066018
v 0.008324 0.018057 0.050419
v 0.009242 -0.004425 0.066478
v 0.003275 -0.012229 0.052714
v -0.015534 0.001540 0.066478
v 0.011535 -0.006720 0.050419
v -0.009571 0.018053 0.050419
v 0.004653 -0.010393 0.062805
v 0.001901 -0.010852 0.065558
v 0.014750 0.007039 0.053173
v 0.011535 0.015761 0.050879
v -0.002689 -0.010390 0.066478
v -0.014157 -0.005343 0.051338
v -0.007734 0.018971 0.050419
v -0.017371 0.007042 0.051338
v 0.014750 0.001999 0.051338
v 0.011994 0.003379 0.065099
f 144 189 190 
f 132 131 133 
f 129 134 138 
f 129 138 139 
f 134 129 140 
f 138 134 141 
f 132 133 143 
f 138 141 145 
f 127 145 148 
f 145 141 148 
f 145 127 149 
f 139 138 150 
f 140 129 151 
f 133 131 152 
f 128 129 153 
f 129 139 153 
f 131 132 154 
f 134 140 156 
f 155 146 156 
f 140 155 156 
f 145 149 159 
f 133 158 159 
f 141 134 160 
f 154 132 161 
f 155 135 161 
f 146 155 161 
f 152 131 162 
f 134 156 163 
f 138 145 164 
f 145 159 164 
f 148 141 165 
f 128 142 166 
f 150 130 167 
f 139 150 167 
f 157 139 167 
f 142 128 168 
f 128 153 168 
f 150 138 169 
f 138 158 169 
f 158 147 169 
f 137 130 170 
f 130 150 170 
f 150 169 170 
f 169 147 170 
f 142 154 171 
f 154 161 171 
f 161 135 171 
f 166 142 171 
f 135 166 171 
f 130 137 172 
f 137 152 172 
f 152 162 172 
f 162 157 172 
f 136 165 173 
f 154 142 174 
f 131 154 174 
f 142 168 174 
f 168 153 174 
f 129 128 175 
f 151 129 175 
f 135 151 175 
f 128 166 175 
f 166 135 175 
f 132 143 176 
f 143 136 176 
f 144 132 176 
f 173 144 176 
f 136 173 176 
f 127 148 177 
f 149 127 177 
f 133 152 178 
f 152 137 178 
f 158 133 178 
f 147 158 178 
f 137 170 178 
f 170 147 178 
f 141 160 179 
f 160 144 179 
f 165 141 179 
f 144 173 179 
f 173 165 179 
f 139 157 180 
f 162 131 180 
f 157 162 180 
f 131 174 180 
f 136 143 181 
f 165 136 181 
f 148 165 181 
f 177 148 182 
f 149 177 182 
f 181 143 182 
f 148 181 182 
f 156 146 183 
f 146 161 183 
f 163 156 183 
f 151 135 184 
f 140 151 184 
f 135 155 184 
f 155 140 184 
f 143 133 185 
f 133 159 185 
f 159 149 185 
f 182 143 185 
f 149 182 185 
f 158 138 186 
f 159 158 186 
f 138 164 186 
f 164 159 186 
f 153 139 187 
f 174 153 187 
f 139 180 187 
f 180 174 187 
f 167 130 188 
f 157 167 188 
f 130 172 188 
f 172 157 188 
f 160 134 189 
f 144 160 189 
f 134 163 189 
f 189 163 190 
f 132 144 190 
f 161 132 190 
f 183 161 190 
f 163 183 190 
o convex_3
v -0.009571 0.019887 -0.012449
v -0.023338 0.005203 -0.009237
v -0.021501 0.001998 -0.009237
v -0.009571 0.018975 -0.005107
v -0.009571 -0.014523 -0.005107
v -0.022878 0.010714 -0.005107
v -0.011866 0.000622 -0.012449
v -0.021043 0.014844 -0.010614
v -0.020124 0.005661 -0.012449
v -0.020124 -0.001213 -0.005107
v -0.009571 0.003375 -0.011990
v -0.010031 0.021728 -0.010155
v -0.021043 0.014844 -0.007402
v -0.015538 -0.002590 -0.010614
v -0.010031 -0.014062 -0.006025
v -0.016913 0.014844 -0.012449
v -0.015079 0.017133 -0.005107
v -0.023338 0.008876 -0.010155
v -0.023338 0.006125 -0.005567
v -0.015079 0.000622 -0.012449
v -0.012327 0.019429 -0.012449
v -0.017372 -0.005343 -0.005567
v -0.021501 0.003375 -0.010614
v -0.021501 0.014844 -0.010155
v -0.010031 0.021728 -0.011530
v -0.021043 0.015302 -0.008320
v -0.023338 0.010256 -0.006025
v -0.022878 0.005203 -0.010614
v -0.022417 0.008876 -0.011072
v -0.009571 -0.014062 -0.006025
v -0.020124 0.013925 -0.005107
f 207 203 221 
f 191 194 195 
f 195 194 196 
f 191 197 199 
f 192 193 200 
f 195 196 200 
f 191 195 201 
f 197 191 201 
f 194 191 202 
f 191 199 206 
f 196 194 207 
f 194 202 207 
f 192 200 209 
f 200 196 209 
f 208 192 209 
f 199 197 210 
f 204 199 210 
f 197 205 210 
f 205 204 210 
f 191 206 211 
f 206 198 211 
f 200 193 212 
f 195 200 212 
f 193 205 212 
f 205 195 212 
f 199 204 213 
f 205 193 213 
f 204 205 213 
f 198 208 214 
f 202 191 215 
f 191 211 215 
f 211 198 215 
f 198 214 215 
f 215 214 216 
f 196 203 216 
f 207 202 216 
f 203 207 216 
f 202 215 216 
f 209 196 217 
f 208 209 217 
f 214 208 217 
f 216 214 217 
f 196 216 217 
f 193 192 218 
f 192 208 218 
f 213 193 218 
f 199 213 218 
f 198 206 219 
f 206 199 219 
f 208 198 219 
f 218 208 219 
f 199 218 219 
f 201 195 220 
f 197 201 220 
f 195 205 220 
f 205 197 220 
f 203 196 221 
f 196 207 221 
o convex_4
v -0.011407 0.022187 -0.011531
v -0.009571 0.028152 -0.008319
v -0.009571 0.032282 -0.009238
v -0.013242 0.029528 -0.010156
v -0.009571 0.032282 -0.012449
v -0.009571 0.022648 -0.011990
v -0.011865 0.023107 -0.009238
v -0.012324 0.023107 -0.012449
v -0.012783 0.030447 -0.011990
v -0.013242 0.023564 -0.009696
v -0.009571 0.023107 -0.009238
v -0.012783 0.029069 -0.009238
v -0.010030 0.033200 -0.010156
v -0.013242 0.023564 -0.011531
f 222 231 235 
f 224 223 226 
f 226 223 227 
f 227 222 229 
f 226 227 229 
f 226 229 230 
f 222 228 231 
f 227 223 232 
f 222 227 232 
f 223 228 232 
f 228 222 232 
f 223 224 233 
f 228 223 233 
f 225 231 233 
f 231 228 233 
f 224 226 234 
f 230 225 234 
f 226 230 234 
f 233 224 234 
f 225 233 234 
f 229 222 235 
f 225 230 235 
f 230 229 235 
f 231 225 235 
o convex_5
v -0.026553 0.024482 0.025642
v -0.027010 0.003373 0.012331
v -0.025635 0.003373 0.012331
v -0.027463 0.009342 0.037108
v -0.035727 0.015760 0.010037
v -0.018749 0.018514 0.010494
v -0.020128 0.013014 0.037108
v -0.029301 0.018514 0.002237
v -0.030675 0.018512 0.037108
v -0.023341 0.006586 0.002237
v -0.020587 0.021267 0.037108
v -0.033891 0.009799 0.003616
v -0.033889 0.009799 0.020594
v -0.023798 0.024482 0.011412
v -0.032053 0.022643 0.018300
v -0.020128 0.008421 0.012331
v -0.035726 0.017136 0.021509
v -0.023800 0.004753 0.020594
v -0.031136 0.013014 0.037108
v -0.018290 0.015303 0.020133
v -0.023798 0.020810 0.005449
v -0.021963 0.024482 0.019219
v -0.028842 0.004753 0.020594
v -0.029301 0.006127 0.002237
v -0.025175 0.023101 0.035268
v -0.033891 0.013927 0.002237
v -0.033432 0.019890 0.010955
v -0.022880 0.011634 0.002237
v -0.035726 0.013473 0.020594
v -0.021963 0.005210 0.015546
v -0.032053 0.022643 0.021970
v -0.023801 0.009342 0.037108
v -0.018290 0.018512 0.020133
v -0.027464 0.022645 0.007746
v -0.020128 0.022186 0.012331
v -0.018749 0.013927 0.010955
v -0.028842 0.024482 0.018758
v -0.023798 0.004751 0.004992
v -0.032512 0.007962 0.003616
v -0.027922 0.021267 0.037108
v -0.033889 0.020808 0.021970
v -0.032513 0.015762 0.034350
v -0.030677 0.007964 0.026093
v -0.020128 0.022643 0.019673
v -0.021045 0.021269 0.008204
v -0.020128 0.020808 0.037108
v -0.028842 0.024482 0.023345
v -0.028842 0.004751 0.004992
v -0.025175 0.004753 0.021970
v -0.021504 0.009340 0.004534
v -0.030677 0.006129 0.020137
v -0.020126 0.008423 0.015546
v -0.021506 0.011177 0.037108
v -0.028842 0.021267 0.035725
v -0.023342 0.022643 0.036647
v -0.027464 0.018514 0.002237
v -0.024257 0.022645 0.007286
v -0.035726 0.017595 0.017843
v -0.025175 0.004751 0.003616
v -0.033891 0.010718 0.002237
v -0.023801 0.024482 0.024721
v -0.035727 0.014382 0.010494
v -0.025175 0.024482 0.010955
v -0.033889 0.020808 0.018300
f 293 276 299 
f 239 242 244 
f 244 242 246 
f 239 244 254 
f 249 236 257 
f 243 245 259 
f 243 259 261 
f 261 240 262 
f 243 261 262 
f 245 243 263 
f 247 248 264 
f 248 254 264 
f 253 238 265 
f 242 239 267 
f 255 241 268 
f 242 255 268 
f 243 262 269 
f 262 250 269 
f 249 257 270 
f 268 241 270 
f 241 255 271 
f 255 251 271 
f 236 249 272 
f 250 266 272 
f 269 250 272 
f 245 251 273 
f 265 238 273 
f 251 265 273 
f 248 247 274 
f 244 246 275 
f 252 244 276 
f 266 250 276 
f 244 252 277 
f 254 244 277 
f 252 264 277 
f 264 254 277 
f 239 254 278 
f 254 248 278 
f 258 239 278 
f 257 246 279 
f 270 257 279 
f 268 270 279 
f 241 263 280 
f 263 256 280 
f 270 241 280 
f 249 270 280 
f 246 242 281 
f 242 268 281 
f 279 246 281 
f 268 279 281 
f 260 236 282 
f 236 272 282 
f 272 266 282 
f 274 259 283 
f 237 238 284 
f 238 253 284 
f 258 237 284 
f 239 258 284 
f 267 239 284 
f 253 267 284 
f 251 245 285 
f 263 241 285 
f 245 263 285 
f 271 251 285 
f 241 271 285 
f 237 258 286 
f 248 274 286 
f 278 248 286 
f 258 278 286 
f 283 237 286 
f 274 283 286 
f 255 242 287 
f 251 255 287 
f 242 265 287 
f 265 251 287 
f 265 242 288 
f 253 265 288 
f 242 267 288 
f 267 253 288 
f 244 275 289 
f 275 260 289 
f 266 276 289 
f 276 244 289 
f 260 282 289 
f 282 266 289 
f 246 257 290 
f 275 246 290 
f 260 275 290 
f 263 243 291 
f 256 263 291 
f 243 269 292 
f 249 280 292 
f 280 256 292 
f 291 243 292 
f 256 291 292 
f 240 252 293 
f 262 240 293 
f 252 276 293 
f 238 237 294 
f 259 245 294 
f 273 238 294 
f 245 273 294 
f 237 283 294 
f 283 259 294 
f 240 261 295 
f 261 259 295 
f 274 247 295 
f 259 274 295 
f 257 236 296 
f 236 260 296 
f 290 257 296 
f 260 290 296 
f 252 240 297 
f 247 264 297 
f 264 252 297 
f 240 295 297 
f 295 247 297 
f 272 249 298 
f 269 272 298 
f 249 292 298 
f 292 269 298 
f 250 262 299 
f 276 250 299 
f 262 293 299 
o convex_6
v 0.011535 0.022645 0.007283
v -0.018749 -0.007176 0.004528
v -0.017369 -0.009930 0.005446
v 0.008784 -0.029207 -0.005106
v -0.013697 0.018055 -0.005106
v 0.014287 0.019432 -0.005106
v 0.014287 -0.013143 0.007283
v -0.008653 0.023098 0.007283
v -0.018749 -0.003505 -0.005106
v 0.019339 -0.009012 -0.005107
v -0.000850 -0.031961 -0.004646
v -0.012780 -0.013602 0.007283
v 0.000067 0.027694 0.000860
v -0.018749 0.014378 -0.000975
v 0.001439 -0.024611 0.003611
v 0.016125 0.006116 0.007283
v -0.018749 0.000155 0.007283
v 0.007867 0.024016 -0.005106
v 0.014749 0.020803 0.004070
v 0.019339 -0.008094 0.000858
v -0.006815 -0.025076 -0.005106
v -0.004063 0.027235 0.004528
v 0.002815 -0.029666 -0.000057
v 0.011994 0.024481 -0.001893
v 0.019339 -0.002593 -0.004189
v 0.005570 0.025858 0.007283
v -0.014159 0.015760 0.007283
v -0.018749 0.014378 -0.005106
v 0.016125 -0.017274 -0.001435
v 0.006487 -0.016815 0.007283
v 0.008325 -0.029660 -0.003728
v 0.015208 0.020344 -0.001435
v -0.017369 -0.009930 0.007283
v 0.002815 0.024481 -0.004646
v 0.019339 -0.002593 -0.000977
v -0.002225 -0.027371 0.000401
v 0.016125 -0.005794 0.007283
v 0.003736 0.027694 0.001317
v -0.006356 0.025858 0.003152
v 0.017501 -0.013143 0.002234
v 0.014749 0.017132 0.007283
v 0.005112 -0.032420 -0.005106
v 0.011077 0.024481 0.004528
v -0.003605 0.026776 0.000860
v 0.000067 -0.023235 0.004528
v 0.009243 -0.020940 0.004070
v 0.012453 -0.022322 -0.000057
v -0.004522 0.025858 0.007283
v 0.018876 -0.008094 0.002693
v 0.001898 0.027694 0.004528
v 0.017501 -0.014061 -0.005106
v 0.005570 0.025858 -0.003271
v 0.006487 -0.029207 -0.001435
v -0.009570 0.022645 0.006823
v 0.019339 -0.005799 0.001317
v -0.005898 0.021262 -0.005106
v -0.000850 -0.025070 0.003152
v 0.019339 -0.003052 -0.005107
v -0.015076 -0.012219 0.007283
v 0.012911 0.024016 0.000401
v -0.017369 0.005663 0.007283
v 0.012911 -0.014514 0.007283
v -0.018749 -0.007176 0.007283
v 0.015666 -0.009930 0.007283
f 339 348 363 
f 306 300 307 
f 306 307 311 
f 308 301 313 
f 300 306 315 
f 311 307 316 
f 313 301 316 
f 302 301 320 
f 301 308 320 
f 308 309 320 
f 305 317 323 
f 319 309 324 
f 307 300 325 
f 316 307 326 
f 309 308 327 
f 308 313 327 
f 306 311 329 
f 303 328 330 
f 305 323 331 
f 301 302 332 
f 311 316 332 
f 302 320 332 
f 320 310 332 
f 319 324 334 
f 331 318 334 
f 324 331 334 
f 310 322 335 
f 315 306 336 
f 304 327 338 
f 327 313 338 
f 309 319 339 
f 300 315 340 
f 318 300 340 
f 334 318 340 
f 309 303 341 
f 320 309 341 
f 310 320 341 
f 322 310 341 
f 303 330 341 
f 300 318 342 
f 325 300 342 
f 337 325 342 
f 321 312 343 
f 312 333 343 
f 304 338 343 
f 338 321 343 
f 329 311 344 
f 314 329 344 
f 314 322 345 
f 330 328 346 
f 328 339 346 
f 339 306 346 
f 321 307 347 
f 307 325 347 
f 315 336 348 
f 339 319 348 
f 312 321 349 
f 337 312 349 
f 325 337 349 
f 321 347 349 
f 347 325 349 
f 303 309 350 
f 328 303 350 
f 309 339 350 
f 339 328 350 
f 323 317 351 
f 333 312 351 
f 317 333 351 
f 312 337 351 
f 337 323 351 
f 322 341 352 
f 341 330 352 
f 345 322 352 
f 330 346 352 
f 307 321 353 
f 326 307 353 
f 313 326 353 
f 338 313 353 
f 321 338 353 
f 319 334 354 
f 340 315 354 
f 334 340 354 
f 315 348 354 
f 348 319 354 
f 333 317 355 
f 304 343 355 
f 343 333 355 
f 322 314 356 
f 311 335 356 
f 335 322 356 
f 314 344 356 
f 344 311 356 
f 317 305 357 
f 324 309 357 
f 327 304 357 
f 309 327 357 
f 305 331 357 
f 331 324 357 
f 304 355 357 
f 355 317 357 
f 332 310 358 
f 311 332 358 
f 335 311 358 
f 310 335 358 
f 331 323 359 
f 318 331 359 
f 323 337 359 
f 342 318 359 
f 337 342 359 
f 313 316 360 
f 326 313 360 
f 316 326 360 
f 306 329 361 
f 329 314 361 
f 314 345 361 
f 346 306 361 
f 345 352 361 
f 352 346 361 
f 316 301 362 
f 301 332 362 
f 332 316 362 
f 336 306 363 
f 306 339 363 
f 348 336 363 
o convex_7
v 0.017042 0.008879 0.008659
v -0.018747 -0.007177 0.007283
v -0.017371 -0.009932 0.007283
v -0.017371 -0.005800 0.015084
v -0.004065 0.025854 0.007283
v 0.016582 -0.000756 0.015084
v -0.018747 0.018055 0.015084
v 0.012453 -0.014519 0.007283
v 0.006949 0.022645 0.015084
v 0.007408 -0.010386 0.015084
v 0.012910 0.021264 0.007283
v -0.014158 0.015300 0.007283
v 0.017042 0.012091 0.014625
v -0.011406 -0.013599 0.008200
v -0.018747 0.018513 0.011871
v 0.016126 -0.004884 0.007283
v -0.003605 0.023099 0.015084
v -0.015075 -0.008551 0.015084
v 0.005572 -0.015900 0.007741
v 0.004196 0.025858 0.007741
v 0.017502 -0.000756 0.013707
v -0.018747 -0.003045 0.014625
v 0.005572 -0.014061 0.010954
v 0.012910 -0.006715 0.015084
v 0.017962 0.007497 0.009578
v -0.018747 -0.000294 0.007283
v -0.016911 -0.010390 0.010954
v 0.011534 0.018975 0.015084
v -0.002229 0.024477 0.013247
v -0.012322 -0.013599 0.007283
v 0.013830 -0.013145 0.007741
v 0.010157 -0.013145 0.011412
v -0.010026 0.021268 0.007283
v 0.014746 0.016674 0.007283
v 0.010617 0.023103 0.008200
v 0.017502 0.011625 0.014166
v -0.013238 -0.010390 0.013247
v 0.003736 -0.011768 0.013707
v 0.002816 0.024477 0.013247
v 0.015206 -0.010386 0.007283
v 0.017042 0.011172 0.015084
v -0.018747 -0.006719 0.011412
v 0.008325 0.024477 0.007283
v 0.017962 0.003835 0.010495
v -0.017371 0.005666 0.007283
v 0.016126 0.006577 0.007283
v -0.004065 0.025854 0.007741
v 0.007408 -0.015900 0.007283
v 0.017502 0.011625 0.012329
v 0.008785 -0.011306 0.014166
v 0.017962 0.007497 0.012788
v -0.014615 -0.012225 0.009578
f 377 400 415 
f 366 365 368 
f 367 369 370 
f 366 368 371 
f 370 369 372 
f 369 367 373 
f 371 368 374 
f 368 365 375 
f 365 370 378 
f 371 374 379 
f 370 372 380 
f 373 367 381 
f 370 365 385 
f 367 370 385 
f 377 382 386 
f 369 373 387 
f 384 369 387 
f 375 365 389 
f 365 378 389 
f 381 367 390 
f 372 369 391 
f 376 374 391 
f 370 380 392 
f 366 371 393 
f 382 377 393 
f 384 387 394 
f 394 387 395 
f 386 382 395 
f 371 394 395 
f 368 375 396 
f 378 368 396 
f 375 378 396 
f 379 374 397 
f 388 364 397 
f 372 391 398 
f 391 374 398 
f 374 376 399 
f 377 386 400 
f 373 381 401 
f 381 400 401 
f 400 386 401 
f 380 372 402 
f 372 383 402 
f 392 380 402 
f 383 392 402 
f 371 379 403 
f 394 371 403 
f 384 394 403 
f 369 384 404 
f 391 369 404 
f 376 391 404 
f 399 376 404 
f 384 399 404 
f 365 366 405 
f 385 365 405 
f 367 385 405 
f 366 390 405 
f 390 367 405 
f 374 368 406 
f 368 383 406 
f 383 372 406 
f 398 374 406 
f 372 398 406 
f 379 388 407 
f 403 379 407 
f 384 403 407 
f 378 375 408 
f 375 389 408 
f 389 378 408 
f 364 388 409 
f 388 379 409 
f 397 364 409 
f 379 397 409 
f 368 378 410 
f 378 370 410 
f 383 368 410 
f 370 392 410 
f 392 383 410 
f 393 371 411 
f 382 393 411 
f 371 395 411 
f 395 382 411 
f 397 374 412 
f 388 397 412 
f 374 399 412 
f 399 388 412 
f 387 373 413 
f 395 387 413 
f 386 395 413 
f 373 401 413 
f 401 386 413 
f 399 384 414 
f 388 399 414 
f 407 388 414 
f 384 407 414 
f 390 366 415 
f 381 390 415 
f 366 393 415 
f 393 377 415 
f 400 381 415 
o convex_8
v -0.018291 0.007961 0.043067
v -0.018750 -0.008099 0.022432
v -0.018290 -0.008099 0.022432
v -0.023337 0.008880 0.023349
v -0.023337 -0.000758 0.033902
v -0.018291 0.005667 0.022892
v -0.018750 0.001996 0.050412
v -0.018290 -0.006721 0.035728
v -0.023337 -0.002133 0.026563
v -0.023337 0.008880 0.027938
v -0.018750 -0.005345 0.019672
v -0.018291 0.008880 0.027481
v -0.020126 -0.005345 0.035271
v -0.018750 0.003831 0.050412
v -0.024254 0.002454 0.028398
v -0.023337 0.001996 0.034819
v -0.018290 0.000616 0.049494
v -0.022878 -0.001676 0.024267
v -0.020126 -0.007180 0.026563
v -0.018750 0.008880 0.040774
v -0.018750 -0.000299 0.048116
v -0.018290 0.001996 0.021056
v -0.023337 -0.002133 0.031148
v -0.018750 0.005208 0.049033
v -0.020126 -0.003967 0.038481
v -0.021960 0.008880 0.023349
v -0.018290 -0.003509 0.019672
v -0.020126 -0.006263 0.022432
v -0.018750 -0.006721 0.035728
v -0.023795 0.000159 0.026102
v -0.021501 -0.003050 0.022432
v -0.018290 0.003831 0.050412
f 439 429 447 
f 417 418 423 
f 418 417 426 
f 419 425 427 
f 425 419 430 
f 430 420 431 
f 420 422 431 
f 422 429 431 
f 429 425 431 
f 425 430 431 
f 423 418 432 
f 416 427 435 
f 427 425 435 
f 422 420 436 
f 432 422 436 
f 423 432 436 
f 421 427 437 
f 432 418 437 
f 420 430 438 
f 424 434 438 
f 434 428 438 
f 425 429 439 
f 416 435 439 
f 435 425 439 
f 436 420 440 
f 420 438 440 
f 438 428 440 
f 427 421 441 
f 419 427 441 
f 437 419 441 
f 421 437 441 
f 418 426 442 
f 426 419 442 
f 419 437 442 
f 437 418 442 
f 426 417 443 
f 424 433 443 
f 417 434 443 
f 434 424 443 
f 417 423 444 
f 434 417 444 
f 428 434 444 
f 423 436 444 
f 440 428 444 
f 436 440 444 
f 430 419 445 
f 433 424 445 
f 419 433 445 
f 424 438 445 
f 438 430 445 
f 419 426 446 
f 433 419 446 
f 426 443 446 
f 443 433 446 
f 427 416 447 
f 429 422 447 
f 422 432 447 
f 437 427 447 
f 432 437 447 
f 416 439 447 
o convex_9
v -0.019208 -0.002134 -0.005107
v -0.018749 0.005210 0.000858
v -0.019208 0.005210 0.000858
v -0.018749 0.013927 -0.005107
v -0.022419 0.010712 -0.005107
v -0.022419 0.004752 -0.004648
v -0.019208 0.013468 -0.001437
v -0.018749 -0.001675 -0.002353
v -0.021961 0.011173 -0.003730
v -0.019208 0.002914 0.000858
v -0.020126 -0.000756 -0.003730
v -0.018749 -0.002134 -0.005107
v -0.020126 0.013927 -0.005107
v -0.021502 0.006584 -0.002353
f 453 457 461 
f 451 448 452 
f 452 448 453 
f 450 449 454 
f 449 451 454 
f 451 449 455 
f 452 453 456 
f 450 454 456 
f 449 450 457 
f 455 449 457 
f 453 448 458 
f 448 455 458 
f 455 457 458 
f 457 453 458 
f 448 451 459 
f 451 455 459 
f 455 448 459 
f 451 452 460 
f 454 451 460 
f 452 456 460 
f 456 454 460 
f 450 456 461 
f 456 453 461 
f 457 450 461 
o convex_10
v -0.023798 0.021728 0.053628
v -0.027466 0.009338 0.037110
v -0.029761 0.011634 0.037110
v -0.027925 0.011175 0.065559
v -0.020128 0.013011 0.037110
v -0.020128 0.013011 0.066018
v -0.030678 0.018516 0.037110
v -0.020128 0.020351 0.037110
v -0.029302 0.016678 0.065559
v -0.020586 0.019892 0.064182
v -0.023798 0.009338 0.063724
v -0.027925 0.021268 0.037110
v -0.025174 0.019892 0.066478
v -0.031139 0.013469 0.041701
v -0.023798 0.009338 0.037110
v -0.023339 0.022187 0.037110
v -0.029302 0.014388 0.066478
v -0.027466 0.019892 0.057759
v -0.021962 0.021268 0.061887
v -0.020128 0.017137 0.066478
v -0.021962 0.010716 0.065559
v -0.026090 0.009338 0.062807
v -0.031139 0.015763 0.045372
v -0.029302 0.011175 0.047206
v -0.029761 0.013928 0.064641
v -0.024715 0.021268 0.060053
v -0.027008 0.011175 0.066478
v -0.021504 0.011175 0.037110
v -0.029302 0.019892 0.042161
v -0.031139 0.013469 0.037110
v -0.031139 0.017598 0.040327
v -0.026549 0.021728 0.042161
v -0.021045 0.021268 0.038030
v -0.029302 0.012553 0.063262
v -0.029302 0.018057 0.058216
v -0.020128 0.019433 0.063724
v -0.021962 0.011175 0.066478
v -0.026549 0.019433 0.065559
v -0.021962 0.019892 0.066018
v -0.027466 0.009338 0.044455
v -0.029761 0.015306 0.065101
v -0.027466 0.021268 0.043081
f 487 493 503 
f 463 464 466 
f 466 464 468 
f 466 468 469 
f 467 466 469 
f 469 468 473 
f 463 466 476 
f 472 463 476 
f 469 473 477 
f 474 470 478 
f 477 462 480 
f 467 469 481 
f 474 478 481 
f 472 476 482 
f 463 472 483 
f 475 464 485 
f 483 465 485 
f 465 478 486 
f 484 475 486 
f 474 480 487 
f 480 462 487 
f 478 465 488 
f 481 478 488 
f 465 483 488 
f 483 472 488 
f 466 467 489 
f 476 466 489 
f 467 482 489 
f 482 476 489 
f 473 468 490 
f 468 464 491 
f 464 475 491 
f 475 484 491 
f 491 484 492 
f 490 468 492 
f 468 491 492 
f 462 477 493 
f 477 473 493 
f 487 462 493 
f 471 469 494 
f 469 477 494 
f 480 471 494 
f 477 480 494 
f 475 485 495 
f 485 465 495 
f 465 486 495 
f 486 475 495 
f 479 490 496 
f 492 470 496 
f 490 492 496 
f 469 471 497 
f 481 469 497 
f 471 481 497 
f 467 481 498 
f 482 467 498 
f 472 482 498 
f 481 488 498 
f 488 472 498 
f 470 474 499 
f 487 479 499 
f 474 487 499 
f 496 470 499 
f 479 496 499 
f 471 480 500 
f 480 474 500 
f 481 471 500 
f 474 481 500 
f 464 463 501 
f 463 483 501 
f 485 464 501 
f 483 485 501 
f 478 470 502 
f 486 478 502 
f 484 486 502 
f 492 484 502 
f 470 492 502 
f 479 487 503 
f 473 490 503 
f 490 479 503 
f 493 473 503 
o convex_11
v -0.022879 0.009340 0.001317
v -0.033892 0.011175 0.001776
v -0.033892 0.011175 0.002235
v -0.028385 0.019434 0.001776
v -0.029761 0.016222 -0.002354
v -0.027927 0.007963 -0.001895
v -0.024255 0.006128 0.002235
v -0.025174 0.012092 -0.001895
v -0.031596 0.010717 -0.002354
v -0.032055 0.007963 0.001776
v -0.030679 0.018974 -0.000977
v -0.023339 0.012092 0.002235
v -0.025632 0.009340 -0.002354
v -0.028843 0.019434 -0.000518
v -0.033892 0.013468 0.002235
v -0.028843 0.006586 -0.000060
v -0.029302 0.018974 0.002235
v -0.023339 0.012092 0.000399
v -0.032515 0.012551 -0.001436
v -0.028843 0.006128 0.002235
v -0.025174 0.006586 -0.000060
v -0.023339 0.008421 -0.000060
v -0.032055 0.009800 -0.001436
v -0.030219 0.019434 0.000858
f 518 520 527 
f 506 505 513 
f 506 510 515 
f 510 504 515 
f 508 511 516 
f 509 512 516 
f 512 508 516 
f 511 508 517 
f 508 514 517 
f 505 506 518 
f 506 515 518 
f 515 507 520 
f 518 515 520 
f 507 515 521 
f 515 504 521 
f 511 517 521 
f 517 507 521 
f 508 512 522 
f 514 508 522 
f 505 518 522 
f 518 514 522 
f 510 506 523 
f 506 513 523 
f 519 510 523 
f 513 519 523 
f 509 516 524 
f 519 509 524 
f 510 519 524 
f 504 510 525 
f 516 511 525 
f 521 504 525 
f 511 521 525 
f 510 524 525 
f 524 516 525 
f 512 509 526 
f 513 505 526 
f 509 519 526 
f 519 513 526 
f 505 522 526 
f 522 512 526 
f 507 517 527 
f 517 514 527 
f 514 518 527 
f 520 507 527 
