o convex_0
v 0.001760 0.004299 0.008775
v -0.010638 0.003620 -0.003965
v -0.010980 0.003620 -0.003794
v -0.009960 0.005998 -0.002604
v 0.010593 0.003790 0.000113
v 0.007875 0.005998 0.002829
v -0.004865 0.005998 0.007246
v -0.010299 0.003620 0.003169
v 0.006005 0.005998 -0.000566
v 0.003457 0.003620 0.008265
v 0.002099 0.005998 0.008265
v -0.004694 0.003620 0.007756
v 0.009913 0.003620 0.003169
v -0.010638 0.005998 0.000792
v 0.006346 0.003620 -0.001416
v -0.008091 0.005998 -0.002945
v -0.012169 0.003790 -0.001076
v -0.008432 0.003790 -0.003965
v 0.003798 0.005828 0.007415
v -0.000786 0.005998 0.008434
v -0.009280 0.005998 0.002998
v 0.007704 0.005998 0.000792
v 0.000570 0.003620 0.008775
v 0.009574 0.004130 0.003339
v -0.010638 0.005998 -0.001586
v 0.010422 0.004130 0.001811
v -0.005884 0.005319 0.006737
v -0.011828 0.003620 0.000453
v -0.010470 0.004469 0.002659
v -0.011828 0.003790 -0.002774
v 0.010083 0.003620 -0.000228
v -0.003504 0.005998 0.007925
v 0.007533 0.005998 0.003508
v 0.003627 0.004978 0.007925
v 0.006346 0.003790 -0.001416
v -0.003504 0.003790 0.008095
v 0.009403 0.003790 0.003678
v -0.005033 0.004130 0.007585
v 0.008045 0.005998 0.001642
v -0.010129 0.003960 -0.003965
v -0.012169 0.003620 -0.001925
v 0.010764 0.003620 0.001132
v -0.008600 0.003790 0.004698
v -0.008432 0.003620 -0.003965
v -0.006903 0.005998 -0.002774
v 0.010083 0.003790 -0.000228
v 0.006685 0.005998 -0.000226
v -0.009960 0.005488 0.002659
v -0.011828 0.003790 0.000453
v -0.010638 0.003790 0.002829
v -0.009110 0.005998 -0.002945
v 0.001250 0.005488 0.008604
f 11 20 52 
f 2 3 4 
f 6 4 7 
f 3 2 8 
f 4 6 9 
f 8 2 10 
f 6 7 11 
f 8 10 12 
f 10 2 13 
f 7 4 14 
f 13 2 15 
f 4 9 16 
f 11 7 20 
f 7 14 21 
f 9 6 22 
f 10 1 23 
f 12 10 23 
f 1 20 23 
f 14 4 25 
f 17 14 25 
f 24 13 26 
f 7 21 27 
f 3 8 28 
f 4 3 30 
f 25 4 30 
f 13 15 31 
f 20 7 32 
f 6 11 33 
f 11 19 33 
f 19 24 33 
f 26 6 33 
f 24 26 33 
f 1 10 34 
f 11 1 34 
f 19 11 34 
f 15 18 35 
f 18 9 35 
f 31 15 35 
f 12 23 36 
f 23 20 36 
f 32 12 36 
f 20 32 36 
f 10 13 37 
f 13 24 37 
f 24 19 37 
f 34 10 37 
f 19 34 37 
f 7 27 38 
f 32 7 38 
f 12 32 38 
f 5 22 39 
f 22 6 39 
f 26 5 39 
f 6 26 39 
f 2 4 40 
f 18 2 40 
f 16 18 40 
f 17 25 41 
f 3 28 41 
f 28 17 41 
f 30 3 41 
f 25 30 41 
f 5 26 42 
f 26 13 42 
f 31 5 42 
f 13 31 42 
f 8 12 43 
f 12 38 43 
f 38 27 43 
f 15 2 44 
f 2 18 44 
f 18 15 44 
f 16 9 45 
f 9 18 45 
f 18 16 45 
f 5 31 46 
f 35 9 46 
f 31 35 46 
f 22 5 47 
f 9 22 47 
f 5 46 47 
f 46 9 47 
f 21 14 48 
f 27 21 48 
f 14 29 48 
f 14 17 49 
f 17 28 49 
f 29 14 49 
f 29 49 50 
f 28 8 50 
f 8 43 50 
f 43 27 50 
f 27 48 50 
f 48 29 50 
f 49 28 50 
f 4 16 51 
f 40 4 51 
f 16 40 51 
f 1 11 52 
f 20 1 52 
o convex_1
v 0.001420 0.005998 0.008435
v -0.005883 0.010414 -0.002945
v -0.005883 0.011264 -0.002945
v 0.007876 0.006169 0.001132
v 0.005326 0.014321 0.000452
v -0.010470 0.005998 -0.001926
v -0.003166 0.012113 0.004867
v -0.005034 0.005998 0.007076
v 0.005837 0.005998 -0.000566
v -0.005034 0.013642 -0.001076
v 0.004648 0.013301 -0.001416
v -0.010300 0.006169 0.001301
v 0.000231 0.013811 0.003678
v 0.004309 0.009567 0.005207
v 0.000231 0.009226 0.007586
v -0.007072 0.005998 -0.002774
v 0.007365 0.005998 0.003679
v -0.001636 0.014662 -0.001246
v -0.007411 0.009396 0.002999
v 0.006346 0.013472 0.000452
v -0.003334 0.008038 0.007586
v -0.002825 0.011604 -0.002775
v 0.002949 0.012283 0.004358
v -0.008601 0.009567 -0.001585
v -0.000788 0.014491 0.001813
v -0.003505 0.013642 -0.002435
v 0.006176 0.012961 -0.000736
v -0.006562 0.011604 0.000963
v -0.004694 0.009396 0.006056
v 0.003968 0.006169 0.007076
v -0.003505 0.012961 0.003339
v 0.004987 0.011604 -0.001416
v 0.001929 0.008546 0.007415
v 0.004477 0.014152 -0.001076
v -0.009450 0.006169 -0.002774
v -0.009281 0.005998 0.002829
v -0.006394 0.011773 -0.002605
v -0.000619 0.006338 0.008435
v -0.001636 0.013981 0.003169
v 0.003118 0.014662 0.000452
v 0.006685 0.005998 -0.000226
v -0.002316 0.012113 0.005207
v -0.003166 0.014491 -0.000736
v 0.000570 0.012283 0.005207
v 0.005157 0.013981 0.001302
v -0.001297 0.013811 -0.002265
v 0.007876 0.006338 0.002322
v 0.004818 0.011604 0.003509
v -0.002655 0.009735 0.006905
v -0.010470 0.006338 0.000623
v -0.004525 0.011433 0.004357
v -0.000619 0.008208 0.008095
v -0.002145 0.010924 -0.002605
v -0.003334 0.005998 0.007925
v 0.006346 0.013472 -0.000397
v -0.005034 0.013472 -0.002096
v 0.007365 0.006169 0.003679
v -0.006733 0.011943 -0.001926
v -0.001975 0.012961 -0.002605
v -0.007581 0.006849 0.004357
v -0.008431 0.009736 -0.000566
v 0.002949 0.014662 -0.000566
v -0.008092 0.009906 -0.002265
v -0.005714 0.012283 0.001301
f 103 83 116 
f 58 53 60 
f 53 58 61 
f 61 58 68 
f 53 61 69 
f 54 55 74 
f 68 54 74 
f 60 73 81 
f 53 69 82 
f 63 79 84 
f 67 53 85 
f 75 67 85 
f 66 75 85 
f 82 66 85 
f 53 82 85 
f 55 54 87 
f 54 68 87 
f 68 58 87 
f 58 60 88 
f 64 58 88 
f 71 64 88 
f 78 55 89 
f 55 87 89 
f 65 77 91 
f 83 59 91 
f 62 83 91 
f 65 57 92 
f 77 65 92 
f 70 77 92 
f 56 69 93 
f 69 61 93 
f 79 56 93 
f 61 84 93 
f 84 79 93 
f 91 59 94 
f 65 91 94 
f 77 70 95 
f 62 91 95 
f 91 77 95 
f 75 65 96 
f 67 75 96 
f 65 94 96 
f 94 67 96 
f 57 65 97 
f 72 57 97 
f 65 75 97 
f 78 70 98 
f 70 86 98 
f 86 63 98 
f 69 56 99 
f 75 66 100 
f 72 97 100 
f 97 75 100 
f 59 81 101 
f 81 73 101 
f 67 94 101 
f 94 59 101 
f 58 64 102 
f 64 71 102 
f 76 58 102 
f 71 80 102 
f 81 59 103 
f 71 81 103 
f 59 83 103 
f 53 67 104 
f 90 53 104 
f 73 90 104 
f 67 101 104 
f 101 73 104 
f 61 68 105 
f 68 74 105 
f 84 61 105 
f 74 84 105 
f 60 53 106 
f 73 60 106 
f 53 90 106 
f 90 73 106 
f 57 72 107 
f 56 79 107 
f 79 63 107 
f 86 57 107 
f 63 86 107 
f 99 56 107 
f 72 99 107 
f 70 78 108 
f 78 89 108 
f 95 70 108 
f 62 95 108 
f 66 82 109 
f 82 69 109 
f 69 99 109 
f 99 72 109 
f 100 66 109 
f 72 100 109 
f 80 62 110 
f 62 108 110 
f 108 89 110 
f 74 55 111 
f 55 78 111 
f 84 74 111 
f 63 84 111 
f 98 63 111 
f 78 98 111 
f 60 81 112 
f 81 71 112 
f 88 60 112 
f 71 88 112 
f 76 102 113 
f 102 80 113 
f 80 110 113 
f 110 76 113 
f 57 86 114 
f 86 70 114 
f 92 57 114 
f 70 92 114 
f 58 76 115 
f 87 58 115 
f 89 87 115 
f 76 110 115 
f 110 89 115 
f 62 80 116 
f 80 71 116 
f 83 62 116 
f 71 103 116 
o convex_2
v -0.013018 0.003279 -0.002266
v -0.006904 -0.009970 0.000620
v -0.008093 -0.009459 -0.001078
v -0.006733 -0.000798 -0.006852
v -0.006733 0.003620 0.006058
v -0.015226 -0.004704 -0.000909
v -0.013018 -0.004024 -0.010419
v -0.006733 -0.007251 0.004697
v -0.006904 0.003620 -0.003793
v -0.006733 -0.005721 -0.007021
v -0.014886 -0.000459 0.000450
v -0.013867 -0.000288 -0.008550
v -0.013358 -0.007081 -0.006342
v -0.010471 -0.003514 0.003848
v -0.010980 -0.002326 -0.010248
v -0.012509 -0.007081 0.000450
v -0.015057 0.001240 -0.001419
v -0.014547 -0.004193 -0.007191
v -0.010811 0.003620 0.002658
v -0.013018 0.001410 -0.007360
v -0.011659 -0.005382 -0.009568
v -0.012339 -0.008271 -0.003115
v -0.007923 -0.000118 0.005715
v -0.011320 0.003620 -0.003793
v -0.015057 0.000901 -0.003625
v -0.006733 -0.008101 -0.003793
v -0.007583 -0.008101 0.004017
v -0.014378 -0.003513 0.000960
v -0.012169 -0.000288 -0.009229
v -0.011999 0.000391 0.002828
v -0.010301 -0.003514 -0.010078
v -0.014378 -0.006062 -0.006342
v -0.008433 -0.009459 0.000960
v -0.008772 -0.006401 0.004187
v -0.014038 -0.006912 -0.002776
v -0.015396 -0.003683 -0.002098
v -0.014378 0.001920 -0.004473
v -0.014038 -0.003175 -0.009570
v -0.006904 -0.001647 0.006056
v -0.006733 -0.002498 -0.007531
v -0.011829 -0.008270 -0.004134
v -0.012679 -0.002666 -0.010590
v -0.014378 0.002260 -0.001248
v -0.013528 -0.005213 -0.009229
v -0.012339 -0.006232 0.001470
v -0.014378 0.000562 0.000791
v -0.006733 -0.009798 0.001809
v -0.006733 0.002431 -0.004642
v -0.015396 -0.000288 -0.001248
v -0.010471 -0.001987 -0.009909
v -0.008943 0.003620 0.004526
v -0.014207 -0.002157 0.001299
v -0.008772 -0.005891 -0.008040
v -0.012339 0.003620 -0.000909
v -0.007583 0.001751 0.005887
v -0.012169 -0.006232 -0.008211
v -0.006904 -0.009459 -0.001248
v -0.008772 0.003620 -0.004134
v -0.010811 -0.004363 -0.010078
v -0.010980 -0.001987 0.003677
v -0.015226 -0.000459 -0.003286
v -0.014378 -0.001307 -0.007870
v -0.013358 0.002260 -0.005493
v -0.015057 -0.005382 -0.002607
f 152 134 180 
f 120 121 124 
f 120 124 126 
f 121 125 135 
f 135 125 140 
f 126 124 142 
f 127 122 144 
f 128 136 145 
f 138 118 149 
f 132 138 149 
f 143 132 149 
f 143 124 150 
f 130 144 150 
f 132 122 151 
f 129 138 151 
f 138 132 151 
f 148 129 151 
f 136 128 153 
f 141 133 153 
f 128 141 153 
f 148 134 154 
f 124 121 155 
f 139 130 155 
f 150 124 155 
f 130 150 155 
f 120 126 156 
f 126 147 156 
f 119 118 157 
f 118 138 157 
f 138 129 157 
f 128 145 158 
f 145 131 158 
f 131 147 158 
f 123 154 158 
f 154 128 158 
f 117 153 159 
f 153 133 159 
f 123 137 160 
f 129 148 160 
f 154 123 160 
f 148 154 160 
f 122 132 161 
f 132 143 161 
f 144 122 161 
f 143 150 161 
f 150 144 161 
f 133 127 162 
f 159 133 162 
f 135 159 162 
f 142 124 163 
f 124 143 163 
f 149 118 163 
f 143 149 163 
f 121 120 164 
f 125 121 164 
f 122 127 165 
f 127 133 165 
f 133 141 165 
f 152 122 165 
f 145 125 166 
f 131 145 166 
f 147 131 166 
f 120 156 166 
f 156 147 166 
f 164 120 166 
f 125 164 166 
f 121 135 167 
f 135 162 167 
f 162 146 167 
f 127 144 168 
f 144 130 168 
f 162 127 168 
f 146 162 168 
f 126 142 169 
f 142 137 169 
f 140 117 170 
f 135 140 170 
f 117 159 170 
f 159 135 170 
f 155 121 171 
f 139 155 171 
f 121 167 171 
f 167 146 171 
f 137 142 172 
f 157 129 172 
f 129 160 172 
f 160 137 172 
f 118 119 173 
f 119 157 173 
f 163 118 173 
f 142 163 173 
f 172 142 173 
f 157 172 173 
f 140 125 174 
f 136 140 174 
f 125 145 174 
f 145 136 174 
f 137 123 175 
f 147 126 175 
f 158 147 175 
f 123 158 175 
f 126 169 175 
f 169 137 175 
f 130 139 176 
f 168 130 176 
f 146 168 176 
f 139 171 176 
f 171 146 176 
f 134 152 177 
f 165 141 177 
f 152 165 177 
f 141 128 178 
f 128 154 178 
f 154 134 178 
f 134 177 178 
f 177 141 178 
f 117 140 179 
f 140 136 179 
f 153 117 179 
f 136 153 179 
f 134 148 180 
f 151 122 180 
f 148 151 180 
f 122 152 180 
o convex_3
v -0.006733 -0.005381 -0.007192
v 0.007706 -0.001818 0.007585
v 0.007196 -0.000459 0.007585
v -0.006733 -0.007761 0.004527
v -0.006733 0.003620 0.006227
v 0.007535 0.003620 -0.001245
v 0.007706 -0.008951 0.000453
v -0.006733 0.003620 -0.003624
v 0.007706 -0.001818 -0.004813
v 0.001929 0.003620 0.008773
v -0.006562 -0.010140 0.000622
v 0.007026 -0.006233 0.006736
v -0.000277 -0.000628 0.008604
v -0.006393 -0.001477 -0.007192
v 0.007706 -0.006572 -0.003115
v 0.007706 0.003620 0.004698
v -0.003336 -0.009969 0.002828
v -0.006393 -0.007081 -0.005493
v -0.004694 0.002261 0.007755
v 0.007706 -0.008099 0.004527
v 0.004478 -0.003853 0.008095
v 0.005327 -0.003683 -0.005322
v -0.004014 -0.004874 0.006567
v -0.003166 -0.010140 0.000622
v 0.007706 0.001581 -0.002775
v 0.007535 -0.007760 -0.001925
v -0.003675 -0.007761 0.005036
v -0.006733 -0.001987 0.006056
v -0.006562 0.002431 -0.004644
v 0.005836 -0.009290 0.001470
v 0.007706 -0.004703 0.007585
v 0.001590 0.001240 0.008946
v 0.007706 0.001920 0.006396
v -0.003505 0.003620 0.008095
v -0.006054 -0.002498 -0.007362
v -0.006733 -0.009969 0.001808
v -0.005204 -0.006402 -0.006171
v 0.003459 0.003620 0.008264
v -0.006733 -0.008270 -0.003453
v 0.004817 -0.000969 -0.004984
v 0.004817 -0.004703 0.007756
v 0.007535 -0.004703 -0.004304
v -0.004184 -0.005721 -0.006512
v -0.003336 0.001072 0.008095
v -0.006733 -0.004874 -0.007362
v -0.002317 -0.010140 0.001978
v -0.003336 -0.006572 0.005887
v 0.007535 -0.008951 0.002148
v -0.000277 0.001919 0.008773
v 0.007196 -0.007421 0.005547
v -0.005884 -0.009969 0.002488
v -0.006733 -0.001477 -0.007192
v 0.007535 -0.003513 0.007756
v 0.004817 -0.003175 -0.005491
v -0.004694 -0.004022 0.006567
v -0.003844 -0.009969 0.000115
v -0.003844 0.003620 -0.003284
v -0.004014 -0.000968 -0.006512
v 0.007706 -0.003513 -0.004813
v 0.004308 -0.004363 -0.005322
v -0.004694 -0.008610 0.004187
v -0.005543 0.003449 0.007245
v -0.000448 -0.008270 -0.002435
v 0.007026 -0.001818 -0.004984
f 239 234 244 
f 181 184 185 
f 181 185 188 
f 185 186 188 
f 182 187 189 
f 182 183 190 
f 186 185 190 
f 189 187 195 
f 182 189 196 
f 186 190 196 
f 187 182 200 
f 201 193 203 
f 186 196 205 
f 196 189 205 
f 195 187 206 
f 185 184 208 
f 204 187 210 
f 200 182 211 
f 193 201 212 
f 183 182 213 
f 182 196 213 
f 190 185 214 
f 184 181 216 
f 198 181 217 
f 195 206 217 
f 206 198 217 
f 190 183 218 
f 196 190 218 
f 183 213 218 
f 213 196 218 
f 181 198 219 
f 216 181 219 
f 191 216 219 
f 201 203 221 
f 207 192 221 
f 192 211 221 
f 211 201 221 
f 217 181 223 
f 195 217 223 
f 214 199 224 
f 181 188 225 
f 191 204 226 
f 204 210 226 
f 203 184 227 
f 184 207 227 
f 221 203 227 
f 207 221 227 
f 187 200 228 
f 200 197 228 
f 210 187 228 
f 197 226 228 
f 226 210 228 
f 212 190 229 
f 193 212 229 
f 190 214 229 
f 224 193 229 
f 214 224 229 
f 197 200 230 
f 200 211 230 
f 211 192 230 
f 184 216 231 
f 216 191 231 
f 226 197 231 
f 191 226 231 
f 188 209 232 
f 209 194 232 
f 194 215 232 
f 225 188 232 
f 215 225 232 
f 182 190 233 
f 211 182 233 
f 201 211 233 
f 212 201 233 
f 190 212 233 
f 202 225 234 
f 225 215 234 
f 184 203 235 
f 203 193 235 
f 208 184 235 
f 199 208 235 
f 193 224 235 
f 224 199 235 
f 204 191 236 
f 187 204 236 
f 206 187 236 
f 191 219 236 
f 188 186 237 
f 186 205 237 
f 209 188 237 
f 205 209 237 
f 194 209 238 
f 209 205 238 
f 220 194 238 
f 205 220 238 
f 189 195 239 
f 195 222 239 
f 202 234 239 
f 222 195 240 
f 223 181 240 
f 195 223 240 
f 181 225 240 
f 225 202 240 
f 239 222 240 
f 202 239 240 
f 207 184 241 
f 192 207 241 
f 230 192 241 
f 197 230 241 
f 184 231 241 
f 231 197 241 
f 185 208 242 
f 208 199 242 
f 214 185 242 
f 199 214 242 
f 198 206 243 
f 219 198 243 
f 206 236 243 
f 236 219 243 
f 205 189 244 
f 215 194 244 
f 194 220 244 
f 220 205 244 
f 234 215 244 
f 189 239 244 
o convex_4
v 0.014670 0.000902 -0.008041
v 0.013651 0.000562 -0.009741
v 0.013481 0.000222 -0.009570
v 0.009915 0.000732 -0.004985
v 0.011104 -0.001646 -0.004985
v 0.013481 0.002091 -0.004985
v 0.014160 -0.000627 -0.004985
v 0.013821 0.001921 -0.009230
v 0.009575 -0.001476 -0.005154
v 0.014330 -0.000117 -0.009230
v 0.011953 0.002091 -0.005834
v 0.010085 0.000392 -0.005834
v 0.014500 0.001071 -0.004985
v 0.014500 0.001751 -0.009230
v 0.013142 0.001581 -0.009060
v 0.013142 0.000732 -0.009400
v 0.010934 0.001411 -0.006004
v 0.013990 -0.000287 -0.009060
v 0.011953 0.002091 -0.004985
v 0.014670 0.000562 -0.009400
v 0.014500 0.000053 -0.004985
v 0.009745 -0.001646 -0.005154
v 0.014160 0.001751 -0.004985
v 0.013821 0.002091 -0.007701
v 0.013821 -0.000797 -0.005154
v 0.013821 0.001411 -0.009741
v 0.013651 -0.000117 -0.009400
v 0.014500 0.000562 -0.009741
v 0.009745 -0.000117 -0.005494
f 260 253 273 
f 248 249 250 
f 250 249 251 
f 249 248 253 
f 250 251 257 
f 257 245 258 
f 255 252 259 
f 256 259 260 
f 246 247 260 
f 247 253 260 
f 248 255 261 
f 256 248 261 
f 255 259 261 
f 259 256 261 
f 248 250 263 
f 255 248 263 
f 250 255 263 
f 251 254 264 
f 258 245 264 
f 257 251 265 
f 245 257 265 
f 264 245 265 
f 251 264 265 
f 253 247 266 
f 249 253 266 
f 262 249 266 
f 250 257 267 
f 257 258 267 
f 267 258 268 
f 255 250 268 
f 252 255 268 
f 258 252 268 
f 250 267 268 
f 251 249 269 
f 254 251 269 
f 249 262 269 
f 262 254 269 
f 252 258 270 
f 259 252 270 
f 260 259 270 
f 246 260 270 
f 247 246 271 
f 254 262 271 
f 266 247 271 
f 262 266 271 
f 264 254 272 
f 258 264 272 
f 270 258 272 
f 246 270 272 
f 271 246 272 
f 254 271 272 
f 253 248 273 
f 248 256 273 
f 256 260 273 
o convex_5
v 0.008216 -0.004194 -0.004472
v 0.007876 -0.002157 0.007587
v 0.007706 -0.002157 0.007587
v 0.007706 0.003620 -0.001075
v 0.017049 -0.001986 -0.000397
v 0.007706 -0.008951 0.001980
v 0.013821 0.001919 -0.004984
v 0.009405 0.003620 0.003848
v 0.012632 -0.004533 0.006056
v 0.016369 -0.004194 -0.001076
v 0.007706 -0.007591 -0.002095
v 0.007706 -0.001816 -0.004812
v 0.013821 -0.000969 -0.004984
v 0.007706 -0.006062 0.006736
v 0.007706 0.002260 0.006057
v 0.013821 -0.005552 0.003679
v 0.013821 -0.002326 0.004358
v 0.010934 -0.006741 -0.002095
v 0.010934 0.003619 0.001131
v 0.010594 0.001410 -0.004984
v 0.009744 -0.008270 -0.000056
v 0.010934 -0.005552 0.006566
v 0.009065 0.001071 0.006227
v 0.015859 -0.003854 0.002149
v 0.016199 -0.001648 0.001131
v 0.016709 -0.002156 -0.001925
v 0.008046 -0.007931 0.004699
v 0.015689 -0.000118 -0.001076
v 0.016029 -0.004703 0.000282
v 0.007706 0.003620 0.004529
v 0.009065 -0.003343 0.007587
v 0.009405 -0.008099 0.003169
v 0.012462 -0.003343 0.006056
v 0.014500 0.001070 -0.004983
v 0.010255 -0.006062 -0.002945
v 0.016199 -0.003515 -0.001925
v 0.012802 -0.005552 0.005207
v 0.012802 0.002260 -0.004643
v 0.007706 -0.003343 -0.004812
v 0.008726 -0.004703 0.007587
v 0.011953 -0.005892 -0.002435
v 0.010425 0.003619 -0.000396
v 0.009744 -0.008270 0.001133
v 0.010255 0.003619 0.002828
v 0.014161 -0.003513 0.004528
v 0.017049 -0.003174 -0.000227
v 0.010594 0.001751 0.004358
v 0.007706 0.002260 -0.002265
v 0.014500 -0.000118 -0.004983
v 0.007876 -0.008951 0.000623
v 0.016539 -0.001137 -0.000397
v 0.011953 0.002089 -0.004984
v 0.014500 0.001240 -0.002774
v 0.016369 -0.000798 -0.001755
v 0.009065 0.001751 0.005887
v 0.011104 -0.003854 0.006906
v 0.007876 -0.000458 0.007246
v 0.009065 -0.001987 -0.004984
v 0.015520 -0.001986 0.002319
v 0.008046 -0.006742 -0.002945
v 0.014161 -0.005042 0.004018
v 0.012122 -0.006401 -0.001755
v 0.016709 -0.002496 0.000792
v 0.007706 -0.004533 0.007587
f 287 313 337 
f 276 277 279 
f 279 277 284 
f 284 277 285 
f 276 279 287 
f 277 276 288 
f 280 286 293 
f 284 291 294 
f 287 279 300 
f 295 287 300 
f 294 283 302 
f 281 277 303 
f 277 288 303 
f 288 281 303 
f 275 276 304 
f 300 279 305 
f 286 280 307 
f 274 286 308 
f 299 283 309 
f 282 295 310 
f 295 300 310 
f 305 289 310 
f 300 305 310 
f 284 285 312 
f 286 274 312 
f 287 295 313 
f 304 276 313 
f 308 286 314 
f 291 308 314 
f 309 283 314 
f 286 309 314 
f 277 281 315 
f 292 280 315 
f 281 292 315 
f 311 277 315 
f 280 311 315 
f 302 289 316 
f 294 302 316 
f 305 279 316 
f 289 305 316 
f 292 281 317 
f 306 282 318 
f 290 306 318 
f 299 278 319 
f 283 299 319 
f 302 283 319 
f 297 302 319 
f 285 277 321 
f 277 293 321 
f 293 285 321 
f 286 307 322 
f 307 299 322 
f 299 309 322 
f 309 286 322 
f 279 284 323 
f 284 294 323 
f 316 279 323 
f 294 316 323 
f 298 278 324 
f 301 292 324 
f 292 317 324 
f 317 298 324 
f 293 277 325 
f 280 293 325 
f 277 311 325 
f 311 280 325 
f 280 292 326 
f 292 301 326 
f 278 299 327 
f 307 280 327 
f 299 307 327 
f 324 278 327 
f 301 324 327 
f 280 326 327 
f 326 301 327 
f 281 288 328 
f 288 296 328 
f 306 290 328 
f 296 306 328 
f 320 281 328 
f 290 320 328 
f 295 282 329 
f 282 306 329 
f 306 296 329 
f 313 295 329 
f 304 313 329 
f 276 275 330 
f 288 276 330 
f 296 288 330 
f 275 304 330 
f 329 296 330 
f 304 329 330 
f 285 293 331 
f 293 286 331 
f 312 285 331 
f 286 312 331 
f 317 281 332 
f 298 317 332 
f 290 318 332 
f 281 320 332 
f 320 290 332 
f 291 284 333 
f 274 308 333 
f 308 291 333 
f 312 274 333 
f 284 312 333 
f 289 302 334 
f 302 297 334 
f 282 310 334 
f 310 289 334 
f 318 282 334 
f 297 318 334 
f 283 294 335 
f 294 291 335 
f 314 283 335 
f 291 314 335 
f 278 298 336 
f 318 297 336 
f 319 278 336 
f 297 319 336 
f 298 332 336 
f 332 318 336 
f 276 287 337 
f 313 276 337 
