o convex_0
v -0.021327 -0.083439 -0.074418
v 0.049776 0.014765 -0.109964
v 0.049776 0.014765 -0.118424
v -0.080604 -0.002183 -0.057471
v 0.107364 -0.003874 -0.057471
v -0.051810 -0.003874 -0.143832
v 0.024380 -0.047883 -0.128589
v 0.032845 -0.083449 -0.057471
v -0.063654 0.011363 -0.057471
v 0.053173 -0.005564 -0.135362
v 0.070104 -0.047883 -0.087957
v -0.053499 -0.063130 -0.057471
v -0.048431 0.013054 -0.133658
v 0.092104 0.011363 -0.057471
v -0.006085 -0.042811 -0.137049
v 0.015914 0.001209 -0.147223
v -0.051810 -0.030976 -0.120111
v 0.026069 -0.074985 -0.094739
v 0.102277 -0.030966 -0.059176
v -0.080604 -0.024193 -0.059167
v -0.063654 0.002899 -0.133658
v 0.085328 0.002899 -0.096434
v -0.016240 -0.058048 -0.118433
v 0.065018 -0.024193 -0.115042
v -0.017948 -0.086841 -0.057471
v 0.044708 0.009672 -0.135362
v 0.007467 -0.025893 -0.143832
v -0.045034 0.014755 -0.108268
v 0.017603 -0.083449 -0.081192
v -0.031482 -0.074985 -0.081192
v 0.085328 -0.008956 -0.098121
v 0.000691 -0.061419 -0.118433
v -0.031482 -0.046193 -0.123502
v -0.045034 0.009672 -0.142127
v 0.083638 -0.049584 -0.057471
v 0.034534 -0.073285 -0.091356
v 0.063328 0.009672 -0.121815
v -0.060275 0.009672 -0.130276
v 0.036224 -0.054656 -0.115033
v -0.051810 -0.047883 -0.094739
v -0.017948 -0.080058 -0.086261
v -0.028103 -0.007255 -0.147223
v 0.024380 0.013064 -0.135362
v 0.036224 -0.005564 -0.143832
v -0.061965 -0.005564 -0.133658
v -0.048431 -0.012337 -0.142127
v -0.048431 0.014755 -0.125207
v 0.100569 0.007982 -0.059176
v 0.017603 -0.059739 -0.120111
v 0.010846 -0.042811 -0.137049
v -0.034879 -0.080058 -0.059167
v 0.056552 -0.030966 -0.118424
v 0.017603 -0.086841 -0.067645
v 0.100569 -0.014038 -0.072723
v -0.082293 -0.005564 -0.059167
v 0.070104 -0.003874 -0.118424
v -0.061965 -0.046193 -0.072723
v -0.014551 -0.085140 -0.076114
v 0.017603 -0.076676 -0.094739
v 0.068415 -0.058038 -0.067636
v -0.028103 0.001209 -0.147223
v 0.026069 0.007982 -0.142127
v -0.016240 -0.047883 -0.130276
v 0.039621 -0.080058 -0.059167
f 36 60 64 
f 5 4 8 
f 4 5 9 
f 8 4 12 
f 3 2 14 
f 9 5 14 
f 12 4 20 
f 19 11 24 
f 8 12 25 
f 14 2 28 
f 9 14 28 
f 19 24 31 
f 30 17 33 
f 6 21 34 
f 5 8 35 
f 19 5 35 
f 11 19 35 
f 29 18 36 
f 3 14 37 
f 26 3 37 
f 10 26 37 
f 4 9 38 
f 34 21 38 
f 13 34 38 
f 11 36 39 
f 36 18 39 
f 30 12 40 
f 17 30 40 
f 1 30 41 
f 23 32 41 
f 33 23 41 
f 30 33 41 
f 27 15 42 
f 16 27 42 
f 3 26 43 
f 34 13 43 
f 10 7 44 
f 26 10 44 
f 27 16 44 
f 20 21 45 
f 21 6 45 
f 33 17 46 
f 6 42 46 
f 42 15 46 
f 45 6 46 
f 17 45 46 
f 2 3 47 
f 28 2 47 
f 9 28 47 
f 38 9 47 
f 13 38 47 
f 3 43 47 
f 43 13 47 
f 14 5 48 
f 5 22 48 
f 37 14 48 
f 22 37 48 
f 7 39 49 
f 39 18 49 
f 15 27 50 
f 32 15 50 
f 44 7 50 
f 27 44 50 
f 7 49 50 
f 49 32 50 
f 1 25 51 
f 25 12 51 
f 30 1 51 
f 12 30 51 
f 7 10 52 
f 10 24 52 
f 24 11 52 
f 39 7 52 
f 11 39 52 
f 8 25 53 
f 29 8 53 
f 5 19 54 
f 22 5 54 
f 19 31 54 
f 31 22 54 
f 20 4 55 
f 21 20 55 
f 4 38 55 
f 38 21 55 
f 24 10 56 
f 22 31 56 
f 31 24 56 
f 37 22 56 
f 10 37 56 
f 12 20 57 
f 40 12 57 
f 17 40 57 
f 45 17 57 
f 20 45 57 
f 25 1 58 
f 1 41 58 
f 41 29 58 
f 53 25 58 
f 29 53 58 
f 18 29 59 
f 29 41 59 
f 41 32 59 
f 32 49 59 
f 49 18 59 
f 11 35 60 
f 36 11 60 
f 6 34 61 
f 34 16 61 
f 42 6 61 
f 16 42 61 
f 16 34 62 
f 43 26 62 
f 34 43 62 
f 26 44 62 
f 44 16 62 
f 15 32 63 
f 32 23 63 
f 23 33 63 
f 46 15 63 
f 33 46 63 
f 8 29 64 
f 35 8 64 
f 29 36 64 
f 60 35 64 
o convex_1
v -0.026404 -0.085145 -0.055776
v 0.112430 0.024925 -0.032070
v 0.115820 0.023219 -0.032070
v -0.034890 -0.085145 -0.032070
v -0.107685 0.023229 -0.033766
v 0.095505 0.011370 -0.057471
v 0.098895 -0.049578 -0.032070
v -0.077202 0.002891 -0.057471
v 0.032856 -0.083449 -0.057471
v -0.102588 -0.020816 -0.032070
v 0.105674 -0.025881 -0.057471
v 0.031149 -0.086841 -0.032070
v -0.080591 -0.025892 -0.057471
v 0.129378 -0.007261 -0.033766
v -0.061960 0.013055 -0.055776
v -0.039963 -0.076677 -0.057471
v -0.100905 0.024914 -0.032070
v 0.093799 -0.046187 -0.052389
v -0.056887 0.024914 -0.035461
v -0.104295 -0.003881 -0.042232
v 0.107357 -0.000489 -0.057471
v -0.048425 -0.076677 -0.040541
v -0.017942 -0.086841 -0.057471
v -0.053521 -0.064818 -0.055776
v 0.048074 -0.078373 -0.047309
v 0.090409 0.013066 -0.055776
v 0.127672 0.007990 -0.032070
v 0.112430 0.024925 -0.033766
v -0.112781 0.009664 -0.032070
v 0.114113 -0.030958 -0.035461
v 0.022687 -0.086841 -0.057471
v -0.065350 0.011359 -0.057471
v -0.100905 -0.020816 -0.037152
v -0.082274 -0.003881 -0.057471
v -0.029794 -0.086841 -0.032070
v 0.087019 -0.047882 -0.057471
v -0.046742 -0.078373 -0.032070
v 0.122599 0.016447 -0.033766
v 0.049757 -0.074981 -0.055776
v 0.049757 -0.078373 -0.032070
v -0.109368 0.018142 -0.035461
v -0.050108 -0.073286 -0.047309
v 0.102261 0.007990 -0.057471
v -0.100905 0.024914 -0.033766
v 0.036222 -0.085145 -0.042232
v 0.125965 -0.014033 -0.032070
v -0.111074 -0.002185 -0.033766
v 0.129378 0.002902 -0.033766
v 0.098895 -0.049578 -0.033766
v 0.103968 -0.032643 -0.054080
v 0.080264 -0.061437 -0.033766
v -0.078885 -0.029284 -0.057471
v -0.100905 -0.014044 -0.042232
f 77 116 117 
f 67 66 68 
f 67 68 71 
f 72 70 73 
f 68 66 74 
f 73 70 75 
f 71 68 76 
f 72 73 77 
f 77 73 80 
f 74 66 81 
f 75 70 85 
f 78 75 85 
f 65 68 86 
f 80 65 86 
f 65 80 87 
f 80 73 87 
f 79 83 90 
f 67 71 91 
f 66 67 92 
f 81 66 92 
f 70 90 92 
f 90 83 92 
f 74 81 93 
f 81 69 93 
f 76 87 95 
f 87 73 95 
f 72 69 96 
f 70 72 96 
f 90 70 96 
f 79 90 96 
f 72 77 98 
f 77 84 98 
f 68 65 99 
f 76 68 99 
f 65 87 99 
f 87 76 99 
f 73 75 100 
f 68 74 101 
f 86 68 101 
f 74 86 101 
f 67 91 102 
f 92 67 102 
f 89 73 103 
f 73 100 103 
f 100 82 103 
f 71 76 104 
f 69 72 105 
f 93 69 105 
f 84 93 105 
f 72 98 105 
f 98 84 105 
f 86 74 106 
f 80 86 106 
f 88 80 106 
f 74 97 106 
f 97 88 106 
f 85 70 107 
f 70 92 107 
f 102 85 107 
f 92 102 107 
f 69 81 108 
f 83 79 108 
f 81 92 108 
f 92 83 108 
f 96 69 108 
f 79 96 108 
f 73 89 109 
f 95 73 109 
f 76 95 109 
f 104 76 109 
f 89 104 109 
f 91 71 110 
f 78 91 110 
f 71 94 110 
f 94 78 110 
f 74 93 111 
f 93 84 111 
f 97 74 111 
f 78 85 112 
f 91 78 112 
f 85 102 112 
f 102 91 112 
f 94 71 113 
f 82 94 113 
f 103 82 113 
f 89 103 113 
f 75 78 114 
f 78 94 114 
f 94 82 114 
f 100 75 114 
f 82 100 114 
f 71 104 115 
f 104 89 115 
f 113 71 115 
f 89 113 115 
f 77 80 116 
f 80 88 116 
f 88 97 116 
f 116 97 117 
f 84 77 117 
f 111 84 117 
f 97 111 117 
o convex_2
v -0.099233 -0.025862 -0.032070
v -0.070455 0.011375 0.089857
v -0.070455 0.018138 0.086455
v -0.166956 0.036770 0.030576
v -0.094160 0.068941 -0.016817
v -0.070455 -0.066520 0.037355
v -0.131403 -0.036033 0.054279
v -0.070455 0.026612 -0.032070
v -0.136486 0.068954 -0.015122
v -0.070455 0.060467 0.037355
v -0.070455 -0.061414 -0.013440
v -0.161882 0.021520 0.013664
v -0.112782 0.046928 0.057668
v -0.078920 -0.034335 0.079688
v -0.133095 -0.034335 0.030576
v -0.095851 0.016454 0.083078
v -0.114482 0.007980 -0.032070
v -0.133095 0.068954 0.006885
v -0.158491 0.035073 0.044122
v -0.122938 0.068954 -0.025291
v -0.099233 -0.058033 0.047500
v -0.070455 -0.042796 -0.032070
v -0.141560 -0.012322 0.055973
v -0.099233 -0.041098 -0.018512
v -0.095851 -0.015704 0.081371
v -0.160191 0.007994 0.035648
v -0.070455 0.062165 0.013653
v -0.080612 -0.063112 0.001801
v -0.070455 0.045230 0.066142
v -0.158491 0.048625 0.030576
v -0.161882 0.040151 0.008580
v -0.070455 -0.051256 0.064435
v -0.155108 0.002915 0.018749
v -0.087386 0.068941 0.011970
v -0.102625 0.038467 0.069520
v -0.116173 -0.049585 0.037355
v -0.099233 -0.052954 0.057668
v -0.070455 -0.007243 0.089857
v -0.134795 0.060480 -0.018512
v -0.148334 -0.015704 0.042427
v -0.102625 -0.022480 -0.032070
v -0.165265 0.043533 0.017054
v -0.099233 0.050309 0.055985
v -0.160191 0.026612 0.044122
v -0.112782 0.026612 -0.032070
v -0.128021 -0.032638 0.059363
v -0.109399 0.068941 -0.025291
v -0.099233 -0.046191 -0.010038
v -0.075529 -0.061427 0.052584
v -0.080612 0.001217 0.089857
v -0.124629 0.011362 -0.023596
v -0.092469 0.024915 0.081371
v -0.146643 -0.015704 0.027199
v -0.166956 0.028296 0.020432
v -0.073837 -0.066520 0.006897
v -0.119546 -0.044493 0.055973
v -0.080612 0.062165 0.033966
v -0.082303 -0.039414 -0.032070
v -0.084003 -0.029256 0.081371
v -0.138178 0.068954 -0.003271
v -0.070455 0.055388 0.001801
v -0.084003 0.036757 0.074604
v -0.160191 0.043533 0.037355
v -0.072146 -0.046177 0.071226
f 154 166 181 
f 120 119 123 
f 120 123 125 
f 120 125 127 
f 125 123 128 
f 125 118 134 
f 126 135 137 
f 118 125 139 
f 125 128 139 
f 133 140 142 
f 127 125 144 
f 120 127 146 
f 130 135 147 
f 123 119 149 
f 122 137 151 
f 137 135 151 
f 144 122 151 
f 127 144 151 
f 124 132 153 
f 145 138 153 
f 149 119 155 
f 137 134 156 
f 126 137 156 
f 148 126 156 
f 132 124 157 
f 124 140 157 
f 140 143 157 
f 134 118 158 
f 118 141 158 
f 150 129 158 
f 141 150 158 
f 121 147 159 
f 126 148 159 
f 135 130 160 
f 130 152 160 
f 136 121 161 
f 133 136 161 
f 140 133 161 
f 121 143 161 
f 143 140 161 
f 125 134 162 
f 137 125 162 
f 134 137 162 
f 140 124 163 
f 142 140 163 
f 122 125 164 
f 137 122 164 
f 125 137 164 
f 141 128 165 
f 132 141 165 
f 128 145 165 
f 153 132 165 
f 145 153 165 
f 138 123 166 
f 123 149 166 
f 154 138 166 
f 119 133 167 
f 133 142 167 
f 155 119 167 
f 129 148 168 
f 156 134 168 
f 148 156 168 
f 134 158 168 
f 158 129 168 
f 119 120 169 
f 133 119 169 
f 136 133 169 
f 152 136 169 
f 141 132 170 
f 150 141 170 
f 143 150 170 
f 132 157 170 
f 157 143 170 
f 143 121 171 
f 148 129 171 
f 129 150 171 
f 150 143 171 
f 121 159 171 
f 159 148 171 
f 128 123 172 
f 123 138 172 
f 145 128 172 
f 138 145 172 
f 124 153 173 
f 153 138 173 
f 154 131 173 
f 138 154 173 
f 163 124 173 
f 146 127 174 
f 127 151 174 
f 151 135 174 
f 135 160 174 
f 160 146 174 
f 118 139 175 
f 139 128 175 
f 141 118 175 
f 128 141 175 
f 131 155 176 
f 142 163 176 
f 167 142 176 
f 155 167 176 
f 173 131 176 
f 163 173 176 
f 135 126 177 
f 147 135 177 
f 159 147 177 
f 126 159 177 
f 125 122 178 
f 122 144 178 
f 144 125 178 
f 120 146 179 
f 146 160 179 
f 160 152 179 
f 169 120 179 
f 152 169 179 
f 121 136 180 
f 147 121 180 
f 130 147 180 
f 152 130 180 
f 136 152 180 
f 131 154 181 
f 155 131 181 
f 149 155 181 
f 166 149 181 
o convex_3
v 0.017599 -0.063118 0.062743
v 0.080269 0.063874 0.045813
v 0.080269 0.063874 0.022139
v -0.070446 0.062177 0.032287
v 0.031157 -0.086841 -0.032044
v -0.070446 -0.007249 0.089834
v -0.070446 0.026608 -0.032070
v 0.080269 -0.025867 0.093239
v -0.070446 -0.068193 0.010276
v 0.080269 0.026608 -0.032057
v 0.080269 -0.061422 -0.032057
v -0.070446 0.029987 0.079687
v -0.034877 -0.085144 -0.032057
v 0.053168 -0.005567 0.101697
v -0.061963 -0.068193 0.045813
v 0.080269 -0.052954 0.064445
v 0.031157 -0.032639 0.098306
v -0.070446 0.057088 0.005208
v -0.006094 -0.085144 0.008587
v 0.080269 0.052013 0.064445
v -0.070446 -0.046182 -0.032070
v -0.070446 -0.039410 0.076295
v -0.070446 0.048620 0.061054
v 0.065015 -0.051272 0.079673
v 0.080269 0.058769 0.008587
v -0.028105 0.001189 0.096617
v 0.066711 -0.069890 0.008587
v 0.036232 -0.069890 0.044124
v 0.026067 -0.047879 0.084754
v 0.080269 0.002901 0.094928
v -0.028105 -0.086841 -0.006655
v 0.029460 -0.027564 0.101697
v 0.080269 0.033380 -0.025287
v -0.070446 0.062177 0.015356
v 0.059940 -0.025853 0.101697
v 0.032839 -0.085144 -0.015113
v 0.049790 0.060466 0.052582
v -0.055206 -0.069890 -0.032070
v 0.080269 0.029987 0.079673
v -0.068749 -0.059725 0.055973
v 0.078573 -0.064815 -0.001574
v -0.070446 0.035076 -0.023585
v -0.036573 0.063874 0.030598
v -0.070446 0.011369 0.089834
v 0.031157 -0.068208 0.052582
v -0.070446 0.045226 0.066134
v -0.070446 -0.027549 0.083065
v -0.067052 -0.069890 0.028895
v -0.038255 0.062177 0.039043
v 0.065015 -0.046182 0.086456
v -0.070446 -0.064815 -0.008357
v -0.017940 -0.083448 0.013667
v 0.014221 -0.015703 0.101697
v 0.078573 0.058769 0.057676
v 0.027764 -0.002189 0.099995
v 0.017599 -0.058043 0.071215
v -0.070446 0.035076 0.076295
v 0.020992 -0.086841 -0.013424
v -0.070446 -0.064815 0.047502
v -0.029787 -0.086841 -0.032057
v 0.054850 -0.069890 0.025517
v 0.080269 -0.047879 0.074606
v 0.065015 -0.012324 0.101697
v 0.036232 -0.085144 -0.032044
f 222 208 245 
f 187 185 188 
f 184 183 189 
f 187 188 190 
f 184 189 191 
f 191 189 192 
f 185 187 193 
f 192 189 197 
f 188 185 199 
f 189 183 201 
f 190 188 202 
f 187 190 203 
f 185 193 204 
f 184 191 206 
f 198 203 210 
f 189 201 211 
f 203 198 213 
f 191 188 214 
f 206 191 214 
f 199 206 214 
f 199 185 215 
f 184 206 215 
f 206 199 215 
f 195 213 216 
f 213 198 216 
f 188 191 219 
f 191 192 219 
f 202 188 219 
f 195 211 220 
f 211 201 220 
f 210 203 221 
f 192 197 222 
f 197 208 222 
f 188 199 223 
f 214 188 223 
f 199 214 223 
f 183 184 224 
f 184 215 224 
f 215 185 224 
f 193 187 225 
f 187 207 225 
f 207 193 225 
f 182 196 226 
f 197 205 226 
f 205 182 226 
f 200 209 226 
f 209 197 226 
f 204 193 227 
f 187 203 228 
f 213 187 228 
f 203 213 228 
f 190 194 229 
f 194 212 229 
f 212 196 229 
f 185 204 230 
f 218 183 230 
f 204 218 230 
f 183 224 230 
f 224 185 230 
f 198 210 231 
f 210 205 231 
f 189 216 231 
f 216 198 231 
f 194 190 232 
f 190 202 232 
f 219 194 232 
f 202 219 232 
f 196 212 233 
f 212 200 233 
f 226 196 233 
f 200 226 233 
f 207 187 234 
f 213 195 234 
f 187 213 234 
f 201 183 235 
f 183 218 235 
f 218 204 235 
f 204 227 235 
f 193 207 236 
f 220 193 236 
f 195 220 236 
f 207 234 236 
f 234 195 236 
f 196 182 237 
f 182 205 237 
f 205 210 237 
f 221 196 237 
f 210 221 237 
f 193 220 238 
f 220 201 238 
f 227 193 238 
f 201 235 238 
f 235 227 238 
f 209 200 239 
f 212 186 239 
f 200 212 239 
f 186 217 239 
f 217 209 239 
f 203 190 240 
f 196 221 240 
f 221 203 240 
f 190 229 240 
f 229 196 240 
f 192 186 241 
f 186 212 241 
f 212 194 241 
f 219 192 241 
f 194 219 241 
f 208 197 242 
f 197 209 242 
f 217 208 242 
f 209 217 242 
f 197 189 243 
f 205 197 243 
f 189 231 243 
f 231 205 243 
f 189 211 244 
f 211 195 244 
f 216 189 244 
f 195 216 244 
f 186 192 245 
f 217 186 245 
f 208 217 245 
f 192 222 245 
o convex_4
v 0.144620 0.002925 -0.025282
v 0.081968 0.001233 0.094937
v 0.080269 0.001233 0.094937
v 0.139536 0.085874 0.032266
v 0.080269 0.026597 -0.032070
v 0.080269 -0.061428 -0.028676
v 0.151388 -0.014009 0.049211
v 0.080269 0.063864 0.047521
v 0.081968 -0.047878 0.072920
v 0.151388 0.048622 0.057665
v 0.151388 0.058774 -0.001574
v 0.142920 -0.032650 0.005189
v 0.120909 0.080798 0.015359
v 0.127677 0.013062 0.081386
v 0.137837 0.077414 0.049211
v 0.154780 -0.007227 -0.001574
v 0.100596 -0.052968 0.032279
v 0.139536 0.053698 -0.015125
v 0.117524 -0.029252 -0.032070
v 0.080269 0.062172 0.015346
v 0.154780 0.070632 0.030588
v 0.080269 -0.032635 0.088161
v 0.127677 0.014768 -0.032070
v 0.080269 0.052006 0.064441
v 0.142920 -0.029252 0.039042
v 0.119216 -0.025868 0.071216
v 0.124293 0.028304 0.079683
v 0.081968 -0.063105 -0.001574
v 0.142920 -0.027560 -0.008349
v 0.154780 -0.010626 0.035660
v 0.083661 -0.059736 -0.032070
v 0.139536 0.074016 0.003498
v 0.144620 0.009692 0.067835
v 0.119216 0.082490 0.037351
v 0.083661 -0.017393 0.094937
v 0.153080 0.021536 -0.013422
v 0.080269 0.029996 0.079683
v 0.141228 0.041839 0.069526
v 0.080269 -0.054660 0.054284
v 0.148004 -0.010626 -0.018519
v 0.139536 0.035072 -0.023591
v 0.144620 0.082490 0.018740
v 0.146312 0.077414 0.045817
v 0.153080 0.033380 0.055974
v 0.112448 0.026597 -0.032070
v 0.103980 0.068940 0.054284
v 0.124293 -0.014009 0.074610
v 0.117524 0.082490 0.023825
v 0.131068 0.070632 0.000117
v 0.080269 0.033380 -0.025294
v 0.142920 -0.032650 0.022122
v 0.100596 -0.054660 -0.003265
v 0.131068 -0.010626 -0.032070
v 0.122593 -0.034327 0.055987
v 0.137837 0.057096 0.062750
v 0.154780 0.057082 0.010286
v 0.098897 -0.049570 -0.032070
v 0.153080 -0.017393 0.015359
v 0.097205 -0.051261 0.045817
v 0.124293 0.019830 0.083077
v 0.154780 0.045238 0.047508
v 0.153080 0.001233 0.052593
v 0.148004 -0.014009 0.054284
v 0.100596 -0.054660 0.020431
f 297 296 309 
f 248 250 251 
f 250 248 253 
f 250 253 265 
f 248 251 267 
f 264 250 268 
f 253 248 269 
f 267 254 271 
f 261 266 275 
f 251 250 276 
f 250 264 276 
f 273 251 276 
f 256 263 277 
f 260 249 279 
f 247 248 280 
f 248 267 280 
f 267 271 280 
f 248 247 282 
f 269 248 282 
f 247 272 282 
f 278 255 283 
f 259 278 283 
f 267 251 284 
f 254 267 284 
f 251 273 284 
f 273 262 284 
f 261 274 285 
f 274 264 285 
f 246 281 285 
f 281 261 285 
f 263 256 286 
f 246 268 286 
f 281 246 286 
f 256 281 286 
f 258 249 287 
f 266 256 287 
f 277 258 287 
f 256 277 287 
f 249 260 288 
f 255 266 288 
f 283 255 288 
f 287 249 288 
f 266 287 288 
f 255 278 289 
f 250 263 290 
f 268 250 290 
f 263 286 290 
f 286 268 290 
f 253 269 291 
f 260 279 291 
f 279 253 291 
f 269 282 291 
f 278 259 292 
f 259 280 292 
f 280 271 292 
f 249 258 293 
f 265 253 293 
f 258 265 293 
f 279 249 293 
f 253 279 293 
f 263 250 294 
f 258 277 294 
f 277 263 294 
f 250 265 295 
f 265 258 295 
f 294 250 295 
f 258 294 295 
f 252 270 296 
f 270 262 296 
f 273 276 297 
f 276 257 297 
f 257 296 297 
f 268 246 298 
f 264 268 298 
f 246 285 298 
f 285 264 298 
f 271 254 299 
f 282 272 300 
f 272 283 300 
f 288 260 300 
f 283 288 300 
f 260 291 300 
f 291 282 300 
f 256 266 301 
f 266 261 301 
f 261 281 301 
f 281 256 301 
f 274 257 302 
f 264 274 302 
f 276 264 302 
f 257 276 302 
f 257 274 303 
f 274 261 303 
f 275 252 303 
f 261 275 303 
f 252 296 303 
f 296 257 303 
f 262 270 304 
f 254 284 304 
f 284 262 304 
f 299 254 304 
f 270 299 304 
f 272 247 305 
f 247 280 305 
f 280 259 305 
f 259 283 305 
f 283 272 305 
f 266 255 306 
f 275 266 306 
f 255 289 306 
f 306 289 307 
f 252 275 307 
f 289 278 307 
f 275 306 307 
f 307 278 308 
f 270 252 308 
f 292 271 308 
f 278 292 308 
f 299 270 308 
f 271 299 308 
f 252 307 308 
f 262 273 309 
f 296 262 309 
f 273 297 309 
o convex_5
v -0.089077 0.068954 0.010263
v -0.126322 0.075731 -0.025296
v -0.128019 0.070651 -0.023600
v -0.129706 0.070651 0.006875
v -0.107704 0.089275 -0.003284
v -0.094163 0.068954 -0.016825
v -0.126322 0.089275 -0.025296
v -0.104315 0.089275 -0.018521
v -0.129706 0.089275 -0.006669
v -0.136489 0.068954 -0.013437
v -0.109401 0.068954 -0.025296
v -0.089077 0.075731 -0.004976
v -0.102623 0.070651 0.011959
v -0.111093 0.089275 -0.025296
v -0.136489 0.068954 -0.001589
v -0.124630 0.089275 -0.003284
v -0.099239 0.085886 -0.004976
v -0.131403 0.087579 -0.016825
v -0.092466 0.074035 0.008568
v -0.094163 0.077424 -0.015129
v -0.087380 0.068954 -0.004976
v -0.129706 0.068954 0.006875
f 313 324 331 
f 311 312 316 
f 316 314 317 
f 314 316 318 
f 315 310 319 
f 316 312 319 
f 315 319 320 
f 312 311 320 
f 311 316 320 
f 319 312 320 
f 316 317 323 
f 315 320 323 
f 320 316 323 
f 313 318 324 
f 319 310 324 
f 318 313 325 
f 314 318 325 
f 313 322 325 
f 322 314 325 
f 317 314 326 
f 321 317 326 
f 318 316 327 
f 316 319 327 
f 324 318 327 
f 319 324 327 
f 310 321 328 
f 322 310 328 
f 314 322 328 
f 326 314 328 
f 321 326 328 
f 317 321 329 
f 315 323 329 
f 323 317 329 
f 310 315 330 
f 321 310 330 
f 315 329 330 
f 329 321 330 
f 310 322 331 
f 322 313 331 
f 324 310 331 
o convex_6
v -0.109396 0.104516 -0.006669
v -0.129715 0.089275 -0.020215
v -0.128017 0.089275 -0.023602
v -0.126326 0.119757 -0.020215
v -0.111090 0.089275 -0.025296
v -0.122940 0.089275 -0.003282
v -0.126326 0.112978 -0.004975
v -0.117860 0.112978 -0.025296
v -0.104314 0.089275 -0.008363
v -0.116169 0.118059 -0.013444
v -0.106012 0.090973 -0.020215
v -0.129715 0.107903 -0.008363
v -0.117860 0.111286 -0.003282
v -0.128017 0.114676 -0.023602
v -0.129715 0.089275 -0.008363
v -0.111090 0.089275 -0.003282
v -0.111090 0.109594 -0.016827
v -0.126326 0.119757 -0.011751
v -0.126326 0.089275 -0.025296
v -0.129715 0.114676 -0.016827
f 343 349 351 
f 333 334 336 
f 333 336 337 
f 337 336 340 
f 339 335 341 
f 336 339 342 
f 340 336 342 
f 338 337 344 
f 332 341 344 
f 334 333 345 
f 335 339 345 
f 333 337 346 
f 337 338 346 
f 343 333 346 
f 338 343 346 
f 340 332 347 
f 337 340 347 
f 344 337 347 
f 332 344 347 
f 332 340 348 
f 341 332 348 
f 339 341 348 
f 342 339 348 
f 340 342 348 
f 341 335 349 
f 343 338 349 
f 338 344 349 
f 344 341 349 
f 336 334 350 
f 339 336 350 
f 334 345 350 
f 345 339 350 
f 333 343 351 
f 345 333 351 
f 335 345 351 
f 349 335 351 
