o convex_0
v -0.292775 -0.051007 -0.259956
v -0.296735 -0.110289 -0.346888
v -0.292775 -0.110289 -0.346888
v -0.312534 -0.043103 -0.184827
v -0.328350 -0.039148 -0.188809
v -0.292775 -0.043103 -0.200643
v -0.296735 -0.078660 -0.311291
v -0.296735 -0.039148 -0.232291
v -0.292775 -0.110289 -0.338972
v -0.328350 -0.043103 -0.184827
f 9 4 10 
f 3 1 6 
f 5 4 6 
f 1 3 7 
f 3 2 7 
f 2 5 7 
f 7 5 8 
f 6 1 8 
f 5 6 8 
f 1 7 8 
f 2 3 9 
f 3 6 9 
f 6 4 9 
f 4 5 10 
f 5 2 10 
f 2 9 10 
o convex_1
v -0.138615 0.047803 0.131373
v -0.118862 -0.118179 0.079990
v -0.114907 -0.118179 0.079990
v -0.118862 -0.011483 -0.066245
v -0.150474 -0.090510 0.060223
v -0.114907 -0.035188 0.178823
v -0.146519 -0.082597 0.155098
v -0.114907 0.043839 0.048396
v -0.150474 0.047803 0.127415
v -0.150474 -0.031240 0.032588
v -0.114907 -0.050980 -0.046479
v -0.114907 -0.110266 0.147182
v -0.122814 0.047803 0.147182
v -0.150474 0.039891 0.147182
v -0.150474 -0.102370 0.119523
v -0.130718 -0.062841 0.174865
v -0.118862 -0.090510 0.012821
v -0.114907 0.004325 -0.046479
v -0.118862 -0.035188 -0.062287
v -0.114907 0.024082 0.127415
v -0.138615 -0.114214 0.103714
v -0.150474 -0.054944 0.032588
v -0.118862 0.000377 -0.054371
v -0.114907 -0.090510 0.166949
v -0.134663 -0.110266 0.139290
v -0.138615 -0.047032 0.170907
v -0.150474 -0.015431 0.044438
v -0.138615 -0.106318 0.068139
v -0.118862 -0.118179 0.131373
f 35 31 39 
f 16 13 18 
f 11 18 19 
f 15 19 20 
f 18 13 21 
f 13 16 22 
f 18 11 23 
f 11 19 23 
f 23 19 24 
f 19 15 24 
f 16 23 24 
f 24 15 25 
f 17 24 25 
f 13 12 27 
f 21 13 27 
f 21 14 28 
f 18 21 28 
f 14 21 29 
f 27 15 29 
f 21 27 29 
f 16 18 30 
f 18 23 30 
f 23 16 30 
f 25 15 31 
f 20 14 32 
f 15 20 32 
f 14 29 32 
f 29 15 32 
f 19 18 33 
f 28 14 33 
f 18 28 33 
f 22 16 34 
f 16 26 34 
f 26 17 34 
f 17 25 35 
f 25 31 35 
f 22 34 35 
f 34 17 35 
f 16 24 36 
f 24 17 36 
f 26 16 36 
f 17 26 36 
f 14 20 37 
f 20 19 37 
f 19 33 37 
f 33 14 37 
f 27 12 38 
f 15 27 38 
f 12 31 38 
f 31 15 38 
f 12 13 39 
f 13 22 39 
f 31 12 39 
f 22 35 39 
o convex_2
v 0.051111 -0.118184 -0.493166
v 0.161787 -0.102376 -0.576134
v 0.161787 -0.110280 -0.576134
v 0.078780 -0.102376 -0.635406
v 0.066928 -0.062864 -0.473402
v 0.106449 -0.130043 -0.485250
v 0.090653 -0.126088 -0.623558
v 0.106449 -0.062864 -0.556370
v 0.106449 -0.062864 -0.485250
v 0.055065 -0.062864 -0.516878
v 0.138050 -0.090531 -0.623558
v 0.153878 -0.118184 -0.611694
v 0.066928 -0.134006 -0.485250
v 0.102516 -0.114236 -0.469453
v 0.086699 -0.090531 -0.631457
v 0.134107 -0.098435 -0.508979
v 0.074847 -0.118184 -0.627508
v 0.153878 -0.090531 -0.607744
v 0.106449 -0.114236 -0.639372
v 0.094597 -0.134006 -0.508979
v 0.066928 -0.118184 -0.469453
v 0.134107 -0.126088 -0.580083
v 0.122244 -0.066819 -0.532692
v 0.062984 -0.134006 -0.501064
v 0.051111 -0.118184 -0.508979
v 0.070893 -0.106332 -0.619609
v 0.082734 -0.062864 -0.556370
v 0.122244 -0.114236 -0.489216
v 0.055065 -0.066819 -0.485250
v 0.118301 -0.086582 -0.627508
v 0.153878 -0.090531 -0.564269
v 0.145970 -0.122140 -0.560320
v 0.090653 -0.082627 -0.469453
f 60 53 72 
f 47 44 48 
f 44 47 49 
f 41 42 51 
f 43 49 54 
f 42 41 55 
f 50 47 57 
f 41 51 57 
f 51 50 57 
f 51 46 58 
f 50 51 58 
f 43 54 58 
f 56 43 58 
f 46 56 58 
f 45 52 59 
f 40 52 60 
f 52 45 60 
f 45 53 60 
f 46 51 61 
f 45 59 61 
f 59 46 61 
f 47 48 62 
f 57 47 62 
f 52 40 63 
f 56 46 63 
f 46 59 63 
f 59 52 63 
f 40 49 64 
f 63 40 64 
f 56 63 64 
f 49 43 65 
f 43 56 65 
f 64 49 65 
f 56 64 65 
f 49 47 66 
f 54 49 66 
f 53 45 67 
f 48 53 67 
f 42 55 67 
f 55 48 67 
f 49 40 68 
f 44 49 68 
f 40 60 68 
f 60 44 68 
f 47 50 69 
f 50 58 69 
f 58 54 69 
f 66 47 69 
f 54 66 69 
f 55 41 70 
f 48 55 70 
f 41 57 70 
f 62 48 70 
f 57 62 70 
f 51 42 71 
f 45 61 71 
f 61 51 71 
f 42 67 71 
f 67 45 71 
f 48 44 72 
f 53 48 72 
f 44 60 72 
o convex_3
v 0.062978 -0.058883 -0.473393
v 0.074821 0.126874 -0.445711
v 0.062971 0.126874 -0.445711
v 0.098536 -0.058883 -0.552430
v 0.102484 0.004355 -0.445721
v 0.035300 0.039901 -0.445711
v 0.062978 -0.054945 -0.532655
v 0.110402 -0.062857 -0.540552
v 0.102492 0.075485 -0.449670
v 0.110402 -0.062857 -0.497106
v 0.047165 0.115006 -0.449670
v 0.082731 -0.027273 -0.445721
v 0.055075 -0.062857 -0.516839
v 0.035300 0.083378 -0.449670
v 0.090626 0.111032 -0.449670
v 0.047165 -0.003557 -0.445721
v 0.070881 -0.058883 -0.544511
v 0.098536 -0.062857 -0.477342
v 0.106447 0.043857 -0.445711
v 0.062971 0.126874 -0.449670
v 0.055075 -0.062857 -0.489209
v 0.082724 0.122918 -0.449670
v 0.106439 -0.058883 -0.548460
f 76 94 95 
f 74 75 78 
f 80 82 85 
f 78 75 86 
f 75 83 86 
f 85 78 86 
f 79 85 86 
f 84 78 88 
f 73 84 88 
f 76 80 89 
f 85 79 89 
f 80 85 89 
f 86 83 89 
f 79 86 89 
f 82 77 90 
f 77 84 90 
f 84 73 90 
f 85 82 90 
f 74 78 91 
f 80 81 91 
f 77 82 91 
f 82 80 91 
f 84 77 91 
f 78 84 91 
f 87 74 91 
f 81 87 91 
f 75 74 92 
f 83 75 92 
f 76 89 92 
f 89 83 92 
f 78 85 93 
f 88 78 93 
f 73 88 93 
f 90 73 93 
f 85 90 93 
f 74 87 94 
f 92 74 94 
f 76 92 94 
f 80 76 95 
f 81 80 95 
f 87 81 95 
f 94 87 95 
o convex_4
v -0.031886 0.166389 -0.623616
v 0.066922 0.138717 -0.631512
v 0.066922 0.134784 -0.631512
v -0.004216 0.107122 -0.876520
v -0.035847 0.083404 -0.544557
v 0.035291 0.182201 -0.619651
v 0.035291 0.083404 -0.651268
v 0.027381 0.134784 -0.864659
v 0.035291 0.138717 -0.544557
v 0.015521 0.087357 -0.856731
v -0.020037 0.130841 -0.860695
v -0.047707 0.126888 -0.544557
v -0.023987 0.099216 -0.856731
v -0.000267 0.186164 -0.643372
v -0.016076 0.162436 -0.544557
v 0.019470 0.091310 -0.544557
v 0.031330 0.103169 -0.860695
v 0.059011 0.103169 -0.635476
v 0.062961 0.158482 -0.659165
v 0.035291 0.178248 -0.678954
v -0.000267 0.142670 -0.860695
v -0.012127 0.087357 -0.860695
v -0.047707 0.095263 -0.548521
v -0.020037 0.178248 -0.647337
v -0.023987 0.122935 -0.860695
v 0.059011 0.158482 -0.611755
v 0.015521 0.162436 -0.544557
v 0.062961 0.130841 -0.682885
v 0.051090 0.111075 -0.588034
v 0.031330 0.118982 -0.868591
v -0.000267 0.182201 -0.603859
v 0.047151 0.091310 -0.667093
v 0.031330 0.083404 -0.607791
v -0.035847 0.154529 -0.643372
v 0.055050 0.170342 -0.655233
v 0.062961 0.115029 -0.663129
v 0.019470 0.138717 -0.868591
v 0.019470 0.186164 -0.651268
v -0.000267 0.083404 -0.667093
v 0.019470 0.103169 -0.876520
v -0.000267 0.130841 -0.876520
v 0.031330 0.103169 -0.544557
v 0.047151 0.091310 -0.619651
v -0.000267 0.083404 -0.544557
v -0.039797 0.142670 -0.544557
v -0.016076 0.178248 -0.607791
v -0.031886 0.166389 -0.639408
v 0.059011 0.130841 -0.599895
v -0.012127 0.138717 -0.860695
f 116 136 144 
f 100 104 107 
f 107 104 110 
f 104 100 111 
f 108 99 117 
f 108 117 118 
f 100 107 118 
f 117 100 118 
f 99 108 120 
f 108 118 120 
f 118 107 120 
f 97 114 121 
f 110 104 122 
f 104 121 122 
f 121 101 122 
f 97 98 123 
f 114 97 123 
f 113 98 124 
f 103 114 125 
f 123 112 125 
f 114 123 125 
f 122 101 126 
f 110 122 126 
f 102 105 127 
f 105 112 127 
f 112 113 127 
f 100 102 128 
f 120 107 129 
f 114 103 130 
f 115 101 130 
f 103 115 130 
f 101 121 130 
f 121 114 130 
f 113 112 131 
f 98 113 131 
f 123 98 131 
f 112 123 131 
f 115 103 132 
f 103 125 132 
f 101 115 133 
f 116 109 133 
f 126 101 133 
f 109 126 133 
f 115 132 133 
f 132 116 133 
f 102 100 134 
f 105 102 134 
f 100 117 134 
f 117 105 134 
f 112 105 135 
f 117 99 135 
f 105 117 135 
f 125 112 135 
f 132 125 135 
f 132 135 136 
f 120 106 136 
f 99 120 136 
f 116 132 136 
f 135 99 136 
f 104 111 137 
f 113 124 138 
f 102 127 138 
f 127 113 138 
f 128 102 138 
f 111 128 138 
f 137 111 138 
f 124 137 138 
f 111 100 139 
f 100 128 139 
f 128 111 139 
f 96 107 140 
f 107 110 140 
f 140 110 141 
f 119 96 141 
f 109 119 141 
f 126 109 141 
f 110 126 141 
f 96 140 141 
f 107 96 142 
f 96 119 142 
f 119 106 142 
f 106 120 142 
f 129 107 142 
f 120 129 142 
f 98 97 143 
f 97 121 143 
f 121 104 143 
f 124 98 143 
f 104 137 143 
f 137 124 143 
f 109 116 144 
f 106 119 144 
f 119 109 144 
f 136 106 144 
o convex_5
v -0.012119 0.024098 0.431757
v -0.016078 -0.153769 0.332947
v 0.003671 -0.153769 0.332947
v 0.011565 0.043846 0.210472
v -0.114903 -0.054939 0.309282
v 0.102496 -0.078637 0.329007
v 0.011565 -0.106329 0.186780
v -0.020014 -0.114228 0.435723
v 0.062957 0.012227 0.408065
v -0.063511 -0.066788 0.186780
v -0.004224 0.075488 0.297436
v -0.067469 -0.003594 0.419911
v 0.062957 0.020126 0.257907
v -0.063511 0.031975 0.273718
v 0.051104 -0.102357 0.423877
v 0.047146 -0.043090 0.186728
v -0.079301 -0.118178 0.364570
v 0.019482 -0.035213 0.451534
v -0.059553 0.035947 0.376416
v -0.043763 -0.098407 0.186780
v -0.071406 -0.078659 0.423851
v -0.059553 -0.031241 0.186780
v 0.035293 -0.145848 0.360630
v 0.098538 -0.086558 0.305342
v 0.015524 0.075488 0.301376
v -0.020014 -0.145848 0.400134
v 0.070852 0.020126 0.368510
v -0.039805 -0.027314 0.447569
v 0.066916 -0.054917 0.423877
v -0.023973 0.047818 0.226283
v -0.114903 -0.050989 0.332947
v 0.011565 0.043846 0.404100
v -0.067469 -0.130027 0.336913
v 0.039251 -0.086558 0.186728
v 0.035293 -0.141898 0.325041
v -0.114903 -0.066788 0.317187
v 0.043188 0.008277 0.431783
v 0.055062 -0.126077 0.388288
v 0.070852 0.020126 0.289530
v -0.075364 -0.110256 0.396194
v 0.094580 -0.062838 0.289530
v -0.039805 0.035947 0.408039
v 0.015524 -0.133999 0.415945
v 0.015524 -0.082609 0.447569
v 0.007607 -0.007521 0.186780
v 0.035293 0.035947 0.222343
v 0.043188 0.035947 0.396194
v 0.078769 -0.023342 0.396194
v -0.035847 -0.070738 0.447569
v -0.043763 -0.145848 0.376416
v -0.035847 -0.145848 0.317187
v -0.067469 0.031975 0.297436
v -0.027931 -0.106307 0.186780
v -0.079301 -0.043090 0.415945
v -0.043763 -0.118178 0.423851
v 0.070852 -0.090508 0.404100
v 0.003671 -0.153769 0.376416
v 0.051104 -0.039141 0.439663
v -0.114903 -0.062838 0.336913
v -0.067469 0.020126 0.261873
v 0.027377 -0.098430 0.186780
v -0.008161 0.051768 0.218378
v 0.047146 -0.070760 0.186728
v -0.035847 0.004328 0.439663
f 186 156 208 
f 147 146 151 
f 154 149 166 
f 158 155 174 
f 156 163 175 
f 169 155 176 
f 164 154 178 
f 154 166 178 
f 166 160 178 
f 147 151 179 
f 167 147 179 
f 168 167 179 
f 149 154 180 
f 154 164 180 
f 175 149 180 
f 177 161 180 
f 164 177 180 
f 145 162 181 
f 176 145 181 
f 168 150 182 
f 167 168 182 
f 157 169 183 
f 171 150 183 
f 169 171 183 
f 160 157 185 
f 150 168 185 
f 183 150 185 
f 157 183 185 
f 155 163 186 
f 163 156 186 
f 145 176 186 
f 176 155 186 
f 152 170 187 
f 182 159 187 
f 167 182 187 
f 152 187 188 
f 187 159 188 
f 148 160 189 
f 166 148 189 
f 160 166 189 
f 160 148 190 
f 157 160 190 
f 148 169 190 
f 169 157 190 
f 153 171 191 
f 171 169 191 
f 169 176 191 
f 181 153 191 
f 176 181 191 
f 150 171 192 
f 171 153 192 
f 173 150 192 
f 153 173 192 
f 162 172 193 
f 172 165 193 
f 188 162 193 
f 152 188 193 
f 161 177 194 
f 184 161 194 
f 177 164 195 
f 146 194 195 
f 194 177 195 
f 158 149 196 
f 155 158 196 
f 163 155 196 
f 149 175 196 
f 175 163 196 
f 151 146 197 
f 178 151 197 
f 164 178 197 
f 146 195 197 
f 195 164 197 
f 172 156 198 
f 165 172 198 
f 156 175 198 
f 170 152 199 
f 165 184 199 
f 152 193 199 
f 193 165 199 
f 194 170 199 
f 184 194 199 
f 150 173 200 
f 173 159 200 
f 182 150 200 
f 159 182 200 
f 146 147 201 
f 147 167 201 
f 187 170 201 
f 167 187 201 
f 194 146 201 
f 170 194 201 
f 173 153 202 
f 159 173 202 
f 181 162 202 
f 153 181 202 
f 162 188 202 
f 188 159 202 
f 175 180 203 
f 180 161 203 
f 184 165 203 
f 161 184 203 
f 165 198 203 
f 198 175 203 
f 149 158 204 
f 166 149 204 
f 158 174 204 
f 174 166 204 
f 151 178 205 
f 178 168 205 
f 168 179 205 
f 179 151 205 
f 148 166 206 
f 155 169 206 
f 169 148 206 
f 174 155 206 
f 166 174 206 
f 178 160 207 
f 168 178 207 
f 160 185 207 
f 185 168 207 
f 162 145 208 
f 156 172 208 
f 172 162 208 
f 145 186 208 
o convex_6
v -0.356009 -0.023322 -0.342942
v -0.324405 0.055719 -0.311314
v -0.320453 0.055719 -0.319227
v -0.348105 0.039896 -0.370598
v -0.328357 -0.027282 -0.366641
v -0.308597 0.063630 -0.378503
v -0.344153 -0.003558 -0.390356
v -0.359961 -0.023322 -0.311314
v -0.348105 0.051768 -0.311314
v -0.332309 -0.011469 -0.311314
v -0.363919 0.008296 -0.335037
v -0.304634 0.051768 -0.366641
v -0.320453 0.028052 -0.394313
v -0.332309 0.063630 -0.358736
v -0.336249 0.039896 -0.390356
v -0.340201 -0.027282 -0.311314
v -0.359961 0.028052 -0.311314
v -0.356009 0.008296 -0.370598
v -0.356009 0.035954 -0.350847
f 226 219 227 
f 210 211 214 
f 213 209 215 
f 216 210 217 
f 211 210 218 
f 210 216 218 
f 209 216 219 
f 214 211 220 
f 211 218 220 
f 218 213 220 
f 213 215 221 
f 214 220 221 
f 220 213 221 
f 210 214 222 
f 217 210 222 
f 214 221 223 
f 221 215 223 
f 222 214 223 
f 212 222 223 
f 209 213 224 
f 216 209 224 
f 213 218 224 
f 218 216 224 
f 216 217 225 
f 219 216 225 
f 215 209 226 
f 209 219 226 
f 212 223 226 
f 223 215 226 
f 222 212 227 
f 217 222 227 
f 225 217 227 
f 219 225 227 
f 212 226 227 
o convex_7
v -0.348103 0.043862 -0.252020
v -0.296738 -0.039141 -0.220411
v -0.292775 -0.039141 -0.220411
v -0.359962 -0.027282 -0.311314
v -0.352058 -0.019369 -0.184827
v -0.296738 0.051765 -0.259907
v -0.312546 0.012242 -0.184827
v -0.324405 0.051765 -0.311314
v -0.332295 -0.019369 -0.311314
v -0.363917 0.016178 -0.311314
v -0.340199 -0.039141 -0.184827
v -0.292775 -0.035184 -0.184827
v -0.324405 0.055721 -0.236234
v -0.348103 0.012242 -0.184827
v -0.292775 0.028047 -0.259907
v -0.344154 0.055721 -0.311314
v -0.304642 0.059677 -0.244133
v -0.292775 -0.011467 -0.184827
v -0.363917 0.008295 -0.271781
v -0.340199 -0.035184 -0.287579
v -0.363917 -0.019369 -0.279692
v -0.356007 0.043862 -0.291541
v -0.292775 0.043862 -0.244133
f 244 245 250 
f 231 235 236 
f 235 231 237 
f 229 230 238 
f 234 232 238 
f 234 238 239 
f 238 230 239 
f 232 234 241 
f 240 228 241 
f 234 240 241 
f 235 233 242 
f 236 235 242 
f 230 236 242 
f 239 230 242 
f 235 237 243 
f 228 240 243 
f 243 240 244 
f 233 235 244 
f 240 234 244 
f 235 243 244 
f 234 239 245 
f 239 242 245 
f 244 234 245 
f 232 241 246 
f 230 229 247 
f 236 230 247 
f 231 236 247 
f 229 238 247 
f 238 231 247 
f 237 231 248 
f 231 238 248 
f 238 232 248 
f 232 246 248 
f 246 237 248 
f 241 228 249 
f 228 243 249 
f 243 237 249 
f 237 246 249 
f 246 241 249 
f 242 233 250 
f 233 244 250 
f 245 242 250 
o convex_8
v -0.209774 0.035959 -0.291567
v -0.292775 -0.110289 -0.354778
v -0.284868 -0.110289 -0.354778
v -0.292775 -0.070739 -0.279692
v -0.205816 -0.023337 -0.354778
v -0.209774 -0.015427 -0.366652
v -0.205816 0.028049 -0.279692
v -0.288817 -0.070739 -0.315281
v -0.288817 -0.074694 -0.283650
v -0.253237 -0.007532 -0.283650
v -0.273002 -0.082619 -0.362694
v -0.245354 -0.027292 -0.331063
v -0.205816 -0.027292 -0.366652
v -0.292775 -0.058903 -0.279692
v -0.288817 -0.106334 -0.335029
v -0.205816 0.039914 -0.279692
f 260 264 266 
f 257 254 259 
f 255 257 259 
f 253 252 261 
f 252 258 261 
f 251 256 262 
f 260 251 262 
f 258 260 262 
f 261 258 262 
f 256 261 262 
f 255 253 263 
f 257 255 263 
f 253 261 263 
f 261 256 263 
f 252 254 264 
f 254 257 264 
f 258 252 264 
f 260 258 264 
f 252 253 265 
f 254 252 265 
f 253 255 265 
f 259 254 265 
f 255 259 265 
f 256 251 266 
f 251 260 266 
f 263 256 266 
f 257 263 266 
f 264 257 266 
o convex_9
v -0.292775 -0.054942 -0.275727
v -0.205816 0.079441 -0.184827
v -0.209774 0.079441 -0.184827
v -0.288817 -0.031220 -0.184827
v -0.205816 0.031984 -0.271781
v -0.209774 0.047817 -0.271781
v -0.269052 0.012228 -0.188783
v -0.288817 -0.066810 -0.271781
v -0.205816 0.067573 -0.188783
v -0.237438 0.035949 -0.232260
v -0.292775 -0.019353 -0.184827
v -0.241396 0.008277 -0.279692
v -0.288817 -0.035186 -0.248064
v -0.292775 -0.066810 -0.279692
v -0.205816 0.031984 -0.279692
v -0.221640 0.067573 -0.192739
f 276 273 282 
f 268 269 270 
f 269 268 272 
f 271 270 274 
f 268 270 275 
f 270 271 275 
f 271 268 275 
f 270 269 277 
f 269 273 277 
f 276 272 278 
f 276 278 279 
f 273 276 279 
f 277 273 279 
f 267 277 279 
f 278 267 279 
f 274 270 280 
f 270 277 280 
f 277 267 280 
f 267 278 280 
f 280 278 281 
f 268 271 281 
f 272 268 281 
f 271 274 281 
f 278 272 281 
f 274 280 281 
f 269 272 282 
f 273 269 282 
f 272 276 282 
o convex_10
v -0.170229 0.071532 -0.295519
v -0.205816 -0.023330 -0.366638
v -0.201856 -0.023330 -0.366638
v -0.114903 0.051760 -0.370605
v -0.118863 0.099197 -0.283645
v -0.201856 0.032014 -0.283645
v -0.114903 0.043866 -0.362697
v -0.205816 0.000389 -0.350840
v -0.122814 0.111063 -0.287612
v -0.150490 0.032014 -0.370605
v -0.205816 0.039920 -0.283645
v -0.197904 -0.019370 -0.358730
v -0.118863 0.087344 -0.327125
v -0.114903 0.111063 -0.283645
v -0.162335 0.059666 -0.323175
v -0.201856 0.028067 -0.287612
f 294 289 298 
f 285 286 289 
f 285 284 292 
f 286 285 292 
f 284 290 292 
f 288 287 293 
f 290 284 293 
f 283 290 293 
f 291 283 293 
f 284 285 294 
f 285 289 294 
f 286 292 295 
f 289 286 296 
f 287 289 296 
f 293 287 296 
f 291 293 296 
f 286 295 296 
f 295 291 296 
f 290 283 297 
f 283 291 297 
f 292 290 297 
f 291 295 297 
f 295 292 297 
f 287 288 298 
f 289 287 298 
f 288 293 298 
f 293 284 298 
f 284 294 298 
o convex_11
v -0.205816 0.063637 -0.248068
v -0.114903 0.154543 -0.184827
v -0.114903 0.154543 -0.192739
v -0.114903 0.107105 -0.275732
v -0.201856 0.071554 -0.188783
v -0.201856 0.032008 -0.279679
v -0.138628 0.103147 -0.283645
v -0.170229 0.118955 -0.188783
v -0.114903 0.146626 -0.184827
v -0.205816 0.083404 -0.184827
v -0.118863 0.134764 -0.248068
v -0.205816 0.043871 -0.283645
v -0.170229 0.095242 -0.252005
v -0.114903 0.114997 -0.283645
v -0.142579 0.134764 -0.208554
f 309 311 313 
f 301 300 302 
f 300 301 306 
f 302 300 307 
f 304 302 307 
f 303 304 307 
f 304 303 308 
f 300 306 308 
f 306 299 308 
f 307 300 308 
f 303 307 308 
f 308 299 310 
f 304 308 310 
f 299 306 311 
f 309 305 311 
f 310 299 311 
f 305 310 311 
f 301 302 312 
f 302 304 312 
f 309 301 312 
f 305 309 312 
f 310 305 312 
f 304 310 312 
f 306 301 313 
f 301 309 313 
f 311 306 313 
o convex_12
v -0.142562 0.150584 -0.133413
v -0.051660 0.182205 -0.046497
v -0.051660 0.178250 -0.046497
v -0.150474 0.134785 -0.022766
v -0.146518 0.126874 -0.184827
v -0.051660 0.190117 -0.153195
v -0.095138 0.178250 -0.086029
v -0.146518 0.126874 -0.022766
v -0.118855 0.158495 -0.180861
v -0.051660 0.182205 -0.153195
v -0.118855 0.154539 -0.022766
v -0.150474 0.142697 -0.058347
v -0.091182 0.178250 -0.153195
v -0.063528 0.190117 -0.089979
v -0.150474 0.134785 -0.184827
v -0.071430 0.182205 -0.050447
v -0.114899 0.146640 -0.184827
v -0.118855 0.166394 -0.089979
f 320 326 331 
f 315 316 319 
f 317 318 321 
f 318 316 321 
f 316 318 323 
f 319 316 323 
f 316 315 324 
f 321 316 324 
f 317 321 324 
f 317 324 325 
f 322 314 326 
f 319 322 326 
f 315 319 327 
f 326 320 327 
f 319 326 327 
f 318 317 328 
f 314 322 328 
f 325 314 328 
f 317 325 328 
f 324 315 329 
f 320 324 329 
f 315 327 329 
f 327 320 329 
f 322 319 330 
f 323 318 330 
f 319 323 330 
f 318 328 330 
f 328 322 330 
f 324 320 331 
f 314 325 331 
f 325 324 331 
f 326 314 331 
o convex_13
v -0.130718 0.146636 -0.018806
v -0.150474 0.047819 0.123476
v -0.142567 0.047819 0.123476
v -0.118862 0.091308 0.103711
v -0.114907 0.051773 0.135322
v -0.114907 0.142683 -0.018806
v -0.146519 0.122905 -0.018806
v -0.150474 0.107101 0.052369
v -0.114907 0.142683 0.012822
v -0.150474 0.051773 0.135322
v -0.150474 0.134766 -0.022766
v -0.114907 0.059680 0.143242
v -0.122814 0.111055 0.072084
f 339 341 344 
f 333 334 336 
f 337 336 338 
f 334 333 338 
f 336 334 338 
f 337 332 340 
f 336 337 340 
f 332 339 340 
f 333 336 341 
f 339 333 341 
f 332 337 342 
f 337 338 342 
f 338 333 342 
f 333 339 342 
f 339 332 342 
f 340 335 343 
f 336 340 343 
f 335 341 343 
f 341 336 343 
f 335 340 344 
f 340 339 344 
f 341 335 344 
o convex_14
v 0.035300 0.115010 -0.481289
v -0.075376 0.063632 -0.449672
v -0.071422 0.055737 -0.453628
v -0.039799 0.142663 -0.544514
v -0.000278 0.075508 -0.540559
v -0.027936 0.138722 -0.445706
v 0.007631 0.039920 -0.445706
v 0.019483 0.158494 -0.544514
v -0.047707 0.091325 -0.544514
v -0.039799 0.024103 -0.445706
v 0.027391 0.118965 -0.445706
v 0.031346 0.107102 -0.544514
v -0.063502 0.111043 -0.445706
v -0.016105 0.162448 -0.528701
v -0.000278 0.138722 -0.445706
v 0.027391 0.071541 -0.445706
v -0.051640 0.122919 -0.536603
v -0.047707 0.028057 -0.453628
v -0.020038 0.024103 -0.449672
v -0.020038 0.067586 -0.532657
v 0.035300 0.134768 -0.544514
v 0.007631 0.063632 -0.512887
v -0.055605 0.122919 -0.445706
v 0.007631 0.162448 -0.524745
v 0.027391 0.138722 -0.489201
v -0.075376 0.079449 -0.445706
v 0.019483 0.063632 -0.481289
v -0.023971 0.158494 -0.544514
v -0.059559 0.035966 -0.453628
v -0.051640 0.103148 -0.544514
f 370 361 374 
f 348 352 353 
f 351 350 354 
f 350 351 355 
f 349 353 356 
f 353 352 356 
f 354 350 357 
f 350 355 359 
f 345 355 360 
f 355 351 360 
f 356 345 360 
f 357 348 361 
f 354 362 363 
f 351 354 363 
f 353 349 364 
f 362 353 364 
f 363 362 364 
f 349 363 364 
f 345 356 365 
f 356 352 365 
f 349 356 366 
f 363 349 366 
f 351 363 366 
f 348 357 367 
f 357 350 367 
f 350 358 367 
f 352 358 368 
f 358 350 368 
f 350 359 368 
f 368 359 369 
f 355 345 369 
f 359 355 369 
f 345 365 369 
f 365 352 369 
f 352 368 369 
f 346 354 370 
f 354 357 370 
f 357 361 370 
f 360 351 371 
f 356 360 371 
f 351 366 371 
f 366 356 371 
f 352 348 372 
f 358 352 372 
f 348 367 372 
f 367 358 372 
f 346 347 373 
f 347 353 373 
f 354 346 373 
f 353 362 373 
f 362 354 373 
f 347 346 374 
f 353 347 374 
f 348 353 374 
f 361 348 374 
f 346 370 374 
o convex_15
v 0.118307 0.115026 0.028618
v 0.023444 0.186156 -0.042528
v 0.027402 0.182200 -0.030665
v -0.004227 0.150583 0.024664
v 0.114349 0.134782 -0.046482
v -0.004227 0.182200 -0.046482
v 0.019498 0.158487 0.028618
v 0.086678 0.162443 -0.034611
v 0.114349 0.103165 0.028618
v 0.066911 0.142687 0.032572
v -0.004227 0.158487 0.032572
v 0.110391 0.150583 -0.046482
v -0.004227 0.178252 -0.010894
v 0.047169 0.170348 -0.010894
v 0.118307 0.126878 0.008855
v 0.118307 0.103165 0.032572
v 0.055073 0.178252 -0.046482
f 388 382 391 
f 379 378 380 
f 378 379 383 
f 380 378 385 
f 384 381 385 
f 379 380 386 
f 377 376 387 
f 376 380 387 
f 381 377 387 
f 380 385 387 
f 385 381 387 
f 377 381 388 
f 381 384 388 
f 384 382 388 
f 382 384 389 
f 384 375 389 
f 379 386 389 
f 386 382 389 
f 383 379 390 
f 378 383 390 
f 375 384 390 
f 384 385 390 
f 385 378 390 
f 389 375 390 
f 379 389 390 
f 376 377 391 
f 380 376 391 
f 386 380 391 
f 382 386 391 
f 377 388 391 
o convex_16
v -0.320430 -0.054938 -0.157149
v -0.221639 -0.039154 -0.050435
v -0.221639 -0.050997 -0.050435
v -0.312527 -0.031244 -0.050435
v -0.273026 -0.003566 -0.184827
v -0.352066 -0.003566 -0.184827
v -0.284887 -0.003566 -0.050435
v -0.245360 -0.078668 -0.074153
v -0.296709 -0.070750 -0.050435
v -0.304624 -0.043080 -0.184827
v -0.332290 -0.047042 -0.097872
v -0.237458 -0.011484 -0.050435
v -0.245360 -0.050997 -0.121577
v -0.328333 -0.011484 -0.089966
v -0.344138 -0.035192 -0.184827
v -0.292764 -0.074705 -0.105791
v -0.273026 -0.070750 -0.121577
v -0.245360 -0.078668 -0.050435
v -0.312527 -0.066795 -0.105791
v -0.340193 -0.031244 -0.113684
v -0.276984 -0.047042 -0.161108
v -0.284887 -0.078668 -0.062300
v -0.316472 -0.003566 -0.082059
v -0.233500 -0.035192 -0.093925
v -0.229555 -0.019379 -0.054394
v -0.241403 -0.066795 -0.097872
v -0.265123 -0.003566 -0.086019
v -0.316472 -0.050997 -0.058341
f 411 402 419 
f 394 393 395 
f 396 397 398 
f 395 393 398 
f 394 395 400 
f 397 396 401 
f 398 393 403 
f 401 392 406 
f 397 401 406 
f 392 401 408 
f 399 407 408 
f 407 392 408 
f 399 394 409 
f 394 400 409 
f 400 402 410 
f 406 392 410 
f 402 406 410 
f 392 407 410 
f 405 397 411 
f 395 405 411 
f 397 406 411 
f 406 402 411 
f 401 396 412 
f 396 404 412 
f 408 401 412 
f 407 399 413 
f 399 409 413 
f 409 400 413 
f 400 410 413 
f 410 407 413 
f 398 397 414 
f 395 398 414 
f 397 405 414 
f 405 395 414 
f 393 394 415 
f 394 404 415 
f 404 396 415 
f 403 393 416 
f 396 403 416 
f 393 415 416 
f 415 396 416 
f 394 399 417 
f 404 394 417 
f 399 408 417 
f 412 404 417 
f 408 412 417 
f 396 398 418 
f 403 396 418 
f 398 403 418 
f 400 395 419 
f 402 400 419 
f 395 411 419 
o convex_17
v -0.348104 -0.003566 -0.169001
v -0.253258 0.020150 -0.176921
v -0.253258 0.016197 -0.176921
v -0.265115 0.020150 -0.050435
v -0.280927 -0.003566 -0.050435
v -0.340193 0.016197 -0.184827
v -0.269070 -0.003566 -0.184827
v -0.320435 0.000387 -0.097872
v -0.273025 0.020150 -0.050435
v -0.348104 -0.003566 -0.184827
v -0.273025 -0.003566 -0.089966
v -0.261168 0.020150 -0.184827
f 428 421 431 
f 422 421 423 
f 424 420 426 
f 420 424 427 
f 425 420 427 
f 425 427 428 
f 423 421 428 
f 424 423 428 
f 427 424 428 
f 420 425 429 
f 426 420 429 
f 425 426 429 
f 422 423 430 
f 423 424 430 
f 426 422 430 
f 424 426 430 
f 421 422 431 
f 422 426 431 
f 426 425 431 
f 425 428 431 
o convex_18
v -0.166311 0.063610 0.107672
v -0.296714 -0.082615 0.139295
v -0.292748 -0.086562 0.147185
v -0.292748 -0.043063 0.052353
v -0.150478 0.028058 0.143240
v -0.150478 0.087341 0.060243
v -0.253237 0.020111 0.052353
v -0.253222 -0.047027 0.166936
v -0.296714 -0.058884 0.119520
v -0.201872 0.059664 0.072115
v -0.272993 -0.082615 0.162991
v -0.154443 0.039915 0.147173
v -0.296714 -0.031225 0.048395
v -0.158394 0.095252 0.064213
v -0.237432 0.008273 0.107684
v -0.292748 -0.078651 0.159033
v -0.209788 0.016184 0.131392
v -0.150478 0.028058 0.151143
v -0.272993 -0.082615 0.170894
v -0.241369 0.020148 0.048395
v -0.190018 0.012237 0.155088
v -0.150478 0.091287 0.076061
f 443 449 453 
f 434 433 435 
f 436 435 437 
f 434 435 442 
f 435 436 442 
f 435 433 444 
f 440 438 444 
f 433 440 444 
f 441 432 445 
f 438 441 445 
f 438 440 446 
f 441 438 446 
f 433 434 447 
f 440 433 447 
f 439 446 447 
f 446 440 447 
f 432 441 448 
f 446 439 448 
f 441 446 448 
f 436 437 449 
f 442 436 449 
f 434 442 450 
f 447 434 450 
f 439 447 450 
f 442 449 450 
f 449 439 450 
f 437 435 451 
f 435 444 451 
f 444 438 451 
f 445 437 451 
f 438 445 451 
f 443 432 452 
f 432 448 452 
f 448 439 452 
f 439 449 452 
f 449 443 452 
f 432 443 453 
f 437 445 453 
f 445 432 453 
f 449 437 453 
o convex_19
v -0.154447 0.134774 -0.176922
v -0.269048 0.020150 -0.129495
v -0.269048 0.020150 -0.121584
v -0.249282 0.020150 -0.180871
v -0.150489 0.130815 -0.129495
v -0.178159 0.122911 -0.121584
v -0.237420 0.051780 -0.184827
v -0.150489 0.122911 -0.184827
v -0.261132 0.020150 -0.121584
v -0.209763 0.091292 -0.141350
v -0.150489 0.138732 -0.121584
v -0.265090 0.024108 -0.161104
v -0.233474 0.067590 -0.125539
v -0.190020 0.103155 -0.180871
v -0.257186 0.020150 -0.184827
f 465 460 468 
f 456 455 457 
f 458 457 461 
f 456 457 462 
f 457 458 462 
f 459 456 462 
f 454 459 464 
f 461 454 464 
f 458 461 464 
f 462 458 464 
f 459 462 464 
f 455 456 466 
f 456 459 466 
f 459 463 466 
f 463 460 466 
f 465 455 466 
f 460 465 466 
f 459 454 467 
f 461 460 467 
f 454 461 467 
f 463 459 467 
f 460 463 467 
f 457 455 468 
f 461 457 468 
f 460 461 468 
f 455 465 468 
o convex_20
v -0.253236 0.024109 0.040474
v -0.150489 0.126874 -0.002995
v -0.150489 0.126874 -0.014860
v -0.150489 0.091282 0.052324
v -0.257186 0.020150 -0.014860
v -0.225569 0.067599 -0.006943
v -0.182116 0.083384 0.056279
v -0.233468 0.020150 0.060241
v -0.150489 0.118965 -0.014860
v -0.265106 0.024109 -0.014860
v -0.154449 0.099190 0.060241
v -0.182116 0.103149 0.008870
v -0.217660 0.051772 0.060241
v -0.174207 0.115006 -0.014860
f 474 480 482 
f 471 470 472 
f 469 473 476 
f 473 472 476 
f 471 472 477 
f 472 473 477 
f 473 471 477 
f 473 469 478 
f 471 473 478 
f 469 474 478 
f 472 470 479 
f 476 472 479 
f 479 470 480 
f 475 479 480 
f 474 469 481 
f 469 476 481 
f 479 475 481 
f 476 479 481 
f 480 474 481 
f 475 480 481 
f 470 471 482 
f 471 478 482 
f 478 474 482 
f 480 470 482 
o convex_21
v -0.087231 0.063624 0.143248
v -0.114903 0.035961 0.080005
v -0.114903 0.035961 0.099772
v 0.043205 0.035961 0.099772
v -0.016085 0.055723 0.080005
v -0.114903 0.071535 0.119520
v -0.114903 0.051774 0.143248
v -0.067468 0.071535 0.139293
v 0.043205 0.047821 0.080005
v -0.095140 0.051774 0.080005
v -0.016085 0.035961 0.115576
v 0.043205 0.035961 0.080005
v -0.079323 0.035961 0.115576
v 0.039243 0.039917 0.103734
f 483 493 496 
f 485 484 486 
f 484 485 488 
f 488 485 489 
f 483 488 489 
f 487 488 490 
f 488 483 490 
f 484 487 491 
f 487 490 491 
f 487 484 492 
f 484 488 492 
f 488 487 492 
f 485 486 493 
f 483 489 493 
f 486 484 494 
f 484 491 494 
f 491 486 494 
f 489 485 495 
f 485 493 495 
f 493 489 495 
f 490 483 496 
f 486 491 496 
f 491 490 496 
f 493 486 496 
o convex_22
v 0.142027 0.114998 -0.259934
v 0.169687 0.000413 -0.386416
v 0.177598 0.000413 -0.386416
v 0.173640 0.083379 -0.232260
v 0.118307 0.039923 -0.374540
v 0.118307 0.126861 -0.232260
v 0.122265 0.091284 -0.327113
v 0.177598 0.067583 -0.299469
v 0.157825 0.024114 -0.386416
v 0.177598 0.091284 -0.232260
v 0.118307 0.134766 -0.244135
v 0.118307 0.047828 -0.382447
v 0.177598 0.035977 -0.350819
v 0.169687 0.000413 -0.382447
v 0.157825 0.111052 -0.236228
v 0.153878 0.075474 -0.319206
f 509 505 512 
f 501 500 502 
f 499 498 505 
f 500 499 506 
f 502 500 506 
f 499 504 506 
f 501 502 507 
f 497 503 507 
f 498 501 508 
f 505 498 508 
f 503 505 508 
f 501 507 508 
f 507 503 508 
f 504 499 509 
f 499 505 509 
f 498 499 510 
f 499 500 510 
f 500 501 510 
f 501 498 510 
f 504 497 511 
f 502 506 511 
f 506 504 511 
f 507 502 511 
f 497 507 511 
f 503 497 512 
f 497 504 512 
f 505 503 512 
f 504 509 512 
o convex_23
v 0.311990 -0.074704 -0.398264
v 0.323844 -0.011472 -0.327132
v 0.304092 -0.011472 -0.327132
v 0.308039 -0.098431 -0.327132
v 0.288274 -0.003570 -0.390356
v 0.331751 -0.035200 -0.362710
v 0.292230 -0.090509 -0.362710
v 0.327795 -0.094475 -0.327132
v 0.311990 -0.027287 -0.402217
v 0.300137 -0.070748 -0.402217
v 0.304092 0.000387 -0.382456
v 0.304092 -0.094475 -0.378502
v 0.327795 -0.070748 -0.374548
v 0.335706 -0.050996 -0.327132
v 0.288274 -0.007526 -0.366656
v 0.304092 -0.094475 -0.327132
v 0.292230 -0.090509 -0.378502
v 0.296185 -0.039146 -0.406171
f 522 529 530 
f 514 515 516 
f 514 516 520 
f 515 514 523 
f 514 518 523 
f 521 517 523 
f 518 521 523 
f 520 516 524 
f 522 513 524 
f 513 521 525 
f 521 518 525 
f 520 524 525 
f 524 513 525 
f 518 514 526 
f 514 520 526 
f 525 518 526 
f 520 525 526 
f 515 523 527 
f 523 517 527 
f 516 515 528 
f 519 516 528 
f 515 527 528 
f 527 519 528 
f 516 519 529 
f 524 516 529 
f 522 524 529 
f 519 527 529 
f 527 517 529 
f 521 513 530 
f 517 521 530 
f 513 522 530 
f 529 517 530 
o convex_24
v 0.304085 -0.090525 -0.327125
v 0.311978 -0.027284 -0.232260
v 0.292230 -0.027284 -0.232260
v 0.323839 -0.011479 -0.327125
v 0.327801 -0.090525 -0.240171
v 0.272463 -0.039143 -0.263897
v 0.284330 -0.086559 -0.232260
v 0.331744 -0.086559 -0.327125
v 0.335706 -0.035196 -0.287585
v 0.280375 -0.011479 -0.275746
v 0.296192 -0.102384 -0.287585
v 0.304085 -0.015425 -0.327125
v 0.308034 -0.007522 -0.252039
v 0.327801 -0.047055 -0.232260
v 0.315940 -0.098428 -0.232260
v 0.319896 -0.102384 -0.311311
v 0.288280 -0.003566 -0.255985
v 0.276425 -0.027284 -0.244127
v 0.335706 -0.074710 -0.279692
v 0.335706 -0.043109 -0.327125
v 0.323839 -0.019381 -0.259932
v 0.272463 -0.027284 -0.267843
v 0.300135 -0.086559 -0.323160
v 0.331744 -0.070754 -0.236215
v 0.296192 -0.102384 -0.255985
f 546 545 555 
f 532 533 537 
f 531 534 538 
f 537 536 541 
f 534 531 542 
f 532 537 544 
f 544 537 545 
f 531 538 546 
f 538 535 546 
f 541 531 546 
f 535 545 546 
f 533 532 547 
f 534 542 547 
f 542 540 547 
f 532 543 547 
f 543 534 547 
f 537 533 548 
f 536 537 548 
f 533 547 548 
f 535 538 549 
f 538 534 550 
f 534 539 550 
f 549 538 550 
f 539 549 550 
f 539 534 551 
f 543 532 551 
f 534 543 551 
f 532 544 551 
f 544 539 551 
f 540 542 552 
f 547 540 552 
f 536 548 552 
f 548 547 552 
f 531 541 553 
f 541 536 553 
f 542 531 553 
f 536 552 553 
f 552 542 553 
f 539 544 554 
f 545 535 554 
f 544 545 554 
f 535 549 554 
f 549 539 554 
f 537 541 555 
f 545 537 555 
f 541 546 555 
o convex_25
v -0.158394 0.134768 -0.042533
v -0.269041 0.020150 -0.121584
v -0.269041 0.020150 -0.030676
v -0.150478 0.122906 -0.014860
v -0.154436 0.142684 -0.121584
v -0.241382 0.059672 -0.062299
v -0.261137 0.020150 -0.121584
v -0.150478 0.134768 -0.121584
v -0.257190 0.020150 -0.014860
v -0.189999 0.103151 -0.014860
v -0.233489 0.067576 -0.121584
v -0.182106 0.118960 -0.066268
v -0.253233 0.039929 -0.014860
v -0.265095 0.032025 -0.093910
v -0.150478 0.122906 -0.030676
v -0.150478 0.130810 -0.014860
v -0.205830 0.095247 -0.046482
f 568 565 572 
f 558 557 562 
f 557 560 562 
f 562 560 563 
f 558 562 564 
f 564 559 565 
f 560 557 566 
f 556 560 567 
f 565 556 567 
f 560 566 567 
f 558 564 568 
f 564 565 568 
f 557 558 569 
f 566 557 569 
f 561 566 569 
f 558 568 569 
f 568 561 569 
f 562 563 570 
f 563 559 570 
f 559 564 570 
f 564 562 570 
f 560 556 571 
f 563 560 571 
f 559 563 571 
f 556 565 571 
f 565 559 571 
f 566 561 572 
f 567 566 572 
f 565 567 572 
f 561 568 572 
o convex_26
v 0.090624 0.083398 0.103715
v -0.004227 0.146637 0.032572
v -0.004227 0.083398 0.119519
v 0.114349 0.095269 0.040489
v 0.035294 0.150586 0.036526
v 0.003689 0.107116 0.107669
v 0.114349 0.115013 0.032572
v 0.118307 0.071535 0.080014
v 0.055073 0.075492 0.131390
v 0.070881 0.118954 0.068164
v -0.004227 0.146637 0.052340
v -0.000269 0.075492 0.135343
v 0.035294 0.122919 0.080034
v 0.118307 0.075492 0.091855
v -0.004227 0.083398 0.135343
v 0.086678 0.126868 0.044443
v 0.110391 0.071535 0.080014
v 0.118307 0.103167 0.032572
v 0.055073 0.071535 0.131390
f 584 589 591 
f 575 574 576 
f 574 577 579 
f 581 573 582 
f 574 575 583 
f 577 574 583 
f 578 581 585 
f 582 577 585 
f 581 582 585 
f 577 583 585 
f 583 578 585 
f 573 581 586 
f 581 578 587 
f 583 575 587 
f 578 583 587 
f 575 584 587 
f 584 581 587 
f 579 577 588 
f 577 582 588 
f 582 573 588 
f 586 579 588 
f 573 586 588 
f 575 576 589 
f 576 580 589 
f 584 575 589 
f 576 574 590 
f 574 579 590 
f 580 576 590 
f 579 586 590 
f 586 580 590 
f 581 584 591 
f 580 586 591 
f 586 581 591 
f 589 580 591 
o convex_27
v -0.063513 0.051766 -0.228340
v -0.063513 -0.070762 -0.287616
v -0.059564 -0.070762 -0.287616
v -0.000274 0.095252 -0.445706
v -0.114903 0.051766 -0.370575
v -0.000274 -0.062848 -0.220446
v -0.000274 0.095252 -0.267857
v -0.016095 0.024075 -0.445706
v -0.114903 0.095252 -0.303427
v -0.103032 -0.031225 -0.220446
v -0.071401 0.095252 -0.445706
v -0.067463 0.028024 -0.433820
v -0.000274 -0.054934 -0.307396
v -0.095133 -0.050986 -0.287616
v -0.020045 0.032005 -0.220446
v -0.099071 0.016194 -0.220446
v -0.110942 -0.023327 -0.248099
v -0.000274 0.032005 -0.445706
v -0.079323 -0.066797 -0.259963
v -0.047715 0.024075 -0.445706
v -0.075362 0.055715 -0.445706
v -0.075362 -0.066797 -0.291585
v -0.043765 -0.031225 -0.358711
v -0.000274 -0.003534 -0.224393
v -0.071401 0.043852 -0.220446
v -0.106993 0.000398 -0.224393
v -0.083273 0.004363 -0.382439
v -0.079323 -0.047020 -0.220446
v -0.114903 0.047817 -0.370575
v -0.114903 0.095252 -0.319238
v -0.103032 -0.043088 -0.271805
v -0.043765 0.047817 -0.220446
v -0.043765 -0.070762 -0.275774
v -0.099071 -0.050986 -0.252046
v -0.020045 -0.062848 -0.220446
f 610 624 626 
f 597 595 598 
f 598 595 600 
f 592 598 600 
f 595 599 602 
f 600 595 602 
f 595 597 604 
f 601 597 606 
f 601 606 607 
f 599 595 609 
f 595 604 609 
f 604 599 609 
f 602 599 611 
f 611 603 612 
f 596 602 612 
f 602 611 612 
f 593 610 613 
f 610 605 613 
f 603 611 613 
f 613 611 614 
f 594 593 614 
f 604 594 614 
f 599 604 614 
f 611 599 614 
f 593 613 614 
f 597 598 615 
f 606 597 615 
f 598 606 615 
f 598 592 616 
f 592 600 616 
f 607 606 616 
f 600 607 616 
f 601 607 617 
f 607 600 617 
f 600 608 617 
f 608 601 617 
f 603 613 618 
f 613 605 618 
f 597 601 619 
f 600 596 620 
f 608 600 620 
f 612 603 620 
f 596 612 620 
f 603 618 620 
f 618 605 620 
f 596 600 621 
f 602 596 621 
f 600 602 621 
f 608 620 622 
f 620 605 622 
f 606 598 623 
f 598 616 623 
f 616 606 623 
f 593 594 624 
f 594 604 624 
f 604 597 624 
f 610 593 624 
f 601 608 625 
f 605 610 625 
f 619 601 625 
f 610 619 625 
f 608 622 625 
f 622 605 625 
f 597 619 626 
f 619 610 626 
f 624 597 626 
o convex_28
v 0.003653 -0.086573 -0.200623
v -0.008195 0.071535 -0.097867
v -0.008195 0.071535 -0.101825
v -0.106998 -0.023320 -0.168994
v -0.047679 -0.074703 -0.097867
v 0.078777 -0.003572 -0.220401
v 0.078777 -0.050993 -0.097867
v -0.079307 0.035955 -0.220401
v -0.091156 0.024100 -0.097867
v -0.079307 -0.066810 -0.216443
v 0.078777 -0.074703 -0.220401
v 0.062935 0.035955 -0.097867
v 0.023414 0.047810 -0.196665
v 0.047130 -0.078665 -0.097867
v -0.095112 -0.047031 -0.097867
v -0.103023 0.004336 -0.220401
v 0.082733 0.000374 -0.097867
v -0.047679 0.063627 -0.097867
v -0.063502 0.043863 -0.220401
v 0.039237 0.055718 -0.141359
v 0.066891 0.016191 -0.220401
v -0.075351 -0.074703 -0.188772
v -0.099068 -0.050993 -0.192730
v -0.023981 0.063627 -0.161101
v -0.103023 -0.003588 -0.097867
v -0.020026 -0.078665 -0.220401
v 0.039237 -0.086573 -0.208527
v 0.082733 -0.066794 -0.220401
v 0.082733 0.000374 -0.172952
v -0.103023 -0.027267 -0.220401
v 0.019458 0.067573 -0.105783
v -0.075351 -0.066810 -0.097867
v -0.087219 0.032008 -0.161101
v -0.063502 -0.078665 -0.208527
v 0.011565 0.063627 -0.153209
v -0.004240 0.047810 -0.208527
v 0.062935 -0.070756 -0.097867
v -0.043742 0.063627 -0.137413
v 0.062935 0.032008 -0.165060
v -0.103023 0.008283 -0.153209
v -0.071396 0.047810 -0.097867
v -0.004240 -0.078665 -0.097867
v -0.091156 -0.062848 -0.184826
v 0.082733 -0.039137 -0.097867
v 0.043174 0.055718 -0.097867
v -0.103023 -0.027267 -0.097867
v 0.039237 -0.086573 -0.188772
f 640 668 673 
f 628 631 633 
f 631 628 635 
f 634 632 637 
f 628 633 638 
f 633 631 640 
f 631 635 641 
f 634 637 642 
f 638 633 643 
f 628 629 644 
f 635 628 644 
f 632 634 645 
f 639 646 647 
f 632 645 647 
f 641 635 651 
f 642 637 652 
f 627 652 653 
f 652 637 653 
f 633 637 654 
f 637 632 654 
f 643 654 655 
f 638 643 655 
f 632 647 655 
f 654 632 655 
f 630 642 656 
f 649 630 656 
f 636 649 656 
f 652 636 656 
f 642 652 656 
f 629 628 657 
f 631 641 658 
f 648 631 658 
f 634 642 659 
f 627 631 660 
f 631 648 660 
f 648 636 660 
f 652 627 660 
f 636 652 660 
f 646 639 661 
f 650 629 661 
f 629 657 661 
f 657 646 661 
f 639 647 662 
f 647 645 662 
f 645 650 662 
f 661 639 662 
f 650 661 662 
f 637 633 663 
f 633 640 663 
f 640 637 663 
f 644 629 664 
f 634 644 664 
f 645 634 664 
f 629 650 664 
f 650 645 664 
f 647 646 665 
f 638 655 665 
f 655 647 665 
f 642 630 666 
f 630 651 666 
f 651 635 666 
f 635 659 666 
f 659 642 666 
f 644 634 667 
f 635 644 667 
f 659 635 667 
f 634 659 667 
f 631 627 668 
f 640 631 668 
f 636 648 669 
f 641 649 669 
f 649 636 669 
f 658 641 669 
f 648 658 669 
f 643 633 670 
f 633 654 670 
f 654 643 670 
f 628 638 671 
f 657 628 671 
f 646 657 671 
f 638 665 671 
f 665 646 671 
f 649 641 672 
f 630 649 672 
f 651 630 672 
f 641 651 672 
f 637 640 673 
f 627 653 673 
f 653 637 673 
f 668 627 673 
o convex_29
v 0.256648 -0.066800 -0.386406
v 0.181555 0.087346 -0.232260
v 0.209221 0.059674 -0.244130
v 0.252699 -0.007510 -0.232260
v 0.177598 -0.003563 -0.378482
v 0.185504 0.039895 -0.335024
v 0.260605 -0.019365 -0.295512
v 0.244785 -0.070762 -0.382460
v 0.177598 0.079422 -0.232260
v 0.177598 0.004345 -0.386406
v 0.260605 0.000399 -0.232260
v 0.225025 0.008292 -0.323184
v 0.181555 0.075476 -0.275749
v 0.260605 -0.066800 -0.362696
v 0.201331 -0.007525 -0.382460
v 0.177598 0.059674 -0.307367
f 686 679 689 
f 677 678 681 
f 677 675 682 
f 678 677 682 
f 674 681 683 
f 681 678 683 
f 678 682 683 
f 676 675 684 
f 675 677 684 
f 680 676 684 
f 676 680 685 
f 680 674 685 
f 675 676 686 
f 685 679 686 
f 676 685 686 
f 674 680 687 
f 681 674 687 
f 677 681 687 
f 684 677 687 
f 680 684 687 
f 683 679 688 
f 674 683 688 
f 685 674 688 
f 679 685 688 
f 682 675 689 
f 679 683 689 
f 683 682 689 
f 675 686 689 
o convex_30
v -0.031915 0.134779 -0.303408
v -0.075373 0.095252 -0.346888
v -0.103036 0.095252 -0.323178
v -0.016088 0.095252 -0.315270
v -0.008180 0.107111 -0.346888
v -0.114903 0.095252 -0.303408
v -0.008180 0.126870 -0.303408
v -0.047710 0.111065 -0.346888
v -0.075373 0.122920 -0.307367
v -0.008180 0.095252 -0.346888
v -0.008180 0.134779 -0.311316
v -0.110944 0.103164 -0.311316
f 698 697 701 
f 692 691 693 
f 692 693 695 
f 695 693 696 
f 690 695 696 
f 694 691 697 
f 695 690 698 
f 690 697 698 
f 693 691 699 
f 691 694 699 
f 696 693 699 
f 694 696 699 
f 690 696 700 
f 696 694 700 
f 697 690 700 
f 694 697 700 
f 691 692 701 
f 692 695 701 
f 697 691 701 
f 695 698 701 
o convex_31
v 0.118307 0.008278 0.099744
v 0.130165 -0.126087 0.056301
v 0.134118 -0.126087 0.056301
v 0.122263 -0.086565 0.163012
v 0.134118 -0.015443 0.115576
v 0.118307 -0.051011 0.004903
v 0.118307 -0.126087 0.119507
v 0.134118 -0.015443 0.052339
v 0.118307 -0.047058 0.163012
v 0.134118 -0.114226 0.099744
v 0.122263 0.012231 0.048393
v 0.134118 -0.110273 0.032576
v 0.118307 -0.106319 0.040484
v 0.130165 -0.035197 0.143248
v 0.122263 -0.035197 0.008865
v 0.130165 0.004324 0.083958
v 0.118307 0.012231 0.048393
f 712 716 718 
f 702 707 708 
f 703 704 708 
f 706 704 709 
f 702 708 710 
f 708 705 710 
f 704 706 711 
f 708 704 711 
f 705 708 711 
f 704 703 713 
f 709 704 713 
f 708 707 714 
f 703 708 714 
f 713 703 714 
f 707 713 714 
f 706 702 715 
f 702 710 715 
f 710 705 715 
f 705 711 715 
f 711 706 715 
f 712 709 716 
f 713 707 716 
f 709 713 716 
f 702 706 717 
f 706 709 717 
f 712 702 717 
f 709 712 717 
f 707 702 718 
f 702 712 718 
f 716 707 718 
o convex_32
v 0.248744 0.020165 -0.216443
v 0.126216 0.150576 -0.161111
v 0.126216 0.150576 -0.169022
v 0.118307 0.130809 -0.220399
v 0.248744 0.012272 -0.161111
v 0.177621 0.095241 -0.232260
v 0.205260 0.079454 -0.161111
v 0.240835 0.012272 -0.232260
v 0.118307 0.142669 -0.165066
v 0.122261 0.138716 -0.232260
v 0.256652 0.016212 -0.161111
v 0.165745 0.115008 -0.196685
v 0.217123 0.055733 -0.228304
v 0.240835 0.012272 -0.212487
v 0.118307 0.130809 -0.232260
f 727 728 733 
f 721 720 725 
f 720 723 725 
f 720 721 727 
f 722 723 727 
f 723 720 727 
f 724 726 728 
f 727 721 728 
f 719 725 729 
f 725 723 729 
f 726 719 729 
f 723 726 729 
f 721 725 730 
f 728 721 730 
f 724 728 730 
f 725 719 731 
f 719 726 731 
f 726 724 731 
f 730 725 731 
f 724 730 731 
f 723 722 732 
f 726 723 732 
f 722 726 732 
f 726 722 733 
f 722 727 733 
f 728 726 733 
o convex_33
v 0.185497 0.039911 0.064200
v 0.118307 0.035968 0.119526
v 0.126218 0.028063 0.123482
v 0.256629 -0.066801 0.072112
v 0.118307 0.099172 0.032572
v 0.228982 -0.050990 0.127428
v 0.122263 0.051760 0.119526
v 0.221070 0.016195 0.032572
v 0.248732 -0.086573 0.115570
v 0.126218 0.107096 0.036538
v 0.260599 -0.058895 0.083961
v 0.165761 0.012233 0.127438
v 0.209203 0.012233 0.032572
v 0.145983 0.067551 0.076059
v 0.252688 -0.082611 0.123473
v 0.193395 0.047816 0.036538
v 0.118307 0.035968 0.127438
v 0.197350 0.012233 0.087907
v 0.118307 0.095229 0.036538
f 738 746 752 
f 736 735 742 
f 735 737 742 
f 738 740 743 
f 741 738 743 
f 737 741 744 
f 738 741 746 
f 741 737 746 
f 734 743 747 
f 743 740 747 
f 740 745 747 
f 742 737 748 
f 744 739 748 
f 737 744 748 
f 743 734 749 
f 741 743 749 
f 744 741 749 
f 735 736 750 
f 738 735 750 
f 740 738 750 
f 736 742 750 
f 739 745 750 
f 745 740 750 
f 748 739 750 
f 742 748 750 
f 739 744 751 
f 745 739 751 
f 734 747 751 
f 747 745 751 
f 749 734 751 
f 744 749 751 
f 737 735 752 
f 735 738 752 
f 746 737 752 
o convex_34
v 0.094577 0.071535 0.115571
v 0.043205 0.035961 0.080005
v 0.043205 0.035961 0.099772
v 0.118307 0.035961 0.127437
v 0.118307 0.071535 0.083959
v 0.047168 0.071535 0.131390
v 0.074838 0.035961 0.080005
v 0.043205 0.047821 0.080005
v 0.118307 0.047821 0.127437
f 753 758 761 
f 755 754 756 
f 755 756 758 
f 753 757 758 
f 756 754 759 
f 757 756 759 
f 757 759 760 
f 754 755 760 
f 758 757 760 
f 755 758 760 
f 759 754 760 
f 757 753 761 
f 756 757 761 
f 758 756 761 
o convex_35
v -0.245322 -0.086567 -0.022750
v -0.150487 -0.031241 0.115573
v -0.150487 -0.054955 0.115573
v -0.182119 -0.043095 -0.006945
v -0.308586 -0.039146 -0.046458
v -0.213721 -0.078662 0.087905
v -0.150487 -0.090523 0.072099
v -0.221613 -0.023330 -0.050435
v -0.209759 -0.023330 0.091848
v -0.229521 -0.070758 -0.050435
v -0.150487 -0.023330 0.068140
v -0.292755 -0.070751 -0.050435
v -0.190027 -0.094479 0.083945
v -0.182119 -0.054955 0.119532
v -0.178157 -0.090523 0.024699
v -0.245322 -0.023330 0.040438
v -0.229521 -0.043095 0.076042
v -0.162357 -0.074713 0.028643
v -0.162357 -0.086567 0.103710
v -0.213721 -0.094479 0.052334
v -0.233452 -0.070758 0.068140
v -0.182119 -0.023330 0.115573
v -0.245322 -0.023330 -0.050435
v -0.201866 -0.062853 -0.030669
v -0.150487 -0.043095 0.048374
v -0.300678 -0.062846 -0.042515
v -0.186066 -0.023330 -0.006945
v -0.221613 -0.086567 0.068140
v -0.190027 -0.094479 0.024699
v -0.201866 -0.047051 0.107670
v -0.186066 -0.082618 0.107670
v -0.249284 -0.078662 -0.050435
f 776 790 793 
f 763 764 768 
f 763 768 772 
f 769 770 772 
f 769 771 773 
f 764 763 775 
f 770 769 777 
f 770 777 778 
f 777 766 778 
f 768 776 779 
f 768 764 780 
f 774 768 780 
f 764 775 780 
f 773 762 781 
f 778 766 782 
f 763 772 783 
f 772 770 783 
f 775 763 783 
f 773 766 784 
f 769 773 784 
f 766 777 784 
f 777 769 784 
f 769 765 785 
f 771 769 785 
f 776 771 785 
f 765 779 785 
f 779 776 785 
f 772 768 786 
f 779 765 786 
f 768 779 786 
f 766 773 787 
f 782 766 787 
f 765 769 788 
f 769 772 788 
f 772 786 788 
f 786 765 788 
f 773 781 789 
f 781 774 789 
f 767 782 789 
f 787 773 789 
f 782 787 789 
f 768 774 790 
f 776 768 790 
f 781 762 790 
f 774 781 790 
f 770 778 791 
f 778 782 791 
f 782 767 791 
f 783 770 791 
f 775 783 791 
f 774 780 792 
f 780 775 792 
f 767 789 792 
f 789 774 792 
f 791 767 792 
f 775 791 792 
f 762 773 793 
f 773 771 793 
f 771 776 793 
f 790 762 793 
o convex_36
v -0.051657 0.126866 -0.445706
v -0.000274 0.103160 -0.346908
v -0.000274 0.095252 -0.346908
v -0.075375 0.095252 -0.346908
v -0.000274 0.095252 -0.445706
v -0.004229 0.138732 -0.441741
v -0.071420 0.095252 -0.445706
v -0.047695 0.115021 -0.354810
v -0.079329 0.099206 -0.362712
v -0.012137 0.111063 -0.346908
v -0.035855 0.134778 -0.433839
v -0.000274 0.134778 -0.445706
v -0.071420 0.103160 -0.346908
f 801 804 806 
f 796 795 797 
f 795 796 798 
f 796 797 798 
f 794 798 800 
f 798 797 800 
f 794 800 802 
f 800 797 802 
f 797 795 803 
f 795 799 803 
f 799 801 803 
f 799 794 804 
f 801 799 804 
f 798 794 805 
f 795 798 805 
f 799 795 805 
f 794 799 805 
f 794 802 806 
f 802 797 806 
f 797 803 806 
f 803 801 806 
f 804 794 806 
o convex_37
v -0.000272 0.008298 -0.390383
v 0.027392 0.281029 -0.346908
v 0.027392 0.281029 -0.366667
v 0.027392 0.032024 -0.346908
v 0.027392 0.071538 -0.445706
v -0.000272 0.134806 -0.445706
v -0.000272 0.225670 -0.346908
v -0.000272 -0.007519 -0.346908
v 0.023438 0.265212 -0.402212
v -0.000272 0.035978 -0.445706
v 0.007633 0.261258 -0.374569
v 0.027392 0.115035 -0.445706
v 0.007633 0.000390 -0.366667
v 0.027392 0.253350 -0.406167
v 0.015534 0.047841 -0.445706
v 0.011586 0.269167 -0.346908
f 817 813 822 
f 809 808 810 
f 809 810 811 
f 812 807 813 
f 810 808 813 
f 810 813 814 
f 813 807 814 
f 812 811 816 
f 807 812 816 
f 812 813 817 
f 809 815 817 
f 815 812 817 
f 809 811 818 
f 811 812 818 
f 811 810 819 
f 810 814 819 
f 814 807 819 
f 807 816 819 
f 815 809 820 
f 812 815 820 
f 809 818 820 
f 818 812 820 
f 816 811 821 
f 811 819 821 
f 819 816 821 
f 808 809 822 
f 813 808 822 
f 809 817 822 
o convex_38
v 0.106445 0.115017 -0.425927
v 0.059022 0.284982 -0.346908
v 0.027395 0.284982 -0.346908
v 0.035306 0.024150 -0.346908
v 0.031355 0.083437 -0.445706
v 0.118307 0.063684 -0.346908
v 0.086680 -0.019377 -0.445706
v 0.051119 0.269162 -0.410123
v 0.082720 0.257305 -0.350854
v 0.086680 0.126874 -0.445706
v 0.051119 -0.007490 -0.445706
v 0.027395 0.028082 -0.350854
v 0.027395 0.265170 -0.406167
v 0.106445 0.036007 -0.445706
v 0.110396 0.146626 -0.398266
v 0.070884 0.257305 -0.402212
v 0.027395 0.063684 -0.437785
v 0.118307 0.039940 -0.378525
v 0.055071 0.134769 -0.445706
v 0.051119 0.024150 -0.346908
v 0.062982 -0.019377 -0.441741
v 0.059022 0.277057 -0.398266
v 0.118307 0.075542 -0.346908
v 0.039257 0.020187 -0.445706
v 0.098542 -0.003527 -0.445706
v 0.098542 0.154491 -0.421981
v 0.074817 0.261238 -0.390383
v 0.074817 0.273065 -0.346908
v 0.106445 0.059692 -0.445706
v 0.086680 -0.019377 -0.441741
v 0.106445 0.162446 -0.374569
v 0.039257 0.277057 -0.402212
f 844 830 854 
f 824 825 826 
f 824 826 828 
f 829 827 832 
f 827 829 833 
f 826 825 834 
f 834 825 835 
f 829 832 836 
f 832 830 838 
f 835 827 839 
f 834 835 839 
f 832 827 841 
f 830 832 841 
f 835 830 841 
f 827 835 841 
f 828 826 842 
f 840 828 842 
f 833 829 843 
f 826 834 843 
f 834 833 843 
f 842 826 843 
f 838 830 844 
f 824 828 845 
f 828 840 845 
f 840 837 845 
f 827 833 846 
f 833 834 846 
f 839 827 846 
f 834 839 846 
f 829 836 847 
f 836 840 847 
f 837 823 848 
f 832 838 848 
f 848 838 849 
f 831 837 849 
f 838 844 849 
f 837 848 849 
f 849 844 850 
f 844 824 850 
f 824 845 850 
f 845 831 850 
f 831 849 850 
f 836 832 851 
f 823 837 851 
f 840 836 851 
f 837 840 851 
f 848 823 851 
f 832 848 851 
f 840 842 852 
f 843 829 852 
f 842 843 852 
f 829 847 852 
f 847 840 852 
f 837 831 853 
f 831 845 853 
f 845 837 853 
f 825 824 854 
f 835 825 854 
f 830 835 854 
f 824 844 854 
o convex_39
v 0.102487 -0.043073 -0.263881
v -0.000266 -0.058841 -0.307351
v 0.007638 -0.062848 -0.307351
v 0.066913 0.281012 -0.346888
v -0.000266 0.158465 -0.263881
v 0.118307 0.067639 -0.346888
v 0.118307 0.126817 -0.263881
v -0.000266 0.229626 -0.346888
v -0.000266 -0.011462 -0.346888
v -0.000266 -0.058841 -0.263881
v 0.066913 -0.078653 -0.299470
v 0.035308 0.273110 -0.311300
v 0.059020 -0.090526 -0.263881
v 0.086679 0.241462 -0.346888
v 0.055062 0.253335 -0.299470
v 0.047158 -0.043073 -0.331069
v 0.011596 0.269140 -0.338983
v 0.062955 0.170338 -0.263881
v 0.074817 0.269140 -0.327120
v 0.086679 -0.074684 -0.283650
v 0.078775 -0.043073 -0.319206
v 0.019500 -0.062848 -0.319206
v 0.110391 0.004380 -0.271787
v 0.031350 0.284982 -0.346888
v 0.118307 0.079475 -0.346888
v 0.059020 0.012246 -0.346888
v 0.019500 0.265207 -0.315265
v 0.035308 0.237529 -0.291564
v 0.082721 -0.086519 -0.263881
v 0.059020 0.281012 -0.323171
v 0.039266 -0.082586 -0.287599
v 0.098541 -0.043073 -0.291564
v 0.062955 0.261237 -0.307351
v 0.086679 -0.050976 -0.307351
v 0.070859 -0.027231 -0.331069
v 0.082733 0.257304 -0.335017
f 873 861 890 
f 859 855 861 
f 856 859 862 
f 858 860 862 
f 862 860 863 
f 856 862 863 
f 855 859 864 
f 859 856 864 
f 855 864 867 
f 860 858 868 
f 862 859 871 
f 859 861 872 
f 861 869 872 
f 865 870 875 
f 857 856 876 
f 856 863 876 
f 863 870 876 
f 870 865 876 
f 855 860 877 
f 860 861 877 
f 861 855 877 
f 858 862 878 
f 862 871 878 
f 861 860 879 
f 860 868 879 
f 868 861 879 
f 863 860 880 
f 870 863 880 
f 859 866 881 
f 871 859 881 
f 866 878 881 
f 878 871 881 
f 866 859 882 
f 869 866 882 
f 859 872 882 
f 872 869 882 
f 855 867 883 
f 867 865 883 
f 874 855 883 
f 865 874 883 
f 873 858 884 
f 858 878 884 
f 878 866 884 
f 856 857 885 
f 864 856 885 
f 867 864 885 
f 865 867 885 
f 857 876 885 
f 876 865 885 
f 860 855 886 
f 855 874 886 
f 869 861 887 
f 866 869 887 
f 861 873 887 
f 884 866 887 
f 873 884 887 
f 874 865 888 
f 875 860 888 
f 865 875 888 
f 860 886 888 
f 886 874 888 
f 860 875 889 
f 875 870 889 
f 880 860 889 
f 870 880 889 
f 868 858 890 
f 861 868 890 
f 858 873 890 
o convex_40
v -0.114903 -0.047014 -0.062265
v 0.118307 -0.051004 0.166949
v 0.118307 -0.082595 0.166949
v -0.114903 -0.035209 0.178817
v 0.019462 0.067566 -0.097867
v 0.102464 -0.133993 0.068110
v -0.079314 0.059647 0.072066
v -0.110931 -0.122125 0.123491
v 0.090594 -0.039137 -0.093884
v 0.118284 0.020138 0.064154
v -0.047698 -0.074676 -0.097867
v 0.011564 -0.007567 0.186728
v -0.103033 0.020117 -0.085972
v 0.015513 -0.106309 0.186728
v 0.051079 0.055677 0.060226
v -0.114903 0.047801 0.052286
v 0.118307 -0.130023 0.127419
v 0.047107 -0.078646 -0.097867
v -0.114903 -0.118155 0.072066
v -0.047698 0.063617 -0.097867
v 0.043157 -0.137941 0.068110
v 0.118284 -0.098411 0.024679
v 0.090594 0.004321 -0.085972
v -0.114903 0.020117 0.135331
v 0.114335 0.000373 0.123491
v 0.047152 -0.137921 0.131375
v -0.114903 -0.098411 0.162993
v -0.063495 0.067545 0.048359
v -0.095134 -0.047014 -0.097867
v 0.118284 -0.035188 -0.002983
v -0.027952 -0.106309 0.186728
v -0.027952 0.035933 0.123491
v 0.043157 0.055677 -0.097867
v 0.082695 0.047801 0.048359
v 0.055051 0.031984 0.111624
v 0.011564 -0.118176 0.008856
v -0.027952 -0.007567 0.186728
v 0.055051 -0.066779 0.186728
v -0.004211 0.071535 -0.074104
v -0.114903 -0.003618 -0.078088
v -0.087213 -0.066779 0.186728
v 0.094589 -0.126053 0.151126
v -0.083264 -0.122125 0.060226
v -0.023980 0.067545 0.048359
v 0.051102 -0.141911 0.095800
v 0.078746 -0.074655 -0.074104
v -0.075365 -0.066800 -0.097867
v 0.051079 0.059647 0.036519
v -0.075365 0.043852 -0.097867
v 0.066898 -0.130023 0.040475
v -0.023980 0.059647 0.076021
v -0.071393 0.035933 0.123491
v -0.091162 -0.118176 0.147170
v -0.091162 -0.126074 0.087889
v 0.114312 -0.126074 0.060226
v 0.110363 0.028035 0.048359
v 0.102487 -0.137921 0.127419
v 0.062926 0.035933 -0.097867
v 0.094589 0.031984 0.083961
v 0.118307 -0.035188 0.159038
v 0.082718 -0.090493 0.178817
v -0.114903 -0.086544 0.000945
v -0.083264 0.063617 0.044431
v -0.020030 0.071535 -0.089928
f 910 953 954 
f 891 894 906 
f 892 893 907 
f 901 895 908 
f 894 891 909 
f 895 901 910 
f 906 894 914 
f 897 906 914 
f 894 909 917 
f 909 898 917 
f 910 901 919 
f 912 899 920 
f 907 912 920 
f 899 913 920 
f 913 900 920 
f 904 902 921 
f 916 904 921 
f 908 895 923 
f 923 895 924 
f 902 915 925 
f 922 902 925 
f 901 908 926 
f 914 894 927 
f 921 902 927 
f 902 922 927 
f 892 902 928 
f 902 904 928 
f 891 906 930 
f 906 903 930 
f 919 891 930 
f 903 919 930 
f 894 917 931 
f 917 921 931 
f 927 894 931 
f 921 927 931 
f 907 893 932 
f 904 916 932 
f 909 901 933 
f 901 926 933 
f 926 911 933 
f 929 918 934 
f 911 896 935 
f 916 898 935 
f 908 899 936 
f 899 912 936 
f 901 909 937 
f 919 901 937 
f 924 895 938 
f 905 924 938 
f 895 929 938 
f 934 905 938 
f 929 934 938 
f 903 906 939 
f 906 910 939 
f 919 903 939 
f 910 919 939 
f 908 896 940 
f 896 911 940 
f 926 908 940 
f 911 926 940 
f 918 897 941 
f 925 905 941 
f 922 925 941 
f 934 918 941 
f 905 934 941 
f 897 914 942 
f 914 927 942 
f 927 922 942 
f 941 897 942 
f 922 941 942 
f 898 916 943 
f 917 898 943 
f 916 921 943 
f 921 917 943 
f 898 909 944 
f 909 933 944 
f 933 911 944 
f 911 935 944 
f 935 898 944 
f 907 896 945 
f 896 908 945 
f 912 907 945 
f 908 936 945 
f 936 912 945 
f 900 913 946 
f 924 900 946 
f 923 924 946 
f 896 907 947 
f 907 932 947 
f 932 916 947 
f 935 896 947 
f 916 935 947 
f 899 908 948 
f 913 899 948 
f 908 923 948 
f 946 913 948 
f 923 946 948 
f 915 900 949 
f 924 905 949 
f 900 924 949 
f 925 915 949 
f 905 925 949 
f 902 892 950 
f 892 907 950 
f 900 915 950 
f 915 902 950 
f 920 900 950 
f 907 920 950 
f 893 892 951 
f 892 928 951 
f 928 904 951 
f 932 893 951 
f 904 932 951 
f 909 891 952 
f 891 919 952 
f 937 909 952 
f 919 937 952 
f 906 897 953 
f 910 906 953 
f 897 918 953 
f 953 918 954 
f 895 910 954 
f 929 895 954 
f 918 929 954 
o convex_41
v 0.145984 -0.039141 0.087895
v 0.197361 -0.133996 -0.026712
v 0.189448 -0.130041 -0.030662
v 0.201314 -0.039141 -0.022763
v 0.201314 -0.098416 0.076046
v 0.134118 -0.126086 0.044415
v 0.153883 -0.078676 -0.006947
v 0.161796 -0.122140 0.095811
v 0.181549 -0.058918 0.095811
v 0.134118 -0.094470 0.111627
v 0.201314 -0.110273 -0.062293
v 0.134118 -0.051007 0.064180
v 0.201314 -0.133996 0.028617
v 0.201314 -0.043105 0.040465
v 0.185502 -0.058918 -0.038561
v 0.138071 -0.110273 0.016768
v 0.165743 -0.066819 0.111627
v 0.142024 -0.130041 0.072079
v 0.134118 -0.051007 0.103710
v 0.185502 -0.110273 -0.050427
v 0.177589 -0.043105 -0.006947
v 0.197361 -0.082632 -0.062293
v 0.169689 -0.098416 0.107660
v 0.161796 -0.039141 0.087895
v 0.201314 -0.122140 0.060231
v 0.134118 -0.082632 0.028617
v 0.134118 -0.122140 0.091862
v 0.157843 -0.133996 0.028617
v 0.201314 -0.066819 0.072079
v 0.173636 -0.086569 -0.038561
v 0.177589 -0.133996 0.056281
v 0.161796 -0.054962 0.000952
f 961 980 986 
f 956 957 965 
f 958 959 965 
f 960 964 966 
f 956 965 967 
f 965 959 967 
f 959 958 968 
f 957 960 970 
f 959 963 971 
f 955 966 973 
f 966 964 973 
f 964 971 973 
f 965 957 974 
f 957 970 974 
f 955 958 975 
f 966 955 975 
f 958 969 975 
f 958 965 976 
f 969 958 976 
f 965 974 976 
f 964 962 977 
f 959 971 977 
f 971 964 977 
f 958 955 978 
f 968 958 978 
f 963 968 978 
f 971 963 978 
f 955 973 978 
f 973 971 978 
f 967 959 979 
f 959 977 979 
f 977 962 979 
f 960 966 980 
f 970 960 980 
f 961 970 980 
f 962 964 981 
f 964 960 981 
f 960 972 981 
f 972 962 981 
f 957 956 982 
f 960 957 982 
f 956 967 982 
f 972 960 982 
f 963 959 983 
f 959 968 983 
f 968 963 983 
f 961 969 984 
f 970 961 984 
f 974 970 984 
f 969 976 984 
f 976 974 984 
f 962 972 985 
f 967 979 985 
f 979 962 985 
f 982 967 985 
f 972 982 985 
f 969 961 986 
f 966 975 986 
f 975 969 986 
f 980 966 986 
o convex_42
v 0.201314 -0.118182 -0.078145
v 0.327801 -0.062883 -0.204530
v 0.327801 -0.078687 -0.204530
v 0.205276 -0.070780 0.068147
v 0.296142 -0.031235 -0.232260
v 0.276382 -0.126099 -0.074176
v 0.201314 -0.047059 -0.038595
v 0.296142 -0.098424 -0.232260
v 0.201314 -0.126079 0.048357
v 0.221087 -0.086554 -0.141308
v 0.304054 -0.070770 -0.109727
v 0.240847 -0.134006 -0.097876
v 0.311978 -0.031235 -0.228290
v 0.288268 -0.106331 -0.066295
v 0.205276 -0.062873 0.064177
v 0.308028 -0.110285 -0.168979
v 0.327801 -0.086554 -0.232260
v 0.284293 -0.090497 -0.232260
v 0.228999 -0.118182 -0.133428
v 0.311978 -0.102358 -0.129487
v 0.201314 -0.134006 0.020686
v 0.209226 -0.110275 0.060237
v 0.280356 -0.126099 -0.133428
v 0.228999 -0.047059 -0.034625
v 0.304054 -0.082620 -0.097876
v 0.213188 -0.078687 -0.117608
v 0.292205 -0.062883 -0.097876
v 0.201314 -0.134006 -0.026745
v 0.201314 -0.094471 -0.093936
v 0.292205 -0.035189 -0.232260
v 0.201314 -0.062873 0.064177
v 0.213188 -0.102358 -0.125547
v 0.256671 -0.126099 -0.141308
v 0.252733 -0.134006 -0.074176
v 0.323839 -0.043096 -0.232260
v 0.213188 -0.126099 -0.093936
v 0.280356 -0.070770 -0.228290
v 0.300129 -0.106331 -0.208529
v 0.296142 -0.118182 -0.105787
v 0.205276 -0.126079 0.048357
v 0.217137 -0.082620 0.052327
v 0.292205 -0.082620 -0.074176
f 1027 1000 1028 
f 993 987 995 
f 991 993 999 
f 988 989 1003 
f 994 991 1003 
f 991 994 1004 
f 1004 994 1005 
f 989 988 1006 
f 1003 989 1006 
f 1002 1003 1006 
f 995 987 1007 
f 990 995 1008 
f 999 993 1010 
f 1001 999 1010 
f 988 997 1011 
f 1006 988 1011 
f 1000 1006 1011 
f 997 999 1013 
f 1001 997 1013 
f 999 1001 1013 
f 1007 987 1014 
f 998 1007 1014 
f 987 993 1015 
f 993 1012 1015 
f 1012 996 1015 
f 993 991 1016 
f 991 1004 1016 
f 1012 993 1016 
f 996 1012 1016 
f 995 990 1017 
f 993 995 1017 
f 990 1001 1017 
f 1010 993 1017 
f 1001 1010 1017 
f 996 1004 1018 
f 1004 1005 1018 
f 987 1015 1018 
f 1015 996 1018 
f 1005 994 1019 
f 1009 998 1019 
f 992 1007 1020 
f 1007 998 1020 
f 998 1009 1020 
f 1009 992 1020 
f 997 988 1021 
f 991 999 1021 
f 999 997 1021 
f 988 1003 1021 
f 1003 991 1021 
f 1014 987 1022 
f 998 1014 1022 
f 987 1018 1022 
f 1018 1005 1022 
f 1019 998 1022 
f 1005 1019 1022 
f 1004 996 1023 
f 1016 1004 1023 
f 996 1016 1023 
f 994 1003 1024 
f 1003 1002 1024 
f 1002 1009 1024 
f 1019 994 1024 
f 1009 1019 1024 
f 1000 992 1025 
f 1006 1000 1025 
f 1002 1006 1025 
f 992 1009 1025 
f 1009 1002 1025 
f 992 1000 1026 
f 995 1007 1026 
f 1007 992 1026 
f 1008 995 1026 
f 1000 1008 1026 
f 990 1008 1027 
f 1008 1000 1027 
f 1001 990 1028 
f 997 1001 1028 
f 1011 997 1028 
f 1000 1011 1028 
f 990 1027 1028 
o convex_43
v -0.039805 0.174301 -0.003006
v -0.114903 0.154546 -0.046482
v -0.114903 0.162444 -0.046482
v -0.114903 0.126874 0.028620
v -0.004227 0.178254 -0.038564
v -0.004227 0.154546 0.020702
v -0.095121 0.146647 0.028620
v -0.063498 0.182206 -0.042520
v -0.004227 0.158492 0.028620
v -0.004227 0.186164 -0.046482
v -0.106995 0.154546 -0.046482
v -0.114903 0.146647 0.008852
v -0.110949 0.126874 0.024657
v -0.004227 0.186164 -0.034617
v -0.051668 0.158492 0.028620
v -0.087234 0.158492 0.008852
f 1035 1043 1044 
f 1031 1030 1032 
f 1034 1033 1037 
f 1032 1034 1037 
f 1035 1032 1037 
f 1030 1031 1038 
f 1031 1036 1038 
f 1037 1033 1038 
f 1033 1034 1039 
f 1030 1038 1039 
f 1038 1033 1039 
f 1031 1032 1040 
f 1032 1035 1040 
f 1032 1030 1041 
f 1034 1032 1041 
f 1030 1039 1041 
f 1039 1034 1041 
f 1036 1029 1042 
f 1029 1037 1042 
f 1038 1036 1042 
f 1037 1038 1042 
f 1037 1029 1043 
f 1035 1037 1043 
f 1029 1036 1044 
f 1036 1031 1044 
f 1031 1040 1044 
f 1040 1035 1044 
f 1043 1029 1044 
o convex_44
v 0.252696 0.012245 -0.082056
v 0.256651 -0.007519 -0.232260
v 0.260605 -0.007519 -0.232260
v 0.240841 0.012245 -0.232260
v 0.256651 0.012245 -0.204574
v 0.256651 -0.003563 -0.082056
v 0.260605 0.008289 -0.093921
v 0.248750 0.004338 -0.082056
f 1050 1045 1052 
f 1047 1046 1048 
f 1048 1045 1049 
f 1047 1048 1049 
f 1046 1047 1050 
f 1045 1050 1051 
f 1049 1045 1051 
f 1047 1049 1051 
f 1050 1047 1051 
f 1048 1046 1052 
f 1045 1048 1052 
f 1046 1050 1052 
o convex_45
v 0.209229 -0.019377 0.107664
v 0.260599 -0.015424 -0.002998
v 0.260599 -0.019377 -0.002998
v 0.244787 0.012245 -0.082056
v 0.209229 0.012245 0.068135
v 0.201320 -0.019377 0.099759
v 0.256642 -0.007519 -0.078094
v 0.252690 0.012245 -0.058339
v 0.201320 0.012245 0.056286
v 0.240835 -0.015424 0.052324
v 0.232932 0.012245 0.016738
v 0.256642 -0.019377 -0.030659
v 0.260599 0.004336 -0.082056
v 0.244787 0.008286 -0.082056
f 1056 1065 1066 
f 1055 1053 1058 
f 1053 1057 1058 
f 1056 1057 1060 
f 1057 1056 1061 
f 1058 1057 1061 
f 1053 1055 1062 
f 1055 1054 1062 
f 1057 1053 1062 
f 1057 1062 1063 
f 1060 1057 1063 
f 1054 1060 1063 
f 1062 1054 1063 
f 1055 1058 1064 
f 1059 1055 1064 
f 1058 1059 1064 
f 1054 1055 1065 
f 1055 1059 1065 
f 1056 1060 1065 
f 1060 1054 1065 
f 1059 1058 1066 
f 1061 1056 1066 
f 1058 1061 1066 
f 1065 1059 1066 
o convex_46
v 0.221077 0.059687 -0.097875
v 0.118307 0.138719 -0.074174
v 0.118307 0.138719 -0.058340
v 0.240835 0.012245 -0.058340
v 0.248730 0.012245 -0.161111
v 0.138078 0.142675 -0.161111
v 0.157836 0.118968 -0.058340
v 0.118307 0.146631 -0.161111
v 0.256652 0.016201 -0.161111
v 0.248730 0.016201 -0.058340
v 0.205274 0.079452 -0.161111
v 0.122261 0.154543 -0.105792
v 0.169699 0.115012 -0.097875
v 0.201319 0.075496 -0.058340
v 0.122261 0.146631 -0.058340
v 0.256652 0.016201 -0.117622
v 0.240835 0.012245 -0.074174
v 0.153909 0.130808 -0.149240
f 1078 1079 1084 
f 1069 1068 1070 
f 1069 1070 1073 
f 1068 1069 1074 
f 1072 1071 1074 
f 1071 1072 1075 
f 1073 1070 1076 
f 1075 1072 1077 
f 1074 1069 1078 
f 1072 1074 1078 
f 1067 1077 1079 
f 1078 1073 1079 
f 1073 1076 1080 
f 1076 1067 1080 
f 1067 1079 1080 
f 1079 1073 1080 
f 1069 1073 1081 
f 1078 1069 1081 
f 1073 1078 1081 
f 1070 1071 1082 
f 1071 1075 1082 
f 1076 1070 1082 
f 1067 1076 1082 
f 1077 1067 1082 
f 1075 1077 1082 
f 1070 1068 1083 
f 1071 1070 1083 
f 1068 1074 1083 
f 1074 1071 1083 
f 1077 1072 1084 
f 1072 1078 1084 
f 1079 1077 1084 
o convex_47
v -0.027945 0.174294 -0.236221
v -0.114903 0.095260 -0.303408
v -0.114903 0.103164 -0.303408
v -0.114903 0.146634 -0.220401
v -0.008180 0.134781 -0.291538
v -0.008180 0.170346 -0.224358
v -0.059567 0.130833 -0.303408
v -0.110944 0.134781 -0.224358
v -0.008180 0.138729 -0.303408
v -0.075373 0.158486 -0.244127
v -0.051669 0.174294 -0.220401
v -0.103036 0.122929 -0.287597
v -0.110944 0.095260 -0.299451
v -0.008180 0.178251 -0.220401
v -0.043761 0.154538 -0.271777
f 1091 1094 1099 
f 1087 1086 1088 
f 1086 1087 1091 
f 1088 1086 1092 
f 1089 1090 1092 
f 1090 1089 1093 
f 1086 1091 1093 
f 1094 1088 1095 
f 1085 1094 1095 
f 1087 1088 1096 
f 1091 1087 1096 
f 1088 1094 1096 
f 1094 1091 1096 
f 1092 1086 1097 
f 1089 1092 1097 
f 1086 1093 1097 
f 1093 1089 1097 
f 1088 1092 1098 
f 1092 1090 1098 
f 1090 1093 1098 
f 1093 1085 1098 
f 1095 1088 1098 
f 1085 1095 1098 
f 1085 1093 1099 
f 1093 1091 1099 
f 1094 1085 1099 
o convex_48
v 0.244789 0.012245 -0.034615
v 0.126223 0.142684 -0.050429
v 0.134127 0.126865 -0.018802
v 0.118307 0.103154 0.024661
v 0.213175 0.028064 0.032572
v 0.236872 0.012245 -0.054380
v 0.118307 0.134768 -0.054380
v 0.189451 0.087334 -0.058340
v 0.213175 0.012245 0.024661
v 0.122265 0.111045 0.032572
v 0.173644 0.079444 0.012808
v 0.221065 0.043871 -0.026713
v 0.248747 0.016203 -0.058340
v 0.213175 0.012245 0.032572
v 0.118307 0.142684 -0.058340
v 0.173644 0.099196 -0.038575
v 0.225023 0.016203 0.028612
f 1104 1113 1116 
f 1105 1103 1106 
f 1105 1100 1108 
f 1103 1105 1108 
f 1102 1101 1109 
f 1102 1109 1110 
f 1109 1104 1110 
f 1110 1104 1111 
f 1100 1105 1112 
f 1107 1111 1112 
f 1108 1100 1113 
f 1103 1108 1113 
f 1104 1109 1113 
f 1109 1103 1113 
f 1106 1103 1114 
f 1105 1106 1114 
f 1101 1107 1114 
f 1109 1101 1114 
f 1103 1109 1114 
f 1112 1105 1114 
f 1107 1112 1114 
f 1101 1102 1115 
f 1107 1101 1115 
f 1102 1110 1115 
f 1111 1107 1115 
f 1110 1111 1115 
f 1111 1104 1116 
f 1100 1112 1116 
f 1112 1111 1116 
f 1113 1100 1116 
o convex_49
v -0.063509 0.122905 0.083958
v -0.114903 0.126862 0.028631
v -0.114903 0.122913 0.032584
v -0.004227 0.146615 0.032584
v -0.004227 0.079459 0.127424
v -0.110949 0.071552 0.127424
v -0.004227 0.158487 0.032584
v -0.004227 0.091314 0.127424
v -0.095132 0.142674 0.036538
v -0.110949 0.075501 0.107668
v -0.059565 0.079459 0.139285
v -0.114903 0.087365 0.111621
v -0.031907 0.134760 0.072108
v -0.059565 0.154529 0.032584
v -0.004227 0.083416 0.119517
v -0.114903 0.118956 0.064201
v -0.051657 0.071544 0.139285
f 1124 1127 1133 
f 1119 1118 1120 
f 1120 1118 1123 
f 1121 1120 1123 
f 1121 1123 1124 
f 1118 1119 1128 
f 1119 1126 1128 
f 1126 1122 1128 
f 1122 1127 1128 
f 1127 1117 1128 
f 1124 1123 1129 
f 1117 1127 1129 
f 1127 1124 1129 
f 1123 1118 1130 
f 1118 1125 1130 
f 1125 1117 1130 
f 1129 1123 1130 
f 1117 1129 1130 
f 1119 1120 1131 
f 1120 1121 1131 
f 1126 1119 1131 
f 1121 1126 1131 
f 1125 1118 1132 
f 1117 1125 1132 
f 1118 1128 1132 
f 1128 1117 1132 
f 1121 1124 1133 
f 1126 1121 1133 
f 1122 1126 1133 
f 1127 1122 1133 
o convex_50
v -0.012135 0.198022 -0.141338
v 0.015536 0.186165 -0.046482
v 0.015536 0.182213 -0.046482
v -0.051660 0.178259 -0.046482
v 0.015536 0.190116 -0.153205
v -0.051660 0.186165 -0.153205
v -0.051660 0.190116 -0.066257
v 0.011583 0.198022 -0.109716
v -0.031894 0.190116 -0.050441
v -0.047707 0.194068 -0.093920
v 0.015536 0.182213 -0.062298
v -0.039800 0.194068 -0.153205
f 1139 1143 1145 
f 1136 1135 1137 
f 1135 1136 1138 
f 1139 1137 1140 
f 1138 1134 1141 
f 1135 1138 1141 
f 1137 1135 1142 
f 1140 1137 1142 
f 1135 1141 1142 
f 1139 1140 1143 
f 1141 1134 1143 
f 1140 1142 1143 
f 1142 1141 1143 
f 1136 1137 1144 
f 1138 1136 1144 
f 1137 1139 1144 
f 1139 1138 1144 
f 1134 1138 1145 
f 1138 1139 1145 
f 1143 1134 1145 
o convex_51
v -0.229521 -0.003568 -0.042515
v -0.150487 -0.019374 0.107670
v -0.154442 -0.019374 0.111613
v -0.245334 -0.023327 -0.050435
v -0.245334 0.000383 0.107670
v -0.245334 -0.019374 0.119532
v -0.178156 0.000383 0.064180
v -0.154442 -0.023327 0.060237
v -0.245334 0.004337 -0.018807
v -0.221610 0.004337 0.119532
v -0.201852 0.004337 0.000958
v -0.197906 -0.023327 -0.022750
v -0.174201 -0.023327 0.115573
v -0.158398 -0.007521 0.099767
v -0.245334 -0.023327 0.040455
v -0.154442 -0.011469 0.072099
v -0.193969 -0.007521 -0.006945
f 1156 1161 1162 
f 1150 1149 1151 
f 1146 1149 1154 
f 1149 1150 1154 
f 1150 1151 1155 
f 1154 1150 1155 
f 1146 1154 1156 
f 1155 1152 1156 
f 1154 1155 1156 
f 1149 1146 1157 
f 1153 1149 1157 
f 1147 1148 1158 
f 1153 1147 1158 
f 1149 1153 1158 
f 1148 1155 1158 
f 1155 1151 1158 
f 1148 1147 1159 
f 1152 1155 1159 
f 1155 1148 1159 
f 1151 1149 1160 
f 1149 1158 1160 
f 1158 1151 1160 
f 1147 1153 1161 
f 1156 1152 1161 
f 1159 1147 1161 
f 1152 1159 1161 
f 1146 1156 1162 
f 1157 1146 1162 
f 1153 1157 1162 
f 1161 1153 1162 
o convex_52
v 0.201320 -0.039143 -0.022763
v 0.260599 -0.050993 0.068147
v 0.260599 -0.058900 0.068147
v 0.260599 -0.023334 -0.018810
v 0.225035 -0.019381 0.068147
v 0.244787 -0.062848 -0.034624
v 0.201320 -0.062848 0.060240
v 0.201320 -0.062848 -0.034624
v 0.260599 -0.019381 -0.018810
v 0.248739 -0.019381 0.040462
v 0.201320 -0.043091 -0.034624
v 0.201320 -0.039143 0.020695
f 1169 1167 1174 
f 1164 1165 1166 
f 1165 1164 1167 
f 1166 1165 1168 
f 1165 1167 1169 
f 1168 1165 1169 
f 1168 1169 1170 
f 1169 1163 1170 
f 1164 1166 1171 
f 1163 1167 1171 
f 1166 1168 1171 
f 1167 1164 1172 
f 1164 1171 1172 
f 1171 1167 1172 
f 1168 1170 1173 
f 1170 1163 1173 
f 1163 1171 1173 
f 1171 1168 1173 
f 1167 1163 1174 
f 1163 1169 1174 
o convex_53
v -0.000274 0.178251 -0.228313
v -0.008180 0.095260 -0.346888
v -0.008180 0.107120 -0.346888
v -0.008180 0.174294 -0.220401
v -0.000274 0.095260 -0.271808
v -0.000274 0.146634 -0.327115
v -0.008180 0.095260 -0.283645
v -0.000274 0.095260 -0.346888
v -0.004227 0.146634 -0.327115
f 1175 1180 1183 
f 1177 1176 1178 
f 1175 1178 1179 
f 1175 1179 1180 
f 1178 1176 1181 
f 1179 1178 1181 
f 1176 1179 1181 
f 1176 1177 1182 
f 1179 1176 1182 
f 1180 1179 1182 
f 1177 1180 1182 
f 1177 1178 1183 
f 1178 1175 1183 
f 1180 1177 1183 
o convex_54
v 0.074813 0.087311 -0.232263
v -0.000274 -0.066805 -0.224355
v 0.011599 -0.066805 -0.263881
v 0.090619 -0.074712 -0.232263
v 0.007634 0.115015 -0.263881
v 0.110402 0.047796 -0.263881
v 0.074813 -0.090526 -0.263881
v 0.031349 0.031982 -0.220401
v 0.086665 -0.003549 -0.220401
v 0.098528 0.115015 -0.259927
v 0.078778 -0.078655 -0.220401
v 0.027395 0.115015 -0.244116
v -0.000274 -0.035177 -0.220401
v -0.000274 -0.054934 -0.263881
v 0.098528 -0.058878 -0.263881
v -0.000274 0.087311 -0.255974
v 0.098528 0.035946 -0.236213
v 0.098528 -0.047027 -0.236213
v 0.058996 -0.090526 -0.252015
v 0.011599 0.067573 -0.236213
v 0.058996 0.107108 -0.236213
v 0.062950 0.043853 -0.220401
v 0.098528 0.115015 -0.263881
v 0.086665 0.115015 -0.248070
v 0.039268 0.091294 -0.232263
v -0.000274 -0.066805 -0.220401
f 1202 1194 1209 
f 1186 1188 1189 
f 1186 1189 1190 
f 1190 1187 1194 
f 1192 1191 1194 
f 1193 1188 1195 
f 1194 1191 1196 
f 1186 1185 1197 
f 1188 1186 1197 
f 1185 1196 1197 
f 1187 1190 1198 
f 1190 1189 1198 
f 1195 1188 1199 
f 1188 1197 1199 
f 1197 1196 1199 
f 1184 1192 1200 
f 1189 1193 1200 
f 1194 1187 1201 
f 1192 1194 1201 
f 1187 1198 1201 
f 1198 1189 1201 
f 1189 1200 1201 
f 1200 1192 1201 
f 1185 1186 1202 
f 1186 1190 1202 
f 1190 1194 1202 
f 1196 1191 1203 
f 1195 1199 1203 
f 1199 1196 1203 
f 1192 1184 1205 
f 1191 1192 1205 
f 1184 1204 1205 
f 1189 1188 1206 
f 1188 1193 1206 
f 1193 1189 1206 
f 1193 1195 1207 
f 1184 1200 1207 
f 1200 1193 1207 
f 1204 1184 1207 
f 1195 1204 1207 
f 1203 1191 1208 
f 1195 1203 1208 
f 1204 1195 1208 
f 1191 1205 1208 
f 1205 1204 1208 
f 1196 1185 1209 
f 1194 1196 1209 
f 1185 1202 1209 
o convex_55
v 0.094570 0.115015 -0.255974
v 0.031356 0.178259 -0.220401
v 0.031356 0.178259 -0.224355
v 0.011600 0.115015 -0.259927
v 0.062963 0.162436 -0.263881
v 0.118307 0.134782 -0.220401
v -0.000274 0.162436 -0.263881
v -0.000274 0.174303 -0.220401
v 0.118307 0.126883 -0.263881
v 0.031356 0.115015 -0.244116
v 0.114349 0.146637 -0.224355
v 0.011600 0.115015 -0.263881
v 0.074826 0.166391 -0.220401
v 0.118307 0.118971 -0.263881
f 1221 1218 1223 
f 1212 1214 1216 
f 1211 1212 1217 
f 1215 1211 1217 
f 1212 1216 1217 
f 1216 1213 1217 
f 1216 1214 1218 
f 1213 1210 1219 
f 1210 1215 1219 
f 1215 1217 1219 
f 1217 1213 1219 
f 1218 1214 1220 
f 1215 1218 1220 
f 1210 1213 1221 
f 1213 1216 1221 
f 1216 1218 1221 
f 1212 1211 1222 
f 1214 1212 1222 
f 1211 1215 1222 
f 1220 1214 1222 
f 1215 1220 1222 
f 1215 1210 1223 
f 1218 1215 1223 
f 1210 1221 1223 
o convex_56
v -0.300681 -0.015424 -0.050435
v -0.245343 0.020144 0.048383
v -0.253255 0.020144 0.048383
v -0.292769 -0.039131 0.048383
v -0.245343 -0.039131 -0.050435
v -0.265110 0.020144 -0.050435
v -0.245343 -0.039131 0.040471
v -0.308586 -0.039131 -0.050435
v -0.300681 -0.027275 0.028612
v -0.245343 -0.003574 -0.046478
v -0.273009 0.020144 -0.038576
v -0.265110 0.020144 0.012807
v -0.292769 -0.023323 0.048383
f 1235 1232 1236 
f 1225 1226 1227 
f 1226 1225 1229 
f 1228 1224 1229 
f 1225 1227 1230 
f 1227 1228 1230 
f 1228 1225 1230 
f 1224 1228 1231 
f 1228 1227 1231 
f 1224 1231 1232 
f 1231 1227 1232 
f 1225 1228 1233 
f 1229 1225 1233 
f 1228 1229 1233 
f 1229 1224 1234 
f 1226 1229 1234 
f 1224 1232 1234 
f 1234 1232 1235 
f 1226 1234 1235 
f 1226 1235 1236 
f 1227 1226 1236 
f 1232 1227 1236 
o convex_57
v -0.027952 0.194064 -0.165071
v -0.114903 0.138737 -0.220401
v -0.114903 0.146644 -0.220401
v 0.015536 0.178256 -0.220401
v -0.110945 0.154546 -0.157158
v 0.015536 0.186157 -0.161111
v -0.079318 0.174302 -0.196683
v -0.110945 0.166401 -0.153205
v -0.039814 0.178256 -0.220401
v 0.015536 0.194064 -0.153205
v -0.110945 0.138737 -0.212495
v 0.015536 0.174302 -0.212495
v -0.055608 0.190111 -0.153205
v -0.000283 0.190111 -0.192730
f 1246 1240 1250 
f 1238 1239 1240 
f 1239 1238 1244 
f 1238 1241 1244 
f 1243 1239 1244 
f 1240 1239 1245 
f 1239 1243 1245 
f 1243 1237 1245 
f 1241 1242 1246 
f 1242 1240 1246 
f 1244 1241 1246 
f 1241 1238 1247 
f 1242 1241 1247 
f 1242 1247 1248 
f 1238 1240 1248 
f 1240 1242 1248 
f 1247 1238 1248 
f 1237 1243 1249 
f 1243 1244 1249 
f 1246 1237 1249 
f 1244 1246 1249 
f 1240 1245 1250 
f 1245 1237 1250 
f 1237 1246 1250 
o convex_58
v 0.094586 0.170350 -0.165069
v 0.015536 0.174296 -0.220401
v 0.015536 0.174296 -0.208541
v 0.114354 0.134779 -0.216446
v 0.114354 0.146642 -0.153208
v 0.015536 0.194070 -0.149253
v 0.055071 0.174296 -0.220401
v 0.118307 0.146642 -0.216446
v 0.047164 0.190112 -0.149253
v 0.118307 0.154552 -0.149253
v 0.015536 0.186159 -0.157164
v 0.019490 0.190112 -0.188769
v 0.066922 0.178249 -0.192725
v 0.118307 0.134779 -0.220401
f 1258 1260 1264 
f 1253 1252 1254 
f 1253 1254 1255 
f 1252 1253 1256 
f 1256 1255 1260 
f 1258 1251 1260 
f 1251 1259 1260 
f 1259 1256 1260 
f 1253 1255 1261 
f 1256 1253 1261 
f 1255 1256 1261 
f 1252 1256 1262 
f 1257 1252 1262 
f 1256 1259 1262 
f 1262 1259 1263 
f 1258 1257 1263 
f 1251 1258 1263 
f 1259 1251 1263 
f 1257 1262 1263 
f 1254 1252 1264 
f 1255 1254 1264 
f 1252 1257 1264 
f 1257 1258 1264 
f 1260 1255 1264 
o convex_59
v 0.078772 0.178256 -0.089970
v 0.015536 0.190111 -0.149253
v 0.019490 0.178256 -0.050435
v 0.114354 0.138737 -0.062296
v 0.118307 0.154546 -0.149253
v 0.118307 0.146644 -0.046482
v 0.035304 0.186157 -0.050435
v 0.051118 0.190111 -0.145299
v 0.110400 0.150598 -0.149253
v 0.019490 0.194064 -0.078110
v 0.098540 0.170349 -0.121568
v 0.110400 0.138737 -0.050435
v 0.015536 0.186157 -0.046482
v 0.066922 0.174302 -0.046482
v 0.047164 0.190111 -0.089970
v 0.114354 0.158499 -0.089970
v 0.031350 0.194064 -0.149253
f 1274 1279 1281 
f 1268 1269 1270 
f 1269 1268 1273 
f 1266 1269 1273 
f 1272 1265 1275 
f 1269 1272 1275 
f 1267 1266 1276 
f 1268 1270 1276 
f 1266 1273 1276 
f 1273 1268 1276 
f 1266 1267 1277 
f 1274 1266 1277 
f 1271 1274 1277 
f 1267 1276 1277 
f 1276 1270 1277 
f 1270 1265 1278 
f 1277 1270 1278 
f 1271 1277 1278 
f 1265 1272 1279 
f 1274 1271 1279 
f 1278 1265 1279 
f 1271 1278 1279 
f 1265 1270 1280 
f 1270 1269 1280 
f 1275 1265 1280 
f 1269 1275 1280 
f 1269 1266 1281 
f 1272 1269 1281 
f 1266 1274 1281 
f 1279 1272 1281 
