o convex_0
v 0.470911 0.091493 -0.248243
v 0.076577 -0.204322 -0.190263
v 0.082375 -0.204322 -0.196070
v 0.076577 0.190051 -0.433765
v 0.111365 0.219055 -0.172843
v 0.163546 0.010300 -0.480190
v 0.401337 0.248059 -0.358394
v 0.453518 -0.030297 -0.172812
v 0.401337 0.253879 -0.172812
v 0.441922 0.016119 -0.323613
v 0.163546 0.259652 -0.283054
v 0.134556 -0.198502 -0.225045
v 0.076577 0.126223 -0.480190
v 0.076577 0.195870 -0.172843
v 0.146152 -0.204322 -0.172843
v 0.076577 0.027711 -0.451186
v 0.395539 0.224828 -0.375785
v 0.262188 0.271290 -0.196040
v 0.453518 0.166866 -0.172812
v 0.459316 -0.007066 -0.277217
v 0.076577 0.224828 -0.364171
v 0.186776 -0.018658 -0.445379
v 0.180939 0.079854 -0.480190
v 0.105567 -0.181091 -0.259857
v 0.296897 0.271290 -0.300445
v 0.453518 0.149454 -0.317806
v 0.441922 0.039304 -0.335197
v 0.476709 -0.001293 -0.172812
v 0.076577 -0.204322 -0.172843
v 0.378106 0.271290 -0.277247
v 0.441922 -0.001293 -0.306222
v 0.117163 0.004527 -0.468576
v 0.302695 0.253832 -0.352588
v 0.470911 0.021939 -0.288831
v 0.180939 0.027711 -0.480190
v 0.192574 0.253832 -0.172812
v 0.099769 0.236467 -0.265664
v 0.412933 0.248059 -0.271441
v 0.076577 -0.181091 -0.242466
v 0.134556 -0.181091 -0.254050
v 0.082375 0.161047 -0.462769
v 0.151950 -0.198502 -0.201847
v 0.157748 -0.007066 -0.468576
v 0.163546 0.097266 -0.480190
v 0.453518 -0.030297 -0.190233
v 0.389741 0.079854 -0.369978
v 0.476709 0.056669 -0.184426
v 0.453518 0.166866 -0.259857
v 0.140354 0.242240 -0.190263
v 0.076577 0.224828 -0.271441
v 0.476709 -0.001293 -0.230822
v 0.389741 0.230647 -0.375785
v 0.349117 0.271290 -0.225045
v 0.111365 0.039257 -0.480190
v 0.401337 0.253879 -0.346811
v 0.447720 0.155274 -0.329390
v 0.169343 0.259652 -0.242466
v 0.395539 0.201643 -0.375785
v 0.459316 -0.012885 -0.259857
v 0.285340 0.271290 -0.300445
v 0.076577 0.201643 -0.416374
v 0.470911 0.062488 -0.288831
v 0.198372 -0.007066 -0.451216
v 0.117163 -0.186863 -0.254050
f 24 43 64 
f 2 4 13 
f 4 2 14 
f 2 3 15 
f 3 12 15 
f 2 13 16 
f 9 8 19 
f 4 14 21 
f 6 13 23 
f 19 8 28 
f 14 2 29 
f 2 15 29 
f 15 8 29 
f 25 18 30 
f 10 20 31 
f 20 12 31 
f 7 4 33 
f 20 10 34 
f 10 27 34 
f 6 23 35 
f 23 17 35 
f 27 10 35 
f 8 9 36 
f 5 14 36 
f 9 18 36 
f 29 8 36 
f 14 29 36 
f 11 21 37 
f 9 19 38 
f 30 9 38 
f 3 2 39 
f 2 16 39 
f 24 3 39 
f 16 32 39 
f 32 24 39 
f 31 12 40 
f 22 31 40 
f 4 7 41 
f 13 4 41 
f 15 12 42 
f 12 20 42 
f 32 6 43 
f 24 32 43 
f 23 13 44 
f 13 41 44 
f 8 15 45 
f 28 8 45 
f 15 42 45 
f 27 35 46 
f 1 19 47 
f 19 28 47 
f 19 1 48 
f 1 26 48 
f 38 19 48 
f 5 36 49 
f 49 37 50 
f 14 5 50 
f 21 14 50 
f 37 21 50 
f 5 49 50 
f 20 34 51 
f 28 45 51 
f 47 28 51 
f 7 17 52 
f 17 23 52 
f 41 7 52 
f 23 44 52 
f 44 41 52 
f 18 9 53 
f 9 30 53 
f 30 18 53 
f 13 6 54 
f 16 13 54 
f 6 32 54 
f 32 16 54 
f 26 7 55 
f 25 30 55 
f 7 33 55 
f 33 25 55 
f 30 38 55 
f 48 26 55 
f 38 48 55 
f 17 7 56 
f 7 26 56 
f 27 17 56 
f 34 27 56 
f 18 11 57 
f 36 18 57 
f 11 37 57 
f 49 36 57 
f 37 49 57 
f 17 27 58 
f 35 17 58 
f 27 46 58 
f 46 35 58 
f 42 20 59 
f 45 42 59 
f 20 51 59 
f 51 45 59 
f 11 18 60 
f 21 11 60 
f 18 25 60 
f 33 21 60 
f 25 33 60 
f 4 21 61 
f 33 4 61 
f 21 33 61 
f 26 1 62 
f 1 47 62 
f 51 34 62 
f 47 51 62 
f 56 26 62 
f 34 56 62 
f 10 31 63 
f 31 22 63 
f 6 35 63 
f 35 10 63 
f 43 6 63 
f 22 43 63 
f 12 3 64 
f 3 24 64 
f 40 12 64 
f 22 40 64 
f 43 22 64 
o convex_1
v 0.430338 0.137852 0.024393
v 0.250543 -0.094084 -0.172812
v 0.256366 -0.094084 -0.172812
v 0.250543 0.259655 -0.172812
v 0.476748 0.050889 -0.172812
v 0.250543 0.004515 -0.004621
v 0.459322 -0.001303 -0.016222
v 0.401310 0.248053 -0.172812
v 0.250543 0.201680 -0.027824
v 0.447720 -0.036109 -0.172812
v 0.418736 0.219031 -0.051046
v 0.470947 0.108864 -0.010431
v 0.256366 -0.082517 -0.103204
v 0.453521 0.166839 -0.172812
v 0.441919 0.074093 0.024393
v 0.250543 0.137852 -0.004621
v 0.441919 -0.036109 -0.108995
v 0.273770 0.253837 -0.126407
v 0.470947 -0.012905 -0.080001
v 0.412934 0.207464 -0.022013
v 0.395531 0.132033 0.024393
v 0.470947 0.027719 -0.004621
v 0.436117 0.195827 -0.039425
v 0.476748 -0.001303 -0.172812
v 0.250543 -0.053460 -0.062647
v 0.372325 0.184225 0.001190
v 0.453521 0.016117 0.001190
v 0.395531 0.074093 0.024393
v 0.250543 0.184225 -0.016222
v 0.389729 0.242235 -0.120596
v 0.436117 -0.024507 -0.056817
v 0.441919 0.155237 0.006981
v 0.250543 0.242235 -0.103204
v 0.256366 -0.094084 -0.149610
v 0.453521 0.166839 -0.056817
v 0.424537 0.219031 -0.167002
v 0.308578 0.259655 -0.167002
v 0.459322 0.103046 0.012791
v 0.366524 0.207464 -0.022013
v 0.407111 0.224884 -0.056817
f 103 84 104 
f 67 66 68 
f 67 68 69 
f 68 66 70 
f 69 68 72 
f 68 70 73 
f 67 69 74 
f 69 72 78 
f 76 69 78 
f 73 70 80 
f 81 74 83 
f 71 81 83 
f 79 65 85 
f 80 70 85 
f 69 76 86 
f 71 83 86 
f 75 84 87 
f 74 69 88 
f 83 74 88 
f 69 86 88 
f 86 83 88 
f 70 66 89 
f 71 70 89 
f 66 77 89 
f 77 71 89 
f 65 84 90 
f 85 65 90 
f 70 71 91 
f 71 86 91 
f 86 79 91 
f 79 85 92 
f 85 70 92 
f 70 91 92 
f 91 79 92 
f 73 80 93 
f 80 85 93 
f 90 73 93 
f 85 90 93 
f 71 77 95 
f 81 71 95 
f 77 81 95 
f 84 65 96 
f 76 87 96 
f 87 84 96 
f 68 73 97 
f 82 68 97 
f 66 67 98 
f 67 74 98 
f 77 66 98 
f 74 81 98 
f 81 77 98 
f 76 78 99 
f 87 76 99 
f 87 99 100 
f 72 75 100 
f 78 72 100 
f 75 87 100 
f 99 78 100 
f 72 68 101 
f 68 82 101 
f 94 72 101 
f 82 94 101 
f 65 79 102 
f 86 76 102 
f 79 86 102 
f 96 65 102 
f 76 96 102 
f 73 90 103 
f 90 84 103 
f 97 73 103 
f 82 97 103 
f 75 72 104 
f 84 75 104 
f 72 94 104 
f 94 82 104 
f 82 103 104 
o convex_2
v -0.254034 -0.047684 0.749394
v 0.059138 -0.024520 0.523207
v 0.059138 -0.082518 0.523207
v -0.033669 -0.134695 0.865414
v -0.120658 -0.192721 0.511605
v -0.143867 0.097266 0.511605
v -0.120658 0.056671 0.865414
v -0.230856 -0.146306 0.859596
v -0.207646 -0.105682 0.511605
v -0.004705 0.085684 0.511605
v -0.236643 0.010255 0.865414
v -0.010491 -0.175319 0.511605
v -0.091693 -0.175319 0.859596
v -0.033669 -0.024520 0.830608
v -0.190223 0.050880 0.511605
v -0.149654 0.074073 0.813153
v -0.265671 -0.076697 0.865414
v -0.114871 -0.192721 0.708804
v 0.041715 -0.134695 0.511605
v -0.068484 0.103086 0.569650
v 0.024323 0.039269 0.563866
v -0.172864 -0.163679 0.511605
v -0.016278 -0.076697 0.836357
v -0.225038 -0.041951 0.552264
v -0.178650 -0.175319 0.847994
v -0.080088 0.027657 0.859596
v -0.254034 -0.012938 0.801551
v -0.219251 0.033478 0.847994
v -0.254034 -0.105682 0.807369
v -0.051060 -0.192721 0.517423
v 0.053319 0.010255 0.517423
v -0.051060 -0.157888 0.836357
v -0.178650 -0.169470 0.865414
v -0.225038 -0.152097 0.824755
v -0.033669 -0.059266 0.865414
v -0.004705 0.085684 0.523207
v -0.201828 -0.128904 0.523207
v -0.184437 0.056671 0.847994
v -0.207646 0.010255 0.517423
v -0.120658 0.103086 0.563866
v -0.225038 -0.076697 0.558048
v -0.004705 -0.111502 0.784165
v -0.039456 0.103086 0.511605
v -0.172864 0.074073 0.511605
v -0.236643 -0.140515 0.818971
v -0.167045 -0.175319 0.598637
v -0.155472 0.085684 0.662431
v -0.074270 -0.175319 0.813153
v -0.248247 -0.001327 0.801551
v 0.059138 -0.018729 0.511605
v -0.265671 -0.070906 0.836357
v 0.053319 -0.111502 0.517423
v -0.126444 0.074073 0.807369
v -0.265671 -0.047684 0.859596
v -0.172864 0.056671 0.865414
v -0.068484 0.010255 0.865414
v -0.010491 -0.175319 0.523207
v -0.085875 0.039269 0.847994
v -0.161259 0.085684 0.569650
v -0.039456 -0.146306 0.853812
v 0.024323 0.056671 0.523207
f 140 162 165 
f 110 109 113 
f 109 110 114 
f 108 111 115 
f 109 114 116 
f 110 113 119 
f 108 115 121 
f 116 114 123 
f 113 109 126 
f 107 106 127 
f 109 122 129 
f 122 117 129 
f 128 105 131 
f 109 116 134 
f 122 109 134 
f 125 118 135 
f 127 106 135 
f 118 127 135 
f 117 108 137 
f 108 121 137 
f 121 112 137 
f 112 129 137 
f 129 117 137 
f 129 112 138 
f 111 108 139 
f 108 127 139 
f 127 118 139 
f 113 126 141 
f 119 113 143 
f 113 128 143 
f 131 119 143 
f 128 131 143 
f 120 124 144 
f 105 128 145 
f 128 113 145 
f 113 141 145 
f 141 133 145 
f 107 127 146 
f 127 108 146 
f 114 110 147 
f 140 114 147 
f 124 140 147 
f 110 144 147 
f 144 124 147 
f 110 119 148 
f 112 121 149 
f 121 133 149 
f 126 138 149 
f 138 112 149 
f 141 126 149 
f 133 141 149 
f 126 109 150 
f 109 129 150 
f 138 126 150 
f 129 138 150 
f 142 120 151 
f 132 142 151 
f 144 110 151 
f 120 144 151 
f 117 122 152 
f 122 134 152 
f 136 117 152 
f 131 115 153 
f 119 131 153 
f 115 132 153 
f 148 119 153 
f 132 148 153 
f 106 107 154 
f 123 114 154 
f 135 106 154 
f 114 135 154 
f 133 121 155 
f 105 145 155 
f 145 133 155 
f 108 123 156 
f 107 146 156 
f 146 108 156 
f 154 107 156 
f 123 154 156 
f 120 111 157 
f 124 120 157 
f 140 124 157 
f 111 140 157 
f 121 115 158 
f 115 131 158 
f 131 105 158 
f 105 155 158 
f 155 121 158 
f 115 111 159 
f 111 120 159 
f 132 115 159 
f 120 142 159 
f 142 132 159 
f 118 125 160 
f 130 111 160 
f 125 130 160 
f 111 139 160 
f 139 118 160 
f 116 123 161 
f 134 116 161 
f 152 134 161 
f 136 152 161 
f 111 130 162 
f 130 125 162 
f 140 111 162 
f 110 148 163 
f 148 132 163 
f 151 110 163 
f 132 151 163 
f 108 117 164 
f 123 108 164 
f 117 136 164 
f 161 123 164 
f 136 161 164 
f 135 114 165 
f 125 135 165 
f 114 140 165 
f 162 125 165 
o convex_3
v -0.103248 0.207506 0.047611
v 0.146140 0.149495 0.204177
v 0.070695 0.236476 0.366601
v 0.076520 0.323492 0.035993
v -0.143837 0.149495 0.325955
v 0.099727 0.143687 0.036025
v -0.033659 0.271289 0.366601
v 0.018518 0.143687 0.366601
v -0.085835 0.143687 0.035993
v -0.062629 0.277062 0.053404
v 0.134521 0.253883 0.059229
v -0.167044 0.143687 0.256345
v 0.012724 0.317684 0.035993
v 0.035900 0.271289 0.366601
v -0.109042 0.143687 0.366601
v 0.093933 0.143687 0.320162
v 0.128727 0.253883 0.128839
v -0.167044 0.149495 0.186799
v -0.062629 0.277062 0.128807
v 0.001106 0.288678 0.296991
v 0.140315 0.143687 0.152042
v -0.167044 0.149495 0.256345
v -0.091629 0.230703 0.035993
v 0.111315 0.294469 0.036025
v 0.082314 0.288678 0.175213
v -0.068453 0.236476 0.366601
v 0.018518 0.317684 0.088225
v 0.070695 0.178501 0.366601
v 0.128727 0.230703 0.041818
v -0.074247 0.265481 0.140425
v -0.016246 0.300259 0.152042
v -0.149631 0.143687 0.146250
v 0.134521 0.207506 0.065021
v -0.080041 0.259673 0.070814
v 0.134521 0.242284 0.128839
v 0.088139 0.317684 0.041818
v 0.122933 0.277080 0.076639
v 0.122933 0.143687 0.262170
v -0.097454 0.184309 0.035993
v 0.018518 0.288678 0.296991
f 192 185 205 
f 168 172 173 
f 171 173 174 
f 169 171 174 
f 174 173 177 
f 169 174 178 
f 172 168 179 
f 173 172 180 
f 170 177 180 
f 177 173 180 
f 173 171 181 
f 178 175 184 
f 172 179 185 
f 181 171 186 
f 177 170 187 
f 183 177 187 
f 178 174 188 
f 175 178 188 
f 166 183 188 
f 171 169 189 
f 179 168 190 
f 168 182 190 
f 170 180 191 
f 180 172 191 
f 187 170 191 
f 169 178 192 
f 172 185 192 
f 168 173 193 
f 181 168 193 
f 173 181 193 
f 171 189 194 
f 189 176 194 
f 172 184 195 
f 184 175 195 
f 191 172 195 
f 187 191 195 
f 184 172 196 
f 178 184 196 
f 192 178 196 
f 172 192 196 
f 174 177 197 
f 183 166 197 
f 177 183 197 
f 176 167 198 
f 167 186 198 
f 186 171 198 
f 194 176 198 
f 171 194 198 
f 183 187 199 
f 175 188 199 
f 188 183 199 
f 195 175 199 
f 187 195 199 
f 168 167 200 
f 167 176 200 
f 182 168 200 
f 169 179 201 
f 189 169 201 
f 179 190 201 
f 201 190 202 
f 176 189 202 
f 190 182 202 
f 200 176 202 
f 182 200 202 
f 189 201 202 
f 167 168 203 
f 168 181 203 
f 186 167 203 
f 181 186 203 
f 166 188 204 
f 188 174 204 
f 197 166 204 
f 174 197 204 
f 179 169 205 
f 185 179 205 
f 169 192 205 
o convex_4
v -0.109053 0.172703 0.865365
v 0.070738 0.219080 0.407221
v 0.059129 0.213272 0.523222
v -0.068447 0.259687 0.772555
v -0.085852 0.172703 0.366699
v -0.004677 0.155291 0.836365
v -0.033655 0.271290 0.366699
v 0.018523 0.143687 0.366699
v 0.001118 0.230684 0.859555
v 0.035928 0.271290 0.366699
v -0.114867 0.219080 0.737745
v -0.074261 0.143687 0.859555
v 0.070738 0.178498 0.366601
v -0.045247 0.143687 0.366699
v -0.109053 0.230684 0.859555
v 0.012728 0.184294 0.859555
v -0.085852 0.219080 0.418890
v -0.039451 0.259687 0.807365
v -0.091648 0.248083 0.656554
v -0.085852 0.149495 0.668174
v 0.018523 0.230684 0.789936
v -0.114867 0.178498 0.755126
v 0.070738 0.236479 0.378221
v -0.010491 0.271290 0.587081
v -0.027860 0.143687 0.842126
v -0.004677 0.253879 0.760935
v 0.047519 0.166895 0.523271
v -0.085852 0.242275 0.865365
v 0.006914 0.172703 0.865365
v -0.068447 0.236479 0.366699
v 0.024319 0.184294 0.795745
v -0.080057 0.161111 0.378270
v -0.114867 0.172703 0.853746
v 0.024319 0.213272 0.801555
v 0.053333 0.161111 0.384080
v -0.103257 0.195898 0.552271
v 0.059129 0.190102 0.523222
v -0.085852 0.253879 0.772555
v -0.010491 0.143687 0.720364
v 0.047519 0.248083 0.482651
v -0.027860 0.242275 0.865365
v -0.033655 0.271290 0.581271
v 0.006914 0.161111 0.830555
v -0.085852 0.201706 0.366699
v -0.114867 0.213272 0.865365
v -0.045247 0.143687 0.865365
v -0.062652 0.253879 0.847936
v 0.018523 0.248083 0.679745
v -0.056856 0.143687 0.447890
f 225 237 254 
f 212 215 218 
f 213 217 219 
f 210 218 219 
f 218 213 219 
f 216 220 224 
f 222 216 224 
f 208 207 228 
f 207 218 228 
f 218 215 228 
f 215 212 229 
f 217 213 230 
f 223 214 231 
f 214 226 231 
f 215 229 231 
f 229 223 231 
f 221 214 234 
f 230 211 234 
f 233 206 234 
f 212 218 235 
f 224 212 235 
f 222 224 235 
f 221 234 236 
f 210 219 237 
f 227 210 237 
f 225 227 237 
f 217 206 238 
f 225 217 238 
f 216 227 238 
f 227 225 238 
f 214 221 239 
f 226 214 239 
f 208 228 239 
f 228 226 239 
f 221 236 239 
f 213 218 240 
f 218 232 240 
f 210 227 241 
f 227 216 241 
f 207 208 242 
f 218 207 242 
f 232 218 242 
f 236 232 242 
f 208 239 242 
f 239 236 242 
f 209 212 243 
f 212 224 243 
f 224 220 243 
f 220 233 243 
f 211 230 244 
f 230 213 244 
f 213 240 244 
f 228 215 245 
f 226 228 245 
f 214 223 246 
f 234 214 246 
f 233 234 246 
f 212 209 247 
f 209 223 247 
f 229 212 247 
f 223 229 247 
f 234 211 248 
f 232 236 248 
f 236 234 248 
f 240 232 248 
f 211 244 248 
f 244 240 248 
f 218 210 249 
f 216 222 249 
f 235 218 249 
f 222 235 249 
f 210 241 249 
f 241 216 249 
f 220 216 250 
f 233 220 250 
f 206 233 250 
f 238 206 250 
f 216 238 250 
f 206 217 251 
f 217 230 251 
f 234 206 251 
f 230 234 251 
f 223 209 252 
f 209 243 252 
f 243 233 252 
f 246 223 252 
f 233 246 252 
f 215 231 253 
f 231 226 253 
f 245 215 253 
f 226 245 253 
f 219 217 254 
f 217 225 254 
f 237 219 254 
o convex_5
v 0.192537 -0.163708 -0.126424
v -0.248221 -0.117260 -0.172812
v -0.248221 -0.117260 -0.167004
v 0.250494 0.259638 -0.161205
v -0.120637 0.120452 -0.085810
v 0.250494 0.230654 -0.085810
v -0.085873 -0.233301 -0.085810
v 0.146151 -0.204317 -0.172812
v 0.012708 0.178420 -0.172812
v 0.250494 -0.076651 -0.085810
v 0.250494 -0.094063 -0.172812
v -0.062680 -0.268072 -0.172812
v 0.012708 0.219081 -0.085810
v -0.184405 -0.123047 -0.085810
v -0.225029 -0.024469 -0.172812
v 0.140341 -0.192692 -0.103217
v 0.227301 0.259638 -0.172812
v -0.149640 -0.210052 -0.091618
v -0.178643 -0.001375 -0.085810
v -0.178643 -0.210052 -0.172812
v -0.010484 0.201670 -0.120625
v -0.016246 -0.233301 -0.085810
v -0.016246 -0.262285 -0.167004
v 0.157723 -0.163708 -0.085810
v 0.140341 -0.204317 -0.126424
v -0.161261 0.062432 -0.085810
v -0.248221 -0.076651 -0.167004
v -0.178643 0.021823 -0.172812
v -0.230839 -0.152083 -0.161205
v -0.178643 -0.157869 -0.085810
v 0.163485 0.242227 -0.172812
v 0.250494 0.259638 -0.172812
v -0.126448 0.114614 -0.097418
v 0.244732 0.242227 -0.103217
v 0.001136 0.184259 -0.161205
v 0.180916 -0.181067 -0.161205
v 0.018519 0.219081 -0.109017
v -0.080062 -0.262285 -0.167004
v 0.169295 -0.175281 -0.103217
v -0.016246 0.184259 -0.143798
v 0.250494 -0.094063 -0.137998
f 290 265 295 
f 260 259 261 
f 262 256 263 
f 258 260 264 
f 260 261 264 
f 262 263 265 
f 258 264 265 
f 256 262 266 
f 259 260 267 
f 261 259 268 
f 263 256 269 
f 265 263 271 
f 267 258 271 
f 268 259 273 
f 256 266 274 
f 259 267 275 
f 264 261 276 
f 261 266 276 
f 266 262 277 
f 276 266 277 
f 264 276 278 
f 276 270 278 
f 270 276 279 
f 276 277 279 
f 277 262 279 
f 273 259 280 
f 273 280 281 
f 256 257 281 
f 257 268 281 
f 269 256 281 
f 268 273 281 
f 280 269 281 
f 263 269 282 
f 257 256 283 
f 256 274 283 
f 274 272 283 
f 268 257 284 
f 261 268 284 
f 272 261 284 
f 257 283 284 
f 283 272 284 
f 271 263 285 
f 258 265 286 
f 271 258 286 
f 265 271 286 
f 259 275 287 
f 269 280 287 
f 280 259 287 
f 282 269 287 
f 260 258 288 
f 258 267 288 
f 267 260 288 
f 263 282 289 
f 285 263 289 
f 275 285 289 
f 262 265 290 
f 255 279 290 
f 279 262 290 
f 267 271 291 
f 275 267 291 
f 271 285 291 
f 285 275 291 
f 266 261 292 
f 261 272 292 
f 274 266 292 
f 272 274 292 
f 255 264 293 
f 264 278 293 
f 278 270 293 
f 279 255 293 
f 270 279 293 
f 287 275 294 
f 282 287 294 
f 289 282 294 
f 275 289 294 
f 264 255 295 
f 265 264 295 
f 255 290 295 
o convex_6
v 0.111310 0.294431 0.035993
v -0.178668 -0.157874 -0.085810
v -0.167031 -0.181059 -0.085810
v 0.250543 0.224876 -0.085810
v 0.180884 -0.105666 0.035993
v -0.143839 -0.140471 0.035993
v -0.016244 0.288649 -0.068403
v 0.250543 -0.070860 -0.085810
v -0.091616 0.224821 0.035993
v -0.022042 -0.233322 -0.080004
v -0.161233 0.068196 -0.085810
v 0.233107 0.045121 0.030186
v -0.161233 0.074034 0.018586
v 0.053331 0.306052 -0.085810
v 0.076522 0.329292 0.030186
v 0.250543 0.184233 -0.016217
v 0.018544 -0.163657 0.035993
v 0.157693 -0.152091 -0.085810
v -0.126445 -0.163657 0.035993
v -0.010446 0.311834 0.012791
v 0.076522 0.329292 -0.045201
v 0.250543 -0.012870 -0.010411
v -0.178668 0.045066 -0.039395
v -0.080020 -0.233322 -0.085810
v 0.070724 -0.192679 -0.051008
v 0.204118 -0.099828 0.018586
v -0.149637 0.091436 0.035993
v -0.033637 0.288649 -0.033588
v 0.227309 0.045121 0.035993
v -0.161233 0.097219 -0.022011
v -0.045233 0.282811 0.035993
v 0.041735 0.329292 -0.039395
v -0.132243 -0.215865 -0.080004
v -0.161233 -0.128851 -0.004616
v 0.012746 0.294431 -0.085810
v 0.250543 0.201635 -0.027794
v -0.178668 -0.001250 -0.085810
v 0.093916 0.323454 0.018586
v 0.204118 -0.082481 0.035993
v -0.155435 -0.175277 -0.027794
v 0.117150 -0.134634 0.035993
v 0.012746 0.317672 0.035993
v -0.062669 0.259626 -0.004616
v 0.186724 -0.111448 0.024392
v -0.132243 0.114622 -0.085810
v 0.250543 0.010316 0.001190
v -0.178668 -0.146254 -0.068403
v 0.082320 -0.192679 -0.085810
v 0.215713 -0.088263 0.012791
v 0.093916 0.317672 0.035993
v 0.250543 0.224876 -0.074209
v -0.172828 0.068196 -0.051008
v 0.093916 0.323454 -0.033588
v 0.076522 -0.181059 -0.027794
v -0.080020 -0.233322 -0.080004
v 0.018544 0.311834 -0.068403
f 309 330 351 
f 298 297 299 
f 300 296 301 
f 298 299 303 
f 301 296 304 
f 299 297 306 
f 299 306 309 
f 303 299 311 
f 300 301 312 
f 298 303 313 
f 312 301 314 
f 305 312 314 
f 299 309 316 
f 303 311 317 
f 298 313 319 
f 313 303 321 
f 301 304 322 
f 308 301 322 
f 296 300 324 
f 311 296 324 
f 307 311 324 
f 318 308 325 
f 322 304 325 
f 308 322 325 
f 304 296 326 
f 315 323 326 
f 310 316 327 
f 316 309 327 
f 298 319 328 
f 301 308 329 
f 308 318 329 
f 309 306 330 
f 296 311 331 
f 311 299 331 
f 306 297 332 
f 297 318 332 
f 316 310 333 
f 324 300 334 
f 307 324 334 
f 297 298 335 
f 314 301 335 
f 298 328 335 
f 328 314 335 
f 300 312 336 
f 326 296 337 
f 315 326 337 
f 310 327 337 
f 327 315 337 
f 325 304 338 
f 304 326 338 
f 326 323 338 
f 320 313 339 
f 313 321 339 
f 334 300 339 
f 321 334 339 
f 300 336 339 
f 323 302 340 
f 302 330 340 
f 330 306 340 
f 338 323 340 
f 311 307 341 
f 317 311 341 
f 307 334 341 
f 334 317 341 
f 318 297 342 
f 301 329 342 
f 329 318 342 
f 297 335 342 
f 335 301 342 
f 319 313 343 
f 305 319 343 
f 320 305 343 
f 313 320 343 
f 303 317 344 
f 321 303 344 
f 317 334 344 
f 334 321 344 
f 296 331 345 
f 333 310 345 
f 337 296 345 
f 310 337 345 
f 331 299 346 
f 299 333 346 
f 345 331 346 
f 333 345 346 
f 318 325 347 
f 306 332 347 
f 332 318 347 
f 325 338 347 
f 340 306 347 
f 338 340 347 
f 299 316 348 
f 316 333 348 
f 333 299 348 
f 312 305 349 
f 305 320 349 
f 336 312 349 
f 320 339 349 
f 339 336 349 
f 305 314 350 
f 319 305 350 
f 314 328 350 
f 328 319 350 
f 302 323 351 
f 323 315 351 
f 327 309 351 
f 315 327 351 
f 330 302 351 
o convex_7
v -0.097439 -0.134713 0.117195
v 0.105480 0.143687 0.047606
v 0.105480 0.143687 0.035993
v 0.198330 -0.082475 0.035993
v -0.143845 -0.134713 0.035993
v -0.138054 0.132072 0.117195
v 0.157715 0.050857 0.117195
v -0.138054 0.108872 0.035993
v 0.018537 -0.146298 0.117195
v -0.178668 0.033464 0.117195
v 0.018537 -0.163721 0.035993
v 0.215742 0.056664 0.035993
v 0.111310 0.126265 0.105582
v 0.146095 -0.059306 0.117195
v -0.091609 0.143687 0.035993
v 0.035910 0.143687 0.117195
v -0.120642 -0.163721 0.041795
v -0.155427 -0.065113 0.117195
v 0.175127 -0.105706 0.041803
v 0.204121 -0.024490 0.059203
v -0.149636 0.085672 0.035993
v 0.128721 -0.094091 0.111393
v -0.167009 0.103065 0.111393
v 0.157715 0.114680 0.041803
v -0.056824 0.143687 0.117195
v -0.080027 -0.146298 0.117195
v -0.126433 -0.140491 0.082388
v 0.140304 0.085672 0.117195
v 0.215742 0.056664 0.041803
v -0.178668 0.062472 0.111393
v -0.172839 -0.018683 0.117195
v 0.198330 -0.076698 0.047598
v 0.122930 0.126265 0.093985
v 0.215742 0.016042 0.047598
v 0.117101 -0.128906 0.047606
v 0.012746 -0.163721 0.047606
v 0.157715 -0.001321 0.117195
f 371 385 388 
f 354 355 356 
f 357 352 358 
f 354 356 359 
f 358 352 360 
f 352 357 361 
f 356 355 362 
f 355 354 363 
f 358 360 365 
f 353 354 366 
f 354 359 366 
f 359 357 366 
f 357 358 367 
f 353 366 367 
f 356 362 368 
f 352 361 369 
f 362 355 370 
f 359 356 372 
f 365 360 373 
f 360 370 373 
f 357 359 374 
f 361 357 374 
f 359 372 374 
f 354 353 375 
f 363 354 375 
f 366 357 376 
f 357 367 376 
f 367 366 376 
f 360 352 377 
f 368 377 378 
f 356 368 378 
f 352 369 378 
f 369 356 378 
f 377 352 378 
f 367 358 379 
f 364 367 379 
f 363 375 380 
f 379 358 380 
f 356 361 381 
f 372 356 381 
f 361 374 381 
f 374 372 381 
f 361 356 382 
f 369 361 382 
f 356 369 382 
f 370 355 383 
f 371 365 383 
f 365 373 383 
f 373 370 383 
f 367 364 384 
f 353 367 384 
f 375 353 384 
f 364 379 384 
f 380 375 384 
f 379 380 384 
f 355 363 385 
f 363 380 385 
f 380 358 385 
f 383 355 385 
f 371 383 385 
f 362 370 386 
f 370 360 386 
f 368 362 387 
f 360 377 387 
f 377 368 387 
f 386 360 387 
f 362 386 387 
f 358 365 388 
f 365 371 388 
f 385 358 388 
o convex_8
v -0.207669 -0.105686 0.494193
v 0.180941 0.068257 0.198424
v 0.180941 -0.018715 0.198424
v -0.178645 0.074065 0.117195
v -0.033639 -0.239123 0.204215
v 0.041717 0.045062 0.511605
v -0.004691 -0.175271 0.511605
v -0.120635 0.120455 0.476781
v 0.146135 0.143687 0.140436
v 0.122931 -0.134689 0.117195
v -0.172863 -0.099878 0.140398
v -0.172863 0.143687 0.192633
v 0.134533 -0.163655 0.273863
v -0.207669 0.004443 0.511605
v 0.099727 0.143687 0.325982
v 0.070703 -0.082491 0.499984
v -0.155441 -0.175271 0.511605
v -0.172863 -0.163692 0.215836
v -0.207669 -0.047718 0.186804
v 0.035935 0.143687 0.117195
v -0.085829 -0.140460 0.117195
v 0.070703 -0.221661 0.256412
v 0.134533 -0.047718 0.378179
v -0.033639 0.103068 0.511605
v -0.056843 -0.239123 0.268071
v -0.207669 0.056641 0.204215
v 0.134533 0.114647 0.314400
v -0.161261 0.143687 0.308609
v 0.151917 0.056641 0.117195
v 0.163519 -0.117303 0.152019
v -0.045241 -0.192658 0.511605
v -0.149659 0.132033 0.117195
v -0.172863 0.074065 0.511605
v -0.109071 -0.221698 0.250621
v 0.041717 -0.134689 0.511605
v -0.097431 0.143687 0.383970
v 0.070703 -0.018752 0.499984
v -0.190247 0.114647 0.233209
v 0.099727 -0.204312 0.273863
v 0.175121 0.074065 0.140436
v -0.120635 -0.192695 0.511605
v -0.068445 0.120455 0.494193
v 0.006911 -0.239123 0.268071
v 0.163519 0.126225 0.210006
v 0.163519 -0.099878 0.239000
v -0.172863 -0.163692 0.511605
v -0.190247 -0.140460 0.244830
v 0.128713 -0.111494 0.354937
v -0.178645 -0.007173 0.117195
v -0.004691 -0.239123 0.204215
v 0.082305 -0.215890 0.239000
v 0.175121 -0.030331 0.140436
v 0.105509 0.120455 0.360729
v 0.157737 0.126225 0.128816
v -0.190247 0.050833 0.511605
v 0.047537 -0.221661 0.302818
v -0.062625 -0.233277 0.210006
v -0.178645 0.120455 0.146227
v -0.143839 0.143687 0.128816
v 0.163519 0.033446 0.273824
v -0.207669 -0.070875 0.210006
v -0.143839 0.097260 0.511605
v -0.161261 -0.163692 0.198424
v 0.163519 -0.059296 0.273824
f 448 411 452 
f 395 394 402 
f 397 400 403 
f 395 402 405 
f 389 402 407 
f 398 392 408 
f 400 397 408 
f 392 398 409 
f 402 394 412 
f 392 407 414 
f 407 402 414 
f 403 400 416 
f 398 408 417 
f 395 405 419 
f 408 392 420 
f 402 412 421 
f 394 395 423 
f 404 394 423 
f 416 396 424 
f 403 416 424 
f 394 404 425 
f 404 411 425 
f 411 415 425 
f 414 402 426 
f 416 400 426 
f 418 401 427 
f 423 395 427 
f 401 423 427 
f 390 391 428 
f 419 405 429 
f 405 422 429 
f 422 413 429 
f 412 403 430 
f 424 396 430 
f 403 424 430 
f 413 393 431 
f 419 429 431 
f 429 413 431 
f 397 403 432 
f 415 390 432 
f 403 415 432 
f 390 428 432 
f 418 391 433 
f 401 418 433 
f 402 389 434 
f 405 402 434 
f 406 422 434 
f 422 405 434 
f 434 389 435 
f 406 434 435 
f 411 404 436 
f 423 401 436 
f 404 423 436 
f 401 433 436 
f 407 392 437 
f 399 407 437 
f 392 409 437 
f 409 399 437 
f 409 398 438 
f 393 409 438 
f 431 393 438 
f 410 431 438 
f 398 418 439 
f 418 427 439 
f 427 410 439 
f 438 398 439 
f 410 438 439 
f 398 417 440 
f 391 418 440 
f 418 398 440 
f 428 391 440 
f 417 428 440 
f 412 394 441 
f 403 412 441 
f 415 403 441 
f 394 425 441 
f 425 415 441 
f 408 397 442 
f 417 408 442 
f 428 417 442 
f 397 432 442 
f 432 428 442 
f 402 421 443 
f 421 416 443 
f 426 402 443 
f 416 426 443 
f 395 419 444 
f 410 427 444 
f 427 395 444 
f 431 410 444 
f 419 431 444 
f 409 393 445 
f 393 413 445 
f 413 422 445 
f 392 414 446 
f 420 392 446 
f 426 400 446 
f 414 426 446 
f 400 408 447 
f 408 420 447 
f 420 446 447 
f 446 400 447 
f 391 390 448 
f 390 415 448 
f 415 411 448 
f 399 406 449 
f 407 399 449 
f 389 407 449 
f 435 389 449 
f 406 435 449 
f 396 416 450 
f 421 412 450 
f 416 421 450 
f 412 430 450 
f 430 396 450 
f 406 399 451 
f 399 409 451 
f 422 406 451 
f 409 445 451 
f 445 422 451 
f 433 391 452 
f 411 436 452 
f 436 433 452 
f 391 448 452 
o convex_9
v -0.312055 -0.331903 -0.538206
v -0.085928 -0.157963 -0.439641
v -0.068473 -0.204341 -0.439641
v -0.358447 -0.210138 -0.439641
v -0.399044 -0.157963 -0.549811
v -0.097517 -0.262335 -0.549811
v -0.085928 -0.343498 -0.439641
v -0.149739 -0.372526 -0.549811
v -0.190336 -0.157963 -0.544009
v -0.288842 -0.314490 -0.451235
v -0.364241 -0.157963 -0.439641
v -0.062714 -0.314490 -0.526612
v -0.404874 -0.227551 -0.532404
v -0.184505 -0.343498 -0.439641
v -0.045295 -0.331903 -0.439641
v -0.074303 -0.244943 -0.532404
v -0.352652 -0.297098 -0.491830
v -0.335269 -0.314490 -0.549811
v -0.230861 -0.355092 -0.497611
v -0.039500 -0.285503 -0.445432
v -0.103311 -0.349295 -0.549811
v -0.178711 -0.372526 -0.526612
v -0.404874 -0.163760 -0.509216
v -0.312055 -0.285503 -0.439641
v -0.085928 -0.157963 -0.451235
v -0.364241 -0.262335 -0.468631
v -0.213513 -0.157963 -0.549811
v -0.323644 -0.326106 -0.509216
v -0.062714 -0.262335 -0.526612
v -0.399044 -0.233349 -0.549811
v -0.161327 -0.157963 -0.526612
v -0.399044 -0.186949 -0.497611
v -0.329439 -0.291301 -0.451235
v -0.178711 -0.372526 -0.549811
v -0.143908 -0.372526 -0.526612
v -0.143908 -0.355092 -0.462829
v -0.091722 -0.349295 -0.532404
f 487 460 489 
f 455 454 456 
f 455 456 459 
f 457 458 460 
f 457 454 461 
f 456 454 463 
f 454 457 463 
f 459 456 466 
f 455 459 467 
f 458 461 468 
f 469 465 470 
f 457 460 470 
f 466 462 471 
f 455 467 472 
f 467 464 472 
f 460 458 473 
f 458 464 473 
f 471 453 474 
f 466 471 474 
f 463 457 475 
f 457 465 475 
f 466 456 476 
f 462 466 476 
f 454 455 477 
f 461 454 477 
f 455 472 477 
f 465 469 478 
f 458 457 479 
f 457 461 479 
f 461 458 479 
f 469 470 480 
f 470 453 480 
f 453 471 480 
f 471 462 480 
f 464 458 481 
f 458 468 481 
f 472 464 481 
f 468 477 481 
f 477 472 481 
f 465 457 482 
f 470 465 482 
f 457 470 482 
f 468 461 483 
f 461 477 483 
f 477 468 483 
f 456 463 484 
f 463 475 484 
f 475 465 484 
f 465 478 484 
f 478 456 484 
f 476 456 485 
f 462 476 485 
f 478 469 485 
f 456 478 485 
f 480 462 485 
f 469 480 485 
f 453 470 486 
f 470 460 486 
f 474 453 486 
f 460 474 486 
f 467 459 487 
f 474 460 487 
f 474 487 488 
f 459 466 488 
f 466 474 488 
f 487 459 488 
f 464 467 489 
f 460 473 489 
f 473 464 489 
f 467 487 489 
o convex_10
v 0.024291 -0.355104 -0.317797
v -0.358473 -0.198553 -0.439593
v -0.358473 -0.157940 -0.439593
v -0.230814 -0.163742 -0.172839
v 0.076538 -0.157940 -0.259850
v -0.080119 -0.157940 -0.439593
v -0.184443 -0.343500 -0.439593
v -0.074285 -0.268096 -0.172839
v -0.132281 -0.337698 -0.283040
v 0.076538 -0.157940 -0.172839
v -0.004664 -0.331897 -0.416378
v -0.283019 -0.297105 -0.433770
v 0.070705 -0.302907 -0.265648
v 0.012709 -0.320293 -0.225040
v 0.053331 -0.297105 -0.352581
v -0.242439 -0.227543 -0.254053
v -0.051121 -0.355104 -0.265648
v -0.056912 -0.343500 -0.439593
v 0.076538 -0.204355 -0.172839
v -0.132281 -0.360886 -0.387391
v -0.230814 -0.157940 -0.172839
v -0.167070 -0.221741 -0.172839
v -0.039496 -0.157940 -0.404783
v -0.033705 -0.279700 -0.439593
v -0.039496 -0.360886 -0.393189
v -0.103325 -0.337698 -0.254053
v -0.277228 -0.250750 -0.340987
v -0.022080 -0.268096 -0.172839
v 0.047498 -0.331897 -0.346784
v -0.010498 -0.360886 -0.288837
v 0.035916 -0.291304 -0.375797
v 0.070705 -0.302907 -0.306229
v -0.271437 -0.163742 -0.242459
v -0.190277 -0.337698 -0.381594
v -0.219232 -0.273898 -0.288837
v 0.047498 -0.314491 -0.242459
v -0.352639 -0.210137 -0.433770
v -0.259854 -0.215939 -0.265648
v -0.080119 -0.360886 -0.300432
v -0.132281 -0.355104 -0.427972
v 0.012709 -0.349302 -0.375797
v -0.004664 -0.355104 -0.265648
v -0.126532 -0.331897 -0.265648
v 0.047498 -0.331897 -0.271445
v -0.312059 -0.157940 -0.323595
v -0.300434 -0.279700 -0.439593
f 516 526 535 
f 492 494 495 
f 491 492 495 
f 491 495 496 
f 494 492 499 
f 493 497 499 
f 503 497 506 
f 496 495 507 
f 494 499 508 
f 499 497 508 
f 499 492 510 
f 493 499 510 
f 497 493 511 
f 493 505 511 
f 495 494 512 
f 507 495 513 
f 500 507 513 
f 495 512 513 
f 506 497 515 
f 497 511 515 
f 497 503 517 
f 508 497 517 
f 503 508 517 
f 500 504 518 
f 514 490 519 
f 509 514 519 
f 494 504 520 
f 504 500 520 
f 512 494 520 
f 513 512 520 
f 500 513 520 
f 504 494 521 
f 494 508 521 
f 508 502 521 
f 502 518 521 
f 518 504 521 
f 493 510 522 
f 501 496 523 
f 498 501 523 
f 496 509 523 
f 509 498 523 
f 501 498 524 
f 516 501 524 
f 505 516 524 
f 502 508 525 
f 508 503 525 
f 522 491 526 
f 522 526 527 
f 505 493 527 
f 516 505 527 
f 493 522 527 
f 526 516 527 
f 498 509 528 
f 515 498 528 
f 506 515 528 
f 519 506 528 
f 509 519 528 
f 496 507 529 
f 509 496 529 
f 507 514 529 
f 514 509 529 
f 507 500 530 
f 490 514 530 
f 514 507 530 
f 518 490 530 
f 500 518 530 
f 503 506 531 
f 519 490 531 
f 506 519 531 
f 525 503 531 
f 511 505 532 
f 498 515 532 
f 515 511 532 
f 524 498 532 
f 505 524 532 
f 490 518 533 
f 518 502 533 
f 502 525 533 
f 531 490 533 
f 525 531 533 
f 492 491 534 
f 510 492 534 
f 491 522 534 
f 522 510 534 
f 491 496 535 
f 496 501 535 
f 501 516 535 
f 526 491 535 
o convex_11
v -0.399074 -0.146293 -0.543994
v 0.076538 0.213289 -0.381618
v 0.076538 -0.024458 -0.381618
v 0.001118 -0.018644 -0.549822
v -0.329427 -0.157921 -0.381618
v -0.132310 0.166851 -0.549822
v -0.045298 -0.157921 -0.410645
v -0.277238 0.016093 -0.433844
v 0.053307 0.137855 -0.520811
v -0.219276 -0.157921 -0.549822
v -0.039478 0.190070 -0.381618
v -0.288830 0.050830 -0.538198
v -0.027886 -0.070859 -0.549822
v -0.312061 -0.082487 -0.381618
v -0.033705 -0.157921 -0.381618
v -0.045298 0.195884 -0.520811
v -0.370070 -0.088301 -0.480209
v 0.076538 0.108859 -0.485988
v -0.399074 -0.157921 -0.549822
v 0.012710 0.155260 -0.538198
v 0.024303 -0.094078 -0.410645
v -0.317834 0.016093 -0.549822
v 0.030122 0.004538 -0.526607
v -0.161268 -0.157921 -0.526607
v 0.076538 0.190070 -0.439623
v -0.120718 0.172629 -0.509203
v -0.283057 -0.036086 -0.381618
v -0.010474 0.207475 -0.399038
v -0.399074 -0.152070 -0.503408
v 0.076538 -0.018644 -0.404833
v -0.387435 -0.099892 -0.549822
v -0.317834 0.016093 -0.526607
v -0.080075 0.166888 -0.549822
v -0.265646 0.056680 -0.497596
v -0.352611 -0.117297 -0.422236
v 0.018530 0.172665 -0.526607
v -0.016294 -0.059268 -0.549822
v 0.001118 0.050867 -0.549822
v 0.076538 0.027684 -0.445452
v 0.041715 0.103082 -0.532402
v 0.059126 0.207475 -0.422236
v -0.387435 -0.099892 -0.520811
v -0.259826 0.033462 -0.433844
v -0.056890 0.195884 -0.520811
v -0.138083 0.155260 -0.491817
v 0.053307 0.085677 -0.520811
v -0.051071 0.184256 -0.538198
v -0.242461 0.004502 -0.381618
f 546 578 583 
f 538 537 540 
f 541 539 545 
f 542 540 545 
f 540 537 546 
f 545 539 548 
f 540 546 549 
f 538 540 550 
f 540 542 550 
f 537 538 553 
f 545 540 554 
f 541 545 554 
f 542 548 556 
f 538 550 556 
f 550 542 556 
f 547 541 557 
f 541 554 557 
f 542 545 559 
f 548 542 559 
f 545 548 559 
f 537 553 560 
f 553 544 560 
f 541 547 561 
f 549 546 562 
f 543 552 562 
f 552 549 562 
f 546 537 563 
f 561 546 563 
f 536 554 564 
f 554 540 564 
f 553 538 565 
f 538 556 565 
f 554 536 566 
f 557 554 566 
f 552 543 567 
f 547 557 567 
f 557 566 567 
f 539 541 568 
f 567 543 569 
f 547 567 569 
f 540 549 570 
f 549 552 570 
f 564 540 570 
f 552 564 570 
f 544 555 571 
f 560 544 571 
f 548 539 572 
f 556 548 572 
f 539 558 572 
f 565 556 572 
f 558 565 572 
f 539 568 573 
f 568 555 573 
f 558 553 574 
f 553 565 574 
f 565 558 574 
f 555 544 575 
f 539 573 575 
f 573 555 575 
f 551 537 576 
f 537 560 576 
f 571 551 576 
f 560 571 576 
f 536 564 577 
f 564 552 577 
f 566 536 577 
f 552 567 577 
f 567 566 577 
f 569 543 578 
f 546 569 578 
f 537 551 579 
f 541 561 579 
f 563 537 579 
f 561 563 579 
f 546 561 580 
f 561 547 580 
f 569 546 580 
f 547 569 580 
f 544 553 581 
f 558 539 581 
f 553 558 581 
f 575 544 581 
f 539 575 581 
f 568 541 582 
f 555 568 582 
f 571 555 582 
f 551 571 582 
f 579 551 582 
f 541 579 582 
f 543 562 583 
f 562 546 583 
f 578 543 583 
o convex_12
v -0.184445 0.016079 -0.172833
v -0.323633 -0.157921 -0.381597
v -0.323633 -0.157921 -0.369989
v 0.076499 -0.157921 -0.265638
v 0.076499 0.033484 -0.381597
v -0.230828 -0.157921 -0.172833
v 0.076499 0.033484 -0.172833
v -0.236625 0.004481 -0.381597
v -0.033700 -0.157921 -0.381597
v 0.076499 -0.157921 -0.172833
v -0.248260 -0.053543 -0.184441
v -0.120707 0.033484 -0.381597
v -0.149657 0.033484 -0.172833
v -0.277250 -0.030349 -0.358381
v 0.076499 -0.030349 -0.381597
v -0.312037 -0.117301 -0.311989
v -0.248260 -0.128918 -0.172833
v -0.323633 -0.111512 -0.381597
v -0.312037 -0.157921 -0.317793
v -0.219232 -0.007154 -0.190245
v -0.306239 -0.076701 -0.352597
v 0.018520 -0.105704 -0.381597
v -0.248260 -0.065103 -0.172833
v -0.283048 -0.036138 -0.381597
v -0.254058 -0.111512 -0.178637
v -0.230828 -0.018751 -0.196049
v -0.254058 -0.007154 -0.375793
v -0.178647 0.021868 -0.172833
f 610 603 611 
f 586 585 587 
f 586 587 589 
f 587 588 590 
f 584 589 590 
f 588 585 591 
f 587 585 592 
f 585 588 592 
f 589 587 593 
f 587 590 593 
f 590 589 593 
f 590 588 595 
f 588 591 595 
f 595 591 596 
f 584 590 596 
f 590 595 596 
f 588 587 598 
f 592 588 598 
f 589 584 600 
f 585 586 601 
f 591 585 601 
f 586 599 601 
f 586 589 602 
f 599 586 602 
f 589 600 602 
f 599 594 604 
f 601 599 604 
f 587 592 605 
f 598 587 605 
f 592 598 605 
f 594 599 606 
f 600 584 606 
f 584 603 606 
f 603 594 606 
f 591 601 607 
f 604 597 607 
f 601 604 607 
f 599 602 608 
f 602 600 608 
f 606 599 608 
f 600 606 608 
f 594 603 609 
f 603 597 609 
f 604 594 609 
f 597 604 609 
f 597 603 610 
f 591 607 610 
f 607 597 610 
f 596 591 611 
f 584 596 611 
f 603 584 611 
f 591 610 611 
o convex_13
v -0.039457 0.190059 -0.381597
v 0.076538 0.190059 -0.172833
v 0.064937 0.190059 -0.172833
v -0.056849 0.033484 -0.172833
v 0.076538 0.033484 -0.381597
v -0.120667 0.033484 -0.381597
v 0.076538 0.219081 -0.375793
v 0.076538 0.033484 -0.172833
v -0.022064 0.137880 -0.172833
v -0.120667 0.056698 -0.375793
v -0.027855 0.190059 -0.306185
v 0.059126 0.224889 -0.300401
v 0.018531 0.178462 -0.172833
v -0.051058 0.166864 -0.323597
v -0.004672 0.207465 -0.381597
v -0.039457 0.103107 -0.172833
v 0.076538 0.213273 -0.381597
v 0.076538 0.224889 -0.282989
v -0.039457 0.166864 -0.277205
v 0.064937 0.224889 -0.364185
f 623 629 631 
f 613 614 615 
f 612 616 617 
f 616 615 617 
f 613 616 618 
f 613 615 619 
f 615 616 619 
f 616 613 619 
f 615 614 620 
f 612 617 621 
f 617 615 621 
f 620 614 624 
f 623 622 624 
f 612 621 625 
f 622 612 625 
f 616 612 626 
f 612 622 626 
f 622 623 626 
f 615 620 627 
f 621 615 627 
f 618 616 628 
f 616 626 628 
f 626 618 628 
f 614 613 629 
f 613 618 629 
f 624 614 629 
f 623 624 629 
f 620 624 630 
f 624 622 630 
f 625 621 630 
f 622 625 630 
f 627 620 630 
f 621 627 630 
f 618 626 631 
f 626 623 631 
f 629 618 631 
