o convex_0
v 0.011487 -0.085990 -0.017541
v -0.007653 -0.037272 -0.020441
v -0.005912 -0.051200 -0.021601
v 0.003945 -0.034948 -0.026820
v 0.005106 -0.034948 -0.014640
v -0.001270 -0.085995 -0.018123
v 0.004525 -0.084251 -0.025661
v 0.002206 -0.083675 -0.014640
v -0.004171 -0.034948 -0.026820
v -0.004171 -0.034948 -0.015221
v 0.011487 -0.072648 -0.021601
v 0.008586 -0.034948 -0.018123
v -0.001270 -0.079612 -0.023341
v 0.009746 -0.085995 -0.023919
v 0.008005 -0.085995 -0.014640
v 0.002785 -0.057573 -0.027402
v -0.006491 -0.037848 -0.016961
v 0.009165 -0.067433 -0.015221
v 0.009165 -0.075549 -0.025081
v 0.006266 -0.034948 -0.024501
v -0.007072 -0.034948 -0.023919
v -0.000691 -0.086576 -0.021601
v 0.001049 -0.076130 -0.025661
v -0.003011 -0.034948 -0.014640
v -0.000110 -0.083675 -0.015801
v -0.002432 -0.079612 -0.021601
v 0.008586 -0.037272 -0.016961
v -0.005912 -0.052358 -0.018701
v -0.003011 -0.036110 -0.027402
v 0.008586 -0.034948 -0.019862
v 0.011487 -0.086576 -0.021021
v 0.011487 -0.074973 -0.018122
v 0.003945 -0.086576 -0.014640
v 0.009746 -0.065684 -0.023919
v -0.003592 -0.058735 -0.024501
v 0.008005 -0.077869 -0.025661
v 0.002785 -0.034948 -0.027402
v 0.010327 -0.054091 -0.018701
v -0.007653 -0.034948 -0.019282
v -0.001270 -0.083675 -0.016961
v 0.003945 -0.086576 -0.024501
v 0.008586 -0.040749 -0.021601
v 0.001627 -0.057573 -0.027402
v 0.000469 -0.085995 -0.023341
v -0.007072 -0.036691 -0.023919
v 0.010908 -0.084251 -0.016381
v -0.004752 -0.038430 -0.026242
v -0.002432 -0.080774 -0.019282
v -0.000110 -0.076130 -0.025081
v 0.007426 -0.044231 -0.015221
v 0.008005 -0.065684 -0.025661
v 0.008005 -0.067433 -0.014640
f 18 50 52 
f 5 4 9 
f 5 9 10 
f 4 5 12 
f 5 8 15 
f 11 14 19 
f 4 12 20 
f 10 9 21 
f 8 5 24 
f 5 10 24 
f 10 8 24 
f 8 10 25 
f 10 17 25 
f 13 22 26 
f 12 5 27 
f 2 3 28 
f 20 12 30 
f 11 1 31 
f 14 11 31 
f 1 11 32 
f 1 15 33 
f 15 8 33 
f 6 22 33 
f 25 6 33 
f 8 25 33 
f 31 1 33 
f 22 31 33 
f 11 19 34 
f 13 26 35 
f 14 7 36 
f 7 16 36 
f 19 14 36 
f 9 4 37 
f 29 9 37 
f 16 29 37 
f 36 16 37 
f 12 27 38 
f 11 30 38 
f 30 12 38 
f 32 11 38 
f 27 32 38 
f 17 10 39 
f 21 2 39 
f 10 21 39 
f 2 28 39 
f 28 17 39 
f 6 25 40 
f 25 17 40 
f 17 28 40 
f 7 14 41 
f 14 31 41 
f 31 22 41 
f 30 11 42 
f 20 30 42 
f 11 34 42 
f 34 20 42 
f 16 7 43 
f 7 23 43 
f 29 16 43 
f 23 29 43 
f 22 13 44 
f 23 7 44 
f 7 41 44 
f 41 22 44 
f 3 2 45 
f 2 21 45 
f 26 3 45 
f 35 26 45 
f 15 1 46 
f 18 15 46 
f 27 18 46 
f 1 32 46 
f 32 27 46 
f 21 9 47 
f 9 29 47 
f 45 21 47 
f 35 45 47 
f 22 6 48 
f 3 26 48 
f 26 22 48 
f 28 3 48 
f 6 40 48 
f 40 28 48 
f 29 23 49 
f 13 35 49 
f 44 13 49 
f 23 44 49 
f 47 29 49 
f 35 47 49 
f 27 5 50 
f 18 27 50 
f 4 20 51 
f 34 19 51 
f 20 34 51 
f 19 36 51 
f 36 37 51 
f 37 4 51 
f 5 15 52 
f 15 18 52 
f 50 5 52 
o convex_1
v 0.009167 -0.011166 -0.024500
v -0.014036 -0.020444 -0.015223
v -0.008812 -0.031464 -0.022764
v 0.013809 -0.032047 -0.014642
v 0.008588 -0.003623 -0.014642
v -0.009394 -0.003623 -0.031460
v 0.002783 -0.034948 -0.027399
v -0.009973 -0.003623 -0.014642
v -0.003589 -0.034948 -0.014642
v 0.000468 -0.003623 -0.030881
v 0.016129 -0.017550 -0.015221
v -0.013454 -0.005364 -0.025079
v -0.004171 -0.034948 -0.026822
v 0.009749 -0.003623 -0.021602
v 0.016129 -0.026822 -0.015221
v -0.012875 -0.012325 -0.025662
v -0.001856 -0.021021 -0.030302
v 0.010906 -0.034948 -0.014642
v -0.007652 -0.034948 -0.018701
v 0.006264 -0.014646 -0.027399
v 0.006264 -0.034948 -0.024502
v -0.014036 -0.018126 -0.014642
v 0.007428 -0.004785 -0.026239
v -0.002434 -0.005364 -0.032043
v -0.008812 -0.030882 -0.014642
v 0.001047 -0.014646 -0.030302
v -0.008233 -0.027984 -0.025662
v -0.013454 -0.007106 -0.020444
v -0.007652 -0.005364 -0.032043
v 0.016129 -0.017550 -0.014642
v -0.012293 -0.003623 -0.022764
v -0.002434 -0.030305 -0.028559
v -0.013454 -0.012325 -0.024502
v -0.007073 -0.034948 -0.023919
v 0.009749 -0.003623 -0.018122
v 0.005686 -0.004205 -0.027982
v -0.008233 -0.016387 -0.029142
v 0.007428 -0.015225 -0.026239
v -0.011133 -0.007106 -0.029142
v 0.005686 -0.013487 -0.027982
v 0.003946 -0.034948 -0.026822
f 78 92 93 
f 56 57 60 
f 57 58 60 
f 56 60 61 
f 58 57 62 
f 59 61 65 
f 62 57 66 
f 53 63 67 
f 61 59 70 
f 56 61 70 
f 54 55 71 
f 65 61 71 
f 67 56 73 
f 56 70 73 
f 70 59 73 
f 61 60 74 
f 64 54 74 
f 63 53 75 
f 66 63 75 
f 58 62 76 
f 54 71 77 
f 71 61 77 
f 74 54 77 
f 61 74 77 
f 59 69 78 
f 76 62 78 
f 69 76 78 
f 55 68 79 
f 74 60 80 
f 64 74 80 
f 58 76 81 
f 76 69 81 
f 57 56 82 
f 63 66 82 
f 56 67 82 
f 67 63 82 
f 60 58 83 
f 58 64 83 
f 80 60 83 
f 64 80 83 
f 59 65 84 
f 69 59 84 
f 65 81 84 
f 81 69 84 
f 55 54 85 
f 54 64 85 
f 68 55 85 
f 64 68 85 
f 71 55 86 
f 65 71 86 
f 55 79 86 
f 79 65 86 
f 66 57 87 
f 57 82 87 
f 82 66 87 
f 62 66 88 
f 75 53 88 
f 66 75 88 
f 65 79 89 
f 58 81 89 
f 81 65 89 
f 53 67 90 
f 67 73 90 
f 64 58 91 
f 68 64 91 
f 79 68 91 
f 58 89 91 
f 89 79 91 
f 78 62 92 
f 62 88 92 
f 88 53 92 
f 53 90 92 
f 90 72 92 
f 73 59 93 
f 59 78 93 
f 90 73 93 
f 72 90 93 
f 92 72 93 
o convex_2
v 0.021928 -0.053514 0.004500
v -0.005914 -0.052354 0.003923
v -0.005914 -0.052354 0.007984
v 0.003371 -0.086576 0.005661
v 0.009168 -0.056995 -0.010579
v 0.023668 -0.085991 0.013784
v 0.004528 -0.051197 0.019005
v 0.020189 -0.086576 -0.004197
v 0.008589 -0.086576 0.017265
v 0.015550 -0.051197 -0.008839
v 0.016128 -0.051197 0.017265
v 0.008589 -0.084252 -0.004197
v -0.002432 -0.051197 -0.005937
v 0.025407 -0.079611 0.001604
v 0.003371 -0.085991 0.013784
v 0.012647 -0.071489 0.019005
v -0.003011 -0.051197 0.014363
v 0.026571 -0.084252 0.007981
v 0.020189 -0.051776 0.012623
v 0.015550 -0.083092 -0.007096
v 0.019028 -0.051197 -0.005358
v 0.018450 -0.084830 0.017265
v 0.005107 -0.052354 -0.010579
v -0.004172 -0.051776 -0.003618
v 0.024829 -0.086576 0.000445
v 0.001628 -0.083670 0.007984
v 0.011486 -0.086576 -0.005358
v 0.012647 -0.051197 0.019005
v 0.000471 -0.051776 0.017265
v 0.001050 -0.052354 -0.008839
v 0.023668 -0.081350 0.013784
v 0.003371 -0.083670 0.002765
v 0.020768 -0.051197 -0.000716
v 0.022507 -0.055256 0.007401
v -0.005914 -0.051776 0.001025
v 0.020768 -0.085412 -0.004197
v 0.014968 -0.066277 -0.008839
v -0.005332 -0.051197 0.010882
v 0.026571 -0.086576 0.006822
v 0.001628 -0.083092 0.011462
v 0.021928 -0.081932 0.015522
v 0.011486 -0.080189 -0.007098
v 0.017289 -0.086576 0.017265
v 0.025407 -0.075549 0.003926
v 0.013228 -0.051197 -0.009997
v 0.006850 -0.085991 -0.001295
v 0.023668 -0.081350 -0.001295
v 0.025407 -0.080189 0.010303
v 0.006850 -0.081350 0.017265
v 0.010907 -0.072071 0.019005
v 0.019028 -0.051197 0.014360
v 0.002210 -0.078451 0.014363
v -0.004172 -0.051776 0.013202
v 0.011486 -0.055835 -0.010579
v 0.005107 -0.051197 -0.010579
v 0.017289 -0.059897 0.017265
v -0.002432 -0.051776 -0.005937
v 0.007428 -0.056995 -0.010579
v 0.020768 -0.051197 0.010303
v 0.021928 -0.070911 0.014360
v 0.022507 -0.055256 0.005079
v 0.026571 -0.084252 0.005079
v 0.017289 -0.075549 -0.007096
f 113 130 156 
f 97 101 102 
f 103 100 104 
f 100 103 106 
f 97 102 108 
f 100 106 110 
f 103 104 114 
f 102 101 118 
f 96 95 119 
f 97 108 119 
f 101 97 120 
f 113 101 120 
f 104 100 121 
f 100 109 121 
f 109 115 121 
f 100 110 122 
f 120 105 123 
f 99 111 124 
f 97 119 125 
f 114 104 126 
f 107 114 126 
f 95 96 128 
f 106 117 128 
f 119 95 128 
f 117 125 128 
f 125 119 128 
f 101 113 129 
f 118 101 129 
f 110 106 131 
f 128 96 131 
f 106 128 131 
f 111 99 132 
f 102 118 132 
f 96 119 133 
f 119 108 133 
f 131 96 133 
f 115 99 134 
f 99 124 134 
f 113 120 135 
f 120 123 135 
f 99 115 136 
f 115 109 136 
f 132 99 136 
f 102 132 136 
f 107 126 137 
f 127 111 137 
f 106 103 138 
f 103 130 138 
f 120 97 139 
f 105 120 139 
f 97 125 139 
f 125 117 139 
f 103 114 140 
f 114 107 140 
f 107 118 140 
f 129 103 140 
f 118 129 140 
f 124 111 141 
f 111 127 141 
f 127 112 141 
f 108 102 142 
f 100 122 142 
f 109 100 143 
f 102 136 143 
f 136 109 143 
f 100 142 143 
f 142 102 143 
f 126 104 144 
f 122 110 145 
f 108 142 145 
f 142 122 145 
f 110 131 146 
f 133 108 146 
f 131 133 146 
f 145 110 146 
f 108 145 146 
f 113 98 147 
f 98 116 147 
f 130 113 147 
f 138 130 147 
f 138 147 148 
f 123 106 148 
f 116 123 148 
f 106 138 148 
f 147 116 148 
f 104 121 149 
f 121 115 149 
f 115 134 149 
f 117 106 150 
f 123 105 150 
f 106 123 150 
f 105 139 150 
f 139 117 150 
f 98 113 151 
f 116 98 151 
f 123 116 151 
f 113 135 151 
f 135 123 151 
f 94 126 152 
f 127 94 152 
f 112 127 152 
f 144 112 152 
f 126 144 152 
f 134 124 153 
f 124 141 153 
f 141 112 153 
f 144 104 153 
f 112 144 153 
f 104 149 153 
f 149 134 153 
f 126 94 154 
f 94 127 154 
f 137 126 154 
f 127 137 154 
f 118 107 155 
f 111 132 155 
f 132 118 155 
f 107 137 155 
f 137 111 155 
f 103 129 156 
f 129 113 156 
f 130 103 156 
o convex_3
v -0.042458 -0.001880 -0.015216
v -0.024477 0.017839 0.009724
v -0.024477 0.014938 0.009724
v -0.024477 0.018419 -0.026242
v -0.047679 0.019001 0.000437
v -0.024480 -0.000141 -0.000721
v -0.045937 0.001599 -0.000141
v -0.040718 0.019001 -0.025080
v -0.024480 0.003341 -0.020440
v -0.047097 0.002179 -0.011156
v -0.041297 0.005080 -0.022176
v -0.024477 0.019001 0.009140
v -0.045358 0.019001 -0.016958
v -0.043618 0.011459 0.003919
v -0.044779 -0.002462 -0.008259
v -0.025059 0.009139 0.007981
v -0.024480 0.000441 -0.013476
v -0.027380 0.013196 -0.025658
v -0.044779 0.019001 0.003341
v -0.039557 -0.002462 -0.012899
v -0.024477 0.019001 -0.026242
v -0.043618 0.005080 -0.019856
v -0.047097 0.000441 -0.002461
v -0.036657 0.001599 -0.020440
v -0.047679 0.019001 -0.005362
v -0.024477 0.004500 0.004503
v -0.039557 0.017839 -0.025658
v -0.045358 -0.000141 -0.001883
v -0.047097 0.007402 0.001021
v -0.043618 0.004500 0.002179
v -0.024480 0.001599 -0.018116
v -0.044779 -0.000141 -0.015216
v -0.041297 0.001599 -0.020440
v -0.024477 0.010881 -0.024499
v -0.045358 0.006240 -0.016958
v -0.039557 -0.002462 -0.007682
v -0.025059 0.014938 0.009724
v -0.045358 0.017257 0.003341
v -0.025061 0.000441 0.000437
v -0.047097 0.000441 -0.009417
v -0.037236 0.000441 -0.019278
v -0.040718 -0.002462 -0.014057
v -0.024480 -0.000141 -0.005362
f 173 182 199 
f 158 159 160 
f 158 160 168 
f 164 161 168 
f 161 164 169 
f 158 168 175 
f 168 161 175 
f 168 160 177 
f 164 168 177 
f 164 167 178 
f 167 174 180 
f 161 169 181 
f 169 166 181 
f 179 161 181 
f 160 159 182 
f 159 172 182 
f 172 163 182 
f 167 164 183 
f 160 174 183 
f 174 167 183 
f 177 160 183 
f 164 177 183 
f 163 179 184 
f 179 171 184 
f 161 179 185 
f 179 163 185 
f 163 172 186 
f 185 163 186 
f 170 185 186 
f 157 171 188 
f 188 178 189 
f 178 167 189 
f 167 180 189 
f 157 188 189 
f 174 160 190 
f 165 180 190 
f 180 174 190 
f 160 182 190 
f 182 173 190 
f 187 165 190 
f 173 187 190 
f 169 164 191 
f 166 169 191 
f 164 178 191 
f 188 166 191 
f 178 188 191 
f 171 176 192 
f 176 162 192 
f 162 184 192 
f 184 171 192 
f 159 158 193 
f 172 159 193 
f 170 186 193 
f 186 172 193 
f 158 175 194 
f 175 161 194 
f 185 170 194 
f 161 185 194 
f 193 158 194 
f 170 193 194 
f 162 182 195 
f 182 163 195 
f 184 162 195 
f 163 184 195 
f 171 179 196 
f 181 166 196 
f 179 181 196 
f 188 171 196 
f 166 188 196 
f 180 165 197 
f 165 187 197 
f 157 189 197 
f 189 180 197 
f 171 157 198 
f 176 171 198 
f 173 176 198 
f 187 173 198 
f 157 197 198 
f 197 187 198 
f 162 176 199 
f 176 173 199 
f 182 162 199 
o convex_4
v -0.040717 0.030026 -0.025079
v -0.007655 0.019583 0.020161
v -0.007655 0.019001 0.020161
v -0.007655 0.035241 -0.022760
v -0.016356 0.048006 -0.001302
v -0.047099 0.026545 -0.000142
v -0.019259 0.019001 -0.025654
v -0.047679 0.019001 -0.005355
v -0.007655 0.048006 -0.012896
v -0.040137 0.036981 -0.023335
v -0.007655 0.019001 -0.019857
v -0.040717 0.019001 -0.025079
v -0.012877 0.020742 0.020741
v -0.043616 0.032924 -0.001886
v -0.028536 0.028864 -0.027397
v -0.045359 0.019001 0.002761
v -0.007655 0.044522 -0.001881
v -0.011717 0.025963 0.018422
v -0.007655 0.043364 -0.019277
v -0.045359 0.031763 -0.015214
v -0.018095 0.048006 -0.008258
v -0.019259 0.044525 0.001597
v -0.044196 0.030026 0.000438
v -0.044196 0.033504 -0.004195
v -0.039557 0.034662 -0.025658
v -0.045359 0.019001 -0.016958
v -0.034339 0.023064 -0.027397
v -0.015196 0.025963 -0.025654
v -0.012297 0.046845 -0.000142
v -0.007655 0.024804 0.017843
v -0.019259 0.047424 -0.003041
v -0.026221 0.020165 -0.027397
v -0.030276 0.034662 -0.025658
v -0.039557 0.037561 -0.019857
v -0.045359 0.025966 0.001597
v -0.014620 0.019001 0.020161
v -0.047099 0.028864 -0.006519
v -0.009398 0.026545 -0.023340
v -0.039557 0.036981 -0.023919
v -0.016936 0.046845 0.000438
v -0.038977 0.028285 -0.026818
v -0.008238 0.045683 -0.016958
v -0.013457 0.019001 -0.023914
v -0.012877 0.025384 0.018422
v -0.047679 0.019001 0.000438
v -0.041877 0.027124 -0.023919
v -0.016356 0.030026 -0.025654
v -0.047099 0.024225 -0.009417
v -0.012297 0.048006 -0.001881
v -0.016936 0.048006 -0.009413
v -0.038977 0.036981 -0.008258
v -0.040717 0.034662 -0.024499
v -0.045359 0.025384 -0.016958
v -0.047099 0.028864 -0.001886
v -0.044780 0.032924 -0.015794
v -0.029696 0.019001 -0.026818
v -0.045359 0.020165 0.002761
v -0.014037 0.045683 0.001597
v -0.007655 0.048006 -0.009997
v -0.011137 0.045101 0.001017
v -0.039557 0.035820 -0.025079
v -0.047679 0.024225 -0.000142
v -0.007655 0.023646 -0.021596
v -0.039557 0.037561 -0.022755
f 254 223 263 
f 201 202 203 
f 206 202 207 
f 201 203 208 
f 203 202 210 
f 202 206 210 
f 206 207 211 
f 202 201 212 
f 207 202 215 
f 201 208 216 
f 212 201 217 
f 208 203 218 
f 204 208 220 
f 221 213 222 
f 211 207 225 
f 201 216 229 
f 217 201 229 
f 204 220 230 
f 223 213 230 
f 226 214 231 
f 227 206 231 
f 214 227 231 
f 218 203 232 
f 214 224 232 
f 230 220 233 
f 222 205 234 
f 212 222 234 
f 202 212 235 
f 215 202 235 
f 212 234 235 
f 227 203 237 
f 213 221 239 
f 221 217 239 
f 228 204 239 
f 204 230 239 
f 230 213 239 
f 211 200 240 
f 200 224 240 
f 224 214 240 
f 226 211 240 
f 214 226 240 
f 208 218 241 
f 238 208 241 
f 210 206 242 
f 206 227 242 
f 227 237 242 
f 212 217 243 
f 217 221 243 
f 221 222 243 
f 222 212 243 
f 207 215 244 
f 200 211 245 
f 211 225 245 
f 203 227 246 
f 227 214 246 
f 232 203 246 
f 214 232 246 
f 225 207 247 
f 207 236 247 
f 236 219 247 
f 208 204 248 
f 204 228 248 
f 228 216 248 
f 220 208 249 
f 223 230 250 
f 233 223 250 
f 230 233 250 
f 224 200 251 
f 200 245 251 
f 251 245 252 
f 245 225 252 
f 225 247 252 
f 247 219 252 
f 219 251 252 
f 205 222 253 
f 222 213 253 
f 213 223 253 
f 219 236 254 
f 209 251 254 
f 251 219 254 
f 253 223 254 
f 236 253 254 
f 206 211 255 
f 211 226 255 
f 231 206 255 
f 226 231 255 
f 215 235 256 
f 235 234 256 
f 244 215 256 
f 239 217 257 
f 228 239 257 
f 216 208 258 
f 208 248 258 
f 248 216 258 
f 216 228 259 
f 217 229 259 
f 229 216 259 
f 257 217 259 
f 228 257 259 
f 218 232 260 
f 232 224 260 
f 209 238 260 
f 241 218 260 
f 238 241 260 
f 251 209 260 
f 224 251 260 
f 234 205 261 
f 236 207 261 
f 207 244 261 
f 205 253 261 
f 253 236 261 
f 256 234 261 
f 244 256 261 
f 203 210 262 
f 237 203 262 
f 210 242 262 
f 242 237 262 
f 233 220 263 
f 223 233 263 
f 208 238 263 
f 238 209 263 
f 249 208 263 
f 220 249 263 
f 209 254 263 
o convex_5
v 0.008588 -0.037842 -0.014640
v 0.002786 -0.021609 0.024226
v 0.005103 -0.021029 0.023640
v -0.015193 -0.012907 -0.012898
v -0.005332 -0.051190 0.011462
v 0.020770 -0.018706 -0.004193
v 0.020770 -0.051190 0.010298
v -0.012294 -0.011748 0.013201
v 0.000470 -0.051190 -0.008834
v 0.014386 -0.011164 -0.012894
v 0.017285 -0.014067 0.009720
v 0.019028 -0.051190 -0.005353
v -0.016354 -0.027412 -0.003033
v -0.012873 -0.025668 0.017839
v 0.003943 -0.051190 0.019003
v -0.011712 -0.033203 -0.012898
v 0.016707 -0.018126 -0.014640
v 0.008588 -0.011164 0.014361
v 0.011487 -0.026828 0.021902
v -0.018096 -0.015807 0.003926
v -0.004172 -0.011164 -0.014636
v 0.019028 -0.023929 0.013783
v 0.016129 -0.051190 0.017260
v -0.013455 -0.037842 0.005661
v -0.004750 -0.051190 -0.003615
v 0.012066 -0.048863 -0.011737
v -0.009974 -0.032047 -0.014640
v -0.007653 -0.025668 0.021906
v -0.015772 -0.011164 -0.000137
v 0.017867 -0.011164 -0.005935
v 0.016707 -0.021609 0.017260
v 0.020770 -0.018706 0.005082
v -0.016354 -0.021609 -0.012315
v 0.016707 -0.026828 -0.014640
v 0.012648 -0.051190 0.019003
v 0.020770 -0.051190 -0.000134
v 0.019028 -0.019870 -0.011737
v 0.006846 -0.050027 -0.011737
v -0.000691 -0.028568 0.023640
v -0.016354 -0.019286 0.012041
v -0.003590 -0.051190 0.014358
v 0.001048 -0.019866 0.023640
v -0.014611 -0.014647 -0.014640
v -0.012873 -0.033786 -0.009995
v -0.007075 -0.050027 0.002187
v -0.014611 -0.032047 0.009720
v -0.018096 -0.016966 -0.007678
v -0.015772 -0.015227 0.012623
v 0.014386 -0.051190 -0.009995
v -0.007653 -0.032047 0.020163
v 0.006268 -0.027412 0.023640
v -0.018096 -0.019866 0.002187
v -0.001851 -0.011164 0.014358
v 0.017285 -0.011164 0.001609
v -0.007653 -0.023929 0.021906
v -0.012873 -0.032047 0.014361
v 0.017867 -0.051190 0.015518
v 0.013808 -0.012907 -0.014640
v 0.017285 -0.013487 -0.012315
v -0.015772 -0.011164 -0.004775
v 0.020770 -0.022769 -0.005935
v 0.016129 -0.029731 -0.014640
v 0.020770 -0.022189 0.007399
v -0.011712 -0.011748 0.013779
f 311 318 327 
f 270 268 272 
f 270 272 275 
f 268 270 278 
f 281 273 284 
f 278 270 286 
f 272 268 288 
f 279 272 288 
f 272 279 290 
f 280 264 290 
f 281 284 292 
f 273 281 293 
f 281 266 294 
f 274 281 294 
f 266 282 294 
f 285 274 294 
f 282 286 294 
f 270 269 295 
f 274 285 295 
f 269 293 295 
f 290 279 296 
f 264 280 297 
f 286 282 298 
f 278 286 298 
f 269 270 299 
f 270 275 299 
f 275 297 300 
f 297 280 300 
f 264 289 301 
f 272 290 301 
f 290 264 301 
f 278 298 302 
f 268 278 304 
f 265 266 305 
f 266 281 305 
f 267 284 306 
f 280 290 306 
f 290 296 306 
f 287 276 307 
f 279 288 307 
f 276 296 307 
f 296 279 307 
f 268 287 308 
f 288 268 308 
f 287 307 308 
f 307 288 308 
f 287 268 309 
f 296 276 310 
f 267 306 310 
f 306 296 310 
f 271 292 311 
f 292 283 311 
f 303 277 311 
f 283 303 311 
f 275 272 312 
f 272 301 312 
f 301 289 312 
f 291 277 313 
f 302 291 313 
f 278 302 313 
f 277 304 313 
f 304 278 313 
f 266 265 314 
f 282 266 314 
f 298 282 314 
f 265 302 314 
f 302 298 314 
f 276 287 315 
f 303 283 315 
f 287 309 315 
f 309 303 315 
f 310 276 315 
f 283 310 315 
f 292 271 316 
f 281 292 316 
f 305 281 316 
f 281 274 317 
f 293 281 317 
f 274 295 317 
f 295 293 317 
f 277 291 318 
f 302 265 318 
f 291 302 318 
f 265 305 318 
f 311 277 318 
f 277 303 319 
f 268 304 319 
f 304 277 319 
f 309 268 319 
f 303 309 319 
f 270 285 320 
f 286 270 320 
f 285 294 320 
f 294 286 320 
f 284 273 321 
f 306 284 321 
f 280 306 321 
f 293 269 322 
f 273 293 322 
f 300 280 322 
f 269 300 322 
f 321 273 322 
f 280 321 322 
f 284 267 323 
f 283 292 323 
f 292 284 323 
f 310 283 323 
f 267 310 323 
f 269 299 324 
f 299 275 324 
f 275 300 324 
f 300 269 324 
f 289 264 325 
f 297 275 325 
f 264 297 325 
f 275 312 325 
f 312 289 325 
f 285 270 326 
f 270 295 326 
f 295 285 326 
f 271 311 327 
f 316 271 327 
f 305 316 327 
f 318 305 327 
o convex_6
v 0.010906 -0.010003 0.014362
v -0.010551 -0.004203 -0.014640
v -0.010551 -0.003623 -0.014640
v -0.019831 -0.004203 0.008563
v -0.015771 -0.011164 -0.005937
v 0.014387 -0.003623 -0.009996
v 0.014387 -0.011164 -0.012317
v 0.013226 -0.003623 0.015524
v -0.001858 -0.011164 0.014362
v 0.017290 -0.011164 -0.001877
v -0.021577 -0.003623 -0.005356
v -0.004168 -0.011164 -0.014640
v -0.001858 -0.003623 0.016105
v -0.012872 -0.011164 0.009141
v 0.008585 -0.003623 -0.014640
v -0.011712 -0.010003 -0.012898
v -0.016932 -0.003623 0.010884
v 0.015547 -0.011164 0.005662
v -0.020413 -0.005943 0.002761
v 0.014387 -0.003623 0.013204
v 0.006264 -0.011164 -0.014640
v 0.008585 -0.010584 0.014943
v 0.017290 -0.010584 -0.007676
v -0.015193 -0.011164 0.005081
v -0.001276 -0.005943 0.016105
v 0.014969 -0.003623 -0.000715
v 0.012062 -0.005363 0.016105
v -0.015193 -0.004203 -0.011739
v 0.010324 -0.011164 0.013782
v -0.014029 -0.011164 -0.009419
v -0.021577 -0.004203 -0.005356
v 0.013226 -0.005943 0.014943
v -0.011712 -0.007105 0.012042
f 352 344 360 
f 333 330 335 
f 332 334 336 
f 336 334 337 
f 335 330 338 
f 329 330 339 
f 334 332 339 
f 335 338 340 
f 332 336 341 
f 330 333 342 
f 333 334 342 
f 339 330 342 
f 329 339 343 
f 338 331 344 
f 340 338 344 
f 331 341 344 
f 336 337 345 
f 333 335 347 
f 345 337 347 
f 334 339 348 
f 342 334 348 
f 339 342 348 
f 334 333 350 
f 337 334 350 
f 341 331 351 
f 332 341 351 
f 331 346 351 
f 346 332 351 
f 340 344 352 
f 336 349 352 
f 333 347 353 
f 347 337 353 
f 350 333 353 
f 337 350 353 
f 335 340 354 
f 349 328 354 
f 340 352 354 
f 352 349 354 
f 330 329 355 
f 338 330 355 
f 329 343 355 
f 345 328 356 
f 336 345 356 
f 328 349 356 
f 349 336 356 
f 339 332 357 
f 343 339 357 
f 343 357 358 
f 331 338 358 
f 346 331 358 
f 332 346 358 
f 338 355 358 
f 355 343 358 
f 357 332 358 
f 328 345 359 
f 347 335 359 
f 345 347 359 
f 335 354 359 
f 354 328 359 
f 341 336 360 
f 344 341 360 
f 336 352 360 
o convex_7
v -0.024477 0.000439 -0.012895
v 0.017870 0.008559 0.015520
v 0.017870 0.007979 0.015520
v 0.000464 -0.000142 -0.031457
v 0.011486 -0.003623 0.016682
v -0.024477 0.008559 0.007402
v -0.005911 0.008559 -0.030295
v -0.019835 -0.003623 0.009142
v 0.009165 -0.003623 -0.022754
v 0.001625 0.008559 0.023066
v -0.008813 -0.003623 -0.032035
v -0.024477 0.008559 -0.022760
v 0.014968 0.008559 -0.008830
v 0.016129 -0.001882 -0.007674
v -0.023317 -0.003042 -0.004782
v 0.001625 0.007398 -0.028560
v -0.001273 -0.003623 0.016682
v 0.014388 -0.003623 0.013780
v -0.008232 0.006238 0.018996
v -0.007652 0.003917 -0.033203
v 0.014388 0.007979 0.020742
v 0.017289 0.005658 -0.006517
v -0.024477 0.002179 -0.019273
v -0.015192 0.008559 0.015520
v -0.024477 0.001018 0.002174
v -0.018674 -0.003042 0.010877
v 0.017870 0.003338 -0.001879
v -0.002433 -0.003623 -0.032035
v 0.014968 -0.003623 -0.009414
v 0.008004 0.007979 0.023066
v -0.011714 -0.003623 -0.028554
v 0.003946 0.003337 -0.027976
v 0.017870 0.008559 0.000439
v -0.007652 0.002179 0.017839
v -0.004750 0.003917 -0.033203
v 0.005107 -0.003623 -0.027976
v -0.000692 0.008559 -0.029138
v -0.022156 -0.003623 -0.005355
v -0.007652 -0.002462 -0.033203
v -0.020995 -0.000721 0.009720
v 0.015548 0.002179 0.017261
v 0.016129 0.000439 0.012623
v 0.016129 -0.000141 -0.009414
v 0.001625 0.007979 0.023066
v -0.006491 0.007398 -0.031457
v -0.024477 0.003337 -0.020436
v -0.024477 -0.000721 -0.001301
v 0.012066 0.008559 0.021904
v -0.003014 0.007398 -0.031457
v 0.016129 -0.001882 -0.002458
v -0.024477 0.001599 -0.018111
v 0.016709 0.005658 -0.007674
f 382 403 412 
f 366 362 367 
f 365 368 369 
f 362 366 370 
f 369 368 371 
f 361 366 372 
f 366 367 372 
f 367 362 373 
f 368 365 377 
f 365 369 378 
f 363 362 381 
f 361 372 383 
f 370 366 384 
f 379 370 384 
f 366 361 385 
f 368 377 386 
f 379 384 386 
f 362 363 387 
f 369 371 388 
f 378 369 389 
f 377 365 390 
f 371 368 391 
f 383 371 391 
f 364 376 392 
f 376 373 392 
f 373 362 393 
f 382 373 393 
f 362 387 393 
f 387 382 393 
f 386 377 394 
f 379 386 394 
f 364 388 395 
f 388 364 396 
f 369 388 396 
f 364 392 396 
f 392 369 396 
f 367 373 397 
f 373 376 397 
f 368 375 398 
f 391 368 398 
f 375 391 398 
f 371 372 399 
f 372 380 399 
f 388 371 399 
f 380 395 399 
f 395 388 399 
f 384 366 400 
f 366 385 400 
f 385 368 400 
f 368 386 400 
f 386 384 400 
f 365 378 401 
f 363 381 401 
f 381 365 401 
f 387 363 402 
f 363 401 402 
f 401 378 402 
f 387 374 403 
f 382 387 403 
f 389 369 403 
f 374 389 403 
f 370 379 404 
f 377 390 404 
f 390 370 404 
f 394 377 404 
f 379 394 404 
f 372 367 405 
f 380 372 405 
f 395 380 405 
f 372 371 406 
f 383 372 406 
f 371 383 406 
f 361 375 407 
f 375 368 407 
f 385 361 407 
f 368 385 407 
f 362 370 408 
f 381 362 408 
f 365 381 408 
f 390 365 408 
f 370 390 408 
f 376 364 409 
f 364 395 409 
f 367 397 409 
f 397 376 409 
f 405 367 409 
f 395 405 409 
f 374 387 410 
f 389 374 410 
f 378 389 410 
f 402 378 410 
f 387 402 410 
f 375 361 411 
f 361 383 411 
f 391 375 411 
f 383 391 411 
f 373 382 412 
f 369 392 412 
f 392 373 412 
f 403 369 412 
o convex_8
v -0.016933 0.016100 0.019000
v 0.025411 0.019001 0.012040
v 0.025411 0.018421 0.012040
v -0.024477 0.019001 -0.025662
v -0.000691 0.008559 -0.021596
v -0.016351 0.008559 0.016101
v 0.013227 0.008559 0.021904
v 0.001043 0.019001 0.027122
v -0.024477 0.008559 -0.022753
v -0.024477 0.019001 0.009720
v 0.016123 0.008559 -0.005935
v 0.021924 0.019001 0.001025
v -0.024477 0.008559 0.007979
v -0.002429 0.019001 -0.017534
v 0.016123 0.019001 0.023061
v 0.002786 0.008559 0.023640
v 0.017866 0.008559 0.016101
v 0.001043 0.012620 -0.019860
v 0.013227 0.009140 -0.011154
v -0.013451 0.012620 0.020741
v -0.019252 0.019001 -0.025662
v 0.006849 0.017840 0.027122
v 0.024830 0.016680 0.007979
v 0.023086 0.017840 0.016680
v -0.023315 0.014940 -0.025662
v -0.014613 0.019001 0.020157
v 0.018442 0.008559 0.006817
v -0.018671 0.013201 0.017259
v -0.001853 0.008559 -0.022179
v 0.024249 0.017840 0.004497
v -0.014032 0.019001 -0.023921
v -0.014032 0.009721 0.019000
v -0.000691 0.015520 -0.019276
v 0.007426 0.008559 0.023640
v -0.024477 0.011460 -0.024494
v 0.014965 0.009721 0.021325
v 0.024830 0.016680 0.012040
v 0.017866 0.008559 0.000446
v -0.024477 0.010300 0.009142
v -0.016933 0.009721 0.017259
v 0.009169 0.018421 0.026538
v 0.001043 0.018421 0.027122
v -0.001853 0.009721 -0.022174
v -0.014032 0.017840 0.020741
f 432 454 456 
f 418 417 419 
f 414 416 420 
f 417 418 421 
f 420 416 422 
f 416 421 422 
f 419 417 423 
f 416 414 424 
f 421 418 425 
f 422 421 425 
f 416 424 426 
f 414 420 427 
f 418 419 428 
f 419 423 429 
f 423 417 431 
f 417 430 431 
f 430 424 431 
f 416 426 433 
f 414 415 435 
f 415 414 436 
f 414 427 436 
f 416 433 437 
f 422 413 438 
f 420 422 438 
f 429 423 439 
f 413 422 440 
f 432 413 440 
f 417 421 441 
f 437 433 441 
f 424 414 442 
f 423 431 442 
f 431 424 442 
f 414 435 442 
f 435 423 442 
f 433 426 443 
f 418 428 444 
f 428 432 444 
f 426 424 445 
f 424 430 445 
f 443 426 445 
f 430 443 445 
f 428 419 446 
f 419 434 446 
f 434 428 446 
f 421 416 447 
f 416 437 447 
f 441 421 447 
f 437 441 447 
f 419 429 448 
f 436 427 448 
f 429 436 448 
f 435 415 449 
f 415 436 449 
f 436 429 449 
f 429 439 449 
f 439 435 449 
f 423 435 450 
f 439 423 450 
f 435 439 450 
f 422 425 451 
f 440 422 451 
f 440 451 452 
f 425 418 452 
f 432 440 452 
f 418 444 452 
f 444 432 452 
f 451 425 452 
f 427 420 453 
f 434 419 453 
f 420 434 453 
f 419 448 453 
f 448 427 453 
f 432 428 454 
f 434 420 454 
f 428 434 454 
f 430 417 455 
f 417 441 455 
f 441 433 455 
f 443 430 455 
f 433 443 455 
f 413 432 456 
f 438 413 456 
f 420 438 456 
f 454 420 456 
o convex_9
v 0.039331 0.049744 0.014945
v -0.007655 0.038144 -0.021021
v -0.007655 0.038144 0.002760
v -0.000107 0.054967 0.001602
v 0.010910 0.054967 -0.017539
v 0.027728 0.038144 0.002760
v 0.003949 0.038144 0.014945
v 0.020767 0.054967 0.014945
v 0.030629 0.054967 -0.003038
v -0.005331 0.052064 -0.013477
v 0.003371 0.038144 -0.019278
v 0.032948 0.038144 0.014945
v 0.039331 0.054967 0.014945
v 0.003371 0.054967 0.007400
v -0.007655 0.048584 -0.010579
v 0.025991 0.049166 -0.005936
v 0.037012 0.049166 0.007981
v -0.001853 0.053226 -0.016377
v 0.014970 0.052645 -0.015800
v -0.002430 0.041625 0.009139
v 0.027151 0.042786 -0.001880
v 0.006268 0.052645 -0.019278
v -0.002430 0.052645 0.001018
v 0.014970 0.051486 0.014945
v -0.007655 0.044527 -0.018694
v 0.000471 0.040466 -0.021021
v 0.038749 0.054386 0.009720
v 0.035848 0.043368 0.011463
v -0.007655 0.041047 0.001602
v 0.030629 0.052645 -0.003038
v 0.005108 0.041047 0.014945
v -0.000107 0.054967 -0.004774
v 0.003949 0.052645 -0.019278
v -0.003590 0.052645 -0.001883
v 0.010328 0.050905 -0.018120
v -0.006490 0.041047 -0.021021
v -0.002430 0.052064 -0.017539
v 0.001630 0.054386 0.006242
v 0.032370 0.038144 0.010879
v -0.001853 0.040466 0.010301
v 0.025409 0.042786 -0.003615
v -0.001271 0.053804 -0.015216
v -0.004172 0.053226 -0.012318
v 0.033530 0.041625 0.008559
v 0.014970 0.054386 -0.015800
v 0.028310 0.053226 -0.005355
v -0.007655 0.045108 -0.003612
v 0.009168 0.054967 -0.017539
v -0.003008 0.038144 0.009139
v 0.013229 0.048584 -0.015800
f 475 472 506 
f 459 458 462 
f 459 462 463 
f 463 457 464 
f 461 460 464 
f 461 464 465 
f 462 458 467 
f 463 462 468 
f 457 463 468 
f 464 457 469 
f 465 464 469 
f 464 460 470 
f 458 459 471 
f 463 464 480 
f 464 470 480 
f 458 471 481 
f 471 466 481 
f 467 458 482 
f 469 457 483 
f 465 469 483 
f 457 473 483 
f 457 468 484 
f 473 457 484 
f 471 459 485 
f 459 476 485 
f 473 477 486 
f 465 483 486 
f 483 473 486 
f 463 480 487 
f 480 470 487 
f 460 461 488 
f 461 478 489 
f 466 471 490 
f 479 460 490 
f 485 479 490 
f 475 467 491 
f 478 461 491 
f 467 482 491 
f 482 478 491 
f 458 481 492 
f 482 458 492 
f 478 482 492 
f 489 478 492 
f 489 492 493 
f 466 474 493 
f 481 466 493 
f 474 489 493 
f 492 481 493 
f 470 460 494 
f 460 479 494 
f 485 476 494 
f 479 485 494 
f 468 462 495 
f 484 468 495 
f 476 459 496 
f 463 487 496 
f 487 470 496 
f 470 494 496 
f 494 476 496 
f 462 467 497 
f 467 472 497 
f 477 462 497 
f 472 486 497 
f 486 477 497 
f 488 498 499 
f 474 466 499 
f 460 488 499 
f 490 460 499 
f 466 490 499 
f 498 474 499 
f 462 477 500 
f 477 473 500 
f 473 484 500 
f 495 462 500 
f 484 495 500 
f 461 465 501 
f 491 461 501 
f 475 491 501 
f 472 475 502 
f 465 486 502 
f 486 472 502 
f 501 465 502 
f 475 501 502 
f 471 485 503 
f 490 471 503 
f 485 490 503 
f 488 461 504 
f 461 489 504 
f 489 474 504 
f 474 498 504 
f 498 488 504 
f 459 463 505 
f 496 459 505 
f 463 496 505 
f 472 467 506 
f 467 475 506 
o convex_10
v -0.001271 0.028284 0.035246
v 0.035853 0.043945 0.019588
v 0.035853 0.043945 0.014945
v 0.024248 0.019001 0.015527
v -0.007655 0.026543 0.014945
v 0.003371 0.043945 0.032347
v 0.018447 0.038141 0.034087
v 0.008009 0.043945 0.014945
v 0.006851 0.019001 0.027704
v -0.007655 0.019001 0.014945
v -0.005329 0.035243 0.031767
v 0.013230 0.027703 0.033507
v 0.028890 0.043364 0.029446
v -0.006492 0.024224 0.029444
v 0.013230 0.042204 0.035824
v 0.025989 0.027703 0.022489
v 0.001050 0.038141 0.035824
v 0.004530 0.027125 0.035824
v -0.000112 0.019001 0.027124
v -0.003592 0.037563 0.028866
v 0.027727 0.024803 0.014945
v 0.016705 0.019001 0.023067
v 0.019026 0.043945 0.034087
v -0.007071 0.030028 0.030605
v -0.001850 0.023064 0.032347
v -0.007655 0.019001 0.020166
v 0.008009 0.024224 0.033507
v 0.035269 0.043364 0.021328
v 0.005692 0.042204 0.014945
v 0.012072 0.034081 0.035824
v 0.002213 0.032342 0.036408
v 0.006851 0.043364 0.035246
v -0.003592 0.032342 0.034665
v 0.003371 0.043945 0.028286
v 0.022510 0.029447 0.027126
v 0.024248 0.019001 0.014945
v -0.000692 0.039882 0.034087
v 0.023089 0.024803 0.023067
v -0.006492 0.027125 0.031767
v 0.028310 0.025962 0.016107
v 0.027148 0.033502 0.025387
v 0.031206 0.031759 0.015527
v 0.010330 0.025962 0.034087
v -0.003592 0.022485 0.030605
v 0.000471 0.027125 0.035824
v -0.001850 0.031759 0.035824
v 0.028890 0.043945 0.029446
f 519 534 553 
f 508 509 512 
f 509 511 514 
f 512 509 514 
f 511 509 516 
f 510 515 516 
f 513 518 519 
f 516 515 525 
f 511 517 526 
f 516 509 527 
f 515 510 528 
f 508 512 529 
f 513 519 529 
f 521 513 529 
f 517 511 530 
f 525 515 531 
f 511 516 532 
f 516 525 532 
f 530 511 532 
f 515 528 533 
f 531 515 533 
f 514 511 535 
f 511 526 535 
f 518 513 536 
f 513 521 536 
f 524 536 537 
f 521 523 537 
f 536 521 537 
f 523 521 538 
f 529 512 538 
f 521 529 538 
f 517 530 539 
f 512 514 540 
f 526 512 540 
f 514 535 540 
f 535 526 540 
f 519 518 541 
f 510 516 542 
f 516 527 542 
f 527 510 542 
f 512 526 543 
f 526 517 543 
f 538 512 543 
f 523 538 543 
f 517 539 543 
f 539 523 543 
f 510 522 544 
f 528 510 544 
f 518 528 544 
f 541 518 544 
f 522 541 544 
f 530 532 545 
f 532 520 545 
f 539 530 545 
f 522 510 546 
f 510 527 546 
f 534 522 546 
f 534 519 547 
f 522 534 547 
f 519 541 547 
f 541 522 547 
f 509 508 548 
f 527 509 548 
f 508 534 548 
f 546 527 548 
f 534 546 548 
f 528 518 549 
f 524 533 549 
f 533 528 549 
f 518 536 549 
f 536 524 549 
f 525 531 550 
f 532 525 550 
f 520 532 550 
f 531 545 550 
f 545 520 550 
f 533 524 551 
f 531 533 551 
f 524 537 551 
f 507 545 551 
f 545 531 551 
f 537 523 552 
f 523 539 552 
f 545 507 552 
f 539 545 552 
f 551 537 552 
f 507 551 552 
f 508 529 553 
f 529 519 553 
f 534 508 553 
o convex_11
v 0.019033 0.053805 0.036986
v 0.008591 0.043945 0.014947
v 0.003947 0.043945 0.028285
v 0.035850 0.043945 0.020748
v 0.039907 0.054967 0.014947
v 0.008591 0.054387 0.025969
v 0.032366 0.045688 0.030025
v 0.019033 0.054387 0.014947
v 0.034108 0.054967 0.030605
v 0.006269 0.043945 0.034086
v 0.036426 0.043945 0.014947
v 0.009750 0.054967 0.034086
v 0.040493 0.053225 0.022488
v 0.019033 0.043945 0.034086
v 0.006849 0.053225 0.025389
v 0.031790 0.051484 0.032926
v 0.014973 0.054387 0.037566
v 0.006269 0.052065 0.031765
v 0.037013 0.048587 0.027125
v 0.021355 0.054967 0.014947
v 0.040493 0.050906 0.017847
v 0.021355 0.049167 0.035826
v 0.014390 0.050906 0.014947
v 0.031210 0.043945 0.028285
v 0.027726 0.054967 0.034086
v 0.016132 0.043945 0.034666
v 0.040493 0.054967 0.022488
v 0.004530 0.044526 0.032926
v 0.036426 0.050906 0.028865
v 0.027726 0.045688 0.032345
v 0.009750 0.053225 0.035246
v 0.009750 0.054967 0.026544
v 0.008591 0.044526 0.014947
v 0.039907 0.050906 0.014947
v 0.032366 0.044526 0.028865
v 0.013810 0.047428 0.035826
f 579 575 589 
f 556 555 557 
f 558 555 561 
f 556 557 563 
f 557 555 564 
f 555 558 564 
f 562 558 565 
f 563 557 567 
f 559 561 568 
f 565 559 568 
f 568 556 571 
f 565 568 571 
f 558 561 573 
f 565 558 573 
f 557 564 574 
f 572 557 574 
f 566 572 574 
f 569 554 575 
f 554 570 575 
f 561 555 576 
f 568 561 576 
f 567 557 577 
f 562 565 578 
f 554 569 578 
f 569 562 578 
f 570 554 578 
f 565 570 578 
f 563 567 579 
f 567 575 579 
f 558 562 580 
f 574 558 580 
f 566 574 580 
f 556 563 581 
f 571 556 581 
f 562 569 582 
f 569 560 582 
f 560 572 582 
f 572 566 582 
f 580 562 582 
f 566 580 582 
f 560 569 583 
f 575 567 583 
f 569 575 583 
f 570 565 584 
f 563 570 584 
f 565 571 584 
f 581 563 584 
f 571 581 584 
f 561 559 585 
f 559 565 585 
f 573 561 585 
f 565 573 585 
f 555 556 586 
f 556 568 586 
f 576 555 586 
f 568 576 586 
f 564 558 587 
f 574 564 587 
f 558 574 587 
f 557 572 588 
f 572 560 588 
f 577 557 588 
f 567 577 588 
f 560 583 588 
f 583 567 588 
f 570 563 589 
f 575 570 589 
f 563 579 589 
o convex_12
v -0.007073 0.023643 -0.021021
v 0.012067 0.038144 -0.003618
v 0.012067 0.037563 -0.003618
v -0.007653 0.019001 -0.003618
v -0.007653 0.038144 -0.003618
v -0.007653 0.038144 -0.021598
v 0.005105 0.019001 -0.004780
v 0.003947 0.032920 -0.018699
v -0.003013 0.019001 -0.017539
v -0.000112 0.038144 -0.021021
v -0.007653 0.019001 -0.019278
v 0.003365 0.027705 -0.017539
v 0.012067 0.037563 -0.005940
v 0.005105 0.019001 -0.003618
v 0.003365 0.019001 -0.010001
v -0.007073 0.030600 -0.022761
v 0.004526 0.038144 -0.018120
v 0.001628 0.029440 -0.019278
v -0.007653 0.035244 -0.022761
v 0.002207 0.019001 -0.012320
v 0.005105 0.028284 -0.014638
v -0.000112 0.034663 -0.021021
f 607 605 611 
f 592 591 593 
f 593 591 594 
f 594 591 595 
f 593 594 595 
f 596 593 598 
f 595 591 599 
f 593 595 600 
f 590 598 600 
f 598 593 600 
f 591 592 602 
f 592 596 602 
f 592 593 603 
f 596 592 603 
f 593 596 603 
f 596 598 604 
f 602 596 604 
f 590 600 605 
f 599 591 606 
f 597 599 606 
f 591 602 606 
f 602 597 606 
f 598 590 607 
f 597 601 607 
f 601 598 607 
f 590 605 607 
f 595 599 608 
f 600 595 608 
f 599 605 608 
f 605 600 608 
f 598 601 609 
f 604 598 609 
f 604 609 610 
f 601 597 610 
f 597 602 610 
f 602 604 610 
f 609 601 610 
f 599 597 611 
f 605 599 611 
f 597 607 611 
o convex_13
v 0.022506 0.037563 -0.000715
v 0.032368 0.038144 0.014945
v 0.032368 0.036983 0.014945
v -0.007651 0.027124 0.014945
v 0.023086 0.019001 0.002184
v -0.007651 0.038144 -0.003618
v -0.007651 0.019001 -0.003618
v 0.024250 0.019001 0.014945
v 0.003371 0.038144 0.014945
v -0.007651 0.019001 0.014945
v 0.016704 0.019001 -0.002457
v 0.012069 0.038144 -0.003618
v 0.027729 0.038144 0.002765
v -0.007651 0.038144 0.002763
v 0.031208 0.031762 0.010882
v 0.025410 0.019001 0.006824
v 0.005690 0.019001 -0.003618
v 0.031208 0.031183 0.014945
v 0.031208 0.035821 0.008561
v -0.003012 0.038144 0.009143
v 0.021927 0.020163 0.000443
v 0.024250 0.038144 -0.000137
v 0.025410 0.019001 0.012623
v 0.032368 0.038144 0.010882
f 626 630 635 
f 614 613 615 
f 615 617 618 
f 614 615 619 
f 618 616 619 
f 615 613 620 
f 613 617 620 
f 615 618 621 
f 619 615 621 
f 618 619 621 
f 616 618 622 
f 617 613 623 
f 618 617 623 
f 612 622 623 
f 623 613 624 
f 617 615 625 
f 620 617 625 
f 619 616 627 
f 616 626 627 
f 622 618 628 
f 618 623 628 
f 623 622 628 
f 614 619 629 
f 626 614 629 
f 627 626 629 
f 616 624 630 
f 626 616 630 
f 615 620 631 
f 625 615 631 
f 620 625 631 
f 616 622 632 
f 624 616 632 
f 624 632 633 
f 622 612 633 
f 612 623 633 
f 623 624 633 
f 632 622 633 
f 619 627 634 
f 629 619 634 
f 627 629 634 
f 613 614 635 
f 624 613 635 
f 614 626 635 
f 630 624 635 
