o convex_0
v -0.011092 -0.024441 -0.033764
v -0.048213 -0.005881 -0.031444
v -0.047633 -0.007041 -0.036088
v -0.007606 0.020224 -0.026223
v -0.012829 -0.002403 -0.055222
v -0.040089 -0.026180 -0.025061
v -0.040089 -0.024441 -0.044201
v -0.007606 -0.017475 -0.053483
v -0.007606 -0.019799 -0.025061
v -0.046472 0.002239 -0.025061
v -0.044151 -0.002403 -0.040145
v -0.012829 0.018480 -0.032025
v -0.018629 -0.003563 -0.055222
v -0.029070 -0.027924 -0.036088
v -0.013990 0.020224 -0.025064
v -0.007606 -0.013418 -0.055806
v -0.018629 0.001075 -0.052321
v -0.020370 -0.026176 -0.025064
v -0.045892 -0.017480 -0.025061
v -0.046472 -0.000084 -0.035507
v -0.007606 -0.022697 -0.044198
v -0.007606 0.001075 -0.048261
v -0.040089 -0.026180 -0.041881
v -0.045892 -0.015736 -0.038983
v -0.018629 -0.008780 -0.055222
v -0.040089 -0.020379 -0.044782
v -0.007606 0.017316 -0.032028
v -0.044731 -0.004722 -0.040719
v -0.026753 -0.027924 -0.027384
v -0.015731 -0.026176 -0.036085
v -0.030807 -0.025596 -0.043043
v -0.039508 -0.027340 -0.033187
v -0.015731 0.019060 -0.027965
v -0.044731 -0.000084 -0.037246
v -0.048213 -0.000084 -0.025061
v -0.042410 -0.024441 -0.034345
v -0.007606 0.020224 -0.025061
v -0.014570 0.001075 -0.052905
v -0.007606 -0.019219 -0.051743
v -0.013990 -0.024441 -0.026223
v -0.007606 -0.023282 -0.037827
v -0.011092 -0.001244 -0.053483
v -0.047633 -0.002403 -0.036088
v -0.011669 0.017900 -0.033187
v -0.045892 0.001075 -0.033187
v -0.007606 -0.011099 -0.055806
v -0.019789 0.001075 -0.051743
v -0.034870 -0.027924 -0.030285
v -0.040089 -0.023277 -0.044782
v -0.048213 -0.005881 -0.025061
v -0.017472 -0.000084 -0.054064
v -0.041249 -0.025596 -0.025061
v -0.045892 -0.017480 -0.032606
v -0.039508 -0.008780 -0.044201
v -0.016311 -0.026176 -0.031447
v -0.013410 0.017900 -0.032606
v -0.041249 -0.024441 -0.043043
v -0.045311 -0.016316 -0.040145
v -0.047633 -0.009939 -0.031444
v -0.048213 -0.000664 -0.031444
v -0.012829 0.020224 -0.028543
v -0.017472 -0.009935 -0.055222
v -0.030807 -0.026180 -0.041881
v -0.008187 -0.013418 -0.055806
f 49 62 64 
f 8 4 9 
f 6 9 10 
f 4 8 16 
f 9 6 18 
f 6 10 19 
f 8 9 21 
f 4 16 22 
f 13 25 26 
f 4 22 27 
f 11 13 28 
f 18 6 29 
f 14 21 30 
f 29 14 30 
f 23 7 31 
f 23 14 32 
f 10 15 33 
f 11 20 34 
f 19 10 35 
f 23 32 36 
f 9 4 37 
f 10 9 37 
f 4 15 37 
f 15 10 37 
f 7 8 39 
f 8 21 39 
f 31 7 39 
f 9 18 40 
f 21 9 41 
f 1 30 41 
f 30 21 41 
f 40 1 41 
f 9 40 41 
f 27 22 42 
f 5 38 42 
f 38 27 42 
f 3 2 43 
f 20 11 43 
f 11 28 43 
f 4 27 44 
f 27 38 44 
f 10 33 45 
f 33 20 45 
f 13 5 46 
f 22 16 46 
f 5 42 46 
f 42 22 46 
f 11 34 47 
f 14 29 48 
f 29 6 48 
f 6 32 48 
f 32 14 48 
f 26 25 49 
f 28 26 49 
f 35 2 50 
f 19 35 50 
f 5 13 51 
f 13 11 51 
f 38 5 51 
f 17 44 51 
f 44 38 51 
f 11 47 51 
f 47 17 51 
f 6 19 52 
f 32 6 52 
f 19 36 52 
f 36 32 52 
f 36 19 53 
f 24 36 53 
f 13 26 54 
f 28 13 54 
f 26 28 54 
f 18 29 55 
f 29 30 55 
f 30 1 55 
f 1 40 55 
f 40 18 55 
f 34 20 56 
f 12 44 56 
f 44 17 56 
f 17 47 56 
f 47 34 56 
f 7 23 57 
f 36 24 57 
f 23 36 57 
f 49 7 57 
f 49 57 58 
f 24 3 58 
f 3 43 58 
f 43 28 58 
f 28 49 58 
f 57 24 58 
f 2 3 59 
f 3 24 59 
f 50 2 59 
f 19 50 59 
f 53 19 59 
f 24 53 59 
f 2 35 60 
f 35 10 60 
f 43 2 60 
f 20 43 60 
f 10 45 60 
f 45 20 60 
f 15 4 61 
f 33 15 61 
f 20 33 61 
f 4 44 61 
f 44 12 61 
f 12 56 61 
f 56 20 61 
f 49 25 62 
f 21 14 63 
f 14 23 63 
f 23 31 63 
f 39 21 63 
f 31 39 63 
f 8 7 64 
f 16 8 64 
f 25 13 64 
f 13 46 64 
f 46 16 64 
f 7 49 64 
f 62 25 64 
o convex_1
v -0.026172 -0.026764 -0.025061
v -0.048213 -0.005884 -0.025061
v -0.048213 -0.005884 -0.023318
v -0.025592 0.008622 -0.025061
v -0.041251 -0.014582 -0.004758
v -0.025592 -0.000083 -0.008240
v -0.047050 -0.000661 -0.009402
v -0.040670 -0.025604 -0.025061
v -0.025589 -0.020962 -0.010561
v -0.043569 -0.020962 -0.011139
v -0.045892 0.002820 -0.024481
v -0.026170 0.008040 -0.018679
v -0.047631 -0.011676 -0.009402
v -0.045892 -0.017481 -0.025061
v -0.045312 -0.008784 -0.004758
v -0.025589 -0.014000 -0.007659
v -0.041831 -0.020962 -0.008820
v -0.025589 -0.026182 -0.021579
v -0.044149 0.003399 -0.018677
v -0.048213 -0.000083 -0.025061
v -0.047631 -0.002982 -0.007659
v -0.027912 -0.026182 -0.020416
v -0.025592 0.006298 -0.015199
v -0.040088 -0.008202 -0.004758
v -0.045892 -0.002403 -0.007079
v -0.041831 -0.022701 -0.012302
v -0.044732 -0.015157 -0.005918
v -0.045312 0.000499 -0.009979
v -0.025592 -0.001243 -0.007659
v -0.025589 -0.019802 -0.009402
v -0.045312 -0.018641 -0.013461
v -0.037189 -0.020962 -0.008820
v -0.047631 0.000499 -0.014621
v -0.026752 0.008622 -0.022738
v -0.025589 -0.026182 -0.025061
v -0.037189 -0.026182 -0.024481
v -0.044149 0.001660 -0.011720
v -0.047631 -0.009940 -0.007659
v -0.026170 0.003977 -0.012302
v -0.037769 -0.019802 -0.007659
v -0.045312 -0.016317 -0.007659
v -0.044149 0.003399 -0.025061
v -0.025589 -0.023861 -0.015776
f 96 86 107 
f 65 66 68 
f 66 65 72 
f 67 66 77 
f 66 72 78 
f 77 66 78 
f 80 73 82 
f 66 67 84 
f 68 66 84 
f 84 67 85 
f 65 82 86 
f 68 76 87 
f 70 80 87 
f 80 68 87 
f 79 69 88 
f 69 80 88 
f 71 85 89 
f 85 79 89 
f 79 88 89 
f 74 72 90 
f 81 74 90 
f 69 79 91 
f 81 69 91 
f 71 89 92 
f 80 70 93 
f 88 80 93 
f 70 89 93 
f 89 88 93 
f 80 69 94 
f 73 80 94 
f 72 74 95 
f 77 78 95 
f 78 72 95 
f 81 90 96 
f 90 86 96 
f 73 94 96 
f 83 75 97 
f 75 84 97 
f 85 71 97 
f 84 85 97 
f 71 92 97 
f 76 68 98 
f 83 76 98 
f 65 68 99 
f 68 80 99 
f 82 65 99 
f 80 82 99 
f 72 65 100 
f 65 86 100 
f 90 72 100 
f 86 90 100 
f 76 83 101 
f 87 76 101 
f 92 87 101 
f 83 97 101 
f 97 92 101 
f 67 77 102 
f 85 67 102 
f 79 85 102 
f 91 79 102 
f 70 87 103 
f 89 70 103 
f 87 92 103 
f 92 89 103 
f 69 81 104 
f 94 69 104 
f 81 96 104 
f 96 94 104 
f 74 81 105 
f 81 91 105 
f 95 74 105 
f 77 95 105 
f 102 77 105 
f 91 102 105 
f 75 83 106 
f 68 84 106 
f 84 75 106 
f 98 68 106 
f 83 98 106 
f 82 73 107 
f 86 82 107 
f 73 96 107 
o convex_2
v -0.012825 -0.027921 -0.003017
v 0.015597 -0.015163 0.019603
v 0.015016 -0.015163 0.021924
v -0.013986 -0.015165 0.008585
v -0.003542 -0.027921 0.028308
v 0.008635 -0.023864 -0.003017
v 0.008056 -0.015163 -0.003017
v -0.003542 -0.015165 0.028308
v 0.000515 -0.030822 0.007426
v 0.003414 -0.027342 0.028308
v -0.009926 -0.015165 -0.003017
v -0.008184 -0.032563 -0.003017
v -0.007605 -0.024441 0.028308
v 0.005154 -0.028502 -0.003017
v -0.014568 -0.015744 0.013225
v 0.010374 -0.015163 0.027725
v -0.013407 -0.026182 0.005105
v 0.015597 -0.015744 0.010327
v 0.006896 -0.026761 0.008006
v -0.009344 -0.015165 0.023665
v -0.013986 -0.024441 -0.001855
v -0.002388 -0.030822 0.013801
v -0.002966 -0.032563 -0.003017
v -0.008765 -0.029662 0.009165
v -0.008184 -0.019805 0.028308
v 0.015597 -0.015744 0.019603
v 0.005732 -0.025022 0.028308
v 0.008635 -0.025022 0.002787
v 0.009217 -0.018064 -0.003017
v 0.005154 -0.028502 0.006264
v -0.013986 -0.020965 -0.000117
v -0.011665 -0.029662 -0.000117
v -0.013986 -0.025022 0.005105
v -0.008184 -0.026761 0.020765
v 0.002251 -0.027921 0.028308
v -0.008184 -0.032563 -0.001855
v 0.008056 -0.020384 0.028308
v 0.015597 -0.015163 0.010327
v -0.009344 -0.023285 0.024242
v 0.013277 -0.015744 0.024824
f 144 134 147 
f 110 109 114 
f 113 108 114 
f 115 112 117 
f 111 114 118 
f 114 108 118 
f 108 113 119 
f 112 115 120 
f 119 113 121 
f 110 114 123 
f 114 111 123 
f 111 122 127 
f 123 111 127 
f 115 123 127 
f 118 108 128 
f 121 116 130 
f 119 121 130 
f 116 129 130 
f 120 115 132 
f 115 127 132 
f 127 122 132 
f 109 110 133 
f 125 109 133 
f 126 133 134 
f 115 117 134 
f 117 126 134 
f 133 110 134 
f 121 113 135 
f 113 125 135 
f 126 121 135 
f 125 133 135 
f 133 126 135 
f 113 114 136 
f 125 113 136 
f 117 116 137 
f 116 121 137 
f 121 126 137 
f 126 117 137 
f 111 118 138 
f 122 111 138 
f 118 128 138 
f 128 122 138 
f 108 119 139 
f 124 108 139 
f 108 124 140 
f 124 120 140 
f 128 108 140 
f 122 128 140 
f 112 120 141 
f 120 124 141 
f 131 112 141 
f 124 139 141 
f 139 131 141 
f 116 117 142 
f 117 112 142 
f 129 116 142 
f 112 129 142 
f 129 112 143 
f 119 130 143 
f 130 129 143 
f 112 131 143 
f 139 119 143 
f 131 139 143 
f 123 115 144 
f 115 134 144 
f 114 109 145 
f 109 125 145 
f 136 114 145 
f 125 136 145 
f 120 132 146 
f 132 122 146 
f 140 120 146 
f 122 140 146 
f 110 123 147 
f 134 110 147 
f 123 144 147 
o convex_3
v -0.008185 -0.021543 0.029472
v 0.010955 -0.018644 0.079351
v 0.009214 -0.016903 0.079356
v 0.007473 -0.016903 0.029472
v 0.002253 -0.027924 0.028308
v -0.000063 -0.023863 0.078771
v 0.001674 -0.015162 0.076453
v -0.003543 -0.015162 0.028308
v 0.008633 -0.025603 0.070072
v -0.003543 -0.027924 0.028308
v -0.001802 -0.017483 0.076453
v 0.008054 -0.020384 0.028308
v 0.003993 -0.026183 0.077027
v 0.007473 -0.015162 0.060213
v -0.002964 -0.022702 0.071226
v 0.010955 -0.022123 0.065435
v -0.007023 -0.017483 0.030631
v 0.005734 -0.025023 0.028308
v 0.004574 -0.015162 0.028308
v 0.010376 -0.023282 0.079351
v -0.007604 -0.024441 0.028308
v -0.000642 -0.025603 0.068908
v 0.001095 -0.027924 0.050354
v -0.001223 -0.018063 0.079356
v 0.010955 -0.018644 0.067753
v 0.006894 -0.015162 0.079356
v -0.006444 -0.019223 0.045132
v 0.010376 -0.016903 0.077032
v -0.005284 -0.026764 0.031211
v 0.009214 -0.024441 0.058469
v -0.002383 -0.021543 0.077027
v 0.007473 -0.026183 0.070651
v -0.000642 -0.016323 0.076453
v 0.009795 -0.019223 0.046876
v 0.007473 -0.026183 0.058469
v -0.008185 -0.019804 0.028308
v 0.003413 -0.025023 0.079356
v 0.008054 -0.022123 0.033529
v -0.004124 -0.025023 0.051513
v 0.008633 -0.015744 0.060213
v 0.008054 -0.017483 0.030052
v 0.002253 -0.027924 0.050354
v 0.008054 -0.025023 0.078771
v -0.002964 -0.019223 0.072970
v -0.004703 -0.022123 0.059044
v 0.003413 -0.027342 0.028308
v -0.004703 -0.015744 0.028892
v 0.000517 -0.026183 0.068908
f 170 160 195 
f 155 152 157 
f 152 155 159 
f 155 154 161 
f 152 159 165 
f 151 159 166 
f 159 155 166 
f 155 161 166 
f 149 150 167 
f 163 149 167 
f 156 163 167 
f 155 157 168 
f 153 162 169 
f 157 152 170 
f 149 163 172 
f 161 154 173 
f 171 150 173 
f 154 171 173 
f 158 164 174 
f 150 149 175 
f 149 172 175 
f 173 150 175 
f 168 157 176 
f 157 169 176 
f 163 156 177 
f 162 153 178 
f 153 171 178 
f 164 158 180 
f 171 154 180 
f 158 171 180 
f 163 159 181 
f 172 163 181 
f 177 156 182 
f 165 177 182 
f 179 152 182 
f 156 179 182 
f 168 148 183 
f 155 168 183 
f 148 174 183 
f 174 164 183 
f 153 160 184 
f 167 150 184 
f 150 171 184 
f 171 153 184 
f 159 163 185 
f 165 159 185 
f 163 177 185 
f 177 165 185 
f 162 168 186 
f 169 162 186 
f 168 176 186 
f 176 169 186 
f 151 166 187 
f 166 161 187 
f 161 173 187 
f 173 175 187 
f 187 175 188 
f 159 151 188 
f 175 172 188 
f 181 159 188 
f 172 181 188 
f 151 187 188 
f 170 152 189 
f 160 170 189 
f 152 179 189 
f 179 160 189 
f 156 167 190 
f 179 156 190 
f 160 179 190 
f 184 160 190 
f 167 184 190 
f 171 158 191 
f 158 174 191 
f 178 171 191 
f 178 191 192 
f 148 168 192 
f 168 162 192 
f 174 148 192 
f 162 178 192 
f 191 174 192 
f 152 165 193 
f 182 152 193 
f 165 182 193 
f 154 155 194 
f 180 154 194 
f 164 180 194 
f 155 183 194 
f 183 164 194 
f 160 153 195 
f 153 169 195 
f 169 157 195 
f 157 170 195 
o convex_4
v -0.006446 0.007462 0.043970
v 0.026039 0.006300 0.079356
v 0.026039 0.005139 0.079356
v 0.020236 0.009778 0.043970
v 0.008636 -0.011101 0.043970
v 0.002839 0.012680 0.079356
v 0.009218 -0.004719 0.079356
v 0.012115 0.018483 0.043970
v 0.017918 0.016740 0.077610
v -0.004704 -0.004140 0.044552
v 0.018496 -0.005880 0.043970
v 0.020236 -0.004719 0.078192
v -0.000061 0.016743 0.044552
v 0.001678 0.006300 0.077610
v 0.008057 0.016743 0.079356
v 0.023136 0.013259 0.073554
v 0.006896 -0.011101 0.049772
v 0.015018 -0.007618 0.075872
v 0.021975 0.004557 0.048037
v 0.015018 -0.009358 0.052675
v 0.024875 0.001082 0.072390
v 0.010375 0.018483 0.064850
v -0.001222 -0.008200 0.043970
v -0.004704 0.012680 0.043970
v 0.015596 0.016740 0.043970
v -0.006446 0.000503 0.044552
v 0.003996 0.018483 0.043970
v 0.006318 -0.001817 0.078774
v -0.000061 0.009781 0.071809
v 0.021975 0.013841 0.079356
v 0.026039 0.007462 0.077035
v 0.011533 -0.006459 0.078774
v 0.019657 0.012098 0.044552
v 0.024297 -0.000077 0.079356
v 0.001678 0.013841 0.071234
v 0.020236 -0.001238 0.043970
v 0.010954 -0.011101 0.048615
v 0.000518 -0.009361 0.045131
v 0.015018 -0.009358 0.043970
v 0.002839 0.002243 0.076453
v 0.021396 0.015000 0.074715
v 0.023136 -0.001817 0.074133
v -0.005864 0.010360 0.044552
v 0.021975 0.006879 0.048037
v 0.024875 0.009778 0.072972
v 0.016757 -0.005880 0.079356
v -0.002964 -0.006459 0.044552
v 0.006318 0.016743 0.074133
v 0.024875 0.003404 0.068331
v 0.002839 0.005139 0.079356
v -0.006446 0.007462 0.045131
v 0.016757 0.016740 0.079356
v 0.012115 0.018483 0.064268
v 0.018496 0.013841 0.043970
v 0.016757 0.016740 0.052675
v 0.004575 -0.011101 0.043970
v 0.002839 0.013262 0.078774
v 0.008057 -0.004719 0.077035
v 0.023718 0.012680 0.077610
v 0.014436 -0.009358 0.059055
v -0.001804 0.006879 0.064850
v -0.003543 0.013841 0.045131
v 0.001096 0.010940 0.075872
f 252 238 258 
f 196 199 200 
f 198 197 201 
f 198 201 202 
f 199 196 203 
f 200 199 206 
f 201 197 210 
f 196 200 218 
f 203 196 219 
f 199 203 220 
f 196 218 221 
f 218 205 221 
f 217 203 222 
f 203 219 222 
f 219 208 222 
f 210 197 225 
f 197 198 226 
f 212 213 227 
f 198 202 229 
f 216 198 229 
f 206 199 231 
f 199 214 231 
f 216 206 231 
f 212 200 232 
f 213 212 232 
f 212 227 233 
f 200 206 234 
f 207 215 234 
f 232 200 234 
f 215 232 234 
f 209 221 235 
f 221 205 235 
f 205 223 235 
f 204 225 236 
f 206 216 237 
f 229 207 237 
f 216 229 237 
f 234 206 237 
f 207 234 237 
f 219 196 238 
f 214 199 239 
f 199 228 239 
f 239 228 240 
f 228 211 240 
f 226 239 240 
f 213 207 241 
f 202 227 241 
f 227 213 241 
f 229 202 241 
f 207 229 241 
f 205 218 242 
f 223 205 242 
f 218 233 242 
f 210 217 243 
f 222 208 243 
f 217 222 243 
f 208 230 243 
f 198 216 244 
f 226 198 244 
f 231 214 244 
f 216 231 244 
f 214 239 244 
f 239 226 244 
f 202 201 245 
f 201 209 245 
f 223 202 245 
f 209 235 245 
f 235 223 245 
f 196 221 246 
f 238 196 246 
f 217 210 247 
f 210 225 247 
f 225 204 247 
f 204 203 248 
f 203 217 248 
f 247 204 248 
f 217 247 248 
f 199 220 249 
f 220 211 249 
f 228 199 249 
f 211 228 249 
f 203 204 250 
f 220 203 250 
f 211 220 250 
f 204 236 250 
f 236 211 250 
f 200 212 251 
f 218 200 251 
f 212 233 251 
f 233 218 251 
f 201 210 252 
f 230 219 252 
f 219 238 252 
f 210 243 252 
f 243 230 252 
f 202 223 253 
f 227 202 253 
f 233 227 253 
f 223 242 253 
f 242 233 253 
f 225 197 254 
f 197 226 254 
f 211 236 254 
f 236 225 254 
f 240 211 254 
f 226 240 254 
f 207 213 255 
f 215 207 255 
f 213 232 255 
f 232 215 255 
f 221 209 256 
f 209 224 256 
f 246 221 256 
f 224 246 256 
f 208 219 257 
f 230 208 257 
f 219 230 257 
f 209 201 258 
f 224 209 258 
f 246 224 258 
f 238 246 258 
f 201 252 258 
o convex_5
v 0.017916 0.020221 -0.024480
v -0.025589 -0.026184 -0.025061
v -0.020364 -0.026184 -0.025061
v -0.025589 -0.023859 -0.015779
v -0.018626 0.016734 -0.025061
v 0.017916 0.006297 -0.015779
v 0.003413 0.025437 -0.015779
v -0.025589 0.006880 -0.015779
v 0.019074 -0.001233 -0.025061
v -0.001222 -0.022119 -0.015779
v 0.002832 0.030085 -0.025061
v -0.025589 0.009199 -0.025061
v -0.017463 0.016734 -0.016940
v 0.012696 -0.011676 -0.015779
v 0.024299 0.006297 -0.025061
v 0.013272 0.021956 -0.015779
v -0.001222 -0.019795 -0.022741
v 0.008633 0.028918 -0.021000
v 0.024299 0.011518 -0.023901
v -0.018045 0.017896 -0.021000
v -0.001803 -0.018054 -0.025061
v 0.003994 0.029502 -0.021000
v 0.017335 0.015577 -0.015779
v 0.009214 0.028918 -0.025061
v 0.017335 -0.000076 -0.015779
v 0.000512 -0.020378 -0.019841
v 0.022555 0.015577 -0.025061
v -0.023846 -0.026184 -0.022160
v -0.002384 -0.022697 -0.015779
v 0.008057 0.027756 -0.018100
v -0.015144 0.019642 -0.019841
v -0.016882 0.015577 -0.015779
v -0.015725 0.019642 -0.024480
v 0.015592 -0.006454 -0.015779
v 0.023132 0.003399 -0.024480
v 0.024299 0.007459 -0.023901
v 0.011534 0.026021 -0.019841
v 0.001093 0.029502 -0.024480
v -0.014563 0.018475 -0.016940
v -0.025589 0.008037 -0.017520
v 0.011534 -0.012260 -0.017520
v -0.025003 -0.025016 -0.018100
v 0.022555 0.015577 -0.024480
v 0.002832 0.027756 -0.018680
v -0.001803 -0.022119 -0.018100
v 0.008057 0.025437 -0.015779
f 274 288 304 
f 261 260 263 
f 262 264 265 
f 260 262 266 
f 262 265 266 
f 261 263 267 
f 264 262 268 
f 267 263 269 
f 263 260 270 
f 260 266 270 
f 264 268 272 
f 267 269 273 
f 265 264 274 
f 263 270 278 
f 261 267 279 
f 275 261 279 
f 267 275 279 
f 276 269 280 
f 274 264 281 
f 264 277 281 
f 273 269 282 
f 269 276 282 
f 264 272 283 
f 272 268 284 
f 275 267 284 
f 277 273 285 
f 282 259 285 
f 273 282 285 
f 260 261 286 
f 268 262 287 
f 286 261 287 
f 276 280 288 
f 278 271 289 
f 266 265 290 
f 271 266 290 
f 269 263 291 
f 263 278 291 
f 278 289 291 
f 283 272 292 
f 272 267 293 
f 267 273 293 
f 292 272 293 
f 292 293 294 
f 273 277 294 
f 277 264 294 
f 264 283 294 
f 283 292 294 
f 293 273 294 
f 259 282 295 
f 282 276 295 
f 288 274 295 
f 276 288 295 
f 280 269 296 
f 289 280 296 
f 269 291 296 
f 291 289 296 
f 289 271 297 
f 280 289 297 
f 290 265 297 
f 271 290 297 
f 270 266 298 
f 266 271 298 
f 278 270 298 
f 271 278 298 
f 267 272 299 
f 284 267 299 
f 272 284 299 
f 262 260 300 
f 260 286 300 
f 287 262 300 
f 286 287 300 
f 274 281 301 
f 281 277 301 
f 285 259 301 
f 277 285 301 
f 259 295 301 
f 295 274 301 
f 265 288 302 
f 288 280 302 
f 297 265 302 
f 280 297 302 
f 261 275 303 
f 284 268 303 
f 275 284 303 
f 268 287 303 
f 287 261 303 
f 265 274 304 
f 288 265 304 
o convex_6
v 0.013856 -0.014581 0.005684
v 0.011531 0.015583 -0.001856
v 0.011531 0.015583 -0.003017
v -0.021529 -0.005878 -0.003017
v -0.001230 0.013260 0.005684
v 0.008052 -0.015162 -0.003017
v -0.015725 -0.011099 0.005684
v -0.018625 0.009200 -0.002437
v 0.017335 0.002239 0.005684
v 0.014435 -0.007036 -0.003017
v -0.010505 -0.015162 -0.003017
v -0.015142 -0.000078 0.005684
v -0.002385 0.015583 -0.003017
v -0.004705 -0.015162 0.005684
v 0.014435 0.009197 0.005684
v 0.013856 0.012101 -0.003017
v 0.017918 -0.005878 0.005103
v -0.020946 0.002239 -0.001276
v 0.007473 0.013841 0.005103
v 0.013856 -0.010518 -0.003017
v -0.020363 0.006880 -0.003017
v -0.011663 0.009200 0.002783
v -0.016304 -0.011680 -0.003017
v -0.001805 0.015583 -0.001276
v 0.015597 -0.013420 0.005103
v -0.018046 0.008041 -0.000696
v 0.006311 -0.015162 0.005684
v 0.017335 -0.009360 0.005684
v -0.012242 0.012101 -0.002437
v 0.017918 -0.002399 0.005103
v -0.020946 -0.005300 -0.001276
f 311 322 335 
f 308 307 310 
f 305 309 311 
f 309 305 313 
f 310 307 314 
f 308 310 315 
f 311 309 316 
f 306 307 317 
f 307 308 317 
f 305 311 318 
f 315 310 318 
f 311 315 318 
f 309 313 319 
f 319 313 320 
f 307 306 320 
f 314 307 320 
f 306 319 320 
f 311 316 322 
f 319 306 323 
f 309 319 323 
f 310 314 324 
f 314 321 324 
f 317 308 325 
f 312 317 325 
f 308 322 325 
f 309 312 326 
f 316 309 326 
f 311 308 327 
f 308 315 327 
f 315 311 327 
f 306 317 328 
f 323 306 328 
f 309 323 328 
f 305 310 329 
f 310 324 329 
f 322 316 330 
f 312 325 330 
f 325 322 330 
f 326 312 330 
f 316 326 330 
f 310 305 331 
f 305 318 331 
f 318 310 331 
f 313 305 332 
f 321 313 332 
f 324 321 332 
f 305 329 332 
f 329 324 332 
f 312 309 333 
f 317 312 333 
f 309 328 333 
f 328 317 333 
f 320 313 334 
f 314 320 334 
f 321 314 334 
f 313 321 334 
f 308 311 335 
f 322 308 335 
o convex_7
v 0.020238 -0.006456 0.015548
v -0.016304 -0.012838 0.005684
v -0.016304 -0.000076 0.005684
v -0.006446 0.000504 0.043970
v 0.007474 0.020804 0.025981
v 0.013854 -0.010518 0.043970
v 0.018496 0.013259 0.043970
v 0.016175 0.009197 0.006265
v -0.013405 0.016741 0.020188
v 0.013276 -0.015162 0.005684
v -0.010506 -0.015162 0.024827
v 0.003411 0.018477 0.043970
v -0.000062 0.013256 0.005684
v -0.016886 -0.003558 0.020188
v 0.015597 -0.015162 0.022507
v 0.020238 -0.000657 0.043970
v 0.018496 0.013837 0.019607
v 0.002254 0.020804 0.015548
v -0.005864 0.010939 0.043970
v 0.006314 -0.012258 0.042808
v 0.020238 0.004560 0.011485
v -0.013983 0.005137 0.030625
v -0.018628 0.002821 0.009166
v -0.011666 -0.012258 0.028305
v -0.015147 -0.015162 0.013809
v -0.007025 0.020223 0.020188
v 0.018496 -0.005294 0.005684
v -0.011666 0.014998 0.013228
v 0.013276 0.018480 0.039327
v -0.000062 -0.009357 0.043970
v 0.020238 0.009778 0.043970
v 0.016175 0.016160 0.018449
v 0.018496 -0.012258 0.012647
v 0.009213 -0.015158 0.030625
v -0.018628 -0.008198 0.010908
v 0.018496 -0.005878 0.043970
v -0.013983 -0.015162 0.006846
v -0.015147 0.009197 0.024827
v -0.013405 -0.010518 0.026566
v -0.008767 0.018480 0.025981
v 0.005732 0.013256 0.005684
v -0.005286 -0.004136 0.043970
v -0.004122 0.013837 0.043970
v 0.012116 0.018480 0.043970
v 0.002254 0.020219 0.013809
v 0.012116 0.019639 0.025404
v 0.002254 0.020219 0.033526
v -0.010506 0.009778 0.008008
v -0.013405 0.016741 0.016706
v -0.016886 -0.012838 0.014386
v -0.007603 0.001663 0.042808
v -0.018628 0.001085 0.012647
v 0.015597 0.016741 0.043970
v 0.013854 0.016160 0.014967
v 0.016753 -0.014000 0.008585
v -0.016304 0.010358 0.016706
v -0.012244 0.012101 0.029467
v -0.002383 0.020804 0.016706
v 0.017335 0.010939 0.009747
v 0.011534 -0.012258 0.041647
v 0.017335 0.004560 0.005684
v -0.018046 -0.008198 0.006846
v 0.020238 0.006880 0.014967
v 0.020238 -0.004717 0.011485
f 368 362 399 
f 339 341 342 
f 337 338 345 
f 339 342 347 
f 345 338 348 
f 346 345 350 
f 342 341 351 
f 339 347 354 
f 351 336 356 
f 345 346 360 
f 346 359 360 
f 345 348 362 
f 341 339 365 
f 355 341 365 
f 346 355 365 
f 359 346 365 
f 342 351 366 
f 352 342 366 
f 351 356 366 
f 346 350 369 
f 355 346 369 
f 341 350 371 
f 336 351 371 
f 351 341 371 
f 350 368 371 
f 368 336 371 
f 337 345 372 
f 360 337 372 
f 345 360 372 
f 357 349 374 
f 347 361 375 
f 361 344 375 
f 362 348 376 
f 365 339 377 
f 359 365 377 
f 374 359 377 
f 354 347 378 
f 347 375 378 
f 375 344 378 
f 347 342 379 
f 364 340 379 
f 348 363 380 
f 376 348 380 
f 353 340 381 
f 340 364 381 
f 361 347 382 
f 379 340 382 
f 347 379 382 
f 348 338 383 
f 338 358 383 
f 363 348 383 
f 358 363 383 
f 344 361 384 
f 363 358 384 
f 337 360 385 
f 360 359 385 
f 370 337 385 
f 349 370 385 
f 374 349 385 
f 359 374 385 
f 339 354 386 
f 354 357 386 
f 357 374 386 
f 377 339 386 
f 374 377 386 
f 349 357 387 
f 358 370 387 
f 370 349 387 
f 357 373 387 
f 342 352 388 
f 352 367 388 
f 379 342 388 
f 364 379 388 
f 381 364 388 
f 367 381 388 
f 343 376 389 
f 380 353 389 
f 376 380 389 
f 353 381 389 
f 381 367 389 
f 350 345 390 
f 345 362 390 
f 368 350 390 
f 362 368 390 
f 373 344 391 
f 344 384 391 
f 384 358 391 
f 358 387 391 
f 387 373 391 
f 357 354 392 
f 344 373 392 
f 373 357 392 
f 354 378 392 
f 378 344 392 
f 340 353 393 
f 353 380 393 
f 380 363 393 
f 382 340 393 
f 361 382 393 
f 384 361 393 
f 363 384 393 
f 356 343 394 
f 367 352 394 
f 343 389 394 
f 389 367 394 
f 350 341 395 
f 341 355 395 
f 369 350 395 
f 355 369 395 
f 343 356 396 
f 356 362 396 
f 376 343 396 
f 362 376 396 
f 338 337 397 
f 358 338 397 
f 337 370 397 
f 370 358 397 
f 352 366 398 
f 366 356 398 
f 356 394 398 
f 394 352 398 
f 356 336 399 
f 362 356 399 
f 336 368 399 
o convex_8
v -0.001223 -0.021543 -0.050007
v 0.039961 0.016743 -0.058125
v 0.039961 0.016743 -0.062186
v 0.003419 0.016743 -0.047686
v -0.000641 0.001078 -0.062186
v 0.032418 0.010938 -0.046526
v 0.013859 -0.016319 -0.062186
v -0.007606 -0.021543 -0.046526
v 0.026617 -0.002400 -0.050007
v -0.007606 0.001659 -0.046526
v -0.005860 -0.013999 -0.059285
v 0.019656 0.016743 -0.062186
v 0.030677 -0.002977 -0.061605
v 0.002260 -0.020381 -0.046526
v 0.032418 0.016743 -0.046526
v 0.003419 -0.018642 -0.061025
v 0.001101 0.005721 -0.061605
v 0.036479 0.007456 -0.056385
v 0.014441 -0.016319 -0.059865
v -0.007606 -0.011679 -0.056385
v 0.003419 0.016743 -0.046526
v 0.028358 0.003398 -0.046526
v -0.004124 -0.002400 -0.059865
v -0.002960 0.008618 -0.048847
v 0.010376 -0.018061 -0.062186
v -0.002382 -0.016900 -0.060444
v 0.038220 0.009776 -0.062186
v 0.025457 -0.006459 -0.056385
v 0.015600 0.016743 -0.059865
v -0.007606 -0.019800 -0.051166
v 0.003419 -0.019800 -0.059865
v -0.000641 -0.005297 -0.062186
v 0.002837 0.006879 -0.062186
v 0.035319 0.010938 -0.050587
v 0.030095 -0.003558 -0.059865
v 0.006316 -0.019800 -0.058125
v 0.028935 -0.004716 -0.062186
v -0.002960 0.000497 -0.059865
v 0.025457 -0.000080 -0.046526
v 0.024875 -0.004139 -0.050007
v -0.007606 -0.001242 -0.050007
v 0.032996 0.008037 -0.048847
v -0.001800 -0.015742 -0.061025
v 0.012699 -0.016319 -0.055804
v 0.038220 0.009199 -0.060444
v -0.002960 -0.018061 -0.059285
v -0.007024 -0.021543 -0.048267
v -0.004701 -0.012841 -0.060444
v 0.036479 0.016743 -0.051747
v 0.010958 -0.018061 -0.057545
v -0.000063 -0.021543 -0.047686
v 0.039961 0.015581 -0.058125
v 0.006316 -0.016319 -0.062186
f 442 431 452 
f 401 402 403 
f 404 402 406 
f 407 405 409 
f 403 402 411 
f 402 404 411 
f 405 407 413 
f 401 403 414 
f 409 405 414 
f 407 409 419 
f 414 403 420 
f 409 414 420 
f 405 413 421 
f 410 419 422 
f 403 416 423 
f 420 403 423 
f 409 420 423 
f 404 406 424 
f 406 418 424 
f 406 402 426 
f 403 411 428 
f 407 419 429 
f 419 410 429 
f 415 424 430 
f 404 424 431 
f 411 404 432 
f 416 403 432 
f 404 416 432 
f 403 428 432 
f 428 411 432 
f 417 408 434 
f 427 418 434 
f 400 430 435 
f 430 424 435 
f 418 406 436 
f 406 426 436 
f 426 412 436 
f 412 434 436 
f 434 418 436 
f 416 404 437 
f 404 422 437 
f 423 416 437 
f 409 423 437 
f 408 421 438 
f 421 413 438 
f 434 408 439 
f 427 434 439 
f 408 438 439 
f 438 413 439 
f 419 409 440 
f 422 419 440 
f 437 422 440 
f 409 437 440 
f 408 417 441 
f 421 408 441 
f 405 421 441 
f 433 405 441 
f 417 433 441 
f 415 425 442 
f 418 427 443 
f 439 413 443 
f 427 439 443 
f 426 402 444 
f 412 426 444 
f 417 434 444 
f 434 412 444 
f 410 425 445 
f 425 415 445 
f 429 410 445 
f 415 430 445 
f 445 430 446 
f 400 407 446 
f 407 429 446 
f 430 400 446 
f 429 445 446 
f 422 404 447 
f 410 422 447 
f 425 410 447 
f 404 431 447 
f 442 425 447 
f 431 442 447 
f 401 414 448 
f 414 405 448 
f 405 433 448 
f 424 418 449 
f 435 424 449 
f 443 413 449 
f 418 443 449 
f 407 400 450 
f 413 407 450 
f 400 435 450 
f 449 413 450 
f 435 449 450 
f 402 401 451 
f 433 417 451 
f 444 402 451 
f 417 444 451 
f 401 448 451 
f 448 433 451 
f 424 415 452 
f 431 424 452 
f 415 442 452 
o convex_9
v 0.037060 0.016743 -0.052907
v 0.015600 0.037047 -0.061025
v 0.015600 0.037047 -0.061606
v 0.008059 0.016743 -0.052327
v 0.019660 0.016743 -0.062187
v 0.015600 0.034143 -0.051166
v 0.039961 0.021964 -0.062187
v 0.006317 0.031243 -0.060445
v 0.033000 0.030663 -0.056388
v 0.003998 0.032404 -0.051166
v 0.035318 0.020225 -0.051166
v 0.039961 0.016743 -0.062187
v 0.006317 0.024866 -0.060445
v 0.031834 0.031824 -0.062187
v 0.009218 0.033563 -0.062187
v 0.008059 0.016743 -0.051166
v 0.031834 0.028344 -0.051747
v 0.003415 0.027761 -0.051747
v 0.037060 0.025446 -0.055807
v 0.021975 0.035304 -0.057545
v 0.035894 0.016743 -0.051166
v 0.027194 0.031824 -0.052907
v 0.009218 0.026028 -0.062187
v 0.039961 0.017324 -0.058125
v 0.005737 0.033563 -0.051166
v 0.015600 0.016743 -0.059866
v 0.035894 0.028344 -0.058705
v 0.009218 0.034723 -0.060445
v 0.031258 0.032404 -0.058705
v 0.028353 0.029504 -0.051166
v 0.013858 0.036466 -0.062187
v 0.028353 0.033563 -0.061025
f 472 481 484 
f 453 456 457 
f 458 462 463 
f 453 457 464 
f 457 459 464 
f 459 457 466 
f 465 460 467 
f 466 457 467 
f 456 453 468 
f 463 462 468 
f 462 460 470 
f 465 456 470 
f 460 465 470 
f 456 468 470 
f 468 462 470 
f 463 453 471 
f 461 469 471 
f 469 463 471 
f 454 458 472 
f 453 463 473 
f 468 453 473 
f 463 468 473 
f 469 461 474 
f 472 458 474 
f 457 465 475 
f 467 457 475 
f 465 467 475 
f 453 464 476 
f 464 459 476 
f 471 453 476 
f 459 471 476 
f 458 454 477 
f 462 458 477 
f 457 456 478 
f 456 465 478 
f 465 457 478 
f 459 466 479 
f 471 459 479 
f 461 471 479 
f 460 462 480 
f 467 460 480 
f 462 477 480 
f 474 461 481 
f 472 474 481 
f 479 466 481 
f 461 479 481 
f 458 463 482 
f 463 469 482 
f 474 458 482 
f 469 474 482 
f 454 455 483 
f 455 466 483 
f 466 467 483 
f 477 454 483 
f 467 480 483 
f 480 477 483 
f 455 454 484 
f 466 455 484 
f 454 472 484 
f 481 466 484 
o convex_10
v 0.008638 0.033563 -0.032606
v 0.002840 0.027762 -0.051163
v 0.002840 0.031822 -0.051163
v 0.035321 0.016743 -0.051163
v -0.007606 0.016747 -0.025061
v 0.021395 0.016743 -0.025061
v 0.007479 0.016747 -0.051163
v 0.028358 0.028924 -0.050580
v -0.007606 0.030084 -0.037246
v 0.002260 0.030084 -0.025061
v 0.001676 0.035884 -0.041300
v -0.007606 0.016747 -0.032026
v 0.018496 0.033563 -0.051163
v 0.025459 0.021965 -0.034926
v 0.009218 0.028924 -0.025061
v -0.004123 0.028343 -0.044780
v -0.004123 0.031822 -0.030866
v 0.012117 0.033563 -0.035506
v -0.001224 0.034723 -0.044780
v -0.000064 0.035304 -0.034346
v 0.034737 0.020226 -0.050000
v 0.012697 0.035304 -0.049420
v -0.007606 0.020226 -0.025061
v 0.011538 0.035304 -0.041300
v 0.003419 0.016747 -0.047680
v 0.021979 0.026602 -0.036666
v 0.026618 0.017324 -0.032606
v -0.007022 0.031243 -0.034346
v 0.006315 0.034723 -0.050580
v -0.005863 0.031243 -0.042460
v -0.002383 0.035304 -0.040140
v 0.017912 0.033563 -0.045360
v 0.004579 0.035304 -0.034346
v -0.005283 0.030084 -0.029706
v 0.021395 0.017324 -0.025061
v 0.000520 0.033563 -0.048840
v 0.023715 0.022546 -0.033186
v 0.006899 0.030084 -0.025061
v 0.026618 0.024865 -0.040720
v 0.029518 0.027764 -0.051163
v -0.000064 0.028924 -0.025061
v -0.007606 0.027762 -0.037826
v 0.002260 0.035304 -0.047100
v 0.012697 0.032984 -0.034926
v -0.005283 0.032984 -0.040720
v -0.002383 0.031822 -0.029126
f 518 525 530 
f 486 487 488 
f 486 488 491 
f 489 490 494 
f 488 490 496 
f 490 489 496 
f 489 493 496 
f 488 487 497 
f 494 490 499 
f 487 486 500 
f 493 489 507 
f 489 494 507 
f 506 495 508 
f 486 491 509 
f 491 488 509 
f 488 496 509 
f 500 486 509 
f 496 500 509 
f 490 488 511 
f 488 505 511 
f 505 498 511 
f 501 504 512 
f 493 507 512 
f 497 487 513 
f 506 497 513 
f 504 495 515 
f 512 504 515 
f 492 497 516 
f 497 506 516 
f 508 502 516 
f 506 508 516 
f 485 502 517 
f 504 494 517 
f 495 504 517 
f 502 508 517 
f 508 495 517 
f 501 512 518 
f 512 507 518 
f 499 490 519 
f 490 511 519 
f 511 498 519 
f 487 500 520 
f 513 487 520 
f 500 514 520 
f 514 503 520 
f 510 499 521 
f 519 498 521 
f 499 519 521 
f 494 499 522 
f 485 517 522 
f 517 494 522 
f 505 492 523 
f 498 505 523 
f 492 510 523 
f 521 498 523 
f 510 521 523 
f 488 497 524 
f 497 492 524 
f 505 488 524 
f 492 505 524 
f 507 494 525 
f 518 507 525 
f 496 493 526 
f 500 496 526 
f 493 514 526 
f 514 500 526 
f 495 506 527 
f 506 513 527 
f 515 495 527 
f 503 515 527 
f 513 520 527 
f 520 503 527 
f 502 485 528 
f 510 492 528 
f 499 510 528 
f 492 516 528 
f 516 502 528 
f 522 499 528 
f 485 522 528 
f 493 512 529 
f 514 493 529 
f 503 514 529 
f 512 515 529 
f 515 503 529 
f 494 504 530 
f 504 501 530 
f 501 518 530 
f 525 494 530 
o convex_11
v -0.023847 -0.002401 -0.004178
v -0.013407 0.011520 -0.003017
v -0.013407 0.012102 -0.004178
v -0.013407 -0.020963 -0.015779
v -0.025589 0.006300 -0.015779
v -0.013407 0.015583 -0.015779
v -0.025589 -0.023283 -0.015779
v -0.013407 -0.012840 -0.003017
v -0.025589 -0.019802 -0.009398
v -0.020366 0.008039 -0.003017
v -0.025589 -0.000080 -0.007658
v -0.022109 -0.005878 -0.003017
v -0.020366 0.009781 -0.004759
v -0.019210 -0.020963 -0.011718
v -0.015728 0.015001 -0.015199
v -0.022109 0.008039 -0.005918
v -0.015728 -0.012258 -0.003017
v -0.025589 -0.014000 -0.007658
v -0.023269 -0.020963 -0.010558
f 544 538 549 
f 533 532 534 
f 533 534 536 
f 534 535 536 
f 535 534 537 
f 534 532 538 
f 535 537 539 
f 538 532 540 
f 535 539 541 
f 531 540 541 
f 540 531 542 
f 538 540 542 
f 532 533 543 
f 540 532 543 
f 537 534 544 
f 534 538 544 
f 533 536 545 
f 536 535 545 
f 543 533 545 
f 535 543 545 
f 535 541 546 
f 541 540 546 
f 543 535 546 
f 540 543 546 
f 539 538 547 
f 542 539 547 
f 538 542 547 
f 531 541 548 
f 541 539 548 
f 542 531 548 
f 539 542 548 
f 539 537 549 
f 538 539 549 
f 537 544 549 
o convex_12
v 0.013856 -0.010515 -0.003017
v -0.013407 -0.020380 -0.015779
v -0.006443 -0.030817 -0.015779
v 0.015595 0.018481 -0.015779
v -0.013407 0.011519 -0.003017
v -0.009925 -0.031982 -0.003017
v -0.013407 0.016159 -0.015779
v 0.011535 0.015579 -0.003017
v 0.015595 -0.007034 -0.015779
v 0.003997 -0.029074 -0.003017
v 0.002835 0.024859 -0.015199
v 0.000518 -0.030238 -0.013458
v -0.012827 -0.027342 -0.003017
v 0.017338 -0.002406 -0.010558
v -0.008183 -0.033719 -0.011139
v 0.013856 0.012677 -0.003017
v -0.002384 0.015574 -0.003017
v 0.008637 -0.023276 -0.004178
v 0.017338 0.014994 -0.015199
v 0.008056 0.024859 -0.015779
v 0.016757 -0.007034 -0.012879
v -0.005285 -0.033719 -0.004759
v -0.010506 -0.031982 -0.010558
v -0.001225 -0.029659 -0.015779
v 0.003416 -0.028500 -0.010558
v 0.015595 -0.008192 -0.005338
v -0.013407 -0.013417 -0.003017
v 0.015014 0.016738 -0.009398
v 0.017338 -0.000089 -0.015779
v -0.008183 0.018481 -0.012298
v -0.000063 -0.031982 -0.007079
v -0.005285 -0.033719 -0.011139
v -0.011665 0.012677 -0.003017
v 0.013275 -0.011094 -0.015779
v -0.012246 -0.029659 -0.007658
v 0.012694 0.021957 -0.015199
v 0.015595 -0.009936 -0.007079
v -0.008764 -0.030817 -0.014619
v 0.015595 0.012098 -0.007658
v -0.002964 -0.032561 -0.003017
v 0.009215 -0.022117 -0.003017
v 0.001095 -0.029080 -0.014619
v 0.008056 0.024859 -0.015199
v -0.003545 -0.031982 -0.014619
v -0.013407 0.012677 -0.004759
v 0.016176 -0.008192 -0.012879
v -0.008183 -0.033719 -0.004759
v -0.001806 0.016159 -0.003598
f 592 560 597 
f 552 551 553 
f 550 554 555 
f 553 551 556 
f 551 554 556 
f 554 550 557 
f 552 553 558 
f 550 555 559 
f 555 554 562 
f 557 550 565 
f 554 557 566 
f 553 556 569 
f 556 560 569 
f 552 558 573 
f 567 559 574 
f 565 550 575 
f 563 565 575 
f 554 551 576 
f 551 562 576 
f 562 554 576 
f 557 565 577 
f 568 553 577 
f 558 553 578 
f 553 568 578 
f 568 563 578 
f 570 558 578 
f 563 570 578 
f 560 556 579 
f 561 574 580 
f 574 559 580 
f 571 564 581 
f 561 580 581 
f 580 571 581 
f 554 566 582 
f 573 558 583 
f 562 551 584 
f 555 562 584 
f 551 572 584 
f 572 555 584 
f 553 569 585 
f 557 577 585 
f 577 553 585 
f 570 563 586 
f 575 550 586 
f 563 575 586 
f 551 552 587 
f 552 564 587 
f 572 551 587 
f 564 572 587 
f 565 563 588 
f 563 568 588 
f 577 565 588 
f 568 577 588 
f 559 555 589 
f 580 559 589 
f 571 580 589 
f 550 559 590 
f 559 567 590 
f 586 550 590 
f 567 586 590 
f 574 561 591 
f 573 583 591 
f 583 574 591 
f 569 560 592 
f 585 569 592 
f 557 585 592 
f 564 552 593 
f 552 573 593 
f 581 564 593 
f 561 581 593 
f 591 561 593 
f 573 591 593 
f 556 554 594 
f 579 556 594 
f 560 579 594 
f 554 582 594 
f 582 560 594 
f 558 570 595 
f 567 574 595 
f 583 558 595 
f 574 583 595 
f 586 567 595 
f 570 586 595 
f 564 571 596 
f 555 572 596 
f 572 564 596 
f 589 555 596 
f 571 589 596 
f 566 557 597 
f 582 566 597 
f 560 582 597 
f 557 592 597 
o convex_13
v -0.007602 -0.023283 -0.039560
v 0.012693 -0.004140 -0.045940
v 0.012693 -0.007041 -0.045940
v 0.004574 -0.005302 -0.025065
v -0.007602 -0.004140 -0.046524
v -0.007602 -0.004140 -0.025065
v -0.002385 -0.018061 -0.025065
v 0.002833 -0.019800 -0.046524
v -0.007602 -0.021543 -0.046524
v -0.007602 -0.019221 -0.025065
v 0.002833 -0.018061 -0.034924
v 0.002833 -0.011684 -0.025065
v 0.004574 -0.004140 -0.025065
v 0.002833 -0.019800 -0.040720
v 0.012693 -0.004140 -0.046524
v -0.007024 -0.022702 -0.035504
v -0.000644 -0.021543 -0.046524
v -0.001224 -0.021543 -0.040140
v 0.003994 -0.018642 -0.040720
v 0.001097 -0.014581 -0.025065
v -0.007024 -0.023283 -0.042462
f 615 598 618 
f 600 599 601 
f 599 602 603 
f 602 598 603 
f 601 603 604 
f 598 602 606 
f 602 605 606 
f 603 598 607 
f 604 603 607 
f 600 601 609 
f 601 604 609 
f 608 600 609 
f 601 599 610 
f 599 603 610 
f 603 601 610 
f 608 604 611 
f 599 600 612 
f 602 599 612 
f 600 605 612 
f 605 602 612 
f 607 598 613 
f 604 607 613 
f 606 605 614 
f 605 611 614 
f 614 611 615 
f 611 604 615 
f 613 598 615 
f 604 613 615 
f 605 600 616 
f 600 608 616 
f 611 605 616 
f 608 611 616 
f 604 608 617 
f 609 604 617 
f 608 609 617 
f 598 606 618 
f 606 614 618 
f 614 615 618 
o convex_14
v 0.030097 0.010940 -0.037241
v -0.007606 -0.004138 -0.046524
v -0.007606 0.001663 -0.046524
v -0.007606 -0.004138 -0.025065
v -0.007606 0.016739 -0.025065
v 0.016752 -0.002977 -0.025065
v 0.032420 0.016743 -0.046524
v 0.023718 -0.001238 -0.046524
v 0.021979 0.016743 -0.025065
v 0.002839 0.016739 -0.046524
v 0.013273 -0.004138 -0.046524
v 0.023718 0.003983 -0.025065
v -0.007606 0.016161 -0.033185
v 0.028357 0.003402 -0.045940
v 0.024878 0.010360 -0.025065
v 0.015592 -0.003558 -0.025065
v 0.021979 0.000502 -0.026805
v 0.030097 0.015580 -0.037821
v 0.030677 0.008040 -0.043041
v 0.005159 -0.004138 -0.025065
v -0.003543 0.008620 -0.046524
v 0.032420 0.011519 -0.046524
v 0.026618 0.016743 -0.032025
v 0.022558 -0.001818 -0.045940
v 0.030677 0.014421 -0.038401
v 0.024878 0.007459 -0.025065
v 0.030677 0.010360 -0.038981
v -0.007606 0.016739 -0.032025
f 628 631 646 
f 621 620 622 
f 621 622 623 
f 623 622 624 
f 620 621 625 
f 620 625 626 
f 623 624 627 
f 625 621 628 
f 622 620 629 
f 620 626 629 
f 627 624 630 
f 621 623 631 
f 627 630 633 
f 624 622 634 
f 624 626 635 
f 630 624 635 
f 626 632 635 
f 630 635 637 
f 635 632 637 
f 622 629 638 
f 634 622 638 
f 629 634 638 
f 628 621 639 
f 621 631 639 
f 631 628 639 
f 626 625 640 
f 632 626 640 
f 637 632 640 
f 625 627 641 
f 627 633 641 
f 636 625 641 
f 633 636 641 
f 626 624 642 
f 629 626 642 
f 624 634 642 
f 634 629 642 
f 625 636 643 
f 636 633 643 
f 640 625 643 
f 633 630 644 
f 619 643 644 
f 643 633 644 
f 630 637 645 
f 637 640 645 
f 643 619 645 
f 640 643 645 
f 619 644 645 
f 644 630 645 
f 623 627 646 
f 627 625 646 
f 625 628 646 
f 631 623 646 
