o convex_0
v -0.067422 -0.000325 0.016170
v -0.065854 0.013256 0.016170
v -0.065854 0.013256 0.014603
v -0.041307 -0.003460 0.018780
v -0.041307 0.003333 0.010424
v -0.041307 0.006986 0.023482
v -0.067422 0.001766 0.022435
v -0.041307 0.012732 0.014603
v -0.068469 0.006986 0.009901
v -0.047056 -0.001371 0.011993
v -0.068469 0.011163 0.019826
v -0.041307 0.010643 0.011471
v -0.041307 0.010643 0.021392
v -0.068988 0.002286 0.010946
v -0.041307 -0.000847 0.022435
v -0.056452 0.006464 0.023482
v -0.068469 0.012210 0.012514
v -0.068988 0.000197 0.019826
v -0.041307 -0.003460 0.015127
v -0.044444 0.002808 0.024005
v -0.069515 0.011688 0.016170
v -0.066376 -0.000325 0.020870
v -0.068988 0.004377 0.021914
v -0.068469 0.004377 0.009901
v -0.067947 0.001242 0.011471
v -0.067947 0.010643 0.010946
v -0.042353 0.012210 0.012514
v -0.041307 0.012732 0.016692
v -0.041307 0.009597 0.010946
v -0.067947 0.013256 0.016692
v -0.069515 0.000719 0.017214
v -0.069515 0.010121 0.011993
v -0.051233 0.009075 0.022435
v -0.041307 -0.001371 0.011993
v -0.064810 0.000719 0.022435
v -0.042353 -0.002937 0.020348
v -0.068469 -0.000325 0.019301
v -0.042353 -0.003460 0.015127
v -0.047580 0.012210 0.018780
v -0.067947 0.012210 0.018780
v -0.069515 0.008553 0.019826
v -0.041307 0.004377 0.024005
v -0.067947 0.013256 0.014080
f 21 30 43 
f 4 5 6 
f 3 2 8 
f 6 5 8 
f 8 5 12 
f 6 8 13 
f 4 6 15 
f 5 4 19 
f 16 7 20 
f 7 18 22 
f 7 16 23 
f 16 11 23 
f 18 7 23 
f 9 5 24 
f 10 14 24 
f 14 10 25 
f 26 17 27 
f 8 12 27 
f 12 26 27 
f 8 2 28 
f 13 8 28 
f 5 9 29 
f 12 5 29 
f 9 26 29 
f 26 12 29 
f 2 3 30 
f 21 11 30 
f 28 2 30 
f 18 23 31 
f 14 25 31 
f 25 1 31 
f 21 17 32 
f 9 24 32 
f 24 14 32 
f 26 9 32 
f 17 26 32 
f 14 31 32 
f 31 21 32 
f 6 13 33 
f 13 11 33 
f 11 16 33 
f 16 6 33 
f 5 19 34 
f 19 10 34 
f 24 5 34 
f 10 24 34 
f 15 20 35 
f 20 7 35 
f 7 22 35 
f 35 22 36 
f 4 15 36 
f 22 4 36 
f 15 35 36 
f 4 22 37 
f 22 18 37 
f 31 1 37 
f 18 31 37 
f 19 4 38 
f 10 19 38 
f 25 10 38 
f 1 25 38 
f 37 1 38 
f 4 37 38 
f 13 28 39 
f 28 30 39 
f 39 30 40 
f 11 13 40 
f 30 11 40 
f 13 39 40 
f 11 21 41 
f 23 11 41 
f 21 31 41 
f 31 23 41 
f 15 6 42 
f 6 16 42 
f 20 15 42 
f 16 20 42 
f 3 8 43 
f 17 21 43 
f 27 17 43 
f 8 27 43 
f 30 3 43 
o convex_1
v -0.041307 0.003331 0.010425
v -0.026158 0.004895 0.026093
v -0.027725 0.004895 0.026093
v -0.026158 -0.006072 0.021391
v -0.026158 0.010640 0.010425
v -0.040783 0.008030 0.024526
v -0.041307 -0.002414 0.021391
v -0.041307 0.012733 0.016693
v -0.026158 0.010640 0.024003
v -0.026158 -0.004504 0.015125
v -0.041307 -0.003460 0.015125
v -0.027205 0.004374 0.008858
v -0.041307 0.010640 0.011469
v -0.026158 0.012733 0.013560
v -0.041307 -0.001371 0.011992
v -0.026681 -0.003981 0.024003
v -0.041307 0.002812 0.024003
v -0.027725 0.012733 0.018258
v -0.026158 0.002287 0.009904
v -0.041307 0.010640 0.021391
v -0.027205 -0.005549 0.016171
v -0.041307 0.012211 0.013037
v -0.028771 0.005939 0.008858
v -0.040260 0.008030 0.025047
v -0.027725 0.003331 0.026093
v -0.041307 -0.003460 0.018780
v -0.031382 -0.001371 0.011992
v -0.041307 0.009599 0.010948
v -0.035036 0.012733 0.018258
v -0.026681 -0.006072 0.017735
v -0.040783 -0.001371 0.022435
f 59 60 74 
f 45 47 48 
f 44 50 51 
f 45 48 52 
f 48 47 53 
f 50 44 54 
f 44 51 56 
f 52 48 57 
f 54 44 58 
f 44 55 58 
f 47 45 59 
f 50 47 59 
f 51 50 60 
f 57 51 61 
f 52 57 61 
f 48 53 62 
f 55 48 62 
f 58 55 62 
f 60 49 63 
f 51 60 63 
f 54 58 64 
f 58 53 64 
f 48 56 65 
f 56 51 65 
f 51 57 65 
f 57 48 65 
f 55 44 66 
f 48 55 66 
f 46 45 67 
f 45 52 67 
f 49 60 67 
f 63 49 67 
f 52 63 67 
f 45 46 68 
f 59 45 68 
f 60 59 68 
f 46 67 68 
f 67 60 68 
f 47 50 69 
f 50 54 69 
f 53 58 70 
f 62 53 70 
f 58 62 70 
f 56 48 71 
f 44 56 71 
f 66 44 71 
f 48 66 71 
f 61 51 72 
f 52 61 72 
f 63 52 72 
f 51 63 72 
f 53 47 73 
f 64 53 73 
f 54 64 73 
f 47 69 73 
f 69 54 73 
f 50 59 74 
f 60 50 74 
o convex_2
v 0.009888 0.031538 -0.006291
v 0.030781 0.019525 0.014078
v 0.030781 0.017436 0.014078
v 0.030781 0.031538 -0.018307
v 0.013022 0.016912 -0.014645
v 0.007799 0.016912 0.007807
v 0.030257 0.032061 0.012507
v 0.030781 0.016912 -0.016216
v 0.014068 0.032061 0.010419
v 0.004662 0.020049 -0.003156
v 0.024512 0.032061 -0.018307
v 0.012501 0.016912 0.013030
v 0.008842 0.032061 0.002064
v 0.021899 0.017436 -0.017780
v 0.005710 0.016912 -0.008378
v 0.028690 0.026314 0.014601
v 0.017197 0.032061 -0.013601
v 0.030257 0.016912 0.014601
v 0.005186 0.017436 0.003628
v 0.017722 0.021094 0.014074
v 0.010412 0.018480 -0.013081
v 0.030781 0.032061 0.011466
v 0.011455 0.032061 0.007807
v 0.027122 0.017436 -0.017780
v 0.028690 0.017436 0.015125
v 0.007799 0.020569 -0.009946
v 0.009366 0.019003 0.009899
v 0.008842 0.032061 -0.003156
v 0.030781 0.032061 -0.018307
v 0.019286 0.016912 -0.017260
v 0.014068 0.028925 0.011466
v 0.020332 0.032061 -0.016216
v 0.005710 0.020049 -0.006811
v 0.030257 0.026314 0.014601
v 0.004662 0.016912 0.001541
v 0.004662 0.019003 0.000493
v 0.020853 0.019003 0.014601
v 0.028690 0.031014 0.013034
v 0.010412 0.032061 -0.006811
v 0.029214 0.016912 -0.017260
f 104 98 114 
f 76 77 78 
f 78 77 82 
f 80 79 82 
f 83 81 85 
f 80 82 86 
f 83 85 87 
f 85 78 88 
f 79 80 89 
f 87 85 91 
f 77 76 92 
f 82 77 92 
f 86 82 92 
f 79 89 95 
f 76 78 96 
f 85 81 96 
f 83 87 97 
f 87 93 97 
f 88 78 98 
f 86 92 99 
f 95 89 100 
f 91 95 100 
f 80 86 101 
f 93 80 101 
f 97 93 101 
f 84 87 102 
f 87 91 102 
f 78 85 103 
f 96 78 103 
f 85 96 103 
f 82 79 104 
f 79 85 104 
f 85 88 104 
f 88 98 104 
f 86 94 105 
f 94 90 105 
f 83 97 105 
f 101 86 105 
f 97 101 105 
f 85 79 106 
f 91 85 106 
f 79 95 106 
f 95 91 106 
f 89 84 107 
f 75 100 107 
f 100 89 107 
f 102 75 107 
f 84 102 107 
f 92 76 108 
f 76 96 108 
f 96 81 108 
f 99 92 108 
f 90 99 108 
f 89 80 109 
f 84 89 109 
f 80 93 109 
f 109 93 110 
f 87 84 110 
f 93 87 110 
f 84 109 110 
f 94 86 111 
f 90 94 111 
f 86 99 111 
f 99 90 111 
f 81 83 112 
f 83 105 112 
f 105 90 112 
f 108 81 112 
f 90 108 112 
f 100 75 113 
f 91 100 113 
f 75 102 113 
f 102 91 113 
f 78 82 114 
f 98 78 114 
f 82 104 114 
o convex_3
v 0.024511 0.058178 -0.004206
v 0.024511 0.032061 -0.018307
v 0.025033 0.033107 -0.018827
v 0.030779 0.032061 0.011468
v 0.008843 0.032061 0.002064
v 0.030256 0.049820 -0.021441
v 0.030256 0.057135 0.008330
v 0.008321 0.043557 -0.005768
v 0.013544 0.048251 0.006764
v 0.030779 0.032061 -0.018303
v 0.019290 0.033630 0.011468
v 0.031303 0.057652 -0.008899
v 0.020852 0.048774 -0.017262
v 0.014067 0.053476 0.001019
v 0.010933 0.032061 -0.007337
v 0.022421 0.055566 0.008854
v 0.025033 0.055045 -0.014648
v 0.022944 0.042511 -0.019872
v 0.008321 0.044601 0.002064
v 0.014067 0.032061 0.009899
v 0.028167 0.059747 0.002581
v 0.029734 0.032584 0.012513
v 0.013022 0.048774 -0.008382
v 0.027645 0.043557 -0.022486
v 0.028689 0.058701 -0.010989
v 0.014589 0.041991 -0.013082
v 0.017721 0.032061 -0.014127
v 0.031303 0.058175 -0.002116
v 0.031303 0.052433 -0.015169
v 0.015636 0.053999 -0.002637
v 0.019290 0.056089 0.005719
v 0.007796 0.040945 -0.005247
v 0.012500 0.051910 0.002585
v 0.030256 0.054522 0.009378
v 0.009888 0.044078 -0.008382
v 0.030256 0.056086 -0.015689
v 0.027125 0.051387 -0.019869
v 0.009888 0.047731 -0.003161
v 0.030779 0.055045 0.008330
v 0.030256 0.044078 -0.022486
v 0.010933 0.033107 0.006764
v 0.030256 0.059747 0.002064
v 0.028167 0.058701 0.006761
v 0.008843 0.032061 -0.002637
v 0.014067 0.033630 0.009899
v 0.009366 0.040945 -0.007858
v 0.007796 0.044078 0.000498
v 0.019808 0.056612 0.002585
v 0.016156 0.050864 -0.009947
v 0.030779 0.049297 -0.020917
v 0.019290 0.034676 0.011468
v 0.017721 0.050343 0.008333
v 0.028167 0.059747 -0.003161
v 0.030256 0.059224 -0.007858
v 0.028689 0.048774 -0.021962
v 0.010933 0.046685 0.004674
v 0.015111 0.044078 -0.013603
v 0.029734 0.035197 -0.019869
v 0.023988 0.045121 -0.020396
v 0.020332 0.032061 -0.016217
v 0.028689 0.032584 0.012513
v 0.007796 0.041991 0.001019
v 0.026602 0.057135 -0.012558
v 0.030779 0.053473 -0.018303
f 164 120 178 
f 116 118 119 
f 118 116 124 
f 116 119 129 
f 119 118 134 
f 140 132 141 
f 116 129 141 
f 118 124 143 
f 142 118 143 
f 126 142 143 
f 115 139 144 
f 123 130 145 
f 145 128 147 
f 123 145 147 
f 121 130 148 
f 136 118 148 
f 137 127 149 
f 146 122 149 
f 127 131 151 
f 131 150 151 
f 128 144 152 
f 144 137 152 
f 147 128 152 
f 149 122 152 
f 137 149 152 
f 118 142 153 
f 142 121 153 
f 121 148 153 
f 148 118 153 
f 119 134 155 
f 121 142 156 
f 130 121 157 
f 145 130 157 
f 135 145 157 
f 121 156 157 
f 156 135 157 
f 129 119 158 
f 119 146 158 
f 146 129 158 
f 134 125 159 
f 155 134 159 
f 140 141 160 
f 141 129 160 
f 129 146 160 
f 149 140 160 
f 146 149 160 
f 122 146 161 
f 133 147 161 
f 152 122 161 
f 147 152 161 
f 115 144 162 
f 144 128 162 
f 128 145 162 
f 145 135 162 
f 131 127 163 
f 127 137 163 
f 137 144 163 
f 144 131 163 
f 143 124 164 
f 124 154 164 
f 154 120 164 
f 159 125 165 
f 159 165 166 
f 130 123 166 
f 123 159 166 
f 165 130 166 
f 139 115 167 
f 135 156 167 
f 115 162 167 
f 162 135 167 
f 142 126 168 
f 126 150 168 
f 150 139 168 
f 156 142 168 
f 139 167 168 
f 167 156 168 
f 127 151 169 
f 151 120 169 
f 154 138 169 
f 120 154 169 
f 147 133 170 
f 123 147 170 
f 133 155 170 
f 159 123 170 
f 155 159 170 
f 132 140 171 
f 149 127 171 
f 140 149 171 
f 116 117 172 
f 124 116 172 
f 117 138 172 
f 154 124 172 
f 138 154 172 
f 138 132 173 
f 127 169 173 
f 169 138 173 
f 171 127 173 
f 132 171 173 
f 117 116 174 
f 138 117 174 
f 132 138 174 
f 141 132 174 
f 116 141 174 
f 134 118 175 
f 125 134 175 
f 118 136 175 
f 148 130 175 
f 136 148 175 
f 130 165 175 
f 165 125 175 
f 146 119 176 
f 119 155 176 
f 155 133 176 
f 133 161 176 
f 161 146 176 
f 131 144 177 
f 144 139 177 
f 150 131 177 
f 139 150 177 
f 126 143 178 
f 150 126 178 
f 120 151 178 
f 151 150 178 
f 143 164 178 
o convex_4
v -0.003695 -0.010767 -0.035546
v 0.004662 0.005942 0.010946
v 0.004662 0.007504 0.010418
v -0.005263 0.001238 0.010422
v 0.004662 -0.031146 -0.010475
v 0.004662 0.009597 -0.021438
v -0.005263 -0.019127 0.010946
v -0.005263 -0.027486 -0.027181
v -0.005263 0.008026 -0.007863
v 0.004662 -0.025398 0.010946
v 0.003617 -0.019649 -0.028751
v 0.000483 0.016386 -0.002639
v -0.005263 -0.001900 -0.028228
v 0.003617 0.016912 -0.010475
v -0.005263 -0.028008 -0.020396
v -0.005263 -0.021738 -0.033976
v 0.004662 -0.031146 -0.015167
v -0.000040 -0.023831 0.010946
v 0.004662 0.003331 -0.024574
v 0.004662 0.016386 -0.001073
v -0.005263 0.005937 0.006759
v -0.000040 -0.024871 -0.028751
v -0.005263 -0.008683 -0.035546
v -0.001083 -0.010767 -0.034494
v 0.000483 0.015863 -0.007863
v -0.000040 0.015863 -0.001073
v -0.000040 -0.020176 -0.032406
v 0.004662 -0.020698 -0.021438
v -0.004739 0.005415 -0.016737
v 0.003617 -0.031146 -0.011517
v -0.005263 0.008553 -0.002639
v -0.004218 -0.017038 -0.035546
v -0.005263 -0.000851 0.010946
v 0.003094 0.009075 -0.021438
v 0.004662 0.016908 -0.010471
v 0.003094 -0.017560 -0.029793
v -0.002651 -0.009201 -0.035022
v 0.004138 -0.025920 0.010422
v 0.002571 -0.024353 -0.026658
v 0.001527 0.015863 -0.009952
v -0.001606 -0.022787 0.010946
v 0.004138 -0.018600 -0.027181
v -0.004739 -0.022787 -0.033448
v 0.004139 0.007504 0.010418
v -0.005263 -0.028008 -0.025097
v -0.001606 -0.028008 -0.010475
v -0.000561 0.015341 -0.004204
v -0.003695 -0.026964 -0.027705
f 221 200 226 
f 181 180 183 
f 181 183 184 
f 185 182 186 
f 186 182 187 
f 183 180 188 
f 180 185 188 
f 186 187 191 
f 185 186 193 
f 186 191 194 
f 184 183 195 
f 188 185 196 
f 184 195 197 
f 181 184 198 
f 192 190 198 
f 187 182 199 
f 194 191 201 
f 190 192 203 
f 198 190 204 
f 197 195 206 
f 191 187 207 
f 187 203 207 
f 195 183 208 
f 187 199 209 
f 199 204 209 
f 201 179 210 
f 194 201 210 
f 179 202 210 
f 202 205 210 
f 180 182 211 
f 185 180 211 
f 182 185 211 
f 192 184 212 
f 184 201 212 
f 201 191 212 
f 184 192 213 
f 198 184 213 
f 192 198 213 
f 197 189 214 
f 202 197 214 
f 189 205 214 
f 205 202 214 
f 184 197 215 
f 201 184 215 
f 179 201 215 
f 197 202 215 
f 202 179 215 
f 183 188 216 
f 188 196 216 
f 208 183 216 
f 196 208 216 
f 189 195 217 
f 195 200 217 
f 205 189 217 
f 200 205 217 
f 203 192 218 
f 191 207 218 
f 207 203 218 
f 192 212 218 
f 212 191 218 
f 185 193 219 
f 196 185 219 
f 193 196 219 
f 195 189 220 
f 189 197 220 
f 206 195 220 
f 197 206 220 
f 186 194 221 
f 205 200 221 
f 194 210 221 
f 210 205 221 
f 180 181 222 
f 182 180 222 
f 181 198 222 
f 199 182 222 
f 198 204 222 
f 204 199 222 
f 193 186 223 
f 186 195 223 
f 208 193 223 
f 195 208 223 
f 196 193 224 
f 193 208 224 
f 208 196 224 
f 203 187 225 
f 190 203 225 
f 204 190 225 
f 187 209 225 
f 209 204 225 
f 195 186 226 
f 200 195 226 
f 186 221 226 
o convex_5
v -0.005263 0.003851 0.010946
v 0.004662 0.006462 0.029751
v -0.002127 0.006462 0.029751
v 0.004662 -0.025400 0.013037
v 0.004662 0.011685 0.018782
v -0.005263 -0.008157 0.026094
v -0.005263 -0.019128 0.010946
v -0.005263 0.013776 0.024527
v 0.004662 0.000194 0.010946
v -0.004217 0.012210 0.013037
v 0.004662 0.014301 0.027660
v 0.004662 -0.000327 0.029228
v 0.004139 -0.023309 0.016693
v 0.004662 -0.025400 0.010946
v -0.005263 -0.000327 0.029228
v -0.002127 -0.021215 0.015126
v -0.005263 0.009598 0.028706
v -0.005263 0.013776 0.016693
v -0.000560 -0.004508 0.028183
v 0.004662 0.014301 0.022959
v 0.003616 0.013776 0.028706
v -0.005263 -0.018603 0.014081
v 0.001005 -0.024351 0.011991
v 0.001005 -0.022264 0.016693
v -0.001083 0.014301 0.026616
v -0.005263 0.008028 0.011469
v -0.004217 0.012731 0.027658
v 0.004662 -0.023309 0.016693
v -0.004217 0.011685 0.012514
f 252 244 255 
f 228 230 231 
f 232 227 233 
f 227 232 234 
f 231 230 235 
f 233 227 235 
f 228 231 237 
f 228 229 238 
f 230 228 238 
f 235 230 240 
f 233 235 240 
f 234 232 241 
f 238 229 241 
f 241 229 243 
f 234 241 243 
f 227 234 244 
f 241 232 245 
f 238 241 245 
f 231 236 246 
f 237 231 246 
f 236 244 246 
f 229 228 247 
f 228 237 247 
f 243 229 247 
f 232 233 248 
f 242 232 248 
f 233 242 248 
f 240 230 249 
f 233 240 249 
f 242 233 249 
f 242 249 250 
f 239 232 250 
f 230 239 250 
f 232 242 250 
f 249 230 250 
f 244 234 251 
f 237 246 251 
f 246 244 251 
f 247 237 251 
f 235 227 252 
f 227 244 252 
f 234 243 253 
f 243 247 253 
f 251 234 253 
f 247 251 253 
f 230 238 254 
f 232 239 254 
f 239 230 254 
f 245 232 254 
f 238 245 254 
f 231 235 255 
f 236 231 255 
f 244 236 255 
f 235 252 255 
o convex_6
v 0.006230 -0.033229 -0.013083
v 0.014065 0.006981 0.018259
v 0.014065 0.016386 0.013557
v 0.004662 0.003846 0.018255
v 0.004662 0.008551 -0.022484
v 0.014065 -0.025400 -0.024050
v 0.014065 -0.033234 0.004148
v 0.004662 -0.023303 0.016689
v 0.014065 0.016912 -0.015171
v 0.004662 0.016912 0.002059
v 0.004662 -0.024352 -0.020396
v 0.014065 -0.017039 0.016162
v 0.009364 0.002803 -0.025098
v 0.014065 -0.035848 -0.012035
v 0.005708 -0.004515 -0.025098
v 0.004662 0.016386 -0.012035
v 0.011452 -0.030621 -0.022484
v 0.014065 0.006460 -0.021440
v 0.006230 -0.021212 0.017733
v 0.004662 -0.031664 -0.014649
v 0.013542 -0.035321 -0.000555
v 0.010408 -0.024873 -0.024572
v 0.011975 0.016912 0.012508
v 0.004662 -0.025921 0.011460
v 0.014065 -0.007639 0.018259
v 0.011975 0.006465 -0.023528
v 0.004662 0.002803 -0.025098
v 0.009364 -0.034799 -0.014127
v 0.005185 0.016912 0.004148
v 0.004662 -0.020173 -0.021962
v 0.014065 -0.030621 -0.021962
v 0.009364 0.006986 -0.024050
v 0.007797 -0.034278 -0.011513
v 0.004662 -0.007123 0.018255
v 0.007274 -0.021738 0.017211
v 0.004662 0.016912 -0.010469
v 0.010408 -0.032713 -0.019352
v 0.005708 0.009594 -0.021962
v 0.004662 -0.024873 0.014601
v 0.014065 -0.027486 0.008850
v 0.004662 -0.031664 -0.010991
v 0.007797 0.016912 0.007806
v 0.004662 -0.031143 -0.015693
v 0.012497 -0.024352 -0.024572
v 0.013542 -0.035848 -0.003678
v 0.014065 0.016912 0.013030
v 0.013019 0.016912 -0.015171
v 0.014065 -0.034278 -0.016215
f 283 292 303 
f 257 258 259 
f 258 257 261 
f 261 257 262 
f 259 260 263 
f 258 261 264 
f 260 259 265 
f 263 260 266 
f 262 257 267 
f 261 262 269 
f 260 265 271 
f 264 261 273 
f 263 266 275 
f 272 266 277 
f 259 258 278 
f 264 265 278 
f 263 275 279 
f 257 259 280 
f 267 257 280 
f 274 267 280 
f 261 268 281 
f 273 261 281 
f 264 273 281 
f 266 260 282 
f 268 270 282 
f 256 275 283 
f 265 259 284 
f 278 265 284 
f 277 266 285 
f 270 277 285 
f 266 282 285 
f 282 270 285 
f 261 269 286 
f 272 261 286 
f 264 281 287 
f 281 268 287 
f 282 260 287 
f 268 282 287 
f 276 279 288 
f 256 283 288 
f 259 263 289 
f 263 274 289 
f 280 259 289 
f 274 280 289 
f 263 262 290 
f 274 263 290 
f 267 274 290 
f 265 264 291 
f 271 265 291 
f 260 271 293 
f 287 260 293 
f 264 287 293 
f 262 263 294 
f 276 262 294 
f 263 279 294 
f 279 276 294 
f 262 267 295 
f 290 262 295 
f 267 290 295 
f 275 256 296 
f 279 275 296 
f 256 288 296 
f 288 279 296 
f 259 278 297 
f 284 259 297 
f 278 284 297 
f 266 272 298 
f 275 266 298 
f 283 275 298 
f 272 292 298 
f 292 283 298 
f 268 261 299 
f 270 268 299 
f 261 272 299 
f 277 270 299 
f 272 277 299 
f 269 262 300 
f 262 276 300 
f 283 269 300 
f 276 288 300 
f 288 283 300 
f 258 264 301 
f 278 258 301 
f 264 278 301 
f 291 264 302 
f 271 291 302 
f 293 271 302 
f 264 293 302 
f 269 283 303 
f 286 269 303 
f 272 286 303 
f 292 272 303 
o convex_7
v -0.016756 -0.031666 -0.019350
v -0.005263 -0.017564 0.008856
v -0.021978 -0.017564 0.008856
v -0.005263 -0.017564 -0.035023
v -0.019886 -0.017564 -0.028228
v -0.005263 -0.028534 -0.024053
v -0.020411 -0.032188 -0.005253
v -0.025636 -0.028532 -0.016215
v -0.014145 -0.025921 0.008856
v -0.012055 -0.026965 -0.029796
v -0.025636 -0.020178 -0.013084
v -0.014145 -0.030099 -0.002118
v -0.008400 -0.022789 0.008332
v -0.020933 -0.023313 0.008328
v -0.024066 -0.030621 -0.018302
v -0.017800 -0.018611 -0.030844
v -0.018321 -0.032712 -0.006821
v -0.005263 -0.023311 -0.033456
v -0.023544 -0.017564 0.002061
v -0.005263 -0.028534 -0.021957
v -0.009443 -0.021746 -0.033975
v -0.025111 -0.020178 -0.004729
v -0.005263 -0.019655 0.008332
v -0.017800 -0.025921 0.008856
v -0.025111 -0.024879 -0.018826
v -0.025636 -0.028532 -0.014647
v -0.023023 -0.031666 -0.017782
v -0.021978 -0.020700 0.008856
v -0.008920 -0.027488 -0.029276
v -0.022499 -0.017564 -0.019350
v -0.022499 -0.030099 -0.020390
v -0.007877 -0.017564 -0.035023
v -0.018321 -0.019133 -0.030316
v -0.018321 -0.030621 -0.021957
v -0.017800 -0.032188 -0.004729
v -0.015711 -0.031666 -0.006297
v -0.009443 -0.023311 -0.033456
v -0.007355 -0.023311 0.003629
v -0.014145 -0.028010 0.004153
v -0.005263 -0.025921 -0.030320
f 332 321 343 
f 306 305 307 
f 306 307 308 
f 307 305 309 
f 305 306 312 
f 305 312 316 
f 304 309 320 
f 307 309 321 
f 306 308 322 
f 309 305 323 
f 320 309 323 
f 307 321 324 
f 306 322 325 
f 322 314 325 
f 305 316 326 
f 323 305 326 
f 312 306 327 
f 317 310 327 
f 314 308 328 
f 311 314 328 
f 318 311 328 
f 314 311 329 
f 310 317 329 
f 311 318 329 
f 325 314 329 
f 304 320 330 
f 320 310 330 
f 310 329 330 
f 329 318 330 
f 306 325 331 
f 327 306 331 
f 317 327 331 
f 329 317 331 
f 325 329 331 
f 309 304 332 
f 308 314 333 
f 322 308 333 
f 314 322 333 
f 330 318 334 
f 308 307 335 
f 319 308 335 
f 324 319 335 
f 307 324 335 
f 308 319 336 
f 328 308 336 
f 318 328 336 
f 313 334 336 
f 334 318 336 
f 304 330 337 
f 332 304 337 
f 313 332 337 
f 334 313 337 
f 330 334 337 
f 310 320 338 
f 312 327 338 
f 327 310 338 
f 323 315 339 
f 320 323 339 
f 315 338 339 
f 338 320 339 
f 319 324 340 
f 324 321 340 
f 332 313 340 
f 321 332 340 
f 336 319 340 
f 313 336 340 
f 316 315 341 
f 315 323 341 
f 326 316 341 
f 323 326 341 
f 316 312 342 
f 315 316 342 
f 312 338 342 
f 338 315 342 
f 321 309 343 
f 309 332 343 
o convex_8
v -0.014666 0.013777 -0.005774
v -0.012056 -0.017564 -0.032933
v -0.009443 -0.017564 -0.032933
v -0.009443 -0.017564 0.008856
v -0.023023 -0.016518 0.008329
v -0.024069 -0.004503 -0.029797
v -0.005263 -0.001371 -0.027709
v -0.005263 0.005417 0.006763
v -0.023546 0.012207 0.002058
v -0.005263 -0.017561 0.008856
v -0.021977 -0.017564 -0.021961
v -0.005263 -0.015472 -0.036068
v -0.014145 0.007509 0.008856
v -0.019888 0.006460 -0.021433
v -0.013101 -0.006069 -0.034498
v -0.012056 0.014300 -0.000550
v -0.005263 0.007506 -0.008386
v -0.022500 0.000195 0.008856
v -0.024069 -0.012860 -0.014120
v -0.021456 -0.011290 -0.031363
v -0.021977 -0.017564 0.008856
v -0.012576 0.010121 -0.013087
v -0.020411 0.014300 0.001539
v -0.005263 -0.007115 -0.034498
v -0.005263 -0.017561 -0.035021
v -0.005263 0.002285 0.008856
v -0.023546 -0.006069 0.008329
v -0.014145 0.013254 0.004151
v -0.021977 0.012207 0.004674
v -0.023023 0.010118 -0.007340
v -0.019365 -0.017564 -0.029270
v -0.019888 0.012727 -0.007340
v -0.024069 -0.008681 -0.004204
v -0.020411 -0.006592 -0.032933
v -0.023546 -0.016518 -0.013606
v -0.007354 -0.015995 -0.036068
v -0.009443 0.010118 -0.009952
v -0.017799 0.006460 -0.021433
v -0.005263 0.008029 -0.001073
v -0.019365 -0.004503 -0.032405
v -0.022500 -0.012337 -0.029274
v -0.008398 -0.005023 -0.033456
v -0.011010 -0.008681 -0.035545
v -0.017276 0.014823 -0.002115
v -0.017799 -0.017564 -0.030839
v -0.013622 0.005937 -0.020914
v -0.023023 -0.017564 0.005193
v -0.017276 0.006460 0.008856
v -0.022500 0.013250 -0.000550
v -0.023023 -0.003457 -0.030316
v -0.020411 0.006460 -0.020914
v -0.006309 -0.008158 -0.035545
v -0.016753 0.014823 0.001539
v -0.011010 0.013254 -0.003685
v -0.024069 -0.005546 -0.029797
v -0.011533 0.013777 0.000492
v -0.017276 -0.008681 -0.033975
v -0.013101 0.007509 0.008856
v -0.005263 0.003851 -0.017260
v -0.018843 0.009598 -0.015167
v -0.020411 0.013254 0.004151
f 396 366 404 
f 345 346 347 
f 347 346 353 
f 350 351 353 
f 345 347 354 
f 350 353 355 
f 347 353 356 
f 351 350 360 
f 347 356 361 
f 354 347 364 
f 347 361 364 
f 350 355 367 
f 346 345 368 
f 353 346 368 
f 355 353 368 
f 353 351 369 
f 356 353 369 
f 361 352 370 
f 348 364 370 
f 364 361 370 
f 352 361 372 
f 366 352 372 
f 349 352 373 
f 345 354 374 
f 352 349 376 
f 362 348 376 
f 349 362 376 
f 370 352 376 
f 348 370 376 
f 368 345 379 
f 355 368 379 
f 350 365 380 
f 351 360 382 
f 357 358 383 
f 358 377 383 
f 374 354 384 
f 363 374 384 
f 354 378 384 
f 358 357 385 
f 350 367 385 
f 357 381 385 
f 377 358 386 
f 355 379 386 
f 359 344 387 
f 344 375 387 
f 345 374 388 
f 374 363 388 
f 379 345 388 
f 363 379 388 
f 365 350 389 
f 381 365 389 
f 350 385 389 
f 385 381 389 
f 348 362 390 
f 354 364 390 
f 364 348 390 
f 378 354 390 
f 362 378 390 
f 361 356 391 
f 372 361 391 
f 356 372 391 
f 352 366 392 
f 373 352 392 
f 375 373 392 
f 366 387 392 
f 387 375 392 
f 377 349 393 
f 357 383 393 
f 383 377 393 
f 349 373 394 
f 375 357 394 
f 373 375 394 
f 393 349 394 
f 357 393 394 
f 367 355 395 
f 358 385 395 
f 385 367 395 
f 355 386 395 
f 386 358 395 
f 371 359 396 
f 359 387 396 
f 387 366 396 
f 344 359 397 
f 365 344 397 
f 360 380 397 
f 380 365 397 
f 359 382 397 
f 382 360 397 
f 362 349 398 
f 349 377 398 
f 377 363 398 
f 378 362 398 
f 363 384 398 
f 384 378 398 
f 371 351 399 
f 359 371 399 
f 351 382 399 
f 382 359 399 
f 363 377 400 
f 379 363 400 
f 377 386 400 
f 386 379 400 
f 369 351 401 
f 356 369 401 
f 351 371 401 
f 371 356 401 
f 360 350 402 
f 350 380 402 
f 380 360 402 
f 344 365 403 
f 375 344 403 
f 357 375 403 
f 381 357 403 
f 365 381 403 
f 356 371 404 
f 366 372 404 
f 372 356 404 
f 371 396 404 
o convex_9
v -0.005263 -0.019126 0.008856
v -0.026158 -0.006068 0.017212
v -0.026158 -0.006068 0.019304
v -0.005263 0.013774 0.019304
v -0.026158 0.010639 0.010424
v -0.005263 -0.012334 0.019304
v -0.018322 -0.025396 0.008856
v -0.011532 0.008549 0.008856
v -0.026158 0.012207 0.019304
v -0.005263 0.012207 0.012514
v -0.020932 -0.017036 0.017735
v -0.021977 -0.020698 0.008856
v -0.012056 0.014296 0.013036
v -0.013622 -0.023829 0.011992
v -0.025634 0.002283 0.009379
v -0.005263 0.001761 0.008856
v -0.021977 -0.019649 0.015124
v -0.010487 0.012207 0.009902
v -0.022501 -0.012860 0.019304
v -0.026158 0.012729 0.013558
v -0.011532 0.014823 0.017735
v -0.005263 -0.017563 0.014602
v -0.017277 -0.021216 0.015124
v -0.016756 0.008549 0.008856
v -0.011532 -0.024351 0.009379
v -0.023544 -0.015473 0.009379
v -0.026158 0.002283 0.009902
v -0.023023 0.000190 0.008856
v -0.017277 -0.024873 0.011470
v -0.025634 -0.009203 0.016168
v -0.009965 0.014823 0.015124
v -0.014667 -0.025922 0.008856
v -0.012056 0.013251 0.010948
v -0.024068 0.013251 0.016691
v -0.012056 0.014296 0.019304
v -0.024068 -0.012860 0.018259
v -0.022501 -0.019649 0.011992
v -0.009442 0.013774 0.011992
v -0.005263 0.013774 0.016168
f 442 435 443 
f 406 407 409 
f 408 407 410 
f 405 408 410 
f 405 411 412 
f 407 408 413 
f 409 407 413 
f 408 405 414 
f 412 411 416 
f 405 412 420 
f 414 405 420 
f 420 412 422 
f 414 420 422 
f 410 407 423 
f 415 410 423 
f 409 413 424 
f 405 410 426 
f 410 418 426 
f 410 415 427 
f 418 410 427 
f 415 421 427 
f 412 416 428 
f 419 409 428 
f 409 422 428 
f 422 412 428 
f 405 426 429 
f 426 418 429 
f 419 416 430 
f 419 430 431 
f 406 409 431 
f 409 419 431 
f 416 419 432 
f 428 416 432 
f 419 428 432 
f 421 411 433 
f 418 427 433 
f 427 421 433 
f 407 406 434 
f 431 430 434 
f 406 431 434 
f 417 424 435 
f 425 408 435 
f 411 405 436 
f 405 429 436 
f 429 418 436 
f 433 411 436 
f 418 433 436 
f 422 409 437 
f 409 424 437 
f 424 417 437 
f 424 413 438 
f 413 425 438 
f 435 424 438 
f 425 435 438 
f 413 408 439 
f 408 425 439 
f 425 413 439 
f 421 415 440 
f 423 407 440 
f 415 423 440 
f 407 434 440 
f 440 434 441 
f 416 411 441 
f 411 421 441 
f 430 416 441 
f 434 430 441 
f 421 440 441 
f 414 422 442 
f 417 435 442 
f 422 437 442 
f 437 417 442 
f 408 414 443 
f 435 408 443 
f 414 442 443 
o convex_10
v -0.005263 -0.003980 0.028184
v -0.026158 -0.006072 0.019304
v -0.021975 -0.009206 0.019304
v -0.005263 0.013776 0.019304
v -0.021975 0.009599 0.026617
v -0.005263 -0.012341 0.019304
v -0.026158 0.012209 0.019304
v -0.005263 0.008031 0.029229
v -0.026158 0.002808 0.026094
v -0.015711 -0.007112 0.026094
v -0.012579 -0.000324 0.029751
v -0.006308 0.013255 0.025049
v -0.026158 -0.005026 0.023483
v -0.014669 0.010120 0.028706
v -0.007355 -0.010773 0.023483
v -0.026158 0.010642 0.024006
v -0.014669 0.006464 0.029751
v -0.011534 0.014301 0.019826
v -0.016754 0.012209 0.025049
v -0.006308 -0.007112 0.027139
v -0.016232 -0.010249 0.021394
v -0.012056 -0.003980 0.028706
v -0.005263 -0.000324 0.029229
v -0.022501 0.008031 0.027139
v -0.005263 0.010120 0.028184
v -0.016754 -0.008682 0.024006
v -0.005263 -0.010773 0.023483
v -0.025632 -0.004504 0.024006
v -0.006832 -0.012341 0.019826
f 470 458 472 
f 446 445 447 
f 446 447 449 
f 447 444 449 
f 447 445 450 
f 444 447 451 
f 450 445 452 
f 445 446 456 
f 452 445 456 
f 450 452 459 
f 448 457 459 
f 452 454 460 
f 454 451 460 
f 451 457 460 
f 447 450 461 
f 455 447 461 
f 457 455 462 
f 450 459 462 
f 459 457 462 
f 461 450 462 
f 455 461 462 
f 453 458 463 
f 463 444 465 
f 453 463 465 
f 444 451 466 
f 451 454 466 
f 465 444 466 
f 454 465 466 
f 457 448 467 
f 448 459 467 
f 459 452 467 
f 452 460 467 
f 460 457 467 
f 451 447 468 
f 447 455 468 
f 457 451 468 
f 455 457 468 
f 456 446 469 
f 453 456 469 
f 458 453 469 
f 446 464 469 
f 464 458 469 
f 449 444 470 
f 444 463 470 
f 463 458 470 
f 454 452 471 
f 452 456 471 
f 456 453 471 
f 465 454 471 
f 453 465 471 
f 446 449 472 
f 464 446 472 
f 458 464 472 
f 449 470 472 
o convex_11
v 0.008319 -0.001370 0.018259
v 0.007798 0.006464 0.029751
v 0.004662 0.006464 0.029751
v 0.004662 0.012732 0.019828
v 0.004662 -0.008684 0.021394
v 0.011975 0.011688 0.026616
v 0.011452 -0.001370 0.024526
v 0.011975 0.010640 0.021917
v 0.004662 0.013776 0.028706
v 0.005185 -0.002936 0.027661
v 0.004662 -0.007638 0.018259
v 0.011452 -0.000848 0.021394
v 0.008841 0.013776 0.023484
v 0.005185 0.011688 0.018783
v 0.009886 -0.001370 0.026616
v 0.011452 0.010640 0.028182
v 0.006752 -0.007116 0.018783
v 0.004662 0.000198 0.029227
v 0.008319 0.009598 0.019304
v 0.006231 -0.007638 0.022439
v 0.011975 0.008552 0.027661
v 0.004662 0.014301 0.022962
v 0.008841 0.013776 0.027139
v 0.008319 0.001764 0.028706
v 0.004662 0.004374 0.018259
v 0.005707 -0.007116 0.024005
v 0.010930 -0.000848 0.020349
v 0.009886 0.012732 0.021917
f 491 486 500 
f 475 476 477 
f 475 474 481 
f 476 475 481 
f 477 476 483 
f 481 474 488 
f 483 473 489 
f 477 483 489 
f 484 479 489 
f 474 475 490 
f 475 477 490 
f 477 482 490 
f 480 473 491 
f 473 486 491 
f 477 489 492 
f 489 479 492 
f 480 478 493 
f 479 484 493 
f 484 480 493 
f 487 479 493 
f 478 488 493 
f 488 474 493 
f 476 481 494 
f 485 476 494 
f 485 494 495 
f 478 485 495 
f 488 478 495 
f 481 488 495 
f 494 481 495 
f 482 487 496 
f 474 490 496 
f 490 482 496 
f 493 474 496 
f 487 493 496 
f 473 483 497 
f 483 476 497 
f 486 473 497 
f 476 486 497 
f 482 477 498 
f 479 487 498 
f 487 482 498 
f 477 492 498 
f 492 479 498 
f 473 480 499 
f 480 484 499 
f 489 473 499 
f 484 489 499 
f 478 480 500 
f 485 478 500 
f 476 485 500 
f 486 476 500 
f 480 491 500 
o convex_12
v 0.011975 0.002287 0.018259
v 0.012498 0.010121 0.026617
v 0.012498 0.010644 0.026094
v 0.014065 -0.002938 0.018259
v 0.014065 0.006985 0.018259
v 0.011975 0.006985 0.026094
v 0.011975 0.010644 0.023483
v 0.012498 0.006463 0.018259
v 0.013543 -0.002938 0.018782
f 504 506 509 
f 504 501 505 
f 503 502 505 
f 502 504 505 
f 504 502 506 
f 502 503 507 
f 503 505 507 
f 501 506 507 
f 506 502 507 
f 505 501 508 
f 501 507 508 
f 507 505 508 
f 501 504 509 
f 506 501 509 
o convex_13
v 0.020856 -0.018087 0.005198
v 0.020333 -0.042638 -0.005765
v 0.020856 -0.042638 -0.005765
v 0.020333 -0.013908 -0.023531
v 0.014065 -0.013908 0.016169
v 0.014065 -0.030098 -0.022481
v 0.014065 -0.013908 -0.021964
v 0.014065 -0.035321 0.001542
v 0.020856 -0.036367 0.006766
v 0.020856 -0.029575 -0.024573
v 0.018766 -0.013908 0.013556
v 0.014065 -0.035847 -0.012555
v 0.015633 -0.034280 0.006240
v 0.014065 -0.023312 -0.024048
v 0.020856 -0.013908 -0.001596
v 0.014065 -0.017044 0.016169
v 0.020333 -0.042113 -0.000025
v 0.020333 -0.039503 -0.012034
v 0.020856 -0.028014 0.009375
v 0.020856 -0.013908 -0.023006
v 0.017200 -0.014957 0.015644
v 0.014065 -0.036367 -0.002638
v 0.020856 -0.026448 -0.025098
v 0.016677 -0.013908 -0.023531
v 0.020333 -0.013908 0.007287
v 0.014065 -0.032708 -0.019346
v 0.020333 -0.030619 -0.024048
v 0.014065 -0.032188 0.006240
v 0.019810 -0.040023 0.003631
v 0.020856 -0.032708 0.008333
v 0.014065 -0.025405 -0.024048
f 532 519 540 
f 514 513 516 
f 515 514 516 
f 514 515 517 
f 512 510 518 
f 510 512 519 
f 513 514 520 
f 517 515 521 
f 515 516 523 
f 510 519 524 
f 513 520 524 
f 514 517 525 
f 522 518 525 
f 511 512 526 
f 512 518 526 
f 512 511 527 
f 519 512 527 
f 518 510 528 
f 524 519 529 
f 513 524 529 
f 520 514 530 
f 514 525 530 
f 528 520 530 
f 521 511 531 
f 517 521 531 
f 511 526 531 
f 526 517 531 
f 513 529 532 
f 529 519 532 
f 516 513 533 
f 523 516 533 
f 513 532 533 
f 532 523 533 
f 510 524 534 
f 524 520 534 
f 528 510 534 
f 520 528 534 
f 511 521 535 
f 521 515 535 
f 527 511 535 
f 527 535 536 
f 515 519 536 
f 519 527 536 
f 535 515 536 
f 517 522 537 
f 525 517 537 
f 522 525 537 
f 522 517 538 
f 518 522 538 
f 517 526 538 
f 526 518 538 
f 525 518 539 
f 518 528 539 
f 530 525 539 
f 528 530 539 
f 519 515 540 
f 515 523 540 
f 523 532 540 
o convex_14
v 0.020856 -0.026448 0.009379
v 0.028691 -0.047862 -0.018827
v 0.030258 -0.047862 -0.018827
v 0.021902 -0.013908 -0.023001
v 0.030781 -0.015477 -0.003162
v 0.030781 -0.024879 -0.035541
v 0.021378 -0.031666 -0.029273
v 0.030781 -0.042116 -0.001597
v 0.020856 -0.042112 0.000492
v 0.020856 -0.013908 -0.002117
v 0.030258 -0.025401 0.006765
v 0.027124 -0.031141 -0.037111
v 0.029214 -0.013908 -0.018827
v 0.024513 -0.035844 0.007285
v 0.031303 -0.045250 -0.008385
v 0.020856 -0.013908 -0.023001
v 0.023469 -0.042112 -0.020392
v 0.030781 -0.034800 -0.035021
v 0.028169 -0.036369 -0.035021
v 0.021378 -0.020705 0.006765
v 0.020856 -0.042634 -0.006820
v 0.028691 -0.047337 -0.009434
v 0.026601 -0.025926 -0.036066
v 0.029214 -0.013908 -0.003686
v 0.020856 -0.040544 0.003631
v 0.030781 -0.027495 0.005715
v 0.030781 -0.046293 -0.023001
v 0.022946 -0.026970 -0.032403
v 0.030781 -0.016520 -0.016738
v 0.029736 -0.023836 -0.035541
v 0.024513 -0.036366 -0.030838
v 0.028169 -0.046293 -0.022485
v 0.020856 -0.030626 -0.024575
v 0.030258 -0.042637 -0.001072
v 0.026601 -0.030626 0.008329
v 0.030258 -0.029585 -0.037635
v 0.021902 -0.032710 0.008854
v 0.029736 -0.031666 0.005715
v 0.031303 -0.042116 -0.005776
v 0.028169 -0.047862 -0.013608
v 0.024513 -0.031666 -0.034497
v 0.028169 -0.013908 -0.020392
v 0.029736 -0.046293 -0.006820
v 0.025034 -0.045246 -0.016738
v 0.028169 -0.024879 -0.036586
v 0.021378 -0.028538 -0.029793
v 0.020856 -0.018611 0.004671
v 0.029736 -0.035847 -0.035541
v 0.022425 -0.041069 -0.018827
v 0.030781 -0.047337 -0.011519
v 0.020856 -0.036887 0.006765
v 0.023469 -0.040025 0.004151
v 0.029736 -0.014433 -0.003162
v 0.030781 -0.014955 -0.007345
v 0.022946 -0.035844 -0.028749
v 0.029214 -0.046293 -0.023526
v 0.031303 -0.045250 -0.010474
f 555 590 597 
f 549 541 550 
f 544 550 553 
f 550 544 556 
f 549 550 556 
f 541 551 560 
f 549 556 561 
f 553 550 564 
f 541 549 565 
f 545 551 566 
f 556 563 568 
f 546 553 569 
f 553 546 570 
f 556 544 570 
f 571 559 572 
f 557 571 572 
f 547 561 573 
f 561 556 573 
f 555 548 574 
f 551 541 575 
f 546 558 576 
f 575 541 577 
f 554 575 577 
f 566 551 578 
f 548 566 578 
f 574 548 578 
f 554 574 578 
f 551 575 578 
f 575 554 578 
f 548 555 579 
f 545 566 579 
f 566 548 579 
f 546 569 579 
f 542 543 580 
f 549 561 580 
f 562 549 580 
f 552 559 581 
f 563 552 581 
f 568 563 581 
f 559 571 581 
f 544 553 582 
f 553 570 582 
f 570 544 582 
f 549 562 583 
f 565 549 583 
f 555 574 583 
f 561 557 584 
f 572 542 584 
f 557 572 584 
f 542 580 584 
f 580 561 584 
f 552 563 585 
f 563 556 585 
f 570 546 585 
f 556 570 585 
f 546 576 585 
f 576 552 585 
f 556 568 586 
f 547 573 586 
f 573 556 586 
f 581 547 586 
f 568 581 586 
f 550 541 587 
f 541 560 587 
f 564 550 587 
f 559 552 588 
f 558 567 588 
f 576 558 588 
f 552 576 588 
f 561 547 589 
f 557 561 589 
f 543 567 590 
f 580 543 590 
f 562 580 590 
f 555 583 590 
f 583 562 590 
f 541 565 591 
f 577 541 591 
f 554 577 591 
f 574 554 592 
f 565 583 592 
f 583 574 592 
f 591 565 592 
f 554 591 592 
f 551 545 593 
f 560 551 593 
f 587 560 593 
f 564 587 593 
f 553 564 594 
f 569 553 594 
f 545 579 594 
f 579 569 594 
f 593 545 594 
f 564 593 594 
f 571 557 595 
f 547 581 595 
f 581 571 595 
f 589 547 595 
f 557 589 595 
f 543 542 596 
f 567 543 596 
f 572 559 596 
f 542 572 596 
f 559 588 596 
f 588 567 596 
f 558 546 597 
f 567 558 597 
f 546 579 597 
f 579 555 597 
f 590 567 597 
o convex_15
v 0.021900 0.001246 0.018252
v 0.017199 -0.013908 -0.023527
v 0.019810 -0.013908 -0.023527
v 0.024512 0.016912 -0.017260
v 0.014065 0.016912 0.013032
v 0.014065 -0.013908 0.016685
v 0.014065 0.016912 -0.015170
v 0.024512 -0.013908 -0.003683
v 0.024512 0.016912 0.013032
v 0.024512 -0.000326 -0.028232
v 0.014065 -0.011817 -0.022480
v 0.014065 0.002803 0.020342
v 0.018245 0.002803 -0.026661
v 0.024512 -0.013908 -0.021437
v 0.018244 -0.013908 0.015123
v 0.024512 0.000721 0.014075
v 0.014065 0.003852 -0.022480
v 0.017722 0.000199 0.020866
v 0.020855 0.005940 0.019299
v 0.014065 -0.013908 -0.021437
v 0.020333 -0.002935 -0.027709
v 0.020855 -0.007639 0.016166
v 0.018767 0.005418 -0.025613
v 0.023989 -0.010770 -0.025089
v 0.017199 -0.007639 0.019299
v 0.019289 0.016912 -0.017260
v 0.014065 0.006462 0.019299
v 0.024512 0.013253 0.014599
v 0.017722 0.000199 -0.026656
v 0.015110 -0.007639 0.019299
v 0.023467 0.001759 0.016690
v 0.022945 0.003331 -0.026661
v 0.020333 -0.011295 0.013551
v 0.017199 0.004896 -0.025094
v 0.018767 -0.006589 0.018776
v 0.021378 0.003852 0.019299
v 0.021378 0.016384 0.013551
v 0.021900 0.000199 -0.028232
f 620 629 635 
f 599 600 603 
f 602 601 604 
f 603 602 604 
f 603 600 605 
f 601 602 606 
f 605 601 606 
f 601 605 607 
f 603 604 608 
f 602 603 609 
f 605 600 611 
f 607 605 611 
f 603 605 612 
f 605 606 613 
f 608 604 614 
f 609 615 616 
f 599 603 617 
f 608 599 617 
f 603 608 617 
f 599 608 618 
f 600 599 621 
f 611 600 621 
f 607 611 621 
f 599 618 621 
f 618 607 621 
f 603 612 622 
f 604 601 623 
f 601 620 623 
f 620 604 623 
f 602 609 624 
f 609 616 624 
f 613 606 625 
f 606 616 625 
f 608 614 626 
f 614 610 626 
f 618 608 626 
f 609 603 627 
f 615 609 627 
f 603 622 627 
f 622 615 627 
f 619 613 628 
f 598 619 628 
f 613 625 628 
f 601 607 629 
f 620 601 629 
f 612 605 630 
f 605 613 630 
f 619 612 630 
f 613 619 630 
f 614 604 631 
f 610 614 631 
f 604 620 631 
f 620 610 631 
f 612 619 632 
f 619 598 632 
f 622 612 632 
f 615 622 632 
f 616 615 633 
f 625 616 633 
f 598 628 633 
f 628 625 633 
f 632 598 633 
f 615 632 633 
f 606 602 634 
f 616 606 634 
f 602 624 634 
f 624 616 634 
f 607 618 635 
f 610 620 635 
f 626 610 635 
f 618 626 635 
f 629 607 635 
o convex_16
v 0.027647 0.001763 -0.025616
v 0.024512 -0.013908 -0.021438
v 0.024512 -0.007637 -0.026141
v 0.024512 0.001763 -0.001069
v 0.031303 -0.007637 -0.002638
v 0.030780 -0.012340 -0.021962
v 0.024512 -0.013908 -0.003685
v 0.030780 0.001763 0.002063
v 0.030780 -0.001374 -0.024575
v 0.024512 0.001763 -0.027182
v 0.029213 -0.013908 -0.005773
v 0.029735 -0.005551 0.002063
v 0.028168 -0.004507 -0.027182
v 0.030780 0.001763 -0.020397
v 0.031303 -0.011295 -0.017784
v 0.029735 -0.013385 -0.021962
v 0.030780 -0.006594 0.001541
v 0.028691 0.001240 0.002588
v 0.030780 -0.012340 -0.008382
v 0.031303 -0.003984 -0.001594
v 0.029735 -0.013908 -0.018828
v 0.027125 -0.001374 -0.027710
v 0.027125 -0.013908 -0.003685
v 0.024512 -0.002938 -0.027710
v 0.030258 -0.003463 -0.025616
f 648 657 660 
f 638 637 639 
f 639 637 642 
f 636 639 643 
f 638 639 645 
f 639 636 645 
f 642 637 646 
f 636 643 649 
f 644 636 649 
f 644 649 650 
f 641 644 650 
f 637 638 651 
f 638 648 651 
f 648 641 651 
f 647 642 652 
f 643 647 652 
f 639 642 653 
f 643 639 653 
f 642 647 653 
f 647 643 653 
f 641 650 654 
f 650 640 654 
f 640 652 654 
f 652 646 654 
f 649 643 655 
f 650 649 655 
f 640 650 655 
f 652 640 655 
f 643 652 655 
f 646 637 656 
f 637 651 656 
f 651 641 656 
f 641 654 656 
f 654 646 656 
f 636 644 657 
f 645 636 657 
f 642 646 658 
f 646 652 658 
f 652 642 658 
f 638 645 659 
f 648 638 659 
f 645 657 659 
f 657 648 659 
f 644 641 660 
f 641 648 660 
f 657 644 660 
o convex_17
v 0.030258 0.011687 0.014602
v 0.024512 0.001763 -0.026665
v 0.024512 0.002287 -0.026665
v 0.024512 0.013778 0.014602
v 0.030780 0.016912 -0.016215
v 0.030780 0.001763 0.003110
v 0.024512 0.016912 -0.017257
v 0.024512 0.003854 0.012510
v 0.030780 0.001763 -0.019350
v 0.030258 0.016912 0.014077
v 0.031303 0.006466 0.009900
v 0.024512 0.016912 0.013035
v 0.024512 0.001763 -0.000025
v 0.030258 0.007511 0.014077
v 0.028168 0.002287 -0.024052
v 0.030780 0.016389 0.013035
v 0.025036 0.005944 0.014602
v 0.029735 0.016912 -0.017257
v 0.031303 0.003331 0.002060
v 0.030258 0.005420 0.011989
v 0.025558 0.002287 -0.026665
v 0.030780 0.013778 0.014602
f 671 676 682 
f 663 662 664 
f 663 664 667 
f 664 662 668 
f 666 662 669 
f 665 667 670 
f 667 664 672 
f 664 670 672 
f 670 667 672 
f 662 666 673 
f 668 662 673 
f 666 668 673 
f 669 662 675 
f 665 669 675 
f 665 670 676 
f 671 665 676 
f 661 664 677 
f 664 668 677 
f 674 661 677 
f 663 667 678 
f 667 665 678 
f 669 665 679 
f 666 669 679 
f 671 666 679 
f 665 671 679 
f 668 666 680 
f 666 671 680 
f 671 674 680 
f 677 668 680 
f 674 677 680 
f 662 663 681 
f 675 662 681 
f 665 675 681 
f 663 678 681 
f 678 665 681 
f 664 661 682 
f 670 664 682 
f 661 674 682 
f 674 671 682 
f 676 670 682 
