o convex_0
v 0.021429 -0.004308 0.029651
v 0.021757 -0.002996 0.030635
v 0.021429 -0.002996 0.030635
v 0.021757 -0.003324 0.029651
v 0.022085 -0.003652 0.030307
f 4 2 5 
f 3 2 4 
f 1 3 4 
f 1 4 5 
f 3 1 5 
f 2 3 5 
o convex_1
v 0.019132 -0.001026 0.000119
v 0.019132 0.008818 0.009633
v 0.018804 0.008818 0.009633
v 0.018804 -0.002666 0.009633
v 0.023070 0.001271 0.009633
v 0.018804 0.003895 0.000447
v 0.023070 0.004222 0.009304
v 0.018804 -0.003324 0.003728
v 0.020117 -0.000370 0.000775
v 0.021757 -0.001681 0.008975
v 0.019132 0.004551 0.001103
v 0.020445 0.001927 0.001431
v 0.022413 0.000287 0.006680
v 0.019460 -0.002338 0.001431
v 0.020773 0.006849 0.008648
v 0.022742 0.002584 0.007336
v 0.018804 0.001599 -0.000210
v 0.021101 -0.002010 0.009633
f 15 10 23 
f 7 8 9 
f 7 9 10 
f 9 8 11 
f 7 10 12 
f 9 11 13 
f 8 7 16 
f 11 8 16 
f 11 16 17 
f 16 12 17 
f 10 15 18 
f 14 17 18 
f 13 6 19 
f 6 14 19 
f 15 13 19 
f 14 18 19 
f 18 15 19 
f 7 12 20 
f 16 7 20 
f 12 16 20 
f 12 10 21 
f 17 12 21 
f 10 18 21 
f 18 17 21 
f 6 13 22 
f 13 11 22 
f 14 6 22 
f 11 17 22 
f 17 14 22 
f 10 9 23 
f 9 13 23 
f 13 15 23 
o convex_2
v 0.018804 0.008816 0.009634
v 0.019132 0.006520 0.019149
v 0.018804 0.006520 0.019149
v 0.018804 -0.004636 0.016523
v 0.025367 0.002584 0.012588
v 0.018804 -0.002667 0.009634
v 0.019132 0.012428 0.017836
v 0.024381 -0.000041 0.017508
v 0.024381 -0.000041 0.010619
v 0.020445 -0.004307 0.018164
v 0.022412 0.005534 0.009634
v 0.022085 0.009145 0.015539
v 0.024054 -0.001354 0.012260
v 0.018804 -0.003980 0.018820
v 0.019789 0.010458 0.012916
v 0.021758 -0.001681 0.009634
v 0.020445 -0.002994 0.018820
v 0.018804 0.012428 0.015868
v 0.023726 0.005534 0.015539
v 0.023070 0.006520 0.011931
v 0.020445 -0.004307 0.016523
v 0.025039 0.003568 0.011931
v 0.023397 0.003241 0.009634
v 0.025367 0.002913 0.013572
v 0.019132 0.012098 0.018164
v 0.022085 0.009145 0.014556
v 0.022085 0.008489 0.016523
v 0.019132 0.009473 0.010291
v 0.020774 -0.002994 0.011931
v 0.019460 0.006192 0.019149
v 0.021101 -0.003980 0.017508
v 0.024381 0.000286 0.017508
f 48 53 55 
f 26 24 27 
f 27 24 29 
f 29 24 34 
f 28 31 36 
f 32 28 36 
f 26 27 37 
f 27 33 37 
f 29 34 39 
f 32 36 39 
f 33 31 40 
f 37 33 40 
f 24 26 41 
f 33 27 44 
f 28 32 45 
f 34 43 45 
f 39 34 46 
f 32 39 46 
f 45 32 46 
f 34 45 46 
f 31 28 47 
f 35 42 47 
f 28 45 47 
f 45 35 47 
f 26 25 48 
f 41 26 48 
f 30 41 48 
f 30 35 49 
f 41 30 49 
f 38 41 49 
f 43 38 49 
f 35 45 49 
f 45 43 49 
f 35 30 50 
f 42 35 50 
f 30 48 50 
f 34 24 51 
f 24 41 51 
f 41 38 51 
f 43 34 51 
f 38 43 51 
f 27 29 52 
f 29 39 52 
f 39 36 52 
f 44 27 52 
f 36 44 52 
f 25 26 53 
f 26 37 53 
f 40 31 53 
f 37 40 53 
f 48 25 53 
f 31 33 54 
f 36 31 54 
f 33 44 54 
f 44 36 54 
f 31 47 55 
f 47 42 55 
f 42 50 55 
f 50 48 55 
f 53 31 55 
o convex_3
v -0.011058 -0.006930 -0.026134
v -0.010730 0.010129 -0.010384
v -0.010730 0.010129 -0.011697
v -0.015323 -0.002009 -0.010384
v -0.010730 -0.009557 -0.010384
v -0.013682 0.002581 -0.025150
v -0.010730 0.003893 -0.026134
v -0.013682 -0.004306 -0.024822
v -0.013682 -0.006930 -0.011040
v -0.010730 -0.008242 -0.024165
v -0.011386 0.009471 -0.010384
v -0.012699 -0.004635 -0.026791
v -0.012043 -0.007260 -0.024822
v -0.014338 0.000941 -0.022196
v -0.015323 -0.003321 -0.011040
v -0.012371 0.005862 -0.021210
v -0.011386 -0.009557 -0.010384
v -0.010730 -0.006275 -0.026462
v -0.011058 0.004550 -0.025477
v -0.013682 0.002910 -0.024822
v -0.012371 0.002581 -0.026134
v -0.011058 0.010129 -0.011697
v -0.013682 -0.003651 -0.025477
v -0.010730 0.002581 -0.026462
v -0.015323 -0.002666 -0.012025
v -0.012371 -0.008572 -0.010384
f 68 72 81 
f 58 57 60 
f 57 59 60 
f 58 60 62 
f 62 60 65 
f 59 57 66 
f 64 63 68 
f 56 65 68 
f 67 56 68 
f 63 67 68 
f 63 64 70 
f 60 59 72 
f 65 60 72 
f 68 65 72 
f 65 56 73 
f 62 65 73 
f 56 67 73 
f 58 62 74 
f 71 74 75 
f 59 66 75 
f 69 59 75 
f 61 69 75 
f 74 61 75 
f 67 61 76 
f 74 62 76 
f 61 74 76 
f 57 58 77 
f 66 57 77 
f 58 74 77 
f 74 71 77 
f 71 75 77 
f 75 66 77 
f 61 67 78 
f 67 63 78 
f 69 61 78 
f 62 73 79 
f 73 67 79 
f 76 62 79 
f 67 76 79 
f 59 69 80 
f 70 59 80 
f 63 70 80 
f 78 63 80 
f 69 78 80 
f 64 68 81 
f 59 70 81 
f 70 64 81 
f 72 59 81 
o convex_4
v 0.017490 -0.003651 0.019478
v -0.017290 -0.003323 -0.000867
v -0.017617 -0.003323 -0.000210
v 0.018804 0.002255 0.018492
v -0.022210 0.002255 0.017506
v 0.018473 0.002255 -0.000867
v -0.020244 -0.004964 0.018164
v 0.016177 -0.004964 -0.000867
v -0.015651 0.002255 -0.000867
v 0.018473 -0.004964 0.016849
v -0.015977 -0.004964 -0.000867
v -0.018604 0.000285 0.019149
v -0.021884 -0.004636 0.014882
v 0.018804 -0.003323 0.002415
v -0.006133 0.002255 0.019149
v -0.022871 0.001270 0.016194
v -0.017947 0.002255 0.001760
v 0.017817 -0.004308 0.019478
v -0.019587 -0.004964 0.018492
v 0.012236 -0.000699 0.019478
v -0.022541 -0.003323 0.017506
v 0.018804 -0.004308 0.018492
v 0.018804 -0.000699 -0.000210
v 0.018473 -0.004964 0.007668
v 0.009287 -0.004964 0.018492
v -0.022871 -0.001355 0.016194
v -0.017947 -0.004964 0.002415
v -0.020244 -0.002667 0.018819
v -0.019587 0.002255 0.018492
v -0.018604 0.000613 0.002745
v 0.018804 0.002255 -0.000539
v -0.021558 -0.004964 0.016523
v -0.022210 0.002255 0.015210
v 0.005676 0.001598 0.019149
v -0.017290 -0.001683 -0.000867
v -0.018274 -0.000371 0.019149
v -0.021884 -0.003651 0.013898
f 108 94 118 
f 86 85 87 
f 83 87 89 
f 87 83 90 
f 86 87 90 
f 88 89 91 
f 83 89 92 
f 89 88 92 
f 85 86 96 
f 86 90 98 
f 85 82 99 
f 88 91 100 
f 82 85 101 
f 96 93 101 
f 99 82 101 
f 86 97 102 
f 88 100 102 
f 95 85 103 
f 85 99 103 
f 99 91 103 
f 89 87 104 
f 85 95 104 
f 95 89 104 
f 91 89 105 
f 89 95 105 
f 95 103 105 
f 103 91 105 
f 91 99 106 
f 99 100 106 
f 100 91 106 
f 94 102 107 
f 102 97 107 
f 84 83 108 
f 83 92 108 
f 92 88 108 
f 93 86 109 
f 100 99 109 
f 86 102 109 
f 102 100 109 
f 86 93 110 
f 96 86 110 
f 93 96 110 
f 97 98 111 
f 84 107 111 
f 107 97 111 
f 87 85 112 
f 85 104 112 
f 104 87 112 
f 88 102 113 
f 102 94 113 
f 108 88 113 
f 94 108 113 
f 97 86 114 
f 86 98 114 
f 98 97 114 
f 85 96 115 
f 101 85 115 
f 96 101 115 
f 83 84 116 
f 90 83 116 
f 98 90 116 
f 84 111 116 
f 111 98 116 
f 101 93 117 
f 99 101 117 
f 93 109 117 
f 109 99 117 
f 107 84 118 
f 94 107 118 
f 84 108 118 
o convex_5
v -0.000556 0.021286 0.015211
v 0.018802 0.006523 0.019147
v 0.018802 0.006195 0.019147
v 0.018802 0.002255 -0.000865
v -0.000883 0.002259 0.018493
v -0.000883 0.006851 -0.000867
v 0.009287 0.012754 -0.000867
v 0.013554 0.016692 0.020787
v -0.000883 0.016362 -0.000867
v 0.018802 0.012754 0.015865
v 0.018474 0.002255 0.018493
v 0.009287 0.016036 0.022759
v 0.005679 0.002255 -0.000867
v -0.000883 0.019972 0.019149
v -0.000883 0.002259 0.005699
v 0.016177 0.007506 -0.000865
v 0.003710 0.020628 0.016850
v 0.017162 0.014723 0.018164
v 0.005024 0.019974 0.020461
v 0.005352 0.014723 -0.000867
v -0.000556 0.002259 0.018821
v 0.017490 0.013410 0.020132
v 0.018474 0.004881 -0.000865
v 0.011582 0.017677 0.018493
v 0.000100 0.019645 0.019804
v 0.001412 0.016034 -0.000867
v 0.015194 0.011115 0.021115
v 0.013554 0.009803 -0.000865
v -0.000883 0.021286 0.017507
v 0.009615 0.016692 0.022759
v 0.018802 0.002255 0.018164
v 0.018802 0.012426 0.018493
v -0.000883 0.002586 0.018821
v 0.015522 0.015379 0.017179
v 0.010272 0.018333 0.020461
v 0.014537 0.015051 0.021444
v 0.002725 0.002259 0.018821
v 0.018474 0.013082 0.015865
v 0.018802 0.004226 -0.000865
v 0.006336 0.019645 0.017177
v 0.000429 0.020956 0.014554
v 0.010272 0.017677 0.021774
v 0.003710 0.020628 0.019149
v -0.000228 0.020628 0.019149
v 0.017817 0.014067 0.019147
v 0.006992 0.014065 -0.000539
f 142 152 164 
f 120 121 122 
f 124 123 127 
f 125 124 127 
f 120 122 128 
f 125 122 131 
f 124 125 131 
f 122 129 131 
f 129 123 131 
f 127 123 132 
f 123 124 133 
f 131 123 133 
f 124 131 133 
f 125 127 138 
f 123 129 139 
f 121 120 140 
f 125 134 141 
f 134 128 141 
f 126 136 142 
f 138 127 144 
f 135 138 144 
f 129 121 145 
f 130 129 145 
f 121 140 145 
f 134 125 146 
f 119 127 147 
f 127 132 147 
f 143 130 148 
f 137 143 148 
f 130 145 148 
f 122 121 149 
f 121 129 149 
f 129 122 149 
f 120 128 150 
f 140 120 150 
f 132 123 151 
f 123 139 151 
f 139 130 151 
f 130 143 151 
f 143 132 151 
f 136 125 152 
f 142 136 152 
f 126 142 153 
f 140 126 154 
f 145 140 154 
f 148 145 154 
f 129 130 155 
f 139 129 155 
f 130 139 155 
f 128 134 156 
f 136 128 156 
f 125 136 156 
f 146 125 156 
f 134 146 156 
f 122 125 157 
f 128 122 157 
f 125 141 157 
f 141 128 157 
f 138 135 158 
f 142 138 158 
f 135 153 158 
f 153 142 158 
f 127 119 159 
f 119 135 159 
f 144 127 159 
f 135 144 159 
f 137 148 160 
f 153 137 160 
f 126 153 160 
f 154 126 160 
f 148 154 160 
f 135 119 161 
f 119 147 161 
f 153 135 161 
f 137 153 161 
f 143 137 162 
f 132 143 162 
f 147 132 162 
f 161 147 162 
f 137 161 162 
f 136 126 163 
f 128 136 163 
f 126 140 163 
f 150 128 163 
f 140 150 163 
f 125 138 164 
f 138 142 164 
f 152 125 164 
o convex_6
v -0.010071 -0.010540 -0.010054
v -0.004495 -0.000042 -0.000868
v -0.001213 -0.003981 -0.000868
v -0.014011 -0.009558 -0.000868
v -0.014338 -0.000042 -0.010383
v -0.001213 -0.012838 -0.010383
v -0.001213 -0.015137 -0.000868
v -0.001213 -0.005621 -0.010383
v -0.016635 -0.000042 -0.000868
v -0.015324 -0.003324 -0.010383
v -0.007120 -0.000042 -0.010383
v -0.007449 -0.013823 -0.001197
v -0.017293 -0.002996 -0.001197
v -0.014011 -0.006606 -0.010383
v -0.003182 -0.012838 -0.010383
v -0.016635 -0.000042 -0.004806
v -0.016307 -0.006279 -0.001197
v -0.012040 -0.011526 -0.001197
v -0.001213 -0.004967 -0.009069
v -0.002526 -0.015137 -0.001525
v -0.011057 -0.009886 -0.010383
v -0.006136 -0.012183 -0.010054
v -0.005480 -0.000042 -0.005462
v -0.009089 -0.013167 -0.000868
v -0.004495 -0.014808 -0.001197
v -0.001213 -0.003981 -0.003494
v -0.017293 -0.001684 -0.000868
v -0.015324 -0.002012 -0.010383
v -0.014011 -0.009558 -0.001197
v -0.007777 -0.011526 -0.010383
f 176 188 194 
f 167 166 168 
f 167 168 171 
f 170 167 171 
f 170 169 172 
f 167 170 172 
f 168 166 173 
f 166 169 173 
f 169 170 174 
f 169 166 175 
f 172 169 175 
f 174 170 178 
f 178 170 179 
f 173 169 180 
f 174 177 180 
f 177 174 181 
f 174 178 181 
f 167 172 183 
f 172 175 183 
f 170 171 184 
f 179 170 184 
f 178 179 185 
f 165 182 185 
f 175 166 187 
f 166 183 187 
f 183 175 187 
f 171 168 188 
f 182 165 188 
f 168 182 188 
f 184 171 189 
f 179 184 189 
f 176 186 189 
f 186 179 189 
f 171 188 189 
f 188 176 189 
f 166 167 190 
f 167 183 190 
f 183 166 190 
f 168 173 191 
f 173 180 191 
f 180 177 191 
f 181 168 191 
f 177 181 191 
f 169 174 192 
f 180 169 192 
f 174 180 192 
f 168 181 193 
f 181 178 193 
f 182 168 193 
f 178 185 193 
f 185 182 193 
f 185 179 194 
f 165 185 194 
f 186 176 194 
f 179 186 194 
f 188 165 194 
o convex_7
v 0.002397 -0.013167 -0.009398
v 0.017818 -0.000042 -0.000868
v 0.017818 -0.000371 -0.000868
v -0.001211 -0.003981 -0.000868
v 0.006664 -0.000042 -0.010383
v 0.004367 -0.015136 -0.000868
v 0.016178 -0.005293 -0.010383
v -0.001211 -0.012840 -0.010383
v -0.001211 -0.015136 -0.000868
v 0.012238 -0.010870 -0.001197
v -0.001211 -0.005624 -0.010383
v 0.016506 -0.000042 -0.010383
v 0.006992 -0.000042 -0.000868
v 0.010269 -0.009884 -0.010383
v 0.015522 -0.007263 -0.000868
v -0.000228 -0.002997 -0.002837
v 0.006008 -0.014808 -0.001197
v 0.017818 -0.000699 -0.008086
v 0.005022 -0.012182 -0.010383
v -0.000883 -0.015465 -0.001197
v 0.009287 -0.013167 -0.000868
v 0.000430 -0.002668 -0.000868
v 0.002397 -0.015465 -0.001197
v -0.001211 -0.013167 -0.010054
v 0.017162 -0.002669 -0.010383
v -0.000556 -0.003324 -0.003821
v 0.015850 -0.006606 -0.001197
v 0.017818 -0.000042 -0.008086
v 0.006664 -0.000042 -0.002509
v 0.010269 -0.010214 -0.009398
v 0.007319 -0.011856 -0.008742
v 0.016178 -0.005620 -0.008742
f 219 221 226 
f 197 196 198 
f 197 198 200 
f 199 201 202 
f 200 198 203 
f 198 202 203 
f 202 198 205 
f 199 202 205 
f 199 196 206 
f 201 199 206 
f 198 196 207 
f 196 199 207 
f 202 201 208 
f 197 200 209 
f 196 197 212 
f 202 208 213 
f 211 195 213 
f 200 203 214 
f 209 200 215 
f 204 209 215 
f 200 211 215 
f 198 207 216 
f 210 198 216 
f 199 210 216 
f 195 211 217 
f 211 200 217 
f 200 214 217 
f 217 214 218 
f 203 202 218 
f 213 195 218 
f 202 213 218 
f 214 203 218 
f 195 217 218 
f 201 206 219 
f 205 198 220 
f 199 205 220 
f 198 210 220 
f 210 199 220 
f 197 209 221 
f 212 197 221 
f 219 212 221 
f 206 196 222 
f 196 212 222 
f 219 206 222 
f 212 219 222 
f 207 199 223 
f 216 207 223 
f 199 216 223 
f 201 204 224 
f 208 201 224 
f 204 215 224 
f 215 211 224 
f 213 208 225 
f 211 213 225 
f 208 224 225 
f 224 211 225 
f 204 201 226 
f 209 204 226 
f 201 219 226 
f 221 209 226 
o convex_8
v -0.014009 0.007836 -0.006773
v -0.000559 0.016365 -0.000868
v -0.000559 0.016365 -0.001197
v -0.004825 -0.000042 -0.000868
v 0.000756 0.008489 -0.010383
v -0.014336 -0.000042 -0.010383
v -0.016306 -0.000042 -0.000868
v -0.006795 0.014067 -0.010383
v -0.011713 0.013412 -0.000868
v 0.000756 0.006849 -0.000868
v -0.007450 -0.000042 -0.010383
v 0.000756 0.014395 -0.010383
v -0.011057 0.010458 -0.010383
v -0.005482 0.016365 -0.001197
v 0.000756 0.016036 -0.000868
v -0.015979 0.002256 -0.006773
v -0.012370 0.012753 -0.001525
v -0.003839 0.014724 -0.010383
v -0.005482 -0.000042 -0.005134
v -0.008104 0.015707 -0.000868
v -0.016636 0.000287 -0.003494
v -0.014667 0.005537 -0.008086
v -0.010072 0.013081 -0.006773
v -0.016306 0.000942 -0.000868
v 0.000756 0.008162 -0.009398
v -0.016636 -0.000042 -0.004806
v -0.009415 0.014396 -0.003821
v -0.007121 -0.000042 -0.010054
v -0.000885 0.014724 -0.010383
v -0.004168 0.016365 -0.001853
v -0.004825 -0.000042 -0.001525
v -0.010400 0.011769 -0.009398
f 243 249 258 
f 230 228 233 
f 232 230 233 
f 231 232 234 
f 233 228 235 
f 228 230 236 
f 230 232 237 
f 232 231 237 
f 231 234 238 
f 236 231 238 
f 234 232 239 
f 228 229 240 
f 229 228 241 
f 228 236 241 
f 238 229 241 
f 236 238 241 
f 239 227 243 
f 227 242 243 
f 238 234 244 
f 234 240 244 
f 230 237 245 
f 235 228 246 
f 228 240 246 
f 240 234 246 
f 243 242 247 
f 227 239 248 
f 239 232 248 
f 232 242 248 
f 242 227 248 
f 233 235 250 
f 235 243 250 
f 247 233 250 
f 243 247 250 
f 231 236 251 
f 245 231 251 
f 232 233 252 
f 242 232 252 
f 233 247 252 
f 247 242 252 
f 243 235 253 
f 235 246 253 
f 246 234 253 
f 234 249 253 
f 249 243 253 
f 237 231 254 
f 231 245 254 
f 245 237 254 
f 229 238 255 
f 238 244 255 
f 255 244 256 
f 240 229 256 
f 244 240 256 
f 229 255 256 
f 236 230 257 
f 230 245 257 
f 251 236 257 
f 245 251 257 
f 234 239 258 
f 239 243 258 
f 249 234 258 
o convex_9
v 0.017818 0.000287 -0.008086
v 0.001086 0.016037 -0.000869
v 0.002399 0.015708 -0.000869
v 0.006992 -0.000042 -0.000869
v 0.000756 0.008489 -0.010383
v 0.018804 0.003896 -0.000867
v 0.009615 0.010785 -0.010383
v 0.006992 -0.000042 -0.010383
v 0.000756 0.006521 -0.000869
v 0.000756 0.014396 -0.010054
v 0.016834 0.003568 -0.010383
v 0.013880 0.009474 -0.001197
v 0.017818 -0.000042 -0.000867
v 0.016177 -0.000042 -0.010383
v 0.015193 0.006194 -0.010383
v 0.007976 0.013412 -0.000869
v 0.004040 0.013412 -0.010383
v 0.017818 0.005537 -0.001196
v 0.000756 0.016037 -0.000869
v 0.006663 -0.000042 -0.004150
v 0.018475 0.001272 -0.005462
v 0.000756 0.007834 -0.008742
v 0.013552 0.007834 -0.010383
v 0.006337 0.014068 -0.001853
v 0.007321 0.012099 -0.010054
v 0.009615 0.012425 -0.001197
v 0.002070 0.014068 -0.010383
v 0.018147 -0.000042 -0.006446
v 0.018804 0.002256 -0.000867
v 0.004367 0.015052 -0.001197
v 0.016505 0.004552 -0.010054
v 0.018804 0.003568 -0.002181
v 0.015521 0.007834 -0.001853
f 273 281 291 
f 261 260 264 
f 263 265 266 
f 263 267 268 
f 266 265 269 
f 262 266 271 
f 267 262 271 
f 269 259 272 
f 266 269 272 
f 271 266 272 
f 269 265 273 
f 261 264 274 
f 264 270 274 
f 265 263 275 
f 270 264 276 
f 264 260 277 
f 260 268 277 
f 268 267 277 
f 271 264 277 
f 267 271 277 
f 266 262 278 
f 262 267 278 
f 267 266 278 
f 259 269 279 
f 263 266 280 
f 267 263 280 
f 266 267 280 
f 265 270 281 
f 273 265 281 
f 274 265 283 
f 265 275 283 
f 282 274 283 
f 270 265 284 
f 265 274 284 
f 274 270 284 
f 260 261 285 
f 268 260 285 
f 263 268 285 
f 275 263 285 
f 272 259 286 
f 271 272 286 
f 259 279 286 
f 286 279 287 
f 264 271 287 
f 271 286 287 
f 261 274 288 
f 274 282 288 
f 283 275 288 
f 282 283 288 
f 285 261 288 
f 275 285 288 
f 269 273 289 
f 273 276 289 
f 289 276 290 
f 276 264 290 
f 279 269 290 
f 287 279 290 
f 264 287 290 
f 269 289 290 
f 270 276 291 
f 276 273 291 
f 281 270 291 
o convex_10
v -0.009742 -0.018420 0.020132
v 0.000098 -0.018091 0.006680
v 0.000098 -0.017762 0.006680
v 0.014537 -0.018091 0.017180
v 0.002068 -0.023997 0.016524
v -0.012695 -0.017762 0.013897
v 0.006662 -0.019732 0.020791
v -0.004822 -0.023340 0.018492
v -0.003835 -0.021372 0.009636
v 0.013225 -0.020715 0.015867
v 0.006662 -0.018091 0.007665
v 0.011913 -0.017762 0.018492
v -0.008101 -0.018091 0.007338
v -0.010070 -0.021043 0.017180
v 0.001082 -0.023340 0.013574
v 0.010269 -0.021043 0.019148
v -0.002523 -0.022355 0.020132
v -0.012040 -0.017762 0.019148
v 0.011913 -0.017762 0.011275
v -0.008101 -0.020717 0.020462
v -0.000228 -0.023668 0.018821
v 0.009612 -0.021700 0.014882
v -0.004822 -0.023340 0.017180
v -0.001211 -0.022355 0.010947
v -0.009087 -0.020717 0.014227
v -0.013355 -0.018091 0.017835
v 0.012568 -0.019403 0.019150
v 0.006330 -0.019075 0.020791
v -0.007775 -0.017762 0.019806
v -0.010399 -0.020388 0.019477
v -0.001211 -0.023997 0.016524
v 0.014866 -0.017762 0.015867
v -0.012695 -0.018420 0.014554
v 0.012568 -0.021043 0.017180
v 0.002068 -0.023997 0.017509
v -0.008101 -0.017762 0.007338
v 0.004689 -0.018091 0.007009
v -0.004493 -0.021700 0.010947
v 0.012897 -0.020388 0.014883
v -0.006788 -0.022355 0.019477
v -0.009087 -0.018091 0.008321
v -0.002195 -0.022355 0.010947
v -0.007117 -0.018091 0.007009
v -0.007446 -0.022355 0.017180
v 0.006330 -0.017762 0.019148
v 0.006004 -0.017762 0.007338
v 0.011913 -0.018091 0.011275
v -0.002852 -0.023668 0.018821
v 0.001082 -0.023012 0.012916
v -0.000228 -0.023012 0.019477
v -0.006460 -0.021372 0.020462
v 0.012568 -0.018091 0.018821
f 319 318 343 
f 294 297 303 
f 303 297 309 
f 294 303 310 
f 296 306 313 
f 309 297 317 
f 298 307 318 
f 292 311 319 
f 311 298 319 
f 298 318 319 
f 303 309 320 
f 309 292 320 
f 292 319 320 
f 292 309 321 
f 311 292 321 
f 317 305 321 
f 309 317 321 
f 306 296 322 
f 299 314 322 
f 295 301 323 
f 303 295 323 
f 310 303 323 
f 316 305 324 
f 317 297 324 
f 305 317 324 
f 301 295 325 
f 296 313 325 
f 313 301 325 
f 295 318 325 
f 318 307 325 
f 307 312 326 
f 322 296 326 
f 296 325 326 
f 325 307 326 
f 297 294 327 
f 293 294 328 
f 300 293 328 
f 315 300 328 
f 302 315 328 
f 304 300 329 
f 301 313 330 
f 313 302 330 
f 323 301 330 
f 321 305 331 
f 311 321 331 
f 324 297 332 
f 316 324 332 
f 297 327 332 
f 327 304 332 
f 304 329 332 
f 329 316 332 
f 315 306 333 
f 300 315 333 
f 306 322 333 
f 322 314 333 
f 329 300 333 
f 314 329 333 
f 294 293 334 
f 293 300 334 
f 300 304 334 
f 327 294 334 
f 304 327 334 
f 314 299 335 
f 305 316 335 
f 316 329 335 
f 329 314 335 
f 299 331 335 
f 331 305 335 
f 319 303 336 
f 303 320 336 
f 320 319 336 
f 294 310 337 
f 310 302 337 
f 328 294 337 
f 302 328 337 
f 302 310 338 
f 310 323 338 
f 330 302 338 
f 323 330 338 
f 299 322 339 
f 326 312 339 
f 322 326 339 
f 331 299 339 
f 308 331 339 
f 302 313 340 
f 313 306 340 
f 306 315 340 
f 315 302 340 
f 307 298 341 
f 298 308 341 
f 312 307 341 
f 308 339 341 
f 339 312 341 
f 308 298 342 
f 298 311 342 
f 331 308 342 
f 311 331 342 
f 295 303 343 
f 318 295 343 
f 303 319 343 
o convex_11
v 0.012895 -0.005949 0.018492
v -0.016306 -0.006277 -0.000867
v -0.016306 -0.005293 -0.000867
v -0.018603 -0.009888 0.019475
v 0.011911 -0.017762 0.010615
v 0.016175 -0.004964 -0.000865
v -0.001867 -0.015463 -0.000867
v -0.012695 -0.017762 0.018819
v -0.019586 -0.004964 0.018492
v 0.013882 -0.017106 0.018819
v 0.018476 -0.004964 0.016524
v -0.012369 -0.008904 0.021447
v -0.009085 -0.017762 0.007667
v 0.008957 -0.013495 -0.000867
v -0.020900 -0.008247 0.014553
v 0.015192 -0.017762 0.015536
v 0.014865 -0.009559 0.019802
v -0.013352 -0.017762 0.014553
v -0.011712 -0.011854 -0.000867
v -0.009741 -0.017762 0.019804
v -0.018273 -0.004964 0.003728
v 0.004363 -0.017762 0.006026
v 0.018145 -0.005293 0.007996
v 0.015518 -0.007590 -0.000535
v 0.014208 -0.013167 0.019802
v 0.009941 -0.004964 0.018492
v 0.016832 -0.012839 0.018164
v -0.014339 -0.009559 -0.000537
v 0.005020 -0.015137 -0.000867
v -0.021230 -0.004964 0.016851
v -0.015649 -0.007918 0.021117
v -0.015323 -0.016121 0.017836
v 0.017162 -0.012510 0.014881
v -0.014009 -0.014480 0.020462
v -0.019260 -0.009559 0.011930
v 0.011911 -0.011200 -0.000865
v -0.015976 -0.004964 -0.000867
v -0.007775 -0.013822 -0.000867
v 0.000426 -0.016449 0.019804
v -0.011712 -0.009559 0.021447
v -0.016306 -0.005949 0.019804
v 0.014208 -0.017762 0.017836
v 0.000096 -0.017434 0.004384
v -0.020900 -0.008247 0.016524
v -0.020900 -0.006605 0.012585
v 0.016175 -0.012839 0.019147
v 0.016175 -0.015792 0.017507
v 0.002393 -0.015792 -0.000210
v 0.003050 -0.017434 0.019477
v -0.008101 -0.017762 0.007009
v -0.020573 -0.004964 0.011273
v 0.018145 -0.007590 0.016851
v 0.015518 -0.017434 0.015866
v -0.018929 -0.004964 0.018819
v -0.014996 -0.016449 0.016524
v 0.017162 -0.004964 0.017179
v 0.014208 -0.009231 0.019802
v -0.010729 -0.017762 0.009962
v 0.006660 -0.017762 0.007011
v -0.004821 -0.014808 -0.000867
v -0.014996 -0.016449 0.018162
v 0.005347 -0.017762 0.019149
v -0.017946 -0.010545 0.019804
v 0.012238 -0.016778 0.019147
f 392 405 407 
f 345 346 350 
f 349 352 354 
f 348 351 356 
f 350 346 357 
f 351 348 359 
f 356 351 361 
f 345 350 362 
f 351 359 363 
f 346 345 364 
f 352 349 364 
f 348 356 365 
f 349 354 366 
f 349 366 367 
f 354 352 369 
f 345 362 371 
f 362 361 371 
f 357 348 372 
f 350 357 372 
f 347 352 373 
f 352 364 373 
f 352 347 374 
f 355 369 374 
f 367 366 376 
f 351 363 377 
f 355 374 377 
f 358 345 378 
f 345 371 378 
f 371 361 378 
f 348 357 379 
f 357 349 379 
f 359 348 379 
f 367 359 379 
f 349 367 379 
f 349 357 380 
f 357 346 380 
f 346 364 380 
f 364 349 380 
f 362 350 381 
f 356 362 381 
f 382 368 383 
f 360 355 383 
f 368 360 383 
f 377 363 383 
f 355 377 383 
f 363 382 383 
f 374 369 384 
f 363 359 385 
f 347 373 387 
f 373 358 387 
f 358 375 387 
f 345 358 388 
f 364 345 388 
f 358 373 388 
f 354 360 389 
f 368 353 389 
f 360 368 389 
f 376 370 390 
f 353 385 390 
f 389 353 390 
f 370 389 390 
f 350 372 391 
f 386 350 391 
f 365 386 391 
f 382 363 392 
f 368 382 392 
f 365 356 393 
f 356 381 393 
f 350 386 393 
f 386 365 393 
f 373 364 394 
f 364 388 394 
f 388 373 394 
f 366 354 395 
f 376 366 395 
f 370 376 395 
f 354 389 395 
f 389 370 395 
f 359 367 396 
f 367 376 396 
f 385 359 396 
f 376 390 396 
f 390 385 396 
f 369 352 397 
f 352 374 397 
f 384 369 397 
f 374 384 397 
f 375 358 398 
f 358 378 398 
f 378 361 398 
f 360 354 399 
f 369 344 399 
f 354 369 399 
f 355 360 400 
f 344 369 400 
f 369 355 400 
f 399 344 400 
f 360 399 400 
f 356 361 401 
f 362 356 401 
f 361 362 401 
f 348 365 402 
f 372 348 402 
f 391 372 402 
f 365 391 402 
f 381 350 403 
f 350 393 403 
f 393 381 403 
f 361 351 404 
f 351 377 404 
f 347 387 404 
f 387 375 404 
f 375 398 404 
f 398 361 404 
f 385 353 405 
f 363 385 405 
f 392 363 405 
f 374 347 406 
f 377 374 406 
f 404 377 406 
f 347 404 406 
f 353 368 407 
f 368 392 407 
f 405 353 407 
o convex_12
v -0.009418 0.019644 0.014225
v -0.015652 0.002255 -0.000867
v -0.008104 0.002255 -0.000867
v -0.017620 0.002584 0.019476
v -0.008104 0.003240 0.019476
v -0.018276 0.014723 0.016850
v -0.008104 0.015708 -0.000537
v -0.022214 0.002255 0.015537
v -0.016308 0.007179 0.000774
v -0.016964 0.009805 0.020133
v -0.008104 0.019316 0.015539
v -0.011715 0.013738 -0.000867
v -0.008104 0.002255 0.017509
v -0.017948 0.015051 0.015209
v -0.012371 0.017675 0.010288
v -0.022214 0.002255 0.017509
v -0.020573 0.007179 0.013241
v -0.017948 0.002584 0.001759
v -0.015323 0.006522 0.020791
v -0.019261 0.010458 0.019476
v -0.014013 0.013739 0.018819
v -0.008433 0.003896 0.019805
v -0.008433 0.019644 0.010943
v -0.014996 0.017349 0.015209
v -0.016308 0.006196 0.020791
v -0.020573 0.008491 0.018164
v -0.014669 0.012097 0.003074
v -0.019261 0.011115 0.013570
v -0.010401 0.016691 0.004384
v -0.013357 0.015708 0.006682
v -0.008762 0.015378 -0.000867
v -0.021556 0.004553 0.014227
v -0.016635 0.005866 0.000447
v -0.017948 0.014723 0.017180
v -0.012043 0.013410 -0.000867
v -0.015323 0.016691 0.013241
v -0.008762 0.019644 0.015209
v -0.009418 0.019644 0.012258
v -0.008104 0.019975 0.013241
v -0.018276 0.014723 0.015537
v -0.014669 0.013739 0.018819
v -0.017620 0.002255 0.001102
v -0.016964 0.002255 0.018819
v -0.010401 0.004225 0.020133
v -0.008104 0.009805 0.018164
v -0.010401 0.004881 0.020133
v -0.017620 0.003240 0.001102
f 449 425 454 
f 412 410 414 
f 409 410 415 
f 412 414 418 
f 410 409 419 
f 410 412 420 
f 415 410 420 
f 415 420 423 
f 417 426 428 
f 421 413 431 
f 423 411 432 
f 426 417 432 
f 417 427 432 
f 427 423 432 
f 415 423 433 
f 427 413 433 
f 423 427 433 
f 416 424 435 
f 436 419 437 
f 422 436 437 
f 414 410 438 
f 410 419 438 
f 430 414 438 
f 419 436 438 
f 436 430 438 
f 425 415 439 
f 415 433 439 
f 424 416 440 
f 413 427 441 
f 431 413 441 
f 419 409 442 
f 416 434 442 
f 434 421 442 
f 437 419 442 
f 421 437 442 
f 409 440 442 
f 440 416 442 
f 431 422 443 
f 421 431 443 
f 437 421 443 
f 422 437 443 
f 408 431 444 
f 431 441 444 
f 422 431 445 
f 431 408 445 
f 436 422 445 
f 430 436 445 
f 418 414 446 
f 414 430 446 
f 444 418 446 
f 408 444 446 
f 445 408 446 
f 430 445 446 
f 413 421 447 
f 433 413 447 
f 434 416 447 
f 421 434 447 
f 416 435 447 
f 435 424 447 
f 424 439 447 
f 439 433 447 
f 427 417 448 
f 428 418 448 
f 417 428 448 
f 441 427 448 
f 418 444 448 
f 444 441 448 
f 409 415 449 
f 415 425 449 
f 412 411 450 
f 420 412 450 
f 411 423 450 
f 423 420 450 
f 411 412 451 
f 412 429 451 
f 432 411 451 
f 426 432 451 
f 412 418 452 
f 418 428 452 
f 429 412 452 
f 429 452 453 
f 428 426 453 
f 451 429 453 
f 426 451 453 
f 452 428 453 
f 425 439 454 
f 439 424 454 
f 440 409 454 
f 424 440 454 
f 409 449 454 
o convex_13
v -0.002526 0.021286 0.017178
v -0.008104 0.002257 -0.000867
v -0.008104 0.015707 -0.000867
v -0.000886 0.016363 -0.000865
v -0.000886 0.002257 0.018164
v -0.008104 0.003242 0.019478
v -0.008104 0.019973 0.015210
v -0.000886 0.006522 -0.000865
v -0.000886 0.020300 0.018819
v -0.000886 0.002257 0.005699
v -0.004823 0.020956 0.013241
v -0.004823 0.020300 0.017837
v -0.008104 0.002257 0.017508
v -0.000886 0.021286 0.014882
v -0.000886 0.002586 0.018819
v -0.005478 0.002257 -0.000867
v -0.004167 0.016692 -0.000539
v -0.008104 0.019645 0.010616
v -0.006463 0.002914 0.019478
v -0.001870 0.003898 0.000776
v -0.002855 0.020956 0.012914
v -0.007448 0.020300 0.015867
v -0.008104 0.003898 0.019478
v -0.007119 0.002257 0.019149
v -0.001870 0.016692 -0.000537
v -0.003182 0.019645 0.018492
v -0.004495 0.021286 0.015210
v -0.005807 0.016363 -0.000867
v -0.008104 0.012099 0.017508
f 477 466 483 
f 457 456 460 
f 457 460 461 
f 458 459 462 
f 459 458 463 
f 459 456 464 
f 462 459 464 
f 463 455 466 
f 456 459 467 
f 460 456 467 
f 455 463 468 
f 463 458 468 
f 459 463 469 
f 456 457 470 
f 458 462 470 
f 464 456 470 
f 457 461 472 
f 469 463 473 
f 462 464 474 
f 470 462 474 
f 464 470 474 
f 471 465 475 
f 466 455 476 
f 472 461 476 
f 461 460 477 
f 460 473 477 
f 473 463 477 
f 467 459 478 
f 460 467 478 
f 459 469 478 
f 473 460 478 
f 469 473 478 
f 468 458 479 
f 458 471 479 
f 475 468 479 
f 471 475 479 
f 463 466 480 
f 477 463 480 
f 466 477 480 
f 455 468 481 
f 465 472 481 
f 468 475 481 
f 475 465 481 
f 476 455 481 
f 472 476 481 
f 470 457 482 
f 458 470 482 
f 471 458 482 
f 465 471 482 
f 457 472 482 
f 472 465 482 
f 476 461 483 
f 466 476 483 
f 461 477 483 
o convex_14
v -0.009745 -0.007261 -0.026463
v -0.001213 -0.012840 -0.011696
v -0.000559 -0.012840 -0.011696
v -0.007447 0.000286 -0.010384
v -0.000229 -0.006277 -0.025805
v -0.010730 -0.009885 -0.010384
v -0.010730 0.000286 -0.026463
v -0.000229 -0.005951 -0.010384
v -0.003511 -0.010869 -0.024821
v -0.010730 0.000286 -0.010384
v -0.007447 0.000286 -0.025805
v -0.000229 -0.009557 -0.026463
v -0.010730 -0.008245 -0.024821
v -0.004495 -0.012511 -0.010384
v -0.007775 -0.009885 -0.024494
v -0.000229 -0.012840 -0.010384
v -0.000229 -0.010869 -0.024821
v -0.008432 -0.011197 -0.010713
v -0.000229 -0.005951 -0.025149
v -0.000229 -0.007261 -0.026463
v -0.006790 -0.009557 -0.025805
v -0.005807 -0.010541 -0.024494
v -0.010072 -0.008902 -0.023836
v -0.010730 -0.006603 -0.026463
v -0.002854 -0.012840 -0.010713
v -0.000559 -0.005623 -0.011042
v -0.009087 0.000286 -0.026463
v -0.003511 -0.009557 -0.026463
v -0.006463 -0.011853 -0.011370
v -0.010400 -0.010212 -0.010713
v -0.002526 -0.010869 -0.025149
f 504 511 514 
f 487 489 491 
f 489 487 493 
f 487 490 493 
f 490 489 493 
f 490 487 494 
f 484 490 495 
f 488 491 495 
f 489 490 496 
f 491 489 497 
f 485 486 499 
f 495 491 499 
f 491 497 499 
f 499 486 500 
f 495 499 500 
f 497 489 501 
f 491 488 502 
f 488 494 502 
f 494 488 503 
f 495 490 503 
f 488 495 503 
f 496 484 504 
f 498 496 504 
f 498 504 505 
f 504 492 505 
f 496 498 506 
f 498 501 506 
f 490 484 507 
f 496 490 507 
f 484 496 507 
f 492 485 508 
f 485 499 508 
f 499 497 508 
f 505 492 508 
f 497 505 508 
f 487 491 509 
f 494 487 509 
f 491 502 509 
f 502 494 509 
f 490 494 510 
f 503 490 510 
f 494 503 510 
f 484 495 511 
f 504 484 511 
f 497 501 512 
f 501 498 512 
f 498 505 512 
f 505 497 512 
f 489 496 513 
f 501 489 513 
f 496 506 513 
f 506 501 513 
f 486 485 514 
f 485 492 514 
f 500 486 514 
f 495 500 514 
f 492 504 514 
f 511 495 514 
o convex_15
v 0.005022 -0.005950 -0.026463
v -0.000229 -0.012840 -0.011370
v 0.000428 -0.012840 -0.011370
v 0.004693 -0.003324 -0.010384
v -0.000229 -0.005950 -0.025149
v 0.005350 -0.011855 -0.010384
v 0.000756 -0.010543 -0.025476
v -0.000229 -0.005950 -0.010384
v 0.005350 -0.009557 -0.025149
v 0.005350 -0.004308 -0.025476
v -0.000229 -0.009229 -0.026463
v 0.005350 -0.003324 -0.010384
v 0.003708 -0.012511 -0.010384
v -0.000229 -0.012840 -0.010384
v 0.000099 -0.010871 -0.024821
v 0.005350 -0.008245 -0.026463
v 0.003708 -0.003652 -0.011696
v -0.000229 -0.007262 -0.026463
v 0.004693 -0.004308 -0.025149
v 0.002724 -0.010543 -0.024165
v 0.004693 -0.012183 -0.011042
v 0.001740 -0.012840 -0.010713
v -0.000229 -0.010871 -0.024821
v 0.000756 -0.005293 -0.010384
f 531 519 538 
f 519 516 522 
f 520 518 522 
f 520 523 524 
f 516 519 525 
f 518 520 526 
f 524 518 526 
f 520 524 526 
f 520 522 527 
f 516 517 528 
f 522 516 528 
f 527 522 528 
f 517 516 529 
f 523 521 530 
f 515 524 530 
f 524 523 530 
f 525 515 530 
f 521 525 530 
f 524 515 532 
f 519 524 532 
f 515 525 532 
f 525 519 532 
f 524 519 533 
f 518 524 533 
f 531 518 533 
f 519 531 533 
f 521 523 534 
f 529 521 534 
f 523 520 535 
f 520 527 535 
f 534 523 535 
f 527 534 535 
f 528 517 536 
f 527 528 536 
f 517 529 536 
f 534 527 536 
f 529 534 536 
f 516 525 537 
f 525 521 537 
f 529 516 537 
f 521 529 537 
f 522 518 538 
f 519 522 538 
f 518 531 538 
o convex_16
v 0.005350 -0.008246 -0.026463
v 0.017163 -0.001683 -0.010384
v 0.017163 -0.002667 -0.010384
v 0.005350 -0.003325 -0.010384
v 0.009944 0.000286 -0.026463
v 0.006335 -0.011527 -0.010384
v 0.014210 -0.004966 -0.025805
v 0.006992 0.000286 -0.010384
v 0.006665 0.000286 -0.024821
v 0.015848 0.000286 -0.019569
v 0.016177 -0.005293 -0.011042
v 0.011256 -0.007259 -0.024821
v 0.015848 0.000286 -0.010384
v 0.005350 -0.011527 -0.012025
v 0.012896 0.000286 -0.026463
v 0.005678 -0.009557 -0.024821
v 0.009944 -0.009885 -0.010384
v 0.005350 -0.004637 -0.026134
v 0.014864 -0.003325 -0.025476
v 0.013552 -0.005948 -0.024494
v 0.016835 -0.003982 -0.012682
v 0.007319 -0.011199 -0.011042
v 0.013225 -0.003653 -0.026463
v 0.005350 -0.003653 -0.025149
v 0.013881 0.000286 -0.025805
v 0.013225 -0.007589 -0.011370
v 0.005350 -0.011527 -0.010384
v 0.010929 -0.006605 -0.026134
v 0.006665 0.000286 -0.015308
v 0.005350 -0.009229 -0.025805
v 0.016177 -0.005293 -0.010384
v 0.015193 -0.001356 -0.023836
v 0.007649 0.000286 -0.025805
v 0.006008 -0.001356 -0.019898
f 567 547 572 
f 541 540 542 
f 541 542 544 
f 542 540 546 
f 546 543 547 
f 543 546 548 
f 546 540 551 
f 540 548 551 
f 548 546 551 
f 542 539 552 
f 539 543 553 
f 543 548 553 
f 541 544 555 
f 539 542 556 
f 543 539 556 
f 545 549 558 
f 550 545 558 
f 555 550 558 
f 540 541 559 
f 548 540 559 
f 549 545 559 
f 545 557 559 
f 544 552 560 
f 554 550 560 
f 552 554 560 
f 555 544 560 
f 550 555 560 
f 539 553 561 
f 557 545 561 
f 553 557 561 
f 556 542 562 
f 547 556 562 
f 553 548 563 
f 557 553 563 
f 558 549 564 
f 555 558 564 
f 544 542 565 
f 542 552 565 
f 552 544 565 
f 545 550 566 
f 539 561 566 
f 561 545 566 
f 542 546 567 
f 546 547 567 
f 552 539 568 
f 550 554 568 
f 554 552 568 
f 566 550 568 
f 539 566 568 
f 541 555 569 
f 559 541 569 
f 549 559 569 
f 564 549 569 
f 555 564 569 
f 548 559 570 
f 559 557 570 
f 563 548 570 
f 557 563 570 
f 547 543 571 
f 543 556 571 
f 556 547 571 
f 562 542 572 
f 547 562 572 
f 542 567 572 
o convex_17
v -0.007449 0.003895 -0.026463
v -0.005808 0.004224 -0.012353
v -0.006136 0.004224 -0.010384
v -0.007449 0.000286 -0.010384
v -0.010730 0.004224 -0.010384
v -0.010730 0.000286 -0.026463
v -0.007121 0.000286 -0.025149
v -0.010730 0.004224 -0.026134
v -0.010730 0.000286 -0.010384
v -0.006136 0.004224 -0.025805
v -0.006136 0.002911 -0.025149
v -0.005808 0.003895 -0.012353
v -0.007777 0.000286 -0.026134
v -0.007121 0.000614 -0.013665
f 579 584 586 
f 575 574 577 
f 576 575 577 
f 576 578 579 
f 577 574 580 
f 573 578 580 
f 578 577 580 
f 576 577 581 
f 578 576 581 
f 577 578 581 
f 580 574 582 
f 573 580 582 
f 583 582 584 
f 574 575 584 
f 575 576 584 
f 582 574 584 
f 579 583 584 
f 578 573 585 
f 579 578 585 
f 573 582 585 
f 583 579 585 
f 582 583 585 
f 576 579 586 
f 584 576 586 
o convex_18
v -0.009088 0.006849 -0.026463
v 0.000755 0.014068 -0.010384
v 0.000427 0.014396 -0.010384
v -0.010730 0.004224 -0.010384
v 0.000755 0.007506 -0.025149
v -0.005807 0.012427 -0.024821
v -0.010730 0.010787 -0.010384
v 0.000427 0.008163 -0.010384
v 0.000427 0.012755 -0.025805
v -0.005807 0.004224 -0.025476
v -0.004168 0.004553 -0.012353
v -0.010730 0.004224 -0.026134
v -0.005150 0.014396 -0.010713
v -0.009416 0.008819 -0.025476
v 0.000755 0.009146 -0.026463
v -0.002527 0.013412 -0.024494
v -0.007448 0.013739 -0.010384
v -0.004497 0.011443 -0.026463
v -0.006135 0.004224 -0.010384
v 0.000755 0.013082 -0.025149
v -0.002199 0.014725 -0.011042
v -0.007448 0.004224 -0.026463
v 0.000755 0.007506 -0.020883
v -0.008103 0.012427 -0.015308
v 0.000755 0.008492 -0.010384
v -0.010730 0.005208 -0.025805
v -0.004825 0.012099 -0.026134
v 0.000755 0.011769 -0.026463
v -0.009088 0.009802 -0.023180
v -0.004168 0.013082 -0.024165
v -0.003512 0.014725 -0.010384
v -0.010730 0.010787 -0.010713
f 610 615 618 
f 588 589 590 
f 590 589 593 
f 588 590 594 
f 596 591 597 
f 590 593 598 
f 596 590 598 
f 588 591 601 
f 593 589 603 
f 601 587 604 
f 594 590 605 
f 590 596 605 
f 597 594 605 
f 596 597 605 
f 589 588 606 
f 588 601 606 
f 595 602 606 
f 606 602 607 
f 589 606 607 
f 591 596 608 
f 598 587 608 
f 596 598 608 
f 601 591 608 
f 587 601 608 
f 591 588 609 
f 594 597 609 
f 597 591 609 
f 603 592 610 
f 588 594 611 
f 609 588 611 
f 594 609 611 
f 598 593 612 
f 587 598 612 
f 600 587 612 
f 587 600 613 
f 600 592 613 
f 602 595 613 
f 592 602 613 
f 604 587 613 
f 604 613 614 
f 601 604 614 
f 606 601 614 
f 595 606 614 
f 613 595 614 
f 592 600 615 
f 610 592 615 
f 602 592 616 
f 599 602 616 
f 592 603 616 
f 603 599 616 
f 602 599 617 
f 603 589 617 
f 599 603 617 
f 607 602 617 
f 589 607 617 
f 593 603 618 
f 603 610 618 
f 612 593 618 
f 600 612 618 
f 615 600 618 
o convex_19
v 0.004037 0.011771 -0.025805
v 0.005678 0.004880 -0.013994
v 0.001084 0.007178 -0.023180
v 0.000756 0.014068 -0.010384
v 0.006006 0.012427 -0.010384
v 0.006006 0.006193 -0.025805
v 0.000756 0.008490 -0.010384
v 0.000756 0.011771 -0.026463
v 0.006006 0.005208 -0.010384
v 0.006006 0.011442 -0.025149
v 0.001412 0.013083 -0.024165
v 0.000756 0.008490 -0.026134
v 0.003381 0.013412 -0.013339
v 0.005678 0.005537 -0.024821
v 0.006006 0.010129 -0.026463
v 0.005678 0.011771 -0.024821
v 0.005678 0.004880 -0.012025
v 0.005678 0.007178 -0.026463
v 0.000756 0.007505 -0.025149
v 0.000756 0.013083 -0.024821
v 0.001740 0.014068 -0.011042
v 0.000756 0.007505 -0.020556
v 0.005350 0.012754 -0.012353
v 0.005678 0.005208 -0.021211
v 0.002725 0.012754 -0.024494
f 629 639 643 
f 623 622 625 
f 625 622 626 
f 624 623 627 
f 623 625 627 
f 623 624 628 
f 625 626 630 
f 626 619 633 
f 619 628 633 
f 628 624 633 
f 628 619 634 
f 623 628 634 
f 621 620 635 
f 620 627 635 
f 627 625 635 
f 624 630 636 
f 630 626 636 
f 626 633 636 
f 633 624 636 
f 630 624 637 
f 625 630 637 
f 632 621 637 
f 624 632 637 
f 619 626 638 
f 626 622 638 
f 622 623 639 
f 638 622 639 
f 629 638 639 
f 621 635 640 
f 635 625 640 
f 637 621 640 
f 625 637 640 
f 623 634 641 
f 634 631 641 
f 639 623 641 
f 631 639 641 
f 620 621 642 
f 627 620 642 
f 624 627 642 
f 621 632 642 
f 632 624 642 
f 634 619 643 
f 631 634 643 
f 619 638 643 
f 638 629 643 
f 639 631 643 
o convex_20
v 0.012239 0.008817 -0.010384
v 0.009945 0.000286 -0.026463
v 0.012896 0.000286 -0.026463
v 0.006006 0.011114 -0.025476
v 0.006991 0.000286 -0.010384
v 0.016835 0.003569 -0.010713
v 0.006006 0.012428 -0.010384
v 0.012569 0.007177 -0.024821
v 0.006663 0.000286 -0.024821
v 0.015850 0.000286 -0.010384
v 0.014537 0.003569 -0.025476
v 0.006006 0.003569 -0.013011
v 0.015850 0.000286 -0.019242
v 0.009617 0.009801 -0.024821
v 0.006006 0.010129 -0.026463
v 0.014864 0.006520 -0.010384
v 0.011584 0.006194 -0.026463
v 0.006006 0.007177 -0.026463
v 0.008961 0.011114 -0.010713
v 0.007319 0.011114 -0.024494
v 0.006006 0.004553 -0.010384
v 0.014209 0.000943 -0.025805
v 0.011257 0.008489 -0.025149
v 0.016506 0.001599 -0.015308
v 0.014864 0.004882 -0.019898
v 0.006006 0.005209 -0.024821
v 0.008304 0.000286 -0.026134
v 0.009288 0.009144 -0.026134
v 0.006335 0.012428 -0.010713
v 0.016835 0.002583 -0.010384
v 0.006335 0.011442 -0.024821
v 0.013880 0.003569 -0.026134
v 0.012239 0.006520 -0.026134
v 0.013880 0.007505 -0.010713
v 0.016506 0.004225 -0.011042
f 668 651 678 
f 645 646 648 
f 648 644 650 
f 645 648 652 
f 644 648 653 
f 648 646 653 
f 650 647 655 
f 652 648 655 
f 653 646 656 
f 646 645 658 
f 655 647 658 
f 644 653 659 
f 646 658 660 
f 658 645 661 
f 655 658 661 
f 650 644 662 
f 644 657 662 
f 662 657 663 
f 648 650 664 
f 650 655 664 
f 655 648 664 
f 656 646 665 
f 654 656 665 
f 654 649 667 
f 653 656 667 
f 656 654 667 
f 649 654 668 
f 654 651 668 
f 652 655 669 
f 661 652 669 
f 655 661 669 
f 645 652 670 
f 661 645 670 
f 652 661 670 
f 658 647 671 
f 660 658 671 
f 657 666 671 
f 650 662 672 
f 662 663 672 
f 649 659 673 
f 659 653 673 
f 667 649 673 
f 653 667 673 
f 647 650 674 
f 663 657 674 
f 671 647 674 
f 657 671 674 
f 650 672 674 
f 672 663 674 
f 646 660 675 
f 665 646 675 
f 654 665 675 
f 651 654 676 
f 666 651 676 
f 660 671 676 
f 671 666 676 
f 654 675 676 
f 675 660 676 
f 657 644 677 
f 659 651 677 
f 644 659 677 
f 666 657 677 
f 651 666 677 
f 659 649 678 
f 651 659 678 
f 649 668 678 
