# Blender 4.1.1
# www.blender.org
mtllib lig8.mtl
o Cube.003
v -0.005000 0.003793 -0.029350
v 0.005000 0.003793 -0.029350
v -0.005000 -0.004737 0.029653
v 0.004995 -0.004248 0.029537
v -0.005000 0.004737 -0.029653
v 0.005000 0.004737 -0.029653
v -0.005000 -0.003793 0.029350
v 0.004995 -0.000456 0.000186
v 0.004995 0.003809 -0.029315
v -0.005005 -0.004720 0.029688
v 0.004995 -0.004720 0.029688
v -0.005005 0.004753 -0.029618
v 0.004995 0.004753 -0.029618
v -0.005005 -0.003776 0.029385
v 0.004995 -0.003776 0.029385
v -0.000005 -0.003776 0.029385
v -0.005005 0.000488 -0.000117
v 0.004995 0.000488 -0.000117
v -0.000005 0.004753 -0.029618
v 0.004995 0.004281 -0.029467
v -0.000005 -0.004248 0.029537
v -0.000005 0.000488 -0.000117
v 0.004995 0.000016 0.000035
v -0.000005 0.004281 -0.029467
v -0.000005 0.000016 0.000035
v 0.004995 0.000016 0.000035
v 0.002495 0.004753 -0.029618
v 0.004995 -0.001644 0.014634
v -0.005005 0.002621 -0.014867
v 0.002495 -0.003776 0.029385
v 0.004995 -0.004484 0.029612
v 0.004995 0.001677 -0.014565
v 0.004995 -0.002588 0.014937
v 0.004995 -0.004012 0.029461
v -0.002505 -0.003776 0.029385
v -0.005005 -0.001644 0.014634
v 0.004995 0.002621 -0.014867
v -0.002505 0.004753 -0.029618
v 0.004995 0.004045 -0.029391
v 0.002495 -0.004484 0.029612
v 0.002495 -0.001644 0.014634
v 0.004995 -0.002352 0.014861
v -0.002505 0.004517 -0.029543
v -0.002505 -0.001880 0.014710
v 0.004995 0.001913 -0.014640
v 0.004995 0.004517 -0.029543
v -0.002505 -0.004012 0.029461
v -0.002505 0.002621 -0.014867
v 0.004995 0.002385 -0.014792
v 0.002495 0.004045 -0.029391
v 0.002495 0.001913 -0.014640
v 0.004995 -0.001880 0.014710
v 0.004995 0.002149 -0.014716
v 0.004995 0.000252 -0.000041
v 0.004995 0.002385 -0.014792
v 0.004995 -0.000220 0.000111
v 0.004995 -0.002352 0.014861
v 0.004995 -0.002116 0.014786
v 0.002495 -0.000220 0.000111
v -0.000005 -0.002116 0.014786
v 0.002495 -0.002352 0.014861
v -0.002505 0.000252 -0.000041
v -0.000005 0.002149 -0.014716
v -0.002505 0.002385 -0.014792
v 0.004995 0.002149 -0.014716
v 0.004995 -0.000220 0.000111
v 0.004995 0.001913 -0.014640
v -0.000005 0.002621 -0.014867
v 0.002495 0.000488 -0.000117
v 0.002495 0.002621 -0.014867
v -0.000005 -0.004012 0.029461
v 0.002495 -0.004248 0.029537
v 0.002495 -0.004012 0.029461
v 0.004995 -0.001880 0.014710
v 0.004995 -0.002116 0.014786
v 0.004995 0.000252 -0.000041
v -0.002505 -0.001644 0.014634
v -0.000005 -0.001644 0.014634
v -0.002505 0.000488 -0.000117
vn -0.0000 -0.9897 -0.1431
vn 0.0887 0.9858 0.1425
vn -0.0000 -0.3054 -0.9522
vn -1.0000 -0.0000 -0.0000
vn -0.9791 -0.2009 -0.0321
vn 0.9854 -0.0638 0.1578
vn 0.0980 0.9049 -0.4143
vn -0.0000 0.9044 -0.4267
vn -0.0000 0.3054 0.9522
vn -0.0000 0.9897 0.1431
vn 1.0000 -0.0000 -0.0000
vn -0.9791 -0.2010 -0.0321
vn 0.0980 0.9049 -0.4142
vn 0.0979 0.9049 -0.4142
vt 0.625000 0.000000
vt 0.375000 0.250000
vt 0.375000 0.000000
vt 0.500000 0.750000
vt 0.500000 0.562500
vt 0.562500 0.687500
vt 0.562500 0.875000
vt 0.625000 0.750000
vt 0.375000 1.000000
vt 0.375000 0.750000
vt 0.375000 0.500000
vt 0.125000 0.750000
vt 0.125000 0.500000
vt 0.625000 0.375000
vt 0.625000 0.437500
vt 0.625000 0.562500
vt 0.625000 0.625000
vt 0.625000 0.500000
vt 0.625000 0.687500
vt 0.625000 0.812500
vt 0.625000 1.000000
vt 0.625000 0.875000
vt 0.000000 0.000000
vt 0.437500 0.750000
vt 0.562500 0.312500
vt 0.500000 0.375000
vt 0.562500 0.562500
vt 0.562500 0.500000
vt 0.875000 0.500000
vt 0.812500 0.562500
vt 0.812500 0.500000
vt 0.625000 0.125000
vt 0.625000 0.187500
vt 0.625000 0.250000
vt 0.625000 0.312500
vt 0.875000 0.562500
vt 0.562500 0.937500
vt 0.437500 0.437500
vt 0.437500 0.625000
vt 0.375000 0.562500
vt 0.375000 0.625000
vt 0.437500 0.687500
vt 0.500000 0.812500
vt 0.500000 0.875000
vt 0.437500 0.812500
vt 0.750000 0.625000
vt 0.750000 0.687500
vt 0.687500 0.687500
vt 0.812500 0.625000
vt 0.875000 0.625000
vt 0.875000 0.687500
vt 0.812500 0.687500
vt 0.500000 0.625000
vt 0.500000 0.687500
vt 0.562500 0.625000
vt 0.500000 0.437500
vt 0.562500 0.375000
vt 0.562500 0.437500
vt 0.750000 0.500000
vt 0.687500 0.562500
vt 0.687500 0.500000
vt 0.750000 0.562500
vt 0.687500 0.625000
vt 0.500000 0.500000
vt 0.437500 0.562500
vt 0.437500 0.500000
vt 0.375000 0.687500
vt 0.562500 0.750000
vt 0.812500 0.750000
vt 0.750000 0.750000
vt 0.875000 0.750000
vt 0.687500 0.750000
vt 0.625000 0.937500
vt 0.625000 0.062500
s 0
f 2/1/1 3/2/1 1/3/1
f 25/4/2 60/5/2 59/6/2
f 25/4/2 59/6/2 51/7/2
f 6/8/3 1/9/3 5/10/3
f 7/11/4 1/12/4 3/13/4
f 4/14/4 34/15/4 58/16/4
f 8/17/4 57/18/4 56/19/4
f 8/17/4 56/19/4 32/20/4
f 18/17/4 37/19/4 55/8/4
f 6/8/3 2/21/3 1/9/3
f 7/11/4 5/10/4 1/12/4
f 26/8/4 54/19/4 53/20/4
f 26/8/4 53/20/4 45/22/4
f 5/10/4 1/3/4 3/2/4
f 3/2/5 12/10/5 5/10/5
f 3/2/6 9/1/6 10/2/6
f 5/23/7 43/23/7 24/23/7
f 5/10/8 38/24/8 19/4/8
f 10/2/9 40/25/9 21/26/9
f 15/18/10 41/27/10 30/28/10
f 11/29/11 42/30/11 31/31/11
f 8/32/1 33/33/1 10/2/1
f 11/34/9 31/35/9 40/25/9
f 15/18/10 28/16/10 41/27/10
f 11/29/11 33/36/11 42/30/11
f 9/21/2 50/37/2 51/7/2
f 14/11/2 47/38/2 44/39/2
f 11/34/4 31/35/4 33/15/4
f 10/2/4 36/40/4 17/41/4
f 15/18/4 28/16/4 52/17/4
f 21/26/2 40/25/2 61/28/2
f 25/4/2 62/42/2 44/39/2
f 25/4/2 63/43/2 62/42/2
f 24/44/2 43/45/2 64/24/2
f 23/46/11 65/47/11 49/48/11
f 23/46/11 66/49/11 65/47/11
f 8/50/11 32/51/11 67/52/11
f 22/53/10 68/54/10 48/42/10
f 22/53/10 69/55/10 68/54/10
f 18/17/10 37/19/10 70/6/10
f 21/26/9 71/56/9 47/38/9
f 21/26/9 72/57/9 71/56/9
f 4/14/9 34/15/9 73/58/9
f 4/59/11 74/60/11 34/61/11
f 4/59/11 75/62/11 74/60/11
f 23/46/11 49/48/11 76/63/11
f 16/64/10 77/65/10 35/66/10
f 16/64/10 78/5/10 77/65/10
f 22/53/10 48/42/10 79/39/10
f 79/39/10 29/67/10 17/41/10
f 79/39/10 48/42/10 29/67/10
f 48/42/10 12/10/10 29/67/10
f 77/65/10 79/39/10 17/41/10
f 77/65/10 78/5/10 79/39/10
f 78/5/10 22/53/10 79/39/10
f 35/66/10 36/40/10 14/11/10
f 35/66/10 77/65/10 36/40/10
f 77/65/10 17/41/10 36/40/10
f 76/63/11 37/19/11 18/17/11
f 76/63/11 49/48/11 37/19/11
f 49/48/11 13/8/11 37/19/11
f 74/60/11 76/63/11 18/17/11
f 74/60/11 75/62/11 76/63/11
f 75/62/11 23/46/11 76/63/11
f 34/61/11 28/16/11 15/18/11
f 34/61/11 74/60/11 28/16/11
f 74/60/11 18/17/11 28/16/11
f 73/58/9 30/28/9 16/64/9
f 73/58/9 34/15/9 30/28/9
f 34/15/9 15/18/9 30/28/9
f 71/56/9 73/58/9 16/64/9
f 71/56/9 72/57/9 73/58/9
f 72/57/9 4/14/9 73/58/9
f 47/38/9 35/66/9 14/11/9
f 47/38/9 71/56/9 35/66/9
f 71/56/9 16/64/9 35/66/9
f 70/6/10 27/68/10 19/4/10
f 70/6/10 37/19/10 27/68/10
f 37/19/10 13/8/10 27/68/10
f 68/54/10 70/6/10 19/4/10
f 68/54/10 69/55/10 70/6/10
f 69/55/10 18/17/10 70/6/10
f 48/42/10 38/24/10 12/10/10
f 48/42/10 68/54/10 38/24/10
f 68/54/10 19/4/10 38/24/10
f 67/52/11 39/69/11 20/70/11
f 67/52/11 32/51/11 39/69/11
f 32/51/11 9/71/11 39/69/11
f 65/47/11 67/52/11 20/70/11
f 65/47/11 66/49/11 67/52/11
f 66/49/11 8/50/11 67/52/11
f 49/48/11 46/72/11 13/8/11
f 49/48/11 65/47/11 46/72/11
f 65/47/11 20/70/11 46/72/11
f 64/24/2 29/67/2 17/41/2
f 64/24/2 43/45/2 29/67/2
f 43/45/2 12/10/2 29/67/2
f 62/42/2 64/24/2 17/41/2
f 62/42/2 63/43/2 64/24/2
f 63/43/2 24/44/2 64/24/2
f 44/39/2 36/40/2 14/11/2
f 44/39/2 62/42/2 36/40/2
f 62/42/2 17/41/2 36/40/2
f 61/28/2 33/15/2 8/17/2
f 61/28/2 40/25/2 33/15/2
f 40/25/2 11/34/2 33/15/2
f 52/17/4 54/19/4 26/8/4
f 52/17/4 28/16/4 54/19/4
f 28/16/4 18/17/4 54/19/4
f 33/15/4 57/18/4 8/17/4
f 33/15/4 31/35/4 57/18/4
f 31/35/4 4/14/4 57/18/4
f 44/39/2 60/5/2 25/4/2
f 44/39/2 47/38/2 60/5/2
f 47/38/2 21/26/2 60/5/2
f 51/7/2 63/43/2 25/4/2
f 51/7/2 50/37/2 63/43/2
f 50/37/2 24/44/2 63/43/2
f 42/30/11 66/49/11 23/46/11
f 42/30/11 33/36/11 66/49/11
f 33/36/11 8/50/11 66/49/11
f 41/27/10 69/55/10 22/53/10
f 41/27/10 28/16/10 69/55/10
f 28/16/10 18/17/10 69/55/10
f 40/25/9 72/57/9 21/26/9
f 40/25/9 31/35/9 72/57/9
f 31/35/9 4/14/9 72/57/9
f 31/31/11 75/62/11 4/59/11
f 31/31/11 42/30/11 75/62/11
f 42/30/11 23/46/11 75/62/11
f 30/28/10 78/5/10 16/64/10
f 30/28/10 41/27/10 78/5/10
f 41/27/10 22/53/10 78/5/10
f 45/22/4 39/73/4 9/21/4
f 45/22/4 53/20/4 39/73/4
f 53/20/4 20/22/4 39/73/4
f 53/20/4 55/8/4 20/22/4
f 53/20/4 54/19/4 55/8/4
f 54/19/4 18/17/4 55/8/4
f 55/8/4 46/20/4 20/22/4
f 55/8/4 37/19/4 46/20/4
f 37/19/4 13/8/4 46/20/4
f 32/20/4 45/22/4 9/21/4
f 32/20/4 56/19/4 45/22/4
f 56/19/4 26/8/4 45/22/4
f 56/19/4 58/16/4 26/8/4
f 56/19/4 57/18/4 58/16/4
f 57/18/4 4/14/4 58/16/4
f 58/16/4 52/17/4 26/8/4
f 58/16/4 34/15/4 52/17/4
f 34/15/4 15/18/4 52/17/4
f 51/7/2 32/20/2 9/21/2
f 51/7/2 59/6/2 32/20/2
f 59/6/2 8/17/2 32/20/2
f 59/6/2 61/28/2 8/17/2
f 59/6/2 60/5/2 61/28/2
f 60/5/2 21/26/2 61/28/2
f 3/2/12 10/2/12 12/10/12
f 3/2/6 2/1/6 9/1/6
f 9/23/13 2/23/13 50/23/13
f 2/23/14 5/23/14 24/23/14
f 5/23/13 12/23/13 43/23/13
f 24/23/13 50/23/13 2/23/13
f 13/8/8 6/8/8 27/68/8
f 6/8/8 5/10/8 19/4/8
f 27/68/8 6/8/8 19/4/8
f 5/10/8 12/10/8 38/24/8
f 10/2/9 11/34/9 40/25/9
f 21/26/9 47/38/9 10/2/9
f 47/38/9 14/11/9 10/2/9
f 10/2/1 9/1/1 32/74/1
f 10/2/1 32/74/1 8/32/1
f 33/33/1 11/34/1 10/2/1
f 29/67/4 12/10/4 10/2/4
f 10/2/4 14/11/4 36/40/4
f 17/41/4 29/67/4 10/2/4
