o convex_0
v -0.021033 0.151297 1.548493
v -0.024985 0.092027 1.461546
v -0.021033 0.092027 1.461546
v -0.040786 0.159200 1.623607
v -0.056601 0.163155 1.619641
v -0.021033 0.159200 1.607791
v -0.024985 0.123640 1.497143
v -0.024985 0.163155 1.576143
v -0.021033 0.092027 1.469462
v -0.056601 0.159200 1.623607
f 9 4 10 
f 3 1 6 
f 5 4 6 
f 1 3 7 
f 3 2 7 
f 2 5 7 
f 7 5 8 
f 6 1 8 
f 5 6 8 
f 1 7 8 
f 2 3 9 
f 3 6 9 
f 6 4 9 
f 4 5 10 
f 5 2 10 
f 2 9 10 
o convex_1
v 0.141033 0.250122 1.943741
v 0.152890 0.084124 1.888424
v 0.156846 0.084124 1.888424
v 0.152890 0.190814 1.742189
v 0.121271 0.111796 1.868657
v 0.156846 0.167123 1.987257
v 0.121271 0.250122 1.947724
v 0.125227 0.107848 1.955592
v 0.156846 0.246141 1.856854
v 0.121271 0.171055 1.841022
v 0.156846 0.151329 1.761955
v 0.156846 0.092038 1.955592
v 0.148934 0.250122 1.955592
v 0.133135 0.147365 1.979341
v 0.121271 0.099934 1.927957
v 0.121271 0.250122 1.935825
v 0.121271 0.242193 1.955592
v 0.152890 0.111796 1.821255
v 0.148934 0.119709 1.979341
v 0.156846 0.206624 1.761955
v 0.152890 0.167123 1.746171
v 0.156846 0.226383 1.935825
v 0.133135 0.088089 1.920041
v 0.121271 0.147365 1.841022
v 0.152890 0.202676 1.754087
v 0.129183 0.095986 1.884441
v 0.121271 0.186866 1.852872
v 0.125227 0.135519 1.967490
f 27 25 38 
f 16 13 19 
f 15 17 20 
f 19 13 21 
f 12 13 22 
f 13 16 22 
f 11 17 23 
f 19 11 23 
f 17 15 25 
f 17 11 26 
f 11 19 26 
f 20 17 26 
f 23 17 27 
f 16 23 27 
f 24 16 27 
f 17 25 27 
f 13 12 28 
f 21 13 28 
f 22 16 29 
f 18 22 29 
f 16 24 29 
f 24 18 29 
f 21 14 30 
f 19 21 30 
f 14 21 31 
f 28 15 31 
f 21 28 31 
f 16 19 32 
f 23 16 32 
f 19 23 32 
f 12 22 33 
f 22 18 33 
f 18 25 33 
f 20 14 34 
f 15 20 34 
f 14 31 34 
f 31 15 34 
f 26 19 35 
f 30 14 35 
f 19 30 35 
f 25 15 36 
f 28 12 36 
f 15 28 36 
f 12 33 36 
f 33 25 36 
f 14 20 37 
f 20 26 37 
f 35 14 37 
f 26 35 37 
f 18 24 38 
f 25 18 38 
f 24 27 38 
o convex_2
v 0.322882 0.084117 1.299454
v 0.433536 0.099930 1.232300
v 0.433536 0.092027 1.232300
v 0.350548 0.088072 1.173028
v 0.330778 0.143399 1.327133
v 0.370306 0.072252 1.331082
v 0.401905 0.115721 1.184876
v 0.374260 0.143399 1.327133
v 0.334732 0.143399 1.275742
v 0.366353 0.076215 1.184876
v 0.425617 0.084117 1.196740
v 0.334732 0.068297 1.315268
v 0.382136 0.143399 1.267844
v 0.393997 0.088072 1.319218
v 0.358445 0.111766 1.176977
v 0.350548 0.088072 1.342947
v 0.366353 0.068297 1.299454
v 0.425617 0.111766 1.200690
v 0.326825 0.143399 1.291556
v 0.397951 0.092027 1.173028
v 0.342640 0.095975 1.188825
v 0.330778 0.080170 1.331082
v 0.366353 0.143399 1.255996
v 0.346594 0.080170 1.188825
v 0.417710 0.103885 1.275742
v 0.417710 0.080170 1.248114
v 0.425617 0.111766 1.244165
v 0.374260 0.095975 1.338981
v 0.338686 0.143399 1.335032
v 0.401905 0.076215 1.216504
v 0.322882 0.099930 1.315268
v 0.346594 0.103885 1.180926
f 59 57 70 
f 43 46 47 
f 40 41 49 
f 47 46 51 
f 44 50 55 
f 50 48 55 
f 40 49 56 
f 45 51 56 
f 43 47 57 
f 48 42 58 
f 49 48 58 
f 42 53 58 
f 53 45 58 
f 56 49 58 
f 45 56 58 
f 39 57 59 
f 39 50 60 
f 50 44 60 
f 44 54 60 
f 51 45 61 
f 47 51 61 
f 45 53 61 
f 53 47 61 
f 42 48 62 
f 50 39 62 
f 48 50 62 
f 39 59 62 
f 59 42 62 
f 41 40 63 
f 52 41 63 
f 46 52 63 
f 49 41 64 
f 41 52 64 
f 52 44 64 
f 44 55 64 
f 51 46 65 
f 40 56 65 
f 56 51 65 
f 63 40 65 
f 46 63 65 
f 44 52 66 
f 52 46 66 
f 54 44 66 
f 54 66 67 
f 46 43 67 
f 43 60 67 
f 60 54 67 
f 66 46 67 
f 48 49 68 
f 55 48 68 
f 49 64 68 
f 64 55 68 
f 57 39 69 
f 43 57 69 
f 39 60 69 
f 60 43 69 
f 53 42 70 
f 47 53 70 
f 57 47 70 
f 42 59 70 
o convex_3
v 0.342635 0.143416 1.338989
v 0.350517 0.317301 1.358766
v 0.334724 0.317301 1.358766
v 0.370278 0.147365 1.263919
v 0.374227 0.198728 1.358756
v 0.311015 0.222442 1.358756
v 0.334731 0.147365 1.275785
v 0.382144 0.143416 1.279741
v 0.374233 0.269889 1.354820
v 0.311015 0.281721 1.354820
v 0.326828 0.143416 1.291598
v 0.378182 0.143416 1.323195
v 0.354472 0.171080 1.358756
v 0.326821 0.313335 1.354820
v 0.350517 0.147365 1.263919
v 0.322873 0.186879 1.358756
v 0.350517 0.317301 1.354820
v 0.326828 0.143416 1.319239
v 0.366323 0.293587 1.354820
v 0.382144 0.147365 1.307410
f 82 78 90 
f 72 75 79 
f 76 73 80 
f 80 77 81 
f 78 71 81 
f 76 80 81 
f 71 78 82 
f 72 73 83 
f 75 72 83 
f 71 82 83 
f 82 75 83 
f 80 73 84 
f 77 80 84 
f 74 78 85 
f 81 77 85 
f 78 81 85 
f 77 84 85 
f 73 76 86 
f 83 73 86 
f 71 83 86 
f 73 72 87 
f 84 73 87 
f 74 85 87 
f 85 84 87 
f 81 71 88 
f 76 81 88 
f 86 76 88 
f 71 86 88 
f 78 74 89 
f 72 79 89 
f 79 78 89 
f 87 72 89 
f 74 87 89 
f 79 75 90 
f 78 79 90 
f 75 82 90 
o convex_4
v 0.271494 0.388467 1.165052
v 0.338671 0.341015 1.176914
v 0.338671 0.337082 1.176914
v 0.295180 0.325242 0.931947
v 0.235913 0.285697 1.263910
v 0.247773 0.325242 0.947740
v 0.287270 0.289660 0.951705
v 0.231964 0.344979 1.263910
v 0.303079 0.293604 1.236189
v 0.287270 0.364746 1.263910
v 0.322850 0.376597 1.157155
v 0.255684 0.293604 0.943776
v 0.287270 0.344979 0.947740
v 0.307029 0.285697 1.157155
v 0.224042 0.297567 1.259913
v 0.239874 0.368690 1.169017
v 0.307029 0.317325 1.263910
v 0.330749 0.305474 1.165052
v 0.303079 0.321288 0.939844
v 0.259633 0.341015 0.947740
v 0.224042 0.329185 1.255948
v 0.295180 0.388467 1.161087
v 0.326799 0.364746 1.200637
v 0.334699 0.360783 1.149258
v 0.259633 0.380560 1.208534
v 0.303079 0.305474 0.947740
v 0.334699 0.325242 1.129467
v 0.271494 0.285697 1.263910
v 0.307029 0.384504 1.188775
v 0.247773 0.301511 0.951705
v 0.299130 0.337082 0.943776
v 0.263583 0.289660 0.943776
v 0.251712 0.380560 1.161087
v 0.307029 0.341015 1.263910
v 0.255684 0.364746 1.263910
v 0.318889 0.293604 1.141329
v 0.326799 0.305474 1.196672
v 0.307029 0.380560 1.129467
v 0.267533 0.329185 0.931947
v 0.291219 0.384504 1.204569
v 0.291219 0.305474 0.931947
v 0.314939 0.289660 1.184811
v 0.330749 0.333149 1.208534
v 0.235913 0.356839 1.165052
v 0.271494 0.285697 1.141329
v 0.334699 0.344979 1.125535
v 0.271494 0.344979 0.947740
v 0.247773 0.376597 1.192708
f 125 115 138 
f 98 95 100 
f 95 98 105 
f 102 95 105 
f 100 95 107 
f 96 106 110 
f 105 98 111 
f 96 105 111 
f 98 106 111 
f 113 92 114 
f 101 113 114 
f 116 109 117 
f 93 108 117 
f 108 116 117 
f 95 104 118 
f 99 107 118 
f 107 95 118 
f 101 112 119 
f 113 101 119 
f 100 113 119 
f 96 102 120 
f 105 96 120 
f 102 105 120 
f 94 103 121 
f 109 94 121 
f 101 114 121 
f 95 102 122 
f 91 110 123 
f 110 106 123 
f 115 91 123 
f 100 107 124 
f 113 100 124 
f 98 100 125 
f 104 97 126 
f 97 116 126 
f 116 108 126 
f 107 99 127 
f 108 93 127 
f 112 101 128 
f 103 112 128 
f 121 103 128 
f 101 121 128 
f 102 96 129 
f 103 94 129 
f 96 110 129 
f 112 91 130 
f 91 115 130 
f 119 112 130 
f 100 119 130 
f 125 100 130 
f 115 125 130 
f 94 109 131 
f 116 97 131 
f 109 116 131 
f 97 122 131 
f 122 102 131 
f 102 129 131 
f 129 94 131 
f 118 104 132 
f 99 118 132 
f 104 126 132 
f 126 108 132 
f 127 99 132 
f 108 127 132 
f 93 92 133 
f 92 113 133 
f 124 107 133 
f 113 124 133 
f 127 93 133 
f 107 127 133 
f 106 96 134 
f 96 111 134 
f 111 106 134 
f 104 95 135 
f 97 104 135 
f 122 97 135 
f 95 122 135 
f 92 93 136 
f 114 92 136 
f 117 109 136 
f 93 117 136 
f 109 121 136 
f 121 114 136 
f 110 91 137 
f 91 112 137 
f 112 103 137 
f 103 129 137 
f 129 110 137 
f 106 98 138 
f 123 106 138 
f 115 123 138 
f 98 125 138 
o convex_5
v 0.279378 0.214507 2.248094
v 0.255671 0.048534 2.141404
v 0.275420 0.048534 2.141404
v 0.267525 0.246149 2.018880
v 0.156846 0.151314 2.141404
v 0.374245 0.123666 2.125622
v 0.247776 0.095996 1.999141
v 0.251735 0.088075 2.244162
v 0.287273 0.277791 2.109841
v 0.208238 0.218480 2.216506
v 0.338665 0.190810 2.228355
v 0.307042 0.111817 1.999141
v 0.338665 0.222429 2.078201
v 0.212196 0.230351 2.062394
v 0.322853 0.099924 2.232287
v 0.212196 0.167090 1.999141
v 0.188490 0.092047 2.180934
v 0.216133 0.135515 2.248094
v 0.314937 0.167090 1.999141
v 0.338665 0.226379 2.184866
v 0.156846 0.139465 2.117706
v 0.307042 0.056455 2.169059
v 0.212196 0.064355 2.153227
v 0.216133 0.242200 2.180934
v 0.291231 0.147386 2.259994
v 0.283315 0.242200 2.220439
v 0.251735 0.056455 2.208590
v 0.216133 0.119717 1.999141
v 0.295189 0.250121 2.030755
v 0.267525 0.277791 2.101899
v 0.196385 0.115745 2.224371
v 0.204280 0.182911 2.236271
v 0.322853 0.068327 2.141378
v 0.204280 0.234278 2.105883
v 0.342601 0.095974 2.196741
v 0.283315 0.095974 1.999141
v 0.235902 0.206631 2.248094
v 0.243818 0.242200 2.216506
v 0.370287 0.119717 2.109815
v 0.342601 0.135515 2.224397
v 0.295189 0.068304 2.220439
v 0.220091 0.072276 2.212548
v 0.318895 0.230328 2.216480
v 0.239860 0.246149 2.038671
v 0.243818 0.159213 2.259994
v 0.168720 0.163162 2.097941
v 0.374245 0.119717 2.137420
v 0.346560 0.214530 2.173018
v 0.212196 0.068327 2.133487
v 0.322853 0.163162 2.248120
v 0.279378 0.194782 1.999141
v 0.334706 0.214530 2.058436
v 0.318895 0.151314 1.999141
v 0.299126 0.103873 2.248094
v 0.366329 0.139465 2.097966
v 0.342601 0.222429 2.097966
v 0.204280 0.230351 2.176950
v 0.322853 0.068327 2.184866
v 0.311000 0.206631 2.244162
v 0.275420 0.048534 2.184892
v 0.350518 0.178961 2.204632
v 0.235902 0.052506 2.180934
v 0.156846 0.139465 2.145336
v 0.192448 0.174989 2.220439
f 201 169 202 
f 150 145 154 
f 150 154 157 
f 155 159 161 
f 154 145 166 
f 159 154 166 
f 147 151 167 
f 167 142 168 
f 147 167 168 
f 146 156 169 
f 169 156 170 
f 160 141 171 
f 162 168 172 
f 141 140 174 
f 140 145 174 
f 145 150 174 
f 171 141 174 
f 150 171 174 
f 148 170 175 
f 162 148 176 
f 139 164 176 
f 164 147 176 
f 168 162 176 
f 147 168 176 
f 175 139 176 
f 148 175 176 
f 171 150 177 
f 153 173 178 
f 146 165 179 
f 155 161 180 
f 165 146 180 
f 169 155 180 
f 146 169 180 
f 158 147 181 
f 149 158 181 
f 147 164 181 
f 142 154 182 
f 154 152 182 
f 168 142 182 
f 152 172 182 
f 172 168 182 
f 156 146 183 
f 163 139 183 
f 146 163 183 
f 170 156 183 
f 139 175 183 
f 175 170 183 
f 152 154 184 
f 159 143 184 
f 154 159 184 
f 143 172 184 
f 172 152 184 
f 177 144 185 
f 171 177 185 
f 178 173 185 
f 185 144 186 
f 145 140 187 
f 140 161 187 
f 161 159 187 
f 166 145 187 
f 159 166 187 
f 178 149 188 
f 153 178 188 
f 154 142 189 
f 157 154 189 
f 142 167 189 
f 167 157 189 
f 167 151 190 
f 157 167 190 
f 150 157 191 
f 177 150 191 
f 157 190 191 
f 163 146 192 
f 146 179 192 
f 179 153 192 
f 188 163 192 
f 153 188 192 
f 144 177 193 
f 190 151 193 
f 177 191 193 
f 191 190 193 
f 151 147 194 
f 147 158 194 
f 186 144 194 
f 158 186 194 
f 144 193 194 
f 193 151 194 
f 143 148 195 
f 148 162 195 
f 172 143 195 
f 162 172 195 
f 160 171 196 
f 173 153 196 
f 153 179 196 
f 179 160 196 
f 171 185 196 
f 185 173 196 
f 139 163 197 
f 164 139 197 
f 149 181 197 
f 181 164 197 
f 188 149 197 
f 163 188 197 
f 140 141 198 
f 141 160 198 
f 179 165 198 
f 160 179 198 
f 158 149 199 
f 149 178 199 
f 178 185 199 
f 186 158 199 
f 185 186 199 
f 161 140 200 
f 180 161 200 
f 165 180 200 
f 140 198 200 
f 198 165 200 
f 143 159 201 
f 159 155 201 
f 155 169 201 
f 148 143 202 
f 170 148 202 
f 169 170 202 
f 143 201 202 
o convex_6
v -0.084260 0.178989 1.465492
v -0.052656 0.258014 1.497120
v -0.048704 0.258014 1.489207
v -0.076356 0.242202 1.437836
v -0.056608 0.175021 1.441793
v -0.036848 0.265924 1.429931
v -0.072404 0.198752 1.418078
v -0.088212 0.178989 1.497120
v -0.076356 0.254063 1.497120
v -0.060560 0.190841 1.497120
v -0.092170 0.210604 1.473397
v -0.032885 0.254063 1.441793
v -0.048704 0.230349 1.414121
v -0.060560 0.265924 1.449698
v -0.064500 0.242202 1.418078
v -0.068452 0.175021 1.497120
v -0.088212 0.230349 1.497120
v -0.084260 0.210604 1.437836
v -0.084260 0.238251 1.457587
f 220 213 221 
f 204 205 208 
f 207 203 209 
f 210 204 211 
f 205 204 212 
f 204 210 212 
f 203 210 213 
f 208 205 214 
f 205 212 214 
f 212 207 214 
f 207 209 215 
f 208 214 215 
f 214 207 215 
f 204 208 216 
f 211 204 216 
f 208 215 217 
f 215 209 217 
f 216 208 217 
f 206 216 217 
f 203 207 218 
f 210 203 218 
f 207 212 218 
f 212 210 218 
f 210 211 219 
f 213 210 219 
f 209 203 220 
f 203 213 220 
f 206 217 220 
f 217 209 220 
f 216 206 221 
f 211 216 221 
f 219 211 221 
f 213 219 221 
f 206 220 221 
o convex_7
v -0.076359 0.246156 1.556421
v -0.024982 0.163162 1.588014
v -0.021026 0.163162 1.588014
v -0.068454 0.175031 1.497120
v -0.080315 0.182934 1.623582
v -0.024982 0.254068 1.564307
v -0.088220 0.234306 1.497120
v -0.052652 0.254068 1.497120
v -0.040792 0.214535 1.623582
v -0.088220 0.175031 1.497120
v -0.068454 0.163162 1.623582
v -0.021026 0.167128 1.623582
v -0.021026 0.230340 1.548522
v -0.076359 0.214535 1.623582
v -0.048703 0.261980 1.564307
v -0.092175 0.210608 1.536662
v -0.072410 0.258014 1.497120
v -0.060550 0.182934 1.497120
v -0.076359 0.167128 1.520853
v -0.021026 0.190836 1.623582
v -0.092175 0.182934 1.528751
v -0.032887 0.261980 1.564307
v -0.021026 0.246156 1.548522
v -0.084257 0.246156 1.516903
v -0.068454 0.222438 1.619633
v -0.064499 0.254068 1.568256
f 246 236 247 
f 225 228 229 
f 228 225 231 
f 223 224 232 
f 230 226 232 
f 232 224 233 
f 230 232 233 
f 233 224 234 
f 226 230 235 
f 226 235 237 
f 229 228 238 
f 224 225 239 
f 225 229 239 
f 234 224 239 
f 229 234 239 
f 224 223 240 
f 225 224 240 
f 231 225 240 
f 223 232 240 
f 232 231 240 
f 227 230 241 
f 230 233 241 
f 233 234 241 
f 228 231 242 
f 232 226 242 
f 231 232 242 
f 237 228 242 
f 226 237 242 
f 230 227 243 
f 229 238 243 
f 238 236 243 
f 234 229 244 
f 227 241 244 
f 241 234 244 
f 243 227 244 
f 229 243 244 
f 235 222 245 
f 228 237 245 
f 237 235 245 
f 238 228 245 
f 235 230 246 
f 230 243 246 
f 243 236 246 
f 222 235 247 
f 236 238 247 
f 245 222 247 
f 238 245 247 
f 235 246 247 
o convex_8
v 0.061967 0.238262 1.516869
v -0.021018 0.092014 1.453655
v -0.013119 0.092014 1.453655
v -0.021018 0.131564 1.528733
v 0.065925 0.178951 1.453655
v 0.061967 0.186861 1.441791
v 0.065925 0.230352 1.528733
v -0.009161 0.139474 1.489207
v -0.017068 0.127609 1.524776
v -0.021018 0.143414 1.528733
v -0.001261 0.119699 1.445748
v 0.042202 0.222427 1.524776
v 0.065925 0.174996 1.441791
v 0.026395 0.174996 1.477368
v -0.017068 0.095969 1.473410
f 252 256 262 
f 254 251 256 
f 252 254 256 
f 249 251 257 
f 251 254 257 
f 255 249 257 
f 250 249 258 
f 249 255 258 
f 254 248 259 
f 257 254 259 
f 255 257 259 
f 252 250 260 
f 253 248 260 
f 248 254 260 
f 254 252 260 
f 250 258 260 
f 258 253 260 
f 248 253 261 
f 253 258 261 
f 258 255 261 
f 255 259 261 
f 259 248 261 
f 249 250 262 
f 251 249 262 
f 250 252 262 
f 256 251 262 
o convex_9
v -0.021018 0.147361 1.532707
v 0.065925 0.281744 1.623598
v 0.061967 0.281744 1.623598
v -0.017068 0.171068 1.623598
v 0.065925 0.234301 1.536662
v 0.061967 0.250120 1.536662
v 0.002697 0.214531 1.619642
v -0.017068 0.135493 1.536662
v 0.065925 0.269862 1.619642
v 0.034302 0.238252 1.576170
v -0.021018 0.182936 1.623598
v 0.030344 0.210580 1.528751
v -0.017068 0.167117 1.560376
v -0.021018 0.135493 1.528751
v 0.065925 0.234301 1.528751
v 0.050109 0.269862 1.615687
f 272 269 278 
f 264 265 266 
f 265 264 268 
f 267 266 270 
f 264 266 271 
f 266 267 271 
f 267 264 271 
f 266 265 273 
f 265 269 273 
f 272 268 274 
f 272 274 275 
f 269 272 275 
f 273 269 275 
f 263 273 275 
f 274 263 275 
f 270 266 276 
f 266 273 276 
f 273 263 276 
f 263 274 276 
f 276 274 277 
f 264 267 277 
f 268 264 277 
f 267 270 277 
f 274 268 277 
f 270 276 277 
f 265 268 278 
f 269 265 278 
f 268 272 278 
o convex_10
v 0.156846 0.305447 1.505017
v 0.065933 0.178973 1.441796
v 0.069893 0.178973 1.441796
v 0.065933 0.234324 1.524781
v 0.156846 0.246163 1.445745
v 0.101521 0.222473 1.441796
v 0.073845 0.246163 1.508967
v 0.156846 0.305447 1.524781
v 0.125219 0.297542 1.520823
v 0.152886 0.254055 1.437838
v 0.069893 0.230378 1.520823
v 0.065933 0.202703 1.457601
v 0.073845 0.182946 1.449703
v 0.137081 0.273825 1.473415
v 0.109423 0.261961 1.485254
v 0.065933 0.242230 1.524781
f 285 290 294 
f 283 279 286 
f 286 279 287 
f 281 280 288 
f 279 283 288 
f 283 281 288 
f 280 284 288 
f 282 280 289 
f 286 282 289 
f 283 286 289 
f 280 282 290 
f 284 280 290 
f 280 281 291 
f 281 283 291 
f 289 280 291 
f 283 289 291 
f 287 279 292 
f 279 288 292 
f 288 284 292 
f 285 287 293 
f 284 290 293 
f 290 285 293 
f 287 292 293 
f 292 284 293 
f 282 286 294 
f 287 285 294 
f 286 287 294 
f 290 282 294 
o convex_11
v 0.065933 0.265949 1.560376
v 0.156846 0.356834 1.623607
v 0.156846 0.356834 1.615685
v 0.156846 0.309401 1.532711
v 0.069893 0.273853 1.619641
v 0.069893 0.234311 1.528755
v 0.133112 0.305443 1.524789
v 0.101521 0.321262 1.619641
v 0.156846 0.348918 1.623607
v 0.065933 0.285714 1.623607
v 0.152886 0.337069 1.560376
v 0.065933 0.246185 1.524789
v 0.101521 0.297539 1.556419
v 0.156846 0.317304 1.524789
v 0.129161 0.337069 1.599889
f 305 307 309 
f 297 296 298 
f 296 297 302 
f 298 296 303 
f 300 298 303 
f 299 300 303 
f 300 299 304 
f 296 302 304 
f 302 295 304 
f 303 296 304 
f 299 303 304 
f 304 295 306 
f 300 304 306 
f 295 302 307 
f 305 301 307 
f 306 295 307 
f 301 306 307 
f 297 298 308 
f 298 300 308 
f 305 297 308 
f 301 305 308 
f 306 301 308 
f 300 306 308 
f 302 297 309 
f 297 305 309 
f 307 302 309 
o convex_12
v -0.068440 0.171068 1.694730
v 0.054062 0.163166 1.761952
v 0.054062 0.147352 1.761952
v 0.014539 0.214545 1.623607
v -0.001271 0.218500 1.761952
v -0.036822 0.155272 1.627561
v -0.068440 0.218500 1.623607
v -0.021013 0.131547 1.761952
v 0.022443 0.131547 1.706592
v -0.072399 0.167121 1.623607
v -0.052631 0.182907 1.734259
v -0.032876 0.131547 1.702652
v 0.042198 0.190828 1.761952
v 0.026389 0.123635 1.757998
v 0.014539 0.218500 1.623607
v -0.036822 0.151307 1.761952
v 0.018484 0.151307 1.675012
v -0.056590 0.151307 1.718469
v -0.080304 0.198731 1.627561
v -0.005230 0.123635 1.714514
v -0.060536 0.194784 1.702652
v -0.024971 0.163166 1.623607
v 0.038253 0.147352 1.714514
v -0.028917 0.186863 1.761952
v -0.005230 0.123635 1.761952
v -0.028917 0.135512 1.675012
v -0.001271 0.139459 1.671045
v 0.034294 0.127591 1.738213
v 0.002675 0.218500 1.761952
v -0.064495 0.159210 1.627561
v -0.056590 0.147352 1.698697
f 339 321 340 
f 311 312 313 
f 312 311 314 
f 312 314 317 
f 316 313 319 
f 314 311 322 
f 311 313 324 
f 313 316 324 
f 316 314 324 
f 322 311 324 
f 317 314 325 
f 320 310 327 
f 317 325 327 
f 325 320 327 
f 316 319 328 
f 319 310 328 
f 314 316 330 
f 310 320 330 
f 320 314 330 
f 316 328 330 
f 328 310 330 
f 319 313 331 
f 315 319 331 
f 313 326 331 
f 313 312 332 
f 326 313 332 
f 318 326 332 
f 314 320 333 
f 325 314 333 
f 320 325 333 
f 312 317 334 
f 317 321 334 
f 323 312 334 
f 321 329 334 
f 329 323 334 
f 329 321 335 
f 329 335 336 
f 326 318 336 
f 318 329 336 
f 315 331 336 
f 331 326 336 
f 335 315 336 
f 312 323 337 
f 329 318 337 
f 323 329 337 
f 332 312 337 
f 318 332 337 
f 314 322 338 
f 324 314 338 
f 322 324 338 
f 319 315 339 
f 315 335 339 
f 335 321 339 
f 310 319 340 
f 321 317 340 
f 327 310 340 
f 317 327 340 
f 319 339 340 
o convex_13
v 0.156846 0.364746 1.754024
v 0.121271 0.329177 1.623607
v 0.121271 0.337089 1.623607
v 0.121271 0.329177 1.785653
v 0.156846 0.348940 1.623607
v 0.152890 0.344990 1.785653
v 0.129183 0.352890 1.675016
v 0.152890 0.364746 1.647352
v 0.121271 0.341035 1.773788
v 0.152890 0.368704 1.718461
v 0.133135 0.333135 1.623607
v 0.156846 0.356845 1.785653
v 0.156846 0.360791 1.627588
f 348 350 353 
f 343 342 344 
f 342 343 345 
f 343 347 348 
f 343 344 349 
f 347 343 349 
f 347 349 350 
f 348 347 350 
f 349 341 350 
f 344 342 351 
f 342 345 351 
f 345 346 351 
f 346 344 351 
f 345 341 352 
f 346 345 352 
f 344 346 352 
f 349 344 352 
f 341 349 352 
f 341 345 353 
f 345 343 353 
f 343 348 353 
f 350 341 353 
o convex_14
v 0.133135 0.337079 1.813364
v 0.121271 0.250122 1.931898
v 0.129183 0.250122 1.931898
v 0.125227 0.325208 1.789644
v 0.156846 0.254076 1.951660
v 0.156846 0.348939 1.785685
v 0.152890 0.317301 1.876574
v 0.121271 0.277807 1.912137
v 0.121271 0.337079 1.789644
v 0.156846 0.254076 1.943758
v 0.141033 0.254076 1.955619
v 0.156846 0.352893 1.801504
v 0.121271 0.309404 1.860788
v 0.156846 0.281750 1.927939
f 365 360 367 
f 356 355 357 
f 357 355 362 
f 359 357 362 
f 355 361 362 
f 356 357 363 
f 358 356 363 
f 357 359 363 
f 359 358 363 
f 355 356 364 
f 356 358 364 
f 361 355 364 
f 358 359 365 
f 354 360 365 
f 362 354 365 
f 359 362 365 
f 360 354 366 
f 361 360 366 
f 354 362 366 
f 362 361 366 
f 360 361 367 
f 364 358 367 
f 361 364 367 
f 358 365 367 
o convex_15
v 0.303079 0.344968 1.271830
v 0.200326 0.258047 1.354810
v 0.204285 0.250142 1.354810
v 0.299141 0.321251 1.358766
v 0.271457 0.238277 1.354810
v 0.224061 0.333116 1.263919
v 0.239856 0.341022 1.358766
v 0.271457 0.281764 1.263919
v 0.283314 0.364738 1.263919
v 0.303079 0.309400 1.263919
v 0.224061 0.293615 1.263919
v 0.224061 0.230372 1.358766
v 0.200326 0.297548 1.358766
v 0.299141 0.273858 1.358766
v 0.247775 0.360779 1.275785
v 0.287284 0.337062 1.358766
v 0.251723 0.269899 1.275785
v 0.307049 0.309400 1.331096
v 0.275427 0.364738 1.287642
v 0.208234 0.313346 1.358766
v 0.287284 0.269899 1.303445
v 0.251723 0.230372 1.350855
v 0.220101 0.317305 1.263919
v 0.275427 0.273858 1.275785
v 0.299141 0.341022 1.319239
v 0.307049 0.337062 1.263919
v 0.224061 0.230372 1.354810
f 384 389 394 
f 375 373 376 
f 375 376 377 
f 370 369 378 
f 373 375 378 
f 369 370 379 
f 371 374 379 
f 379 374 380 
f 369 379 380 
f 371 379 381 
f 379 372 381 
f 376 373 382 
f 374 371 383 
f 378 375 384 
f 371 381 385 
f 381 377 385 
f 376 382 386 
f 382 374 386 
f 374 383 386 
f 380 374 387 
f 373 380 387 
f 382 373 387 
f 374 382 387 
f 377 381 388 
f 381 372 388 
f 372 379 389 
f 378 369 390 
f 373 378 390 
f 369 380 390 
f 380 373 390 
f 375 377 391 
f 384 375 391 
f 388 372 391 
f 377 388 391 
f 372 389 391 
f 389 384 391 
f 368 376 392 
f 383 371 392 
f 371 385 392 
f 376 386 392 
f 386 383 392 
f 376 368 393 
f 377 376 393 
f 385 377 393 
f 368 392 393 
f 392 385 393 
f 370 378 394 
f 379 370 394 
f 378 384 394 
f 389 379 394 
o convex_16
v 0.358435 0.277807 1.923998
v 0.267522 0.360782 1.825196
v 0.267522 0.364742 1.825196
v 0.390051 0.313364 1.825196
v 0.275438 0.277807 1.935861
v 0.310999 0.344979 1.856849
v 0.267522 0.289659 1.939796
v 0.374231 0.333118 1.829165
v 0.390051 0.273838 1.888421
v 0.386093 0.309431 1.829165
v 0.287300 0.329167 1.888433
v 0.390051 0.289659 1.884486
v 0.326807 0.277807 1.939796
v 0.342627 0.321257 1.876593
v 0.334711 0.352881 1.829177
v 0.271492 0.356832 1.825196
v 0.267522 0.360782 1.841016
v 0.267522 0.285709 1.927956
v 0.382135 0.273838 1.888421
v 0.326807 0.273838 1.939796
v 0.307053 0.313382 1.904242
f 408 400 415 
f 396 397 398 
f 397 396 401 
f 398 403 404 
f 398 402 406 
f 395 403 406 
f 403 398 406 
f 395 406 408 
f 406 402 408 
f 407 395 408 
f 398 397 409 
f 402 398 409 
f 400 408 409 
f 408 402 409 
f 396 398 410 
f 398 404 410 
f 397 401 411 
f 405 400 411 
f 401 405 411 
f 409 397 411 
f 400 409 411 
f 401 396 412 
f 399 401 412 
f 404 399 412 
f 396 410 412 
f 410 404 412 
f 399 404 413 
f 404 403 413 
f 401 399 414 
f 403 395 414 
f 395 407 414 
f 407 401 414 
f 399 413 414 
f 413 403 414 
f 400 405 415 
f 405 401 415 
f 401 407 415 
f 407 408 415 
o convex_17
v 0.105438 0.265914 1.916108
v -0.024979 0.119712 1.947730
v -0.020999 0.115769 1.955604
v -0.021014 0.159239 1.860776
v 0.121271 0.230368 1.951667
v 0.121271 0.297536 1.852865
v 0.050136 0.254085 1.860789
v 0.018527 0.155296 1.975389
v -0.024965 0.159239 1.896348
v -0.001229 0.119712 1.971427
v 0.117306 0.242217 1.955617
v 0.113340 0.305441 1.852865
v -0.024965 0.171087 1.856827
v 0.042234 0.222463 1.908209
v -0.020999 0.123674 1.967465
v 0.058010 0.194766 1.967465
v 0.121271 0.230368 1.959579
v 0.117306 0.293574 1.884499
v -0.001229 0.119712 1.979352
v 0.085668 0.269858 1.888448
v 0.018512 0.222463 1.852865
v 0.002693 0.175031 1.924007
f 430 423 437 
f 418 417 419 
f 420 419 421 
f 418 419 425 
f 419 420 425 
f 419 417 428 
f 421 419 428 
f 417 424 428 
f 417 418 430 
f 424 417 430 
f 426 416 431 
f 429 423 431 
f 420 421 432 
f 425 420 432 
f 426 431 432 
f 431 423 432 
f 416 426 433 
f 421 427 433 
f 432 421 433 
f 426 432 433 
f 418 425 434 
f 430 418 434 
f 423 430 434 
f 425 432 434 
f 432 423 434 
f 427 422 435 
f 422 429 435 
f 431 416 435 
f 429 431 435 
f 416 433 435 
f 433 427 435 
f 424 422 436 
f 427 421 436 
f 422 427 436 
f 421 428 436 
f 428 424 436 
f 422 424 437 
f 429 422 437 
f 423 429 437 
f 424 430 437 
o convex_18
v 0.073834 0.305446 1.757975
v 0.010624 0.218513 1.623607
v 0.010624 0.222474 1.623607
v 0.121259 0.325192 1.623607
v 0.006665 0.218513 1.769858
v 0.121271 0.329153 1.769858
v 0.109397 0.337064 1.667084
v 0.018528 0.218513 1.631524
v 0.010612 0.238296 1.694771
v 0.058037 0.281738 1.627572
v -0.001263 0.222474 1.769858
v 0.117313 0.344975 1.722429
v 0.073822 0.305446 1.667084
v 0.109397 0.333115 1.769858
v 0.117301 0.337064 1.631524
v 0.026420 0.258055 1.730317
v 0.002707 0.222474 1.655231
v 0.121271 0.344975 1.686869
v 0.046175 0.277813 1.674987
v 0.105439 0.325192 1.623607
f 444 452 457 
f 439 440 441 
f 439 441 445 
f 442 439 445 
f 441 443 445 
f 443 442 445 
f 439 442 448 
f 442 443 448 
f 449 444 450 
f 438 449 450 
f 438 448 451 
f 448 443 451 
f 449 438 451 
f 443 449 451 
f 448 438 453 
f 446 448 453 
f 440 439 454 
f 447 440 454 
f 439 448 454 
f 448 446 454 
f 443 441 455 
f 449 443 455 
f 444 449 455 
f 441 452 455 
f 452 444 455 
f 438 450 456 
f 450 447 456 
f 453 438 456 
f 446 453 456 
f 454 446 456 
f 447 454 456 
f 441 440 457 
f 440 447 457 
f 450 444 457 
f 447 450 457 
f 452 441 457 
o convex_19
v 0.330762 0.487285 1.461546
v 0.263569 0.289663 1.465519
v 0.271481 0.190870 1.461546
v 0.374233 0.159262 1.544553
v 0.263569 0.360780 1.540596
v 0.390056 0.269963 1.461546
v 0.390056 0.329099 1.544553
v 0.271481 0.143458 1.544553
v 0.338661 0.123685 1.508972
v 0.275443 0.451635 1.461546
v 0.307064 0.463506 1.505024
v 0.354472 0.459536 1.473425
v 0.314964 0.372578 1.544553
v 0.358434 0.119753 1.540588
v 0.318913 0.143458 1.485263
v 0.271481 0.147428 1.493169
v 0.334699 0.463506 1.501075
v 0.291266 0.475377 1.485263
v 0.330762 0.111851 1.544553
v 0.358434 0.443733 1.461546
v 0.358434 0.151360 1.501075
v 0.334699 0.179072 1.473425
v 0.271481 0.360744 1.544553
v 0.342611 0.368646 1.544553
v 0.382132 0.206711 1.536647
v 0.263569 0.289663 1.532682
v 0.271481 0.431898 1.461546
v 0.370283 0.155330 1.520835
v 0.299165 0.127655 1.508972
v 0.390056 0.281798 1.461546
v 0.330762 0.483279 1.485263
v 0.303115 0.487285 1.461546
v 0.346573 0.471408 1.481314
v 0.330762 0.214576 1.461546
v 0.291266 0.143458 1.485263
v 0.350510 0.159262 1.489220
v 0.326813 0.447702 1.512929
v 0.279392 0.463506 1.469451
v 0.263569 0.317301 1.469468
f 462 484 496 
f 460 458 463 
f 461 464 465 
f 458 460 467 
f 465 464 470 
f 459 460 473 
f 465 459 473 
f 462 468 475 
f 461 465 476 
f 471 461 476 
f 466 471 476 
f 463 458 477 
f 469 464 477 
f 458 469 477 
f 471 466 478 
f 472 460 479 
f 462 465 480 
f 468 462 480 
f 465 470 480 
f 470 468 480 
f 470 464 481 
f 461 463 482 
f 464 461 482 
f 463 464 482 
f 462 459 483 
f 465 462 483 
f 459 465 483 
f 460 459 484 
f 467 460 484 
f 462 467 484 
f 463 461 485 
f 461 471 485 
f 478 463 485 
f 471 478 485 
f 465 473 486 
f 476 465 486 
f 466 476 486 
f 464 463 487 
f 463 477 487 
f 477 464 487 
f 468 474 488 
f 475 468 488 
f 475 488 489 
f 458 467 489 
f 488 458 489 
f 464 469 490 
f 469 458 490 
f 474 464 490 
f 458 488 490 
f 488 474 490 
f 460 463 491 
f 479 460 491 
f 463 479 491 
f 460 472 492 
f 472 466 492 
f 473 460 492 
f 466 486 492 
f 486 473 492 
f 466 472 493 
f 463 478 493 
f 478 466 493 
f 472 479 493 
f 479 463 493 
f 468 470 494 
f 474 468 494 
f 464 474 494 
f 481 464 494 
f 470 481 494 
f 467 462 495 
f 462 475 495 
f 475 489 495 
f 489 467 495 
f 459 462 496 
f 484 459 496 
o convex_20
v 0.109399 0.317305 1.825185
v 0.002701 0.218500 1.769858
v 0.006659 0.218500 1.769858
v 0.018519 0.218500 1.852856
v 0.121260 0.301497 1.844951
v 0.121260 0.329155 1.769858
v 0.061981 0.289635 1.785676
v 0.077787 0.281732 1.852856
v 0.006659 0.222470 1.821236
v 0.026422 0.218500 1.844951
v 0.105442 0.329155 1.769858
v 0.022465 0.250139 1.769858
v 0.010616 0.218500 1.773822
v 0.121260 0.309401 1.852856
v 0.026422 0.238278 1.840995
v 0.117302 0.333113 1.793581
v 0.081733 0.297539 1.821236
f 512 507 513 
f 498 499 500 
f 499 498 502 
f 498 500 505 
f 500 499 506 
f 501 500 506 
f 502 498 507 
f 503 507 508 
f 498 505 508 
f 505 503 508 
f 507 498 508 
f 499 502 509 
f 502 501 509 
f 506 499 509 
f 501 506 509 
f 500 501 510 
f 501 502 510 
f 504 500 510 
f 497 504 510 
f 500 504 511 
f 505 500 511 
f 503 505 511 
f 502 507 512 
f 510 502 512 
f 497 510 512 
f 504 497 513 
f 507 503 513 
f 511 504 513 
f 503 511 513 
f 497 512 513 
o convex_21
v 0.338648 0.352893 1.825187
v 0.267522 0.388466 1.742189
v 0.267522 0.364740 1.809377
v 0.386098 0.313366 1.821231
v 0.390056 0.352893 1.742189
v 0.307055 0.388466 1.758007
v 0.267522 0.368694 1.825187
v 0.386098 0.341045 1.746153
v 0.390056 0.325228 1.825187
v 0.358415 0.364740 1.773817
v 0.338648 0.380557 1.742189
v 0.318930 0.372649 1.797516
v 0.267522 0.388466 1.773817
v 0.267522 0.360786 1.825187
f 522 520 527 
f 516 515 517 
f 515 516 520 
f 517 515 521 
f 518 517 521 
f 515 518 521 
f 517 518 522 
f 514 520 522 
f 514 522 523 
f 522 518 523 
f 518 515 524 
f 515 519 524 
f 523 518 524 
f 519 523 524 
f 520 514 525 
f 523 519 525 
f 514 523 525 
f 519 515 526 
f 515 520 526 
f 520 525 526 
f 525 519 526 
f 516 517 527 
f 520 516 527 
f 517 522 527 
o convex_22
v 0.579789 0.159200 1.402263
v 0.595590 0.190821 1.481301
v 0.575838 0.190821 1.481301
v 0.579789 0.103872 1.481301
v 0.560028 0.202690 1.422024
v 0.603496 0.131546 1.445724
v 0.563983 0.111794 1.429932
v 0.595590 0.171050 1.425978
v 0.599545 0.107828 1.481301
v 0.587690 0.131546 1.410170
v 0.560028 0.186865 1.441778
v 0.607451 0.159200 1.481301
v 0.575838 0.202690 1.425978
v 0.583739 0.107828 1.437840
v 0.567933 0.163147 1.402263
v 0.575838 0.107828 1.481301
v 0.595590 0.190821 1.453632
v 0.583739 0.175016 1.406217
v 0.563983 0.111794 1.445724
v 0.571888 0.131546 1.406217
f 534 542 547 
f 529 530 531 
f 529 531 536 
f 535 533 537 
f 530 532 538 
f 532 534 538 
f 533 535 539 
f 529 536 539 
f 536 533 539 
f 530 529 540 
f 532 530 540 
f 531 534 541 
f 536 531 541 
f 533 536 541 
f 537 533 541 
f 534 532 542 
f 531 530 543 
f 530 538 543 
f 529 539 544 
f 539 535 544 
f 540 529 544 
f 535 540 544 
f 537 528 545 
f 535 537 545 
f 532 540 545 
f 540 535 545 
f 528 542 545 
f 542 532 545 
f 534 531 546 
f 538 534 546 
f 531 543 546 
f 543 538 546 
f 528 537 547 
f 541 534 547 
f 537 541 547 
f 542 528 547 
o convex_23
v 0.571890 0.107841 1.493177
v 0.583739 0.171063 1.580127
v 0.567928 0.171063 1.580127
v 0.595588 0.190815 1.481329
v 0.599550 0.115744 1.580127
v 0.544212 0.163160 1.544544
v 0.556079 0.111788 1.580127
v 0.603493 0.111788 1.485275
v 0.607455 0.167097 1.520848
v 0.560023 0.198737 1.552446
v 0.575834 0.186868 1.481329
v 0.591645 0.099919 1.548490
v 0.591645 0.186868 1.552446
v 0.579777 0.103875 1.481329
v 0.548174 0.186868 1.556402
v 0.599550 0.151292 1.580127
v 0.563985 0.103875 1.524804
v 0.607455 0.159194 1.481329
v 0.607455 0.127593 1.528750
v 0.548174 0.182912 1.532686
v 0.571890 0.115744 1.485275
v 0.567928 0.103875 1.580127
f 564 559 569 
f 549 550 552 
f 552 550 554 
f 550 549 557 
f 557 551 558 
f 555 552 559 
f 556 551 560 
f 557 549 560 
f 551 557 560 
f 558 551 561 
f 555 559 561 
f 554 550 562 
f 553 554 562 
f 550 557 562 
f 549 552 563 
f 560 549 563 
f 556 560 563 
f 554 553 564 
f 548 561 564 
f 561 559 564 
f 551 556 565 
f 561 551 565 
f 555 561 565 
f 552 555 566 
f 563 552 566 
f 556 563 566 
f 555 565 566 
f 565 556 566 
f 557 558 567 
f 553 562 567 
f 562 557 567 
f 561 548 568 
f 558 561 568 
f 548 564 568 
f 564 553 568 
f 553 567 568 
f 567 558 568 
f 552 554 569 
f 559 552 569 
f 554 564 569 
o convex_24
v 0.390059 0.131570 1.817330
v 0.394012 0.155249 1.971431
v 0.390059 0.155249 1.971431
v 0.390059 0.313366 1.833113
v 0.405865 0.092035 1.841035
v 0.405865 0.305426 1.833113
v 0.405865 0.238266 1.935857
v 0.394012 0.084142 1.947694
v 0.405865 0.099951 1.916082
v 0.390059 0.254052 1.927950
v 0.390059 0.076203 1.884516
v 0.394012 0.151303 1.813368
v 0.397962 0.127600 1.967454
v 0.405865 0.076203 1.884516
v 0.394012 0.297510 1.868702
v 0.390059 0.099951 1.963508
f 577 582 585 
f 570 572 573 
f 572 571 576 
f 574 575 576 
f 574 576 578 
f 573 572 579 
f 572 576 579 
f 572 570 580 
f 570 574 580 
f 570 573 581 
f 574 570 581 
f 575 574 581 
f 573 575 581 
f 576 571 582 
f 578 576 582 
f 577 578 582 
f 574 578 583 
f 578 577 583 
f 580 574 583 
f 577 580 583 
f 575 573 584 
f 576 575 584 
f 573 579 584 
f 579 576 584 
f 571 572 585 
f 572 580 585 
f 580 577 585 
f 582 571 585 
o convex_25
v 0.200348 0.254048 1.358798
v 0.251693 0.123652 1.587991
v 0.271475 0.123652 1.587991
v 0.267514 0.289649 1.544531
v 0.168717 0.206650 1.591962
v 0.271475 0.238254 1.358798
v 0.196387 0.135513 1.516866
v 0.156846 0.289649 1.481281
v 0.271475 0.289649 1.358798
v 0.156846 0.250100 1.437866
v 0.271475 0.222444 1.591962
v 0.164767 0.167133 1.568247
v 0.208236 0.246151 1.591962
v 0.196387 0.289649 1.362770
v 0.271475 0.151323 1.493150
v 0.231933 0.226393 1.358798
v 0.208236 0.135513 1.591962
v 0.180577 0.159236 1.501048
v 0.156846 0.289649 1.493150
v 0.196387 0.206650 1.414150
v 0.220085 0.135513 1.512894
v 0.172678 0.151323 1.536610
v 0.160807 0.178995 1.560326
v 0.271475 0.289649 1.544531
v 0.251693 0.226393 1.358798
v 0.168717 0.175046 1.591962
v 0.184516 0.234290 1.587991
v 0.196387 0.131565 1.532661
v 0.231933 0.246151 1.591962
v 0.271475 0.123652 1.591962
v 0.216124 0.226393 1.366718
v 0.227973 0.171082 1.449713
v 0.164767 0.175046 1.520815
v 0.176616 0.147375 1.556377
v 0.160807 0.198754 1.568247
v 0.196387 0.281720 1.358798
f 595 599 621 
f 591 586 594 
f 588 591 594 
f 593 589 594 
f 588 594 596 
f 590 596 598 
f 593 594 599 
f 595 593 599 
f 591 588 600 
f 586 591 601 
f 596 590 602 
f 589 593 604 
f 593 595 604 
f 598 589 604 
f 595 586 605 
f 603 595 605 
f 592 603 605 
f 600 588 606 
f 603 592 607 
f 604 595 608 
f 607 597 608 
f 594 589 609 
f 596 594 609 
f 589 598 609 
f 591 600 610 
f 601 591 610 
f 602 590 611 
f 608 597 611 
f 590 598 612 
f 604 590 612 
f 598 604 612 
f 588 587 613 
f 587 602 613 
f 606 588 613 
f 592 606 613 
f 607 592 613 
f 598 596 614 
f 596 609 614 
f 609 598 614 
f 587 588 615 
f 588 596 615 
f 602 587 615 
f 596 602 615 
f 601 592 616 
f 586 601 616 
f 605 586 616 
f 592 605 616 
f 592 601 617 
f 606 592 617 
f 600 606 617 
f 610 600 617 
f 601 610 617 
f 595 603 618 
f 603 607 618 
f 608 595 618 
f 607 608 618 
f 597 607 619 
f 602 611 619 
f 611 597 619 
f 613 602 619 
f 607 613 619 
f 590 604 620 
f 604 608 620 
f 611 590 620 
f 608 611 620 
f 594 586 621 
f 586 595 621 
f 599 594 621 
o convex_26
v 0.275413 0.115745 1.607806
v 0.267507 0.273823 1.714519
v 0.291225 0.269861 1.714519
v 0.224054 0.127615 1.714519
v 0.172676 0.210576 1.591985
v 0.354471 0.186884 1.611752
v 0.346546 0.143415 1.714519
v 0.168733 0.198723 1.714519
v 0.291225 0.242192 1.595955
v 0.192431 0.135522 1.591985
v 0.346546 0.135522 1.591985
v 0.220111 0.261954 1.663112
v 0.358414 0.194792 1.714519
v 0.318904 0.123653 1.714519
v 0.334697 0.234284 1.643393
v 0.172676 0.151322 1.631519
v 0.204299 0.242192 1.591985
v 0.196393 0.246154 1.714519
v 0.196393 0.135522 1.714519
v 0.283300 0.261954 1.639423
v 0.307036 0.115745 1.595955
v 0.208242 0.123653 1.599902
v 0.334697 0.238246 1.714519
v 0.310980 0.222430 1.591985
v 0.168733 0.182938 1.591985
v 0.168733 0.175030 1.710549
v 0.358414 0.167122 1.710561
v 0.184525 0.234284 1.647339
v 0.251715 0.261954 1.631519
v 0.338640 0.214523 1.603860
v 0.314923 0.250100 1.639423
v 0.350527 0.210592 1.631519
v 0.164751 0.194792 1.635489
v 0.184525 0.135522 1.603860
v 0.224054 0.265915 1.714519
v 0.172676 0.218484 1.659166
v 0.330753 0.123653 1.623626
v 0.314923 0.258008 1.690783
v 0.176638 0.155269 1.714519
v 0.346546 0.171084 1.591985
v 0.267507 0.250100 1.599902
v 0.267507 0.123653 1.714519
v 0.247771 0.269861 1.671016
v 0.255677 0.119707 1.591985
v 0.287281 0.265915 1.659166
v 0.354471 0.159215 1.619656
v 0.310980 0.115745 1.619656
v 0.168733 0.163176 1.611752
v 0.318904 0.234284 1.603860
f 652 636 670 
f 624 623 625 
f 624 625 628 
f 625 623 629 
f 631 626 632 
f 624 628 634 
f 628 625 635 
f 632 626 638 
f 629 623 639 
f 625 629 640 
f 622 625 643 
f 625 640 643 
f 624 634 644 
f 632 638 645 
f 638 630 645 
f 626 631 646 
f 628 632 648 
f 627 634 648 
f 634 628 648 
f 638 626 649 
f 633 638 649 
f 639 633 649 
f 638 633 650 
f 630 641 652 
f 634 627 653 
f 644 634 653 
f 636 644 653 
f 627 651 653 
f 651 636 653 
f 626 646 654 
f 647 629 654 
f 631 643 655 
f 643 640 655 
f 646 631 655 
f 633 639 656 
f 639 623 656 
f 629 639 657 
f 649 626 657 
f 639 649 657 
f 626 654 657 
f 654 629 657 
f 632 628 658 
f 628 635 658 
f 642 632 658 
f 624 644 659 
f 644 636 659 
f 636 652 659 
f 640 629 660 
f 647 637 660 
f 629 647 660 
f 637 655 660 
f 655 640 660 
f 627 632 661 
f 632 645 661 
f 651 627 661 
f 645 651 661 
f 630 638 662 
f 641 630 662 
f 638 650 662 
f 650 641 662 
f 625 622 663 
f 635 625 663 
f 650 633 664 
f 656 623 664 
f 633 656 664 
f 631 632 665 
f 642 622 665 
f 632 642 665 
f 622 643 665 
f 643 631 665 
f 623 624 666 
f 641 650 666 
f 652 641 666 
f 624 659 666 
f 659 652 666 
f 664 623 666 
f 650 664 666 
f 632 627 667 
f 648 632 667 
f 627 648 667 
f 622 642 668 
f 658 635 668 
f 642 658 668 
f 663 622 668 
f 635 663 668 
f 637 647 669 
f 654 646 669 
f 647 654 669 
f 655 637 669 
f 646 655 669 
f 645 630 670 
f 636 651 670 
f 651 645 670 
f 630 652 670 
o convex_27
v 0.465161 0.246155 1.493152
v 0.390056 0.242212 1.425987
v 0.390056 0.242212 1.433892
v 0.528398 0.131541 1.437841
v 0.524442 0.167145 1.501057
v 0.390056 0.293588 1.501057
v 0.445382 0.214561 1.422030
v 0.528398 0.135517 1.422030
v 0.397968 0.301508 1.497108
v 0.532354 0.175047 1.501057
v 0.516531 0.131541 1.425979
v 0.394012 0.254041 1.429936
v 0.500721 0.194779 1.465480
v 0.516531 0.131541 1.418066
v 0.457249 0.234309 1.461548
v 0.441440 0.269863 1.501057
v 0.469117 0.190836 1.418066
v 0.417733 0.261961 1.457607
f 679 685 688 
f 673 675 676 
f 672 673 676 
f 675 674 680 
f 676 675 680 
f 674 678 680 
f 673 672 681 
f 674 675 681 
f 675 673 681 
f 672 676 682 
f 677 672 682 
f 676 679 682 
f 680 678 683 
f 671 680 683 
f 678 674 684 
f 681 672 684 
f 674 681 684 
f 671 683 685 
f 679 676 686 
f 676 680 686 
f 680 671 686 
f 671 685 686 
f 685 679 686 
f 672 677 687 
f 683 678 687 
f 684 672 687 
f 678 684 687 
f 677 685 687 
f 685 683 687 
f 677 682 688 
f 682 679 688 
f 685 677 688 
o convex_28
v 0.184533 0.265928 1.951669
v 0.156846 0.238268 1.884486
v 0.156846 0.238268 1.908209
v 0.314954 0.238268 1.884486
v 0.156846 0.273838 1.927960
v 0.267503 0.258024 1.884486
v 0.310977 0.238268 1.912162
v 0.156846 0.254079 1.951669
v 0.204297 0.273838 1.947723
v 0.188480 0.258024 1.884486
v 0.314954 0.250127 1.892398
v 0.192442 0.238268 1.924007
f 695 696 700 
f 691 690 692 
f 690 691 693 
f 692 690 694 
f 691 692 695 
f 689 693 696 
f 693 691 696 
f 695 689 696 
f 693 689 697 
f 694 693 697 
f 689 695 697 
f 690 693 698 
f 694 690 698 
f 693 694 698 
f 692 694 699 
f 695 692 699 
f 694 697 699 
f 697 695 699 
f 691 695 700 
f 696 691 700 
o convex_29
v 0.469117 0.277790 1.580127
v 0.390056 0.297555 1.501073
v 0.397968 0.289656 1.501073
v 0.453321 0.261957 1.501073
v 0.528384 0.167115 1.505027
v 0.524442 0.194797 1.576173
v 0.390056 0.341035 1.580127
v 0.532354 0.190864 1.532699
v 0.390056 0.329169 1.576173
v 0.405879 0.321253 1.544546
v 0.532354 0.202713 1.580127
v 0.394012 0.293605 1.508981
v 0.500721 0.214562 1.501073
v 0.445396 0.297555 1.564295
v 0.394012 0.305437 1.501073
v 0.480970 0.258007 1.552440
v 0.532354 0.175048 1.501073
f 713 708 717 
f 703 702 704 
f 706 707 709 
f 707 702 709 
f 706 705 711 
f 701 707 711 
f 707 706 711 
f 702 703 712 
f 703 705 712 
f 705 706 712 
f 709 702 712 
f 706 709 712 
f 703 704 713 
f 707 701 714 
f 704 710 714 
f 710 707 714 
f 704 702 715 
f 702 707 715 
f 710 704 715 
f 707 710 715 
f 701 711 716 
f 711 708 716 
f 713 704 716 
f 708 713 716 
f 714 701 716 
f 704 714 716 
f 705 703 717 
f 711 705 717 
f 708 711 717 
f 703 713 717 
o convex_30
v 0.362381 0.265928 1.935865
v 0.314962 0.238268 1.884486
v 0.314962 0.238268 1.908210
v 0.390056 0.238268 1.931911
v 0.390056 0.273838 1.892399
v 0.318916 0.273838 1.939819
v 0.350539 0.238268 1.884486
v 0.314962 0.250127 1.884486
v 0.390056 0.250127 1.935865
v 0.386094 0.238268 1.935865
v 0.378185 0.273838 1.916101
f 726 722 728 
f 720 719 721 
f 721 719 724 
f 722 721 724 
f 722 724 725 
f 719 720 725 
f 723 722 725 
f 720 723 725 
f 724 719 725 
f 721 722 726 
f 718 723 726 
f 726 723 727 
f 720 721 727 
f 723 720 727 
f 721 726 727 
f 722 723 728 
f 723 718 728 
f 718 726 728 
o convex_31
v 0.477022 0.088067 1.710554
v 0.599550 0.139437 1.603876
v 0.599550 0.123632 1.603876
v 0.548158 0.111793 1.757999
v 0.480976 0.147348 1.757999
v 0.563975 0.159207 1.580127
v 0.524473 0.072253 1.757999
v 0.563975 0.103872 1.580127
v 0.560007 0.143393 1.706584
v 0.496780 0.123632 1.663161
v 0.575824 0.092023 1.698697
v 0.532341 0.072253 1.682888
v 0.461205 0.092023 1.757999
v 0.587687 0.163162 1.580127
v 0.591642 0.107827 1.580127
v 0.496780 0.072253 1.706584
v 0.575824 0.119667 1.710554
v 0.508656 0.147348 1.757999
v 0.552099 0.115730 1.580127
v 0.465159 0.131534 1.754012
v 0.556067 0.076218 1.690792
v 0.492839 0.092023 1.674966
v 0.552099 0.088067 1.750077
v 0.500748 0.068297 1.738220
v 0.477022 0.111793 1.702649
v 0.563975 0.135481 1.718459
v 0.575824 0.092023 1.619668
v 0.595582 0.151304 1.603876
v 0.544190 0.072253 1.722411
v 0.599550 0.147348 1.580127
v 0.528414 0.080155 1.655239
v 0.473068 0.080155 1.757999
v 0.583733 0.095969 1.655239
v 0.552099 0.131534 1.580127
v 0.492839 0.103872 1.667096
v 0.567916 0.163162 1.584114
v 0.583733 0.103872 1.682888
f 739 761 765 
f 732 733 735 
f 735 733 741 
f 736 734 742 
f 736 742 743 
f 733 732 746 
f 737 742 746 
f 734 736 747 
f 733 734 748 
f 734 738 748 
f 741 733 748 
f 744 729 750 
f 747 736 750 
f 732 735 751 
f 745 732 751 
f 739 745 751 
f 744 740 752 
f 729 741 753 
f 748 738 753 
f 741 748 753 
f 732 745 754 
f 746 732 754 
f 737 746 754 
f 736 743 755 
f 749 740 755 
f 742 737 756 
f 745 730 756 
f 737 754 756 
f 754 745 756 
f 749 739 757 
f 740 749 757 
f 751 735 757 
f 739 751 757 
f 735 752 757 
f 752 740 757 
f 730 731 758 
f 731 743 758 
f 743 742 758 
f 756 730 758 
f 742 756 758 
f 740 744 759 
f 744 750 759 
f 750 736 759 
f 736 755 759 
f 755 740 759 
f 741 729 760 
f 735 741 760 
f 729 744 760 
f 752 735 760 
f 744 752 760 
f 743 731 761 
f 739 749 761 
f 755 743 761 
f 749 755 761 
f 738 734 762 
f 734 747 762 
f 762 747 763 
f 750 729 763 
f 747 750 763 
f 729 753 763 
f 753 738 763 
f 738 762 763 
f 734 733 764 
f 742 734 764 
f 733 746 764 
f 746 742 764 
f 731 730 765 
f 730 745 765 
f 745 739 765 
f 761 731 765 
o convex_32
v 0.196378 0.384501 1.750109
v 0.267522 0.348948 1.856806
v 0.267522 0.344999 1.856806
v 0.156846 0.321271 1.856806
v 0.164765 0.360787 1.742189
v 0.267522 0.388457 1.742189
v 0.220082 0.364757 1.829128
v 0.156846 0.348955 1.817269
v 0.267522 0.388457 1.773827
v 0.267522 0.344999 1.848896
v 0.196378 0.344992 1.856806
v 0.160811 0.321271 1.848896
v 0.156846 0.364743 1.742189
v 0.224036 0.392420 1.746160
v 0.208230 0.376597 1.793596
v 0.263557 0.356846 1.848896
v 0.239853 0.380553 1.797545
v 0.168709 0.368699 1.773827
f 773 780 783 
f 768 767 769 
f 767 768 771 
f 767 771 774 
f 771 768 775 
f 770 771 775 
f 769 767 776 
f 773 769 776 
f 768 769 777 
f 775 768 777 
f 770 775 777 
f 771 770 778 
f 769 773 778 
f 777 769 778 
f 770 777 778 
f 774 771 779 
f 771 778 779 
f 778 766 779 
f 776 772 780 
f 773 776 780 
f 779 766 780 
f 767 774 781 
f 776 767 781 
f 772 776 781 
f 774 779 782 
f 780 772 782 
f 779 780 782 
f 781 774 782 
f 772 781 782 
f 766 778 783 
f 778 773 783 
f 780 766 783 
o convex_33
v 0.461198 0.238272 1.872636
v 0.405888 0.226409 1.927955
v 0.500714 0.194786 1.833101
v 0.405888 0.301508 1.833101
v 0.457260 0.194786 1.935872
v 0.409836 0.246169 1.924011
v 0.512590 0.198740 1.837054
v 0.413785 0.301508 1.837054
v 0.405888 0.293599 1.833101
v 0.449363 0.190831 1.927955
v 0.484909 0.194786 1.900280
v 0.465146 0.254056 1.833101
v 0.425641 0.258011 1.892383
v 0.512590 0.190831 1.833101
v 0.405888 0.234318 1.935872
f 793 788 798 
f 787 789 791 
f 786 785 792 
f 787 786 792 
f 785 787 792 
f 785 786 793 
f 790 784 794 
f 788 793 794 
f 786 787 795 
f 784 790 795 
f 787 791 795 
f 791 784 795 
f 789 788 796 
f 791 789 796 
f 784 791 796 
f 794 784 796 
f 788 794 796 
f 793 786 797 
f 790 794 797 
f 794 793 797 
f 786 795 797 
f 795 790 797 
f 787 785 798 
f 788 789 798 
f 789 787 798 
f 785 793 798 
o convex_34
v 0.405874 0.111802 1.833113
v 0.512590 0.123632 1.813347
v 0.512590 0.107827 1.813347
v 0.437504 0.115730 1.920061
v 0.469093 0.163162 1.785681
v 0.500724 0.072253 1.757999
v 0.429597 0.072253 1.888429
v 0.409833 0.159207 1.904245
v 0.457247 0.092023 1.757999
v 0.512590 0.147348 1.761965
v 0.457247 0.151304 1.892379
v 0.405874 0.076218 1.852863
v 0.480970 0.092023 1.868663
v 0.405874 0.095969 1.916095
v 0.461185 0.131534 1.757999
v 0.512590 0.072253 1.761965
v 0.405874 0.151304 1.872613
v 0.484919 0.163162 1.813347
v 0.445391 0.068297 1.809397
v 0.469093 0.068297 1.844947
v 0.437504 0.135481 1.789631
v 0.441443 0.088067 1.908195
v 0.473052 0.123632 1.884479
v 0.504672 0.147348 1.813347
v 0.433545 0.163162 1.896329
v 0.429597 0.143393 1.920061
v 0.500724 0.151304 1.757999
v 0.417741 0.084111 1.817297
v 0.496765 0.080155 1.825197
v 0.405874 0.135481 1.920061
v 0.473052 0.076218 1.757999
v 0.445391 0.115730 1.769865
v 0.457247 0.163162 1.797531
v 0.409833 0.072253 1.872613
v 0.465145 0.076218 1.872613
v 0.417741 0.163162 1.876579
v 0.453299 0.111802 1.908195
v 0.496765 0.127588 1.844947
v 0.469093 0.151304 1.765915
v 0.445391 0.143393 1.912145
f 835 821 838 
f 800 801 808 
f 799 810 812 
f 804 807 813 
f 808 801 814 
f 804 808 814 
f 799 812 815 
f 804 814 817 
f 817 814 818 
f 799 815 819 
f 802 812 820 
f 812 805 820 
f 800 808 822 
f 808 816 822 
f 816 809 822 
f 816 803 823 
f 809 816 823 
f 823 806 824 
f 808 804 825 
f 804 813 825 
f 803 816 825 
f 816 808 825 
f 810 799 826 
f 817 810 826 
f 801 811 827 
f 814 801 827 
f 818 814 827 
f 812 802 828 
f 806 815 828 
f 815 812 828 
f 802 824 828 
f 824 806 828 
f 807 804 829 
f 804 817 829 
f 826 807 829 
f 817 826 829 
f 813 807 830 
f 799 819 830 
f 819 813 830 
f 826 799 830 
f 807 826 830 
f 819 815 831 
f 823 803 831 
f 805 812 832 
f 812 810 832 
f 810 817 832 
f 817 818 832 
f 818 805 832 
f 805 818 833 
f 811 820 833 
f 820 805 833 
f 827 811 833 
f 818 827 833 
f 815 806 834 
f 806 823 834 
f 831 815 834 
f 823 831 834 
f 802 820 835 
f 820 811 835 
f 811 821 835 
f 801 800 836 
f 811 801 836 
f 809 821 836 
f 821 811 836 
f 800 822 836 
f 822 809 836 
f 813 819 837 
f 803 825 837 
f 825 813 837 
f 831 803 837 
f 819 831 837 
f 821 809 838 
f 809 823 838 
f 824 802 838 
f 823 824 838 
f 802 835 838 
o convex_35
v 0.046173 0.115748 1.785710
v 0.121271 0.171049 1.924001
v 0.113350 0.167101 1.927966
v -0.032879 0.163160 1.761952
v 0.054065 0.178952 1.761952
v 0.073831 0.115748 1.904208
v 0.121271 0.115748 1.868636
v 0.061986 0.178952 1.900276
v -0.013112 0.127600 1.761952
v 0.117303 0.178952 1.864703
v 0.038296 0.131555 1.876566
v 0.061986 0.147340 1.765917
v 0.121271 0.111793 1.900276
v 0.058033 0.107831 1.860755
v 0.081723 0.143392 1.924001
v 0.121271 0.159198 1.856806
v 0.030375 0.178952 1.856806
v -0.028910 0.139451 1.765917
v 0.101490 0.107831 1.852824
v 0.042235 0.127600 1.761952
v 0.093598 0.127600 1.813352
v 0.089630 0.178952 1.924001
v 0.026421 0.178952 1.761952
v 0.109396 0.123652 1.920020
v 0.042235 0.159198 1.884448
v 0.081723 0.175004 1.793592
v 0.050126 0.115748 1.876566
v -0.028910 0.163160 1.773831
v 0.054065 0.107831 1.829164
v 0.089630 0.107831 1.896327
v 0.097551 0.143392 1.813352
v 0.121271 0.178952 1.920020
v 0.065940 0.143392 1.912155
f 846 863 871 
f 842 843 847 
f 843 846 848 
f 845 840 851 
f 840 845 854 
f 846 843 855 
f 842 847 856 
f 845 851 857 
f 839 847 858 
f 847 843 858 
f 843 850 858 
f 857 839 858 
f 857 858 859 
f 845 857 859 
f 858 850 859 
f 848 846 860 
f 853 841 860 
f 843 842 861 
f 842 855 861 
f 855 843 861 
f 840 841 862 
f 851 840 862 
f 841 853 862 
f 853 844 862 
f 846 855 863 
f 843 848 864 
f 850 843 864 
f 848 854 864 
f 844 849 865 
f 847 852 865 
f 852 844 865 
f 856 847 865 
f 849 856 865 
f 855 842 866 
f 842 856 866 
f 856 849 866 
f 849 863 866 
f 863 855 866 
f 847 839 867 
f 852 847 867 
f 839 857 867 
f 857 852 867 
f 844 852 868 
f 857 851 868 
f 852 857 868 
f 851 862 868 
f 862 844 868 
f 854 845 869 
f 845 859 869 
f 859 850 869 
f 850 864 869 
f 864 854 869 
f 841 840 870 
f 840 854 870 
f 854 848 870 
f 860 841 870 
f 848 860 870 
f 849 844 871 
f 844 853 871 
f 860 846 871 
f 853 860 871 
f 863 849 871 
o convex_36
v 0.220099 0.329170 1.362734
v 0.271475 0.309420 1.465498
v 0.255655 0.313373 1.465498
v 0.196381 0.289649 1.366694
v 0.271475 0.289649 1.358775
v 0.188468 0.289649 1.465498
v 0.271475 0.341025 1.358775
v 0.271475 0.289649 1.465498
v 0.216142 0.317311 1.445733
v 0.200330 0.297561 1.358775
v 0.188468 0.297561 1.422009
v 0.247757 0.341025 1.366694
v 0.196381 0.301514 1.465498
v 0.247757 0.321264 1.445733
f 883 880 885 
f 873 874 877 
f 875 876 877 
f 873 876 878 
f 876 873 879 
f 873 877 879 
f 877 876 879 
f 876 875 881 
f 872 878 881 
f 878 876 881 
f 875 877 882 
f 881 875 882 
f 872 881 882 
f 878 872 883 
f 872 880 883 
f 877 874 884 
f 880 872 884 
f 874 880 884 
f 882 877 884 
f 872 882 884 
f 874 873 885 
f 873 878 885 
f 880 874 885 
f 878 883 885 
o convex_37
v 0.374242 0.352848 1.390392
v 0.271475 0.218536 1.402248
v 0.338654 0.175050 1.358780
v 0.271475 0.337058 1.358780
v 0.307052 0.475427 1.406203
v 0.370288 0.250174 1.406203
v 0.362379 0.313389 1.358780
v 0.378196 0.234355 1.358780
v 0.271475 0.242264 1.358780
v 0.271475 0.325239 1.406203
v 0.334699 0.467488 1.402248
v 0.382151 0.337058 1.406203
v 0.354482 0.175050 1.362735
v 0.322880 0.459579 1.394347
v 0.354482 0.230386 1.406203
v 0.271475 0.218536 1.406203
v 0.295200 0.455610 1.406203
v 0.346573 0.329149 1.358780
v 0.374242 0.214596 1.370635
v 0.382151 0.301540 1.406203
v 0.311017 0.471428 1.398298
v 0.374242 0.277812 1.358780
v 0.342608 0.451670 1.406203
f 897 886 908 
f 888 889 892 
f 888 892 893 
f 888 887 894 
f 889 888 894 
f 887 889 894 
f 889 887 895 
f 891 890 895 
f 886 892 896 
f 890 891 897 
f 888 893 898 
f 896 892 899 
f 891 895 900 
f 898 891 900 
f 898 900 901 
f 887 888 901 
f 895 887 901 
f 888 898 901 
f 900 895 901 
f 889 895 902 
f 895 890 902 
f 892 889 903 
f 889 899 903 
f 899 892 903 
f 891 898 904 
f 898 893 904 
f 897 891 905 
f 893 897 905 
f 891 904 905 
f 904 893 905 
f 890 896 906 
f 899 889 906 
f 896 899 906 
f 889 902 906 
f 902 890 906 
f 892 886 907 
f 893 892 907 
f 886 897 907 
f 897 893 907 
f 896 890 908 
f 886 896 908 
f 890 897 908 
o convex_38
v 0.338670 0.475403 1.414121
v 0.271475 0.194784 1.449679
v 0.271475 0.194784 1.461546
v 0.390056 0.242227 1.429931
v 0.346563 0.475403 1.461546
v 0.271475 0.325230 1.406213
v 0.275433 0.455619 1.461546
v 0.390056 0.265934 1.461546
v 0.358414 0.238276 1.406213
v 0.382128 0.344957 1.406213
v 0.295200 0.467501 1.406213
v 0.271475 0.218520 1.406213
v 0.299147 0.487285 1.461546
v 0.271475 0.427960 1.449679
v 0.354479 0.459598 1.461546
v 0.322861 0.479354 1.406213
v 0.279402 0.459598 1.429931
v 0.378193 0.364742 1.433879
v 0.330765 0.487285 1.453632
v 0.378193 0.281767 1.406213
v 0.350521 0.455619 1.422023
v 0.390056 0.277816 1.461546
v 0.291254 0.479354 1.433879
v 0.342616 0.459598 1.406213
f 929 918 932 
f 911 910 912 
f 910 911 914 
f 911 913 915 
f 911 912 916 
f 913 911 916 
f 912 910 917 
f 917 914 918 
f 918 914 919 
f 910 914 920 
f 917 910 920 
f 914 917 920 
f 915 913 921 
f 914 911 922 
f 911 915 922 
f 913 916 923 
f 918 919 924 
f 919 914 925 
f 914 922 925 
f 922 915 925 
f 918 923 926 
f 913 909 927 
f 921 913 927 
f 909 924 927 
f 924 921 927 
f 912 917 928 
f 917 918 928 
f 918 912 928 
f 909 913 929 
f 913 923 929 
f 923 918 929 
f 916 912 930 
f 912 918 930 
f 923 916 930 
f 918 926 930 
f 926 923 930 
f 915 921 931 
f 924 919 931 
f 921 924 931 
f 919 925 931 
f 925 915 931 
f 924 909 932 
f 918 924 932 
f 909 929 932 
o convex_39
v 0.231944 0.313356 1.912151
v 0.156846 0.317310 1.856817
v 0.156846 0.325212 1.856817
v 0.267522 0.348933 1.856817
v 0.267522 0.281755 1.935858
v 0.160800 0.273838 1.935858
v 0.192423 0.337069 1.868689
v 0.267522 0.337069 1.860777
v 0.267522 0.285710 1.943770
v 0.160800 0.277800 1.916103
v 0.192423 0.277800 1.947730
v 0.156846 0.289657 1.920054
v 0.263568 0.344978 1.868689
v 0.267522 0.285710 1.927965
v 0.231944 0.348933 1.860777
v 0.208240 0.325212 1.892396
v 0.220082 0.273838 1.947730
f 941 943 949 
f 934 935 936 
f 934 936 940 
f 936 937 940 
f 937 936 941 
f 941 933 943 
f 935 934 944 
f 939 935 944 
f 934 942 944 
f 942 938 944 
f 938 943 944 
f 933 941 945 
f 941 936 945 
f 934 940 946 
f 940 937 946 
f 942 934 946 
f 937 942 946 
f 936 935 947 
f 935 939 947 
f 945 936 947 
f 933 945 947 
f 943 933 948 
f 939 944 948 
f 944 943 948 
f 947 939 948 
f 933 947 948 
f 937 941 949 
f 942 937 949 
f 938 942 949 
f 943 938 949 
o convex_40
v 0.160818 0.151313 1.742235
v 0.390056 0.151278 1.975355
v 0.378186 0.155248 1.979310
v 0.334721 0.238264 1.714547
v 0.156846 0.238264 1.916079
v 0.322851 0.060392 1.904213
v 0.156846 0.092028 1.959561
v 0.358417 0.143408 1.722458
v 0.370287 0.238264 1.872597
v 0.192435 0.238264 1.714547
v 0.247769 0.194771 1.999087
v 0.220102 0.127616 1.714547
v 0.386084 0.080171 1.955605
v 0.156846 0.084123 1.880508
v 0.283313 0.095980 1.999087
v 0.390056 0.167105 1.805466
v 0.386084 0.076219 1.868642
v 0.156846 0.167087 1.987221
v 0.318901 0.123646 1.714547
v 0.156846 0.190801 1.726414
v 0.326800 0.234294 1.920034
v 0.307031 0.076219 1.837082
v 0.390056 0.222437 1.864686
v 0.366315 0.190819 1.718503
v 0.390056 0.194771 1.939784
v 0.291234 0.190801 1.999087
v 0.243820 0.095980 1.999087
v 0.362366 0.064362 1.939784
v 0.184536 0.076219 1.931873
v 0.243820 0.238247 1.931873
v 0.156846 0.238264 1.833127
v 0.390056 0.123664 1.813377
v 0.362366 0.119694 1.987221
v 0.196384 0.135503 1.714547
v 0.188485 0.080171 1.868642
v 0.164767 0.139456 1.991176
v 0.156846 0.222437 1.943739
v 0.390056 0.072266 1.935828
v 0.366315 0.064362 1.884463
v 0.168716 0.218485 1.718503
v 0.318901 0.068314 1.951650
v 0.283313 0.092028 1.793600
v 0.318901 0.159200 1.999087
v 0.358417 0.214515 1.722458
v 0.362366 0.163135 1.714547
v 0.164767 0.182914 1.714547
v 0.208231 0.159200 1.999087
v 0.200333 0.238264 1.931873
v 0.156846 0.190801 1.975355
v 0.176615 0.076219 1.904213
v 0.314929 0.064362 1.876553
v 0.386084 0.099932 1.971399
v 0.156846 0.092028 1.856831
v 0.212204 0.092028 1.817333
v 0.156846 0.115742 1.979310
v 0.196384 0.080171 1.951650
v 0.362366 0.214515 1.931873
v 0.354467 0.068314 1.864686
v 0.279363 0.194771 1.999087
v 0.350518 0.127599 1.734324
v 0.390056 0.088076 1.852904
v 0.307031 0.064362 1.935828
v 0.370287 0.238264 1.841037
v 0.390056 0.167105 1.967444
f 974 975 1013 
f 953 954 958 
f 954 953 959 
f 959 953 961 
f 956 954 963 
f 954 956 967 
f 961 953 968 
f 963 954 969 
f 951 965 972 
f 972 965 973 
f 951 972 974 
f 972 958 974 
f 960 964 975 
f 964 960 976 
f 962 964 977 
f 970 958 979 
f 954 959 980 
f 969 954 980 
f 965 951 981 
f 973 965 981 
f 951 952 982 
f 959 961 983 
f 954 967 986 
f 962 977 987 
f 981 951 987 
f 977 955 988 
f 987 977 988 
f 966 987 988 
f 980 959 989 
f 969 980 989 
f 964 976 990 
f 977 964 990 
f 961 968 991 
f 968 971 991 
f 952 975 992 
f 975 964 992 
f 982 952 992 
f 964 982 992 
f 972 973 993 
f 973 953 993 
f 968 953 994 
f 957 968 994 
f 953 973 994 
f 981 957 994 
f 973 981 994 
f 950 969 995 
f 959 983 995 
f 983 950 995 
f 989 959 995 
f 969 989 995 
f 960 967 996 
f 976 960 996 
f 967 985 996 
f 985 976 996 
f 958 954 997 
f 979 958 997 
f 954 986 997 
f 986 960 997 
f 967 960 998 
f 986 967 998 
f 960 986 998 
f 956 963 999 
f 955 978 999 
f 978 956 999 
f 963 984 999 
f 999 984 1000 
f 984 971 1000 
f 988 955 1000 
f 955 999 1000 
f 964 962 1001 
f 951 982 1001 
f 982 964 1001 
f 987 951 1001 
f 962 987 1001 
f 969 950 1002 
f 963 969 1002 
f 983 961 1002 
f 950 983 1002 
f 984 963 1002 
f 984 1002 1003 
f 971 984 1003 
f 961 991 1003 
f 991 971 1003 
f 1002 961 1003 
f 967 956 1004 
f 956 976 1004 
f 985 967 1004 
f 976 985 1004 
f 976 956 1005 
f 956 978 1005 
f 990 976 1005 
f 958 970 1006 
f 974 958 1006 
f 975 974 1006 
f 968 966 1007 
f 971 968 1007 
f 966 988 1007 
f 1000 971 1007 
f 988 1000 1007 
f 960 975 1008 
f 970 979 1008 
f 979 997 1008 
f 997 960 1008 
f 1006 970 1008 
f 975 1006 1008 
f 968 957 1009 
f 966 968 1009 
f 957 981 1010 
f 987 966 1010 
f 981 987 1010 
f 1009 957 1010 
f 966 1009 1010 
f 955 977 1011 
f 978 955 1011 
f 977 990 1011 
f 1005 978 1011 
f 990 1005 1011 
f 953 958 1012 
f 958 972 1012 
f 993 953 1012 
f 972 993 1012 
f 952 951 1013 
f 951 974 1013 
f 975 952 1013 
o convex_41
v 0.524445 0.190831 1.821283
v 0.532354 0.123644 1.920045
v 0.532354 0.119697 1.920045
v 0.453300 0.190831 1.935849
v 0.528384 0.186877 1.765938
v 0.520491 0.115734 1.924005
v 0.480979 0.190831 1.912127
v 0.453300 0.186877 1.927930
v 0.532354 0.190831 1.765938
v 0.500735 0.151306 1.935865
v 0.532354 0.143396 1.892398
v 0.512575 0.186877 1.860741
f 1024 1014 1025 
f 1018 1016 1019 
f 1014 1017 1020 
f 1017 1018 1021 
f 1018 1019 1021 
f 1019 1017 1021 
f 1015 1016 1022 
f 1017 1014 1022 
f 1018 1017 1022 
f 1016 1018 1022 
f 1016 1015 1023 
f 1019 1016 1023 
f 1017 1019 1023 
f 1020 1017 1023 
f 1020 1023 1024 
f 1015 1022 1024 
f 1022 1014 1024 
f 1023 1015 1024 
f 1014 1020 1025 
f 1020 1024 1025 
o convex_42
v 0.397968 0.352884 1.639427
v 0.457249 0.277799 1.580127
v 0.437477 0.293614 1.580127
v 0.457249 0.289661 1.702661
v 0.390056 0.348930 1.702661
v 0.461205 0.297568 1.631535
v 0.390056 0.341022 1.580127
v 0.433535 0.325215 1.702661
v 0.437477 0.309422 1.580127
v 0.390056 0.333122 1.588043
v 0.394012 0.356846 1.702661
v 0.461205 0.297568 1.702661
v 0.433535 0.325215 1.643361
v 0.461205 0.285707 1.580127
v 0.401923 0.344976 1.607798
f 1026 1038 1040 
f 1028 1027 1029 
f 1027 1028 1032 
f 1030 1029 1033 
f 1027 1032 1034 
f 1028 1029 1035 
f 1029 1030 1035 
f 1032 1028 1035 
f 1030 1032 1035 
f 1026 1032 1036 
f 1032 1030 1036 
f 1030 1033 1036 
f 1029 1027 1037 
f 1033 1029 1037 
f 1031 1033 1037 
f 1033 1031 1038 
f 1031 1034 1038 
f 1026 1036 1038 
f 1036 1033 1038 
f 1027 1034 1039 
f 1034 1031 1039 
f 1037 1027 1039 
f 1031 1037 1039 
f 1032 1026 1040 
f 1034 1032 1040 
f 1038 1034 1040 
o convex_43
v 0.465161 0.293602 1.635481
v 0.528398 0.194784 1.580127
v 0.532354 0.194784 1.580127
v 0.528398 0.202706 1.702661
v 0.461205 0.273831 1.595948
v 0.461205 0.285690 1.702661
v 0.528398 0.218512 1.690787
v 0.508626 0.234327 1.580127
v 0.473072 0.285690 1.702661
v 0.532354 0.210609 1.611768
v 0.461205 0.281733 1.580127
v 0.516538 0.214555 1.702661
v 0.500728 0.254059 1.643361
v 0.532354 0.210609 1.702661
v 0.516538 0.206653 1.580127
v 0.465161 0.277787 1.702661
v 0.477028 0.273831 1.592002
f 1053 1048 1057 
f 1042 1043 1044 
f 1043 1042 1048 
f 1041 1046 1049 
f 1046 1044 1049 
f 1043 1048 1050 
f 1046 1041 1051 
f 1045 1046 1051 
f 1048 1042 1051 
f 1042 1044 1052 
f 1044 1046 1052 
f 1041 1049 1053 
f 1049 1047 1053 
f 1047 1050 1053 
f 1050 1048 1053 
f 1044 1043 1054 
f 1049 1044 1054 
f 1047 1049 1054 
f 1043 1050 1054 
f 1050 1047 1054 
f 1051 1042 1055 
f 1045 1051 1055 
f 1042 1052 1055 
f 1052 1045 1055 
f 1046 1045 1056 
f 1045 1052 1056 
f 1052 1046 1056 
f 1051 1041 1057 
f 1048 1051 1057 
f 1041 1053 1057 
o convex_44
v 0.421678 0.325211 1.761964
v 0.449344 0.258028 1.825173
v 0.453300 0.258028 1.825173
v 0.449344 0.297567 1.702661
v 0.390056 0.309397 1.825173
v 0.390056 0.352893 1.702661
v 0.394012 0.317309 1.833088
v 0.453300 0.285709 1.793562
v 0.453300 0.305460 1.710590
v 0.394012 0.352893 1.734298
v 0.390056 0.344981 1.710590
v 0.441438 0.281753 1.829130
v 0.449344 0.293611 1.706632
v 0.394012 0.333123 1.801465
v 0.409829 0.344981 1.702661
f 1067 1058 1072 
f 1062 1059 1064 
f 1065 1060 1066 
f 1058 1065 1066 
f 1063 1061 1068 
f 1062 1063 1068 
f 1059 1060 1069 
f 1064 1059 1069 
f 1060 1065 1069 
f 1065 1058 1069 
f 1060 1059 1070 
f 1059 1062 1070 
f 1066 1060 1070 
f 1061 1066 1070 
f 1068 1061 1070 
f 1062 1068 1070 
f 1063 1062 1071 
f 1062 1064 1071 
f 1067 1063 1071 
f 1058 1067 1071 
f 1069 1058 1071 
f 1064 1069 1071 
f 1061 1063 1072 
f 1066 1061 1072 
f 1058 1066 1072 
f 1063 1067 1072 
o convex_45
v 0.461208 0.281736 1.781701
v 0.528392 0.190831 1.750103
v 0.528392 0.198740 1.706632
v 0.453300 0.254056 1.825173
v 0.453300 0.293599 1.702661
v 0.528392 0.206648 1.761964
v 0.516537 0.194786 1.833088
v 0.492827 0.261965 1.702661
v 0.508628 0.190831 1.821228
v 0.457254 0.265930 1.829130
v 0.532354 0.210603 1.702661
v 0.457254 0.301508 1.710590
v 0.484934 0.258011 1.773799
v 0.457254 0.285690 1.702661
v 0.461208 0.242226 1.829130
v 0.532354 0.190831 1.781701
v 0.453300 0.289645 1.769841
v 0.488888 0.242226 1.805410
v 0.500720 0.250102 1.726395
f 1084 1085 1091 
f 1075 1074 1081 
f 1077 1080 1083 
f 1080 1077 1084 
f 1084 1073 1085 
f 1076 1077 1086 
f 1083 1075 1086 
f 1077 1083 1086 
f 1075 1081 1087 
f 1081 1079 1087 
f 1082 1076 1087 
f 1079 1082 1087 
f 1086 1075 1087 
f 1076 1086 1087 
f 1074 1075 1088 
f 1078 1079 1088 
f 1081 1074 1088 
f 1079 1081 1088 
f 1075 1083 1088 
f 1083 1078 1088 
f 1077 1076 1089 
f 1082 1073 1089 
f 1076 1082 1089 
f 1073 1084 1089 
f 1084 1077 1089 
f 1079 1078 1090 
f 1073 1082 1090 
f 1082 1079 1090 
f 1078 1085 1090 
f 1085 1073 1090 
f 1078 1083 1091 
f 1083 1080 1091 
f 1080 1084 1091 
f 1085 1078 1091 
o convex_46
v 0.544209 0.111779 1.761960
v 0.512596 0.072250 1.757999
v 0.520501 0.072250 1.757999
v 0.528403 0.143398 1.872628
v 0.512596 0.143398 1.757999
v 0.516549 0.163162 1.872628
v 0.532352 0.163162 1.837048
v 0.540257 0.084112 1.757999
v 0.532352 0.143398 1.872628
v 0.512596 0.088072 1.789630
f 1100 1095 1101 
f 1094 1093 1096 
f 1092 1096 1098 
f 1096 1097 1098 
f 1096 1092 1099 
f 1094 1096 1099 
f 1097 1095 1100 
f 1092 1098 1100 
f 1098 1097 1100 
f 1094 1099 1100 
f 1099 1092 1100 
f 1093 1094 1101 
f 1096 1093 1101 
f 1097 1096 1101 
f 1095 1097 1101 
f 1094 1100 1101 
o convex_47
v -0.021018 0.194777 1.793583
v 0.026400 0.171076 1.848898
v 0.022443 0.218490 1.856808
v 0.026400 0.198731 1.761961
v -0.024970 0.163162 1.856808
v -0.032879 0.163162 1.761961
v 0.026400 0.163162 1.761961
v -0.001266 0.218490 1.761961
v 0.002685 0.214541 1.833087
v 0.026400 0.163162 1.848898
v -0.024970 0.175029 1.852853
v -0.028921 0.186886 1.761961
f 1112 1102 1113 
f 1104 1103 1105 
f 1105 1103 1108 
f 1106 1107 1108 
f 1107 1105 1108 
f 1104 1105 1109 
f 1105 1107 1109 
f 1109 1102 1110 
f 1104 1109 1110 
f 1103 1104 1111 
f 1104 1106 1111 
f 1108 1103 1111 
f 1106 1108 1111 
f 1106 1104 1112 
f 1107 1106 1112 
f 1110 1102 1112 
f 1104 1110 1112 
f 1102 1109 1113 
f 1109 1107 1113 
f 1107 1112 1113 
o convex_48
v 0.034325 0.198737 1.761952
v 0.121271 0.182928 1.916087
v 0.121271 0.178973 1.916087
v 0.026424 0.182928 1.927966
v 0.065950 0.218500 1.927966
v 0.026414 0.178977 1.761952
v 0.026424 0.218500 1.884480
v 0.073834 0.202683 1.805454
v 0.081726 0.178977 1.797540
v 0.113351 0.194790 1.880531
v 0.046182 0.206638 1.781745
v 0.097548 0.178973 1.924001
v 0.026414 0.202683 1.769882
v 0.117307 0.182928 1.868668
v 0.026414 0.178977 1.848892
v 0.050138 0.186882 1.761952
v 0.038290 0.206638 1.927966
v 0.073834 0.206638 1.821234
v 0.030379 0.218500 1.864720
f 1118 1131 1132 
f 1116 1119 1122 
f 1118 1115 1123 
f 1116 1115 1125 
f 1118 1117 1125 
f 1115 1118 1125 
f 1119 1116 1125 
f 1114 1119 1126 
f 1124 1114 1126 
f 1115 1116 1127 
f 1116 1122 1127 
f 1122 1121 1127 
f 1121 1123 1127 
f 1123 1115 1127 
f 1117 1120 1128 
f 1125 1117 1128 
f 1119 1125 1128 
f 1126 1119 1128 
f 1120 1126 1128 
f 1119 1114 1129 
f 1122 1119 1129 
f 1121 1122 1129 
f 1114 1124 1129 
f 1124 1121 1129 
f 1117 1118 1130 
f 1120 1117 1130 
f 1118 1120 1130 
f 1123 1121 1131 
f 1118 1123 1131 
f 1121 1124 1131 
f 1131 1124 1132 
f 1120 1118 1132 
f 1126 1120 1132 
f 1124 1126 1132 
o convex_49
v 0.156846 0.301508 1.516874
v 0.184519 0.289649 1.465498
v 0.184519 0.293602 1.465498
v 0.263569 0.289649 1.501066
v 0.263569 0.305460 1.465498
v 0.263569 0.289649 1.465498
v 0.156846 0.289649 1.497113
v 0.160805 0.305460 1.497113
v 0.247753 0.305460 1.489222
v 0.247753 0.289649 1.512926
v 0.204295 0.305460 1.465498
v 0.160805 0.305460 1.516874
f 1142 1141 1144 
f 1134 1135 1137 
f 1134 1137 1138 
f 1136 1134 1138 
f 1137 1136 1138 
f 1135 1134 1139 
f 1134 1136 1139 
f 1139 1133 1140 
f 1135 1139 1140 
f 1136 1137 1141 
f 1137 1140 1141 
f 1133 1139 1142 
f 1139 1136 1142 
f 1136 1141 1142 
f 1137 1135 1143 
f 1140 1137 1143 
f 1135 1140 1143 
f 1140 1133 1144 
f 1141 1140 1144 
f 1133 1142 1144 
o convex_50
v 0.156846 0.313375 1.512928
v 0.271475 0.380562 1.591973
v 0.231933 0.380562 1.591973
v 0.231933 0.313375 1.465525
v 0.160807 0.341044 1.591973
v 0.259592 0.305466 1.473424
v 0.196387 0.360788 1.564316
v 0.263564 0.356833 1.528737
v 0.160807 0.305466 1.520838
v 0.160807 0.352879 1.588024
v 0.271475 0.376600 1.591973
v 0.263564 0.313375 1.465525
v 0.212185 0.341029 1.516877
v 0.216113 0.305466 1.465525
v 0.239844 0.372645 1.564316
v 0.271475 0.376600 1.568253
v 0.172667 0.309420 1.493182
f 1158 1153 1161 
f 1146 1147 1149 
f 1149 1145 1153 
f 1150 1149 1153 
f 1145 1149 1154 
f 1149 1147 1154 
f 1147 1151 1154 
f 1151 1145 1154 
f 1146 1149 1155 
f 1149 1150 1155 
f 1155 1150 1156 
f 1148 1152 1156 
f 1152 1148 1157 
f 1150 1153 1158 
f 1156 1150 1158 
f 1148 1156 1158 
f 1151 1147 1159 
f 1157 1151 1159 
f 1152 1157 1159 
f 1147 1146 1160 
f 1146 1155 1160 
f 1155 1156 1160 
f 1156 1152 1160 
f 1159 1147 1160 
f 1152 1159 1160 
f 1145 1151 1161 
f 1153 1145 1161 
f 1157 1148 1161 
f 1151 1157 1161 
f 1148 1158 1161 
o convex_51
v 0.378196 0.273804 1.552463
v 0.271475 0.123667 1.588026
v 0.271475 0.123667 1.591981
v 0.279383 0.317298 1.548512
v 0.330745 0.111817 1.544557
v 0.354482 0.182953 1.591981
v 0.318926 0.281710 1.580120
v 0.271475 0.147385 1.544557
v 0.358425 0.123667 1.580120
v 0.271475 0.222424 1.591981
v 0.370288 0.317298 1.544557
v 0.374242 0.159234 1.544557
v 0.346573 0.313335 1.568269
v 0.271475 0.297523 1.544557
v 0.299154 0.317298 1.564319
v 0.370288 0.178990 1.576170
v 0.350517 0.127610 1.591981
v 0.342608 0.242199 1.588026
v 0.366334 0.261955 1.572219
v 0.346573 0.111817 1.560368
v 0.382151 0.234293 1.544557
v 0.358425 0.119703 1.544557
v 0.295200 0.127610 1.544557
f 1169 1166 1184 
f 1164 1163 1166 
f 1163 1164 1169 
f 1164 1167 1171 
f 1169 1164 1171 
f 1166 1169 1172 
f 1166 1172 1173 
f 1171 1165 1175 
f 1169 1171 1175 
f 1165 1172 1175 
f 1172 1169 1175 
f 1165 1171 1176 
f 1171 1168 1176 
f 1172 1165 1176 
f 1168 1174 1176 
f 1174 1172 1176 
f 1170 1173 1177 
f 1167 1164 1178 
f 1177 1167 1178 
f 1170 1177 1178 
f 1171 1167 1179 
f 1168 1171 1179 
f 1174 1168 1179 
f 1174 1179 1180 
f 1162 1172 1180 
f 1172 1174 1180 
f 1177 1162 1180 
f 1167 1177 1180 
f 1179 1167 1180 
f 1164 1166 1181 
f 1178 1164 1181 
f 1170 1178 1181 
f 1172 1162 1182 
f 1173 1172 1182 
f 1162 1177 1182 
f 1177 1173 1182 
f 1173 1170 1183 
f 1166 1173 1183 
f 1181 1166 1183 
f 1170 1181 1183 
f 1166 1163 1184 
f 1163 1169 1184 
o convex_52
v 0.366330 0.317318 1.552463
v 0.311009 0.380562 1.591981
v 0.326830 0.376606 1.591981
v 0.334700 0.364745 1.544557
v 0.283337 0.317318 1.548512
v 0.390056 0.337091 1.591981
v 0.271475 0.376606 1.591981
v 0.271475 0.364745 1.544557
v 0.390056 0.329180 1.544557
v 0.303116 0.317318 1.564319
v 0.386098 0.348940 1.584075
v 0.271475 0.380562 1.580120
v 0.283337 0.317318 1.544557
v 0.390056 0.321274 1.544557
f 1185 1197 1198 
f 1186 1187 1188 
f 1187 1186 1190 
f 1190 1186 1191 
f 1189 1191 1192 
f 1192 1188 1193 
f 1189 1185 1194 
f 1185 1190 1194 
f 1191 1189 1194 
f 1190 1191 1194 
f 1188 1187 1195 
f 1187 1190 1195 
f 1193 1188 1195 
f 1190 1193 1195 
f 1186 1188 1196 
f 1191 1186 1196 
f 1188 1192 1196 
f 1192 1191 1196 
f 1185 1189 1197 
f 1189 1192 1197 
f 1192 1193 1197 
f 1197 1193 1198 
f 1190 1185 1198 
f 1193 1190 1198 
o convex_53
v 0.247774 0.265928 1.872610
v 0.196395 0.238268 1.714536
v 0.184545 0.238268 1.730355
v 0.358405 0.238268 1.880511
v 0.291219 0.269880 1.714536
v 0.156866 0.238268 1.884470
v 0.330748 0.238268 1.714536
v 0.188502 0.265928 1.852848
v 0.251731 0.273838 1.718495
v 0.334684 0.258024 1.852848
v 0.366319 0.242223 1.844947
v 0.263561 0.269880 1.840988
v 0.224053 0.265928 1.714536
v 0.156866 0.250127 1.860750
v 0.204309 0.261976 1.884470
v 0.314940 0.254079 1.884470
v 0.208245 0.269880 1.856791
v 0.303069 0.265928 1.714536
v 0.291219 0.269880 1.781721
v 0.184545 0.242223 1.730355
v 0.164780 0.254079 1.880511
v 0.354448 0.242223 1.884470
v 0.156866 0.238268 1.840988
v 0.318877 0.261976 1.852848
v 0.314940 0.258024 1.714536
v 0.267518 0.273838 1.734297
f 1210 1217 1224 
f 1201 1200 1202 
f 1201 1202 1204 
f 1202 1200 1205 
f 1200 1203 1205 
f 1202 1205 1209 
f 1203 1200 1211 
f 1207 1203 1211 
f 1206 1207 1211 
f 1206 1211 1212 
f 1199 1213 1214 
f 1213 1204 1214 
f 1207 1206 1215 
f 1199 1210 1215 
f 1213 1199 1215 
f 1205 1203 1216 
f 1203 1208 1216 
f 1208 1209 1216 
f 1208 1203 1217 
f 1200 1201 1218 
f 1211 1200 1218 
f 1212 1211 1218 
f 1212 1204 1219 
f 1206 1212 1219 
f 1204 1213 1219 
f 1215 1206 1219 
f 1213 1215 1219 
f 1204 1202 1220 
f 1202 1209 1220 
f 1209 1208 1220 
f 1214 1204 1220 
f 1208 1214 1220 
f 1201 1204 1221 
f 1204 1212 1221 
f 1218 1201 1221 
f 1212 1218 1221 
f 1210 1199 1222 
f 1199 1214 1222 
f 1214 1208 1222 
f 1208 1217 1222 
f 1217 1210 1222 
f 1209 1205 1223 
f 1205 1216 1223 
f 1216 1209 1223 
f 1203 1207 1224 
f 1207 1215 1224 
f 1215 1210 1224 
f 1217 1203 1224 
o convex_54
v 0.172657 0.364758 1.603864
v 0.220089 0.388462 1.742174
v 0.220089 0.384509 1.742174
v 0.156846 0.360805 1.742174
v 0.160808 0.341045 1.595955
v 0.220089 0.368696 1.591985
v 0.208228 0.392420 1.671019
v 0.156846 0.368696 1.659200
v 0.172657 0.376603 1.742174
v 0.220089 0.384509 1.611773
v 0.156846 0.348946 1.591985
v 0.164751 0.360805 1.742174
v 0.192411 0.380556 1.627577
v 0.212184 0.376603 1.591985
v 0.216127 0.392420 1.734265
v 0.184524 0.384509 1.710551
f 1239 1231 1240 
f 1227 1226 1228 
f 1227 1229 1230 
f 1226 1227 1230 
f 1228 1226 1233 
f 1232 1228 1233 
f 1226 1230 1234 
f 1229 1228 1235 
f 1230 1229 1235 
f 1228 1232 1235 
f 1232 1225 1235 
f 1227 1228 1236 
f 1228 1229 1236 
f 1229 1227 1236 
f 1232 1231 1237 
f 1225 1232 1237 
f 1231 1234 1237 
f 1237 1234 1238 
f 1234 1230 1238 
f 1230 1235 1238 
f 1235 1225 1238 
f 1225 1237 1238 
f 1233 1226 1239 
f 1226 1234 1239 
f 1234 1231 1239 
f 1231 1232 1240 
f 1232 1233 1240 
f 1233 1239 1240 
o convex_55
v 0.220089 0.380564 1.595955
v 0.291238 0.392418 1.742174
v 0.291238 0.388464 1.742174
v 0.291238 0.376613 1.591985
v 0.275415 0.400323 1.667080
v 0.220089 0.384518 1.742174
v 0.224045 0.396369 1.714506
v 0.224045 0.372659 1.603864
v 0.291238 0.392418 1.619668
v 0.220089 0.392418 1.643381
v 0.251715 0.396369 1.742174
v 0.251715 0.388464 1.603864
v 0.283327 0.400323 1.698687
v 0.247759 0.400323 1.678929
v 0.255664 0.396369 1.635486
v 0.291238 0.384518 1.591985
f 1252 1249 1256 
f 1242 1243 1244 
f 1243 1242 1246 
f 1244 1243 1248 
f 1241 1244 1248 
f 1243 1246 1248 
f 1246 1241 1248 
f 1242 1244 1249 
f 1241 1246 1250 
f 1246 1247 1250 
f 1246 1242 1251 
f 1247 1246 1251 
f 1241 1250 1252 
f 1242 1249 1253 
f 1249 1245 1253 
f 1251 1242 1253 
f 1251 1253 1254 
f 1250 1247 1254 
f 1247 1251 1254 
f 1253 1245 1254 
f 1245 1249 1255 
f 1249 1252 1255 
f 1252 1250 1255 
f 1250 1254 1255 
f 1254 1245 1255 
f 1244 1241 1256 
f 1249 1244 1256 
f 1241 1252 1256 
o convex_56
v 0.307071 0.392413 1.631511
v 0.390056 0.352903 1.742189
v 0.386081 0.356852 1.742189
v 0.295213 0.384504 1.742189
v 0.382125 0.341035 1.592007
v 0.291248 0.376601 1.592007
v 0.354463 0.380550 1.663136
v 0.386081 0.345000 1.742189
v 0.390056 0.348949 1.592007
v 0.295213 0.396373 1.726354
v 0.342615 0.372647 1.592007
v 0.330787 0.384504 1.742189
v 0.382125 0.364760 1.651271
v 0.334742 0.388459 1.702655
v 0.291248 0.396367 1.647316
v 0.374233 0.368709 1.714505
v 0.307071 0.396373 1.663136
v 0.346561 0.380556 1.631511
v 0.303115 0.384504 1.595962
v 0.291248 0.392413 1.742189
v 0.390056 0.341035 1.607812
f 1261 1265 1277 
f 1258 1259 1260 
f 1258 1260 1264 
f 1260 1262 1264 
f 1262 1261 1264 
f 1261 1262 1265 
f 1265 1262 1267 
f 1260 1259 1268 
f 1259 1258 1269 
f 1258 1265 1269 
f 1266 1268 1270 
f 1268 1259 1272 
f 1259 1269 1272 
f 1269 1263 1272 
f 1263 1270 1272 
f 1270 1268 1272 
f 1270 1263 1273 
f 1266 1270 1273 
f 1257 1271 1273 
f 1271 1266 1273 
f 1267 1257 1274 
f 1265 1267 1274 
f 1263 1269 1274 
f 1269 1265 1274 
f 1257 1273 1274 
f 1273 1263 1274 
f 1257 1267 1275 
f 1267 1262 1275 
f 1271 1257 1275 
f 1262 1271 1275 
f 1262 1260 1276 
f 1260 1268 1276 
f 1268 1266 1276 
f 1271 1262 1276 
f 1266 1271 1276 
f 1258 1264 1277 
f 1264 1261 1277 
f 1265 1258 1277 
