# vtk DataFile Version 2.0
rectangle, Created by Gmsh 4.15.0 
ASCII
DATASET UNSTRUCTURED_GRID
POINTS 587 double
-0.025 -0.0025 -0.0005
0.025 -0.0025 -0.0005
0.025 0.0025 -0.0005
-0.025 0.0025 -0.0005
-0.025 -0.0025 0.0005
0.025 -0.0025 0.0005
0.025 0.0025 0.0005
-0.025 0.0025 0.0005
-0.0237500000000022 -0.0025 -0.0005
-0.02250000000000576 -0.0025 -0.0005
-0.02125000000000932 -0.0025 -0.0005
-0.02000000000001098 -0.0025 -0.0005
-0.01875000000001304 -0.0025 -0.0005
-0.01750000000001592 -0.0025 -0.0005
-0.01625000000001948 -0.0025 -0.0005
-0.01500000000002304 -0.0025 -0.0005
-0.0137500000000266 -0.0025 -0.0005
-0.01250000000003015 -0.0025 -0.0005
-0.01125000000003371 -0.0025 -0.0005
-0.01000000000003727 -0.0025 -0.0005
-0.008750000000040826 -0.0025 -0.0005
-0.007500000000044384 -0.0025 -0.0005
-0.006250000000048616 -0.0025 -0.0005
-0.005000000000052851 -0.0025 -0.0005
-0.00375000000005641 -0.0025 -0.0005
-0.002500000000059965 -0.0025 -0.0005
-0.00125000000006352 -0.0025 -0.0005
-6.639827576648827e-14 -0.0025 -0.0005
0.001249999999936545 -0.0025 -0.0005
0.002499999999939495 -0.0025 -0.0005
0.003749999999943125 -0.0025 -0.0005
0.004999999999946613 -0.0025 -0.0005
0.006249999999949695 -0.0025 -0.0005
0.007499999999953863 -0.0025 -0.0005
0.008749999999956543 -0.0025 -0.0005
0.009999999999959479 -0.0025 -0.0005
0.01124999999996405 -0.0025 -0.0005
0.01249999999996645 -0.0025 -0.0005
0.01374999999996886 -0.0025 -0.0005
0.01499999999997342 -0.0025 -0.0005
0.01624999999997637 -0.0025 -0.0005
0.01749999999997905 -0.0025 -0.0005
0.0187499999999839 -0.0025 -0.0005
0.01999999999998631 -0.0025 -0.0005
0.02124999999998953 -0.0025 -0.0005
0.02249999999999383 -0.0025 -0.0005
0.02374999999999624 -0.0025 -0.0005
0.025 -0.001250000000002711 -0.0005
0.025 -6.354725773372039e-15 -0.0005
0.025 0.00124999999999678 -0.0005
0.0237500000000022 0.0025 -0.0005
0.02250000000000576 0.0025 -0.0005
0.02125000000000932 0.0025 -0.0005
0.02000000000001098 0.0025 -0.0005
0.01875000000001304 0.0025 -0.0005
0.01750000000001592 0.0025 -0.0005
0.01625000000001948 0.0025 -0.0005
0.01500000000002304 0.0025 -0.0005
0.0137500000000266 0.0025 -0.0005
0.01250000000003015 0.0025 -0.0005
0.01125000000003371 0.0025 -0.0005
0.01000000000003727 0.0025 -0.0005
0.008750000000040826 0.0025 -0.0005
0.007500000000044384 0.0025 -0.0005
0.006250000000048616 0.0025 -0.0005
0.005000000000052851 0.0025 -0.0005
0.00375000000005641 0.0025 -0.0005
0.002500000000059965 0.0025 -0.0005
0.00125000000006352 0.0025 -0.0005
6.639827576648827e-14 0.0025 -0.0005
-0.001249999999936545 0.0025 -0.0005
-0.002499999999939495 0.0025 -0.0005
-0.003749999999943125 0.0025 -0.0005
-0.004999999999946613 0.0025 -0.0005
-0.006249999999949695 0.0025 -0.0005
-0.007499999999953863 0.0025 -0.0005
-0.008749999999956543 0.0025 -0.0005
-0.009999999999959479 0.0025 -0.0005
-0.01124999999996405 0.0025 -0.0005
-0.01249999999996645 0.0025 -0.0005
-0.01374999999996886 0.0025 -0.0005
-0.01499999999997342 0.0025 -0.0005
-0.01624999999997637 0.0025 -0.0005
-0.01749999999997905 0.0025 -0.0005
-0.0187499999999839 0.0025 -0.0005
-0.01999999999998631 0.0025 -0.0005
-0.02124999999998953 0.0025 -0.0005
-0.02249999999999383 0.0025 -0.0005
-0.02374999999999624 0.0025 -0.0005
-0.025 0.001250000000002711 -0.0005
-0.025 6.354725773372039e-15 -0.0005
-0.025 -0.00124999999999678 -0.0005
-0.0237500000000022 -0.0025 0.0005
-0.02250000000000576 -0.0025 0.0005
-0.02125000000000932 -0.0025 0.0005
-0.02000000000001098 -0.0025 0.0005
-0.01875000000001304 -0.0025 0.0005
-0.01750000000001592 -0.0025 0.0005
-0.01625000000001948 -0.0025 0.0005
-0.01500000000002304 -0.0025 0.0005
-0.0137500000000266 -0.0025 0.0005
-0.01250000000003015 -0.0025 0.0005
-0.01125000000003371 -0.0025 0.0005
-0.01000000000003727 -0.0025 0.0005
-0.008750000000040826 -0.0025 0.0005
-0.007500000000044384 -0.0025 0.0005
-0.006250000000048616 -0.0025 0.0005
-0.005000000000052851 -0.0025 0.0005
-0.00375000000005641 -0.0025 0.0005
-0.002500000000059965 -0.0025 0.0005
-0.00125000000006352 -0.0025 0.0005
-6.639827576648827e-14 -0.0025 0.0005
0.001249999999936545 -0.0025 0.0005
0.002499999999939495 -0.0025 0.0005
0.003749999999943125 -0.0025 0.0005
0.004999999999946613 -0.0025 0.0005
0.006249999999949695 -0.0025 0.0005
0.007499999999953863 -0.0025 0.0005
0.008749999999956543 -0.0025 0.0005
0.009999999999959479 -0.0025 0.0005
0.01124999999996405 -0.0025 0.0005
0.01249999999996645 -0.0025 0.0005
0.01374999999996886 -0.0025 0.0005
0.01499999999997342 -0.0025 0.0005
0.01624999999997637 -0.0025 0.0005
0.01749999999997905 -0.0025 0.0005
0.0187499999999839 -0.0025 0.0005
0.01999999999998631 -0.0025 0.0005
0.02124999999998953 -0.0025 0.0005
0.02249999999999383 -0.0025 0.0005
0.02374999999999624 -0.0025 0.0005
0.025 -0.001250000000002711 0.0005
0.025 -6.354725773372039e-15 0.0005
0.025 0.00124999999999678 0.0005
0.0237500000000022 0.0025 0.0005
0.02250000000000576 0.0025 0.0005
0.02125000000000932 0.0025 0.0005
0.02000000000001098 0.0025 0.0005
0.01875000000001304 0.0025 0.0005
0.01750000000001592 0.0025 0.0005
0.01625000000001948 0.0025 0.0005
0.01500000000002304 0.0025 0.0005
0.0137500000000266 0.0025 0.0005
0.01250000000003015 0.0025 0.0005
0.01125000000003371 0.0025 0.0005
0.01000000000003727 0.0025 0.0005
0.008750000000040826 0.0025 0.0005
0.007500000000044384 0.0025 0.0005
0.006250000000048616 0.0025 0.0005
0.005000000000052851 0.0025 0.0005
0.00375000000005641 0.0025 0.0005
0.002500000000059965 0.0025 0.0005
0.00125000000006352 0.0025 0.0005
6.639827576648827e-14 0.0025 0.0005
-0.001249999999936545 0.0025 0.0005
-0.002499999999939495 0.0025 0.0005
-0.003749999999943125 0.0025 0.0005
-0.004999999999946613 0.0025 0.0005
-0.006249999999949695 0.0025 0.0005
-0.007499999999953863 0.0025 0.0005
-0.008749999999956543 0.0025 0.0005
-0.009999999999959479 0.0025 0.0005
-0.01124999999996405 0.0025 0.0005
-0.01249999999996645 0.0025 0.0005
-0.01374999999996886 0.0025 0.0005
-0.01499999999997342 0.0025 0.0005
-0.01624999999997637 0.0025 0.0005
-0.01749999999997905 0.0025 0.0005
-0.0187499999999839 0.0025 0.0005
-0.01999999999998631 0.0025 0.0005
-0.02124999999998953 0.0025 0.0005
-0.02249999999999383 0.0025 0.0005
-0.02374999999999624 0.0025 0.0005
-0.025 0.001250000000002711 0.0005
-0.025 6.354725773372039e-15 0.0005
-0.025 -0.00124999999999678 0.0005
-0.02187500000000753 -0.001417468245272533 -0.0005
0.02187500000000753 0.001417468245272533 -0.0005
-0.01812500000001448 -0.001417468245272238 -0.0005
0.01812500000001448 0.001417468245272238 -0.0005
-0.01562500000002126 -0.001417468245272533 -0.0005
0.01562500000002126 0.001417468245272533 -0.0005
-0.01312500000002838 -0.001417468245272532 -0.0005
0.01312500000002837 0.001417468245272532 -0.0005
0.01062500000003549 0.001417468245272534 -0.0005
-0.01062500000003549 -0.001417468245272534 -0.0005
-0.008125000000042605 -0.001417468245272824 -0.0005
0.008125000000042605 0.001417468245272824 -0.0005
-0.005625000000050734 -0.001417468245273119 -0.0005
0.005625000000050734 0.001417468245273119 -0.0005
0.003125000000058187 0.001417468245272531 -0.0005
-0.003125000000058187 -0.001417468245272531 -0.0005
0.000625000000064959 0.001417468245272237 -0.0005
-0.0006250000000638158 -0.001417468245268968 -0.0005
0.02062499999998841 -0.001417468245267651 -0.0005
-0.02062499999998841 0.001417468245267651 -0.0005
0.01687499999997802 -0.001417468245267538 -0.0005
-0.01687499999997802 0.001417468245267538 -0.0005
0.01437499999997195 -0.001417468245266609 -0.0005
-0.01437499999997194 0.001417468245266608 -0.0005
-0.01187499999996308 0.001417468245266347 -0.0005
0.01187499999996308 -0.001417468245266347 -0.0005
0.009374999999958044 -0.001417468245267464 -0.0005
-0.009374999999958044 0.001417468245267464 -0.0005
0.006874999999953531 -0.001417468245265576 -0.0005
-0.006874999999953531 0.001417468245265576 -0.0005
0.00437499999994828 -0.001417468245262197 -0.0005
-0.004374999999948281 0.001417468245262196 -0.0005
-0.001745034007835169 0.001395232092197303 -0.0005
0.001874999999940618 -0.001417468245261597 -0.0005
0.0231197032883937 -0.001441534943678681 -0.0005
-0.0231197032883937 0.001441534943678681 -0.0005
0.02401161720402136 0.0007040491329136072 -0.0005
-0.02401161720402136 -0.0007040491329136072 -0.0005
0.02187411721472407 -0.001421479361669618 -0.0005
0.02124985286911157 -0.0003885689060836055 -0.0005
0.01999997547817575 -0.0003438752264604736 -0.0005
0.02062499999998921 0.0007475952641949291 -0.0005
0.01916666257969397 0.0006085525503228179 -0.0005
0.01871527300963306 -0.0004125639616497153 -0.0005
0.02250662295631639 -0.0004808785778044887 -0.0005
-0.02187411721472407 0.001421479361669618 -0.0005
-0.02124985286911158 0.0003885689060836057 -0.0005
-0.01999997547817575 0.0003438752264604737 -0.0005
-0.02062499999998921 -0.0007475952641949288 -0.0005
-0.01916666257969397 -0.0006085525503228179 -0.0005
-0.01871527300963306 0.0004125639616497153 -0.0005
-0.02250662295631639 0.0004808785778044888 -0.0005
0.01062499999996071 -0.001417468245267483 -0.0005
0.009999999999959428 -0.0003879003866831461 -0.0005
0.00874999999995783 -0.0003967277027071789 -0.0005
0.009374999999959175 0.0007475952641951949 -0.0005
0.01124999999996056 -0.0003967277027070884 -0.0005
0.01249999999996472 -0.0003981989220435583 -0.0005
0.01187499999995874 0.0007475952641959773 -0.0005
0.01312499999996801 -0.001428011983851553 -0.0005
0.0137499999999705 -0.0004002014150320274 -0.0005
0.01499999999997487 -0.0003987778740992128 -0.0005
0.0143749999999772 0.0007475952641956758 -0.0005
-0.01062499999996071 0.001417468245267483 -0.0005
-0.009999999999959428 0.0003879003866831461 -0.0005
-0.00874999999995783 0.0003967277027071789 -0.0005
-0.009374999999959175 -0.0007475952641951949 -0.0005
-0.01124999999996056 0.0003967277027070886 -0.0005
-0.01249999999996471 0.0003981989220435583 -0.0005
-0.01187499999995874 -0.0007475952641959768 -0.0005
-0.01312499999996801 0.001428011983851553 -0.0005
-0.0137499999999705 0.0004002014150320256 -0.0005
-0.01499999999997487 0.0003987778740992117 -0.0005
-0.01437499999997718 -0.0007475952641956782 -0.0005
0.01811921216825661 -0.001430406157120103 -0.0005
0.01749324752963466 -0.0004029946171778946 -0.0005
0.01624887458825298 -0.0004098836383844247 -0.0005
0.0168749999999789 0.0007475952641951242 -0.0005
-0.01811921216825661 0.001430406157120103 -0.0005
-0.01749324752963466 0.0004029946171778946 -0.0005
-0.01624887458825298 0.0004098836383844243 -0.0005
-0.0168749999999789 -0.0007475952641951241 -0.0005
0.008124999999956167 -0.001427766780628888 -0.0005
0.007499999999956515 -0.0003999153446039672 -0.0005
0.006249999999955118 -0.0003987301956910282 -0.0005
0.006874999999957068 0.0007475952641976913 -0.0005
0.00562499999995133 -0.00142810052945774 -0.0005
0.004999999999952679 -0.0004003047182369921 -0.0005
0.003749999999950284 -0.0003987950912927506 -0.0005
0.004374999999952398 0.0007475952642027431 -0.0005
0.003124999999945284 -0.001428111345389494 -0.0005
0.00249999999994629 -0.0004003173368243687 -0.0005
0.001249999999943046 -0.0003987971943890535 -0.0005
0.001874999999942048 0.0007475952642073408 -0.0005
0.0006249999999390217 -0.001428111695906428 -0.0005
-6.067289321417164e-14 -0.0004003177457631274 -0.0005
-0.001222884562043918 -0.0003556761141678277 -0.0005
-0.0006250000000710093 0.0007475952642024762 -0.0005
-0.008124999999956167 0.001427766780628888 -0.0005
-0.007499999999956515 0.0003999153446039672 -0.0005
-0.006249999999955118 0.0003987301956910282 -0.0005
-0.006874999999957068 -0.0007475952641976913 -0.0005
-0.00562499999995133 0.00142810052945774 -0.0005
-0.004999999999952679 0.0004003047182369934 -0.0005
-0.003749999999950299 0.0003987950912927577 -0.0005
-0.004374999999952398 -0.0007475952642027347 -0.0005
-0.003124999999943209 0.001417468245256157 -0.0005
-0.00258250566794871 0.0004636139235698372 -0.0005
-0.01936824344267067 0.00143405226508299 -0.0005
0.01936824344267067 -0.00143405226508299 -0.0005
-0.0156249511743251 0.001423489544180249 -0.0005
0.0156249511743251 -0.00142348954418025 -0.0005
-0.001813774417871142 -0.001453664271327154 -0.0005
-0.02319829326843223 -0.001534442682320566 -0.0005
0.02319829326843223 0.001534442682320566 -0.0005
0.02388150835546678 -0.0005350713240711737 -0.0005
-0.02388150835546678 0.0005350713240711737 -0.0005
-0.01807503662379101 -0.0003916114961925141 -0.0005
0.01807503662379101 0.0003916114961925141 -0.0005
-0.0131249999999799 -0.0004228516873177206 -0.0005
0.01312499999997991 0.0004228516873177198 -0.0005
-0.01562477491764104 -0.0004207994522359398 -0.0005
0.01562477491764104 0.000420799452235939 -0.0005
-0.0218535259630604 -0.0003793488607720074 -0.0005
0.02185352596306039 0.0003793488607720075 -0.0005
0.01062499999997468 0.0004256061368546944 -0.0005
-0.01062499999997468 -0.0004256061368546942 -0.0005
-0.008124999999974639 -0.0004232031452709129 -0.0005
0.008124999999974639 0.0004232031452709129 -0.0005
-0.009375000000039048 -0.001735251622153832 -0.0005
0.009375000000039048 0.001735251622153832 -0.0005
-0.01687500000001771 -0.001735251622153797 -0.0005
0.01687500000001771 0.001735251622153797 -0.0005
-0.02062500000000581 -0.001780063026324334 -0.0005
0.02062500000000581 0.001780063026324334 -0.0005
0.01437500000002481 0.001735251622154107 -0.0005
-0.01437500000002481 -0.001735251622154103 -0.0005
-0.01187500000003193 -0.001735251622154272 -0.0005
0.01187500000003193 0.001735251622154273 -0.0005
-0.01946357674998271 -0.001662306839262122 -0.0005
0.01946357674998271 0.001662306839262122 -0.0005
-0.006875000000046498 -0.001735251622155118 -0.0005
0.006875000000046498 0.001735251622155118 -0.0005
-0.005624999999973599 -0.0004227247719491046 -0.0005
0.005624999999973599 0.0004227247719491066 -0.0005
-0.004375000000054629 -0.001735251622158081 -0.0005
0.004375000000054629 0.001735251622158086 -0.0005
-0.0006249999999350732 0.001735251622159095 -0.0005
-0.003177466801822506 -0.0003848073274999045 -0.0005
0.003124999999969841 0.0004227092691130992 -0.0005
0.0006249999999636745 0.0004227087667059746 -0.0005
0.001875000000061742 0.001735251622160679 -0.0005
-0.02408493649053743 -0.001584936490535946 -0.0005
0.02408493649053743 0.001584936490535946 -0.0005
0.02408493649053556 -0.00158493649053725 -0.0005
-0.02408493649053556 0.00158493649053725 -0.0005
0.02294726552014196 0.0005009894695871237 -0.0005
-0.02294726552014196 -0.0005009894695871237 -0.0005
-0.001618226094974807 0.0004630440893022294 -0.0005
-0.00220919101594889 -0.0004885770883789193 -0.0005
0.0181249999999814 -0.0025 0
0.01062499999996171 -0.0025 4.98732999343332e-18
0.0143749999999712 -0.0025 7.155734338404329e-18
0.02187499999999167 -0.0025 -7.589415207398531e-19
0.006874999999951774 -0.0025 0
0.02437500000124464 -0.0025 0
0.003124999999941334 -0.0025 0
0.004374999999944847 -0.0025 0
0.02062499999998792 -0.0025 1.409462824231156e-18
0.005624999999948154 -0.0025 0
0.00187499999993803 -0.0025 0
0.0156249999999749 -0.0025 0
0.0006249999999350733 -0.0025 1.734723475976807e-18
0.009374999999958014 -0.0025 0
0.01687499999997772 -0.0025 1.084202172485504e-18
0.008124999998708679 -0.0025 -1.084202172485504e-19
0.01312499999996759 -0.0025 4.011548038196366e-18
0.01937499999998511 -0.0025 1.409462824231156e-18
0.02312499999999503 -0.0025 -3.577867169202165e-18
0.01187499999996535 -0.0025 0
-0.02062500000001015 -0.0025 0
-0.01937500000001201 -0.0025 6.505213034913027e-19
-0.0243750000000011 -0.0025 0
-0.01812500000001448 -0.0025 -5.421010862427522e-19
-0.000625000000064959 -0.0025 -9.75781955236954e-19
-0.02312500000000398 -0.0025 6.505213034913027e-19
-0.0168750000000177 -0.0025 -1.084202172485504e-18
-0.01312500000002837 -0.0025 -1.517883041479706e-18
-0.01187500000003193 -0.0025 1.192622389734055e-18
-0.003125000000058185 -0.0025 -1.084202172485504e-19
-0.001875000000061744 -0.0025 -4.336808689942018e-18
-0.02187500000000754 -0.0025 1.084202172485504e-19
-0.01562500000002126 -0.0025 -7.26415455565288e-18
-0.01437500000002482 -0.0025 2.059984127722458e-18
-0.009375000000039047 -0.0025 0
-0.008125000000042605 -0.0025 0
-0.00437500000005463 -0.0025 0
-0.01062500000003549 -0.0025 1.084202172485504e-19
-0.0068750000000465 -0.0025 0
-0.005625000000050735 -0.0025 0
0.025 0.001874999999998389 0
0.025 0.0006249999999952127 0
0.025 -0.001875000000001355 -1.084202172485504e-19
0.025 -0.0006250000000045327 3.252606517456513e-19
-0.0181249999999814 0.0025 0
-0.01062499999996171 0.0025 4.98732999343332e-18
-0.0143749999999712 0.0025 7.155734338404329e-18
-0.02187499999999167 0.0025 -7.589415207398531e-19
-0.006874999999951774 0.0025 0
-0.02437499999999813 0.0025 8.239936510889834e-18
-0.003124999999941334 0.0025 0
-0.004374999999944847 0.0025 0
-0.02062499999998792 0.0025 1.409462824231156e-18
-0.005624999999948154 0.0025 0
-0.00187499999993803 0.0025 -1.843143693225358e-18
-0.0156249999999749 0.0025 0
-0.0006249999999350733 0.0025 1.734723475976807e-18
-0.009374999999958014 0.0025 0
-0.01687499999997772 0.0025 1.084202172485504e-18
-0.008124999998708679 0.0025 -1.084202172485504e-19
-0.01312499999996759 0.0025 4.011548038196366e-18
-0.01937499999998511 0.0025 1.409462824231156e-18
-0.02312499999999503 0.0025 -3.577867169202165e-18
-0.01187499999996535 0.0025 0
0.02062500000001015 0.0025 0
0.01937500000001201 0.0025 6.505213034913027e-19
0.0243750000000011 0.0025 0
0.01812500000001448 0.0025 -5.421010862427522e-19
0.000625000000064959 0.0025 -9.75781955236954e-19
0.02312500000000398 0.0025 6.505213034913027e-19
0.0168750000000177 0.0025 -1.084202172485504e-18
0.01312500000002837 0.0025 -1.517883041479706e-18
0.01187500000003193 0.0025 1.192622389734055e-18
0.003125000000058185 0.0025 -1.084202172485504e-19
0.001875000000061744 0.0025 -4.336808689942018e-18
0.02187500000000754 0.0025 1.084202172485504e-19
0.01562500000002126 0.0025 -7.26415455565288e-18
0.01437500000002482 0.0025 2.059984127722458e-18
0.009375000000039047 0.0025 0
0.008125000000042605 0.0025 0
0.00437500000005463 0.0025 0
0.01062500000003549 0.0025 1.084202172485504e-19
0.0068750000000465 0.0025 0
0.005625000000050735 0.0025 0
-0.025 -0.001874999999998389 0
-0.025 -0.0006249999999952127 -3.252606517456513e-19
-0.025 0.001875000000001355 0
-0.025 0.0006250000000045325 0
-0.02187500000000753 -0.001417468245272533 0.0005
0.02187500000000753 0.001417468245272533 0.0005
-0.01812500000001448 -0.001417468245272238 0.0005
0.01812500000001448 0.001417468245272238 0.0005
-0.01562500000002126 -0.001417468245272533 0.0005
0.01562500000002126 0.001417468245272533 0.0005
-0.01312500000002838 -0.001417468245272532 0.0005
0.01312500000002838 0.001417468245272532 0.0005
0.01062500000003549 0.001417468245272534 0.0005
-0.01062500000003549 -0.001417468245272534 0.0005
-0.008125000000042605 -0.001417468245272824 0.0005
0.008125000000042605 0.001417468245272824 0.0005
-0.005625000000050734 -0.001417468245273119 0.0005
0.005625000000050734 0.001417468245273119 0.0005
0.003125000000058187 0.001417468245272531 0.0005
-0.003125000000058187 -0.001417468245272531 0.0005
0.000625000000064959 0.001417468245272237 0.0005
-0.0006250000000638158 -0.001417468245268968 0.0005
0.02062499999998841 -0.001417468245267651 0.0005
-0.02062499999998841 0.001417468245267651 0.0005
0.01687499999997802 -0.001417468245267538 0.0005
-0.01687499999997802 0.001417468245267538 0.0005
0.01437499999997194 -0.001417468245266608 0.0005
-0.01437499999997194 0.001417468245266608 0.0005
-0.01187499999996308 0.001417468245266347 0.0005
0.01187499999996308 -0.001417468245266347 0.0005
0.009374999999958044 -0.001417468245267464 0.0005
-0.009374999999958044 0.001417468245267464 0.0005
0.006874999999953531 -0.001417468245265576 0.0005
-0.006874999999953531 0.001417468245265576 0.0005
0.00437499999994828 -0.001417468245262197 0.0005
-0.004374999999948281 0.001417468245262196 0.0005
-0.001745034007835169 0.001395232092197303 0.0005
0.001874999999940618 -0.001417468245261597 0.0005
0.0231197032883937 -0.001441534943678681 0.0005
-0.0231197032883937 0.001441534943678681 0.0005
0.02401161720402136 0.0007040491329136072 0.0005
-0.02401161720402136 -0.0007040491329136072 0.0005
0.02187411721472407 -0.001421479361669618 0.0005
0.02124985286911157 -0.0003885689060836055 0.0005
0.01999997547817575 -0.0003438752264604736 0.0005
0.02062499999998921 0.0007475952641949291 0.0005
0.01916666257969397 0.0006085525503228179 0.0005
0.01871527300963306 -0.0004125639616497153 0.0005
0.02250662295631639 -0.0004808785778044887 0.0005
-0.02187411721472407 0.001421479361669618 0.0005
-0.02124985286911157 0.0003885689060836055 0.0005
-0.01999997547817575 0.0003438752264604736 0.0005
-0.02062499999998921 -0.0007475952641949291 0.0005
-0.01916666257969397 -0.0006085525503228179 0.0005
-0.01871527300963306 0.0004125639616497153 0.0005
-0.02250662295631639 0.0004808785778044887 0.0005
0.01062499999996071 -0.001417468245267483 0.0005
0.009999999999959428 -0.0003879003866831461 0.0005
0.00874999999995783 -0.0003967277027071789 0.0005
0.009374999999959175 0.0007475952641951949 0.0005
0.01124999999996056 -0.0003967277027070886 0.0005
0.01249999999996471 -0.0003981989220435583 0.0005
0.01187499999995874 0.0007475952641959768 0.0005
0.01312499999996801 -0.001428011983851553 0.0005
0.0137499999999705 -0.0004002014150320256 0.0005
0.01499999999997487 -0.0003987778740992117 0.0005
0.01437499999997718 0.0007475952641956782 0.0005
-0.01062499999996071 0.001417468245267483 0.0005
-0.009999999999959428 0.0003879003866831461 0.0005
-0.00874999999995783 0.0003967277027071789 0.0005
-0.009374999999959175 -0.0007475952641951949 0.0005
-0.01124999999996056 0.0003967277027070886 0.0005
-0.01249999999996471 0.0003981989220435583 0.0005
-0.01187499999995874 -0.0007475952641959768 0.0005
-0.01312499999996801 0.001428011983851553 0.0005
-0.0137499999999705 0.0004002014150320256 0.0005
-0.01499999999997487 0.0003987778740992117 0.0005
-0.01437499999997718 -0.0007475952641956782 0.0005
0.01811921216825661 -0.001430406157120103 0.0005
0.01749324752963466 -0.0004029946171778946 0.0005
0.01624887458825298 -0.0004098836383844243 0.0005
0.0168749999999789 0.0007475952641951241 0.0005
-0.01811921216825661 0.001430406157120103 0.0005
-0.01749324752963466 0.0004029946171778946 0.0005
-0.01624887458825298 0.0004098836383844243 0.0005
-0.0168749999999789 -0.0007475952641951241 0.0005
0.008124999999956167 -0.001427766780628888 0.0005
0.007499999999956515 -0.0003999153446039672 0.0005
0.006249999999955118 -0.0003987301956910282 0.0005
0.006874999999957068 0.0007475952641976913 0.0005
0.00562499999995133 -0.00142810052945774 0.0005
0.004999999999952679 -0.0004003047182369921 0.0005
0.003749999999950284 -0.0003987950912927506 0.0005
0.004374999999952398 0.0007475952642027431 0.0005
0.003124999999945284 -0.001428111345389494 0.0005
0.00249999999994629 -0.0004003173368243687 0.0005
0.001249999999943046 -0.0003987971943890535 0.0005
0.001874999999942048 0.0007475952642073408 0.0005
0.0006249999999390217 -0.001428111695906428 0.0005
-6.067289321417164e-14 -0.0004003177457631274 0.0005
-0.001222884562043918 -0.0003556761141678277 0.0005
-0.0006250000000710093 0.0007475952642024762 0.0005
-0.008124999999956167 0.001427766780628888 0.0005
-0.007499999999956515 0.0003999153446039672 0.0005
-0.006249999999955118 0.0003987301956910282 0.0005
-0.006874999999957068 -0.0007475952641976913 0.0005
-0.00562499999995133 0.00142810052945774 0.0005
-0.004999999999952679 0.0004003047182369934 0.0005
-0.003749999999950299 0.0003987950912927577 0.0005
-0.004374999999952398 -0.0007475952642027347 0.0005
-0.003124999999943209 0.001417468245256157 0.0005
-0.00258250566794871 0.0004636139235698372 0.0005
0.01936824344267067 -0.00143405226508299 0.0005
-0.01936824344267067 0.00143405226508299 0.0005
0.0156249511743251 -0.001423489544180249 0.0005
-0.0156249511743251 0.001423489544180249 0.0005
-0.001813774417871142 -0.001453664271327154 0.0005
-0.02319829326843223 -0.001534442682320566 0.0005
0.02319829326843223 0.001534442682320566 0.0005
0.02388150835546678 -0.0005350713240711737 0.0005
-0.02388150835546678 0.0005350713240711737 0.0005
-0.01807503662379101 -0.0003916114961925141 0.0005
0.01807503662379101 0.0003916114961925141 0.0005
-0.0131249999999799 -0.0004228516873177206 0.0005
0.0131249999999799 0.0004228516873177206 0.0005
-0.01562477491764104 -0.0004207994522359398 0.0005
0.01562477491764104 0.0004207994522359398 0.0005
-0.02185352596306039 -0.0003793488607720075 0.0005
0.02185352596306039 0.0003793488607720075 0.0005
0.01062499999997468 0.0004256061368546942 0.0005
-0.01062499999997468 -0.0004256061368546942 0.0005
-0.008124999999974639 -0.0004232031452709129 0.0005
0.008124999999974639 0.0004232031452709129 0.0005
-0.009375000000039048 -0.001735251622153832 0.0005
0.009375000000039048 0.001735251622153832 0.0005
-0.01687500000001771 -0.001735251622153797 0.0005
0.01687500000001771 0.001735251622153797 0.0005
-0.02062500000000581 -0.001780063026324334 0.0005
0.02062500000000581 0.001780063026324334 0.0005
-0.01437500000002481 -0.001735251622154103 0.0005
0.01437500000002481 0.001735251622154103 0.0005
-0.01187500000003193 -0.001735251622154272 0.0005
0.01187500000003193 0.001735251622154272 0.0005
-0.01946357674998271 -0.001662306839262122 0.0005
0.01946357674998271 0.001662306839262122 0.0005
-0.006875000000046498 -0.001735251622155118 0.0005
0.006875000000046498 0.001735251622155118 0.0005
-0.005624999999973599 -0.0004227247719491046 0.0005
0.005624999999973599 0.0004227247719491066 0.0005
-0.004375000000054629 -0.001735251622158081 0.0005
0.004375000000054629 0.001735251622158086 0.0005
-0.0006249999999350732 0.001735251622159095 0.0005
-0.003177466801822506 -0.0003848073274999045 0.0005
0.003124999999969841 0.0004227092691130992 0.0005
0.0006249999999636745 0.0004227087667059746 0.0005
0.001875000000061742 0.001735251622160679 0.0005
-0.02408493649053743 -0.001584936490535946 0.0005
0.02408493649053743 0.001584936490535946 0.0005
0.02408493649053556 -0.00158493649053725 0.0005
-0.02408493649053556 0.00158493649053725 0.0005
0.02294726552014196 0.0005009894695871237 0.0005
-0.02294726552014196 -0.0005009894695871237 0.0005
-0.001618226094974807 0.0004630440893022294 0.0005
-0.00220919101594889 -0.0004885770883789193 0.0005
-0.01257647466744361 -0.0001936440906103356 -1.144222143752726e-05
0.0006276373169507688 -8.987999189284681e-05 -2.890146386542054e-06
0.0006260698463126279 -0.001279046310181717 0

CELLS 1507 7535
4 244 493 492 584
4 244 245 493 584
4 245 295 543 584
4 245 543 493 584
4 295 492 543 584
4 492 295 244 584
4 516 574 326 585
4 516 326 268 585
4 574 271 326 585
4 519 271 574 585
4 461 174 213 421
4 377 48 460 212
4 460 132 48 377
4 174 90 213 421
4 390 71 208 155
4 109 366 25 536
4 381 78 239 487
4 228 36 476 337
4 78 381 162 487
4 120 476 36 337
4 161 381 239 487
4 228 476 35 337
4 119 35 476 337
4 381 239 77 161
4 160 393 76 451
4 34 450 118 349
4 393 77 203 161
4 119 450 35 349
4 79 200 399 163
4 121 449 37 355
4 338 38 122 198
4 447 80 382 164
4 382 81 447 165
4 338 123 39 198
4 120 36 449 355
4 162 399 78 448
4 32 116 340 204
4 384 205 74 158
4 156 387 72 455
4 384 75 205 159
4 117 452 33 340
4 73 387 157 455
4 114 30 454 343
4 206 31 115 343
4 360 193 26 110
4 112 28 209 346
4 209 29 113 346
4 360 27 193 111
4 350 40 124 196
4 445 82 394 166
4 394 83 197 167
4 444 41 125 350
4 202 450 34 349
4 393 203 76 451
4 161 203 393 451
4 202 35 450 349
4 163 200 399 448
4 355 449 37 201
4 122 446 338 198
4 199 80 382 447
4 382 81 199 447
4 338 446 123 198
4 399 200 78 448
4 355 36 449 201
4 387 207 72 455
4 158 384 205 453
4 340 116 452 204
4 340 452 33 204
4 159 205 384 453
4 387 73 207 455
4 206 454 30 343
4 206 115 454 343
4 209 457 112 346
4 209 113 457 346
4 360 193 110 441
4 193 360 111 441
4 124 444 350 196
4 197 82 394 445
4 445 394 197 167
4 350 444 41 196
4 469 383 221 171
4 462 129 339 214
4 45 339 129 214
4 383 87 221 171
4 221 86 383 469
4 462 339 44 214
4 388 195 85 169
4 127 344 43 442
4 443 388 86 170
4 128 44 344 194
4 86 383 469 170
4 128 339 44 462
4 380 84 254 502
4 336 498 126 250
4 502 380 84 168
4 126 42 336 250
4 535 391 82 166
4 124 40 347 534
4 391 82 286 535
4 40 347 534 287
4 123 347 39 287
4 391 286 81 165
4 155 208 390 456
4 286 391 535 165
4 347 123 534 287
4 195 388 443 169
4 442 344 43 194
4 388 86 195 443
4 442 128 344 194
4 274 75 395 159
4 258 117 33 351
4 76 395 160 522
4 118 506 34 351
4 395 274 159 522
4 258 506 117 351
4 258 34 506 351
4 395 76 274 522
4 396 246 79 163
4 483 121 37 352
4 494 396 80 164
4 483 38 122 352
4 246 396 494 163
4 352 37 483 235
4 396 80 246 494
4 352 483 38 235
4 157 389 73 526
4 115 31 510 345
4 389 74 278 158
4 116 510 32 345
4 113 29 514 342
4 114 514 30 342
4 278 73 389 526
4 345 31 510 262
4 345 510 32 262
4 158 278 389 526
4 342 29 514 266
4 342 514 30 266
4 397 85 284 169
4 532 43 127 353
4 254 380 502 167
4 125 498 336 250
4 380 254 83 167
4 336 41 125 250
4 533 397 284 169
4 532 43 353 285
4 459 211 398 171
4 458 354 45 210
4 288 25 366 536
4 211 87 398 171
4 129 354 45 458
4 353 42 126 285
4 284 84 397 168
4 533 284 397 168
4 126 532 353 285
4 405 135 51 290
4 361 9 289 93
4 386 72 282 156
4 108 365 24 439
4 411 51 135 177
4 93 9 424 367
4 425 52 136 411
4 94 424 10 367
4 403 139 55 179
4 97 426 13 359
4 96 12 178 359
4 427 138 54 403
4 15 180 368 99
4 429 57 141 412
4 429 140 56 412
4 14 368 428 98
4 431 59 143 407
4 17 182 363 101
4 430 16 363 100
4 431 142 58 407
4 373 185 18 102
4 417 145 61 184
4 60 144 417 184
4 19 373 103 433
4 371 21 186 105
4 147 435 63 415
4 146 62 435 415
4 104 371 20 434
4 419 64 148 189
4 106 375 22 436
4 419 149 65 189
4 107 23 375 436
4 409 151 67 190
4 66 438 150 409
4 68 152 404 192
4 404 153 69 192
4 537 361 289 93
4 405 538 135 290
4 25 365 109 439
4 451 161 239 487
4 35 450 476 228
4 239 203 77 161
4 476 450 35 119
4 200 239 78 487
4 36 476 201 228
4 487 162 78 448
4 449 476 36 120
4 450 35 202 228
4 239 203 161 451
4 487 78 200 448
4 36 476 449 201
4 534 124 40 196
4 445 535 82 166
4 535 82 286 445
4 82 197 286 445
4 124 534 444 196
4 196 40 534 287
4 198 123 39 287
4 447 81 286 165
4 286 199 81 447
4 446 534 123 198
4 198 534 123 287
4 286 535 447 165
4 522 160 76 451
4 34 450 506 118
4 75 274 205 159
4 117 33 452 258
4 522 76 203 451
4 202 34 450 258
4 506 450 34 258
4 203 274 76 522
4 274 159 522 453
4 452 506 117 258
4 452 33 204 258
4 159 274 205 453
4 200 79 246 163
4 37 449 121 483
4 483 122 38 198
4 447 494 80 164
4 122 483 446 198
4 80 199 494 447
4 163 494 246 448
4 163 246 200 448
4 37 449 483 201
4 201 483 37 235
4 80 199 246 494
4 38 483 198 235
4 455 157 73 526
4 205 278 74 158
4 116 32 510 204
4 510 31 115 206
4 30 454 514 114
4 113 514 29 209
4 73 278 455 526
4 73 278 207 455
4 205 278 158 453
4 510 452 116 204
4 526 158 278 453
4 510 32 262 204
4 206 510 31 262
4 115 454 510 206
4 266 454 30 206
4 454 266 30 514
4 209 514 29 266
4 457 514 113 209
4 194 462 44 214
4 86 221 195 469
4 469 443 86 170
4 462 44 128 194
4 444 498 125 250
4 254 445 167 502
4 254 197 83 167
4 444 125 41 250
4 445 254 167 197
4 250 41 444 196
4 443 86 195 469
4 128 442 462 194
4 45 458 210 214
4 459 469 211 171
4 348 27 111 586
4 195 284 85 169
4 43 442 532 127
4 469 221 211 171
4 129 462 458 214
4 87 211 221 171
4 458 45 129 214
4 348 112 28 586
4 284 195 443 169
4 194 532 43 442
4 284 443 533 169
4 532 194 43 285
4 84 284 254 502
4 126 498 532 250
4 84 284 502 168
4 285 42 126 250
4 533 502 284 168
4 285 126 532 250
4 442 532 216 194
4 223 443 284 195
4 194 532 216 285
4 533 443 284 471
4 540 423 90 174
4 132 539 48 379
4 26 366 110 536
4 156 282 386 530
4 443 223 284 471
4 442 532 464 216
4 532 219 216 285
4 474 533 284 471
4 223 226 284 471
4 532 467 464 216
4 474 284 226 471
4 219 532 216 467
4 155 386 71 530
4 451 239 240 487
4 229 476 450 228
4 202 229 450 228
4 203 239 240 451
4 366 26 288 536
4 156 72 282 455
4 207 282 72 455
4 194 215 462 214
4 195 221 222 469
4 111 27 193 586
4 441 111 193 586
4 112 209 28 586
4 112 457 209 586
4 463 462 442 194
4 443 195 222 469
4 522 203 241 451
4 202 450 230 258
4 274 203 241 522
4 478 450 506 258
4 254 284 226 502
4 467 532 498 250
4 154 390 70 456
4 222 223 195 443
4 216 463 442 194
4 448 494 246 492
4 244 200 246 448
4 201 483 233 449
4 483 201 233 235
4 205 524 278 453
4 452 510 508 204
4 278 526 453 524
4 262 260 510 204
4 266 264 454 206
4 264 454 514 266
4 453 522 274 523
4 506 452 507 258
4 204 507 452 258
4 453 274 205 523
4 239 200 243 487
4 201 476 232 228
4 243 448 487 200
4 476 201 232 449
4 484 446 483 198
4 494 199 247 447
4 199 494 247 246
4 198 483 236 235
4 286 248 199 447
4 198 534 485 446
4 365 191 24 439
4 135 425 411 177
4 424 9 176 367
4 411 425 52 177
4 424 176 10 367
4 426 178 13 359
4 403 427 139 179
4 178 426 96 359
4 403 54 427 179
4 412 429 57 181
4 412 56 429 181
4 428 368 180 99
4 368 180 14 428
4 407 431 59 183
4 430 363 182 101
4 407 58 431 183
4 363 182 16 430
4 417 144 432 184
4 373 19 185 433
4 102 373 185 433
4 432 145 417 184
4 415 435 63 187
4 415 62 435 187
4 105 186 371 434
4 186 20 371 434
4 419 148 437 189
4 375 188 22 436
4 437 149 419 189
4 23 188 375 436
4 438 151 409 190
4 66 438 409 190
4 404 152 440 192
4 404 440 153 192
4 447 535 286 496
4 534 198 485 287
4 278 279 207 455
4 279 526 455 278
4 511 510 206 262
4 511 510 454 206
4 267 514 209 266
4 514 457 515 209
4 365 25 191 439
4 193 536 441 520
4 284 502 533 474
4 532 219 285 250
4 288 193 272 520
4 498 444 499 250
4 445 254 255 502
4 250 444 499 196
4 255 197 254 445
4 282 71 386 530
4 520 441 193 519
4 25 109 536 439
4 193 271 272 520
4 110 193 26 536
4 536 110 193 441
4 222 223 443 471
4 442 464 463 216
4 240 451 487 488
4 476 450 477 229
4 286 535 445 504
4 500 444 534 196
4 197 286 445 504
4 534 252 196 287
4 458 578 354 210
4 331 211 398 459
4 502 284 226 474
4 532 467 219 250
4 564 54 138 401
4 96 315 12 357
4 462 463 215 194
4 222 443 469 470
4 213 540 174 461
4 460 48 539 212
4 443 222 471 470
4 216 215 463 194
4 132 48 539 460
4 540 90 213 174
4 229 232 476 228
4 243 240 239 487
4 203 240 241 451
4 450 230 229 202
4 507 478 506 258
4 241 522 523 274
4 247 494 492 246
4 233 236 483 235
4 241 522 451 489
4 450 478 230 258
4 273 272 271 520
4 526 278 279 524
4 260 510 511 262
4 514 267 264 266
4 448 246 244 492
4 483 449 481 233
4 205 524 276 278
4 260 508 510 204
4 454 514 512 264
4 448 243 487 491
4 449 476 480 232
4 198 237 485 287
4 286 248 447 496
4 200 244 243 448
4 232 233 449 201
4 274 275 205 523
4 204 259 507 258
4 247 494 447 495
4 236 484 483 198
4 526 279 455 527
4 206 263 511 262
4 514 267 209 515
4 523 524 205 453
4 508 507 452 204
4 198 485 484 446
4 199 248 247 447
4 279 455 528 207
4 264 511 454 206
4 515 457 268 209
4 193 288 536 520
4 90 292 423 540
4 48 539 291 379
4 255 445 502 503
4 499 251 250 196
4 424 289 9 93
4 177 51 135 290
4 242 488 489 240
4 479 477 478 229
4 155 71 208 530
4 252 534 485 287
4 286 535 504 496
4 193 271 520 519
4 240 242 241 489
4 230 479 478 229
4 226 255 254 502
4 498 499 467 250
4 244 491 493 243
4 234 481 480 232
4 481 234 233 232
4 491 244 493 492
4 276 275 277 524
4 260 507 261 508
4 238 485 484 237
4 248 495 496 497
4 512 265 511 264
4 280 279 281 528
4 515 516 269 268
4 524 275 277 523
4 507 260 261 259
4 484 238 237 236
4 495 249 248 247
4 263 511 265 264
4 528 279 281 527
4 268 269 515 267
4 288 25 536 439
4 504 503 255 505
4 499 253 251 252
4 398 331 459 579
4 330 354 578 210
4 193 288 26 536
4 488 243 487 240
4 477 480 476 229
4 240 451 488 489
4 478 477 450 229
4 456 530 283 531
4 504 255 256 505
4 253 499 500 252
4 255 197 445 504
4 444 500 499 196
4 243 488 487 491
4 232 476 480 229
4 451 240 241 489
4 230 478 450 229
4 252 500 534 196
4 286 197 256 504
4 522 241 523 489
4 478 507 230 258
4 520 271 521 519
4 259 230 507 258
4 241 275 274 523
4 464 218 217 216
4 224 225 223 471
4 247 244 246 492
4 236 483 481 233
4 276 279 278 524
4 511 508 510 260
4 267 512 514 264
4 484 483 481 236
4 494 247 492 495
4 527 526 279 524
4 263 260 511 262
4 514 515 512 267
4 455 282 156 530
4 71 282 208 530
4 530 208 155 456
4 448 244 243 491
4 449 480 481 232
4 331 540 579 423
4 578 291 379 330
4 213 581 540 461
4 212 580 539 460
4 233 449 481 232
4 491 448 244 492
4 226 255 502 474
4 467 251 219 250
4 211 459 540 475
4 458 220 539 210
4 524 275 205 276
4 507 508 260 204
4 485 198 484 237
4 248 495 447 496
4 528 279 207 280
4 512 511 454 264
4 516 515 457 268
4 275 524 205 523
4 259 507 260 204
4 236 237 484 198
4 495 248 447 247
4 455 279 528 527
4 264 263 511 206
4 267 515 268 209
4 111 518 348 586
4 348 270 27 586
4 252 485 237 287
4 504 248 286 496
4 377 460 577 212
4 213 328 461 421
4 518 112 348 586
4 348 28 270 586
4 474 255 502 503
4 251 467 499 250
4 208 70 390 456
4 455 207 282 528
4 286 256 248 504
4 534 252 485 500
4 471 224 222 223
4 464 217 463 216
4 324 529 439 572
4 424 537 289 93
4 538 177 135 290
4 542 253 179 294
4 178 541 257 293
4 255 445 503 504
4 252 251 499 196
4 215 220 462 214
4 221 227 222 469
4 222 472 471 470
4 463 216 217 215
4 582 456 334 531
4 197 255 256 504
4 252 499 500 196
4 361 328 8 92
4 405 50 134 329
4 577 49 133 377
4 175 328 91 421
4 398 88 579 172
4 46 354 130 578
4 211 469 459 475
4 458 214 220 210
4 334 521 582 520
4 469 227 211 221
4 214 458 220 462
4 48 539 212 291
4 292 90 213 540
4 25 288 191 439
4 517 515 516 269
4 265 512 511 513
4 281 528 527 529
4 485 238 484 486
4 249 495 248 497
4 277 524 523 525
4 509 507 508 261
4 488 242 489 490
4 230 231 479 229
4 481 480 482 234
4 245 243 244 493
4 461 328 576 421
4 329 377 577 212
4 257 256 255 505
4 501 499 500 253
4 280 282 207 528
4 462 463 220 215
4 475 222 469 470
4 521 273 271 520
4 545 180 505 297
4 501 546 429 298
4 440 574 521 326
4 440 517 574 326
4 573 269 190 325
4 573 190 265 325
4 567 281 188 319
4 568 513 189 320
4 319 277 188 567
4 568 189 261 320
4 183 544 482 296
4 182 245 295 543
4 486 544 183 296
4 543 182 249 295
4 434 277 303 551
4 552 261 187 304
4 187 479 552 304
4 242 551 434 303
4 429 546 486 298
4 545 180 297 497
4 208 282 283 530
4 530 283 208 456
4 576 328 175 421
4 377 577 49 329
4 398 88 331 579
4 46 354 578 330
4 328 361 576 92
4 134 577 405 329
4 184 549 479 301
4 185 242 302 550
4 234 549 184 301
4 493 185 302 550
4 556 427 501 308
4 307 505 426 555
4 560 429 486 311
4 497 180 312 559
4 182 313 245 561
4 482 562 431 314
4 554 432 479 306
4 553 242 305 433
4 435 318 509 566
4 565 277 317 434
4 321 436 569 529
4 570 437 513 322
4 575 438 517 327
4 571 192 273 323
4 501 429 556 308
4 505 307 428 555
4 321 569 439 529
4 486 431 560 311
4 497 312 430 559
4 561 245 185 313
4 314 482 562 184
4 553 242 434 305
4 306 479 554 187
4 509 318 189 566
4 565 277 188 317
4 513 322 438 570
4 192 575 517 327
4 257 541 255 293
4 253 294 542 251
4 569 108 24 439
4 308 55 139 179
4 555 426 13 97
4 180 15 559 99
4 429 141 57 560
4 428 307 14 98
4 56 140 429 556
4 430 312 16 100
4 58 142 431 560
4 143 562 59 431
4 182 17 313 101
4 61 145 306 184
4 103 305 19 433
4 60 562 144 184
4 102 313 185 18
4 553 104 20 434
4 554 62 435 146
4 317 186 21 105
4 147 63 435 318
4 148 64 566 189
4 565 106 22 436
4 65 149 322 189
4 107 321 23 436
4 438 66 150 322
4 67 151 327 190
4 152 68 575 192
4 571 69 153 192
4 177 538 580 290
4 537 289 581 424
4 297 504 505 545
4 501 298 500 546
4 577 133 460 377
4 576 175 461 421
4 329 49 377 212
4 328 213 91 421
4 291 578 379 539
4 331 540 423 292
4 521 456 334 582
4 529 324 528 572
4 552 261 304 259
4 523 303 277 551
4 543 249 495 295
4 544 486 484 296
4 513 568 511 320
4 279 281 567 319
4 573 269 325 267
4 574 271 521 326
4 493 302 491 550
4 301 480 234 549
4 516 574 517 326
4 325 265 573 264
4 277 319 524 567
4 320 261 568 260
4 482 544 481 296
4 241 242 303 551
4 304 479 552 230
4 297 496 545 497
4 485 486 546 298
4 583 288 439 335
4 479 549 477 301
4 488 302 242 550
4 104 20 370 553
4 146 554 62 414
4 61 145 414 306
4 305 19 370 103
4 148 566 64 418
4 106 22 374 565
4 556 56 140 406
4 98 307 14 362
4 559 15 369 99
4 560 141 57 413
4 369 16 312 100
4 560 58 142 413
4 143 59 562 408
4 313 17 364 101
4 364 18 313 102
4 144 562 60 408
4 317 21 374 105
4 63 147 418 318
4 97 13 555 362
4 406 55 139 308
4 23 372 321 107
4 416 65 149 322
4 108 24 372 569
4 416 150 66 322
4 410 67 151 327
4 152 575 68 410
4 571 69 392 153
4 70 392 154 571
4 334 582 531 583
4 9 176 289 424
4 177 538 135 425
4 216 467 218 219
4 226 223 225 471
4 474 226 225 471
4 467 216 218 464
4 10 557 424 94
4 52 136 558 425
4 240 302 242 488
4 301 477 479 229
4 288 583 439 536
4 480 301 234 232
4 491 243 302 493
4 177 548 217 300
4 547 224 176 299
4 242 241 489 551
4 479 478 552 230
4 296 481 234 233
4 276 277 319 524
4 508 568 261 260
4 265 512 573 264
4 326 269 516 268
4 507 261 552 259
4 275 303 277 523
4 238 484 296 236
4 249 295 247 495
4 527 281 567 279
4 511 265 320 263
4 515 269 573 267
4 271 521 519 574
4 297 248 496 497
4 238 298 485 237
4 564 138 54 427
4 12 178 315 96
4 504 297 505 256
4 253 500 298 252
4 220 458 539 468
4 540 227 211 475
4 539 468 332 220
4 475 540 227 581
4 111 441 518 586
4 27 270 193 586
4 439 321 24 569
4 307 426 13 555
4 139 427 556 308
4 311 429 57 560
4 180 15 312 559
4 556 429 56 308
4 307 428 555 98
4 312 430 559 100
4 560 431 58 311
4 431 562 59 314
4 101 313 182 561
4 432 554 145 306
4 305 103 553 433
4 314 562 60 184
4 313 102 185 561
4 553 20 305 434
4 306 554 62 187
4 565 317 105 434
4 435 566 147 318
4 189 64 566 318
4 565 188 22 317
4 437 570 149 322
4 436 107 321 569
4 150 570 438 322
4 438 575 151 327
4 327 575 68 192
4 571 323 69 192
4 213 333 292 540
4 332 212 539 291
4 112 518 457 586
4 270 28 209 586
4 310 465 425 558
4 176 309 472 557
4 227 540 211 292
4 539 220 291 210
4 530 455 282 528
4 218 464 217 466
4 473 471 225 472
4 227 292 333 540
4 220 332 539 291
4 505 255 541 503
4 253 542 499 251
4 580 212 539 332
4 581 213 540 333
4 401 564 54 316
4 96 563 315 357
4 305 370 20 553
4 414 554 62 306
4 370 305 103 553
4 414 145 554 306
4 369 312 15 559
4 413 57 560 311
4 559 369 312 100
4 413 560 58 311
4 406 556 56 308
4 98 555 307 362
4 59 562 408 314
4 101 364 313 561
4 408 562 60 314
4 102 313 364 561
4 317 374 22 565
4 418 566 64 318
4 139 556 406 308
4 555 13 307 362
4 105 374 317 565
4 418 147 566 318
4 107 372 321 569
4 416 149 570 322
4 321 372 24 569
4 570 150 416 322
4 410 151 575 327
4 410 575 68 327
4 392 323 69 571
4 392 70 323 571
4 281 324 280 528
4 463 468 462 220
4 469 227 222 475
4 161 162 381 487
4 120 119 476 337
4 35 36 228 337
4 239 77 78 381
4 34 35 202 349
4 160 161 393 451
4 203 76 77 393
4 118 450 119 349
4 123 122 446 338
4 382 447 164 165
4 80 81 199 382
4 39 38 338 198
4 78 79 200 399
4 399 162 163 448
4 121 120 449 355
4 37 36 355 201
4 158 159 384 453
4 452 117 116 340
4 75 205 74 384
4 33 32 340 204
4 73 207 72 387
4 387 156 157 455
4 454 115 114 343
4 30 31 206 343
4 113 112 457 346
4 28 29 209 346
4 193 26 27 360
4 110 111 360 441
4 167 445 394 166
4 125 124 444 350
4 350 41 40 196
4 82 83 197 394
4 464 466 465 217
4 224 225 471 472
4 539 468 580 332
4 333 227 540 581
4 309 176 10 557
4 425 558 52 310
4 328 361 537 576
4 290 405 577 329
4 127 128 344 442
4 170 443 388 169
4 195 85 86 388
4 344 44 43 194
4 339 45 44 214
4 86 87 221 383
4 128 129 339 462
4 171 469 383 170
4 332 548 177 300
4 547 176 581 299
4 123 124 347 534
4 81 82 286 391
4 347 40 39 287
4 166 535 391 165
4 580 177 290 332
4 581 176 289 333
4 309 472 557 563
4 316 558 465 310
4 361 537 576 92
4 8 289 328 361
4 50 405 290 329
4 134 577 538 405
4 283 334 456 531
4 520 582 334 583
4 423 331 89 579
4 379 131 578 330
4 176 581 289 424
4 425 538 580 177
4 33 34 258 351
4 159 160 395 522
4 506 118 117 351
4 274 75 76 395
4 483 122 121 352
4 164 494 396 163
4 79 80 246 396
4 38 37 352 235
4 278 73 74 389
4 389 157 158 526
4 32 31 345 262
4 116 115 510 345
4 30 29 342 266
4 514 114 113 342
4 111 518 112 348
4 348 28 27 270
4 324 281 191 439
4 529 324 439 281
4 227 469 211 475
4 468 458 462 220
4 557 10 356 94
4 558 136 52 400
4 557 356 11 95
4 558 53 137 400
4 126 125 498 336
4 83 84 254 380
4 336 42 41 250
4 167 380 502 168
4 505 541 257 426
4 253 542 179 501
4 542 179 501 427
4 541 178 257 426
4 531 530 283 528
4 217 548 463 300
4 222 299 224 547
4 579 459 398 172
4 578 354 130 458
4 46 354 330 210
4 211 88 331 398
4 273 334 272 520
4 577 538 405 290
4 289 328 361 537
4 222 470 547 472
4 217 463 215 300
4 224 471 222 472
4 217 464 463 465
4 169 533 397 168
4 127 126 532 353
4 84 85 284 397
4 43 42 353 285
4 354 46 45 210
4 211 87 88 398
4 354 129 130 458
4 172 459 398 171
4 181 501 298 253
4 297 257 180 505
4 180 545 505 428
4 501 181 298 429
4 486 181 298 238
4 181 429 486 298
4 180 249 297 497
4 497 545 180 428
4 440 521 273 326
4 192 440 273 326
4 517 192 269 326
4 517 440 192 326
4 573 517 438 190
4 269 573 190 517
4 438 513 573 265
4 190 573 265 438
4 265 189 513 320
4 568 513 437 189
4 281 436 567 188
4 436 281 567 529
4 525 188 277 567
4 189 509 568 261
4 437 509 568 189
4 525 436 188 567
4 543 182 245 493
4 182 543 430 493
4 544 183 482 431
4 296 482 183 234
4 296 183 486 238
4 249 543 497 430
4 486 544 431 183
4 182 543 249 430
4 186 277 303 434
4 552 509 435 187
4 277 434 525 551
4 261 552 187 509
4 551 242 434 490
4 479 187 231 304
4 435 479 552 187
4 303 242 186 434
4 549 184 479 432
4 242 433 490 550
4 231 184 479 301
4 242 185 433 550
4 549 234 184 482
4 302 245 185 493
4 432 482 549 184
4 493 433 185 550
4 321 191 281 439
4 257 178 307 426
4 308 427 501 179
4 505 307 426 257
4 179 501 308 253
4 181 486 311 238
4 311 429 486 181
4 249 180 312 497
4 180 497 428 559
4 182 430 561 493
4 183 482 431 314
4 561 245 182 493
4 183 482 314 234
4 479 306 184 231
4 306 432 479 184
4 242 185 305 433
4 433 553 242 490
4 434 565 277 525
4 186 317 277 434
4 509 318 187 261
4 318 435 509 187
4 513 322 189 265
4 322 437 513 189
4 281 188 321 436
4 436 321 281 529
4 517 327 190 269
4 327 438 517 190
4 181 308 501 253
4 307 180 257 505
4 308 501 429 181
4 307 180 505 428
4 192 571 273 440
4 273 571 521 440
4 183 311 486 238
4 312 497 430 249
4 439 281 321 529
4 311 486 431 183
4 249 312 182 430
4 184 314 482 234
4 245 561 185 493
4 185 561 433 493
4 482 432 562 184
4 242 553 434 490
4 187 306 479 231
4 479 435 554 187
4 434 305 242 186
4 318 509 189 261
4 277 565 188 525
4 437 566 509 189
4 188 565 436 525
4 322 513 438 265
4 190 322 438 265
4 192 327 517 269
4 575 192 517 440
4 379 47 131 330
4 579 89 423 173
4 335 191 288 439
4 298 501 500 253
4 257 297 256 505
4 271 273 521 326
4 269 515 573 517
4 265 511 320 513
4 281 527 567 529
4 484 238 296 486
4 249 543 495 497
4 261 507 552 509
4 525 523 277 551
4 480 549 482 234
4 245 302 243 493
4 269 516 517 326
4 513 512 573 265
4 525 277 524 567
4 509 508 568 261
4 234 482 481 296
4 490 242 489 551
4 304 231 479 230
4 248 297 249 497
4 485 486 298 238
4 571 154 70 456
4 490 488 242 550
4 479 231 301 229
4 225 473 472 563
4 217 466 316 218
4 457 268 209 586
4 520 272 288 583
4 519 441 193 586
4 528 282 283 280
4 356 309 10 557
4 400 52 558 310
4 356 11 309 557
4 400 558 53 310
4 472 547 176 424
4 548 177 217 425
4 316 465 466 217
4 564 465 466 316
4 225 224 315 563
4 224 225 472 563
4 557 472 176 424
4 310 177 425 217
4 334 283 335 531
4 324 439 335 572
4 541 257 255 505
4 499 501 542 253
4 321 439 24 191
4 139 427 308 179
4 426 307 13 178
4 429 311 57 181
4 559 428 180 99
4 308 429 56 181
4 180 307 14 428
4 182 312 16 430
4 311 431 58 183
4 183 431 59 314
4 182 430 101 561
4 305 185 19 433
4 306 145 432 184
4 144 562 432 184
4 102 185 561 433
4 554 435 62 187
4 20 186 305 434
4 317 186 105 434
4 318 63 435 187
4 566 437 148 189
4 188 565 22 436
4 322 149 437 189
4 188 23 321 436
4 322 438 66 190
4 327 151 438 190
4 152 575 440 192
4 153 440 571 192
4 541 255 293 226
4 467 294 251 542
4 281 324 528 529
4 571 70 323 456
4 549 480 477 301
4 302 488 491 550
4 557 176 10 424
4 177 425 52 310
4 54 564 427 179
4 426 315 178 96
4 240 243 302 488
4 480 477 301 229
4 225 474 471 473
4 466 464 467 218
4 523 241 303 551
4 552 304 230 259
4 295 492 495 543
4 544 484 481 296
4 524 319 279 567
4 320 568 511 260
4 267 325 573 264
4 335 288 272 583
4 488 243 302 491
4 232 480 301 229
4 176 299 333 581
4 177 580 548 332
4 516 268 457 586
4 520 288 536 583
4 496 504 297 545
4 500 298 485 546
4 193 271 519 586
4 552 478 507 230
4 241 523 489 551
4 474 255 541 226
4 294 467 251 219
4 176 547 581 424
4 425 580 548 177
4 224 547 176 472
4 548 465 425 217
4 481 296 236 233
4 247 492 295 244
4 275 241 303 523
4 230 507 552 259
4 279 276 319 524
4 568 508 511 260
4 267 573 512 264
4 492 247 295 495
4 296 484 481 236
4 279 527 524 567
4 511 320 260 263
4 512 515 573 267
4 465 310 425 217
4 176 309 224 472
4 531 335 334 583
4 288 25 26 366
4 109 110 366 536
4 283 334 208 456
4 528 324 283 572
4 283 531 528 572
4 90 292 89 423
4 131 539 132 379
4 540 173 423 174
4 291 47 48 379
4 297 248 504 496
4 237 298 485 252
4 583 335 439 572
4 282 528 283 530
4 468 463 548 300
4 227 299 222 547
4 255 474 541 503
4 542 467 499 251
4 466 542 179 294
4 178 293 225 541
4 297 248 256 504
4 298 500 485 252
4 520 334 272 583
4 70 71 208 390
4 390 154 155 456
4 571 273 456 323
4 463 300 220 215
4 470 475 222 547
4 426 563 315 96
4 179 54 564 316
4 224 309 315 563
4 309 224 472 563
4 558 316 465 564
4 310 465 316 217
4 136 135 425 411
4 424 94 93 367
4 9 10 176 367
4 52 51 411 177
4 55 54 403 179
4 12 13 178 359
4 97 96 426 359
4 139 138 427 403
4 57 56 412 181
4 14 15 180 368
4 99 428 368 98
4 141 140 429 412
4 59 58 407 183
4 143 142 431 407
4 16 17 182 363
4 363 430 100 101
4 373 102 103 433
4 432 145 144 417
4 185 18 19 373
4 61 60 417 184
4 186 20 21 371
4 435 147 146 415
4 63 62 415 187
4 371 104 105 434
4 419 65 64 189
4 437 149 148 419
4 188 22 23 375
4 106 107 375 436
4 409 67 66 190
4 151 150 438 409
4 69 68 404 192
4 153 152 440 404
4 108 109 365 439
4 191 24 25 365
4 295 245 244 584
4 174 461 175 421
4 90 91 213 421
4 49 48 377 212
4 132 460 133 377
4 70 208 323 456
4 334 273 521 520
4 324 528 283 280
4 385 3 331 422
4 422 385 7 579
4 376 402 2 329
4 6 577 402 376
4 358 4 576 420
4 358 328 0 420
4 378 1 341 330
4 578 5 341 378
4 334 273 208 456
4 334 335 272 583
4 538 460 580 212
4 581 213 289 461
4 547 224 222 472
4 548 217 463 465
4 540 211 331 459
4 578 458 539 210
4 334 273 456 521
4 71 72 282 386
4 386 155 156 530
4 468 463 300 220
4 475 227 222 547
4 323 208 273 456
4 427 564 466 179
4 315 178 225 426
4 543 492 493 584
4 439 324 335 191
4 540 459 331 579
4 330 578 291 210
4 173 423 579 540
4 539 131 578 379
4 331 89 292 423
4 379 291 47 330
4 226 225 293 541
4 466 294 467 542
4 273 571 456 521
4 289 581 461 537
4 290 538 580 212
4 563 11 357 95
4 564 137 53 401
4 268 585 271 586
4 519 585 516 586
4 92 328 8 358
4 134 50 402 329
4 577 133 49 376
4 175 91 328 420
4 579 88 385 172
4 578 130 46 341
4 466 179 316 218
4 225 473 563 426
4 179 564 466 316
4 563 315 225 426
4 324 335 283 572
4 331 385 422 579
4 577 402 376 329
4 358 576 328 420
4 378 341 578 330
4 541 225 178 426
4 466 542 427 179
4 531 283 335 572
4 467 294 218 219
4 225 226 474 541
4 579 385 7 172
4 331 88 3 385
4 4 175 576 420
4 91 0 328 420
4 577 6 133 376
4 2 49 376 329
4 0 8 328 358
4 4 576 92 358
4 577 134 6 402
4 402 50 2 329
4 5 130 578 341
4 341 1 46 330
4 92 361 537 93
4 135 134 538 405
4 51 50 405 290
4 8 9 289 361
4 92 576 328 358
4 402 577 134 329
4 576 175 328 420
4 49 577 376 329
4 385 331 88 579
4 46 578 341 330
4 538 577 460 212
4 461 289 328 213
4 179 466 294 218
4 541 473 225 426
4 211 540 331 292
4 291 578 539 210
4 583 531 335 572
4 212 580 290 332
4 333 213 289 581
4 548 332 468 300
4 547 227 299 581
4 328 537 461 576
4 577 290 329 212
4 557 11 563 95
4 564 53 137 558
4 7 422 579 173
4 3 89 331 422
4 5 578 131 378
4 47 1 378 330
4 422 89 331 579
4 578 131 378 330
4 537 328 461 289
4 577 538 290 212
4 11 557 563 309
4 316 53 558 310
4 378 131 47 330
4 579 422 89 173
4 547 475 227 581
4 468 300 332 220
4 294 466 467 218
4 225 474 473 541
4 332 548 468 580
4 227 333 299 581
4 401 53 564 316
4 11 563 357 315
4 519 271 585 586
4 268 516 585 586
4 326 271 268 585
4 516 519 574 585
4 558 564 53 316
4 315 309 11 563
4 441 519 518 586
4 193 270 271 586
4 516 457 518 586
4 270 209 268 586
4 103 104 370 553
4 554 146 145 414
4 370 20 19 305
4 62 61 414 306
4 369 559 99 100
4 142 141 560 413
4 15 16 312 369
4 58 57 413 311
4 562 144 143 408
4 364 101 102 561
4 408 60 59 314
4 313 17 18 364
4 56 55 406 308
4 13 14 307 362
4 140 139 556 406
4 555 98 97 362
4 392 154 571 153
4 69 70 323 392
4 566 148 147 418
4 374 22 21 317
4 105 106 374 565
4 64 63 418 318
4 372 24 23 321
4 107 108 372 569
4 150 149 570 416
4 416 66 65 322
4 410 68 67 327
4 152 151 575 410
4 53 52 400 310
4 137 136 558 400
4 94 356 557 95
4 10 11 309 356
4 138 137 564 401
4 11 12 315 357
4 54 53 401 316
4 563 96 95 357
4 518 519 516 586
4 268 271 270 586
4 0 4 358 420
4 2 6 402 376
4 385 7 3 422
4 341 5 1 378

CELL_TYPES 1507
10
10
10
10
10
10
10
10
10
10
10
10
10
10
10
10
10
10
10
10
10
10
10
10
10
10
10
10
10
10
10
10
10
10
10
10
10
10
10
10
10
10
10
10
10
10
10
10
10
10
10
10
10
10
10
10
10
10
10
10
10
10
10
10
10
10
10
10
10
10
10
10
10
10
10
10
10
10
10
10
10
10
10
10
10
10
10
10
10
10
10
10
10
10
10
10
10
10
10
10
10
10
10
10
10
10
10
10
10
10
10
10
10
10
10
10
10
10
10
10
10
10
10
10
10
10
10
10
10
10
10
10
10
10
10
10
10
10
10
10
10
10
10
10
10
10
10
10
10
10
10
10
10
10
10
10
10
10
10
10
10
10
10
10
10
10
10
10
10
10
10
10
10
10
10
10
10
10
10
10
10
10
10
10
10
10
10
10
10
10
10
10
10
10
10
10
10
10
10
10
10
10
10
10
10
10
10
10
10
10
10
10
10
10
10
10
10
10
10
10
10
10
10
10
10
10
10
10
10
10
10
10
10
10
10
10
10
10
10
10
10
10
10
10
10
10
10
10
10
10
10
10
10
10
10
10
10
10
10
10
10
10
10
10
10
10
10
10
10
10
10
10
10
10
10
10
10
10
10
10
10
10
10
10
10
10
10
10
10
10
10
10
10
10
10
10
10
10
10
10
10
10
10
10
10
10
10
10
10
10
10
10
10
10
10
10
10
10
10
10
10
10
10
10
10
10
10
10
10
10
10
10
10
10
10
10
10
10
10
10
10
10
10
10
10
10
10
10
10
10
10
10
10
10
10
10
10
10
10
10
10
10
10
10
10
10
10
10
10
10
10
10
10
10
10
10
10
10
10
10
10
10
10
10
10
10
10
10
10
10
10
10
10
10
10
10
10
10
10
10
10
10
10
10
10
10
10
10
10
10
10
10
10
10
10
10
10
10
10
10
10
10
10
10
10
10
10
10
10
10
10
10
10
10
10
10
10
10
10
10
10
10
10
10
10
10
10
10
10
10
10
10
10
10
10
10
10
10
10
10
10
10
10
10
10
10
10
10
10
10
10
10
10
10
10
10
10
10
10
10
10
10
10
10
10
10
10
10
10
10
10
10
10
10
10
10
10
10
10
10
10
10
10
10
10
10
10
10
10
10
10
10
10
10
10
10
10
10
10
10
10
10
10
10
10
10
10
10
10
10
10
10
10
10
10
10
10
10
10
10
10
10
10
10
10
10
10
10
10
10
10
10
10
10
10
10
10
10
10
10
10
10
10
10
10
10
10
10
10
10
10
10
10
10
10
10
10
10
10
10
10
10
10
10
10
10
10
10
10
10
10
10
10
10
10
10
10
10
10
10
10
10
10
10
10
10
10
10
10
10
10
10
10
10
10
10
10
10
10
10
10
10
10
10
10
10
10
10
10
10
10
10
10
10
10
10
10
10
10
10
10
10
10
10
10
10
10
10
10
10
10
10
10
10
10
10
10
10
10
10
10
10
10
10
10
10
10
10
10
10
10
10
10
10
10
10
10
10
10
10
10
10
10
10
10
10
10
10
10
10
10
10
10
10
10
10
10
10
10
10
10
10
10
10
10
10
10
10
10
10
10
10
10
10
10
10
10
10
10
10
10
10
10
10
10
10
10
10
10
10
10
10
10
10
10
10
10
10
10
10
10
10
10
10
10
10
10
10
10
10
10
10
10
10
10
10
10
10
10
10
10
10
10
10
10
10
10
10
10
10
10
10
10
10
10
10
10
10
10
10
10
10
10
10
10
10
10
10
10
10
10
10
10
10
10
10
10
10
10
10
10
10
10
10
10
10
10
10
10
10
10
10
10
10
10
10
10
10
10
10
10
10
10
10
10
10
10
10
10
10
10
10
10
10
10
10
10
10
10
10
10
10
10
10
10
10
10
10
10
10
10
10
10
10
10
10
10
10
10
10
10
10
10
10
10
10
10
10
10
10
10
10
10
10
10
10
10
10
10
10
10
10
10
10
10
10
10
10
10
10
10
10
10
10
10
10
10
10
10
10
10
10
10
10
10
10
10
10
10
10
10
10
10
10
10
10
10
10
10
10
10
10
10
10
10
10
10
10
10
10
10
10
10
10
10
10
10
10
10
10
10
10
10
10
10
10
10
10
10
10
10
10
10
10
10
10
10
10
10
10
10
10
10
10
10
10
10
10
10
10
10
10
10
10
10
10
10
10
10
10
10
10
10
10
10
10
10
10
10
10
10
10
10
10
10
10
10
10
10
10
10
10
10
10
10
10
10
10
10
10
10
10
10
10
10
10
10
10
10
10
10
10
10
10
10
10
10
10
10
10
10
10
10
10
10
10
10
10
10
10
10
10
10
10
10
10
10
10
10
10
10
10
10
10
10
10
10
10
10
10
10
10
10
10
10
10
10
10
10
10
10
10
10
10
10
10
10
10
10
10
10
10
10
10
10
10
10
10
10
10
10
10
10
10
10
10
10
10
10
10
10
10
10
10
10
10
10
10
10
10
10
10
10
10
10
10
10
10
10
10
10
10
10
10
10
10
10
10
10
10
10
10
10
10
10
10
10
10
10
10
10
10
10
10
10
10
10
10
10
10
10
10
10
10
10
10
10
10
10
10
10
10
10
10
10
10
10
10
10
10
10
10
10
10
10
10
10
10
10
10
10
10
10
10
10
10
10
10
10
10
10
10
10
10
10
10
10
10
10
10
10
10
10
10
10
10
10
10
10
10
10
10
10
10
10
10
10
10
10
10
10
10
10
10
10
10
10
10
10
10
10
10
10
10
10
10
10
10
10
10
10
10
10
10
10
10
10
10
10
10
10
10
10
10
10
10
10
10
10
10
10
10
10
10
10
10
10
10
10
10
10
10
10
10
10
10
10
10
10
10
10
10
10
10
10
10
10
10
10
10
10
10
10
10
10
10
10
10
10
10
10
10
10
10
10
10
10
10
10
10
10
10
10
10
10
10
10
10
10
10
10
10
10
10
10
10
10
10
10
10
10
10
10
10
10
10
10
10
10
10
10
10
10
10
10
10
10
10
10
10
10
10
10
10
10
10
10
10
10
10
10
10
10
10
10
10
10
10
10
10
10
10
10
10
10
10
10
10
10
10
10
10
10
10
10
10
10
10
10
10
10
10
10
10
10
10
10
10
10
10
10
10
10
10
10
10
10
10
10
10
10
10
10
10
10
10
10
10
10
10
10
10
10
10
10
10
10
10
10
10
10
10
10
10
10
10
10
10
10
10
10
10
10
10
10
10
10
10
10
10
10
10
10
10
10
10
10
10
10
10
10
10
10
10
10
10
10
10
10
10
10
10
10
10
10
10
10
10
10
10
10
10
10
10
10
10
10
10
10
10
10
10
10
10
10
10
10
10
10
10
10
10
10
10
10
10
10

CELL_DATA 1507
SCALARS CellEntityIds int 1
LOOKUP_TABLE default
1
1
1
1
1
1
1
1
1
1
1
1
1
1
1
1
1
1
1
1
1
1
1
1
1
1
1
1
1
1
1
1
1
1
1
1
1
1
1
1
1
1
1
1
1
1
1
1
1
1
1
1
1
1
1
1
1
1
1
1
1
1
1
1
1
1
1
1
1
1
1
1
1
1
1
1
1
1
1
1
1
1
1
1
1
1
1
1
1
1
1
1
1
1
1
1
1
1
1
1
1
1
1
1
1
1
1
1
1
1
1
1
1
1
1
1
1
1
1
1
1
1
1
1
1
1
1
1
1
1
1
1
1
1
1
1
1
1
1
1
1
1
1
1
1
1
1
1
1
1
1
1
1
1
1
1
1
1
1
1
1
1
1
1
1
1
1
1
1
1
1
1
1
1
1
1
1
1
1
1
1
1
1
1
1
1
1
1
1
1
1
1
1
1
1
1
1
1
1
1
1
1
1
1
1
1
1
1
1
1
1
1
1
1
1
1
1
1
1
1
1
1
1
1
1
1
1
1
1
1
1
1
1
1
1
1
1
1
1
1
1
1
1
1
1
1
1
1
1
1
1
1
1
1
1
1
1
1
1
1
1
1
1
1
1
1
1
1
1
1
1
1
1
1
1
1
1
1
1
1
1
1
1
1
1
1
1
1
1
1
1
1
1
1
1
1
1
1
1
1
1
1
1
1
1
1
1
1
1
1
1
1
1
1
1
1
1
1
1
1
1
1
1
1
1
1
1
1
1
1
1
1
1
1
1
1
1
1
1
1
1
1
1
1
1
1
1
1
1
1
1
1
1
1
1
1
1
1
1
1
1
1
1
1
1
1
1
1
1
1
1
1
1
1
1
1
1
1
1
1
1
1
1
1
1
1
1
1
1
1
1
1
1
1
1
1
1
1
1
1
1
1
1
1
1
1
1
1
1
1
1
1
1
1
1
1
1
1
1
1
1
1
1
1
1
1
1
1
1
1
1
1
1
1
1
1
1
1
1
1
1
1
1
1
1
1
1
1
1
1
1
1
1
1
1
1
1
1
1
1
1
1
1
1
1
1
1
1
1
1
1
1
1
1
1
1
1
1
1
1
1
1
1
1
1
1
1
1
1
1
1
1
1
1
1
1
1
1
1
1
1
1
1
1
1
1
1
1
1
1
1
1
1
1
1
1
1
1
1
1
1
1
1
1
1
1
1
1
1
1
1
1
1
1
1
1
1
1
1
1
1
1
1
1
1
1
1
1
1
1
1
1
1
1
1
1
1
1
1
1
1
1
1
1
1
1
1
1
1
1
1
1
1
1
1
1
1
1
1
1
1
1
1
1
1
1
1
1
1
1
1
1
1
1
1
1
1
1
1
1
1
1
1
1
1
1
1
1
1
1
1
1
1
1
1
1
1
1
1
1
1
1
1
1
1
1
1
1
1
1
1
1
1
1
1
1
1
1
1
1
1
1
1
1
1
1
1
1
1
1
1
1
1
1
1
1
1
1
1
1
1
1
1
1
1
1
1
1
1
1
1
1
1
1
1
1
1
1
1
1
1
1
1
1
1
1
1
1
1
1
1
1
1
1
1
1
1
1
1
1
1
1
1
1
1
1
1
1
1
1
1
1
1
1
1
1
1
1
1
1
1
1
1
1
1
1
1
1
1
1
1
1
1
1
1
1
1
1
1
1
1
1
1
1
1
1
1
1
1
1
1
1
1
1
1
1
1
1
1
1
1
1
1
1
1
1
1
1
1
1
1
1
1
1
1
1
1
1
1
1
1
1
1
1
1
1
1
1
1
1
1
1
1
1
1
1
1
1
1
1
1
1
1
1
1
1
1
1
1
1
1
1
1
1
1
1
1
1
1
1
1
1
1
1
1
1
1
1
1
1
1
1
1
1
1
1
1
1
1
1
1
1
1
1
1
1
1
1
1
1
1
1
1
1
1
1
1
1
1
1
1
1
1
1
1
1
1
1
1
1
1
1
1
1
1
1
1
1
1
1
1
1
1
1
1
1
1
1
1
1
1
1
1
1
1
1
1
1
1
1
1
1
1
1
1
1
1
1
1
1
1
1
1
1
1
1
1
1
1
1
1
1
1
1
1
1
1
1
1
1
1
1
1
1
1
1
1
1
1
1
1
1
1
1
1
1
1
1
1
1
1
1
1
1
1
1
1
1
1
1
1
1
1
1
1
1
1
1
1
1
1
1
1
1
1
1
1
1
1
1
1
1
1
1
1
1
1
1
1
1
1
1
1
1
1
1
1
1
1
1
1
1
1
1
1
1
1
1
1
1
1
1
1
1
1
1
1
1
1
1
1
1
1
1
1
1
1
1
1
1
1
1
1
1
1
1
1
1
1
1
1
1
1
1
1
1
1
1
1
1
1
1
1
1
1
1
1
1
1
1
1
1
1
1
1
1
1
1
1
1
1
1
1
1
1
1
1
1
1
1
1
1
1
1
1
1
1
1
1
1
1
1
1
1
1
1
1
1
1
1
1
1
1
1
1
1
1
1
1
1
1
1
1
1
1
1
1
1
1
1
1
1
1
1
1
1
1
1
1
1
1
1
1
1
1
1
1
1
1
1
1
1
1
1
1
1
1
1
1
1
1
1
1
1
1
1
1
1
1
1
1
1
1
1
1
1
1
1
1
1
1
1
1
1
1
1
1
1
1
1
1
1
1
1
1
1
1
1
1
1
1
1
1
1
1
1
1
1
1
1
1
1
1
1
1
1
1
1
1
1
1
1
1
1
1
1
1
1
1
1
1
1
1
1
1
1
1
1
1
1
1
1
1
1
1
1
1
1
1
1
1
1
1
1
1
1
1
1
1
1
1
1
1
1
1
1
1
1
1
1
1
1
1
1
1
1
1
1
1
1
1
1
1
1
1
1
1
1
1
1
1
1
1
1
1
1
1
1
1
1
1
1
1
1
1
1
1
1
1
1
1
1
1
1
1
1
1
1
1
1
1
1
1
1
1
1
1
1
1
1
1
1
1
1
1
1
1
1
1
1
1
1
1
1
1
1
1
1
1
1
1
1
1
1
1
1
1
1
1
1
1
1
1
1
1
1
1
1
1
1
1
1
1
1
1
1
1
1
1
1
1
1
1
1
1
1
1
1
1
1
1
1
1
1
1
1
1
1
1
1
1
1
1
1
1
1
1
1
1
1
1
1
1
1
1
1
1
1
1
1
1
1
1
1
1
1
1
1
1
1
1
1
1
1
1
1
1
1
1
1
1
1
1
1
1
1
1
1
1
1
1
1
1
1
1
1
1
1
1
1
1
1
1
1
1
1
1
1
1
1
1
1
1
1
1
1
1
1
1
1
1
1
1
1
1
1
1
1
1
1
1
1
1
1
1
1
1
1
1
1
1
1
1
1
1
1
1
1
1
1
1
1
1
1
1
1
1
