# vtk DataFile Version 2.0
rectangle, Created by Gmsh 4.15.0 
ASCII
DATASET UNSTRUCTURED_GRID
POINTS 64 double
-0.025 -0.0025 -0.0005
0.025 -0.0025 -0.0005
0.025 0.0025 -0.0005
-0.025 0.0025 -0.0005
-0.025 -0.0025 0.0005
0.025 -0.0025 0.0005
0.025 0.0025 0.0005
-0.025 0.0025 0.0005
-0.02000000000001098 -0.0025 -0.0005
-0.01500000000002304 -0.0025 -0.0005
-0.01000000000003727 -0.0025 -0.0005
-0.005000000000052851 -0.0025 -0.0005
-6.639827576648827e-14 -0.0025 -0.0005
0.004999999999946613 -0.0025 -0.0005
0.009999999999959479 -0.0025 -0.0005
0.01499999999997342 -0.0025 -0.0005
0.01999999999998631 -0.0025 -0.0005
0.02000000000001098 0.0025 -0.0005
0.01500000000002304 0.0025 -0.0005
0.01000000000003727 0.0025 -0.0005
0.005000000000052851 0.0025 -0.0005
6.639827576648827e-14 0.0025 -0.0005
-0.004999999999946613 0.0025 -0.0005
-0.009999999999959479 0.0025 -0.0005
-0.01499999999997342 0.0025 -0.0005
-0.01999999999998631 0.0025 -0.0005
-0.02000000000001098 -0.0025 0.0005
-0.01500000000002304 -0.0025 0.0005
-0.01000000000003727 -0.0025 0.0005
-0.005000000000052851 -0.0025 0.0005
-6.639827576648827e-14 -0.0025 0.0005
0.004999999999946613 -0.0025 0.0005
0.009999999999959479 -0.0025 0.0005
0.01499999999997342 -0.0025 0.0005
0.01999999999998631 -0.0025 0.0005
0.02000000000001098 0.0025 0.0005
0.01500000000002304 0.0025 0.0005
0.01000000000003727 0.0025 0.0005
0.005000000000052851 0.0025 0.0005
6.639827576648827e-14 0.0025 0.0005
-0.004999999999946613 0.0025 0.0005
-0.009999999999959479 0.0025 0.0005
-0.01499999999997342 0.0025 0.0005
-0.01999999999998631 0.0025 0.0005
0.02250000000000549 0 -0.0005
-0.02250000000000549 0 -0.0005
-0.01750000000000489 -4.134424284361526e-15 -0.0005
0.01750000000000489 4.134279724071861e-15 -0.0005
-0.01250000000000719 -7.1716419934877e-15 -0.0005
0.01250000000000719 7.171473339816426e-15 -0.0005
-0.007500000000010503 -1.004850494640808e-14 -0.0005
0.007500000000010503 1.004825999702837e-14 -0.0005
0.002500000000059624 5.311895400409177e-14 -0.0005
-0.002500000000059624 -5.311895400409177e-14 -0.0005
-0.02250000000000549 0 0.0005
0.02250000000000549 0 0.0005
-0.01750000000000489 -4.134424284361526e-15 0.0005
0.01750000000000489 4.133990603542395e-15 0.0005
-0.01250000000000719 -7.1716419934877e-15 0.0005
0.01250000000000719 7.171425153061514e-15 0.0005
-0.007500000000010503 -1.004850720537375e-14 0.0005
0.007500000000010503 1.004825196590255e-14 0.0005
-0.002500000000059624 -5.31189675578858e-14 0.0005
0.002500000000059624 5.311895400409177e-14 0.0005

CELLS 120 600
4 59 14 51 49
4 14 59 15 49
4 56 8 54 46
4 8 54 46 45
4 50 58 10 60
4 58 50 10 48
4 61 59 51 37
4 56 9 48 58
4 49 37 51 59
4 57 59 36 49
4 46 48 56 9
4 47 49 57 18
4 54 46 45 43
4 46 54 56 43
4 50 41 58 60
4 59 61 51 32
4 48 42 56 58
4 15 59 57 49
4 50 58 23 48
4 42 46 48 56
4 47 49 15 57
4 25 45 46 43
4 47 44 34 16
4 59 15 57 33
4 59 14 32 51
4 53 50 11 62
4 52 20 63 51
4 22 62 50 53
4 52 31 51 63
4 61 63 38 51
4 60 11 50 62
4 60 50 40 62
4 63 31 51 61
4 63 31 30 52
4 39 63 30 52
4 62 22 21 53
4 62 21 12 53
4 39 52 20 63
4 12 11 62 53
4 42 48 23 58
4 40 41 50 60
4 51 31 32 61
4 3 45 43 54
4 55 1 34 44
4 57 55 17 35
4 8 56 54 26
4 37 49 51 19
4 58 28 10 60
4 34 47 15 57
4 42 43 46 56
4 9 56 27 58
4 18 57 36 49
4 59 14 15 32
4 59 33 32 15
4 14 32 51 13
4 3 45 25 43
4 43 7 3 54
4 44 1 34 16
4 46 24 25 43
4 47 34 15 16
4 34 15 33 57
4 5 2 55 6
4 3 0 45 54
4 55 2 1 44
4 0 8 45 54
4 9 10 48 58
4 18 17 57 47
4 8 9 46 56
4 51 37 38 61
4 59 37 36 49
4 11 10 60 50
4 3 4 54 7
4 2 55 17 44
4 6 2 55 35
4 46 42 48 24
4 41 50 58 23
4 20 38 63 51
4 60 29 11 62
4 62 22 50 40
4 31 52 51 13
4 31 12 30 52
4 62 21 40 39
4 62 30 12 39
4 39 30 12 52
4 62 22 40 21
4 31 12 52 13
4 20 39 63 38
4 11 30 62 29
4 21 62 12 39
4 21 39 12 52
4 1 55 34 5
4 41 42 23 58
4 24 48 23 42
4 22 41 50 40
4 41 22 50 23
4 51 31 13 32
4 30 11 62 12
4 52 39 20 21
4 46 24 43 42
4 4 3 54 0
4 27 8 56 9
4 19 18 37 49
4 28 9 58 10
4 57 36 17 18
4 0 8 54 26
4 29 10 28 60
4 37 51 38 19
4 57 36 35 17
4 8 27 56 26
4 28 9 27 58
4 18 36 37 49
4 29 10 60 11
4 38 19 51 20
4 2 5 55 1
4 2 55 35 17
4 54 4 0 26
4 47 57 44 17
4 47 44 57 34
4 55 44 57 17
4 55 57 44 34

CELL_TYPES 120
10
10
10
10
10
10
10
10
10
10
10
10
10
10
10
10
10
10
10
10
10
10
10
10
10
10
10
10
10
10
10
10
10
10
10
10
10
10
10
10
10
10
10
10
10
10
10
10
10
10
10
10
10
10
10
10
10
10
10
10
10
10
10
10
10
10
10
10
10
10
10
10
10
10
10
10
10
10
10
10
10
10
10
10
10
10
10
10
10
10
10
10
10
10
10
10
10
10
10
10
10
10
10
10
10
10
10
10
10
10
10
10
10
10
10
10
10
10
10
10

CELL_DATA 120
SCALARS CellEntityIds int 1
LOOKUP_TABLE default
1
1
1
1
1
1
1
1
1
1
1
1
1
1
1
1
1
1
1
1
1
1
1
1
1
1
1
1
1
1
1
1
1
1
1
1
1
1
1
1
1
1
1
1
1
1
1
1
1
1
1
1
1
1
1
1
1
1
1
1
1
1
1
1
1
1
1
1
1
1
1
1
1
1
1
1
1
1
1
1
1
1
1
1
1
1
1
1
1
1
1
1
1
1
1
1
1
1
1
1
1
1
1
1
1
1
1
1
1
1
1
1
1
1
1
1
1
1
1
1
