o convex_0
v -0.011053 -0.050354 0.005947
v -0.052130 -0.104666 0.014779
v -0.052130 -0.104666 0.016105
v -0.025188 -0.050792 0.011687
v -0.040644 -0.102904 0.018754
v -0.040644 -0.093625 0.008155
v -0.040644 -0.105109 0.012130
v -0.014589 -0.050354 0.012130
v -0.020774 -0.050354 0.005506
v -0.038437 -0.086119 0.018313
v -0.050801 -0.100694 0.012130
v -0.019445 -0.068458 0.011246
v -0.050801 -0.100251 0.017870
v -0.023859 -0.067134 0.005506
v -0.042851 -0.104228 0.009923
v -0.023859 -0.051235 0.013012
v -0.039319 -0.104666 0.016546
v -0.024745 -0.050354 0.009040
v -0.051687 -0.099813 0.015220
v -0.026952 -0.070663 0.016103
v -0.045944 -0.104228 0.019639
v -0.015471 -0.057861 0.011687
v -0.019888 -0.068458 0.008155
v -0.038880 -0.081704 0.008597
v -0.019006 -0.050354 0.004621
v -0.045944 -0.105558 0.010364
v -0.013703 -0.052997 0.005063
v -0.010614 -0.050792 0.007714
v -0.021652 -0.070225 0.013454
v -0.038880 -0.104228 0.014779
v -0.048151 -0.100251 0.019196
v -0.024302 -0.052116 0.007273
v -0.043294 -0.102018 0.019639
v -0.019888 -0.062276 0.013895
v -0.017682 -0.050792 0.013012
v -0.042412 -0.093182 0.008597
v -0.045062 -0.089210 0.011248
v -0.026070 -0.076851 0.007714
v -0.046826 -0.102904 0.009923
v -0.051244 -0.104666 0.017870
v -0.045501 -0.088329 0.013013
v -0.051687 -0.099813 0.016105
v -0.031370 -0.072873 0.016546
v -0.020774 -0.071106 0.009923
v -0.050801 -0.105109 0.012572
v -0.013264 -0.050792 0.004621
v -0.039319 -0.103785 0.017429
v -0.041530 -0.104666 0.010805
v -0.041530 -0.105558 0.012572
v -0.041087 -0.101575 0.019196
v -0.034463 -0.082590 0.017870
v -0.024302 -0.071106 0.006389
v -0.038880 -0.093625 0.008155
v -0.039319 -0.104666 0.013895
v -0.013703 -0.056093 0.006389
v -0.023859 -0.050354 0.012571
v -0.025188 -0.067134 0.005506
v -0.011496 -0.050354 0.009481
v -0.051687 -0.100694 0.013454
v -0.040644 -0.104666 0.017870
v -0.019445 -0.056537 0.013895
v -0.030045 -0.083909 0.016103
v -0.026952 -0.072430 0.016103
v -0.051244 -0.105109 0.015662
f 49 60 64 
f 8 1 9 
f 8 9 18 
f 2 3 19 
f 9 1 25 
f 24 9 25 
f 22 12 28 
f 12 22 29 
f 12 17 30 
f 10 16 31 
f 16 13 31 
f 18 9 32 
f 9 24 32 
f 21 5 33 
f 10 31 33 
f 31 21 33 
f 22 8 34 
f 29 22 34 
f 11 24 36 
f 25 6 36 
f 24 25 36 
f 24 11 37 
f 18 32 37 
f 32 24 37 
f 6 15 39 
f 15 26 39 
f 11 36 39 
f 36 6 39 
f 31 13 40 
f 21 31 40 
f 4 18 41 
f 18 37 41 
f 13 4 42 
f 19 3 42 
f 3 40 42 
f 40 13 42 
f 4 41 42 
f 41 19 42 
f 16 10 43 
f 35 16 43 
f 28 12 44 
f 12 30 44 
f 11 39 45 
f 39 26 45 
f 25 1 46 
f 1 27 46 
f 17 12 47 
f 12 29 47 
f 23 7 48 
f 26 15 48 
f 15 38 48 
f 38 23 48 
f 48 7 49 
f 26 48 49 
f 33 5 50 
f 10 33 51 
f 43 10 51 
f 20 43 51 
f 33 50 51 
f 38 15 52 
f 27 38 52 
f 14 46 52 
f 46 27 52 
f 6 14 53 
f 15 6 53 
f 14 52 53 
f 52 15 53 
f 7 23 54 
f 30 17 54 
f 23 44 54 
f 44 30 54 
f 49 7 54 
f 17 49 54 
f 27 1 55 
f 1 28 55 
f 23 38 55 
f 38 27 55 
f 28 44 55 
f 44 23 55 
f 4 13 56 
f 13 16 56 
f 18 4 56 
f 8 18 56 
f 35 8 56 
f 16 35 56 
f 14 6 57 
f 6 25 57 
f 25 46 57 
f 46 14 57 
f 1 8 58 
f 8 22 58 
f 28 1 58 
f 22 28 58 
f 2 19 59 
f 37 11 59 
f 19 41 59 
f 41 37 59 
f 45 2 59 
f 11 45 59 
f 5 21 60 
f 21 40 60 
f 17 47 60 
f 47 5 60 
f 49 17 60 
f 34 8 61 
f 8 35 61 
f 43 20 61 
f 35 43 61 
f 29 34 62 
f 5 47 62 
f 47 29 62 
f 50 5 62 
f 50 62 63 
f 20 51 63 
f 51 50 63 
f 61 20 63 
f 34 61 63 
f 62 34 63 
f 3 2 64 
f 40 3 64 
f 2 45 64 
f 45 26 64 
f 26 49 64 
f 60 40 64 
o convex_1
v -0.023857 -0.047694 0.009920
v -0.004868 -0.038862 0.006388
v -0.004868 -0.040187 0.006388
v -0.011494 -0.038862 0.001970
v -0.012821 -0.050344 0.004622
v -0.013263 -0.038862 0.012571
v -0.014586 -0.050344 0.012129
v -0.019442 -0.038862 0.008153
v -0.022090 -0.050344 0.006388
v -0.023857 -0.050344 0.012571
v -0.010613 -0.050344 0.008153
v -0.005755 -0.041512 0.004180
v -0.017234 -0.038862 0.012129
v -0.018999 -0.050344 0.004622
v -0.017674 -0.038862 0.005506
v -0.010169 -0.042837 0.010804
v -0.008845 -0.039304 0.001970
v -0.024299 -0.049902 0.008595
v -0.022976 -0.045927 0.011245
v -0.011053 -0.049902 0.009479
v -0.010169 -0.049902 0.006388
v -0.015909 -0.050344 0.012571
v -0.008405 -0.038862 0.009920
v -0.015909 -0.049902 0.004180
v -0.019442 -0.039304 0.010362
v -0.004868 -0.038862 0.004622
v -0.019882 -0.049460 0.005063
f 73 79 91 
f 66 68 70 
f 70 68 72 
f 69 71 73 
f 73 71 74 
f 71 69 75 
f 70 72 77 
f 74 70 77 
f 69 73 78 
f 72 68 79 
f 70 71 80 
f 76 69 81 
f 65 72 82 
f 74 65 82 
f 73 74 82 
f 72 79 82 
f 79 73 82 
f 72 65 83 
f 65 74 83 
f 74 77 83 
f 75 67 84 
f 71 75 84 
f 67 80 84 
f 80 71 84 
f 67 75 85 
f 75 69 85 
f 76 67 85 
f 69 76 85 
f 71 70 86 
f 70 74 86 
f 74 71 86 
f 67 66 87 
f 66 70 87 
f 80 67 87 
f 70 80 87 
f 78 68 88 
f 69 78 88 
f 68 81 88 
f 81 69 88 
f 77 72 89 
f 72 83 89 
f 83 77 89 
f 66 67 90 
f 68 66 90 
f 67 76 90 
f 81 68 90 
f 76 81 90 
f 68 78 91 
f 78 73 91 
f 79 68 91 
o convex_2
v 0.038860 0.010171 -0.011720
v 0.024727 0.044176 0.013896
v 0.032677 0.040200 0.012127
v 0.025169 0.040641 -0.013044
v 0.024285 0.011053 0.005062
v 0.040186 0.041527 -0.008188
v 0.039744 0.011939 0.004619
v 0.024285 0.011939 -0.009066
v 0.024285 0.017238 0.011688
v 0.040186 0.017238 -0.014371
v 0.024285 0.025191 -0.015256
v 0.034885 0.043291 0.010361
v 0.035767 0.022538 0.011243
v 0.034444 0.007076 0.000202
v 0.024285 0.044621 0.011245
v 0.040186 0.041527 -0.002888
v 0.040186 0.007521 -0.009069
v 0.040186 0.025628 -0.013929
v 0.036651 0.009730 0.005501
v 0.024285 0.033574 -0.015256
v 0.024285 0.009730 -0.003325
v 0.040186 0.007962 -0.001119
v 0.024285 0.023868 0.013012
v 0.034002 0.044176 0.007710
v 0.034885 0.028715 0.012127
v 0.037093 0.014588 -0.013929
v 0.036651 0.025191 0.010361
v 0.024285 0.041527 -0.008627
v 0.032677 0.017242 0.010800
v 0.039744 0.034019 -0.011720
v 0.024285 0.015033 0.010800
v 0.024727 0.037991 -0.014368
v 0.040186 0.041086 -0.009069
v 0.040186 0.029597 0.000202
v 0.037976 0.007521 0.002411
v 0.032677 0.009289 0.005059
v 0.038860 0.007521 -0.009069
v 0.037093 0.018124 0.009476
v 0.036651 0.022100 -0.014814
v 0.035327 0.042409 0.009919
v 0.032677 0.020332 0.011685
v 0.034444 0.044176 0.009919
v 0.024285 0.011053 -0.008188
v 0.024285 0.019006 -0.012605
v 0.035767 0.007076 -0.003767
v 0.030911 0.026510 0.012570
v 0.040186 0.012821 -0.013487
v 0.024285 0.009730 -0.000680
v 0.039744 0.017242 0.004177
v 0.024285 0.041527 0.013896
v 0.040186 0.009289 0.001526
v 0.035327 0.013262 0.008152
v 0.039744 0.041968 -0.005979
v 0.029586 0.044621 0.010361
v 0.038418 0.007076 -0.000680
v 0.038418 0.010171 0.005059
v 0.024285 0.013265 0.009037
v 0.033560 0.041964 0.011685
v 0.024285 0.040204 -0.013484
v 0.038418 0.015915 -0.014371
v 0.040186 0.022982 -0.014371
v 0.035767 0.031369 0.011243
v 0.039302 0.008848 -0.010839
v 0.040186 0.030924 -0.012602
f 124 109 155 
f 99 96 100 
f 99 100 102 
f 102 100 106 
f 101 97 107 
f 101 107 108 
f 97 101 109 
f 102 106 111 
f 96 99 112 
f 108 107 113 
f 106 100 114 
f 94 93 116 
f 92 99 117 
f 116 104 118 
f 97 95 119 
f 111 106 119 
f 100 96 122 
f 120 100 122 
f 109 111 123 
f 121 123 124 
f 95 97 124 
f 97 109 124 
f 113 107 125 
f 96 105 127 
f 105 126 127 
f 126 110 127 
f 98 118 129 
f 118 104 129 
f 104 120 129 
f 102 111 130 
f 107 103 131 
f 125 107 131 
f 114 100 132 
f 104 116 132 
f 100 120 132 
f 120 104 132 
f 93 103 133 
f 103 107 133 
f 112 99 134 
f 128 112 134 
f 99 102 135 
f 117 99 135 
f 102 117 135 
f 105 112 136 
f 128 108 136 
f 112 128 136 
f 114 132 137 
f 132 116 137 
f 101 108 138 
f 92 117 138 
f 105 96 139 
f 96 112 139 
f 112 105 139 
f 118 98 140 
f 98 125 140 
f 131 118 140 
f 125 131 140 
f 93 106 141 
f 106 114 141 
f 116 93 141 
f 114 137 141 
f 137 116 141 
f 125 98 142 
f 113 125 142 
f 126 113 142 
f 122 110 143 
f 120 122 143 
f 129 120 143 
f 107 97 144 
f 97 119 144 
f 133 107 144 
f 115 133 144 
f 106 93 145 
f 119 106 145 
f 93 133 145 
f 133 115 145 
f 144 119 145 
f 115 144 145 
f 108 113 146 
f 126 105 146 
f 113 126 146 
f 105 136 146 
f 136 108 146 
f 110 126 147 
f 98 129 147 
f 142 98 147 
f 126 142 147 
f 143 110 147 
f 129 143 147 
f 122 96 148 
f 110 122 148 
f 96 127 148 
f 127 110 148 
f 93 94 149 
f 103 93 149 
f 94 116 149 
f 119 95 150 
f 111 119 150 
f 123 111 150 
f 124 123 150 
f 95 124 150 
f 117 102 151 
f 130 101 151 
f 102 130 151 
f 101 138 151 
f 138 117 151 
f 109 101 152 
f 111 109 152 
f 101 130 152 
f 130 111 152 
f 116 118 153 
f 131 103 153 
f 118 131 153 
f 103 149 153 
f 149 116 153 
f 99 92 154 
f 108 128 154 
f 134 99 154 
f 128 134 154 
f 92 138 154 
f 138 108 154 
f 109 123 155 
f 123 121 155 
f 121 124 155 
o convex_3
v -0.009725 0.032695 -0.015695
v 0.024281 0.028720 0.012568
v 0.024281 0.026953 0.012568
v 0.018096 0.029163 -0.021880
v -0.011048 0.026953 -0.006862
v 0.022957 0.032695 0.012129
v -0.007515 0.032695 0.006826
v 0.024281 0.032695 -0.015256
v 0.000435 0.026953 0.012568
v 0.017214 0.026953 -0.021880
v -0.003540 0.026953 -0.019668
v 0.012801 0.032695 -0.022323
v 0.024281 0.026953 -0.015256
v -0.011490 0.032253 0.001524
v -0.006632 0.026953 0.008591
v 0.010591 0.027395 0.014780
v -0.005308 0.032695 -0.019668
v -0.011048 0.026953 -0.013044
v 0.024281 0.032695 0.012129
v -0.011048 0.032695 -0.013483
v 0.018096 0.032695 -0.021880
v -0.007073 0.027837 -0.017903
v 0.012801 0.029604 -0.022323
v -0.000889 0.030928 0.009917
v 0.014566 0.026953 0.014780
v -0.008397 0.026953 0.004175
v -0.010166 0.032695 0.004175
v -0.011490 0.032695 -0.005090
v 0.013242 0.026953 -0.021880
v -0.003540 0.027395 0.010799
v 0.000435 0.027395 0.012568
v -0.007073 0.032253 -0.018786
f 177 173 187 
f 161 156 162 
f 157 158 163 
f 156 161 163 
f 160 158 164 
f 158 160 165 
f 165 160 166 
f 156 163 167 
f 163 158 168 
f 159 163 168 
f 165 159 168 
f 158 165 168 
f 160 164 170 
f 156 167 172 
f 166 160 173 
f 160 169 173 
f 157 163 174 
f 163 161 174 
f 161 171 174 
f 162 156 175 
f 156 173 175 
f 163 159 176 
f 159 167 176 
f 167 163 176 
f 166 173 177 
f 159 165 178 
f 167 159 178 
f 166 172 178 
f 172 167 178 
f 161 162 179 
f 171 161 179 
f 158 157 180 
f 164 158 180 
f 171 164 180 
f 157 174 180 
f 174 171 180 
f 169 160 181 
f 160 170 181 
f 170 169 181 
f 170 162 182 
f 169 170 182 
f 162 175 182 
f 182 175 183 
f 173 169 183 
f 175 173 183 
f 169 182 183 
f 165 166 184 
f 178 165 184 
f 166 178 184 
f 170 164 185 
f 162 170 185 
f 164 171 186 
f 179 162 186 
f 171 179 186 
f 162 185 186 
f 185 164 186 
f 156 172 187 
f 172 166 187 
f 173 156 187 
f 166 177 187 
o convex_4
v -0.013702 0.017677 -0.022317
v 0.024285 0.026070 0.013008
v 0.024285 0.022976 0.013008
v 0.018101 0.026511 -0.021436
v -0.007957 0.026953 0.005939
v 0.017216 0.017677 0.016097
v 0.024285 0.017677 -0.011719
v -0.005309 0.017677 0.012567
v -0.006633 0.026953 -0.017902
v 0.000874 0.017677 -0.029390
v 0.011029 0.026953 0.015216
v 0.024285 0.026953 -0.015253
v -0.005309 0.021654 -0.026737
v -0.011051 0.026953 -0.013045
v 0.024285 0.017677 0.011686
v -0.006633 0.021654 0.011681
v -0.013702 0.017677 -0.017461
v 0.011914 0.023418 0.016547
v -0.001331 0.026953 0.012127
v 0.024285 0.026953 0.012567
v 0.012356 0.026953 -0.021431
v -0.010608 0.018561 -0.025852
v 0.018540 0.017677 -0.017016
v -0.011051 0.026953 -0.006863
v -0.007957 0.020328 0.008152
v -0.005309 0.022976 0.012567
v 0.017216 0.022535 0.016547
v 0.014123 0.018119 0.016547
v -0.003101 0.026953 -0.019669
v -0.007957 0.017677 0.007266
v -0.009723 0.022095 -0.022762
v 0.024285 0.024303 -0.015253
v 0.002202 0.017677 -0.028945
v 0.018101 0.026953 -0.021436
v -0.007072 0.017677 -0.028064
v -0.007957 0.023860 0.008152
v 0.014123 0.026511 0.015656
v 0.018540 0.024743 -0.020550
v 0.000874 0.018119 -0.029390
v -0.006633 0.026511 0.009033
v -0.012817 0.019004 -0.023203
v 0.011471 0.025626 0.016097
v -0.004424 0.018561 0.013008
v 0.017659 0.019444 0.016547
v -0.013702 0.018561 -0.021436
v -0.001331 0.021212 -0.027178
v -0.002658 0.018119 -0.029390
v 0.011914 0.020771 0.016547
f 230 215 235 
f 193 188 194 
f 189 190 194 
f 188 193 195 
f 194 188 197 
f 196 192 198 
f 196 198 199 
f 189 194 199 
f 192 196 201 
f 193 194 202 
f 194 190 202 
f 188 195 204 
f 198 192 206 
f 199 198 207 
f 189 199 207 
f 196 199 208 
f 194 197 210 
f 192 201 211 
f 203 195 213 
f 195 193 215 
f 214 205 215 
f 200 196 216 
f 196 208 216 
f 208 200 216 
f 195 203 217 
f 204 195 217 
f 212 204 217 
f 203 212 217 
f 196 200 218 
f 201 196 218 
f 200 209 218 
f 199 194 219 
f 191 199 219 
f 194 210 219 
f 210 197 220 
f 199 191 221 
f 208 199 221 
f 200 208 221 
f 191 220 221 
f 197 188 222 
f 188 209 222 
f 209 200 222 
f 192 211 223 
f 211 204 223 
f 204 212 223 
f 212 203 223 
f 189 207 224 
f 207 198 224 
f 214 189 224 
f 191 219 225 
f 219 210 225 
f 220 191 225 
f 210 220 225 
f 220 197 226 
f 221 220 226 
f 206 192 227 
f 203 213 227 
f 213 206 227 
f 192 223 227 
f 223 203 227 
f 209 188 228 
f 201 218 228 
f 218 209 228 
f 198 206 229 
f 213 205 229 
f 206 213 229 
f 205 214 229 
f 224 198 229 
f 214 224 229 
f 213 195 230 
f 205 213 230 
f 195 215 230 
f 190 189 231 
f 202 190 231 
f 193 202 231 
f 189 214 231 
f 215 193 231 
f 214 215 231 
f 188 204 232 
f 211 201 232 
f 204 211 232 
f 228 188 232 
f 201 228 232 
f 200 221 233 
f 221 226 233 
f 233 226 234 
f 197 222 234 
f 222 200 234 
f 226 197 234 
f 200 233 234 
f 215 205 235 
f 205 230 235 
o convex_5
v -0.013260 0.035345 -0.004216
v 0.003525 0.033579 0.007271
v 0.003525 0.032695 0.007271
v 0.003082 0.037113 -0.020554
v -0.009726 0.043296 0.005504
v 0.003525 0.042412 0.001085
v -0.008841 0.039319 -0.021880
v -0.004871 0.032695 -0.020113
v -0.009726 0.032695 0.005060
v -0.015026 0.042854 -0.000238
v 0.003525 0.032695 -0.019672
v 0.003525 0.039762 -0.019669
v -0.011051 0.032695 -0.013489
v 0.003525 0.040203 0.005942
v -0.015469 0.040203 -0.003772
v -0.000452 0.043296 0.002408
v -0.007517 0.036673 -0.022765
v -0.006189 0.032695 0.007271
v -0.011051 0.039319 -0.019231
v -0.013700 0.037996 0.002852
v -0.011932 0.032695 -0.000238
v 0.000431 0.038879 -0.021880
v -0.012817 0.042412 0.004175
v -0.013700 0.043296 0.001970
v -0.010609 0.037556 -0.020113
v -0.011051 0.037996 0.005504
v -0.003101 0.043296 0.005060
v 0.003082 0.039762 -0.020113
v -0.015469 0.040203 -0.000238
v -0.015469 0.041969 -0.003772
v 0.003525 0.042412 -0.002890
v -0.010168 0.039762 -0.019672
v -0.008841 0.032695 -0.017020
v -0.009726 0.041529 0.005945
v -0.011932 0.033579 0.002852
v -0.002218 0.034462 -0.021439
v -0.005310 0.038879 -0.022765
v 0.000431 0.037556 -0.021880
v -0.014143 0.042854 0.002852
f 264 255 274 
f 237 238 241 
f 243 238 244 
f 241 238 246 
f 238 243 246 
f 241 246 247 
f 246 239 247 
f 243 244 248 
f 237 241 249 
f 248 236 250 
f 238 237 253 
f 244 238 253 
f 236 248 256 
f 248 244 256 
f 240 251 259 
f 248 250 260 
f 242 252 260 
f 254 242 260 
f 250 254 260 
f 244 253 261 
f 255 244 261 
f 258 255 261 
f 240 249 262 
f 249 241 262 
f 251 240 262 
f 241 251 262 
f 247 239 263 
f 239 257 263 
f 259 251 263 
f 250 236 264 
f 236 256 264 
f 254 250 265 
f 250 264 265 
f 264 245 265 
f 241 247 266 
f 251 241 266 
f 247 263 266 
f 263 251 266 
f 242 254 267 
f 245 259 267 
f 263 242 267 
f 259 263 267 
f 265 245 267 
f 254 265 267 
f 243 248 268 
f 252 243 268 
f 248 260 268 
f 260 252 268 
f 237 249 269 
f 249 240 269 
f 253 237 269 
f 240 258 269 
f 261 253 269 
f 258 261 269 
f 244 255 270 
f 256 244 270 
f 264 256 270 
f 255 264 270 
f 246 243 271 
f 243 252 271 
f 252 242 272 
f 263 257 272 
f 242 263 272 
f 239 246 273 
f 257 239 273 
f 246 271 273 
f 271 252 273 
f 252 272 273 
f 272 257 273 
f 258 240 274 
f 255 258 274 
f 259 245 274 
f 240 259 274 
f 245 264 274 
o convex_6
v 0.003525 0.034906 -0.020111
v 0.024285 0.044620 0.013893
v 0.024285 0.041086 0.013893
v 0.003968 0.044178 0.013013
v 0.003525 0.032695 0.007269
v 0.024285 0.032695 -0.015251
v 0.018101 0.039760 -0.019668
v 0.024285 0.032695 0.012569
v 0.003525 0.039760 -0.019671
v 0.012801 0.032695 -0.022323
v 0.024285 0.040644 -0.013043
v 0.011474 0.041971 0.015657
v 0.006618 0.045063 0.013013
v 0.003525 0.032695 -0.019671
v 0.018542 0.036230 -0.021435
v 0.019426 0.045063 0.013009
v 0.007943 0.040202 0.014333
v 0.013683 0.044620 0.016105
v 0.003525 0.042410 -0.002895
v 0.007502 0.032695 0.009037
v 0.018101 0.032695 -0.021879
v 0.011917 0.038879 -0.020992
v 0.024285 0.043294 0.002409
v 0.004852 0.042852 0.013893
v 0.024285 0.037556 -0.014811
v 0.015449 0.041971 0.015657
v 0.003525 0.039318 -0.020111
v 0.013683 0.034464 -0.022323
v 0.003525 0.041086 0.005941
v 0.004411 0.044620 0.010361
v 0.021192 0.041971 0.014777
v 0.012358 0.045063 0.015657
v 0.017217 0.038879 -0.020992
v 0.020308 0.040202 -0.017019
v 0.018983 0.039318 -0.019668
f 289 307 309 
f 276 277 280 
f 280 277 282 
f 279 280 282 
f 275 279 283 
f 280 279 284 
f 276 280 285 
f 279 275 288 
f 275 284 288 
f 284 279 288 
f 282 286 291 
f 283 279 293 
f 279 282 294 
f 291 279 294 
f 282 291 294 
f 280 284 295 
f 289 280 295 
f 276 285 297 
f 290 276 297 
f 278 279 298 
f 279 291 298 
f 291 286 298 
f 286 292 298 
f 285 280 299 
f 280 289 299 
f 286 282 300 
f 292 286 300 
f 275 283 301 
f 284 275 301 
f 283 296 301 
f 301 296 302 
f 295 284 302 
f 289 295 302 
f 284 301 302 
f 279 278 303 
f 278 293 303 
f 293 279 303 
f 278 287 304 
f 287 283 304 
f 293 278 304 
f 283 293 304 
f 277 276 305 
f 282 277 305 
f 276 292 305 
f 300 282 305 
f 292 300 305 
f 287 278 306 
f 276 290 306 
f 290 287 306 
f 292 276 306 
f 278 298 306 
f 298 292 306 
f 283 281 307 
f 296 283 307 
f 302 296 307 
f 289 302 307 
f 281 283 308 
f 285 281 308 
f 283 287 308 
f 287 290 308 
f 297 285 308 
f 290 297 308 
f 281 285 309 
f 285 299 309 
f 299 289 309 
f 307 281 309 
o convex_7
v -0.029603 -0.034443 0.001971
v -0.019003 -0.026493 0.005062
v -0.019003 -0.026493 -0.000238
v -0.027835 -0.026493 0.002854
v -0.027835 -0.034885 0.004179
v -0.019003 -0.029585 0.001088
v -0.027393 -0.026493 0.001088
v -0.028718 -0.031350 0.004179
v -0.019003 -0.029585 0.003295
v -0.027393 -0.034885 0.001971
v -0.028277 -0.032676 0.001088
v -0.021654 -0.026493 0.005062
f 317 314 321 
f 311 312 313 
f 312 311 315 
f 313 312 316 
f 310 313 316 
f 313 310 317 
f 310 314 317 
f 311 314 318 
f 315 311 318 
f 315 318 319 
f 314 310 319 
f 312 315 319 
f 318 314 319 
f 310 316 320 
f 316 312 320 
f 319 310 320 
f 312 319 320 
f 311 313 321 
f 314 311 321 
f 313 317 321 
o convex_8
v -0.003985 0.004870 -0.028948
v 0.003965 0.017677 -0.025414
v 0.005289 0.015027 -0.019674
v -0.017233 0.012817 -0.019674
v 0.005732 -0.003966 -0.019674
v 0.001758 0.015468 -0.030274
v -0.001334 -0.002640 -0.026298
v -0.010605 0.017677 -0.026298
v -0.017233 0.007517 -0.020116
v -0.014139 0.017677 -0.019674
v 0.004403 0.010610 -0.028948
v 0.007942 0.011493 -0.020116
v -0.007516 -0.000432 -0.019674
v -0.010166 0.004870 -0.025856
v 0.000873 0.001777 -0.028506
v -0.003544 0.010610 -0.030274
v 0.007498 -0.000873 -0.020116
v 0.002640 0.017677 -0.019674
v -0.003985 0.017677 -0.029389
v 0.006171 0.013701 -0.025856
v -0.012376 0.013258 -0.025414
v -0.001781 -0.003083 -0.025414
v -0.007955 0.014584 -0.028506
v 0.001314 0.006635 -0.029831
v 0.004403 0.016794 -0.028064
v -0.005750 0.001335 -0.027181
v -0.014583 0.015468 -0.023208
v 0.003082 -0.003966 -0.019674
v -0.007074 0.000894 -0.025414
v 0.007942 0.000894 -0.019674
v 0.006615 0.009283 -0.024974
v 0.000873 -0.001316 -0.026739
v 0.001758 0.017677 -0.029389
v -0.001334 0.001335 -0.028506
v 0.003521 0.008841 -0.029389
v 0.006615 -0.003083 -0.020116
v -0.017677 0.008400 -0.020116
v -0.004868 0.015468 -0.029831
v -0.014139 0.017677 -0.021883
v 0.002640 0.011050 -0.030274
v -0.017233 0.007517 -0.019674
v -0.004868 0.010610 -0.029831
v 0.007054 0.013258 -0.019674
v 0.003965 0.014584 -0.029389
f 332 361 365 
f 324 325 326 
f 325 324 331 
f 323 329 331 
f 326 325 334 
f 324 323 339 
f 331 324 339 
f 323 331 339 
f 329 323 340 
f 328 326 343 
f 342 329 344 
f 335 342 344 
f 333 341 346 
f 335 322 347 
f 328 343 347 
f 329 342 348 
f 326 334 349 
f 343 326 349 
f 334 343 349 
f 334 330 350 
f 330 335 350 
f 343 334 350 
f 335 347 350 
f 347 343 350 
f 324 326 351 
f 338 332 352 
f 332 341 352 
f 341 333 352 
f 333 351 352 
f 351 338 352 
f 326 328 353 
f 328 336 353 
f 340 323 354 
f 327 340 354 
f 323 346 354 
f 336 328 355 
f 322 337 355 
f 345 336 355 
f 337 345 355 
f 347 322 355 
f 328 347 355 
f 332 338 356 
f 336 345 356 
f 351 326 357 
f 338 351 357 
f 326 353 357 
f 353 336 357 
f 356 338 357 
f 336 356 357 
f 335 330 358 
f 342 335 358 
f 325 348 358 
f 348 342 358 
f 327 337 359 
f 340 327 359 
f 329 340 359 
f 344 329 359 
f 325 331 360 
f 331 329 360 
f 348 325 360 
f 329 348 360 
f 337 327 361 
f 345 337 361 
f 332 356 361 
f 356 345 361 
f 334 325 362 
f 330 334 362 
f 325 358 362 
f 358 330 362 
f 322 335 363 
f 337 322 363 
f 335 344 363 
f 359 337 363 
f 344 359 363 
f 323 324 364 
f 346 323 364 
f 333 346 364 
f 324 351 364 
f 351 333 364 
f 341 332 365 
f 346 341 365 
f 327 354 365 
f 354 346 365 
f 361 327 365 
o convex_9
v -0.004427 -0.029585 0.014779
v -0.009286 -0.036652 -0.001121
v -0.010608 -0.038419 -0.000238
v -0.017676 -0.030468 0.009037
v -0.015909 -0.038861 0.012571
v -0.004868 -0.038861 0.006390
v -0.003101 -0.029585 0.002413
v -0.019002 -0.038861 0.007271
v -0.013259 -0.033120 0.001530
v -0.010608 -0.029585 0.015221
v -0.000892 -0.030027 0.005063
v -0.011493 -0.029585 0.003297
v -0.006194 -0.037534 0.000204
v -0.010167 -0.038861 0.011244
v -0.017676 -0.031794 0.011244
v -0.001335 -0.030027 0.011244
v -0.007077 -0.030468 0.015663
v -0.009727 -0.034002 -0.000679
v -0.016793 -0.029585 0.010802
v -0.019002 -0.038861 0.010360
v -0.004868 -0.031794 0.013895
v -0.007960 -0.038861 0.000646
v -0.012376 -0.036652 0.000204
v -0.017235 -0.030468 0.007710
v -0.006636 -0.034443 -0.000679
v -0.017235 -0.034002 0.012128
v -0.004868 -0.038861 0.004621
v -0.005751 -0.029585 0.001971
v -0.011934 -0.038861 0.012128
v -0.001335 -0.029585 0.004182
f 390 372 395 
f 371 370 373 
f 366 372 375 
f 375 372 377 
f 370 371 379 
f 371 376 381 
f 366 375 382 
f 375 370 382 
f 374 377 383 
f 375 377 384 
f 369 380 384 
f 380 375 384 
f 369 373 385 
f 373 370 385 
f 380 369 385 
f 379 371 386 
f 381 366 386 
f 371 381 386 
f 366 382 386 
f 368 367 387 
f 373 368 387 
f 371 373 387 
f 367 378 387 
f 367 368 388 
f 368 373 388 
f 373 374 388 
f 383 367 388 
f 374 383 388 
f 373 369 389 
f 374 373 389 
f 377 374 389 
f 369 384 389 
f 384 377 389 
f 378 367 390 
f 367 383 390 
f 370 375 391 
f 375 380 391 
f 385 370 391 
f 380 385 391 
f 376 371 392 
f 378 376 392 
f 371 387 392 
f 387 378 392 
f 377 372 393 
f 383 377 393 
f 372 390 393 
f 390 383 393 
f 370 379 394 
f 382 370 394 
f 379 386 394 
f 386 382 394 
f 372 366 395 
f 376 378 395 
f 366 381 395 
f 381 376 395 
f 378 390 395 
o convex_10
v -0.014584 -0.029141 -0.001562
v -0.006634 -0.009267 0.004179
v -0.006634 -0.015012 0.004179
v -0.026511 -0.026492 0.003736
v -0.013261 -0.009267 -0.005096
v -0.023418 -0.009267 0.002853
v -0.006634 -0.024283 -0.005980
v -0.027394 -0.026492 0.001086
v -0.006634 -0.009267 -0.004655
v -0.017675 -0.029585 0.002412
v -0.022975 -0.009267 -0.000680
v -0.016795 -0.022514 -0.004213
v -0.006634 -0.024283 -0.001563
v -0.022091 -0.009267 0.004179
v -0.016795 -0.026492 0.004179
v -0.019441 -0.015894 -0.003329
v -0.013704 -0.027817 -0.003329
v -0.012822 -0.021631 -0.005538
v -0.024741 -0.026492 0.004179
v -0.012377 -0.028700 -0.001562
v -0.006634 -0.018982 -0.005980
v -0.006634 -0.021631 0.000645
v -0.024302 -0.010593 0.001528
v -0.027394 -0.025609 0.002853
v -0.020327 -0.009267 -0.002446
v -0.019002 -0.029585 0.001086
v -0.007077 -0.025609 -0.004655
v -0.018118 -0.011918 -0.003772
v -0.023861 -0.009267 0.000203
f 403 418 424 
f 397 400 401 
f 397 398 402 
f 400 397 404 
f 397 402 404 
f 401 400 406 
f 402 398 408 
f 398 397 409 
f 397 401 409 
f 398 409 410 
f 407 403 411 
f 396 403 412 
f 403 407 412 
f 412 407 413 
f 402 412 413 
f 399 405 414 
f 409 399 414 
f 405 410 414 
f 410 409 414 
f 405 396 415 
f 408 405 415 
f 396 412 415 
f 400 404 416 
f 404 402 416 
f 413 400 416 
f 402 413 416 
f 408 398 417 
f 405 408 417 
f 410 405 417 
f 398 410 417 
f 403 399 419 
f 399 409 419 
f 409 401 419 
f 401 418 419 
f 418 403 419 
f 406 400 420 
f 403 406 420 
f 411 403 420 
f 403 396 421 
f 399 403 421 
f 405 399 421 
f 396 405 421 
f 402 408 422 
f 412 402 422 
f 408 415 422 
f 415 412 422 
f 407 411 423 
f 413 407 423 
f 400 413 423 
f 420 400 423 
f 411 420 423 
f 401 406 424 
f 406 403 424 
f 418 401 424 
o convex_11
v -0.004424 -0.022073 -0.000680
v 0.006615 -0.009708 -0.014373
v 0.006615 -0.009267 -0.014373
v 0.013242 -0.009267 -0.000239
v -0.006634 -0.009267 0.004179
v -0.006634 -0.024284 -0.005978
v -0.006634 -0.009267 -0.004656
v 0.008824 -0.014569 -0.005538
v 0.010149 -0.011918 0.001528
v -0.006634 -0.014569 0.004179
v 0.008382 -0.011918 -0.012163
v 0.000876 -0.019866 -0.009072
v -0.006191 -0.024726 -0.002889
v 0.003965 -0.009267 0.003736
v -0.006191 -0.020309 -0.006862
v 0.007940 -0.015451 -0.002889
v 0.013242 -0.009708 -0.003773
v 0.009265 -0.009267 -0.013488
v -0.006634 -0.021190 0.000645
v -0.002658 -0.020309 -0.009072
v -0.003099 -0.022957 -0.006862
v 0.011474 -0.011918 0.000202
v 0.006615 -0.015895 -0.000680
v 0.009707 -0.011476 0.001969
v 0.007940 -0.010592 -0.013929
v -0.005749 -0.020309 0.001086
v 0.010590 -0.009267 0.001969
v 0.006174 -0.014569 -0.011280
v -0.000008 -0.019866 -0.009511
f 452 436 453 
f 428 427 429 
f 429 427 431 
f 430 429 431 
f 429 430 434 
f 428 429 438 
f 429 434 438 
f 431 427 439 
f 430 431 439 
f 432 435 441 
f 426 427 442 
f 427 428 442 
f 428 441 442 
f 441 435 442 
f 434 430 443 
f 430 437 443 
f 437 425 443 
f 427 426 444 
f 439 427 444 
f 430 439 444 
f 436 432 445 
f 437 430 445 
f 432 440 445 
f 440 437 445 
f 428 433 446 
f 440 432 446 
f 441 428 446 
f 432 441 446 
f 433 425 447 
f 425 437 447 
f 437 440 447 
f 446 433 447 
f 440 446 447 
f 438 434 448 
f 426 442 449 
f 442 435 449 
f 425 433 450 
f 443 425 450 
f 434 443 450 
f 433 448 450 
f 448 434 450 
f 433 428 451 
f 428 438 451 
f 448 433 451 
f 438 448 451 
f 435 432 452 
f 432 436 452 
f 449 435 452 
f 449 452 453 
f 444 426 453 
f 430 444 453 
f 436 445 453 
f 445 430 453 
f 426 449 453 
o convex_12
v 0.002640 0.003543 0.021402
v -0.018115 0.007521 -0.019669
v -0.018115 0.011050 -0.019669
v 0.024285 0.017677 -0.011718
v -0.005749 0.017677 0.012124
v 0.007938 0.003543 -0.019669
v 0.020309 0.005752 0.022284
v -0.023860 0.003543 -0.004650
v -0.014144 0.017677 -0.019669
v 0.024285 0.017677 0.011683
v 0.023842 0.008403 -0.003768
v 0.011914 0.013260 0.022729
v 0.015448 0.017677 -0.018341
v 0.019424 0.003543 0.017425
v -0.013701 0.004427 0.011683
v 0.021189 0.011933 -0.016132
v -0.011052 0.003543 -0.019669
v -0.020764 0.010170 -0.009068
v 0.018540 0.010170 0.024052
v 0.011914 0.017235 0.017870
v -0.019000 0.007521 0.002410
v 0.015890 0.003543 -0.003327
v 0.012799 0.003543 0.024052
v 0.001756 0.009287 0.020075
v -0.021206 0.006194 -0.016578
v 0.003082 0.017677 -0.019669
v -0.018115 0.003543 0.007269
v 0.024285 0.011050 0.005056
v -0.007956 0.017677 0.007265
v -0.021649 0.008843 -0.014809
v 0.024285 0.010610 -0.008627
v 0.009708 0.011050 0.023170
v 0.017213 0.017677 0.016102
v 0.018982 0.015026 -0.017905
v 0.022958 0.007521 -0.004209
v -0.024303 0.003543 -0.007304
v 0.018540 0.012375 0.022725
v -0.022976 0.006635 -0.005536
v 0.019866 0.003986 0.021402
v -0.014144 0.017677 -0.017459
v 0.019866 0.009727 -0.014809
v 0.008381 0.013260 -0.019669
v 0.020309 0.010170 0.022725
v 0.013679 0.008843 0.024489
v 0.016333 0.003543 0.024052
v 0.010150 0.014142 0.021843
v -0.018115 0.005311 0.006383
v 0.008823 0.003543 -0.018787
v -0.020764 0.005311 -0.016137
v 0.020751 0.006635 0.021843
v 0.024285 0.009287 -0.000677
v 0.013241 0.015468 0.020520
v 0.024285 0.014585 0.010360
v 0.004847 0.005752 0.022284
v -0.000889 0.003543 0.019634
v 0.020309 0.016793 -0.016578
v 0.004847 0.010170 0.021402
v 0.023400 0.009287 -0.008186
v 0.010150 0.016352 0.019193
v -0.021649 0.009287 -0.013041
v 0.019424 0.012375 -0.017459
v -0.006634 0.017677 0.010801
v 0.009265 0.004427 0.023611
v -0.023860 0.005311 -0.005977
f 491 513 517 
f 455 456 459 
f 459 454 461 
f 458 457 462 
f 459 456 462 
f 457 458 463 
f 462 457 466 
f 454 459 467 
f 455 459 470 
f 459 461 470 
f 467 459 475 
f 454 467 476 
f 458 468 477 
f 456 455 478 
f 459 462 479 
f 462 466 479 
f 461 454 480 
f 457 463 481 
f 458 462 482 
f 462 456 483 
f 456 478 483 
f 469 457 484 
f 457 481 484 
f 463 458 486 
f 458 473 486 
f 464 467 488 
f 467 475 488 
f 470 461 489 
f 483 478 489 
f 465 472 490 
f 463 486 490 
f 482 471 491 
f 467 464 492 
f 482 462 493 
f 471 482 493 
f 459 479 495 
f 479 466 495 
f 466 487 495 
f 487 459 495 
f 472 460 496 
f 463 490 496 
f 490 472 496 
f 472 465 497 
f 465 485 497 
f 460 472 498 
f 476 467 498 
f 467 492 498 
f 492 460 498 
f 472 497 498 
f 497 476 498 
f 485 465 499 
f 468 458 500 
f 461 480 500 
f 480 468 500 
f 459 469 501 
f 475 459 501 
f 488 475 501 
f 469 494 501 
f 455 470 502 
f 478 455 502 
f 470 489 502 
f 489 478 502 
f 460 492 503 
f 492 481 503 
f 496 460 503 
f 463 496 503 
f 464 484 504 
f 484 481 504 
f 492 464 504 
f 481 492 504 
f 486 473 505 
f 465 490 505 
f 490 486 505 
f 499 465 505 
f 481 463 506 
f 463 503 506 
f 503 481 506 
f 497 485 507 
f 477 468 508 
f 480 454 508 
f 468 480 508 
f 454 507 508 
f 507 477 508 
f 466 457 509 
f 457 469 509 
f 487 466 509 
f 469 487 509 
f 458 477 510 
f 499 458 510 
f 485 499 510 
f 477 507 510 
f 507 485 510 
f 484 464 511 
f 469 484 511 
f 464 488 511 
f 494 469 511 
f 488 501 511 
f 501 494 511 
f 473 458 512 
f 458 499 512 
f 505 473 512 
f 499 505 512 
f 462 483 513 
f 491 471 513 
f 493 462 513 
f 471 493 513 
f 469 459 514 
f 459 487 514 
f 487 469 514 
f 458 482 515 
f 491 474 515 
f 482 491 515 
f 500 458 515 
f 474 500 515 
f 454 476 516 
f 476 497 516 
f 507 454 516 
f 497 507 516 
f 489 461 517 
f 483 489 517 
f 474 491 517 
f 500 474 517 
f 461 500 517 
f 513 483 517 
o convex_13
v 0.009268 -0.008823 0.020521
v -0.020766 -0.009267 0.005062
v -0.020766 -0.009267 0.005505
v -0.019000 0.003543 0.005947
v 0.013682 -0.005731 0.006388
v 0.013682 0.003543 0.024056
v 0.007497 0.003543 0.005062
v -0.002657 -0.001759 0.019636
v 0.019426 0.003543 0.019194
v 0.008823 -0.009267 0.005505
v 0.001757 -0.009267 0.020962
v -0.013256 0.003543 0.012133
v 0.012797 -0.009267 0.012573
v 0.015889 0.003543 0.010365
v 0.004850 0.003543 0.022288
v 0.018541 0.003099 0.022730
v -0.013697 -0.004848 0.012133
v -0.019000 0.003543 0.005062
v 0.011034 -0.006616 0.005062
v 0.004405 -0.007056 0.022288
v 0.014563 -0.006616 0.008158
v -0.002657 -0.009267 0.018753
v -0.017230 0.001774 0.009039
v -0.000891 0.001332 0.020521
v 0.007942 -0.007941 0.021845
v 0.015889 0.001774 0.009480
v -0.018115 -0.009267 0.008156
v 0.019426 0.003099 0.020960
v 0.010590 -0.009267 0.017870
v 0.012356 -0.009267 0.007714
v 0.018541 0.003099 0.015219
v 0.015448 0.003099 0.024056
v -0.015022 -0.001318 0.011248
v 0.002198 -0.003083 0.021847
v 0.014563 -0.007056 0.011248
v 0.012797 -0.003965 0.005947
v -0.001331 0.003543 0.019636
v -0.020766 -0.005291 0.005505
v 0.007942 0.002216 0.023169
v 0.014563 0.002658 0.008597
v -0.003542 -0.009267 0.005062
v 0.006616 -0.009267 0.021404
f 528 546 559 
f 521 523 524 
f 524 523 526 
f 520 519 527 
f 520 527 528 
f 523 521 529 
f 528 527 530 
f 524 526 531 
f 523 529 532 
f 526 523 533 
f 524 519 535 
f 521 524 535 
f 519 524 536 
f 520 528 539 
f 528 525 539 
f 525 534 539 
f 529 521 540 
f 529 525 541 
f 518 533 542 
f 538 522 543 
f 520 539 544 
f 539 534 544 
f 526 533 545 
f 538 526 545 
f 528 530 546 
f 533 518 546 
f 530 545 546 
f 545 533 546 
f 530 527 547 
f 536 522 547 
f 527 536 547 
f 522 538 547 
f 531 526 548 
f 526 538 548 
f 543 531 548 
f 538 543 548 
f 533 523 549 
f 523 537 549 
f 542 533 549 
f 537 542 549 
f 525 529 550 
f 534 525 550 
f 529 540 550 
f 520 544 550 
f 544 534 550 
f 525 528 551 
f 528 537 551 
f 541 525 551 
f 532 541 551 
f 545 530 552 
f 538 545 552 
f 530 547 552 
f 547 538 552 
f 522 536 553 
f 536 524 553 
f 543 522 553 
f 532 529 554 
f 529 541 554 
f 541 532 554 
f 519 520 555 
f 535 519 555 
f 521 535 555 
f 540 521 555 
f 520 550 555 
f 550 540 555 
f 523 532 556 
f 537 523 556 
f 532 551 556 
f 551 537 556 
f 524 531 557 
f 531 543 557 
f 553 524 557 
f 543 553 557 
f 527 519 558 
f 519 536 558 
f 536 527 558 
f 537 528 559 
f 518 542 559 
f 542 537 559 
f 546 518 559 
o convex_14
v -0.002218 -0.029585 0.013013
v -0.019002 -0.029585 0.002412
v -0.019002 -0.029585 0.003297
v -0.019002 -0.026493 0.002412
v -0.002662 -0.029585 0.002854
v -0.003986 -0.026493 0.016105
v 0.001316 -0.026493 0.006830
v -0.014585 -0.029585 0.012569
v -0.012815 -0.026493 0.013454
v -0.009724 -0.029585 0.015661
v -0.001335 -0.026493 0.004181
v -0.019002 -0.026493 0.004621
v -0.000452 -0.029585 0.005504
v 0.000429 -0.026935 0.012130
v -0.003543 -0.029143 0.002412
v -0.016351 -0.029143 0.010804
v -0.007962 -0.026493 0.016105
v -0.005754 -0.029585 0.015661
f 565 569 577 
f 562 561 560 
f 561 562 563 
f 560 561 564 
f 563 565 566 
f 562 560 567 
f 565 563 568 
f 567 560 569 
f 568 567 569 
f 566 564 570 
f 563 566 570 
f 563 562 571 
f 568 563 571 
f 560 564 572 
f 564 566 572 
f 572 566 573 
f 565 560 573 
f 566 565 573 
f 560 572 573 
f 561 563 574 
f 564 561 574 
f 563 570 574 
f 570 564 574 
f 562 567 575 
f 567 568 575 
f 571 562 575 
f 568 571 575 
f 565 568 576 
f 569 565 576 
f 568 569 576 
f 560 565 577 
f 569 560 577 
o convex_15
v -0.002659 -0.019426 0.017872
v -0.004423 -0.026493 0.004179
v -0.007957 -0.026493 0.004623
v -0.001333 -0.017659 0.005947
v 0.007500 -0.018101 0.010807
v -0.002663 -0.026493 0.015662
v -0.013702 -0.026049 0.012568
v -0.008841 -0.017659 0.012127
v 0.000871 -0.026493 0.005948
v 0.003524 -0.017659 0.016986
v 0.005732 -0.017659 0.006830
v 0.000873 -0.026493 0.012128
v -0.007517 -0.017659 0.015662
v -0.009283 -0.026493 0.015662
v -0.010165 -0.026049 0.005948
v -0.005305 -0.017659 0.007713
v -0.013702 -0.026493 0.009924
v -0.001779 -0.026049 0.004179
v -0.005305 -0.026493 0.016545
v 0.001755 -0.018101 0.017872
v 0.001755 -0.026493 0.007715
v 0.006616 -0.018543 0.007713
v -0.003101 -0.017659 0.017872
v 0.004848 -0.019426 0.014336
v -0.007957 -0.017659 0.010363
v 0.003080 -0.017659 0.005947
v -0.009281 -0.026049 0.005065
v -0.013702 -0.026049 0.009924
v -0.008841 -0.017659 0.013894
f 590 585 606 
f 579 580 581 
f 580 579 583 
f 583 579 586 
f 581 585 587 
f 581 587 588 
f 587 582 588 
f 583 586 589 
f 587 585 590 
f 580 583 591 
f 590 584 591 
f 585 581 593 
f 580 591 594 
f 591 584 594 
f 579 581 595 
f 586 579 595 
f 588 586 595 
f 578 591 596 
f 591 583 596 
f 583 587 597 
f 596 583 597 
f 578 596 597 
f 582 589 598 
f 589 586 598 
f 586 588 599 
f 588 582 599 
f 598 586 599 
f 582 598 599 
f 587 590 600 
f 591 578 600 
f 590 591 600 
f 597 587 600 
f 578 597 600 
f 582 587 601 
f 587 583 601 
f 589 582 601 
f 583 589 601 
f 585 593 602 
f 593 592 602 
f 581 588 603 
f 595 581 603 
f 588 595 603 
f 581 580 604 
f 592 593 604 
f 593 581 604 
f 580 594 604 
f 594 592 604 
f 584 585 605 
f 594 584 605 
f 592 594 605 
f 585 602 605 
f 602 592 605 
f 585 584 606 
f 584 590 606 
o convex_16
v -0.014142 -0.010152 0.010804
v -0.003101 -0.009267 0.004621
v -0.003101 -0.009710 0.004621
v -0.022977 -0.024724 0.004179
v -0.021651 -0.009267 0.004179
v -0.017236 -0.026493 0.004621
v -0.010171 -0.009267 0.011688
v -0.020765 -0.026050 0.005504
v -0.003986 -0.011477 0.004179
v -0.010171 -0.011034 0.011246
v -0.018559 -0.009267 0.007714
v -0.022977 -0.025608 0.004621
v -0.017236 -0.026493 0.004179
v -0.003986 -0.011477 0.004621
v -0.012380 -0.009710 0.011688
v -0.010171 -0.012801 0.009919
v -0.021651 -0.009267 0.004621
v -0.016349 -0.009267 0.009479
f 607 621 624 
f 609 608 613 
f 608 611 613 
f 608 609 615 
f 610 611 615 
f 611 608 615 
f 609 613 616 
f 614 612 616 
f 613 611 617 
f 612 614 619 
f 610 615 619 
f 615 612 619 
f 618 610 619 
f 614 618 619 
f 615 609 620 
f 612 615 620 
f 609 616 620 
f 616 613 621 
f 614 616 621 
f 618 614 621 
f 607 618 621 
f 616 612 622 
f 612 620 622 
f 620 616 622 
f 611 610 623 
f 617 611 623 
f 610 618 623 
f 618 617 623 
f 613 617 624 
f 618 607 624 
f 617 618 624 
f 621 613 624 
o convex_17
v 0.006173 -0.004405 -0.019673
v 0.012358 0.003543 -0.010397
v 0.012800 0.001774 -0.010397
v -0.019002 0.003099 -0.010397
v 0.004408 -0.009267 -0.010397
v -0.010609 0.003543 -0.019673
v 0.008380 0.003543 -0.019673
v -0.007957 -0.000433 -0.019673
v 0.008822 -0.009267 -0.014374
v 0.011916 -0.006616 -0.010839
v 0.006615 -0.009267 -0.014815
v 0.010590 -0.001318 -0.016138
v -0.019002 0.003543 -0.010397
v 0.010148 -0.009267 -0.010397
v -0.009283 -0.000433 -0.017906
v 0.008822 -0.005291 -0.017463
v -0.016792 0.003099 -0.013932
v 0.003966 -0.004405 -0.019673
v 0.004850 -0.009267 -0.012164
v 0.011032 0.002216 -0.015255
v 0.012800 -0.002200 -0.010839
v -0.019002 0.003099 -0.010839
v 0.007938 -0.000875 -0.019673
f 636 640 647 
f 627 626 628 
f 627 628 629 
f 630 626 631 
f 625 630 631 
f 630 625 632 
f 633 629 635 
f 625 633 635 
f 628 626 637 
f 626 630 637 
f 627 629 638 
f 629 633 638 
f 634 627 638 
f 633 634 638 
f 632 635 639 
f 633 625 640 
f 634 633 640 
f 636 634 640 
f 630 632 641 
f 637 630 641 
f 632 639 641 
f 632 625 642 
f 625 635 642 
f 635 632 642 
f 635 629 643 
f 639 635 643 
f 626 627 644 
f 631 626 644 
f 636 631 644 
f 636 644 645 
f 627 634 645 
f 634 636 645 
f 644 627 645 
f 629 628 646 
f 628 637 646 
f 637 641 646 
f 641 639 646 
f 643 629 646 
f 639 643 646 
f 625 631 647 
f 631 636 647 
f 640 625 647 
o convex_18
v 0.013239 -0.004848 0.001527
v -0.020767 0.003099 -0.010397
v -0.018998 -0.004848 -0.006422
v -0.019440 0.003543 0.005062
v 0.012358 0.003543 -0.010397
v 0.010146 -0.009267 -0.010397
v -0.021205 -0.009267 0.005062
v 0.009262 0.003543 0.005062
v 0.004404 -0.009267 0.003737
v -0.023859 -0.009267 0.000203
v -0.024301 0.003543 -0.005537
v 0.015892 -0.005291 -0.001564
v 0.015446 0.003543 -0.001564
v 0.004404 -0.009267 -0.010397
v 0.012358 -0.009267 0.001087
v -0.003103 -0.009267 0.005062
v -0.024740 -0.002200 -0.005980
v -0.024740 -0.003524 -0.001122
v 0.015008 -0.004848 -0.005980
v -0.019440 -0.009267 -0.002887
v 0.013681 -0.009267 -0.003329
v 0.012796 0.003543 0.002853
v 0.012796 -0.003524 -0.010397
v -0.022532 0.003543 -0.009513
v -0.023417 -0.008823 0.002853
v 0.015446 0.003543 -0.003771
v -0.020767 -0.006173 -0.005096
v 0.013239 0.000892 -0.009955
v 0.011031 -0.008823 0.001969
v -0.025186 -0.001318 -0.003329
v 0.011916 -0.007056 -0.010397
v 0.004851 -0.002641 0.005062
v 0.015008 -0.004848 0.000203
v 0.010589 0.003099 0.004621
v -0.024301 0.003543 -0.007746
v 0.015892 -0.003083 -0.003771
v -0.013256 -0.009267 -0.005096
f 667 674 684 
f 649 652 653 
f 652 651 655 
f 651 654 655 
f 654 653 656 
f 653 654 657 
f 651 652 658 
f 652 655 660 
f 650 649 661 
f 649 653 661 
f 653 657 661 
f 656 653 662 
f 655 654 663 
f 654 656 663 
f 661 657 667 
f 662 653 668 
f 659 662 668 
f 666 659 668 
f 660 655 669 
f 653 652 670 
f 652 649 671 
f 658 652 671 
f 649 664 671 
f 654 651 672 
f 657 654 672 
f 651 665 672 
f 665 657 672 
f 652 660 673 
f 649 650 674 
f 650 661 674 
f 664 649 674 
f 657 664 674 
f 667 657 674 
f 670 652 675 
f 666 670 675 
f 652 673 675 
f 662 648 676 
f 656 662 676 
f 651 658 677 
f 664 657 677 
f 665 651 677 
f 657 665 677 
f 668 653 678 
f 666 668 678 
f 653 670 678 
f 670 666 678 
f 655 663 679 
f 663 656 679 
f 656 676 679 
f 659 660 680 
f 648 662 680 
f 662 659 680 
f 660 669 680 
f 680 669 681 
f 669 655 681 
f 676 648 681 
f 655 679 681 
f 679 676 681 
f 648 680 681 
f 658 671 682 
f 671 664 682 
f 677 658 682 
f 664 677 682 
f 660 659 683 
f 659 666 683 
f 673 660 683 
f 666 675 683 
f 675 673 683 
f 661 667 684 
f 674 661 684 
o convex_19
v 0.003967 -0.016331 0.018311
v 0.003526 -0.009709 0.005504
v -0.000892 -0.017659 0.005946
v -0.010168 -0.009267 0.011690
v 0.011031 -0.009267 0.016546
v 0.007497 -0.017659 0.008597
v -0.008399 -0.017659 0.014336
v 0.002200 -0.009267 0.020964
v -0.010168 -0.015008 0.006830
v 0.010588 -0.009267 0.006388
v -0.010168 -0.009267 0.006830
v -0.001775 -0.017659 0.018311
v 0.007497 -0.009709 0.020964
v 0.012800 -0.009709 0.009921
v -0.002659 -0.009267 0.018753
v 0.007497 -0.017659 0.011248
v 0.003083 -0.017659 0.005946
v 0.010147 -0.010592 0.017427
v -0.007515 -0.017217 0.015660
v -0.007958 -0.017659 0.010365
v 0.003967 -0.017659 0.016988
v 0.008383 -0.009267 0.005504
v 0.006170 -0.017659 0.006830
v 0.012800 -0.009709 0.011689
v 0.012358 -0.009709 0.008155
v 0.005730 -0.010592 0.020964
v -0.008842 -0.017659 0.013452
v -0.002659 -0.015892 0.018311
v -0.004426 -0.009267 0.017429
f 703 699 713 
f 687 690 691 
f 689 688 692 
f 686 687 693 
f 688 689 694 
f 686 693 695 
f 693 688 695 
f 688 694 695 
f 691 690 696 
f 689 692 697 
f 694 689 698 
f 692 688 699 
f 696 690 700 
f 690 698 700 
f 687 686 701 
f 690 687 701 
f 697 685 702 
f 689 697 702 
f 688 691 703 
f 691 696 703 
f 687 691 704 
f 693 687 704 
f 685 696 705 
f 696 700 705 
f 702 685 705 
f 700 702 705 
f 686 695 706 
f 695 694 706 
f 701 686 706 
f 701 706 707 
f 690 701 707 
f 706 694 707 
f 698 689 708 
f 700 698 708 
f 689 702 708 
f 702 700 708 
f 698 690 709 
f 694 698 709 
f 690 707 709 
f 707 694 709 
f 696 685 710 
f 692 696 710 
f 697 692 710 
f 685 697 710 
f 691 688 711 
f 688 693 711 
f 704 691 711 
f 693 704 711 
f 696 692 712 
f 692 699 712 
f 703 696 712 
f 699 703 712 
f 699 688 713 
f 688 703 713 
