o convex_0
v -0.048116 0.004938 0.107350
v -0.047024 0.006030 0.109170
v -0.047024 0.006394 0.108806
v -0.048480 0.006030 0.108806
v -0.047024 0.004574 0.108806
f 2 4 5 
f 2 3 4 
f 3 1 4 
f 4 1 5 
f 1 3 5 
f 3 2 5 
o convex_1
v -0.051392 -0.002345 0.084049
v -0.051029 -0.022728 0.092783
v -0.049937 -0.022728 0.092783
v -0.047025 -0.011810 0.060391
v -0.046660 -0.005621 0.094601
v -0.052848 -0.011810 0.069492
v -0.052848 -0.009627 0.106253
v -0.046661 -0.020908 0.094606
v -0.046660 -0.003801 0.066214
v -0.052848 -0.021636 0.103339
v -0.046661 -0.018359 0.070220
v -0.052848 -0.005621 0.072402
v -0.052848 -0.017996 0.077503
v -0.052848 -0.004167 0.100429
v -0.046660 -0.001981 0.082958
v -0.047389 -0.015446 0.098243
v -0.047024 -0.007076 0.061118
v -0.046661 -0.021999 0.085868
v -0.052848 -0.021636 0.088777
v -0.052848 -0.003072 0.079685
v -0.052485 -0.017268 0.105889
v -0.047024 -0.001981 0.072406
v -0.046661 -0.013992 0.062214
v -0.052120 -0.008898 0.105526
v -0.046660 -0.003072 0.090232
v -0.052848 -0.003072 0.094965
v -0.046661 -0.011081 0.096788
v -0.052848 -0.008534 0.069492
v -0.052485 -0.005258 0.102975
v -0.047025 -0.020179 0.076043
v -0.052485 -0.022728 0.101157
v -0.052848 -0.014719 0.072038
v -0.047025 -0.016176 0.065487
v -0.046661 -0.021999 0.092055
v -0.046661 -0.019816 0.095692
v -0.048117 -0.003801 0.068037
v -0.047752 -0.009625 0.061118
v -0.052848 -0.022728 0.093874
v -0.052485 -0.020908 0.104066
v -0.052120 -0.011810 0.105889
v -0.050665 -0.019088 0.077139
v -0.046661 -0.008534 0.060391
v -0.047389 -0.004894 0.064396
v -0.047025 -0.013992 0.062214
v -0.048844 -0.001981 0.077139
v -0.046660 -0.008168 0.096060
v -0.052120 -0.004167 0.074225
v -0.052848 -0.002710 0.090237
v -0.046661 -0.017266 0.096788
v -0.052848 -0.016539 0.074589
v -0.047025 -0.018359 0.070220
v -0.052485 -0.007807 0.105526
v -0.047025 -0.002708 0.089141
v -0.046660 -0.004165 0.092783
v -0.051756 -0.016176 0.105157
v -0.052485 -0.020179 0.082963
v -0.052848 -0.006350 0.071311
v -0.052848 -0.010718 0.069129
v -0.052848 -0.002710 0.082599
v -0.052848 -0.015810 0.106253
f 26 45 65 
f 12 11 15 
f 11 12 17 
f 15 11 18 
f 17 12 19 
f 10 14 20 
f 8 7 23 
f 16 14 23 
f 15 18 24 
f 17 19 25 
f 20 14 27 
f 14 16 28 
f 10 20 30 
f 25 19 31 
f 11 17 33 
f 19 12 34 
f 30 19 34 
f 16 23 35 
f 7 8 36 
f 18 11 37 
f 28 16 38 
f 8 23 39 
f 36 8 39 
f 13 36 39 
f 27 14 41 
f 33 22 42 
f 23 7 43 
f 15 24 43 
f 35 23 43 
f 24 35 43 
f 7 36 43 
f 36 15 43 
f 26 15 44 
f 36 13 44 
f 15 36 44 
f 13 40 44 
f 40 26 44 
f 29 12 45 
f 21 32 45 
f 32 29 45 
f 22 14 47 
f 28 9 47 
f 14 28 47 
f 9 42 47 
f 42 22 47 
f 14 22 48 
f 41 14 48 
f 11 9 49 
f 9 28 49 
f 37 11 49 
f 28 38 49 
f 6 20 50 
f 20 27 50 
f 27 25 50 
f 14 10 51 
f 23 14 51 
f 29 32 51 
f 13 39 51 
f 39 23 51 
f 40 13 51 
f 17 25 52 
f 25 27 52 
f 27 41 52 
f 48 17 52 
f 41 48 52 
f 20 6 53 
f 31 20 53 
f 25 31 53 
f 32 21 54 
f 26 40 54 
f 51 32 54 
f 40 51 54 
f 18 37 55 
f 38 18 55 
f 37 49 55 
f 49 38 55 
f 16 35 56 
f 38 16 56 
f 18 38 56 
f 46 18 56 
f 35 46 56 
f 12 29 57 
f 34 12 57 
f 10 34 57 
f 51 10 57 
f 29 51 57 
f 19 30 58 
f 30 20 58 
f 20 31 58 
f 31 19 58 
f 10 30 59 
f 34 10 59 
f 30 34 59 
f 45 26 60 
f 21 45 60 
f 54 21 60 
f 26 54 60 
f 24 18 61 
f 35 24 61 
f 18 46 61 
f 46 35 61 
f 33 17 62 
f 22 33 62 
f 48 22 62 
f 17 48 62 
f 9 11 63 
f 11 33 63 
f 42 9 63 
f 33 42 63 
f 6 50 64 
f 50 25 64 
f 53 6 64 
f 25 53 64 
f 12 15 65 
f 15 26 65 
f 45 12 65 
o convex_2
v -0.026273 0.002024 0.042907
v -0.024817 -0.019454 0.049822
v -0.024088 -0.019454 0.049822
v -0.023724 -0.011442 0.013059
v -0.027729 -0.015811 0.027262
v -0.027729 -0.015084 0.066211
v -0.023724 -0.000523 0.054193
v -0.027729 -0.002344 0.031263
v -0.027729 -0.000527 0.059286
v -0.023724 -0.000888 0.024349
v -0.023724 -0.016540 0.059656
v -0.023724 -0.017269 0.021799
v -0.027729 -0.019454 0.061836
v -0.027729 -0.008171 0.024349
v -0.024088 -0.005257 0.015608
v -0.027729 -0.018723 0.040363
v -0.023724 0.002390 0.044000
v -0.027365 -0.009257 0.065478
v -0.023724 -0.010715 0.060020
v -0.027729 0.001295 0.042907
v -0.024453 -0.014720 0.015972
v -0.023724 -0.018723 0.032361
v -0.027729 -0.013264 0.023985
v -0.023724 -0.019086 0.055285
v -0.027365 -0.004530 0.063292
v -0.024088 0.002024 0.035634
v -0.024088 -0.008532 0.013059
v -0.027365 -0.018359 0.064390
v -0.027729 0.001295 0.050550
v -0.024088 -0.016540 0.018157
v -0.024088 -0.001252 0.023256
v -0.023724 -0.004530 0.057470
v -0.027365 -0.015084 0.066211
v -0.027729 -0.019454 0.052007
v -0.024088 -0.011442 0.013059
v -0.027729 -0.004530 0.027627
v -0.027365 0.000204 0.057106
v -0.027729 -0.017269 0.031997
v -0.023724 -0.005257 0.015608
v -0.023724 0.000931 0.050550
v -0.027729 -0.006713 0.064390
v -0.027001 -0.002708 0.061477
v -0.024088 -0.017632 0.023985
v -0.024088 -0.003800 0.017798
v -0.024088 -0.019086 0.037819
v -0.023724 -0.015449 0.015972
v -0.027729 -0.000159 0.037455
v -0.024088 0.000204 0.027991
v -0.023724 -0.017996 0.058199
v -0.023724 0.002390 0.039276
v -0.027365 -0.014720 0.023985
v -0.024453 -0.012171 0.061471
v -0.023724 -0.019454 0.051643
v -0.024088 -0.007078 0.013792
v -0.027365 -0.000527 0.059286
f 74 107 120 
f 70 71 73 
f 73 71 74 
f 72 69 75 
f 69 72 76 
f 69 76 77 
f 67 68 78 
f 71 70 78 
f 70 73 79 
f 78 70 81 
f 72 75 82 
f 76 72 84 
f 73 74 85 
f 77 76 87 
f 70 79 88 
f 87 76 89 
f 85 66 91 
f 88 79 92 
f 71 78 93 
f 78 89 93 
f 82 66 94 
f 85 74 94 
f 66 85 94 
f 84 72 97 
f 83 84 97 
f 90 83 97 
f 83 71 98 
f 71 93 98 
f 93 76 98 
f 67 78 99 
f 78 81 99 
f 86 88 100 
f 92 69 100 
f 88 92 100 
f 79 73 101 
f 82 94 102 
f 94 74 102 
f 81 70 103 
f 70 95 103 
f 75 69 104 
f 69 92 104 
f 72 82 105 
f 82 102 105 
f 74 71 106 
f 71 83 106 
f 90 74 106 
f 83 90 106 
f 74 90 107 
f 97 72 107 
f 90 97 107 
f 77 87 108 
f 87 81 108 
f 95 77 108 
f 81 103 108 
f 103 95 108 
f 96 75 109 
f 73 96 109 
f 101 73 109 
f 80 101 109 
f 75 104 109 
f 104 80 109 
f 68 67 110 
f 81 87 110 
f 67 99 110 
f 99 81 110 
f 69 77 111 
f 77 95 111 
f 95 86 111 
f 100 69 111 
f 86 100 111 
f 73 85 112 
f 96 73 112 
f 96 112 113 
f 91 75 113 
f 85 91 113 
f 75 96 113 
f 112 85 113 
f 89 76 114 
f 76 93 114 
f 93 89 114 
f 66 82 115 
f 82 75 115 
f 91 66 115 
f 75 91 115 
f 70 88 116 
f 88 86 116 
f 95 70 116 
f 86 95 116 
f 76 84 117 
f 84 83 117 
f 83 98 117 
f 98 76 117 
f 78 68 118 
f 89 78 118 
f 87 89 118 
f 68 110 118 
f 110 87 118 
f 92 79 119 
f 79 101 119 
f 101 80 119 
f 104 92 119 
f 80 104 119 
f 102 74 120 
f 72 105 120 
f 105 102 120 
f 107 72 120 
o convex_3
v -0.023360 0.002753 0.042178
v -0.018628 -0.019454 0.012333
v -0.018628 -0.019087 0.007969
v -0.018264 0.002753 0.039992
v -0.023724 -0.017996 0.057468
v -0.023724 -0.007806 0.011974
v -0.018264 -0.017269 0.049458
v -0.018628 0.000203 0.011243
v -0.023724 -0.004894 0.057103
v -0.023724 -0.016904 0.018523
v -0.018264 -0.011443 -0.001868
v -0.018264 -0.008895 0.050912
v -0.021175 -0.001980 0.009789
v -0.023724 0.000568 0.028354
v -0.023724 -0.019089 0.054552
v -0.018264 -0.019454 0.039633
v -0.020812 -0.011807 0.002143
v -0.023360 -0.000161 0.053098
v -0.022632 -0.013263 0.058564
v -0.020448 0.001659 0.019619
v -0.023724 -0.019089 0.036352
v -0.018264 -0.016902 0.001419
v -0.018264 -0.003073 0.048003
v -0.019720 -0.009260 -0.000407
v -0.023360 -0.015084 0.013063
v -0.023724 0.002753 0.040717
v -0.018264 -0.000888 0.011974
v -0.018992 0.002753 0.031258
v -0.023724 -0.003438 0.017069
v -0.021904 -0.006714 0.005783
v -0.023360 -0.009257 0.058929
v -0.019356 -0.016175 0.002143
v -0.021904 0.003118 0.035987
v -0.018264 -0.015446 0.050912
v -0.023360 -0.016540 0.058929
v -0.020084 -0.000159 0.010878
v -0.018264 -0.009257 -0.001131
v -0.018264 -0.018725 0.046183
v -0.018264 0.000568 0.044363
v -0.023724 -0.011807 0.011974
v -0.023360 -0.004894 0.057103
v -0.023724 0.000930 0.050188
v -0.018628 0.001659 0.019619
v -0.018264 -0.019454 0.012333
v -0.023724 -0.018360 0.027989
v -0.018992 -0.012899 -0.001131
v -0.021175 -0.016904 0.009064
v -0.020084 -0.000888 0.009423
v -0.019720 -0.019454 0.030527
v -0.021539 -0.007806 0.003963
v -0.023360 -0.001253 0.020349
v -0.021539 -0.013263 0.005053
v -0.023724 -0.010351 0.059294
v -0.021539 -0.001617 0.052008
v -0.018628 -0.018360 0.004694
v -0.023360 -0.018360 0.056744
v -0.018628 -0.011443 0.052008
v -0.018628 -0.006350 0.050553
v -0.021539 0.002753 0.042543
v -0.020812 -0.000159 0.013063
v -0.021539 -0.004165 0.007603
v -0.023724 0.002024 0.035257
v -0.023724 -0.005256 0.014153
v -0.022996 -0.010713 0.058929
f 178 151 184 
f 126 125 129 
f 125 126 130 
f 124 127 131 
f 127 124 132 
f 126 129 134 
f 125 130 135 
f 131 127 136 
f 123 122 141 
f 135 130 141 
f 131 136 142 
f 132 124 143 
f 134 129 146 
f 124 131 147 
f 126 134 149 
f 146 121 153 
f 124 148 153 
f 148 140 153 
f 127 132 154 
f 154 139 155 
f 127 154 155 
f 140 128 156 
f 131 144 157 
f 128 147 157 
f 147 131 157 
f 136 127 158 
f 135 136 158 
f 124 138 159 
f 143 124 159 
f 130 126 160 
f 145 130 160 
f 138 129 161 
f 129 151 161 
f 138 124 162 
f 129 138 162 
f 121 146 162 
f 146 129 162 
f 128 140 163 
f 124 147 163 
f 147 128 163 
f 148 124 163 
f 140 148 163 
f 122 123 164 
f 136 122 164 
f 142 136 164 
f 130 123 165 
f 123 141 165 
f 141 130 165 
f 131 142 166 
f 144 131 166 
f 137 144 166 
f 152 137 166 
f 142 152 166 
f 130 145 167 
f 145 152 167 
f 133 156 168 
f 156 128 168 
f 157 144 168 
f 128 157 168 
f 122 136 169 
f 136 135 169 
f 141 122 169 
f 135 141 169 
f 144 137 170 
f 126 150 170 
f 160 126 170 
f 137 160 170 
f 133 149 171 
f 149 134 171 
f 137 152 172 
f 152 145 172 
f 145 160 172 
f 160 137 172 
f 129 125 173 
f 151 129 173 
f 125 155 173 
f 159 138 174 
f 143 159 174 
f 138 161 174 
f 161 143 174 
f 123 130 175 
f 152 142 175 
f 164 123 175 
f 142 164 175 
f 130 167 175 
f 167 152 175 
f 125 135 176 
f 155 125 176 
f 127 155 176 
f 158 127 176 
f 135 158 176 
f 154 132 177 
f 139 154 177 
f 132 143 178 
f 143 161 178 
f 161 151 178 
f 153 121 179 
f 124 153 179 
f 121 162 179 
f 162 124 179 
f 134 140 180 
f 156 133 180 
f 140 156 180 
f 133 171 180 
f 171 134 180 
f 149 133 181 
f 133 168 181 
f 168 144 181 
f 144 170 181 
f 170 150 181 
f 140 134 182 
f 134 146 182 
f 146 153 182 
f 153 140 182 
f 126 149 183 
f 150 126 183 
f 149 181 183 
f 181 150 183 
f 155 139 184 
f 151 173 184 
f 173 155 184 
f 139 177 184 
f 177 132 184 
f 132 178 184 
o convex_4
v -0.018263 -0.001618 0.046181
v -0.013531 -0.022364 0.005416
v -0.014623 -0.021636 0.004328
v -0.018263 -0.017995 0.047638
v -0.018263 -0.009259 -0.001498
v -0.013167 0.000204 0.036718
v -0.013167 -0.015812 0.042545
v -0.013167 -0.008896 0.000322
v -0.018263 0.002754 0.038175
v -0.018263 -0.019453 0.008693
v -0.013167 -0.020181 -0.002227
v -0.013167 -0.019814 0.032712
v -0.017899 -0.009985 0.050557
v -0.015715 -0.005987 0.005785
v -0.018263 -0.019453 0.039632
v -0.018263 -0.016903 0.000687
v -0.013167 -0.005623 0.041817
v -0.014259 0.001296 0.036354
v -0.013167 -0.022000 0.015248
v -0.018263 -0.014720 0.050557
v -0.013531 -0.011443 0.043996
v -0.013531 -0.011807 -0.001498
v -0.017899 0.000202 0.044366
v -0.018263 -0.019814 0.016705
v -0.018263 -0.012534 -0.001863
v -0.013167 -0.018359 0.038903
v -0.014987 -0.020545 -0.000042
v -0.017899 -0.004529 0.048366
v -0.017535 -0.019087 0.043268
v -0.013167 -0.017995 -0.002591
v -0.017899 -0.014720 0.050557
v -0.016443 0.002021 0.039632
v -0.013531 -0.003073 0.040724
v -0.017899 -0.017631 0.048366
v -0.018263 -0.004165 0.014520
v -0.016807 -0.009985 -0.001863
v -0.013167 -0.021636 -0.000042
v -0.013531 -0.022364 0.009421
v -0.018263 -0.019814 0.026157
v -0.013167 0.000204 0.035262
v -0.018263 -0.018723 0.004687
v -0.014623 -0.019814 -0.001498
v -0.013167 -0.009626 0.043273
v -0.017899 0.002754 0.038175
v -0.017535 -0.007806 0.049459
v -0.016079 -0.005987 0.005785
v -0.018263 -0.007442 0.049823
v -0.018263 0.002754 0.039632
v -0.013167 -0.013990 0.043273
v -0.013167 -0.017267 0.041083
v -0.013167 -0.021636 0.018890
v -0.013167 -0.009987 -0.000770
f 206 220 236 
f 188 185 189 
f 190 191 192 
f 189 185 193 
f 188 189 194 
f 192 191 195 
f 195 191 196 
f 192 189 198 
f 188 194 199 
f 194 189 200 
f 191 190 201 
f 192 198 202 
f 195 196 203 
f 185 188 204 
f 187 186 208 
f 194 187 208 
f 199 194 208 
f 200 189 209 
f 196 191 210 
f 187 194 211 
f 207 185 212 
f 188 199 213 
f 196 210 213 
f 192 195 214 
f 195 209 214 
f 197 204 215 
f 205 197 215 
f 190 202 216 
f 207 190 216 
f 201 190 217 
f 190 207 217 
f 212 201 217 
f 207 212 217 
f 204 188 218 
f 188 213 218 
f 213 210 218 
f 191 215 218 
f 215 204 218 
f 189 193 219 
f 189 192 220 
f 209 189 220 
f 206 214 220 
f 214 209 220 
f 186 187 221 
f 203 186 221 
f 195 203 221 
f 187 211 221 
f 186 203 222 
f 203 199 222 
f 208 186 222 
f 208 222 223 
f 199 208 223 
f 222 199 223 
f 190 192 224 
f 202 190 224 
f 192 202 224 
f 194 200 225 
f 211 194 225 
f 200 211 225 
f 200 209 226 
f 209 195 226 
f 211 200 226 
f 195 221 226 
f 221 211 226 
f 191 201 227 
f 197 205 227 
f 198 193 228 
f 202 198 228 
f 216 202 228 
f 201 212 229 
f 227 201 229 
f 197 227 229 
f 198 189 230 
f 193 198 230 
f 189 219 230 
f 219 193 230 
f 185 204 231 
f 204 197 231 
f 212 185 231 
f 197 229 231 
f 229 212 231 
f 193 185 232 
f 185 207 232 
f 207 216 232 
f 228 193 232 
f 216 228 232 
f 215 191 233 
f 205 215 233 
f 191 227 233 
f 227 205 233 
f 210 191 234 
f 191 218 234 
f 218 210 234 
f 203 196 235 
f 199 203 235 
f 213 199 235 
f 196 213 235 
f 192 214 236 
f 214 206 236 
f 220 192 236 
o convex_5
v -0.012802 -0.009625 -0.000409
v -0.004793 -0.026003 0.003960
v -0.003702 -0.026003 0.003960
v -0.011346 -0.005985 0.021432
v -0.001153 -0.006714 0.004689
v -0.001153 -0.020180 0.021432
v -0.013167 -0.021273 0.021432
v -0.012437 -0.020909 -0.002592
v -0.001153 -0.007441 0.021066
v -0.001153 -0.023456 0.002503
v -0.013167 -0.005621 0.013785
v -0.006249 -0.020180 -0.001865
v -0.013167 -0.022365 0.002503
v -0.001153 -0.025642 0.009419
v -0.006614 -0.006714 0.001776
v -0.003702 -0.005985 0.018517
v -0.013167 -0.005985 0.021432
v -0.004066 -0.023456 -0.000775
v -0.010254 -0.018724 -0.003322
v -0.005521 -0.021636 0.021432
v -0.013167 -0.008897 0.000320
v -0.010617 -0.005256 0.014512
v -0.001153 -0.007441 0.003960
v -0.007705 -0.024549 -0.000043
v -0.013167 -0.022365 0.012692
v -0.004793 -0.026003 0.006872
v -0.013167 -0.017267 -0.002592
v -0.001153 -0.006348 0.006872
v -0.002610 -0.006714 0.021432
v -0.009889 -0.024185 0.003233
v -0.008433 -0.006712 0.001776
v -0.009889 -0.022000 0.020700
v -0.001153 -0.026003 0.005416
v -0.006978 -0.007807 0.001047
v -0.010254 -0.020909 -0.003322
v -0.001882 -0.021273 0.020700
v -0.004066 -0.024549 -0.000043
v -0.011346 -0.022729 -0.001136
v -0.004066 -0.021636 -0.000775
v -0.001153 -0.006348 0.013056
v -0.013167 -0.005985 0.011236
v -0.013167 -0.021273 -0.001499
v -0.002245 -0.022000 0.001047
v -0.008433 -0.023456 -0.001499
v -0.012437 -0.010354 -0.000773
v -0.012802 -0.022000 0.017788
v -0.006249 -0.025642 0.005416
v -0.004066 -0.025642 0.009055
v -0.008798 -0.024549 0.001413
v -0.004066 -0.025276 0.001047
v -0.011710 -0.021636 0.021432
v -0.012802 -0.022729 0.009055
f 283 261 288 
f 242 240 243 
f 242 241 245 
f 241 242 246 
f 243 247 249 
f 246 242 250 
f 243 240 253 
f 247 243 253 
f 242 243 256 
f 249 247 257 
f 240 252 258 
f 253 240 258 
f 247 253 258 
f 241 246 259 
f 251 241 259 
f 243 249 261 
f 238 239 262 
f 257 237 263 
f 249 257 263 
f 245 241 264 
f 241 251 264 
f 251 258 264 
f 258 252 264 
f 240 242 265 
f 242 245 265 
f 252 240 265 
f 251 237 267 
f 237 257 267 
f 247 258 267 
f 258 251 267 
f 250 256 268 
f 246 250 269 
f 262 239 269 
f 250 262 269 
f 237 251 270 
f 248 255 270 
f 251 259 270 
f 259 248 270 
f 248 254 271 
f 255 248 271 
f 244 263 271 
f 263 255 271 
f 250 242 272 
f 242 256 272 
f 256 250 272 
f 254 246 273 
f 246 269 273 
f 254 248 275 
f 248 259 275 
f 245 264 276 
f 264 252 276 
f 265 245 276 
f 252 265 276 
f 257 247 277 
f 267 257 277 
f 247 267 277 
f 263 244 278 
f 249 263 278 
f 244 274 278 
f 274 249 278 
f 246 254 279 
f 259 246 279 
f 254 275 279 
f 275 259 279 
f 271 254 280 
f 244 271 280 
f 254 273 280 
f 273 260 280 
f 274 244 280 
f 260 274 280 
f 263 237 281 
f 255 263 281 
f 237 270 281 
f 270 255 281 
f 243 261 282 
f 262 243 282 
f 262 282 283 
f 238 262 283 
f 282 261 283 
f 262 250 284 
f 250 268 284 
f 260 238 285 
f 266 249 285 
f 249 274 285 
f 274 260 285 
f 238 283 285 
f 283 266 285 
f 239 238 286 
f 238 260 286 
f 269 239 286 
f 260 273 286 
f 273 269 286 
f 256 243 287 
f 243 262 287 
f 268 256 287 
f 262 284 287 
f 284 268 287 
f 261 249 288 
f 249 266 288 
f 266 283 288 
o convex_6
v 0.001758 -0.016903 0.022160
v -0.012801 -0.003439 0.031626
v -0.012801 -0.003439 0.030532
v -0.013165 -0.021271 0.021432
v -0.009888 -0.019452 0.031626
v -0.013165 -0.005621 0.021432
v 0.005398 -0.009626 0.021433
v -0.004065 -0.007078 0.031626
v -0.013165 -0.019816 0.031626
v -0.001155 -0.005258 0.026892
v -0.002611 -0.020908 0.021432
v -0.004790 -0.013992 0.031626
v -0.002611 -0.006713 0.021432
v 0.005398 -0.011081 0.021796
v -0.005155 -0.004529 0.031626
v -0.007703 -0.021637 0.022160
v -0.006975 -0.018360 0.030532
v -0.013165 -0.003439 0.031626
v -0.000790 -0.005621 0.027984
v -0.000790 -0.019816 0.021796
v -0.004065 -0.011081 0.031626
v -0.005155 -0.015448 0.031260
v 0.003579 -0.008171 0.022526
v 0.002850 -0.015811 0.021432
v -0.011344 -0.021637 0.021796
v 0.003943 -0.013992 0.021796
v -0.004065 -0.021271 0.021796
v -0.011709 -0.019816 0.031626
v 0.003579 -0.008171 0.023617
v -0.006248 -0.016540 0.031626
f 289 310 318 
f 290 293 296 
f 293 290 297 
f 294 292 297 
f 294 291 298 
f 292 294 299 
f 296 293 300 
f 294 298 301 
f 299 294 301 
f 291 290 303 
f 290 296 303 
f 298 291 303 
f 290 291 306 
f 291 294 306 
f 297 290 306 
f 294 297 306 
f 303 296 307 
f 298 303 307 
f 293 299 308 
f 289 305 308 
f 305 293 308 
f 296 300 309 
f 302 296 309 
f 300 302 309 
f 302 300 310 
f 301 298 311 
f 295 301 311 
f 301 295 312 
f 299 301 312 
f 295 302 312 
f 308 299 312 
f 289 308 312 
f 297 292 313 
f 292 299 313 
f 304 297 313 
f 310 289 314 
f 302 310 314 
f 312 302 314 
f 289 312 314 
f 299 293 315 
f 313 299 315 
f 304 313 315 
f 293 297 316 
f 297 304 316 
f 315 293 316 
f 304 315 316 
f 302 295 317 
f 296 302 317 
f 298 307 317 
f 307 296 317 
f 311 298 317 
f 295 311 317 
f 300 293 318 
f 305 289 318 
f 293 305 318 
f 310 300 318 
o convex_7
v -0.013167 -0.019452 0.034539
v -0.012802 -0.008897 0.042545
v -0.012438 -0.009261 0.042182
v -0.013167 -0.003072 0.031628
v -0.004429 -0.007077 0.031628
v -0.006250 -0.016177 0.031628
v -0.013167 -0.000159 0.036723
v -0.012802 -0.015446 0.042182
v -0.013167 -0.019818 0.031628
v -0.005158 -0.004529 0.031991
v -0.004429 -0.011443 0.031991
v -0.013167 -0.004529 0.040726
v -0.008435 -0.018361 0.032356
v -0.008798 -0.001616 0.033811
v -0.013167 -0.017266 0.040361
v -0.012802 -0.003436 0.039998
v -0.010253 -0.000888 0.033811
v -0.004429 -0.007077 0.031991
v -0.006250 -0.015812 0.032356
v -0.012438 -0.014357 0.042182
v -0.005886 -0.004165 0.031628
v -0.010253 -0.019452 0.031991
v -0.012802 -0.017266 0.040361
v -0.013167 -0.014720 0.042545
v -0.005158 -0.010352 0.033084
v -0.013167 -0.000159 0.035267
v -0.012802 -0.005984 0.041454
v -0.008071 -0.001979 0.032719
v -0.005521 -0.014357 0.032356
v -0.012438 -0.018361 0.037814
v -0.004793 -0.005256 0.031991
f 328 345 349 
f 322 323 324 
f 322 319 325 
f 319 322 327 
f 322 324 327 
f 324 323 329 
f 325 319 330 
f 330 319 333 
f 325 330 334 
f 332 325 334 
f 328 332 334 
f 325 332 335 
f 320 321 336 
f 329 323 336 
f 331 324 337 
f 321 320 338 
f 323 322 339 
f 319 327 340 
f 327 324 340 
f 324 331 340 
f 326 333 341 
f 337 326 341 
f 331 337 341 
f 320 330 342 
f 333 326 342 
f 330 333 342 
f 338 320 342 
f 326 338 342 
f 336 321 343 
f 329 336 343 
f 321 338 343 
f 338 329 343 
f 322 325 344 
f 335 322 344 
f 325 335 344 
f 330 320 345 
f 328 334 345 
f 334 330 345 
f 332 328 346 
f 322 335 346 
f 335 332 346 
f 339 322 346 
f 328 339 346 
f 324 329 347 
f 337 324 347 
f 326 337 347 
f 338 326 347 
f 329 338 347 
f 333 319 348 
f 319 340 348 
f 340 331 348 
f 341 333 348 
f 331 341 348 
f 320 336 349 
f 336 323 349 
f 323 339 349 
f 339 328 349 
f 345 320 349 
o convex_8
v -0.053214 -0.002707 0.083326
v -0.052849 -0.009988 0.106984
v -0.053578 -0.009260 0.108435
v -0.064862 -0.012172 0.088422
v -0.052849 -0.012173 0.070587
v -0.065590 -0.004529 0.108073
v -0.060130 -0.012172 0.109170
v -0.065590 -0.007077 0.090238
v -0.052849 -0.004164 0.100791
v -0.052849 -0.005984 0.072403
v -0.065954 -0.008896 0.108439
v -0.052849 -0.012173 0.106984
v -0.059039 -0.004529 0.108801
v -0.065954 -0.004529 0.098975
v -0.053578 -0.009260 0.070221
v -0.053214 -0.004164 0.076406
v -0.052849 -0.002707 0.090238
v -0.065954 -0.009259 0.089511
v -0.064862 -0.012172 0.098244
v -0.063769 -0.003801 0.103705
v -0.055762 -0.005620 0.108801
v -0.063769 -0.010715 0.085146
v -0.065590 -0.005256 0.109170
v -0.054306 -0.012173 0.109170
v -0.065590 -0.008532 0.088422
v -0.053214 -0.005984 0.072403
v -0.065590 -0.005985 0.092417
v -0.053214 -0.003071 0.095334
v -0.053942 -0.012173 0.071310
v -0.057218 -0.003072 0.088422
v -0.052849 -0.005621 0.104067
v -0.055398 -0.006714 0.109170
v -0.053214 -0.003436 0.078954
v -0.053214 -0.008166 0.070221
v -0.060493 -0.004164 0.107346
v -0.058311 -0.003072 0.091693
v -0.065225 -0.004164 0.098975
v -0.065590 -0.010715 0.098605
v -0.065954 -0.004529 0.106618
v -0.063769 -0.012172 0.085874
v -0.065590 -0.008532 0.109170
v -0.053214 -0.011445 0.069852
v -0.052849 -0.003071 0.080778
v -0.059766 -0.003436 0.100430
v -0.065590 -0.009259 0.108439
v -0.061585 -0.007440 0.083326
v -0.065590 -0.004529 0.097882
v -0.065590 -0.010351 0.088422
v -0.063041 -0.009624 0.084053
f 374 383 398 
f 351 354 358 
f 358 354 359 
f 351 352 361 
f 354 351 361 
f 358 359 366 
f 360 363 367 
f 358 362 370 
f 362 355 372 
f 361 352 373 
f 354 361 373 
f 356 368 373 
f 368 353 373 
f 372 356 373 
f 367 357 374 
f 365 359 375 
f 357 367 376 
f 367 363 376 
f 365 375 376 
f 375 357 376 
f 362 358 377 
f 358 366 377 
f 373 353 378 
f 354 373 378 
f 352 351 380 
f 351 358 380 
f 358 370 380 
f 380 370 381 
f 370 362 381 
f 362 372 381 
f 372 373 381 
f 373 352 381 
f 352 380 381 
f 365 376 382 
f 379 350 382 
f 359 354 383 
f 375 359 383 
f 355 362 384 
f 369 355 384 
f 362 377 384 
f 366 350 385 
f 350 379 385 
f 385 379 386 
f 369 385 386 
f 360 367 387 
f 368 360 387 
f 353 368 387 
f 363 360 388 
f 355 369 388 
f 360 372 388 
f 372 355 388 
f 386 363 388 
f 369 386 388 
f 378 353 389 
f 356 372 390 
f 372 360 390 
f 371 364 391 
f 354 378 391 
f 383 354 391 
f 364 383 391 
f 389 371 391 
f 378 389 391 
f 359 365 392 
f 350 366 392 
f 366 359 392 
f 365 382 392 
f 382 350 392 
f 377 366 393 
f 369 384 393 
f 384 377 393 
f 366 385 393 
f 385 369 393 
f 368 356 394 
f 360 368 394 
f 356 390 394 
f 390 360 394 
f 374 357 395 
f 357 375 395 
f 383 374 395 
f 375 383 395 
f 376 363 396 
f 382 376 396 
f 379 382 396 
f 386 379 396 
f 363 386 396 
f 367 374 397 
f 374 371 397 
f 353 387 397 
f 387 367 397 
f 389 353 397 
f 371 389 397 
f 364 371 398 
f 371 374 398 
f 383 364 398 
o convex_9
v -0.041927 -0.002709 0.060391
v -0.046659 -0.021998 0.085500
v -0.046659 -0.021635 0.083316
v -0.046659 -0.002346 0.086234
v -0.041927 -0.016539 0.089508
v -0.045931 -0.012536 0.058937
v -0.041927 -0.017995 0.062210
v -0.041927 -0.002709 0.083321
v -0.046659 -0.010354 0.096060
v -0.046659 -0.005258 0.062575
v -0.041927 -0.008898 0.052741
v -0.041927 -0.021637 0.083321
v -0.046296 -0.020908 0.093876
v -0.046659 -0.017995 0.068762
v -0.046296 -0.001619 0.073130
v -0.045931 -0.005622 0.093511
v -0.041927 -0.001253 0.075310
v -0.042292 -0.014719 0.055294
v -0.041927 -0.007078 0.088053
v -0.046659 -0.008898 0.059662
v -0.042292 -0.019815 0.068762
v -0.042292 -0.004895 0.055654
v -0.046659 -0.017632 0.096060
v -0.045931 -0.011083 0.095695
v -0.042292 -0.001617 0.064030
v -0.046659 -0.003439 0.090962
v -0.041927 -0.020544 0.086959
v -0.042292 -0.011806 0.052741
v -0.046659 -0.003075 0.067672
v -0.046659 -0.014719 0.062575
v -0.046659 -0.021998 0.091327
v -0.046659 -0.019815 0.074224
v -0.046296 -0.017632 0.096060
v -0.041927 -0.021271 0.077854
v -0.042292 -0.007078 0.053470
v -0.042292 -0.013263 0.090237
v -0.044475 -0.001255 0.073860
v -0.041927 -0.003800 0.085500
v -0.043384 -0.019088 0.090967
v -0.042656 -0.003436 0.058937
v -0.041927 -0.001980 0.081137
v -0.042292 -0.017995 0.062210
v -0.041927 -0.001253 0.066583
v -0.046296 -0.007807 0.095330
v -0.041927 -0.012899 0.053470
v -0.046659 -0.001982 0.082952
v -0.043384 -0.009625 0.054200
v -0.046659 -0.011447 0.059662
v -0.042292 -0.015812 0.057113
v -0.046296 -0.003439 0.090962
v -0.045567 -0.014719 0.095330
v -0.045931 -0.006715 0.059662
v -0.045567 -0.021635 0.091327
v -0.046659 -0.001982 0.071676
v -0.044112 -0.001619 0.080407
f 435 444 453 
f 401 400 402 
f 399 403 405 
f 403 399 406 
f 402 400 407 
f 401 402 408 
f 399 405 409 
f 405 403 410 
f 401 408 412 
f 406 399 415 
f 403 406 417 
f 412 408 418 
f 400 401 419 
f 399 409 420 
f 407 400 421 
f 402 407 424 
f 410 403 425 
f 416 404 426 
f 408 402 427 
f 404 416 428 
f 412 418 428 
f 400 410 429 
f 421 400 429 
f 411 421 429 
f 401 412 430 
f 419 401 430 
f 407 421 431 
f 421 411 431 
f 422 407 431 
f 410 400 432 
f 405 410 432 
f 400 419 432 
f 419 405 432 
f 420 409 433 
f 403 417 434 
f 417 422 434 
f 417 406 436 
f 414 417 436 
f 425 403 437 
f 411 425 437 
f 431 411 437 
f 403 431 437 
f 399 420 438 
f 420 408 438 
f 423 399 438 
f 408 427 438 
f 427 423 438 
f 406 415 439 
f 405 419 440 
f 430 412 440 
f 419 430 440 
f 415 399 441 
f 399 423 441 
f 423 413 441 
f 413 435 441 
f 435 415 441 
f 417 414 442 
f 407 422 442 
f 422 417 442 
f 424 407 442 
f 414 424 442 
f 409 405 443 
f 416 426 443 
f 426 409 443 
f 427 402 444 
f 435 413 444 
f 409 426 445 
f 418 433 445 
f 433 409 445 
f 426 404 446 
f 404 428 446 
f 428 418 446 
f 418 445 446 
f 445 426 446 
f 428 416 447 
f 412 428 447 
f 405 440 447 
f 440 412 447 
f 443 405 447 
f 416 443 447 
f 402 424 448 
f 424 414 448 
f 436 406 448 
f 414 436 448 
f 406 439 448 
f 439 402 448 
f 422 431 449 
f 431 403 449 
f 403 434 449 
f 434 422 449 
f 418 408 450 
f 408 420 450 
f 433 418 450 
f 420 433 450 
f 410 425 451 
f 425 411 451 
f 429 410 451 
f 411 429 451 
f 413 423 452 
f 423 427 452 
f 427 444 452 
f 444 413 452 
f 415 435 453 
f 439 415 453 
f 402 439 453 
f 444 402 453 
o convex_10
v -0.036467 -0.000525 0.056749
v -0.039743 -0.021272 0.076758
v -0.039015 -0.020909 0.073127
v -0.041926 -0.011807 0.052019
v -0.041926 -0.003438 0.084407
v -0.035739 -0.020181 0.076763
v -0.035739 -0.013990 0.042918
v -0.035739 -0.002709 0.074943
v -0.041926 -0.017269 0.088779
v -0.041926 -0.003074 0.058574
v -0.041926 -0.019089 0.065124
v -0.035739 -0.005260 0.044375
v -0.035739 -0.010718 0.079310
v -0.035739 -0.018723 0.054566
v -0.041926 -0.001256 0.075306
v -0.041926 -0.021272 0.084770
v -0.041562 -0.007441 0.087685
v -0.035739 -0.000891 0.070213
v -0.036103 -0.007443 0.042555
v -0.041926 -0.006716 0.053113
v -0.041198 -0.016903 0.057480
v -0.036103 -0.015447 0.080404
v -0.041926 -0.001256 0.065124
v -0.035739 -0.002345 0.049468
v -0.035739 -0.020541 0.068756
v -0.036103 -0.016903 0.048379
v -0.041198 -0.013261 0.088411
v -0.040835 -0.019452 0.086591
v -0.036103 -0.013263 0.042192
v -0.041926 -0.021272 0.077852
v -0.041926 -0.015083 0.055297
v -0.036831 -0.004894 0.078946
v -0.041562 -0.001981 0.080771
v -0.036467 -0.004894 0.045469
v -0.035739 -0.000525 0.067299
v -0.035739 -0.018359 0.078946
v -0.036103 -0.009625 0.041824
v -0.036103 -0.019450 0.058569
v -0.040835 -0.000889 0.067671
v -0.041562 -0.017269 0.088779
v -0.036467 -0.001618 0.052019
v -0.036831 -0.020909 0.075674
v -0.036103 -0.015447 0.045106
v -0.041198 -0.003801 0.084407
v -0.041926 -0.009261 0.052019
v -0.040835 -0.004165 0.054203
v -0.041926 -0.020179 0.070213
v -0.035739 -0.000525 0.056027
v -0.036467 -0.018723 0.054933
v -0.036831 -0.001983 0.075306
v -0.035739 -0.006351 0.077852
v -0.041926 -0.009993 0.088411
v -0.041562 -0.020179 0.086958
v -0.036103 -0.002345 0.049468
v -0.041198 -0.013992 0.052382
v -0.040471 -0.009261 0.086591
v -0.041926 -0.018359 0.062578
v -0.041198 -0.021272 0.084044
v -0.036103 -0.013263 0.080404
v -0.035739 -0.009625 0.041824
v -0.041926 -0.001616 0.078951
f 471 488 514 
f 459 460 461 
f 458 457 462 
f 457 458 463 
f 462 457 464 
f 461 460 465 
f 459 461 466 
f 460 459 467 
f 463 458 468 
f 462 464 469 
f 461 465 471 
f 457 463 473 
f 463 468 476 
f 471 465 477 
f 455 456 478 
f 467 459 478 
f 460 467 479 
f 456 455 483 
f 455 469 483 
f 469 464 483 
f 464 457 484 
f 465 472 487 
f 472 473 487 
f 471 477 488 
f 459 466 489 
f 466 475 489 
f 481 459 489 
f 482 457 490 
f 478 456 491 
f 467 478 491 
f 456 483 491 
f 454 476 492 
f 476 468 492 
f 488 454 492 
f 468 488 492 
f 475 480 493 
f 489 475 493 
f 481 489 493 
f 476 454 494 
f 463 476 494 
f 455 478 495 
f 478 459 495 
f 460 479 496 
f 479 474 496 
f 482 460 496 
f 474 484 496 
f 458 470 497 
f 485 461 497 
f 470 485 497 
f 486 458 497 
f 473 472 498 
f 457 473 498 
f 472 490 498 
f 490 457 498 
f 473 463 499 
f 487 473 499 
f 483 464 500 
f 491 483 500 
f 454 488 501 
f 488 477 501 
f 494 454 501 
f 477 494 501 
f 479 467 502 
f 467 491 502 
f 500 464 502 
f 491 500 502 
f 461 471 503 
f 471 486 503 
f 497 461 503 
f 486 497 503 
f 466 461 504 
f 461 485 504 
f 485 470 504 
f 458 462 505 
f 470 458 505 
f 480 470 505 
f 462 493 505 
f 493 480 505 
f 462 469 506 
f 459 481 506 
f 493 462 506 
f 481 493 506 
f 477 465 507 
f 465 487 507 
f 463 494 507 
f 494 477 507 
f 499 463 507 
f 487 499 507 
f 457 482 508 
f 484 457 508 
f 482 496 508 
f 496 484 508 
f 470 480 509 
f 466 504 509 
f 504 470 509 
f 474 479 510 
f 464 484 510 
f 484 474 510 
f 479 502 510 
f 502 464 510 
f 469 455 511 
f 455 495 511 
f 495 459 511 
f 459 506 511 
f 506 469 511 
f 475 466 512 
f 480 475 512 
f 509 480 512 
f 466 509 512 
f 465 460 513 
f 472 465 513 
f 460 482 513 
f 490 472 513 
f 482 490 513 
f 468 458 514 
f 458 486 514 
f 486 471 514 
f 488 468 514 
o convex_11
v -0.062313 -0.019090 0.092783
v -0.052849 -0.012174 0.100063
v -0.053214 -0.012174 0.100063
v -0.052849 -0.012174 0.070580
v -0.052851 -0.023095 0.099702
v -0.064498 -0.012175 0.098608
v -0.064133 -0.012175 0.086597
v -0.053215 -0.019090 0.080778
v -0.061221 -0.022001 0.100066
v -0.053942 -0.015451 0.074586
v -0.052851 -0.022364 0.092422
v -0.063405 -0.016178 0.089143
v -0.062677 -0.019453 0.100066
v -0.060493 -0.022364 0.099338
v -0.064498 -0.013630 0.089507
v -0.064133 -0.012175 0.099338
v -0.053942 -0.013630 0.072401
v -0.061949 -0.018725 0.090964
v -0.057947 -0.023095 0.100066
v -0.052851 -0.016178 0.074586
v -0.053215 -0.021273 0.087688
v -0.063405 -0.013266 0.085867
v -0.053942 -0.017271 0.077499
v -0.064133 -0.015086 0.097517
v -0.063040 -0.018362 0.093513
v -0.052851 -0.022730 0.100066
v -0.062313 -0.016542 0.100066
v -0.060857 -0.020181 0.093147
v -0.053214 -0.012537 0.070580
v -0.062677 -0.015451 0.086958
v -0.061949 -0.017996 0.089507
v -0.056855 -0.023095 0.098608
f 528 535 546 
f 517 516 518 
f 518 516 519 
f 517 518 520 
f 520 518 521 
f 518 519 525 
f 523 515 528 
f 520 521 529 
f 521 526 529 
f 517 520 530 
f 520 527 530 
f 515 526 532 
f 527 523 533 
f 523 528 533 
f 518 525 534 
f 525 522 534 
f 524 531 534 
f 522 525 535 
f 528 522 535 
f 526 521 536 
f 522 532 537 
f 534 522 537 
f 524 534 537 
f 527 520 538 
f 520 529 538 
f 538 529 539 
f 515 523 539 
f 526 515 539 
f 523 527 539 
f 529 526 539 
f 527 538 539 
f 519 516 540 
f 533 519 540 
f 527 533 540 
f 516 517 541 
f 517 530 541 
f 530 527 541 
f 540 516 541 
f 527 540 541 
f 528 515 542 
f 522 528 542 
f 532 522 542 
f 515 532 542 
f 521 518 543 
f 518 534 543 
f 534 531 543 
f 536 521 543 
f 531 536 543 
f 531 524 544 
f 526 536 544 
f 536 531 544 
f 532 526 545 
f 537 532 545 
f 524 537 545 
f 544 524 545 
f 526 544 545 
f 525 519 546 
f 519 533 546 
f 533 528 546 
f 535 525 546 
o convex_12
v -0.033554 0.000203 0.055654
v -0.035010 -0.020542 0.067665
v -0.032462 -0.019453 0.054563
v -0.035738 -0.012534 0.041097
v -0.035738 -0.003802 0.075672
v -0.032098 -0.011079 0.073485
v -0.032098 -0.007442 0.035637
v -0.035738 -0.002346 0.048739
v -0.032098 -0.000524 0.065118
v -0.035738 -0.019451 0.077493
v -0.032098 -0.019815 0.070577
v -0.032098 -0.015448 0.037454
v -0.035738 -0.017995 0.050925
v -0.032098 -0.000524 0.047287
v -0.035738 -0.000526 0.067300
v -0.035010 -0.015446 0.078588
v -0.035738 -0.006351 0.042553
v -0.032098 -0.003800 0.070577
v -0.032462 -0.003439 0.040002
v -0.035374 -0.009991 0.078588
v -0.032462 -0.012170 0.034546
v -0.032098 -0.017268 0.073485
v -0.035738 -0.000526 0.055294
v -0.032098 -0.018359 0.046557
v -0.035738 -0.019451 0.058197
v -0.035738 -0.014355 0.042553
v -0.035010 -0.001619 0.072033
v -0.035738 -0.020542 0.074941
v -0.032098 -0.020181 0.064022
v -0.032098 0.000203 0.059288
v -0.032462 -0.009989 0.034546
v -0.032462 -0.015448 0.037454
v -0.035374 -0.005985 0.077128
v -0.032462 -0.006349 0.036363
v -0.035738 -0.012170 0.078949
v -0.032462 0.000203 0.050560
v -0.035374 -0.019088 0.077858
v -0.035738 -0.009627 0.041097
v -0.032462 -0.016904 0.041093
v -0.032462 -0.000524 0.047287
v -0.032462 -0.002709 0.070212
v -0.033554 -0.020542 0.069847
v -0.035738 -0.000162 0.058197
v -0.035738 -0.015812 0.045100
v -0.032462 -0.013263 0.034907
v -0.035738 -0.004529 0.044735
v -0.032098 -0.006715 0.072029
v -0.035374 -0.003075 0.074941
v -0.032098 -0.012170 0.034546
v -0.035738 -0.001253 0.071303
v -0.032462 -0.018359 0.046557
f 559 585 597 
f 550 551 554 
f 552 553 555 
f 551 550 556 
f 553 552 557 
f 553 557 558 
f 556 550 559 
f 555 553 560 
f 554 551 561 
f 550 554 563 
f 552 555 564 
f 560 553 565 
f 562 552 566 
f 557 552 568 
f 552 562 568 
f 554 561 569 
f 558 557 570 
f 549 548 571 
f 556 559 571 
f 559 550 572 
f 571 548 574 
f 556 571 574 
f 548 549 575 
f 549 570 575 
f 570 557 575 
f 555 560 576 
f 547 561 576 
f 561 555 576 
f 567 550 577 
f 565 553 580 
f 577 563 580 
f 553 577 580 
f 551 556 581 
f 562 566 581 
f 579 551 581 
f 566 579 581 
f 547 576 582 
f 576 560 582 
f 557 568 583 
f 568 562 583 
f 556 574 583 
f 574 557 583 
f 581 556 583 
f 562 581 583 
f 550 563 584 
f 577 550 584 
f 563 577 584 
f 558 570 585 
f 578 558 585 
f 565 554 586 
f 560 565 586 
f 554 569 586 
f 582 560 586 
f 569 582 586 
f 564 555 587 
f 555 573 587 
f 557 574 588 
f 574 548 588 
f 548 575 588 
f 575 557 588 
f 561 547 589 
f 569 561 589 
f 547 582 589 
f 582 569 589 
f 559 572 590 
f 572 578 590 
f 585 559 590 
f 578 585 590 
f 550 567 591 
f 572 550 591 
f 558 578 591 
f 578 572 591 
f 563 554 592 
f 554 565 592 
f 565 580 592 
f 580 563 592 
f 552 564 593 
f 566 552 593 
f 564 579 593 
f 579 566 593 
f 551 579 594 
f 579 564 594 
f 564 587 594 
f 587 573 594 
f 553 558 595 
f 577 553 595 
f 567 577 595 
f 558 591 595 
f 591 567 595 
f 561 551 596 
f 555 561 596 
f 573 555 596 
f 551 594 596 
f 594 573 596 
f 570 549 597 
f 571 559 597 
f 549 571 597 
f 585 570 597 
o convex_13
v -0.031369 -0.000164 0.045835
v -0.032098 -0.020176 0.063655
v -0.031005 -0.020176 0.063655
v -0.028093 -0.013991 0.025442
v -0.027729 -0.001618 0.061470
v -0.027729 -0.019449 0.062560
v -0.032098 -0.004166 0.070209
v -0.032098 -0.013262 0.034181
v -0.027729 -0.003439 0.030177
v -0.031733 -0.016537 0.073128
v -0.027729 -0.017994 0.036366
v -0.032098 -0.004532 0.037456
v -0.027729 0.001295 0.050186
v -0.032098 -0.000164 0.062565
v -0.027729 -0.011805 0.066569
v -0.032098 -0.017267 0.041461
v -0.028093 -0.008898 0.025077
v -0.028093 0.001295 0.044011
v -0.032098 0.000564 0.052735
v -0.032098 -0.019087 0.071299
v -0.027729 -0.017630 0.065839
v -0.031369 -0.006716 0.070939
v -0.027729 -0.015446 0.027262
v -0.028093 -0.019087 0.044740
v -0.032098 -0.019087 0.050555
v -0.032098 -0.009985 0.033812
v -0.031005 -0.000891 0.065114
v -0.028093 -0.001255 0.034911
v -0.031733 -0.011805 0.073128
v -0.027729 -0.004166 0.063659
v -0.027729 0.000202 0.057465
v -0.028093 -0.006348 0.026537
v -0.032098 -0.015080 0.035997
v -0.032098 -0.002346 0.041461
v -0.028093 -0.016173 0.029082
v -0.028093 -0.003439 0.030177
v -0.028093 -0.019816 0.058560
v -0.031733 -0.019814 0.069849
v -0.027729 -0.008898 0.025077
v -0.031369 -0.003439 0.069114
v -0.028093 -0.012169 0.024713
v -0.032098 -0.007443 0.034907
v -0.032098 -0.011805 0.073128
v -0.028457 -0.014355 0.068024
v -0.027729 0.000566 0.040736
v -0.027729 -0.008898 0.065839
v -0.028093 -0.017994 0.036366
v -0.031369 -0.018723 0.071299
v -0.031733 -0.001982 0.068024
v -0.027729 -0.019087 0.044740
v -0.028821 0.001295 0.049456
v -0.031733 -0.020176 0.068024
v -0.032098 0.000200 0.049465
f 631 616 650 
f 599 604 605 
f 602 603 606 
f 606 603 608 
f 605 604 609 
f 602 606 610 
f 609 604 611 
f 603 602 612 
f 599 605 613 
f 609 611 616 
f 604 599 617 
f 603 612 618 
f 606 608 620 
f 600 599 621 
f 599 613 622 
f 621 599 622 
f 605 609 623 
f 598 615 625 
f 619 604 626 
f 612 602 627 
f 602 610 628 
f 610 611 628 
f 624 602 628 
f 611 624 628 
f 605 601 630 
f 613 605 630 
f 609 616 631 
f 598 625 631 
f 620 608 632 
f 601 620 632 
f 630 601 632 
f 613 630 632 
f 625 606 633 
f 606 629 633 
f 629 609 633 
f 609 631 633 
f 631 625 633 
f 606 620 636 
f 629 606 636 
f 614 629 636 
f 604 619 637 
f 627 602 637 
f 619 627 637 
f 601 605 638 
f 620 601 638 
f 605 623 638 
f 623 614 638 
f 614 636 638 
f 636 620 638 
f 623 609 639 
f 614 623 639 
f 609 629 639 
f 629 614 639 
f 604 617 640 
f 617 607 640 
f 607 626 640 
f 626 604 640 
f 607 618 641 
f 618 612 641 
f 626 607 641 
f 612 626 641 
f 610 606 642 
f 615 610 642 
f 606 625 642 
f 625 615 642 
f 626 612 643 
f 619 626 643 
f 612 627 643 
f 627 619 643 
f 608 621 644 
f 622 613 644 
f 621 622 644 
f 632 608 644 
f 613 632 644 
f 607 617 645 
f 618 607 645 
f 603 618 645 
f 635 603 645 
f 617 635 645 
f 611 604 646 
f 602 624 646 
f 624 611 646 
f 604 637 646 
f 637 602 646 
f 608 603 647 
f 600 621 647 
f 621 608 647 
f 634 600 647 
f 603 634 647 
f 611 610 648 
f 610 615 648 
f 616 611 648 
f 615 616 648 
f 599 600 649 
f 617 599 649 
f 600 634 649 
f 634 603 649 
f 603 635 649 
f 635 617 649 
f 615 598 650 
f 616 615 650 
f 598 631 650 
o convex_14
v -0.053578 -0.021637 0.105164
v -0.062679 -0.019453 0.100069
v -0.062314 -0.020544 0.100069
v -0.061585 -0.021273 0.109169
v -0.054307 -0.012174 0.109169
v -0.052849 -0.012174 0.100069
v -0.060492 -0.012174 0.108805
v -0.053214 -0.023093 0.100069
v -0.058673 -0.023823 0.108805
v -0.062679 -0.017271 0.100069
v -0.060130 -0.023457 0.103346
v -0.052849 -0.016542 0.106621
v -0.055035 -0.019817 0.109169
v -0.055761 -0.012174 0.100434
v -0.062314 -0.018725 0.108805
v -0.052849 -0.022729 0.101890
v -0.052849 -0.012174 0.106985
v -0.059766 -0.022729 0.100069
v -0.061585 -0.022365 0.108440
v -0.060130 -0.012174 0.106621
v -0.056854 -0.022729 0.109169
v -0.060130 -0.012174 0.109169
v -0.057219 -0.023457 0.100798
v -0.053578 -0.016178 0.108440
v -0.060130 -0.023823 0.105893
v -0.052849 -0.020181 0.105164
v -0.062314 -0.020544 0.108077
v -0.061221 -0.022365 0.101526
v -0.057583 -0.023823 0.104801
v -0.060130 -0.023457 0.109169
f 675 659 680 
f 653 652 656 
f 655 656 657 
f 653 656 658 
f 656 652 660 
f 655 654 663 
f 657 656 664 
f 656 660 664 
f 660 652 665 
f 657 660 665 
f 658 656 666 
f 659 658 666 
f 656 662 666 
f 656 655 667 
f 662 656 667 
f 653 658 668 
f 660 657 670 
f 657 664 670 
f 664 660 670 
f 663 654 671 
f 651 663 671 
f 666 651 671 
f 659 666 671 
f 654 655 672 
f 655 657 672 
f 665 654 672 
f 657 665 672 
f 668 658 673 
f 661 668 673 
f 655 663 674 
f 667 655 674 
f 662 667 674 
f 661 673 675 
f 663 651 676 
f 651 666 676 
f 666 662 676 
f 662 674 676 
f 674 663 676 
f 652 653 677 
f 665 652 677 
f 654 665 677 
f 653 669 677 
f 669 654 677 
f 653 668 678 
f 668 661 678 
f 669 653 678 
f 661 675 678 
f 675 669 678 
f 658 659 679 
f 673 658 679 
f 659 675 679 
f 675 673 679 
f 654 669 680 
f 671 654 680 
f 659 671 680 
f 669 675 680 
o convex_15
v 0.009767 -0.008899 0.006505
v -0.001153 -0.026007 0.005778
v -0.001153 -0.026007 0.007962
v -0.000788 -0.003435 0.008689
v 0.011953 -0.015446 0.009418
v -0.000788 -0.021637 0.002501
v -0.001153 -0.006712 0.004322
v 0.005039 -0.019454 0.003594
v -0.001153 -0.025640 0.009418
v 0.002490 -0.024913 0.005414
v -0.001153 -0.006712 0.009418
v 0.010495 -0.008899 0.009053
v 0.010133 -0.018358 0.007232
v 0.002490 -0.024913 0.009418
v 0.004309 -0.004894 0.006505
v 0.010495 -0.009989 0.006141
v 0.000668 -0.006712 0.004322
v -0.001153 -0.023822 0.002865
v 0.004673 -0.017269 0.003594
v 0.002126 -0.024549 0.004322
v 0.009040 -0.019454 0.009418
v 0.009404 -0.017996 0.006141
v 0.010495 -0.010353 0.009418
v 0.010860 -0.008899 0.007962
v 0.001033 -0.026007 0.007597
v 0.004673 -0.005256 0.006141
v 0.005762 -0.020543 0.004322
v 0.010495 -0.011447 0.006141
v 0.002490 -0.007077 0.009418
v 0.010495 -0.008533 0.008689
f 704 695 710 
f 682 683 687 
f 687 683 689 
f 684 687 691 
f 689 685 691 
f 687 689 691 
f 685 689 694 
f 687 684 695 
f 686 687 697 
f 687 695 697 
f 682 687 698 
f 687 686 698 
f 686 688 698 
f 688 686 699 
f 696 688 699 
f 697 696 699 
f 686 697 699 
f 690 682 700 
f 693 690 700 
f 682 698 700 
f 698 688 700 
f 693 685 701 
f 690 693 701 
f 694 690 701 
f 685 694 701 
f 691 685 703 
f 685 692 703 
f 692 685 704 
f 696 681 704 
f 685 696 704 
f 683 682 705 
f 689 683 705 
f 682 690 705 
f 690 694 705 
f 694 689 705 
f 681 696 706 
f 697 695 706 
f 696 697 706 
f 704 681 706 
f 695 704 706 
f 700 688 707 
f 693 700 707 
f 688 702 707 
f 702 693 707 
f 685 693 708 
f 688 696 708 
f 696 685 708 
f 702 688 708 
f 693 702 708 
f 684 691 709 
f 692 684 709 
f 691 703 709 
f 703 692 709 
f 684 692 710 
f 695 684 710 
f 692 704 710 
o convex_16
v 0.011224 -0.011447 0.014880
v -0.001153 -0.025279 0.009419
v 0.001760 -0.025279 0.009419
v -0.000423 -0.019817 0.021432
v -0.001153 -0.006715 0.009419
v -0.001153 -0.007806 0.021432
v 0.011952 -0.015814 0.009419
v 0.005764 -0.009627 0.021432
v 0.011588 -0.016176 0.011968
v 0.002124 -0.007078 0.009419
v 0.007584 -0.013995 0.019246
v 0.010497 -0.011084 0.009419
v 0.010133 -0.009991 0.015244
v -0.001153 -0.020908 0.020338
v -0.000423 -0.006352 0.012696
v 0.003217 -0.022364 0.013424
v 0.009405 -0.019088 0.010148
v 0.012318 -0.013267 0.010148
v 0.003217 -0.015814 0.021432
v 0.009769 -0.017995 0.011968
v 0.008312 -0.013267 0.018881
v 0.012318 -0.014360 0.011968
v 0.001760 -0.025279 0.009784
v 0.001396 -0.021271 0.017426
v 0.005764 -0.011447 0.021432
v -0.001153 -0.024912 0.011239
v 0.011588 -0.011447 0.011968
v 0.009769 -0.010719 0.017062
v -0.001153 -0.019817 0.021432
v 0.010859 -0.017632 0.009419
v 0.006492 -0.008899 0.010148
v 0.007947 -0.014360 0.018518
f 731 721 742 
f 713 712 715 
f 715 712 716 
f 713 715 717 
f 716 714 718 
f 717 715 720 
f 717 720 722 
f 716 712 724 
f 715 716 725 
f 716 718 725 
f 720 715 725 
f 723 720 725 
f 718 723 725 
f 717 722 728 
f 718 714 729 
f 714 721 729 
f 727 719 730 
f 719 717 732 
f 717 728 732 
f 728 711 732 
f 711 731 732 
f 731 719 732 
f 712 713 733 
f 713 727 733 
f 730 726 733 
f 727 730 733 
f 714 724 734 
f 730 714 734 
f 726 730 734 
f 724 733 734 
f 733 726 734 
f 718 729 735 
f 729 721 735 
f 731 718 735 
f 721 731 735 
f 724 712 736 
f 712 733 736 
f 733 724 736 
f 722 723 737 
f 723 711 737 
f 711 728 737 
f 728 722 737 
f 711 723 738 
f 723 718 738 
f 731 711 738 
f 718 731 738 
f 714 716 739 
f 724 714 739 
f 716 724 739 
f 713 717 740 
f 717 719 740 
f 727 713 740 
f 719 727 740 
f 722 720 741 
f 720 723 741 
f 723 722 741 
f 721 714 742 
f 714 730 742 
f 730 719 742 
f 719 731 742 
