o convex_0
v -0.020100 0.016028 0.058802
v -0.018644 0.017484 0.059894
v -0.018644 0.017120 0.060258
v -0.018280 0.016028 0.059166
v -0.018644 0.017120 0.058438
f 2 4 5 
f 3 2 1 
f 2 3 4 
f 3 1 4 
f 4 1 5 
f 1 2 5 
o convex_1
v -0.020100 0.009111 0.026772
v -0.022648 -0.011641 0.043871
v -0.021556 -0.011641 0.043871
v -0.024469 0.003283 0.056614
v -0.024469 0.000372 0.020217
v -0.018280 -0.002902 0.013302
v -0.018280 0.001829 0.047512
v -0.018280 -0.009818 0.045694
v -0.024469 -0.009818 0.055154
v -0.024469 0.008018 0.046053
v -0.018280 0.008382 0.039865
v -0.018280 0.005105 0.013297
v -0.024469 -0.007635 0.030409
v -0.024469 0.006560 0.025677
v -0.018280 -0.009089 0.027131
v -0.023376 -0.005086 0.056245
v -0.024469 -0.011641 0.044962
v -0.018280 0.008382 0.020580
v -0.023013 0.005832 0.052608
v -0.019009 0.002190 0.011842
v -0.024469 0.008380 0.033687
v -0.024469 -0.003629 0.023126
v -0.018645 -0.006542 0.019489
v -0.018280 -0.006176 0.047876
v -0.018280 -0.010909 0.036956
v -0.024469 0.003283 0.020944
v -0.024104 -0.011641 0.052245
v -0.018280 0.005469 0.045689
v -0.024104 0.001463 0.057346
v -0.018645 -0.001446 0.011842
v -0.018280 0.009111 0.034046
v -0.018280 -0.010909 0.043143
v -0.024104 0.006923 0.051517
v -0.019009 0.006196 0.015484
v -0.024104 -0.009091 0.034051
v -0.024104 -0.009818 0.055154
v -0.019009 -0.001809 0.049331
v -0.023013 0.008745 0.035137
v -0.020100 -0.004722 0.018034
v -0.024469 -0.004720 0.057346
v -0.018280 0.007652 0.042416
v -0.024104 0.003283 0.056614
v -0.024469 -0.005449 0.025677
v -0.018644 0.004014 0.012206
v -0.023740 0.008018 0.028954
v -0.019372 0.007652 0.019489
v -0.018644 0.009111 0.023494
v -0.024469 0.004740 0.022399
v -0.018645 -0.009089 0.027131
v -0.018280 -0.008728 0.046780
v -0.024469 -0.001809 0.021308
v -0.018280 0.002556 0.011474
v -0.024469 0.005832 0.054063
v -0.024469 -0.010546 0.039865
v -0.019372 0.000370 0.012206
v -0.019009 -0.007633 0.022762
v -0.018645 -0.002902 0.013302
v -0.024469 0.008380 0.041325
v -0.024104 -0.006178 0.056977
v -0.023740 -0.003266 0.056977
v -0.018645 -0.010182 0.032591
f 22 54 66 
f 11 12 13 
f 9 10 14 
f 10 9 15 
f 12 11 16 
f 16 11 17 
f 14 10 18 
f 10 15 19 
f 11 13 20 
f 7 8 22 
f 14 18 22 
f 16 17 23 
f 19 15 26 
f 18 10 27 
f 11 20 28 
f 13 12 29 
f 8 7 30 
f 20 13 30 
f 10 19 31 
f 25 10 31 
f 22 8 32 
f 14 22 32 
f 12 16 33 
f 15 16 36 
f 16 23 36 
f 8 30 37 
f 30 13 37 
f 32 8 37 
f 13 32 37 
f 16 15 38 
f 23 17 39 
f 32 13 41 
f 14 32 41 
f 29 12 42 
f 12 34 42 
f 6 26 43 
f 36 6 43 
f 9 14 45 
f 34 9 45 
f 33 16 46 
f 24 33 46 
f 16 38 46 
f 38 24 46 
f 12 33 47 
f 33 24 47 
f 9 34 47 
f 34 12 47 
f 18 27 48 
f 28 18 48 
f 27 44 48 
f 44 28 48 
f 25 31 49 
f 39 17 49 
f 26 6 50 
f 19 26 50 
f 23 39 51 
f 39 19 51 
f 19 50 51 
f 51 50 52 
f 6 36 52 
f 36 23 52 
f 50 6 52 
f 23 51 52 
f 31 19 53 
f 19 39 53 
f 49 31 53 
f 39 49 53 
f 28 20 54 
f 13 29 55 
f 41 13 55 
f 27 10 56 
f 10 35 56 
f 35 27 56 
f 17 11 57 
f 11 35 57 
f 35 25 57 
f 25 49 57 
f 49 17 57 
f 15 9 58 
f 38 15 58 
f 24 38 58 
f 47 24 58 
f 9 47 58 
f 22 18 59 
f 18 40 59 
f 54 22 59 
f 40 54 59 
f 10 25 60 
f 35 10 60 
f 25 35 60 
f 18 28 61 
f 40 18 61 
f 28 54 61 
f 54 40 61 
f 11 28 62 
f 35 11 62 
f 27 35 62 
f 44 27 62 
f 28 44 62 
f 26 15 63 
f 15 36 63 
f 43 26 63 
f 36 43 63 
f 29 21 64 
f 14 41 64 
f 45 14 64 
f 55 29 64 
f 41 55 64 
f 21 29 65 
f 29 42 65 
f 42 34 65 
f 34 45 65 
f 64 21 65 
f 45 64 65 
f 7 22 66 
f 30 7 66 
f 20 30 66 
f 54 20 66 
o convex_2
v 0.002107 0.013114 -0.006005
v 0.003563 -0.008364 0.000910
v 0.004292 -0.008364 0.000910
v 0.004292 -0.000354 -0.035853
v 0.000651 -0.004721 -0.021650
v 0.000651 -0.003994 0.017299
v 0.004656 0.010567 0.005281
v 0.000651 0.010563 0.010374
v 0.000651 0.008017 -0.019100
v 0.004656 0.009838 -0.025656
v 0.004656 -0.005450 0.010744
v 0.004656 -0.005450 -0.030755
v 0.000651 -0.008364 0.012924
v 0.000651 -0.007633 -0.008549
v 0.004656 0.013480 -0.004912
v 0.001015 0.001833 0.016566
v 0.000651 0.002196 -0.024927
v 0.004292 0.005831 -0.033304
v 0.000651 0.012385 -0.006005
v 0.004656 0.000375 0.011108
v 0.004656 -0.007635 -0.016551
v 0.004656 -0.007998 0.006373
v 0.004292 0.013114 -0.013278
v 0.001015 0.006560 0.014380
v 0.000651 -0.002901 -0.024563
v 0.004656 0.002558 -0.035853
v 0.001015 -0.007269 0.015478
v 0.000651 0.012385 0.001638
v 0.004292 0.009838 -0.025656
v 0.004292 -0.004359 -0.032940
v 0.004656 0.006560 0.008558
v 0.001015 -0.003994 0.017299
v 0.000651 -0.008364 0.003095
v 0.004292 0.002558 -0.035853
v 0.004292 -0.006179 -0.027113
v 0.000651 -0.006179 -0.016915
v 0.001015 0.011294 0.008194
v 0.000651 0.004012 -0.023835
v 0.000651 0.010931 -0.011457
v 0.004656 0.012021 0.001638
v 0.000651 0.004375 0.015478
v 0.001379 0.008382 0.012565
v 0.004292 0.011294 -0.020921
v 0.004292 -0.005450 -0.030755
v 0.004292 -0.007998 -0.011093
v 0.004656 0.013480 -0.009636
v 0.004656 -0.006906 0.009287
v 0.004292 0.007290 -0.031114
v 0.004656 -0.002537 -0.034756
v 0.003927 -0.001081 0.012559
v 0.004656 -0.008364 0.002731
v 0.004292 -0.002537 -0.034756
v 0.001015 0.010563 0.010374
f 74 108 119 
f 71 72 74 
f 71 74 75 
f 76 73 77 
f 76 77 78 
f 68 69 79 
f 72 71 79 
f 79 71 80 
f 73 76 81 
f 71 75 83 
f 75 74 85 
f 77 73 86 
f 78 77 87 
f 87 77 88 
f 85 67 89 
f 83 70 91 
f 71 83 91 
f 76 78 92 
f 84 76 92 
f 72 79 93 
f 79 88 93 
f 81 67 94 
f 67 85 94 
f 85 74 94 
f 71 91 96 
f 86 73 97 
f 82 86 97 
f 90 82 97 
f 82 72 98 
f 72 93 98 
f 93 77 98 
f 68 79 99 
f 79 80 99 
f 70 83 100 
f 92 70 100 
f 84 92 100 
f 78 87 101 
f 87 80 101 
f 80 71 102 
f 101 80 102 
f 94 74 103 
f 81 94 103 
f 83 75 104 
f 75 84 104 
f 100 83 104 
f 84 100 104 
f 75 85 105 
f 95 75 105 
f 73 81 106 
f 81 103 106 
f 74 72 107 
f 72 82 107 
f 90 74 107 
f 82 90 107 
f 74 90 108 
f 97 73 108 
f 90 97 108 
f 89 76 109 
f 85 89 109 
f 76 95 109 
f 105 85 109 
f 95 105 109 
f 96 78 110 
f 71 96 110 
f 78 101 110 
f 102 71 110 
f 101 102 110 
f 69 68 111 
f 80 87 111 
f 68 99 111 
f 99 80 111 
f 67 81 112 
f 81 76 112 
f 89 67 112 
f 76 89 112 
f 88 77 113 
f 77 93 113 
f 93 88 113 
f 84 75 114 
f 76 84 114 
f 75 95 114 
f 95 76 114 
f 92 78 115 
f 70 92 115 
f 78 96 115 
f 77 86 116 
f 86 82 116 
f 82 98 116 
f 98 77 116 
f 79 69 117 
f 88 79 117 
f 87 88 117 
f 69 111 117 
f 111 87 117 
f 91 70 118 
f 96 91 118 
f 70 115 118 
f 115 96 118 
f 103 74 119 
f 73 106 119 
f 106 103 119 
f 108 73 119 
o convex_3
v 0.005020 0.013843 -0.006734
v 0.009752 -0.008364 -0.036579
v 0.009752 -0.007997 -0.040943
v 0.010116 0.013843 -0.008920
v 0.004656 -0.006906 0.008556
v 0.004656 0.003284 -0.036938
v 0.010116 -0.006179 0.000546
v 0.009752 0.011293 -0.037669
v 0.004656 0.006196 0.008191
v 0.004656 -0.005814 -0.030389
v 0.010116 -0.000353 -0.050780
v 0.010116 0.002195 0.002000
v 0.007204 0.009110 -0.039123
v 0.004656 0.011658 -0.020558
v 0.004656 -0.007999 0.005640
v 0.010116 -0.008364 -0.009279
v 0.007568 -0.000717 -0.046769
v 0.005020 0.010929 0.004186
v 0.005748 -0.002173 0.009652
v 0.007932 0.012749 -0.029293
v 0.004656 -0.007999 -0.012560
v 0.010116 -0.005812 -0.047493
v 0.010116 0.008017 -0.000909
v 0.008660 0.001830 -0.049319
v 0.005020 -0.003994 -0.035849
v 0.004656 0.013843 -0.008195
v 0.010116 0.010202 -0.036938
v 0.009388 0.013843 -0.017654
v 0.004656 0.007652 -0.031843
v 0.006476 0.004376 -0.043129
v 0.005020 0.001833 0.010017
v 0.009024 -0.005085 -0.046769
v 0.006476 0.014208 -0.012925
v 0.010116 -0.004356 0.002000
v 0.005020 -0.005450 0.010017
v 0.008296 0.010931 -0.038034
v 0.010116 0.001833 -0.050043
v 0.010116 -0.007635 -0.002729
v 0.010116 0.011658 -0.004549
v 0.004656 -0.000717 -0.036938
v 0.005020 0.006196 0.008191
v 0.004656 0.012020 0.001276
v 0.009752 0.012749 -0.029293
v 0.010116 -0.008364 -0.036579
v 0.004656 -0.007270 -0.020923
v 0.009388 -0.001809 -0.050043
v 0.007204 -0.005814 -0.039848
v 0.008296 0.010202 -0.039489
v 0.008660 -0.008364 -0.018385
v 0.006840 0.003284 -0.044949
v 0.005020 0.009837 -0.028563
v 0.006840 -0.002173 -0.043859
v 0.004656 0.000739 0.010382
v 0.006840 0.009473 0.003096
v 0.009752 -0.007270 -0.044218
v 0.005020 -0.007270 0.007832
v 0.009752 -0.000353 0.003096
v 0.009752 0.004740 0.001641
v 0.006840 0.013843 -0.006369
v 0.007568 0.010931 -0.035849
v 0.006840 0.006925 -0.041309
v 0.004656 0.013114 -0.013655
v 0.004656 0.005834 -0.034759
v 0.005384 0.000377 0.010017
f 177 150 183 
f 125 124 128 
f 124 125 129 
f 123 126 130 
f 126 123 131 
f 125 128 133 
f 124 129 134 
f 130 126 135 
f 122 121 140 
f 134 129 140 
f 130 135 141 
f 131 123 142 
f 133 128 145 
f 123 130 146 
f 125 133 148 
f 145 120 152 
f 123 147 152 
f 147 139 152 
f 126 131 153 
f 153 138 154 
f 126 153 154 
f 139 127 155 
f 130 143 156 
f 127 146 156 
f 146 130 156 
f 135 126 157 
f 134 135 157 
f 123 137 158 
f 142 123 158 
f 129 125 159 
f 144 129 159 
f 137 128 160 
f 128 150 160 
f 137 123 161 
f 128 137 161 
f 120 145 161 
f 145 128 161 
f 127 139 162 
f 123 146 162 
f 146 127 162 
f 147 123 162 
f 139 147 162 
f 121 122 163 
f 135 121 163 
f 141 135 163 
f 129 122 164 
f 122 140 164 
f 140 129 164 
f 130 141 165 
f 143 130 165 
f 136 143 165 
f 151 136 165 
f 141 151 165 
f 129 144 166 
f 144 151 166 
f 132 155 167 
f 155 127 167 
f 156 143 167 
f 127 156 167 
f 121 135 168 
f 135 134 168 
f 140 121 168 
f 134 140 168 
f 143 136 169 
f 125 149 169 
f 159 125 169 
f 136 159 169 
f 132 148 170 
f 148 133 170 
f 136 151 171 
f 151 144 171 
f 144 159 171 
f 159 136 171 
f 128 124 172 
f 150 128 172 
f 124 154 172 
f 158 137 173 
f 142 158 173 
f 137 160 173 
f 160 142 173 
f 122 129 174 
f 151 141 174 
f 163 122 174 
f 141 163 174 
f 129 166 174 
f 166 151 174 
f 124 134 175 
f 154 124 175 
f 126 154 175 
f 157 126 175 
f 134 157 175 
f 153 131 176 
f 138 153 176 
f 131 142 177 
f 142 160 177 
f 160 150 177 
f 152 120 178 
f 123 152 178 
f 120 161 178 
f 161 123 178 
f 133 139 179 
f 155 132 179 
f 139 155 179 
f 132 170 179 
f 170 133 179 
f 148 132 180 
f 132 167 180 
f 167 143 180 
f 143 169 180 
f 169 149 180 
f 139 133 181 
f 133 145 181 
f 145 152 181 
f 152 139 181 
f 125 148 182 
f 149 125 182 
f 148 180 182 
f 180 149 182 
f 154 138 183 
f 150 172 183 
f 172 154 183 
f 138 176 183 
f 176 131 183 
f 131 177 183 
o convex_4
v 0.010117 0.009472 -0.002731
v 0.014849 -0.011276 -0.043496
v 0.013757 -0.010546 -0.044584
v 0.010117 -0.006905 -0.001274
v 0.010117 0.001829 -0.050410
v 0.015213 0.011294 -0.012194
v 0.015213 -0.004721 -0.006367
v 0.015213 0.002193 -0.048590
v 0.010117 0.013844 -0.010737
v 0.010117 -0.008363 -0.040219
v 0.015213 -0.009090 -0.051139
v 0.015213 -0.008724 -0.016200
v 0.010481 0.001104 0.001645
v 0.012665 0.005105 -0.043127
v 0.010117 -0.008363 -0.009280
v 0.010117 -0.005813 -0.048225
v 0.015213 0.005469 -0.007095
v 0.014121 0.012385 -0.012558
v 0.015213 -0.010910 -0.033664
v 0.010117 -0.003627 0.001645
v 0.014849 -0.000352 -0.004916
v 0.014849 -0.000718 -0.050410
v 0.010481 0.011294 -0.004546
v 0.010117 -0.008724 -0.032207
v 0.010117 -0.001446 -0.050775
v 0.015213 -0.007268 -0.010009
v 0.013393 -0.009454 -0.048954
v 0.010481 0.006560 -0.000546
v 0.010845 -0.007999 -0.005644
v 0.015213 -0.006907 -0.051503
v 0.010481 -0.003627 0.001645
v 0.011937 0.013113 -0.009280
v 0.014849 0.008016 -0.008188
v 0.010481 -0.006543 -0.000546
v 0.010117 0.006924 -0.034392
v 0.011573 0.001104 -0.050775
v 0.015213 -0.010546 -0.048954
v 0.014849 -0.011276 -0.039491
v 0.010117 -0.008724 -0.022755
v 0.015213 0.011294 -0.013650
v 0.010117 -0.007632 -0.044225
v 0.013757 -0.008724 -0.050410
v 0.015213 0.001466 -0.005639
v 0.010481 0.013844 -0.010737
v 0.010845 0.003283 0.000547
v 0.012301 0.005105 -0.043127
v 0.010117 0.003647 0.000911
v 0.010117 0.013844 -0.009280
v 0.015213 -0.002901 -0.005639
v 0.015213 -0.006179 -0.007829
v 0.015213 -0.010546 -0.030022
v 0.015213 0.001104 -0.049682
f 205 219 235 
f 187 184 188 
f 189 190 191 
f 188 184 192 
f 187 188 193 
f 191 190 194 
f 194 190 195 
f 191 188 197 
f 187 193 198 
f 193 188 199 
f 190 189 200 
f 191 197 201 
f 194 195 202 
f 184 187 203 
f 186 185 207 
f 193 186 207 
f 198 193 207 
f 199 188 208 
f 195 190 209 
f 186 193 210 
f 206 184 211 
f 187 198 212 
f 195 209 212 
f 191 194 213 
f 194 208 213 
f 196 203 214 
f 204 196 214 
f 189 201 215 
f 206 189 215 
f 200 189 216 
f 189 206 216 
f 211 200 216 
f 206 211 216 
f 203 187 217 
f 187 212 217 
f 212 209 217 
f 190 214 217 
f 214 203 217 
f 188 192 218 
f 188 191 219 
f 208 188 219 
f 205 213 219 
f 213 208 219 
f 185 186 220 
f 202 185 220 
f 194 202 220 
f 186 210 220 
f 185 202 221 
f 202 198 221 
f 207 185 221 
f 207 221 222 
f 198 207 222 
f 221 198 222 
f 189 191 223 
f 201 189 223 
f 191 201 223 
f 193 199 224 
f 210 193 224 
f 199 210 224 
f 199 208 225 
f 208 194 225 
f 210 199 225 
f 194 220 225 
f 220 210 225 
f 190 200 226 
f 196 204 226 
f 197 192 227 
f 201 197 227 
f 215 201 227 
f 200 211 228 
f 226 200 228 
f 196 226 228 
f 197 188 229 
f 192 197 229 
f 188 218 229 
f 218 192 229 
f 184 203 230 
f 203 196 230 
f 211 184 230 
f 196 228 230 
f 228 211 230 
f 192 184 231 
f 184 206 231 
f 206 215 231 
f 227 192 231 
f 215 227 231 
f 214 190 232 
f 204 214 232 
f 190 226 232 
f 226 204 232 
f 209 190 233 
f 190 217 233 
f 217 209 233 
f 202 195 234 
f 198 202 234 
f 212 198 234 
f 195 212 234 
f 191 213 235 
f 213 205 235 
f 219 191 235 
o convex_5
v 0.015213 0.000736 -0.049684
v 0.023587 -0.014917 -0.044952
v 0.024678 -0.014917 -0.044952
v 0.015213 0.005105 -0.027482
v 0.027227 0.004376 -0.044225
v 0.027227 -0.009091 -0.027482
v 0.015213 -0.010182 -0.027482
v 0.015943 -0.009819 -0.051504
v 0.027227 0.003649 -0.027846
v 0.027227 -0.012366 -0.046408
v 0.022129 -0.009091 -0.050777
v 0.019947 0.004378 -0.047137
v 0.027227 -0.014551 -0.039495
v 0.015213 -0.011275 -0.046411
v 0.017035 0.005834 -0.034401
v 0.024678 0.005105 -0.030393
v 0.024314 -0.012366 -0.049687
v 0.018491 -0.007999 -0.052236
v 0.015213 0.005105 -0.037675
v 0.022859 -0.010548 -0.027482
v 0.021766 0.004012 -0.047501
v 0.020675 -0.013459 -0.048957
v 0.027227 0.003649 -0.044952
v 0.015213 -0.011275 -0.036221
v 0.023587 -0.014917 -0.042041
v 0.025770 0.004376 -0.027482
v 0.027227 0.004741 -0.042041
v 0.015213 0.002192 -0.048591
v 0.015213 -0.006177 -0.051504
v 0.018491 -0.013095 -0.045679
v 0.018491 -0.010911 -0.028212
v 0.027227 -0.014917 -0.043495
v 0.017398 -0.009819 -0.052236
v 0.024314 -0.013461 -0.048957
v 0.026498 -0.010182 -0.028212
v 0.017035 -0.011639 -0.050050
v 0.024314 -0.010548 -0.049687
v 0.027227 0.004741 -0.035857
v 0.015213 -0.010182 -0.050411
v 0.026135 -0.010909 -0.047864
v 0.017763 0.005834 -0.033671
v 0.015578 -0.010911 -0.031125
v 0.022129 -0.014551 -0.043495
v 0.019947 -0.012368 -0.050411
v 0.021038 0.003649 -0.047867
v 0.025770 -0.014917 -0.040949
v 0.019582 -0.013459 -0.047499
v 0.024314 -0.014188 -0.047864
v 0.021766 0.004376 -0.047137
v 0.018126 -0.007633 -0.052236
v 0.017035 0.005105 -0.027482
v 0.016670 -0.010546 -0.027482
v 0.021766 -0.011639 -0.050777
v 0.015578 -0.011639 -0.039858
f 278 259 289 
f 241 239 242 
f 239 236 242 
f 241 240 244 
f 240 241 245 
f 245 241 248 
f 242 236 249 
f 236 239 254 
f 239 250 254 
f 250 247 254 
f 241 242 255 
f 246 253 256 
f 240 245 258 
f 256 240 258 
f 246 256 258 
f 242 249 259 
f 237 238 260 
f 239 241 261 
f 241 244 261 
f 244 240 262 
f 236 254 263 
f 254 247 263 
f 249 236 264 
f 248 255 266 
f 245 248 267 
f 260 238 267 
f 243 264 268 
f 252 245 269 
f 245 267 269 
f 248 241 270 
f 241 255 270 
f 255 248 270 
f 243 268 271 
f 252 246 272 
f 246 258 272 
f 261 244 273 
f 251 261 273 
f 262 251 273 
f 244 262 273 
f 249 264 274 
f 264 243 274 
f 243 271 274 
f 271 249 274 
f 245 252 275 
f 258 245 275 
f 252 272 275 
f 272 258 275 
f 250 239 276 
f 251 262 276 
f 262 250 276 
f 242 259 277 
f 260 242 277 
f 260 277 278 
f 237 260 278 
f 277 259 278 
f 269 257 279 
f 257 271 279 
f 271 268 279 
f 256 253 280 
f 236 263 280 
f 263 247 280 
f 248 266 281 
f 267 248 281 
f 260 267 281 
f 257 237 282 
f 265 249 282 
f 249 271 282 
f 271 257 282 
f 237 278 282 
f 278 265 282 
f 238 237 283 
f 237 257 283 
f 267 238 283 
f 257 269 283 
f 269 267 283 
f 247 250 284 
f 240 256 284 
f 262 240 284 
f 250 262 284 
f 280 247 284 
f 256 280 284 
f 264 236 285 
f 253 268 285 
f 268 264 285 
f 236 280 285 
f 280 253 285 
f 239 261 286 
f 261 251 286 
f 276 239 286 
f 251 276 286 
f 255 242 287 
f 242 260 287 
f 266 255 287 
f 281 266 287 
f 260 281 287 
f 246 252 288 
f 253 246 288 
f 268 253 288 
f 252 269 288 
f 279 268 288 
f 269 279 288 
f 259 249 289 
f 249 265 289 
f 265 278 289 
o convex_6
v 0.030138 -0.005814 -0.026752
v 0.015579 0.007655 -0.017286
v 0.015579 0.007655 -0.018380
v 0.015213 -0.010183 -0.027479
v 0.018492 -0.008364 -0.017286
v 0.015213 0.005470 -0.027479
v 0.033780 0.001465 -0.027480
v 0.024315 0.004013 -0.017286
v 0.015213 -0.008726 -0.017286
v 0.027225 0.005834 -0.022021
v 0.025769 -0.009818 -0.027479
v 0.023588 -0.002903 -0.017286
v 0.025769 0.004378 -0.027479
v 0.033780 0.000009 -0.027116
v 0.023225 0.006562 -0.017286
v 0.020677 -0.010548 -0.026752
v 0.021405 -0.007272 -0.018380
v 0.015213 0.007655 -0.017286
v 0.027590 0.005470 -0.020928
v 0.027590 -0.008726 -0.027116
v 0.024315 0.000009 -0.017286
v 0.023225 -0.004358 -0.017652
v 0.031959 0.002920 -0.026387
v 0.031231 -0.004722 -0.027479
v 0.017036 -0.010548 -0.027116
v 0.032323 -0.002903 -0.027116
v 0.024315 -0.010183 -0.027116
v 0.016671 -0.008726 -0.017286
v 0.031959 0.002920 -0.025295
v 0.022132 -0.005451 -0.017286
f 290 311 319 
f 293 295 296 
f 291 294 297 
f 294 291 298 
f 295 293 298 
f 295 292 299 
f 293 296 300 
f 297 294 301 
f 296 295 302 
f 295 299 302 
f 292 291 304 
f 291 297 304 
f 299 292 304 
f 291 292 307 
f 292 295 307 
f 298 291 307 
f 295 298 307 
f 304 297 308 
f 299 304 308 
f 294 300 309 
f 290 306 309 
f 306 294 309 
f 297 301 310 
f 303 297 310 
f 301 303 310 
f 303 301 311 
f 296 302 312 
f 302 299 312 
f 300 296 313 
f 296 303 313 
f 309 300 313 
f 290 309 313 
f 298 293 314 
f 293 300 314 
f 305 298 314 
f 311 290 315 
f 303 311 315 
f 313 303 315 
f 290 313 315 
f 300 294 316 
f 314 300 316 
f 305 314 316 
f 294 298 317 
f 298 305 317 
f 316 294 317 
f 305 316 317 
f 303 296 318 
f 297 303 318 
f 299 308 318 
f 308 297 318 
f 296 312 318 
f 312 299 318 
f 301 294 319 
f 306 290 319 
f 294 306 319 
f 311 301 319 
o convex_7
v 0.015213 -0.008362 -0.014372
v 0.015578 0.002193 -0.006365
v 0.015942 0.001829 -0.006729
v 0.015213 0.008016 -0.017286
v 0.023951 0.004011 -0.017286
v 0.022130 -0.005087 -0.017286
v 0.015213 0.010931 -0.012189
v 0.015578 -0.004358 -0.006729
v 0.015213 -0.008728 -0.017286
v 0.023222 0.006561 -0.016922
v 0.023951 -0.000353 -0.016922
v 0.015213 0.006561 -0.008185
v 0.019945 -0.007271 -0.016557
v 0.019582 0.009474 -0.015101
v 0.015213 -0.006178 -0.008550
v 0.015578 0.007654 -0.008914
v 0.018126 0.010202 -0.015101
v 0.023951 0.004011 -0.016922
v 0.022130 -0.004722 -0.016557
v 0.015942 -0.003267 -0.006729
v 0.022494 0.006925 -0.017286
v 0.018126 -0.008362 -0.016922
v 0.015578 -0.006178 -0.008550
v 0.015213 -0.003630 -0.006365
v 0.023222 0.000738 -0.015829
v 0.015213 0.010931 -0.013645
v 0.015578 0.005106 -0.007457
v 0.020309 0.009111 -0.016194
v 0.022859 -0.003267 -0.016557
v 0.015942 -0.007271 -0.011097
v 0.023587 0.005834 -0.016922
f 329 346 350 
f 323 324 325 
f 323 320 326 
f 320 323 328 
f 323 325 328 
f 325 324 330 
f 326 320 331 
f 331 320 334 
f 326 331 335 
f 333 326 335 
f 329 333 335 
f 326 333 336 
f 321 322 337 
f 330 324 337 
f 332 325 338 
f 322 321 339 
f 324 323 340 
f 320 328 341 
f 328 325 341 
f 325 332 341 
f 327 334 342 
f 338 327 342 
f 332 338 342 
f 321 331 343 
f 334 327 343 
f 331 334 343 
f 339 321 343 
f 327 339 343 
f 337 322 344 
f 330 337 344 
f 322 339 344 
f 339 330 344 
f 323 326 345 
f 336 323 345 
f 326 336 345 
f 331 321 346 
f 329 335 346 
f 335 331 346 
f 333 329 347 
f 323 336 347 
f 336 333 347 
f 340 323 347 
f 329 340 347 
f 325 330 348 
f 338 325 348 
f 327 338 348 
f 339 327 348 
f 330 339 348 
f 334 320 349 
f 320 341 349 
f 341 332 349 
f 342 334 349 
f 332 342 349 
f 321 337 350 
f 337 324 350 
f 324 340 350 
f 340 329 350 
f 346 321 350 
o convex_8
v -0.025926 0.008383 0.039514
v -0.024469 0.001102 0.058072
v -0.024469 -0.001083 0.058072
v -0.037575 0.002194 0.059527
v -0.024833 -0.001083 0.021671
v -0.036482 -0.001083 0.039510
v -0.037209 0.005105 0.043508
v -0.036482 0.006561 0.059889
v -0.024469 0.005106 0.023491
v -0.024469 0.006926 0.051883
v -0.031749 -0.001083 0.060258
v -0.027747 0.005105 0.060258
v -0.037209 0.002558 0.039510
v -0.037575 0.006561 0.050063
v -0.024833 0.007654 0.030042
v -0.024469 0.002194 0.020940
v -0.036482 -0.001083 0.049332
v -0.031022 0.006926 0.058072
v -0.035390 0.007289 0.054793
v -0.024469 0.008019 0.046056
v -0.025926 -0.001083 0.060258
v -0.035390 0.000375 0.036234
v -0.037575 0.001466 0.041326
v -0.037209 0.005834 0.060258
v -0.024833 0.005106 0.023491
v -0.028838 0.008019 0.039510
v -0.025198 0.001830 0.021305
v -0.024469 -0.001083 0.021671
v -0.024469 0.008383 0.034414
v -0.025926 0.003287 0.059892
v -0.029932 0.006561 0.059527
v -0.024833 0.006562 0.026401
v -0.024469 0.005470 0.055159
v -0.037575 0.006561 0.057706
v -0.025198 0.003287 0.022033
v -0.036846 0.006926 0.050063
v -0.024833 -0.000355 0.020940
v -0.035390 -0.001083 0.036962
v -0.027382 0.005470 0.059889
v -0.037209 0.004012 0.041326
v -0.031386 0.007654 0.051518
v -0.037209 0.002558 0.060258
v -0.037209 0.000375 0.049697
v -0.029932 0.008019 0.042781
v -0.037209 0.001831 0.059527
v -0.033205 0.003650 0.034414
v -0.024469 0.008383 0.041322
v -0.037209 0.006561 0.048970
v -0.037575 0.004012 0.042419
v -0.037209 0.000739 0.039510
v -0.030659 0.006197 0.060258
v -0.034662 0.001466 0.035141
f 385 377 402 
f 355 353 356 
f 352 353 359 
f 352 359 360 
f 356 353 361 
f 359 353 366 
f 356 361 367 
f 358 368 369 
f 360 359 370 
f 353 352 371 
f 361 353 371 
f 362 361 371 
f 354 364 373 
f 361 362 374 
f 359 366 375 
f 353 355 378 
f 366 353 378 
f 359 365 379 
f 370 359 379 
f 365 376 379 
f 371 352 380 
f 362 371 380 
f 368 358 381 
f 370 368 381 
f 360 370 381 
f 357 365 382 
f 365 359 382 
f 375 357 382 
f 359 375 382 
f 352 360 383 
f 380 352 383 
f 364 354 384 
f 358 369 384 
f 354 374 384 
f 374 358 384 
f 375 366 385 
f 366 377 385 
f 364 384 386 
f 384 369 386 
f 377 366 387 
f 372 377 387 
f 378 355 387 
f 366 378 387 
f 355 356 388 
f 387 355 388 
f 372 387 388 
f 362 380 389 
f 360 381 389 
f 383 360 389 
f 380 383 389 
f 357 375 390 
f 351 369 391 
f 369 368 391 
f 368 370 391 
f 374 354 392 
f 361 374 392 
f 367 354 393 
f 356 367 393 
f 373 356 393 
f 354 373 393 
f 369 351 394 
f 351 379 394 
f 379 376 394 
f 376 386 394 
f 386 369 394 
f 354 367 395 
f 367 361 395 
f 392 354 395 
f 361 392 395 
f 385 363 396 
f 375 385 396 
f 363 390 396 
f 390 375 396 
f 370 379 397 
f 379 351 397 
f 351 391 397 
f 391 370 397 
f 357 364 398 
f 365 357 398 
f 376 365 398 
f 364 386 398 
f 386 376 398 
f 364 357 399 
f 363 373 399 
f 373 364 399 
f 357 390 399 
f 390 363 399 
f 363 372 400 
f 356 373 400 
f 373 363 400 
f 388 356 400 
f 372 388 400 
f 358 374 401 
f 374 362 401 
f 381 358 401 
f 362 389 401 
f 389 381 401 
f 372 363 402 
f 377 372 402 
f 363 385 402 
o convex_9
v -0.011364 0.010201 0.013300
v -0.018280 -0.010910 0.036584
v -0.010635 -0.009819 0.024212
v -0.010635 -0.001442 -0.001632
v -0.018280 0.003649 0.011481
v -0.017915 0.006559 0.043867
v -0.010271 -0.002174 0.035491
v -0.010271 0.009105 0.028576
v -0.018280 -0.008360 0.046417
v -0.018280 -0.006905 0.019857
v -0.018280 0.009110 0.022760
v -0.010271 0.006559 0.001649
v -0.010271 -0.007268 0.008931
v -0.010271 -0.009453 0.032220
v -0.018280 0.008746 0.037320
v -0.018280 -0.001078 0.011118
v -0.017915 0.003283 0.046417
v -0.010271 0.005832 0.032946
v -0.014639 -0.005813 0.042415
v -0.010271 0.010201 0.022760
v -0.017915 -0.010910 0.042415
v -0.018280 0.007289 0.016576
v -0.010635 -0.003627 0.000560
v -0.010635 0.002190 -0.001632
v -0.010635 0.008746 0.006018
v -0.016095 0.009837 0.024947
v -0.010271 -0.007998 0.034402
v -0.018280 -0.009453 0.028213
v -0.017187 -0.001444 0.046417
v -0.018280 -0.003627 0.013663
v -0.018280 0.007652 0.042047
v -0.011000 0.005832 0.001286
v -0.010635 -0.007998 0.011844
v -0.010635 -0.010183 0.028939
v -0.010271 -0.001442 -0.001632
v -0.017552 -0.009453 0.044960
v -0.010635 -0.006175 0.005655
v -0.010271 0.002919 0.034402
v -0.017915 0.001462 0.010029
v -0.010271 0.010201 0.011844
v -0.017915 -0.006543 0.047152
v -0.018280 0.005832 0.013663
v -0.018280 0.000737 0.047152
v -0.018280 -0.007998 0.022760
v -0.010635 0.007652 0.031852
v -0.010635 0.007289 0.002747
v -0.018280 0.009110 0.034039
v -0.017552 0.005468 0.044597
v -0.013912 0.009110 0.032583
v -0.010271 -0.009089 0.018758
v -0.010271 -0.005084 0.035491
v -0.010635 0.004011 -0.000897
v -0.017915 0.009471 0.024216
v -0.017915 0.007652 0.042047
v -0.015732 0.009471 0.031494
v -0.017915 -0.005084 0.015483
v -0.017552 0.000007 0.046779
v -0.011000 -0.002174 -0.000538
v -0.017915 -0.008360 0.046417
v -0.010635 -0.007268 0.008931
v -0.012091 0.010201 0.022397
v -0.011000 -0.000716 -0.001259
v -0.016823 -0.010910 0.040228
f 436 416 465 
f 407 404 411 
f 404 407 412 
f 407 411 413 
f 410 409 414 
f 414 409 415 
f 415 409 416 
f 413 411 417 
f 412 407 418 
f 409 410 420 
f 410 414 422 
f 411 404 423 
f 407 413 424 
f 413 403 427 
f 424 413 427 
f 416 409 429 
f 404 412 430 
f 421 409 431 
f 412 418 432 
f 417 411 433 
f 419 408 433 
f 404 430 435 
f 404 405 436 
f 414 415 437 
f 415 425 437 
f 425 406 437 
f 406 426 437 
f 411 423 438 
f 423 416 438 
f 416 429 438 
f 425 415 439 
f 409 420 440 
f 420 419 440 
f 418 407 441 
f 407 426 441 
f 403 422 442 
f 422 414 442 
f 427 403 442 
f 414 427 442 
f 421 431 443 
f 407 424 444 
f 434 407 444 
f 433 411 445 
f 419 433 445 
f 411 443 445 
f 430 412 446 
f 412 439 446 
f 420 410 447 
f 427 414 448 
f 424 427 448 
f 414 434 448 
f 444 424 448 
f 434 444 448 
f 413 417 449 
f 408 419 450 
f 419 420 450 
f 447 408 450 
f 420 447 450 
f 410 422 451 
f 405 404 452 
f 415 416 452 
f 404 435 452 
f 435 415 452 
f 436 405 452 
f 416 436 452 
f 409 421 453 
f 429 409 453 
f 421 429 453 
f 426 407 454 
f 407 434 454 
f 434 414 454 
f 414 437 454 
f 437 426 454 
f 403 413 455 
f 428 403 455 
f 413 449 455 
f 449 428 455 
f 433 408 456 
f 417 433 456 
f 408 447 456 
f 447 410 456 
f 410 451 456 
f 451 417 456 
f 449 417 457 
f 428 449 457 
f 451 422 457 
f 417 451 457 
f 412 432 458 
f 432 425 458 
f 439 412 458 
f 425 439 458 
f 431 409 459 
f 409 440 459 
f 440 419 459 
f 443 431 459 
f 419 445 459 
f 445 443 459 
f 418 406 460 
f 406 425 460 
f 432 418 460 
f 425 432 460 
f 429 421 461 
f 411 438 461 
f 438 429 461 
f 443 411 461 
f 421 443 461 
f 415 435 462 
f 435 430 462 
f 439 415 462 
f 430 446 462 
f 446 439 462 
f 422 403 463 
f 403 428 463 
f 457 422 463 
f 428 457 463 
f 406 418 464 
f 426 406 464 
f 418 441 464 
f 441 426 464 
f 423 404 465 
f 416 423 465 
f 404 436 465 
o convex_10
v -0.033569 -0.007634 0.042052
v -0.024469 -0.001083 0.051157
v -0.026654 -0.001083 0.051157
v -0.024469 -0.001083 0.021668
v -0.024469 -0.012005 0.050790
v -0.036119 -0.001083 0.049696
v -0.033205 -0.010547 0.051157
v -0.024834 -0.008000 0.031866
v -0.036119 -0.001447 0.038776
v -0.025198 -0.003632 0.024220
v -0.029566 -0.012005 0.050790
v -0.024469 -0.010547 0.040231
v -0.035026 -0.004360 0.039140
v -0.034298 -0.008362 0.051157
v -0.032113 -0.011275 0.050426
v -0.035754 -0.001083 0.037685
v -0.035390 -0.005088 0.042052
v -0.035754 -0.001083 0.050426
v -0.024834 -0.005088 0.025674
v -0.024834 -0.012005 0.051157
v -0.025198 -0.001812 0.022398
v -0.036119 -0.002541 0.047511
v -0.024469 -0.011640 0.045329
v -0.035026 -0.002175 0.036955
v -0.024469 -0.006181 0.027859
v -0.032477 -0.009090 0.044235
v -0.024834 -0.010184 0.038776
v -0.033934 -0.005453 0.051157
v -0.034663 -0.007272 0.044601
v -0.033569 -0.006906 0.040595
v -0.025198 -0.007272 0.030405
f 466 495 496 
f 468 467 469 
f 469 467 470 
f 468 469 471 
f 467 468 472 
f 469 470 477 
f 472 468 479 
f 472 466 480 
f 476 472 480 
f 471 469 481 
f 474 471 481 
f 474 478 482 
f 468 471 483 
f 471 479 483 
f 478 475 484 
f 470 467 485 
f 467 472 485 
f 472 476 485 
f 476 470 485 
f 475 478 486 
f 481 469 486 
f 469 484 486 
f 484 475 486 
f 471 474 487 
f 479 471 487 
f 474 482 487 
f 482 479 487 
f 470 476 488 
f 477 470 488 
f 478 474 489 
f 474 481 489 
f 486 478 489 
f 481 486 489 
f 477 473 490 
f 469 477 490 
f 484 469 490 
f 480 466 491 
f 473 480 491 
f 473 477 492 
f 480 473 492 
f 476 480 492 
f 488 476 492 
f 477 488 492 
f 479 468 493 
f 468 483 493 
f 483 479 493 
f 466 472 494 
f 478 466 494 
f 472 479 494 
f 482 478 494 
f 479 482 494 
f 466 478 495 
f 478 484 495 
f 495 484 496 
f 490 473 496 
f 484 490 496 
f 491 466 496 
f 473 491 496 
o convex_11
v -0.007358 0.010931 0.009295
v -0.010271 -0.009820 0.024214
v -0.006630 -0.008727 0.011839
v -0.010271 -0.001080 -0.002356
v -0.010271 0.006560 0.031855
v -0.006266 -0.004722 0.028944
v -0.006266 0.001100 -0.009277
v -0.006266 0.009836 0.021666
v -0.010271 0.008743 0.005293
v -0.009906 -0.008725 0.032946
v -0.006266 -0.006178 -0.001628
v -0.006266 0.008382 -0.002356
v -0.006266 -0.009455 0.024214
v -0.010271 0.010200 0.022394
v -0.010271 -0.006905 0.007113
v -0.010271 0.004376 -0.001265
v -0.006266 0.004740 0.027125
v -0.010271 -0.001445 0.034774
v -0.006630 -0.003265 -0.007815
v -0.006630 0.006560 -0.005634
v -0.006266 0.010565 0.004198
v -0.009906 0.002193 0.034041
v -0.010271 0.010200 0.011114
v -0.009906 0.008380 0.029673
v -0.010271 -0.009820 0.030402
v -0.009542 -0.004722 0.034407
v -0.010271 -0.003629 -0.000175
v -0.006630 -0.007633 0.003831
v -0.006266 -0.007269 0.028215
v -0.006630 0.001100 -0.009277
v -0.006630 0.000375 0.029311
v -0.006266 0.010931 0.012925
v -0.006266 0.007289 0.025667
v -0.010271 -0.008362 0.013292
v -0.006266 -0.009455 0.018751
v -0.006630 0.004011 -0.008182
v -0.006630 -0.004722 -0.005267
v -0.009542 0.005833 0.031855
v -0.010271 0.006923 0.001645
v -0.010271 0.009109 0.028215
v -0.009906 -0.006905 0.034407
v -0.010271 0.001827 -0.002356
v -0.006630 0.010202 0.002740
v -0.006630 -0.001082 -0.009277
v -0.006630 0.008382 -0.002356
v -0.006630 0.010565 0.018388
v -0.006266 -0.003265 -0.007815
v -0.009542 -0.002538 0.034407
v -0.010271 -0.007635 0.034041
v -0.007722 -0.009091 0.028582
v -0.008450 -0.009820 0.026762
v -0.006630 -0.006542 -0.000537
f 511 533 548 
f 500 498 501 
f 502 503 504 
f 500 501 505 
f 503 502 507 
f 504 503 508 
f 507 502 509 
f 505 501 510 
f 498 500 511 
f 500 505 512 
f 502 504 513 
f 501 498 514 
f 504 508 517 
f 501 514 518 
f 510 497 519 
f 505 510 519 
f 497 517 519 
f 514 498 521 
f 511 500 523 
f 500 515 523 
f 509 502 525 
f 502 513 527 
f 513 518 527 
f 497 510 528 
f 517 497 528 
f 504 517 528 
f 513 504 529 
f 504 520 529 
f 499 498 530 
f 498 511 530 
f 524 499 530 
f 511 524 530 
f 498 499 531 
f 507 509 531 
f 499 524 531 
f 524 507 531 
f 508 503 532 
f 516 508 532 
f 512 516 532 
f 503 526 532 
f 511 523 533 
f 523 515 533 
f 501 518 534 
f 518 513 534 
f 520 501 534 
f 513 529 534 
f 529 520 534 
f 512 505 535 
f 516 512 535 
f 510 501 536 
f 520 504 536 
f 501 520 536 
f 502 522 537 
f 522 514 537 
f 506 525 537 
f 525 502 537 
f 500 512 538 
f 526 500 538 
f 512 532 538 
f 532 526 538 
f 517 508 539 
f 505 519 539 
f 519 517 539 
f 515 500 540 
f 500 526 540 
f 526 503 540 
f 508 516 541 
f 535 505 541 
f 516 535 541 
f 505 539 541 
f 539 508 541 
f 528 510 542 
f 504 528 542 
f 536 504 542 
f 510 536 542 
f 503 507 543 
f 507 533 543 
f 533 515 543 
f 515 540 543 
f 540 503 543 
f 518 514 544 
f 522 502 544 
f 514 522 544 
f 502 527 544 
f 527 518 544 
f 521 506 545 
f 514 521 545 
f 506 537 545 
f 537 514 545 
f 521 509 546 
f 506 521 546 
f 525 506 546 
f 509 525 546 
f 521 498 547 
f 509 521 547 
f 498 531 547 
f 531 509 547 
f 507 524 548 
f 524 511 548 
f 533 507 548 
o convex_12
v -0.004810 0.011293 0.003473
v -0.006266 -0.009454 0.018748
v -0.002262 -0.008363 0.003829
v -0.006266 -0.001081 -0.009996
v -0.006266 0.006924 0.025306
v -0.001897 0.000010 0.021662
v -0.001897 0.004012 -0.016915
v -0.001897 0.010930 0.012558
v -0.001897 -0.005448 -0.012915
v -0.005902 -0.007633 0.027491
v -0.001897 -0.008363 0.019113
v -0.006266 0.008381 -0.003081
v -0.001897 0.011293 -0.003446
v -0.006266 -0.006906 0.000193
v -0.006266 0.010566 0.017658
v -0.002262 -0.002536 -0.017645
v -0.001897 0.009472 0.016567
v -0.006266 -0.000717 0.028221
v -0.006266 0.004010 -0.008910
v -0.002262 0.006924 -0.014000
v -0.006266 -0.003993 -0.007451
v -0.001897 -0.004721 0.022027
v -0.002262 0.002193 -0.018010
v -0.001897 -0.007635 -0.003451
v -0.005902 0.005105 0.026392
v -0.006266 0.010566 0.003108
v -0.001897 0.011657 0.007099
v -0.006266 -0.009090 0.024937
v -0.005902 0.009838 0.021297
v -0.002626 -0.009090 0.016203
v -0.005902 -0.000717 0.028221
v -0.001897 0.006560 0.019113
v -0.006266 -0.008363 0.007829
v -0.002262 0.009836 -0.007816
v -0.002262 -0.005448 -0.012915
v -0.005537 0.008015 0.023847
v -0.006266 0.010928 0.013648
v -0.002262 -0.006906 -0.007451
v -0.002262 0.011657 -0.001991
v -0.005902 -0.005812 0.028221
v -0.001897 -0.000715 -0.018374
v -0.001897 -0.008724 0.009288
v -0.006266 0.006562 -0.006356
v -0.003718 0.011657 0.005644
v -0.002262 -0.000715 -0.018374
v -0.002262 -0.006542 0.022027
v -0.005902 -0.009454 0.023122
v -0.006266 0.000740 -0.009996
v -0.002262 -0.004359 -0.015460
v -0.002262 -0.002172 0.022757
v -0.002262 0.004012 -0.016915
v -0.001897 0.008379 -0.011455
v -0.001897 0.002557 0.020937
v -0.006266 -0.006906 0.027851
v -0.002262 0.008379 -0.011455
f 582 600 603 
f 552 550 553 
f 554 555 556 
f 555 554 557 
f 557 554 559 
f 552 553 560 
f 556 555 561 
f 550 552 562 
f 560 553 563 
f 554 556 565 
f 553 550 566 
f 552 560 567 
f 562 552 569 
f 552 564 569 
f 559 554 570 
f 557 559 572 
f 553 566 573 
f 560 563 574 
f 556 561 575 
f 563 556 575 
f 559 558 576 
f 566 550 576 
f 556 563 577 
f 563 553 577 
f 565 556 577 
f 573 566 579 
f 554 565 580 
f 551 550 581 
f 550 562 581 
f 572 551 581 
f 560 574 582 
f 562 569 583 
f 553 573 584 
f 577 553 584 
f 565 577 584 
f 580 565 584 
f 573 580 584 
f 549 574 585 
f 574 563 585 
f 563 575 585 
f 557 572 586 
f 581 562 586 
f 572 581 586 
f 583 557 586 
f 562 583 586 
f 574 549 587 
f 575 561 587 
f 561 582 587 
f 582 574 587 
f 579 566 588 
f 555 557 589 
f 557 564 589 
f 571 555 589 
f 550 551 590 
f 551 572 590 
f 572 559 590 
f 578 550 590 
f 559 578 590 
f 567 560 591 
f 549 585 592 
f 585 575 592 
f 587 549 592 
f 575 587 592 
f 564 552 593 
f 589 564 593 
f 571 589 593 
f 558 559 594 
f 559 570 594 
f 588 558 594 
f 570 588 594 
f 559 576 595 
f 576 550 595 
f 550 578 595 
f 578 559 595 
f 552 567 596 
f 567 571 596 
f 593 552 596 
f 571 593 596 
f 564 557 597 
f 569 564 597 
f 557 583 597 
f 583 569 597 
f 570 554 598 
f 554 579 598 
f 588 570 598 
f 579 588 598 
f 568 555 599 
f 555 571 599 
f 571 567 599 
f 567 591 599 
f 591 568 599 
f 561 555 600 
f 555 568 600 
f 582 561 600 
f 579 554 601 
f 573 579 601 
f 554 580 601 
f 580 573 601 
f 576 558 602 
f 566 576 602 
f 558 588 602 
f 588 566 602 
f 560 582 603 
f 591 560 603 
f 568 591 603 
f 600 568 603 
o convex_13
v -0.025197 -0.010548 0.056253
v -0.034299 -0.008363 0.051157
v -0.033934 -0.009455 0.051157
v -0.033570 -0.009092 0.060258
v -0.024469 -0.001083 0.051157
v -0.031749 -0.001083 0.060258
v -0.025926 -0.001083 0.060258
v -0.024834 -0.012004 0.051157
v -0.030292 -0.012733 0.059894
v -0.034299 -0.006180 0.051157
v -0.031749 -0.012368 0.054434
v -0.024469 -0.005453 0.057709
v -0.026654 -0.008728 0.060258
v -0.027382 -0.001083 0.051521
v -0.032113 -0.001083 0.058437
v -0.033205 -0.011276 0.059529
v -0.033934 -0.007635 0.059894
v -0.024469 -0.011640 0.052978
v -0.032477 -0.011276 0.051157
v -0.024469 -0.001083 0.058073
v -0.028475 -0.011640 0.060258
v -0.028838 -0.012368 0.051885
v -0.025197 -0.005088 0.059529
v -0.031749 -0.012368 0.060258
v -0.024469 -0.009092 0.056253
v -0.033934 -0.009455 0.059165
v -0.031749 -0.012733 0.056980
v -0.032113 -0.001083 0.059894
v -0.029202 -0.012733 0.055888
v -0.032842 -0.011640 0.055162
f 630 619 633 
f 606 605 608 
f 608 609 610 
f 609 607 610 
f 606 608 611 
f 608 605 613 
f 610 607 616 
f 609 608 617 
f 608 613 617 
f 617 613 618 
f 609 617 618 
f 607 609 620 
f 613 605 620 
f 611 608 621 
f 612 611 621 
f 608 615 621 
f 606 611 622 
f 608 610 623 
f 615 608 623 
f 616 607 624 
f 604 616 624 
f 621 604 624 
f 612 621 624 
f 622 611 625 
f 614 622 625 
f 610 616 626 
f 623 610 626 
f 615 623 626 
f 607 619 627 
f 624 607 627 
f 612 624 627 
f 616 604 628 
f 604 621 628 
f 621 615 628 
f 615 626 628 
f 626 616 628 
f 605 606 629 
f 606 619 629 
f 619 607 629 
f 607 620 629 
f 620 605 629 
f 614 625 630 
f 612 627 630 
f 627 619 630 
f 618 613 631 
f 609 618 631 
f 620 609 631 
f 613 620 631 
f 611 612 632 
f 625 611 632 
f 612 630 632 
f 630 625 632 
f 619 606 633 
f 606 622 633 
f 622 614 633 
f 614 630 633 
o convex_14
v 0.000651 0.011658 -0.008181
v -0.001897 -0.008726 0.008920
v -0.000441 -0.008726 0.008920
v 0.000651 -0.002900 -0.023473
v -0.001897 0.006923 -0.014738
v -0.001897 0.008744 0.016934
v 0.000651 -0.005084 0.017660
v -0.001897 -0.004721 -0.015464
v 0.000651 0.010201 0.011468
v -0.001897 -0.006905 0.020573
v -0.001897 0.012019 -0.000546
v 0.000651 -0.007633 -0.007820
v 0.000287 0.003647 -0.023108
v -0.001533 0.001831 0.020573
v -0.001897 -0.001445 -0.019099
v 0.000651 -0.008360 0.013655
v 0.000651 0.004011 0.016203
v 0.000651 0.007653 -0.018738
v 0.000651 0.012387 0.001276
v -0.001897 0.010928 0.012199
v -0.001897 -0.007269 -0.006363
v 0.000287 -0.005450 -0.018738
v -0.001897 0.009471 -0.009637
v -0.001897 -0.008726 0.016934
v -0.001897 0.003647 -0.018007
v -0.001533 -0.000715 0.021299
v 0.000287 0.000374 -0.024199
v -0.000805 0.007289 0.016934
v 0.000287 0.009837 -0.014007
v -0.000077 -0.003264 -0.022377
v -0.001533 -0.006905 0.020573
v 0.000651 -0.000715 0.017660
v -0.001897 -0.000715 0.021299
v 0.000287 0.012387 -0.004902
v 0.000287 0.007653 -0.018738
v 0.000651 0.002192 -0.023838
v 0.000651 0.011294 0.008559
v -0.001897 0.011292 -0.004176
v -0.001897 0.012019 0.003098
v 0.000287 -0.008726 0.009651
v 0.000651 -0.006541 -0.014368
v -0.001533 -0.005084 0.021299
v 0.000651 -0.007271 0.016203
v -0.001533 -0.008360 0.018391
v 0.000287 0.005468 -0.021651
v 0.000651 0.008016 0.014016
v -0.001169 0.009471 0.015477
v -0.000077 -0.007996 -0.003811
v -0.001897 0.001103 -0.019099
v -0.001533 0.006196 0.018751
f 680 639 683 
f 638 635 639 
f 637 634 640 
f 635 638 641 
f 640 634 642 
f 639 635 643 
f 638 639 644 
f 641 638 648 
f 640 642 650 
f 634 637 651 
f 642 634 652 
f 644 639 653 
f 635 641 654 
f 654 641 655 
f 638 644 656 
f 635 636 657 
f 643 635 657 
f 648 638 658 
f 634 651 662 
f 641 648 663 
f 637 655 663 
f 655 641 663 
f 660 637 663 
f 648 660 663 
f 640 650 665 
f 650 647 665 
f 659 640 665 
f 647 659 665 
f 639 643 666 
f 659 647 666 
f 652 634 667 
f 634 662 667 
f 638 656 668 
f 662 651 668 
f 656 662 668 
f 651 637 669 
f 637 660 669 
f 660 646 669 
f 642 652 670 
f 652 653 670 
f 656 644 671 
f 662 656 671 
f 644 667 671 
f 667 662 671 
f 644 653 672 
f 653 652 672 
f 652 667 672 
f 667 644 672 
f 645 649 673 
f 657 636 673 
f 649 657 673 
f 637 640 674 
f 649 645 674 
f 645 654 674 
f 654 655 674 
f 655 637 674 
f 640 659 675 
f 664 640 675 
f 643 664 675 
f 666 643 675 
f 659 666 675 
f 640 664 676 
f 674 640 676 
f 649 674 676 
f 643 657 677 
f 657 649 677 
f 664 643 677 
f 649 676 677 
f 676 664 677 
f 658 638 678 
f 646 658 678 
f 638 668 678 
f 668 651 678 
f 651 669 678 
f 669 646 678 
f 650 642 679 
f 661 650 679 
f 661 679 680 
f 653 639 680 
f 642 670 680 
f 670 653 680 
f 679 642 680 
f 636 635 681 
f 635 654 681 
f 654 645 681 
f 673 636 681 
f 645 673 681 
f 658 646 682 
f 648 658 682 
f 646 660 682 
f 660 648 682 
f 647 650 683 
f 650 661 683 
f 639 666 683 
f 666 647 683 
f 661 680 683 
o convex_15
v 0.039239 0.001464 -0.042043
v 0.027227 -0.014917 -0.043134
v 0.027227 -0.014917 -0.040951
v 0.027592 0.007655 -0.040587
v 0.027227 -0.000357 -0.045318
v 0.040333 -0.004358 -0.039495
v 0.033417 -0.008364 -0.045318
v 0.027227 -0.014552 -0.039495
v 0.027227 0.004378 -0.039495
v 0.029049 0.004378 -0.044590
v 0.027227 -0.011640 -0.046410
v 0.030868 -0.013823 -0.043498
v 0.038876 0.002193 -0.039859
v 0.038512 -0.007270 -0.041679
v 0.030868 -0.013823 -0.039495
v 0.032689 0.006196 -0.042407
v 0.038876 0.001101 -0.042771
v 0.033054 -0.006176 -0.045318
v 0.027227 0.004378 -0.044590
v 0.030504 -0.013459 -0.044590
v 0.037420 -0.008364 -0.039495
v 0.037783 -0.006906 -0.042771
v 0.027956 0.007655 -0.040223
v 0.038876 0.000737 -0.039495
v 0.029412 -0.014917 -0.041315
v 0.038876 0.002557 -0.040223
v 0.033054 0.005834 -0.042771
v 0.027592 -0.012732 -0.046046
v 0.027592 -0.010547 -0.046410
v 0.034143 -0.009455 -0.044590
v 0.038876 -0.000357 -0.042771
v 0.030868 0.004013 -0.039495
v 0.038876 0.002557 -0.041315
v 0.040333 -0.002540 -0.039495
f 709 696 717 
f 685 686 688 
f 688 686 691 
f 691 689 692 
f 688 691 692 
f 685 688 694 
f 689 691 698 
f 700 690 701 
f 693 700 701 
f 692 687 702 
f 688 692 702 
f 693 688 702 
f 699 693 702 
f 687 699 702 
f 695 685 703 
f 697 695 703 
f 697 689 704 
f 695 697 704 
f 698 695 704 
f 689 698 704 
f 687 692 706 
f 699 687 706 
f 692 689 707 
f 686 685 708 
f 691 686 708 
f 685 695 708 
f 695 698 708 
f 698 691 708 
f 706 696 709 
f 699 706 709 
f 693 699 710 
f 700 693 710 
f 685 694 711 
f 694 690 711 
f 703 685 711 
f 690 703 711 
f 688 693 712 
f 694 688 712 
f 690 694 712 
f 693 701 712 
f 701 690 712 
f 703 690 713 
f 697 703 713 
f 690 705 713 
f 705 697 713 
f 684 689 714 
f 689 697 714 
f 700 684 714 
f 690 700 714 
f 705 690 714 
f 697 705 714 
f 706 692 715 
f 696 706 715 
f 692 707 715 
f 707 696 715 
f 684 700 716 
f 709 684 716 
f 699 709 716 
f 710 699 716 
f 700 710 716 
f 689 684 717 
f 707 689 717 
f 696 707 717 
f 684 709 717 
o convex_16
v 0.039604 -0.001086 -0.034032
v 0.027227 -0.014189 -0.039493
v 0.030141 -0.014189 -0.039493
v 0.027957 -0.008728 -0.027481
v 0.027227 0.004375 -0.039493
v 0.027227 0.003284 -0.027481
v 0.040332 -0.004723 -0.039493
v 0.034143 0.001464 -0.027481
v 0.038877 0.000008 -0.039493
v 0.038149 -0.006906 -0.036944
v 0.035964 -0.002906 -0.029666
v 0.038511 0.001099 -0.033668
v 0.028320 0.004742 -0.036944
v 0.027227 -0.009819 -0.028574
v 0.030505 0.004014 -0.039493
v 0.031598 -0.011276 -0.035488
v 0.040698 -0.003271 -0.036944
v 0.040698 -0.002177 -0.038764
v 0.031598 -0.004723 -0.027481
v 0.037784 -0.008000 -0.039493
v 0.039967 -0.005087 -0.036944
v 0.030141 -0.014189 -0.039128
v 0.038149 0.000373 -0.031850
v 0.036691 -0.002177 -0.030031
v 0.039967 -0.000358 -0.035488
v 0.029776 -0.010183 -0.031486
v 0.034143 -0.000358 -0.027481
v 0.027227 -0.013824 -0.037673
v 0.027227 -0.008728 -0.027481
v 0.027227 0.004742 -0.035852
v 0.027593 0.003649 -0.029301
v 0.034871 0.002192 -0.038764
v 0.036327 -0.003271 -0.030394
v 0.038511 -0.007271 -0.038400
f 739 737 751 
f 720 719 722 
f 722 719 723 
f 720 722 724 
f 723 721 725 
f 724 722 726 
f 725 729 730 
f 723 719 731 
f 726 722 732 
f 730 729 732 
f 722 730 732 
f 724 726 735 
f 734 724 735 
f 725 721 736 
f 721 728 736 
f 720 724 737 
f 724 734 738 
f 719 720 739 
f 727 733 739 
f 720 737 739 
f 729 725 740 
f 734 718 741 
f 738 734 741 
f 718 740 741 
f 740 725 741 
f 726 729 742 
f 718 734 742 
f 735 726 742 
f 734 735 742 
f 740 718 742 
f 729 740 742 
f 727 721 743 
f 721 731 743 
f 733 727 743 
f 731 739 743 
f 739 733 743 
f 725 736 744 
f 736 728 744 
f 741 725 744 
f 728 741 744 
f 731 719 745 
f 719 739 745 
f 739 731 745 
f 721 723 746 
f 731 721 746 
f 723 731 746 
f 722 723 747 
f 730 722 747 
f 730 747 748 
f 723 725 748 
f 725 730 748 
f 747 723 748 
f 729 726 749 
f 726 732 749 
f 732 729 749 
f 721 727 750 
f 728 721 750 
f 727 738 750 
f 741 728 750 
f 738 741 750 
f 737 724 751 
f 738 727 751 
f 724 738 751 
f 727 739 751 
