o convex_0
v 0.012016 0.016294 0.015033
v 0.012384 0.017404 -0.008651
v 0.012384 0.018885 -0.008651
v -0.006488 0.009633 -0.000877
v 0.017195 0.009263 -0.003469
v -0.001674 0.018885 0.002452
v 0.024598 0.018885 0.003931
v 0.008687 0.009263 0.013921
v -0.000563 0.009263 -0.007167
v 0.005726 0.018885 0.012441
v -0.004266 0.009263 0.006889
v 0.000916 0.018885 -0.005688
v 0.022745 0.018515 -0.005319
v 0.013123 0.009263 -0.007909
v 0.013123 0.009263 0.011329
v 0.017934 0.018885 0.013181
v 0.002394 0.009263 0.012441
v 0.016455 0.009263 0.005041
v 0.019045 0.018885 -0.008280
v 0.023484 0.018515 0.007260
v 0.000547 0.018885 0.007631
v -0.004635 0.009263 -0.004578
v -0.001674 0.018515 -0.002728
v -0.005745 0.010004 0.003928
v 0.004987 0.018885 -0.007540
v 0.002394 0.009263 -0.007909
v 0.024598 0.018515 -0.000509
v 0.014605 0.015923 0.014662
v 0.012384 0.018885 0.015033
v 0.006837 0.013706 0.014291
v 0.021266 0.017774 0.009852
v 0.017563 0.009633 0.001712
v 0.015716 0.010004 -0.006799
v -0.002416 0.010004 0.008739
v 0.010163 0.009263 -0.008280
v 0.024598 0.018515 0.003931
v 0.011645 0.009263 0.012812
v 0.020524 0.018515 -0.007540
v 0.003505 0.018515 0.010960
v 0.006837 0.011115 0.014291
v 0.017195 0.018515 -0.008651
v -0.005374 0.010004 -0.003467
v -0.002045 0.010004 -0.006428
v 0.014976 0.009263 0.008370
v 0.023855 0.018885 -0.003098
v 0.016455 0.009263 -0.005319
v 0.023855 0.018515 -0.003098
v -0.006488 0.009263 0.000973
v 0.002026 0.010373 0.012070
v -0.002045 0.018515 -0.000877
v -0.000935 0.018885 -0.003838
v 0.017563 0.017404 0.013181
v 0.014234 0.018515 0.015033
v -0.006488 0.009633 0.000973
v -0.001303 0.018515 0.004299
v -0.004266 0.009633 -0.004949
v -0.004635 0.010004 0.006149
v 0.006466 0.018515 -0.007909
v 0.013495 0.015923 0.015033
v 0.002766 0.018515 -0.006799
v 0.021266 0.018885 0.010220
f 52 31 61 
f 3 6 7 
f 5 8 9 
f 7 6 10 
f 9 8 11 
f 6 3 12 
f 5 9 14 
f 8 5 15 
f 7 10 16 
f 11 8 17 
f 15 5 18 
f 3 7 19 
f 10 6 21 
f 9 11 22 
f 12 3 25 
f 3 2 26 
f 14 9 26 
f 9 25 26 
f 16 10 29 
f 29 10 30 
f 1 29 30 
f 18 5 32 
f 5 27 32 
f 11 17 34 
f 26 2 35 
f 14 26 35 
f 7 20 36 
f 20 18 36 
f 27 7 36 
f 18 32 36 
f 32 27 36 
f 8 15 37 
f 28 8 37 
f 15 31 37 
f 19 13 38 
f 14 19 38 
f 13 33 38 
f 33 14 38 
f 10 21 39 
f 21 34 39 
f 17 8 40 
f 1 30 40 
f 30 17 40 
f 2 3 41 
f 3 19 41 
f 19 14 41 
f 35 2 41 
f 14 35 41 
f 22 4 42 
f 4 23 42 
f 15 18 44 
f 18 20 44 
f 31 15 44 
f 20 31 44 
f 19 7 45 
f 13 19 45 
f 7 27 45 
f 5 14 46 
f 33 13 46 
f 14 33 46 
f 27 5 47 
f 13 45 47 
f 45 27 47 
f 5 46 47 
f 46 13 47 
f 4 22 48 
f 22 11 48 
f 11 24 48 
f 17 30 49 
f 30 10 49 
f 34 17 49 
f 10 39 49 
f 39 34 49 
f 23 4 50 
f 23 50 51 
f 6 12 51 
f 42 23 51 
f 50 6 51 
f 16 28 52 
f 28 37 52 
f 37 31 52 
f 28 16 53 
f 16 29 53 
f 29 1 53 
f 24 6 54 
f 4 48 54 
f 48 24 54 
f 50 4 54 
f 6 50 54 
f 21 6 55 
f 6 24 55 
f 24 21 55 
f 9 22 56 
f 22 42 56 
f 43 9 56 
f 12 43 56 
f 51 12 56 
f 42 51 56 
f 24 11 57 
f 21 24 57 
f 11 34 57 
f 34 21 57 
f 25 3 58 
f 3 26 58 
f 26 25 58 
f 8 28 59 
f 1 40 59 
f 40 8 59 
f 53 1 59 
f 28 53 59 
f 25 9 60 
f 12 25 60 
f 9 43 60 
f 43 12 60 
f 7 16 61 
f 20 7 61 
f 31 20 61 
f 16 52 61 
o convex_1
v 0.006465 0.018885 0.012810
v 0.015716 0.026656 -0.009761
v 0.015716 0.027026 -0.009761
v 0.032369 0.026656 0.003558
v 0.021268 0.018885 -0.007169
v 0.008314 0.027026 0.012810
v -0.000564 0.018885 -0.004207
v 0.017936 0.018885 0.013181
v 0.002026 0.027026 -0.003469
v 0.026817 0.027026 -0.008279
v -0.000194 0.019255 0.006150
v 0.024964 0.018885 0.003558
v 0.013127 0.024065 0.014663
v 0.005358 0.018885 -0.007538
v 0.027927 0.027026 0.007259
v 0.002766 0.027026 0.005781
v 0.017936 0.018885 -0.008649
v 0.031626 0.026656 -0.001247
v 0.006465 0.026656 -0.007167
v -0.001677 0.018885 0.001344
v 0.024594 0.018885 -0.001618
v 0.024224 0.019255 0.007259
v 0.011277 0.018885 0.014663
v 0.023115 0.026656 -0.009761
v 0.001656 0.019625 0.008741
v 0.010907 0.027026 0.013181
v 0.029776 0.026656 -0.004948
v 0.012017 0.018885 -0.008649
v 0.001656 0.026656 0.002451
v 0.028667 0.024435 0.006518
v -0.001677 0.019255 -0.001247
v 0.003875 0.027026 0.008000
v 0.032369 0.027026 0.000971
v 0.002026 0.020365 -0.006060
v 0.003875 0.027026 -0.005687
v 0.023854 0.018885 -0.003839
v 0.011277 0.023324 0.014663
v 0.014610 0.018885 0.014663
v 0.009427 0.027026 -0.008279
v 0.032369 0.026656 0.000971
v 0.003875 0.018885 0.010960
v -0.001304 0.019255 0.003187
v 0.026817 0.026656 -0.008279
v 0.020525 0.025545 -0.009761
v 0.005728 0.026656 0.010592
v 0.017196 0.019625 0.013552
v 0.029037 0.023694 0.005779
v 0.019785 0.018885 0.011699
v 0.003135 0.019625 -0.006799
v 0.022748 0.018885 -0.005690
v 0.020155 0.018885 -0.007911
v 0.024964 0.018885 -0.000138
v 0.024594 0.026656 -0.009391
v 0.008688 0.026656 0.013181
v 0.000916 0.025175 -0.001618
v 0.006835 0.018885 -0.007908
v -0.000564 0.019255 -0.004207
v 0.029037 0.025545 0.006518
v 0.013497 0.025545 0.013552
v -0.000934 0.021106 0.000603
v 0.004249 0.020736 0.010960
v 0.024594 0.018885 0.005408
f 83 109 123 
f 66 62 68 
f 62 66 69 
f 67 64 70 
f 64 67 71 
f 69 66 73 
f 66 68 75 
f 71 67 76 
f 67 70 77 
f 66 75 78 
f 68 62 81 
f 73 66 82 
f 62 69 84 
f 63 64 85 
f 64 71 85 
f 76 67 87 
f 78 75 89 
f 77 70 90 
f 68 81 92 
f 67 77 93 
f 77 72 93 
f 72 86 93 
f 76 65 94 
f 71 76 94 
f 88 71 94 
f 79 88 94 
f 80 95 96 
f 70 64 96 
f 82 66 97 
f 88 79 97 
f 62 84 98 
f 84 74 98 
f 84 69 99 
f 74 84 99 
f 80 96 100 
f 96 64 100 
f 65 73 101 
f 94 65 101 
f 79 94 101 
f 82 97 101 
f 97 79 101 
f 81 62 102 
f 72 81 102 
f 86 72 102 
f 72 77 103 
f 81 72 103 
f 77 90 103 
f 71 88 104 
f 63 85 105 
f 85 78 105 
f 89 63 105 
f 78 89 105 
f 67 93 106 
f 93 86 106 
f 69 76 107 
f 76 74 107 
f 99 69 107 
f 74 99 107 
f 65 91 108 
f 108 91 109 
f 69 73 109 
f 91 69 109 
f 83 108 109 
f 75 68 110 
f 68 95 110 
f 95 80 110 
f 100 75 110 
f 80 100 110 
f 97 66 111 
f 88 97 111 
f 66 104 111 
f 104 88 111 
f 66 78 112 
f 104 66 112 
f 73 82 113 
f 101 73 113 
f 82 101 113 
f 85 71 114 
f 78 85 114 
f 71 104 114 
f 112 78 114 
f 104 112 114 
f 87 67 115 
f 74 87 115 
f 62 98 115 
f 98 74 115 
f 90 70 116 
f 70 92 116 
f 64 63 117 
f 63 89 117 
f 89 75 117 
f 100 64 117 
f 75 100 117 
f 68 92 118 
f 92 70 118 
f 95 68 118 
f 96 95 118 
f 70 96 118 
f 65 76 119 
f 76 69 119 
f 91 65 119 
f 69 91 119 
f 74 76 120 
f 87 74 120 
f 76 87 120 
f 92 81 121 
f 81 103 121 
f 103 90 121 
f 90 116 121 
f 116 92 121 
f 102 62 122 
f 86 102 122 
f 67 106 122 
f 106 86 122 
f 115 67 122 
f 62 115 122 
f 73 65 123 
f 65 108 123 
f 108 83 123 
f 109 73 123 
o convex_2
v 0.007945 0.045897 -0.002358
v 0.010165 0.028509 0.013181
v 0.009426 0.028509 0.013181
v 0.017566 0.027399 -0.010129
v 0.018305 0.051449 0.000600
v 0.002024 0.027026 -0.002728
v 0.017935 0.051819 -0.011610
v 0.018307 0.027026 0.008001
v 0.010165 0.051819 0.002080
v 0.010165 0.039979 0.011331
v 0.002765 0.027026 0.005408
v 0.018305 0.041828 0.008001
v 0.004615 0.027026 -0.006058
v 0.018305 0.039239 -0.011979
v 0.012386 0.050337 -0.007538
v 0.007575 0.045528 0.003930
v 0.018305 0.054411 -0.009388
v 0.018307 0.027026 -0.009757
v 0.008315 0.027026 0.012809
v 0.008685 0.039979 0.010220
v 0.012386 0.052929 0.001339
v 0.010903 0.052559 -0.001989
v 0.007575 0.027026 -0.007538
v 0.016085 0.047747 -0.011238
v 0.003136 0.027399 -0.004947
v 0.002024 0.027769 0.002080
v 0.008315 0.048487 0.000969
v 0.016456 0.050706 0.002449
v 0.004246 0.027399 0.008371
v 0.010903 0.041456 0.010590
v 0.009796 0.048857 -0.004578
v 0.007945 0.042566 0.007629
v 0.011275 0.027026 0.012809
v 0.012014 0.039242 0.011331
v 0.013866 0.049597 -0.009388
v 0.018305 0.039612 0.008371
v 0.012016 0.027026 -0.009018
v 0.017566 0.040719 -0.011982
v 0.015715 0.052929 -0.009388
v 0.008315 0.032210 0.012070
v 0.002024 0.027399 -0.002728
v 0.018305 0.054411 -0.007908
v 0.011644 0.053299 0.000230
v 0.009056 0.042196 0.009479
v 0.009426 0.050709 -0.001245
v 0.017935 0.035540 -0.011607
v 0.002765 0.027399 0.005408
v 0.018305 0.050337 -0.011979
v 0.010533 0.031840 0.012809
v 0.012016 0.051819 0.002449
v 0.010903 0.051079 -0.004578
v 0.011275 0.048117 -0.007169
v 0.017566 0.048487 -0.011982
v 0.004615 0.027769 -0.006058
v 0.018305 0.042568 0.007629
v 0.008315 0.048487 0.002449
v 0.002395 0.027399 -0.003839
v 0.010533 0.051819 0.002449
v 0.010165 0.048117 -0.005688
v 0.002024 0.027769 -0.001989
v 0.017935 0.027026 0.008371
v 0.017935 0.054411 -0.009388
v 0.005726 0.027769 0.010220
v 0.017566 0.051819 0.000600
f 165 144 187 
f 129 131 134 
f 131 129 136 
f 131 136 141 
f 140 131 141 
f 125 126 142 
f 134 131 142 
f 141 136 146 
f 136 129 148 
f 129 134 149 
f 134 142 152 
f 152 143 155 
f 125 142 156 
f 142 131 156 
f 153 133 157 
f 135 153 157 
f 130 147 158 
f 131 135 159 
f 135 157 159 
f 127 141 160 
f 141 146 160 
f 160 146 161 
f 130 158 162 
f 158 138 162 
f 126 133 163 
f 142 126 163 
f 133 143 163 
f 129 149 164 
f 128 131 165 
f 131 140 165 
f 145 132 166 
f 144 165 166 
f 143 133 167 
f 133 153 167 
f 132 155 167 
f 155 143 167 
f 132 145 168 
f 124 150 168 
f 154 124 168 
f 141 127 169 
f 137 141 169 
f 127 160 169 
f 160 161 169 
f 161 137 169 
f 149 134 170 
f 139 149 170 
f 134 152 170 
f 155 139 170 
f 152 155 170 
f 130 140 171 
f 141 137 171 
f 140 141 171 
f 137 161 171 
f 126 125 172 
f 133 126 172 
f 125 156 172 
f 157 133 172 
f 156 159 172 
f 159 157 172 
f 151 144 173 
f 153 151 173 
f 138 154 174 
f 145 162 174 
f 162 138 174 
f 168 145 174 
f 154 168 174 
f 138 158 175 
f 158 148 175 
f 147 130 176 
f 161 146 176 
f 130 171 176 
f 171 161 176 
f 146 136 177 
f 136 148 177 
f 158 147 177 
f 148 158 177 
f 176 146 177 
f 147 176 177 
f 131 128 178 
f 135 131 178 
f 128 151 178 
f 153 135 178 
f 151 153 178 
f 149 139 179 
f 150 149 179 
f 155 132 179 
f 139 155 179 
f 132 168 179 
f 168 150 179 
f 148 129 180 
f 124 154 180 
f 129 164 180 
f 164 124 180 
f 166 132 181 
f 144 166 181 
f 132 167 181 
f 167 153 181 
f 173 144 181 
f 153 173 181 
f 154 138 182 
f 138 175 182 
f 175 148 182 
f 148 180 182 
f 180 154 182 
f 149 150 183 
f 150 124 183 
f 164 149 183 
f 124 164 183 
f 156 131 184 
f 131 159 184 
f 159 156 184 
f 140 130 185 
f 130 162 185 
f 162 145 185 
f 165 140 185 
f 145 166 185 
f 166 165 185 
f 152 142 186 
f 143 152 186 
f 142 163 186 
f 163 143 186 
f 151 128 187 
f 144 151 187 
f 128 165 187 
o convex_3
v 0.022378 0.052926 -0.011980
v 0.018307 0.027026 -0.010129
v 0.020899 0.027026 -0.010129
v 0.027930 0.042566 0.008002
v 0.041621 0.039979 -0.004577
v 0.018307 0.027026 0.008002
v 0.018307 0.051076 0.000968
v 0.032737 0.027029 0.003560
v 0.040140 0.044418 0.001709
v 0.030516 0.043305 -0.014942
v 0.018307 0.048860 -0.012350
v 0.027561 0.027029 -0.007908
v 0.035329 0.046637 -0.009759
v 0.018307 0.041826 0.008002
v 0.027191 0.027029 0.007631
v 0.040140 0.038869 0.002821
v 0.022008 0.049969 0.003928
v 0.019788 0.054411 -0.008278
v 0.034218 0.044418 0.006520
v 0.037919 0.032210 -0.001992
v 0.024229 0.045525 -0.014942
v 0.032367 0.040349 -0.013089
v 0.025710 0.051816 -0.012348
v 0.039770 0.045158 0.000600
v 0.039770 0.040349 -0.007169
v 0.039398 0.044418 -0.007169
v 0.018307 0.054411 -0.009759
v 0.040140 0.035170 -0.000142
v 0.030888 0.045525 -0.014571
v 0.024229 0.049227 -0.014571
v 0.026449 0.047377 0.006151
v 0.018307 0.037762 -0.011980
v 0.024599 0.027399 -0.009759
v 0.031997 0.027029 -0.001251
v 0.031997 0.033690 -0.009388
v 0.029409 0.039979 0.008002
v 0.034218 0.042196 0.006520
v 0.040510 0.038499 -0.005318
v 0.041621 0.041826 -0.002731
v 0.027561 0.042935 -0.014942
v 0.020158 0.051819 -0.012719
v 0.019788 0.048490 0.004669
v 0.041621 0.038499 -0.003099
v 0.040510 0.042196 0.002448
v 0.025710 0.051076 -0.013460
v 0.034959 0.044788 0.005781
v 0.030516 0.041826 -0.014571
v 0.029040 0.032208 -0.010500
v 0.037550 0.045897 -0.006798
v 0.028670 0.027029 0.006890
v 0.028670 0.045155 0.007261
v 0.023859 0.047377 0.006151
v 0.037919 0.032580 -0.002731
v 0.030146 0.027029 -0.004948
v 0.031627 0.046267 -0.013830
v 0.039028 0.044048 -0.007910
v 0.018307 0.054411 -0.007537
v 0.024599 0.044415 -0.014942
v 0.031258 0.042935 -0.014571
v 0.020527 0.049229 -0.013460
v 0.041621 0.039239 -0.001622
v 0.024229 0.052556 -0.010500
v 0.018307 0.042196 -0.012350
v 0.040510 0.038869 0.002448
f 248 231 251 
f 189 190 193 
f 189 193 194 
f 193 190 195 
f 189 194 198 
f 193 191 201 
f 194 193 201 
f 188 205 210 
f 205 204 211 
f 198 194 214 
f 205 188 214 
f 195 207 215 
f 197 208 217 
f 216 197 217 
f 189 198 219 
f 199 190 220 
f 195 190 221 
f 207 195 221 
f 209 212 222 
f 191 193 223 
f 193 202 223 
f 206 191 223 
f 206 223 224 
f 203 206 224 
f 223 202 224 
f 212 192 225 
f 222 212 225 
f 211 196 226 
f 192 213 226 
f 213 211 226 
f 190 189 227 
f 208 197 227 
f 198 214 228 
f 214 188 228 
f 194 201 229 
f 204 194 229 
f 215 207 230 
f 225 192 230 
f 192 226 230 
f 206 203 231 
f 226 196 231 
f 210 200 232 
f 188 210 232 
f 216 217 232 
f 228 188 232 
f 217 228 232 
f 196 211 233 
f 211 204 233 
f 204 218 233 
f 218 206 233 
f 231 196 233 
f 206 231 233 
f 220 190 234 
f 190 227 234 
f 227 197 234 
f 199 220 235 
f 222 199 235 
f 209 222 235 
f 234 209 235 
f 220 234 235 
f 200 210 236 
f 210 211 236 
f 213 200 236 
f 211 213 236 
f 193 195 237 
f 202 193 237 
f 195 203 237 
f 224 202 237 
f 203 224 237 
f 201 191 238 
f 191 206 238 
f 206 218 238 
f 238 218 239 
f 218 204 239 
f 229 201 239 
f 204 229 239 
f 201 238 239 
f 199 222 240 
f 222 225 240 
f 230 207 240 
f 225 230 240 
f 190 199 241 
f 221 190 241 
f 207 221 241 
f 199 240 241 
f 240 207 241 
f 232 200 242 
f 216 232 242 
f 192 212 243 
f 200 213 243 
f 213 192 243 
f 242 200 243 
f 216 242 243 
f 194 204 244 
f 204 205 244 
f 214 194 244 
f 205 214 244 
f 189 219 245 
f 219 208 245 
f 227 189 245 
f 208 227 245 
f 212 209 246 
f 197 216 246 
f 234 197 246 
f 209 234 246 
f 243 212 246 
f 216 243 246 
f 217 208 247 
f 198 228 247 
f 228 217 247 
f 215 230 248 
f 230 226 248 
f 226 231 248 
f 210 205 249 
f 205 211 249 
f 211 210 249 
f 219 198 250 
f 208 219 250 
f 247 208 250 
f 198 247 250 
f 203 195 251 
f 195 215 251 
f 231 203 251 
f 215 248 251 
o convex_4
v -0.023511 -0.019603 0.003193
v -0.036463 -0.057717 0.002823
v -0.036092 -0.057717 0.002082
v -0.023511 -0.053278 0.005411
v -0.023511 -0.056238 -0.001250
v -0.034981 -0.036260 -0.001250
v -0.035721 -0.047722 0.006892
v -0.023511 -0.019603 -0.001250
v -0.023511 -0.032927 0.008372
v -0.029433 -0.057717 0.006520
v -0.036092 -0.039585 0.004301
v -0.030911 -0.058085 -0.001250
v -0.024251 -0.026265 0.006892
v -0.036092 -0.057344 0.006520
v -0.023511 -0.044024 0.008002
v -0.033501 -0.032927 0.001712
v -0.024992 -0.058089 0.002822
v -0.035352 -0.046612 -0.001250
v -0.036463 -0.038476 0.001712
v -0.034242 -0.052905 0.007261
v -0.023881 -0.021454 0.005041
v -0.023881 -0.018862 0.000231
v -0.036463 -0.047722 0.006520
v -0.036092 -0.058085 0.006150
v -0.024621 -0.058089 -0.001250
v -0.027213 -0.057344 0.006150
v -0.028694 -0.039954 0.008002
v -0.023881 -0.019234 0.002822
v -0.035721 -0.036629 0.002452
v -0.023881 -0.028116 0.007632
v -0.023881 -0.038840 0.008372
v -0.035721 -0.040691 0.005040
v -0.034242 -0.034041 0.000232
v -0.023511 -0.048467 0.007262
v -0.036463 -0.056976 0.002082
v -0.030172 -0.056234 0.006892
v -0.023881 -0.019234 -0.000879
v -0.026472 -0.058085 0.005040
v -0.036463 -0.055866 0.006520
v -0.024251 -0.057717 0.001712
v -0.035721 -0.038111 -0.000508
v -0.036463 -0.048467 0.001341
v -0.029063 -0.049572 0.007631
v -0.023881 -0.023673 0.006150
v -0.036092 -0.046612 0.006520
v -0.026472 -0.034778 0.008002
v -0.023511 -0.023673 0.006150
v -0.032761 -0.032558 -0.001250
v -0.036092 -0.058085 0.002452
v -0.032021 -0.047353 0.007631
f 271 294 301 
f 252 255 256 
f 252 256 259 
f 256 257 259 
f 255 252 260 
f 257 256 263 
f 255 260 266 
f 257 263 269 
f 252 259 273 
f 270 253 274 
f 262 270 274 
f 261 265 275 
f 263 256 276 
f 272 252 279 
f 252 273 279 
f 273 267 279 
f 270 262 280 
f 262 272 280 
f 272 279 280 
f 279 267 280 
f 266 260 282 
f 260 278 282 
f 262 274 283 
f 281 264 283 
f 257 270 284 
f 267 273 284 
f 280 267 284 
f 270 280 284 
f 255 266 285 
f 277 255 285 
f 261 277 285 
f 254 253 286 
f 263 254 286 
f 269 263 286 
f 253 270 286 
f 265 261 287 
f 271 265 287 
f 285 266 287 
f 261 285 287 
f 273 259 288 
f 284 273 288 
f 268 255 289 
f 261 275 289 
f 275 268 289 
f 255 277 289 
f 277 261 289 
f 271 258 290 
f 265 271 290 
f 258 274 290 
f 274 253 290 
f 253 275 290 
f 275 265 290 
f 256 255 291 
f 255 268 291 
f 268 276 291 
f 276 256 291 
f 257 269 292 
f 270 257 292 
f 269 286 293 
f 286 270 293 
f 292 269 293 
f 270 292 293 
f 266 282 294 
f 271 287 294 
f 287 266 294 
f 272 262 295 
f 264 281 295 
f 262 283 295 
f 283 264 295 
f 274 258 296 
f 283 274 296 
f 281 283 296 
f 278 260 297 
f 258 278 297 
f 260 281 297 
f 296 258 297 
f 281 296 297 
f 260 252 298 
f 252 272 298 
f 281 260 298 
f 272 295 298 
f 295 281 298 
f 259 257 299 
f 257 284 299 
f 288 259 299 
f 284 288 299 
f 253 254 300 
f 254 263 300 
f 275 253 300 
f 268 275 300 
f 276 268 300 
f 263 276 300 
f 258 271 301 
f 278 258 301 
f 282 278 301 
f 294 282 301 
o convex_5
v -0.018330 -0.032927 -0.010499
v -0.018330 -0.024047 0.009112
v -0.018330 -0.022196 0.008741
v -0.023510 -0.055125 0.002449
v -0.023510 -0.018497 -0.000512
v -0.023510 -0.048466 -0.011982
v -0.018330 -0.047723 -0.000512
v -0.018330 -0.011464 -0.001251
v -0.023510 -0.031819 0.008369
v -0.018330 -0.040321 0.007999
v -0.023510 -0.028120 -0.007538
v -0.018330 -0.046245 -0.009021
v -0.018700 -0.012946 0.005041
v -0.023140 -0.055125 -0.006060
v -0.023510 -0.046240 0.007630
v -0.023510 -0.021457 0.005410
v -0.018700 -0.015167 -0.004577
v -0.018700 -0.045502 0.005780
v -0.018330 -0.042172 -0.011238
v -0.023140 -0.052165 -0.010869
v -0.023510 -0.042542 -0.011610
v -0.018700 -0.024786 -0.008649
v -0.023140 -0.052165 0.005780
v -0.018700 -0.030710 0.009112
v -0.018700 -0.011099 0.002449
v -0.023510 -0.021457 -0.003838
v -0.023140 -0.055499 0.001338
v -0.023510 -0.019236 0.003560
v -0.018700 -0.018127 0.007630
v -0.018330 -0.047723 -0.005318
v -0.023510 -0.027377 0.007630
v -0.018330 -0.046245 0.004299
v -0.018330 -0.019605 -0.006799
v -0.019070 -0.012207 -0.001618
v -0.023510 -0.054016 -0.008649
v -0.023510 -0.039212 0.008369
v -0.018330 -0.037730 -0.011238
v -0.018330 -0.012946 0.005041
v -0.023510 -0.034774 -0.009760
v -0.018330 -0.035878 0.008741
v -0.022771 -0.055125 -0.003097
v -0.023140 -0.054755 0.003188
v -0.022771 -0.023678 -0.006060
v -0.018700 -0.019605 -0.006799
v -0.023140 -0.054016 -0.008649
v -0.023510 -0.049574 0.006888
v -0.019070 -0.011464 -0.000140
v -0.023140 -0.017758 0.001708
v -0.018330 -0.045132 -0.010129
v -0.022771 -0.049944 -0.011610
v -0.018330 -0.042542 0.007260
v -0.018700 -0.024047 0.009112
v -0.018700 -0.029228 -0.009758
v -0.018330 -0.046984 0.002819
v -0.019440 -0.027377 0.009112
v -0.022771 -0.023304 0.006888
v -0.019440 -0.015906 0.006149
v -0.023510 -0.055499 -0.004210
f 342 328 359 
f 304 303 302 
f 305 306 307 
f 302 303 308 
f 304 302 309 
f 306 305 310 
f 308 303 311 
f 307 306 312 
f 302 308 313 
f 310 305 316 
f 306 310 317 
f 302 313 320 
f 307 312 322 
f 312 306 327 
f 306 317 329 
f 317 314 329 
f 314 326 329 
f 313 308 331 
f 315 313 331 
f 317 310 332 
f 308 311 333 
f 309 302 334 
f 318 309 334 
f 302 323 334 
f 309 318 335 
f 327 306 335 
f 318 327 335 
f 305 307 336 
f 307 321 336 
f 310 316 337 
f 302 320 338 
f 320 307 338 
f 322 302 338 
f 307 322 338 
f 304 309 339 
f 309 326 339 
f 326 314 339 
f 330 304 339 
f 314 330 339 
f 322 312 340 
f 312 323 340 
f 311 303 341 
f 316 311 341 
f 303 325 341 
f 337 316 341 
f 325 337 341 
f 308 328 342 
f 331 308 342 
f 315 331 342 
f 324 305 343 
f 319 324 343 
f 305 328 343 
f 333 319 343 
f 312 327 344 
f 327 318 344 
f 323 312 345 
f 318 334 345 
f 334 323 345 
f 312 344 345 
f 344 318 345 
f 313 315 346 
f 321 313 346 
f 315 336 346 
f 336 321 346 
f 316 305 347 
f 311 316 347 
f 305 324 347 
f 326 309 348 
f 309 335 348 
f 335 306 348 
f 306 329 349 
f 329 326 349 
f 348 306 349 
f 326 348 349 
f 320 313 350 
f 313 321 350 
f 350 321 351 
f 307 320 351 
f 321 307 351 
f 320 350 351 
f 324 319 352 
f 333 311 352 
f 319 333 352 
f 311 347 352 
f 347 324 352 
f 303 304 353 
f 325 303 353 
f 304 330 353 
f 332 310 353 
f 330 332 353 
f 302 322 354 
f 323 302 354 
f 322 340 354 
f 340 323 354 
f 328 308 355 
f 308 333 355 
f 343 328 355 
f 333 343 355 
f 310 337 356 
f 337 325 356 
f 325 353 356 
f 353 310 356 
f 317 332 357 
f 332 330 357 
f 314 317 358 
f 330 314 358 
f 317 357 358 
f 357 330 358 
f 328 305 359 
f 305 336 359 
f 336 315 359 
f 315 342 359 
o convex_6
v -0.016479 -0.019237 -0.007907
v -0.011669 -0.013318 0.009852
v -0.012039 -0.013318 0.009852
v -0.017959 -0.046613 0.002076
v -0.011669 -0.034767 -0.009389
v -0.018329 -0.013323 0.005779
v -0.011669 -0.000737 -0.001615
v -0.018329 -0.042912 -0.010868
v -0.011669 -0.031440 0.008370
v -0.018329 -0.035880 0.008742
v -0.018329 -0.012575 -0.003098
v -0.011669 -0.018128 -0.009018
v -0.012039 -0.001107 0.003931
v -0.012780 -0.039212 -0.004578
v -0.018329 -0.037363 -0.011241
v -0.018329 -0.023308 0.009109
v -0.017959 -0.046613 -0.007170
v -0.011669 -0.035876 0.003929
v -0.018329 -0.044391 0.005779
v -0.017959 -0.009617 0.001709
v -0.012039 -0.006656 -0.005687
v -0.012039 -0.006656 0.008000
v -0.012409 -0.032918 -0.010500
v -0.012040 -0.023668 0.009852
v -0.018329 -0.018128 -0.006428
v -0.018329 -0.026995 -0.009389
v -0.012039 -0.000737 -0.001615
v -0.017959 -0.039951 0.008000
v -0.011669 -0.036994 -0.006428
v -0.014629 -0.022934 0.009852
v -0.011669 -0.025886 -0.010131
v -0.011669 -0.003324 0.006150
v -0.017589 -0.045130 -0.009020
v -0.012039 -0.012949 -0.007907
v -0.018329 -0.010357 -0.000511
v -0.017219 -0.042912 0.006150
v -0.011669 -0.027365 0.009479
v -0.018329 -0.046983 -0.005689
v -0.018329 -0.019981 0.008370
v -0.012039 -0.002585 -0.003467
v -0.012409 -0.000737 0.000968
v -0.011669 -0.036994 -0.000143
v -0.017589 -0.046613 -0.001989
v -0.011669 -0.034032 0.006518
v -0.012409 -0.003324 0.005777
v -0.018329 -0.011096 0.003559
v -0.017959 -0.045870 0.003929
v -0.017959 -0.042912 -0.010868
v -0.011669 -0.006656 -0.005687
v -0.018329 -0.031435 0.009109
v -0.018329 -0.015906 -0.005320
v -0.018329 -0.015541 0.006891
v -0.017959 -0.042173 0.007259
v -0.017959 -0.041060 -0.011241
v -0.012039 -0.018128 -0.009018
v -0.015740 -0.028848 0.009481
v -0.017589 -0.046613 -0.004576
v -0.012409 -0.036994 -0.008650
v -0.011669 -0.000367 0.002079
v -0.012780 -0.039212 -0.002728
v -0.018329 -0.046983 0.000228
v -0.012780 -0.012949 0.009481
f 381 398 421 
f 366 361 368 
f 365 367 369 
f 367 365 370 
f 366 368 371 
f 367 370 374 
f 365 369 375 
f 369 367 378 
f 362 361 381 
f 361 362 383 
f 374 370 384 
f 380 360 384 
f 384 360 385 
f 374 384 385 
f 373 376 388 
f 362 375 389 
f 383 362 389 
f 371 368 390 
f 364 382 390 
f 382 374 390 
f 388 364 390 
f 368 388 390 
f 361 366 391 
f 381 361 391 
f 376 367 392 
f 388 376 392 
f 360 380 393 
f 385 360 393 
f 370 365 394 
f 386 370 394 
f 368 361 396 
f 361 383 396 
f 369 387 396 
f 387 368 396 
f 367 376 397 
f 378 367 397 
f 365 375 398 
f 386 366 399 
f 370 386 399 
f 379 372 400 
f 394 379 400 
f 386 394 400 
f 377 363 401 
f 368 377 401 
f 388 368 401 
f 373 388 401 
f 377 368 403 
f 368 395 403 
f 365 381 404 
f 391 372 404 
f 381 391 404 
f 372 379 405 
f 394 365 405 
f 379 394 405 
f 365 404 405 
f 404 372 405 
f 363 377 406 
f 395 378 406 
f 377 403 406 
f 403 395 406 
f 382 364 407 
f 364 392 407 
f 392 367 407 
f 366 371 408 
f 393 380 408 
f 371 393 408 
f 399 366 408 
f 380 399 408 
f 375 369 409 
f 389 375 409 
f 384 370 410 
f 380 384 410 
f 399 380 410 
f 370 399 410 
f 381 365 411 
f 365 398 411 
f 398 381 411 
f 369 378 412 
f 387 369 412 
f 368 387 412 
f 395 368 412 
f 378 395 412 
f 367 374 413 
f 374 382 413 
f 407 367 413 
f 382 407 413 
f 374 385 414 
f 371 390 414 
f 390 374 414 
f 393 371 414 
f 385 393 414 
f 383 389 415 
f 396 383 415 
f 369 396 415 
f 409 369 415 
f 389 409 415 
f 376 373 416 
f 397 376 416 
f 373 402 416 
f 402 397 416 
f 364 388 417 
f 392 364 417 
f 388 392 417 
f 366 386 418 
f 391 366 418 
f 372 391 418 
f 400 372 418 
f 386 400 418 
f 401 363 419 
f 373 401 419 
f 402 373 419 
f 363 402 419 
f 378 397 420 
f 397 402 420 
f 402 363 420 
f 363 406 420 
f 406 378 420 
f 375 362 421 
f 362 381 421 
f 398 375 421 
o convex_7
v 0.004615 0.001489 0.012440
v 0.004244 -0.010721 -0.004947
v 0.004244 -0.010349 -0.005687
v 0.016826 0.008891 -0.003838
v 0.004244 0.009261 -0.007907
v 0.013125 0.009263 0.010959
v 0.004244 0.009261 0.013179
v 0.004615 -0.007389 0.007999
v 0.013866 0.009263 -0.007539
v 0.016826 0.008891 0.002820
v 0.004615 -0.005539 -0.008279
v 0.004986 -0.010349 -0.000137
v 0.009795 0.008891 0.013551
v 0.004244 -0.005169 0.010220
v 0.004615 -0.008870 -0.007168
v 0.015716 0.008891 0.006519
v 0.010165 0.009261 -0.008279
v 0.015716 0.009263 -0.006059
v 0.012016 0.007411 0.011331
v 0.004615 -0.009979 0.002820
v 0.004615 -0.010721 -0.004947
v 0.015716 0.006671 -0.001988
v 0.005355 -0.002949 0.010959
v 0.004244 0.003710 -0.008279
v 0.005355 0.007411 0.013551
v 0.016826 0.009263 0.002820
v 0.016456 0.008891 -0.004947
v 0.004244 -0.010721 0.000602
v 0.016826 0.008522 0.001343
v 0.005726 -0.004058 0.009850
v 0.014975 0.008891 -0.006798
v 0.011645 0.008522 0.012440
v 0.004986 -0.009610 -0.006059
v 0.004244 -0.001838 0.011700
v 0.012756 0.008522 -0.007909
v 0.014975 0.008891 0.007999
v 0.004244 -0.005539 -0.008279
v 0.004986 -0.010349 -0.003838
v 0.016826 0.008522 -0.003097
v 0.009795 0.009261 0.013551
v 0.013495 0.008152 -0.007539
f 432 456 462 
f 424 423 426 
f 427 426 428 
f 426 423 428 
f 426 427 430 
f 428 423 435 
f 426 430 438 
f 430 427 439 
f 433 431 441 
f 437 429 441 
f 431 437 441 
f 423 424 442 
f 424 426 445 
f 426 438 445 
f 438 432 445 
f 428 422 446 
f 422 434 446 
f 431 425 447 
f 427 437 447 
f 437 431 447 
f 439 427 447 
f 425 439 447 
f 439 425 448 
f 435 423 449 
f 429 435 449 
f 433 441 449 
f 441 429 449 
f 423 442 449 
f 442 433 449 
f 425 431 450 
f 431 433 450 
f 433 443 450 
f 435 429 451 
f 444 435 451 
f 440 444 451 
f 430 439 452 
f 439 448 452 
f 448 436 452 
f 440 427 453 
f 434 444 453 
f 444 440 453 
f 424 436 454 
f 442 424 454 
f 448 425 454 
f 436 448 454 
f 422 428 455 
f 434 422 455 
f 428 435 455 
f 444 434 455 
f 435 444 455 
f 438 430 456 
f 432 438 456 
f 437 427 457 
f 429 437 457 
f 427 440 457 
f 451 429 457 
f 440 451 457 
f 436 424 458 
f 432 436 458 
f 424 445 458 
f 445 432 458 
f 433 442 459 
f 443 433 459 
f 443 459 460 
f 425 450 460 
f 450 443 460 
f 442 454 460 
f 454 425 460 
f 459 442 460 
f 427 428 461 
f 428 446 461 
f 446 434 461 
f 453 427 461 
f 434 453 461 
f 436 432 462 
f 430 452 462 
f 452 436 462 
f 456 430 462 
o convex_8
v -0.023512 -0.029595 -0.007909
v -0.034983 -0.044767 -0.002730
v -0.034611 -0.044767 -0.004210
v -0.023512 -0.044767 -0.004581
v -0.023512 -0.019972 -0.001250
v -0.025733 -0.044767 -0.011611
v -0.033501 -0.038102 -0.005691
v -0.030170 -0.044767 -0.001250
v -0.034611 -0.035515 -0.001250
v -0.031651 -0.044393 -0.009759
v -0.023512 -0.034034 -0.001250
v -0.023512 -0.044767 -0.011611
v -0.023882 -0.021453 -0.003472
v -0.024253 -0.027375 -0.006800
v -0.034983 -0.044767 -0.001250
v -0.023882 -0.035141 -0.009759
v -0.032761 -0.041063 -0.007909
v -0.034611 -0.036990 -0.003101
v -0.033131 -0.044767 -0.008280
v -0.023882 -0.019972 -0.001990
v -0.033871 -0.035141 -0.002730
v -0.023882 -0.024045 -0.005321
v -0.026473 -0.039585 -0.001250
v -0.024253 -0.029964 -0.007909
v -0.034241 -0.040325 -0.005321
v -0.032391 -0.040325 -0.007909
v -0.028693 -0.044393 -0.010871
v -0.034983 -0.038845 -0.002730
v -0.023512 -0.042915 -0.011611
v -0.033131 -0.035515 -0.004210
v -0.032391 -0.038102 -0.006800
v -0.030910 -0.043286 -0.009759
f 478 489 494 
f 464 465 466 
f 466 463 467 
f 466 465 468 
f 464 466 470 
f 470 467 471 
f 466 467 473 
f 467 470 473 
f 463 466 474 
f 466 468 474 
f 464 470 477 
f 470 471 477 
f 468 465 481 
f 472 468 481 
f 479 472 481 
f 471 467 482 
f 467 475 482 
f 480 471 483 
f 471 482 483 
f 467 463 484 
f 475 467 484 
f 469 475 484 
f 463 476 484 
f 470 466 485 
f 466 473 485 
f 473 470 485 
f 476 463 486 
f 463 478 486 
f 469 479 487 
f 480 469 487 
f 481 465 487 
f 479 481 487 
f 472 479 488 
f 476 486 488 
f 468 472 489 
f 478 468 489 
f 465 464 490 
f 464 477 490 
f 477 471 490 
f 471 480 490 
f 487 465 490 
f 480 487 490 
f 463 474 491 
f 474 468 491 
f 468 478 491 
f 478 463 491 
f 475 469 492 
f 469 480 492 
f 482 475 492 
f 480 483 492 
f 483 482 492 
f 479 469 493 
f 469 484 493 
f 484 476 493 
f 488 479 493 
f 476 488 493 
f 486 478 494 
f 472 488 494 
f 488 486 494 
f 489 472 494 
o convex_9
v -0.003527 0.008152 -0.006060
v -0.003527 -0.001099 -0.007911
v -0.001676 -0.001099 -0.008281
v 0.004244 -0.001099 -0.001990
v 0.004244 0.009263 -0.007911
v -0.003527 0.009263 -0.001990
v -0.003527 -0.001099 -0.002360
v 0.004244 0.009263 -0.002730
v 0.004244 -0.001099 -0.008281
v 0.000543 0.009263 -0.007541
v 0.002024 0.009263 -0.001990
v -0.003527 -0.000358 -0.001990
v -0.002417 0.009263 -0.006430
v -0.003527 0.000012 -0.007911
v 0.002024 0.008893 -0.007911
v 0.003874 0.003343 -0.008281
f 509 499 510 
f 496 497 498 
f 495 496 500 
f 496 498 501 
f 500 496 501 
f 498 499 502 
f 499 500 502 
f 498 497 503 
f 499 498 503 
f 500 499 504 
f 500 498 505 
f 498 502 505 
f 502 500 505 
f 498 500 506 
f 501 498 506 
f 500 501 506 
f 495 500 507 
f 500 504 507 
f 507 504 508 
f 496 495 508 
f 497 496 508 
f 495 507 508 
f 497 508 509 
f 504 499 509 
f 508 504 509 
f 503 497 510 
f 499 503 510 
f 497 509 510 
o convex_10
v -0.009078 -0.012577 -0.008651
v -0.008338 -0.008132 0.010222
v -0.008338 -0.006281 0.009850
v -0.011669 -0.012204 0.009852
v -0.011298 -0.036253 0.000598
v -0.011669 -0.001103 -0.002730
v -0.008338 -0.029593 0.005780
v -0.011669 -0.033293 -0.009761
v -0.008338 -0.029593 -0.009019
v -0.008338 0.005192 -0.001616
v -0.011669 -0.029961 0.008742
v -0.011669 -0.000735 0.004299
v -0.011669 -0.011095 -0.007539
v -0.008708 0.001488 0.006889
v -0.008338 -0.022556 0.009850
v -0.008338 -0.002585 -0.006429
v -0.008338 -0.031811 -0.006059
v -0.011669 -0.025888 -0.010131
v -0.011669 -0.036625 -0.005690
v -0.008338 -0.021079 -0.009761
v -0.008708 0.005192 0.002450
v -0.011669 -0.034398 0.005409
v -0.010558 -0.019597 0.010222
v -0.011669 -0.005172 0.007628
v -0.011669 0.000378 -0.000508
v -0.008708 0.002229 -0.004208
v -0.008338 -0.031811 -0.000877
v -0.011298 -0.035512 -0.008280
v -0.009078 -0.027370 -0.010131
v -0.008338 0.004079 0.004670
v -0.008338 -0.026261 0.008740
v -0.010928 -0.036253 -0.003469
v -0.011298 -0.032180 0.007628
v -0.011669 -0.027002 0.009481
v -0.011669 -0.007763 -0.006429
v -0.009448 -0.003694 0.008742
v -0.008708 0.005192 -0.001616
v -0.008708 -0.004804 -0.007169
v -0.011669 -0.017747 -0.009019
v -0.010928 -0.035139 0.002819
v -0.011298 -0.014055 0.010222
v -0.008338 -0.019229 0.010222
v -0.011298 -0.032180 -0.010131
v -0.011298 -0.034398 0.005409
v -0.008708 0.004079 0.004670
v -0.011669 -0.002581 0.006148
v -0.011298 -0.036625 -0.005690
v -0.011669 0.000378 0.001707
v -0.008338 -0.009986 -0.008280
v -0.008338 -0.031071 0.002450
f 517 550 560 
f 512 513 514 
f 513 512 517 
f 514 516 518 
f 513 517 519 
f 513 519 520 
f 514 518 521 
f 516 514 522 
f 518 516 523 
f 517 512 525 
f 520 519 526 
f 519 517 527 
f 518 523 528 
f 521 518 529 
f 526 519 530 
f 528 511 530 
f 529 515 532 
f 521 529 532 
f 522 514 534 
f 516 522 535 
f 520 526 536 
f 527 517 537 
f 519 527 538 
f 529 518 538 
f 530 519 539 
f 528 530 539 
f 513 520 540 
f 524 513 540 
f 520 531 540 
f 517 525 541 
f 525 521 541 
f 537 515 542 
f 527 537 542 
f 521 532 543 
f 517 541 543 
f 541 521 543 
f 514 521 544 
f 521 525 544 
f 523 516 545 
f 516 536 545 
f 514 513 546 
f 513 524 546 
f 534 514 546 
f 524 534 546 
f 531 520 547 
f 516 535 547 
f 535 531 547 
f 536 516 547 
f 520 536 547 
f 536 526 548 
f 523 545 548 
f 545 536 548 
f 511 528 549 
f 528 523 549 
f 548 511 549 
f 523 548 549 
f 512 514 551 
f 533 512 551 
f 514 544 551 
f 544 533 551 
f 525 512 552 
f 512 533 552 
f 544 525 552 
f 533 544 552 
f 518 528 553 
f 538 518 553 
f 519 538 553 
f 539 519 553 
f 528 539 553 
f 532 515 554 
f 517 543 554 
f 543 532 554 
f 515 550 554 
f 550 517 554 
f 531 522 555 
f 524 540 555 
f 540 531 555 
f 522 534 556 
f 534 524 556 
f 555 522 556 
f 524 555 556 
f 515 529 557 
f 538 527 557 
f 529 538 557 
f 542 515 557 
f 527 542 557 
f 522 531 558 
f 535 522 558 
f 531 535 558 
f 530 511 559 
f 526 530 559 
f 511 548 559 
f 548 526 559 
f 515 537 560 
f 537 517 560 
f 550 515 560 
o convex_11
v -0.007597 -0.030699 -0.001246
v -0.003527 -0.002956 0.011333
v -0.003897 -0.002956 0.011333
v -0.003897 0.009263 -0.005318
v -0.008338 0.004814 0.004668
v -0.003527 -0.023297 -0.007537
v -0.008338 -0.021078 -0.009761
v -0.008338 -0.024777 0.009111
v -0.003527 -0.020336 0.008000
v -0.008338 0.002962 -0.004207
v -0.003528 0.009263 0.007259
v -0.008338 -0.007027 0.010222
v -0.003527 -0.003327 -0.008279
v -0.008338 -0.030328 -0.007909
v -0.006488 0.009255 -0.001987
v -0.008338 -0.005546 -0.007539
v -0.003897 -0.019597 -0.009389
v -0.007967 -0.029219 0.005407
v -0.003527 -0.024039 -0.000507
v -0.003527 -0.014413 0.010591
v -0.008338 -0.019226 0.010222
v -0.003897 0.007040 0.008739
v -0.007967 -0.026996 -0.009761
v -0.006118 0.009263 0.003926
v -0.003528 0.004817 -0.006798
v -0.008338 -0.000737 0.008370
v -0.006488 -0.029219 -0.004207
v -0.008338 0.005923 -0.001618
v -0.008338 -0.031070 0.000234
v -0.003527 -0.016636 -0.009389
v -0.003897 0.002966 0.010220
v -0.005008 0.008884 0.006520
v -0.007227 -0.024777 0.008741
v -0.007967 -0.031070 -0.006429
v -0.003527 -0.022183 0.005039
v -0.003528 0.009263 -0.005318
v -0.008338 -0.009249 -0.008281
v -0.007967 -0.030699 0.001709
v -0.006858 0.008884 0.000967
v -0.003527 -0.024039 -0.005687
v -0.003527 -0.017374 0.009850
v -0.003897 0.003337 -0.007168
v -0.007597 -0.014417 0.010591
v -0.006858 -0.027738 -0.008648
v -0.003527 -0.011452 0.010959
v -0.003527 -0.020703 -0.009018
v -0.007967 -0.022187 0.009850
v -0.006118 -0.020336 -0.009761
v -0.007597 -0.027738 0.006887
v -0.008338 -0.001109 -0.006059
v -0.005748 0.009255 -0.003468
v -0.008338 0.001481 0.007259
v -0.008338 -0.027367 0.007628
v -0.004267 -0.003695 -0.008279
v -0.008338 -0.002589 0.009111
f 591 582 615 
f 565 567 568 
f 566 562 569 
f 567 565 570 
f 565 568 572 
f 562 566 573 
f 568 567 574 
f 567 570 576 
f 566 569 579 
f 569 562 580 
f 572 568 581 
f 574 567 583 
f 571 564 584 
f 564 575 584 
f 565 572 586 
f 579 561 587 
f 570 565 588 
f 568 574 589 
f 573 566 590 
f 563 562 591 
f 562 571 591 
f 572 563 591 
f 571 582 591 
f 582 571 592 
f 571 584 592 
f 584 565 592 
f 587 561 594 
f 561 589 594 
f 589 574 594 
f 579 569 595 
f 571 562 596 
f 564 571 596 
f 562 573 596 
f 585 564 596 
f 573 585 596 
f 567 576 597 
f 561 579 598 
f 589 561 598 
f 578 589 598 
f 595 578 598 
f 579 595 598 
f 584 575 599 
f 565 584 599 
f 588 565 599 
f 575 588 599 
f 566 579 600 
f 579 587 600 
f 594 566 600 
f 587 594 600 
f 569 580 601 
f 593 569 601 
f 576 564 602 
f 564 585 602 
f 585 573 602 
f 597 576 602 
f 563 572 603 
f 572 581 603 
f 574 583 604 
f 566 594 604 
f 594 574 604 
f 562 563 605 
f 580 562 605 
f 563 603 605 
f 603 581 605 
f 583 577 606 
f 590 566 606 
f 577 590 606 
f 566 604 606 
f 604 583 606 
f 581 568 607 
f 568 593 607 
f 601 580 607 
f 593 601 607 
f 580 605 607 
f 605 581 607 
f 567 573 608 
f 583 567 608 
f 577 583 608 
f 573 590 608 
f 590 577 608 
f 569 593 609 
f 595 569 609 
f 578 595 609 
f 570 564 610 
f 564 576 610 
f 576 570 610 
f 564 570 611 
f 575 564 611 
f 570 588 611 
f 588 575 611 
f 565 586 612 
f 586 582 612 
f 582 592 612 
f 592 565 612 
f 568 589 613 
f 589 578 613 
f 593 568 613 
f 578 609 613 
f 609 593 613 
f 573 567 614 
f 567 597 614 
f 602 573 614 
f 597 602 614 
f 586 572 615 
f 582 586 615 
f 572 591 615 
o convex_12
v 0.001284 0.008522 -0.001620
v -0.003527 0.000751 -0.001990
v -0.003157 0.000751 -0.001990
v -0.003527 0.003712 0.002081
v -0.003527 0.009263 -0.001990
v -0.000567 0.009263 0.002081
v -0.003527 0.009263 0.002081
v -0.000567 0.004082 -0.001620
v 0.001284 0.009263 -0.001990
v -0.000567 0.008522 0.002081
v -0.003157 0.003712 0.002081
f 625 619 626 
f 617 618 619 
f 618 617 620 
f 617 619 620 
f 621 620 622 
f 620 619 622 
f 619 621 622 
f 618 620 624 
f 621 616 624 
f 620 621 624 
f 616 623 624 
f 623 618 624 
f 616 621 625 
f 621 619 625 
f 623 616 625 
f 623 625 626 
f 619 618 626 
f 618 623 626 
o convex_13
v -0.030911 -0.055867 -0.012722
v -0.023511 -0.049578 -0.001250
v -0.026102 -0.049578 -0.001250
v -0.024622 -0.058088 -0.001250
v -0.023511 -0.049578 -0.011610
v -0.033131 -0.049578 -0.006801
v -0.030911 -0.057718 -0.001250
v -0.026472 -0.058088 -0.010499
v -0.032391 -0.058088 -0.009390
v -0.032021 -0.049578 -0.010870
v -0.023511 -0.055498 -0.006431
v -0.029060 -0.057718 -0.012722
v -0.027953 -0.049578 -0.012351
v -0.032761 -0.057348 -0.007170
v -0.023511 -0.052539 -0.010870
v -0.030541 -0.055498 -0.001250
v -0.023511 -0.056238 -0.001250
v -0.032761 -0.056608 -0.009760
v -0.024622 -0.057718 -0.006801
v -0.030541 -0.058088 -0.001250
v -0.023882 -0.050689 -0.011980
v -0.031651 -0.057348 -0.011980
v -0.033131 -0.049578 -0.008650
v -0.027213 -0.057348 -0.011980
v -0.027953 -0.053279 -0.012722
v -0.030911 -0.050689 -0.011980
v -0.030541 -0.058088 -0.012351
v -0.027213 -0.050689 -0.001250
v -0.023511 -0.054388 -0.009019
f 637 645 655 
f 628 629 630 
f 629 628 631 
f 629 631 632 
f 630 629 633 
f 634 630 635 
f 632 631 636 
f 631 628 637 
f 636 631 639 
f 633 632 640 
f 631 637 641 
f 633 629 642 
f 632 633 642 
f 628 630 643 
f 637 628 643 
f 635 640 644 
f 630 634 645 
f 643 630 645 
f 637 643 645 
f 630 633 646 
f 635 630 646 
f 633 640 646 
f 640 635 646 
f 639 631 647 
f 631 641 647 
f 636 627 648 
f 635 644 648 
f 644 636 648 
f 632 636 649 
f 640 632 649 
f 636 644 649 
f 644 640 649 
f 634 638 650 
f 641 634 650 
f 638 647 650 
f 647 641 650 
f 638 627 651 
f 627 639 651 
f 639 647 651 
f 647 638 651 
f 627 636 652 
f 639 627 652 
f 636 639 652 
f 634 635 653 
f 627 638 653 
f 638 634 653 
f 648 627 653 
f 635 648 653 
f 629 632 654 
f 642 629 654 
f 632 642 654 
f 641 637 655 
f 634 641 655 
f 645 634 655 
o convex_14
v -0.001307 -0.018860 -0.007909
v 0.004244 -0.001839 0.002080
v 0.004244 -0.001099 -0.001621
v -0.003527 -0.001099 -0.002361
v -0.003527 -0.022561 0.002080
v -0.003527 -0.002951 -0.008279
v 0.004244 -0.009611 -0.007170
v 0.004244 -0.010722 0.002080
v 0.004244 -0.001099 -0.008279
v -0.003527 -0.019972 -0.009020
v -0.003527 -0.014050 0.002080
v -0.003157 -0.023673 -0.004210
v 0.004244 -0.011464 -0.004579
v -0.003527 -0.001099 -0.007909
v -0.001307 -0.020712 -0.001250
v 0.002764 -0.007021 -0.008649
v -0.003157 -0.011464 -0.009020
v -0.003157 -0.022933 -0.007170
v 0.003504 -0.012938 -0.001250
v -0.003157 -0.022933 0.001339
v 0.002393 -0.004060 0.002080
v 0.003874 -0.007392 -0.008279
v -0.003527 -0.023302 -0.006430
v 0.001284 -0.004431 -0.008649
v -0.002787 -0.019231 -0.009020
v -0.002047 -0.001099 -0.008279
v -0.000566 -0.019600 -0.004210
v 0.003134 -0.012567 -0.006430
v 0.004244 -0.011464 0.000230
v -0.000936 -0.011833 -0.009020
f 671 680 685 
f 657 658 659 
f 660 659 661 
f 658 657 662 
f 657 660 663 
f 662 657 663 
f 659 658 664 
f 658 662 664 
f 660 661 665 
f 659 660 666 
f 660 657 666 
f 662 663 668 
f 661 659 669 
f 659 664 669 
f 665 661 672 
f 663 660 675 
f 660 667 675 
f 667 670 675 
f 657 659 676 
f 666 657 676 
f 659 666 676 
f 664 662 677 
f 671 664 677 
f 660 665 678 
f 667 660 678 
f 665 673 678 
f 673 667 678 
f 664 671 679 
f 662 656 680 
f 665 672 680 
f 656 673 680 
f 673 665 680 
f 677 662 680 
f 671 677 680 
f 661 669 681 
f 669 664 681 
f 672 661 681 
f 664 679 681 
f 679 672 681 
f 670 667 682 
f 667 673 682 
f 673 668 682 
f 668 674 682 
f 674 670 682 
f 656 662 683 
f 662 668 683 
f 673 656 683 
f 668 673 683 
f 668 663 684 
f 674 668 684 
f 670 674 684 
f 675 670 684 
f 663 675 684 
f 679 671 685 
f 672 679 685 
f 680 672 685 
o convex_15
v 0.003874 -0.008502 0.008001
v 0.004244 0.000751 0.012073
v -0.000566 0.000751 0.012073
v 0.004244 -0.001840 0.002082
v -0.003527 -0.022193 0.003192
v -0.003527 0.000751 0.005042
v -0.003527 -0.015900 0.010222
v 0.004244 -0.010721 0.002082
v -0.003527 -0.013681 0.002082
v -0.003527 0.000751 0.010962
v -0.003157 -0.020342 0.007261
v 0.004244 0.000751 0.005042
v 0.004244 -0.005171 0.010591
v -0.002787 -0.021822 0.002082
v -0.003527 -0.011459 0.010962
v -0.001676 -0.016270 0.009112
v 0.004244 -0.000360 0.012073
v -0.001676 -0.019228 0.005042
v 0.002764 -0.003320 0.002082
v 0.004244 -0.008872 0.006523
v -0.003527 -0.001099 0.011332
v -0.003157 -0.015900 0.010222
v 0.000174 -0.001470 0.012073
v -0.003527 -0.006651 0.011332
v -0.002787 -0.021822 0.002821
v 0.004244 -0.002211 0.011702
v -0.003527 -0.022193 0.002082
v -0.003527 -0.018860 0.008741
v 0.004244 -0.007392 0.008741
f 705 698 714 
f 688 687 691 
f 691 690 692 
f 689 687 693 
f 690 691 694 
f 689 693 694 
f 688 691 695 
f 691 692 695 
f 687 689 697 
f 691 687 697 
f 689 691 697 
f 693 687 698 
f 694 693 699 
f 695 692 700 
f 687 688 702 
f 698 687 702 
f 691 689 704 
f 694 691 704 
f 689 694 704 
f 686 696 705 
f 693 698 705 
f 703 693 705 
f 696 703 705 
f 688 695 706 
f 695 700 706 
f 700 692 707 
f 701 698 707 
f 702 700 707 
f 702 688 708 
f 700 702 708 
f 688 706 709 
f 706 700 709 
f 708 688 709 
f 700 708 709 
f 696 690 710 
f 690 699 710 
f 699 693 710 
f 693 703 710 
f 703 696 710 
f 698 702 711 
f 707 698 711 
f 702 707 711 
f 690 694 712 
f 699 690 712 
f 694 699 712 
f 692 690 713 
f 690 696 713 
f 696 701 713 
f 707 692 713 
f 701 707 713 
f 696 686 714 
f 701 696 714 
f 698 701 714 
f 686 705 714 
o convex_16
v 0.001653 0.009263 0.012071
v -0.003527 0.000751 0.005043
v -0.003527 0.003712 0.002082
v 0.004244 0.000751 0.005412
v -0.000566 0.009263 0.002082
v -0.003527 0.000751 0.010592
v -0.003527 0.009263 0.008001
v 0.004244 0.000751 0.012071
v 0.004244 0.009263 0.006892
v 0.004244 0.009263 0.013182
v -0.003527 0.009263 0.002082
v -0.000566 0.000751 0.012071
v -0.003157 0.001862 0.010961
v 0.004244 0.005932 0.013182
v 0.003504 0.008522 0.013182
v -0.003527 0.005932 0.009481
v -0.000936 0.007782 0.002082
v 0.003134 0.001122 0.012441
f 728 726 732 
f 716 717 718 
f 717 716 720 
f 716 718 720 
f 715 719 721 
f 717 720 721 
f 720 718 722 
f 719 715 723 
f 718 719 723 
f 722 718 723 
f 722 723 724 
f 723 715 724 
f 719 717 725 
f 721 719 725 
f 717 721 725 
f 720 722 726 
f 720 726 727 
f 722 724 728 
f 726 728 729 
f 724 715 729 
f 727 726 729 
f 715 727 729 
f 728 724 729 
f 715 721 730 
f 721 720 730 
f 727 715 730 
f 720 727 730 
f 718 717 731 
f 719 718 731 
f 717 719 731 
f 726 722 732 
f 722 728 732 
o convex_17
v -0.033131 -0.044767 -0.008280
v -0.027952 -0.044767 -0.004951
v -0.030543 -0.044767 -0.001252
v -0.029432 -0.049577 -0.011980
v -0.034242 -0.048467 -0.001252
v -0.027952 -0.049577 -0.005691
v -0.027952 -0.044767 -0.010870
v -0.033131 -0.049577 -0.008650
v -0.034983 -0.044767 -0.001252
v -0.027952 -0.049577 -0.011980
v -0.031652 -0.048097 -0.010870
v -0.034983 -0.046248 -0.002361
v -0.033131 -0.048467 -0.001252
v -0.030173 -0.044767 -0.010500
v -0.032762 -0.049577 -0.006061
v -0.034612 -0.044767 -0.004211
v -0.034983 -0.047356 -0.001621
v -0.032391 -0.049577 -0.010130
f 743 736 750 
f 735 734 733 
f 734 735 738 
f 733 734 739 
f 734 738 739 
f 736 738 740 
f 735 733 741 
f 737 735 741 
f 738 736 742 
f 736 739 742 
f 739 738 742 
f 735 737 745 
f 738 735 745 
f 737 738 745 
f 733 739 746 
f 739 736 746 
f 743 733 746 
f 736 743 746 
f 738 737 747 
f 737 740 747 
f 740 738 747 
f 733 740 748 
f 741 733 748 
f 740 744 748 
f 744 741 748 
f 740 737 749 
f 737 741 749 
f 744 740 749 
f 741 744 749 
f 740 733 750 
f 736 740 750 
f 733 743 750 
o convex_18
v -0.023512 -0.044767 -0.004581
v -0.027952 -0.049577 -0.011980
v -0.027952 -0.048097 -0.011980
v -0.026101 -0.049577 -0.001252
v -0.023512 -0.049577 -0.011980
v -0.027952 -0.044767 -0.005322
v -0.023512 -0.044767 -0.011610
v -0.023512 -0.049577 -0.001252
v -0.027952 -0.044767 -0.010870
v -0.023881 -0.046248 -0.001252
v -0.027952 -0.049577 -0.005322
v -0.024622 -0.045507 -0.011980
f 759 757 762 
f 752 753 755 
f 754 752 755 
f 753 752 756 
f 751 755 757 
f 756 751 757 
f 755 751 758 
f 754 755 758 
f 753 756 759 
f 756 757 759 
f 751 756 760 
f 756 754 760 
f 758 751 760 
f 754 758 760 
f 752 754 761 
f 756 752 761 
f 754 756 761 
f 755 753 762 
f 757 755 762 
f 753 759 762 
