o convex_0
v -0.010849 0.003343 -0.023566
v -0.012293 -0.002678 -0.014896
v -0.012052 -0.002678 -0.014896
v -0.010127 -0.001714 0.005808
v -0.012294 0.003343 -0.026699
v -0.010126 0.002860 -0.025012
v -0.012534 -0.002195 -0.010323
v -0.010127 -0.002436 0.001714
v -0.010127 0.000693 -0.004064
v -0.012294 0.000694 -0.024289
v -0.011090 -0.001955 -0.013212
v -0.010368 -0.001714 0.005808
v -0.010368 -0.002436 0.006052
v -0.012053 0.003102 -0.028145
v -0.010126 0.003343 -0.023807
v -0.010368 0.000693 -0.004064
v -0.012052 -0.001955 -0.017547
v -0.010368 -0.000509 -0.012489
f 8 11 18 
f 6 4 8 
f 2 7 10 
f 7 5 10 
f 8 3 11 
f 5 7 12 
f 4 9 12 
f 2 3 13 
f 7 2 13 
f 3 8 13 
f 8 4 13 
f 12 7 13 
f 4 12 13 
f 6 10 14 
f 10 5 14 
f 5 1 15 
f 4 6 15 
f 1 9 15 
f 9 4 15 
f 14 5 15 
f 6 14 15 
f 1 5 16 
f 9 1 16 
f 5 12 16 
f 12 9 16 
f 3 2 17 
f 2 10 17 
f 10 6 17 
f 11 3 17 
f 6 11 17 
f 6 8 18 
f 11 6 18 
o convex_1
v 0.002879 0.005510 -0.010565
v 0.001433 0.000935 0.004124
v 0.001433 0.001417 0.000751
v 0.004564 0.002620 0.011349
v 0.001915 0.002139 0.009183
v 0.004564 0.006474 -0.010565
v 0.001674 0.003102 -0.009839
v 0.004323 0.004306 0.006052
v 0.001433 0.003824 -0.009358
v 0.002879 0.000935 0.011107
v 0.004564 0.005991 -0.010321
v 0.004564 0.003102 0.012314
v 0.004082 0.006474 -0.010079
v 0.001674 0.001657 0.009662
v 0.002638 0.001657 0.012314
v 0.003119 0.001176 0.010628
v 0.001433 0.003343 -0.010565
f 24 29 35 
f 21 20 27 
f 23 19 27 
f 20 21 28 
f 21 25 28 
f 24 22 29 
f 22 24 30 
f 26 23 30 
f 24 26 30 
f 28 22 30 
f 19 23 31 
f 24 19 31 
f 23 26 31 
f 26 24 31 
f 27 20 32 
f 23 27 32 
f 20 28 32 
f 30 23 33 
f 28 30 33 
f 23 32 33 
f 32 28 33 
f 22 28 34 
f 28 25 34 
f 25 29 34 
f 29 22 34 
f 19 24 35 
f 25 21 35 
f 21 27 35 
f 27 19 35 
f 29 25 35 
o convex_2
v -0.012294 0.006955 -0.028385
v -0.012294 0.003343 -0.028626
v -0.012294 0.003825 -0.029348
v -0.010126 0.003343 -0.026460
v -0.012294 0.006473 -0.023811
v -0.010126 0.007678 -0.027663
v -0.012053 0.005270 -0.031035
v -0.011090 0.007437 -0.023811
v -0.011571 0.003343 -0.024533
v -0.010126 0.003343 -0.025015
v -0.012053 0.007678 -0.024775
v -0.010126 0.003584 -0.027423
v -0.012294 0.006232 -0.031035
f 41 42 48 
f 38 37 36 
f 36 37 40 
f 37 39 44 
f 40 37 44 
f 43 40 44 
f 43 44 45 
f 39 41 45 
f 41 43 45 
f 44 39 45 
f 36 40 46 
f 41 36 46 
f 40 43 46 
f 43 41 46 
f 37 38 47 
f 39 37 47 
f 41 39 47 
f 38 42 47 
f 42 41 47 
f 38 36 48 
f 36 41 48 
f 42 38 48 
o convex_3
v -0.010849 0.007196 -0.023087
v -0.012053 0.003584 -0.011047
v -0.011571 0.003584 -0.011047
v -0.012294 0.005751 -0.012010
v -0.012294 0.006473 -0.023810
v -0.010126 0.004306 -0.012252
v -0.010849 0.005510 -0.022606
v -0.010126 0.006233 -0.016586
v -0.012053 0.007678 -0.021883
v -0.010126 0.004788 -0.011529
v -0.010608 0.003824 -0.013696
v -0.012294 0.003824 -0.010805
v -0.011571 0.007678 -0.021642
f 49 57 61 
f 53 49 55 
f 50 53 55 
f 54 55 56 
f 55 49 56 
f 49 53 57 
f 53 52 57 
f 51 54 58 
f 54 56 58 
f 56 52 58 
f 51 50 59 
f 54 51 59 
f 50 55 59 
f 55 54 59 
f 50 51 60 
f 52 53 60 
f 53 50 60 
f 51 58 60 
f 58 52 60 
f 56 49 61 
f 52 56 61 
f 57 52 61 
o convex_4
v -0.009404 -0.002919 0.009667
v -0.010126 -0.007976 0.036394
v -0.010126 -0.007734 0.034466
v -0.008441 -0.007494 0.036874
v -0.008682 -0.002919 0.022667
v -0.010126 -0.003160 0.006775
v -0.010126 -0.007494 0.037118
v -0.010126 -0.002919 0.009427
v -0.008441 -0.004123 0.021469
v -0.008441 -0.007013 0.037598
v -0.009885 -0.003641 0.008943
v -0.008441 -0.002919 0.020024
v -0.009163 -0.003641 0.013279
v -0.009885 -0.006290 0.025072
f 72 65 75 
f 63 64 65 
f 64 63 67 
f 63 65 68 
f 67 63 68 
f 67 68 69 
f 66 62 69 
f 62 67 69 
f 68 66 69 
f 68 65 71 
f 66 68 71 
f 65 70 71 
f 64 67 72 
f 67 62 72 
f 62 66 73 
f 70 62 73 
f 66 71 73 
f 71 70 73 
f 62 70 74 
f 70 65 74 
f 65 72 74 
f 72 62 74 
f 65 64 75 
f 64 72 75 
o convex_5
v -0.008441 -0.003160 0.021947
v -0.008441 -0.007494 0.037359
v -0.008199 -0.007494 0.037359
v -0.005551 -0.002919 0.037841
v -0.005310 -0.004364 0.034468
v -0.007718 -0.002919 0.029894
v -0.008199 -0.004846 0.025560
v -0.005310 -0.002919 0.032783
v -0.006755 -0.006531 0.036877
v -0.008441 -0.007012 0.037841
v -0.008441 -0.002919 0.024596
v -0.005551 -0.004605 0.037841
v -0.008199 -0.003160 0.021947
v -0.005792 -0.002919 0.037600
f 85 79 89 
f 77 76 82 
f 78 77 82 
f 79 80 83 
f 81 79 83 
f 78 82 84 
f 82 80 84 
f 76 77 85 
f 77 78 85 
f 81 83 86 
f 76 85 86 
f 85 81 86 
f 80 79 87 
f 78 84 87 
f 84 80 87 
f 85 78 87 
f 79 85 87 
f 82 76 88 
f 80 82 88 
f 83 80 88 
f 76 86 88 
f 86 83 88 
f 79 81 89 
f 81 85 89 
o convex_6
v -0.009645 -0.000029 0.000995
v -0.010126 -0.002919 0.006054
v -0.009885 -0.002919 0.006054
v -0.008441 -0.001955 0.023391
v -0.008200 -0.000270 -0.003339
v -0.008200 -0.002919 0.021463
v -0.008200 -0.000992 0.018332
v -0.010126 -0.000029 -0.001171
v -0.009404 -0.001233 0.013997
v -0.010126 -0.000270 -0.003339
v -0.010126 -0.002919 0.008220
v -0.008200 -0.000029 -0.001412
v -0.008200 -0.001714 0.008220
v -0.008922 -0.002919 0.020259
v -0.008922 -0.000992 0.016887
v -0.010126 -0.001233 0.006054
v -0.009885 -0.002437 0.003405
f 99 94 106 
f 91 92 95 
f 93 95 96 
f 95 94 96 
f 91 97 99 
f 91 95 100 
f 97 91 100 
f 90 96 101 
f 96 94 101 
f 97 90 101 
f 94 99 101 
f 99 97 101 
f 92 94 102 
f 95 92 102 
f 94 95 102 
f 95 93 103 
f 93 98 103 
f 100 95 103 
f 98 100 103 
f 93 96 104 
f 96 90 104 
f 90 97 104 
f 97 98 104 
f 98 93 104 
f 98 97 105 
f 97 100 105 
f 100 98 105 
f 92 91 106 
f 94 92 106 
f 91 99 106 
o convex_7
v -0.003142 -0.000270 -0.027179
v -0.000975 -0.002918 0.009665
v -0.000975 -0.003160 0.009665
v -0.005310 -0.002437 0.009665
v -0.000975 -0.000752 -0.002619
v -0.005310 -0.000029 -0.007196
v -0.000975 -0.000029 -0.026454
v -0.001457 -0.001233 -0.022844
v -0.005069 -0.001474 0.007256
v -0.002661 -0.003160 0.008219
v -0.003383 -0.000511 -0.026454
v -0.005310 -0.000029 -0.014174
v -0.005310 -0.002437 0.007977
v -0.001939 -0.001955 -0.012490
v -0.002661 -0.001955 0.007977
v -0.000975 -0.001233 -0.020680
v -0.005310 -0.000270 -0.014174
v -0.000975 -0.000029 -0.023324
v -0.003383 -0.000029 -0.026938
v -0.000975 -0.002918 0.003646
v -0.005310 -0.000270 -0.003585
v -0.001457 -0.000752 -0.026213
v -0.004587 -0.000029 -0.008162
v -0.003624 -0.002196 0.009665
f 121 115 130 
f 109 108 110 
f 108 109 111 
f 111 109 113 
f 109 110 116 
f 110 112 118 
f 112 113 118 
f 116 110 119 
f 110 118 119 
f 117 114 120 
f 116 119 120 
f 119 117 120 
f 108 111 121 
f 111 115 121 
f 113 109 122 
f 117 119 123 
f 119 118 123 
f 111 113 124 
f 113 112 124 
f 113 107 125 
f 107 117 125 
f 118 113 125 
f 117 123 125 
f 123 118 125 
f 109 116 126 
f 120 114 126 
f 116 120 126 
f 122 109 126 
f 114 122 126 
f 112 110 127 
f 110 115 127 
f 115 111 127 
f 107 113 128 
f 114 117 128 
f 117 107 128 
f 113 122 128 
f 122 114 128 
f 111 124 129 
f 124 112 129 
f 112 127 129 
f 127 111 129 
f 110 108 130 
f 115 110 130 
f 108 121 130 
o convex_8
v -0.005310 -0.002437 0.030617
v -0.000975 -0.003882 0.037841
v -0.000975 -0.004364 0.037841
v -0.005310 -0.002919 0.037841
v -0.005310 -0.004123 0.036155
v -0.000975 -0.004123 0.030617
v -0.003624 -0.001955 0.034229
v -0.005069 -0.003160 0.030617
v -0.000975 -0.003400 0.032784
v -0.001457 -0.003400 0.037841
v -0.005069 -0.002196 0.030858
v -0.001939 -0.004123 0.030617
v -0.003624 -0.002678 0.037600
f 134 140 143 
f 133 132 134 
f 134 131 135 
f 133 134 135 
f 132 133 136 
f 135 131 138 
f 131 136 138 
f 132 136 139 
f 139 137 140 
f 134 132 140 
f 132 139 140 
f 131 134 141 
f 136 131 141 
f 134 137 141 
f 139 136 141 
f 137 139 141 
f 133 135 142 
f 136 133 142 
f 135 138 142 
f 138 136 142 
f 137 134 143 
f 140 137 143 
o convex_9
v -0.002902 0.000212 -0.022606
v -0.003625 0.000694 -0.027422
v -0.005791 0.001416 -0.026940
v -0.000975 0.001657 -0.026699
v -0.006031 0.001657 -0.022606
v -0.003383 -0.000029 -0.027181
v -0.000975 0.000212 -0.023329
v -0.004587 0.000212 -0.022606
v -0.000975 -0.000029 -0.026699
v -0.006514 0.001657 -0.026218
v -0.002902 -0.000029 -0.022606
v -0.002421 0.001657 -0.027422
f 153 147 155 
f 146 145 149 
f 148 144 150 
f 147 148 150 
f 144 148 151 
f 149 145 152 
f 147 150 152 
f 148 147 153 
f 146 149 153 
f 151 148 153 
f 149 151 153 
f 150 144 154 
f 144 151 154 
f 151 149 154 
f 149 152 154 
f 152 150 154 
f 145 146 155 
f 152 145 155 
f 147 152 155 
f 146 153 155 
o convex_10
v 0.009862 -0.011107 -0.037053
v 0.012511 -0.009662 -0.007434
v 0.012270 -0.009662 -0.007434
v 0.010585 -0.009662 -0.039945
v 0.009621 -0.010866 -0.007434
v 0.011789 -0.010866 -0.008640
v 0.010344 -0.009662 -0.032960
v 0.010585 -0.010384 -0.038497
v 0.009621 -0.010625 -0.039945
v 0.011066 -0.011107 -0.007434
v 0.012511 -0.010144 -0.008640
v 0.009621 -0.011107 -0.007434
v 0.011066 -0.009662 -0.019237
v 0.010103 -0.010866 -0.039945
v 0.010826 -0.009903 -0.038497
f 163 169 170 
f 158 157 159 
f 157 158 160 
f 158 159 162 
f 162 159 164 
f 160 162 164 
f 157 160 165 
f 156 161 165 
f 165 161 166 
f 157 165 166 
f 164 156 167 
f 160 164 167 
f 156 165 167 
f 165 160 167 
f 160 158 168 
f 158 162 168 
f 162 160 168 
f 161 156 169 
f 156 164 169 
f 164 159 169 
f 166 161 169 
f 163 166 169 
f 159 157 170 
f 157 166 170 
f 166 163 170 
f 169 159 170 
o convex_11
v 0.010344 -0.011347 0.000515
v 0.015401 -0.009662 0.012314
v 0.014919 -0.009662 0.012314
v 0.012511 -0.009662 -0.007434
v 0.009621 -0.011106 0.009664
v 0.013474 -0.011106 0.012072
v 0.011789 -0.010866 -0.007434
v 0.009621 -0.010866 -0.007434
v 0.009621 -0.011588 0.012314
v 0.015401 -0.009903 0.011110
v 0.012271 -0.009662 -0.005988
v 0.011548 -0.011588 0.011591
v 0.011067 -0.011106 -0.007434
v 0.012511 -0.010384 -0.006951
v 0.014919 -0.010384 0.011831
v 0.009621 -0.011106 -0.007434
v 0.009621 -0.010866 0.001959
f 181 178 187 
f 173 172 174 
f 174 177 178 
f 175 178 179 
f 172 173 179 
f 173 175 179 
f 176 172 179 
f 174 172 180 
f 173 174 181 
f 175 173 181 
f 174 178 181 
f 176 179 182 
f 179 171 182 
f 177 176 183 
f 178 177 183 
f 182 171 183 
f 176 182 183 
f 177 174 184 
f 174 180 184 
f 184 180 185 
f 172 176 185 
f 176 177 185 
f 180 172 185 
f 177 184 185 
f 179 178 186 
f 171 179 186 
f 178 183 186 
f 183 171 186 
f 178 175 187 
f 175 181 187 
o convex_12
v 0.010344 -0.014238 0.028451
v 0.016124 -0.017608 0.037840
v 0.015401 -0.017368 0.037840
v 0.015160 -0.014238 0.031340
v 0.011548 -0.016645 0.037599
v 0.016124 -0.018572 0.037358
v 0.014678 -0.014479 0.027969
v 0.011548 -0.017849 0.037358
v 0.010826 -0.014238 0.032062
v 0.011308 -0.014479 0.027969
v 0.014919 -0.014238 0.028451
v 0.011548 -0.017849 0.037840
v 0.015401 -0.018572 0.037358
f 199 195 200 
f 190 189 191 
f 190 191 192 
f 191 188 196 
f 192 191 196 
f 188 194 197 
f 194 193 197 
f 195 188 197 
f 191 189 198 
f 188 191 198 
f 189 193 198 
f 194 188 198 
f 193 194 198 
f 189 190 199 
f 190 192 199 
f 193 189 199 
f 188 195 199 
f 196 188 199 
f 192 196 199 
f 197 193 200 
f 195 197 200 
f 193 199 200 
o convex_13
v 0.020458 -0.008938 0.033025
v 0.020940 -0.002196 0.037841
v 0.020699 -0.002196 0.037841
v 0.019977 -0.009180 0.037841
v 0.018532 -0.002919 0.035914
v 0.020940 -0.002196 0.033025
v 0.018532 -0.009180 0.035433
v 0.020940 -0.007975 0.034952
v 0.019977 -0.003160 0.033025
v 0.019255 -0.002678 0.037841
v 0.021181 -0.002919 0.037118
v 0.019977 -0.009180 0.033025
v 0.019495 -0.009180 0.037841
f 210 207 213 
f 202 203 204 
f 205 203 206 
f 203 202 206 
f 204 201 208 
f 201 206 208 
f 205 206 209 
f 206 201 209 
f 207 205 209 
f 204 203 210 
f 203 205 210 
f 205 207 210 
f 202 204 211 
f 206 202 211 
f 204 208 211 
f 208 206 211 
f 201 204 212 
f 204 207 212 
f 209 201 212 
f 207 209 212 
f 207 204 213 
f 204 210 213 
o convex_14
v 0.018773 0.001898 0.027004
v 0.016605 -0.002196 0.012314
v 0.016847 -0.002196 0.012314
v 0.016605 0.003584 0.012314
v 0.017810 0.003584 0.026763
v 0.018532 -0.002196 0.026763
v 0.019014 -0.001955 0.026279
v 0.017087 0.003102 0.012796
v 0.017087 -0.001955 0.012314
v 0.018291 0.003584 0.025799
v 0.016605 -0.002196 0.013039
v 0.016605 0.003584 0.013760
f 224 218 225 
f 216 215 217 
f 215 216 219 
f 214 218 219 
f 219 216 220 
f 214 219 220 
f 214 220 221 
f 216 217 222 
f 220 216 222 
f 221 220 222 
f 217 221 222 
f 218 214 223 
f 217 218 223 
f 214 221 223 
f 221 217 223 
f 217 215 224 
f 215 219 224 
f 219 218 224 
f 218 217 225 
f 217 224 225 
o convex_15
v 0.014438 0.006233 0.037359
v 0.019254 0.003824 0.035673
v 0.019013 0.004307 0.035673
v 0.014438 0.005751 0.028690
v 0.014438 0.004788 0.036878
v 0.018050 0.003584 0.028690
v 0.016846 0.005751 0.028690
v 0.017568 0.003584 0.037841
v 0.015883 0.005992 0.037600
v 0.018291 0.004307 0.028690
v 0.016124 0.005992 0.028690
v 0.018531 0.004788 0.035914
v 0.014438 0.005269 0.031100
f 229 231 238 
f 226 229 230 
f 231 229 232 
f 227 228 233 
f 226 230 233 
f 231 227 233 
f 230 231 233 
f 226 233 234 
f 228 227 235 
f 227 231 235 
f 231 232 235 
f 232 228 235 
f 229 226 236 
f 232 229 236 
f 226 234 236 
f 234 232 236 
f 228 232 237 
f 233 228 237 
f 232 234 237 
f 234 233 237 
f 230 229 238 
f 231 230 238 
o convex_16
v -0.020722 0.005510 -0.039945
v -0.017352 -0.000751 -0.033202
v -0.017593 -0.000510 -0.034166
v -0.021686 0.003824 -0.027423
v -0.020241 0.005751 -0.027182
v -0.017111 0.000695 -0.039945
v -0.018797 0.000935 -0.039945
v -0.017111 -0.000269 -0.028627
v -0.021204 0.005269 -0.039945
v -0.021444 0.005510 -0.030073
v -0.017352 -0.000751 -0.028627
v -0.020722 0.005751 -0.039461
v -0.017352 0.000454 -0.028627
v -0.017111 -0.000028 -0.038741
f 244 246 252 
f 241 242 245 
f 239 244 245 
f 245 242 247 
f 239 245 247 
f 242 243 248 
f 247 242 248 
f 241 240 249 
f 242 241 249 
f 243 242 249 
f 240 246 249 
f 246 243 249 
f 243 244 250 
f 244 239 250 
f 239 247 250 
f 248 243 250 
f 247 248 250 
f 244 243 251 
f 243 246 251 
f 246 244 251 
f 240 241 252 
f 241 245 252 
f 245 244 252 
f 246 240 252 
o convex_17
v -0.015183 0.002861 -0.039945
v -0.012294 0.000453 -0.022365
v -0.012294 0.000212 -0.022365
v -0.017110 0.000453 -0.037775
v -0.012535 0.003824 -0.028388
v -0.016146 0.000212 -0.037536
v -0.012294 0.000935 -0.025738
v -0.014462 0.003824 -0.039464
v -0.014942 0.003824 -0.038739
v -0.012294 0.003583 -0.030075
v -0.015665 0.001658 -0.039945
v -0.012535 0.000453 -0.022365
v -0.017110 0.000935 -0.039945
v -0.012776 0.000212 -0.025979
v -0.014462 0.003583 -0.039464
v -0.013980 0.003824 -0.033924
f 257 261 268 
f 255 256 258 
f 254 255 259 
f 260 253 261 
f 257 260 261 
f 257 254 262 
f 254 259 262 
f 260 257 262 
f 255 254 264 
f 256 255 264 
f 257 256 264 
f 254 257 264 
f 258 256 265 
f 261 253 265 
f 256 261 265 
f 253 263 265 
f 263 258 265 
f 255 258 266 
f 259 255 266 
f 258 263 266 
f 263 259 266 
f 253 260 267 
f 262 259 267 
f 260 262 267 
f 263 253 267 
f 259 263 267 
f 256 257 268 
f 261 256 268 
o convex_18
v -0.014943 -0.001955 0.013518
v -0.013498 -0.004845 0.010868
v -0.013980 -0.004364 0.009663
v -0.013257 -0.002919 -0.010805
v -0.015906 -0.001955 -0.010805
v -0.015906 -0.001955 0.009663
v -0.013257 -0.004364 0.013518
v -0.015424 -0.001715 -0.010805
v -0.013980 -0.003160 -0.010805
v -0.014702 -0.003641 0.011589
v -0.015665 -0.001715 0.013518
v -0.013498 -0.002678 -0.006951
v -0.015183 -0.001715 0.013518
v -0.015424 -0.002437 -0.010805
v -0.013257 -0.003400 -0.009117
v -0.015906 -0.002196 -0.000929
v -0.013257 -0.004845 0.013518
v -0.013257 -0.002919 -0.006710
f 281 269 286 
f 272 273 276 
f 273 272 277 
f 271 270 278 
f 273 274 279 
f 275 269 279 
f 276 273 279 
f 274 278 279 
f 272 276 280 
f 280 276 281 
f 279 269 281 
f 276 279 281 
f 270 271 282 
f 277 270 282 
f 273 277 282 
f 272 275 283 
f 270 277 283 
f 277 272 283 
f 274 273 284 
f 271 278 284 
f 278 274 284 
f 282 271 284 
f 273 282 284 
f 278 270 285 
f 275 279 285 
f 279 278 285 
f 270 283 285 
f 283 275 285 
f 275 272 286 
f 269 275 286 
f 272 280 286 
f 280 281 286 
o convex_19
v -0.010126 -0.002437 0.002684
v -0.012052 -0.007254 0.026760
v -0.011571 -0.007254 0.026760
v -0.013016 -0.003160 -0.010805
v -0.013257 -0.004604 0.013516
v -0.010127 -0.006772 0.028931
v -0.010367 -0.002437 0.006293
v -0.012534 -0.006772 0.028931
v -0.013257 -0.002678 -0.010319
v -0.012052 -0.002678 -0.010560
v -0.010127 -0.006772 0.027484
v -0.013257 -0.005085 0.011587
v -0.010127 -0.006290 0.028686
v -0.010126 -0.003401 0.006293
v -0.012534 -0.007254 0.027966
v -0.013257 -0.003401 -0.009117
v -0.012775 -0.002437 -0.010805
v -0.012775 -0.003160 -0.010560
v -0.010849 -0.007254 0.028445
f 304 297 305 
f 293 291 294 
f 291 293 295 
f 291 295 298 
f 287 293 299 
f 293 294 299 
f 294 292 299 
f 296 287 300 
f 292 297 300 
f 297 296 300 
f 287 299 300 
f 299 292 300 
f 288 289 301 
f 294 291 301 
f 291 298 301 
f 301 298 302 
f 289 288 302 
f 295 290 302 
f 298 295 302 
f 288 301 302 
f 293 287 303 
f 290 295 303 
f 295 293 303 
f 296 290 303 
f 287 296 303 
f 290 296 304 
f 296 297 304 
f 289 302 304 
f 302 290 304 
f 292 294 305 
f 297 292 305 
f 301 289 305 
f 294 301 305 
f 289 304 305 
o convex_20
v 0.010344 -0.013033 0.016892
v 0.015401 -0.011347 0.023633
v 0.015401 -0.011588 0.023633
v 0.015401 -0.009903 0.012314
v 0.010344 -0.011588 0.016649
v 0.014197 -0.012551 0.017131
v 0.010344 -0.013033 0.023633
v 0.010344 -0.011588 0.012314
v 0.015160 -0.009421 0.012797
v 0.013233 -0.013033 0.022187
v 0.015160 -0.011107 0.023150
v 0.012752 -0.011348 0.012314
v 0.013956 -0.012792 0.023633
v 0.010344 -0.012792 0.023633
v 0.012030 -0.013274 0.021222
v 0.010344 -0.011348 0.012314
f 310 314 321 
f 307 308 309 
f 309 308 311 
f 308 307 312 
f 310 306 312 
f 306 310 313 
f 307 309 314 
f 307 314 316 
f 314 310 316 
f 311 306 317 
f 309 311 317 
f 306 313 317 
f 313 309 317 
f 311 308 318 
f 308 312 318 
f 315 311 318 
f 312 307 319 
f 310 312 319 
f 307 316 319 
f 316 310 319 
f 306 311 320 
f 312 306 320 
f 311 315 320 
f 318 312 320 
f 315 318 320 
f 313 310 321 
f 309 313 321 
f 314 309 321 
o convex_21
v -0.013016 -0.003641 0.037358
v -0.012775 -0.007013 0.027003
v -0.012535 -0.007013 0.027003
v -0.013738 -0.003641 0.013518
v -0.014461 -0.003882 0.027242
v -0.012535 -0.005087 0.013518
v -0.012535 -0.006531 0.037841
v -0.014220 -0.004123 0.013761
v -0.013257 -0.006049 0.036394
v -0.013498 -0.003641 0.037599
v -0.013257 -0.005327 0.014242
v -0.014461 -0.004123 0.023637
v -0.014461 -0.003641 0.017373
v -0.012535 -0.005808 0.037841
v -0.013016 -0.006772 0.027003
v -0.012775 -0.007013 0.034468
f 330 336 337 
f 325 322 327 
f 324 327 328 
f 325 327 329 
f 330 328 331 
f 322 325 331 
f 326 330 331 
f 324 323 332 
f 327 324 332 
f 329 327 332 
f 330 326 333 
f 325 329 334 
f 331 325 334 
f 326 331 334 
f 333 326 334 
f 329 333 334 
f 327 322 335 
f 328 327 335 
f 331 328 335 
f 322 331 335 
f 332 323 336 
f 329 332 336 
f 333 329 336 
f 330 333 336 
f 323 324 337 
f 324 328 337 
f 328 330 337 
f 336 323 337 
o convex_22
v -0.015424 0.000212 0.022187
v -0.014462 -0.003641 0.013518
v -0.014702 -0.003400 0.013518
v -0.014702 -0.003641 0.025318
v -0.014221 0.001416 0.025318
v -0.016147 0.001416 0.013518
v -0.013980 -0.003400 0.013518
v -0.016147 -0.000992 0.014242
v -0.014221 -0.003641 0.025318
v -0.014221 0.001416 0.022187
v -0.015183 -0.001233 0.025076
v -0.015665 0.001416 0.014000
v -0.013980 -0.003641 0.019777
v -0.014702 0.001175 0.025318
v -0.016147 0.000693 0.015926
f 338 351 352 
f 340 339 341 
f 339 340 343 
f 339 343 344 
f 340 341 345 
f 343 340 345 
f 341 339 346 
f 342 341 346 
f 343 342 347 
f 342 344 347 
f 345 341 348 
f 344 343 349 
f 343 347 349 
f 347 344 349 
f 339 344 350 
f 344 342 350 
f 346 339 350 
f 342 346 350 
f 341 342 351 
f 342 343 351 
f 338 348 351 
f 348 341 351 
f 343 345 352 
f 348 338 352 
f 345 348 352 
f 351 343 352 
o convex_23
v -0.018795 0.002380 -0.008393
v -0.013739 0.001657 0.028690
v -0.013739 0.001416 0.028690
v -0.013739 0.004788 0.014962
v -0.017832 0.001416 -0.009360
v -0.018795 0.004788 -0.009116
v -0.016628 0.001416 0.010868
v -0.013980 0.004547 0.018573
v -0.018314 0.004788 -0.010079
v -0.013980 0.001657 0.022427
v -0.014221 0.001657 0.027480
v -0.018555 0.001416 -0.010805
v -0.019037 0.004306 -0.009839
v -0.013980 0.002620 0.026038
v -0.014943 0.004788 0.007740
v -0.013739 0.004547 0.014962
v -0.017832 0.001416 0.000514
v -0.018073 0.001898 -0.010805
f 361 367 370 
f 354 355 356 
f 357 355 359 
f 354 356 360 
f 356 358 360 
f 358 356 361 
f 355 357 362 
f 355 354 363 
f 359 355 363 
f 357 359 364 
f 361 364 365 
f 358 361 365 
f 359 363 365 
f 363 358 365 
f 364 353 365 
f 354 360 366 
f 360 358 366 
f 363 354 366 
f 358 363 366 
f 361 356 367 
f 356 355 368 
f 355 362 368 
f 362 357 368 
f 367 356 368 
f 357 367 368 
f 353 364 369 
f 364 359 369 
f 365 353 369 
f 359 365 369 
f 357 364 370 
f 364 361 370 
f 367 357 370 
o convex_24
v 0.015160 -0.001234 -0.001172
v 0.011548 -0.009662 -0.015863
v 0.011548 -0.009178 -0.015863
v 0.014437 -0.000510 -0.015621
v 0.013716 -0.009178 -0.001656
v 0.012994 -0.009420 -0.001172
v 0.013715 -0.000992 -0.014416
v 0.012271 -0.008937 -0.015863
v 0.015642 -0.001474 -0.001656
v 0.012271 -0.009420 -0.006953
v 0.015160 -0.000510 -0.002137
v 0.014679 -0.000752 -0.013454
v 0.013956 -0.000510 -0.015863
v 0.013475 -0.009662 -0.001172
v 0.015642 -0.000510 -0.001172
v 0.012030 -0.009662 -0.015863
f 375 384 386 
f 372 373 378 
f 373 372 380 
f 372 376 380 
f 377 373 380 
f 377 380 381 
f 376 371 381 
f 380 376 381 
f 378 374 382 
f 375 378 382 
f 379 375 382 
f 373 377 383 
f 378 373 383 
f 374 378 383 
f 377 381 383 
f 381 374 383 
f 376 372 384 
f 371 376 384 
f 375 379 384 
f 384 379 385 
f 381 371 385 
f 374 381 385 
f 379 382 385 
f 382 374 385 
f 371 384 385 
f 372 378 386 
f 378 375 386 
f 384 372 386 
o convex_25
v -0.018554 0.004788 -0.008395
v -0.013739 0.005029 0.016408
v -0.013739 0.004788 0.016408
v -0.013739 0.006233 0.005326
v -0.017832 0.006474 -0.009359
v -0.018314 0.004788 -0.010805
v -0.013980 0.006474 0.008456
v -0.017351 0.006474 -0.010563
v -0.014702 0.004788 0.007735
v -0.014221 0.005029 0.015201
v -0.018554 0.005751 -0.010563
f 396 391 397 
f 388 389 390 
f 389 387 392 
f 388 390 393 
f 391 393 394 
f 390 392 394 
f 393 390 394 
f 390 389 395 
f 389 392 395 
f 392 390 395 
f 387 389 396 
f 389 388 396 
f 388 393 396 
f 393 391 396 
f 392 387 397 
f 391 394 397 
f 394 392 397 
f 387 396 397 
o convex_26
v -0.017832 0.006474 -0.010805
v -0.013739 0.006715 0.006534
v -0.013980 0.006715 0.006534
v -0.013980 0.007918 -0.010805
v -0.016147 0.007918 -0.010564
v -0.013739 0.007437 -0.010805
v -0.013739 0.006474 0.002920
v -0.017351 0.007196 -0.010323
v -0.013739 0.007677 -0.005023
v -0.017110 0.006474 -0.010564
f 403 404 407 
f 401 398 402 
f 398 401 403 
f 400 398 404 
f 399 400 404 
f 403 399 404 
f 398 400 405 
f 402 398 405 
f 400 402 405 
f 400 399 406 
f 401 402 406 
f 402 400 406 
f 399 403 406 
f 403 401 406 
f 398 403 407 
f 404 398 407 
o convex_27
v -0.010367 0.005992 0.015684
v -0.010367 0.002861 0.006289
v -0.010126 0.002861 0.006289
v -0.010608 0.004306 -0.010805
v -0.011330 0.005992 0.018094
v -0.011330 0.004065 -0.010805
v -0.010126 0.005269 -0.005748
v -0.011330 0.006474 0.012552
v -0.010126 0.005028 0.018094
v -0.011330 0.004306 0.002685
v -0.010608 0.003584 -0.009841
v -0.010126 0.004065 -0.008395
v -0.011330 0.004547 -0.009600
v -0.010367 0.002861 0.007737
v -0.010126 0.005751 0.018094
f 416 414 422 
f 413 412 415 
f 408 414 415 
f 410 414 416 
f 412 413 417 
f 410 409 418 
f 409 413 418 
f 413 411 418 
f 411 414 419 
f 414 410 419 
f 410 418 419 
f 418 411 419 
f 411 413 420 
f 414 411 420 
f 413 415 420 
f 415 414 420 
f 409 410 421 
f 413 409 421 
f 410 416 421 
f 416 412 421 
f 412 417 421 
f 417 413 421 
f 414 408 422 
f 408 415 422 
f 415 412 422 
f 412 416 422 
o convex_28
v -0.013739 0.004306 0.018094
v -0.010126 0.003583 0.037841
v -0.010608 0.003583 0.037841
v -0.013739 0.001416 0.027968
v -0.011090 0.001416 0.036877
v -0.010126 0.004547 0.031576
v -0.012534 0.004788 0.025563
v -0.013739 0.001657 0.029891
v -0.013016 0.004547 0.018819
v -0.011572 0.001416 0.037841
v -0.010367 0.004788 0.033504
v -0.013739 0.004788 0.018819
v -0.013498 0.002862 0.027968
v -0.013498 0.003102 0.021708
f 431 427 436 
f 424 427 428 
f 423 426 430 
f 428 427 431 
f 424 425 432 
f 426 427 432 
f 427 424 432 
f 430 426 432 
f 425 430 432 
f 425 424 433 
f 424 428 433 
f 429 425 433 
f 428 431 433 
f 433 431 434 
f 423 430 434 
f 431 423 434 
f 429 433 434 
f 429 434 435 
f 425 429 435 
f 430 425 435 
f 434 430 435 
f 426 423 436 
f 427 426 436 
f 423 431 436 
o convex_29
v -0.013738 0.006714 0.005571
v -0.010126 0.005029 0.032302
v -0.010367 0.005029 0.032302
v -0.013738 0.004306 0.016888
v -0.011331 0.005510 0.005571
v -0.010367 0.006233 0.021224
v -0.010126 0.005029 0.018094
v -0.012293 0.005751 0.022427
v -0.011812 0.006714 0.005571
v -0.013498 0.005029 0.019057
v -0.010126 0.005991 0.018578
v -0.012053 0.006473 0.017131
v -0.010126 0.004788 0.032302
v -0.013738 0.006232 0.011832
v -0.011572 0.004788 0.028930
v -0.013738 0.006232 0.006296
v -0.011090 0.005991 0.024837
f 448 444 453 
f 440 441 443 
f 441 437 445 
f 442 438 447 
f 438 443 447 
f 443 441 447 
f 441 445 447 
f 445 442 447 
f 445 437 448 
f 442 445 448 
f 438 439 449 
f 443 438 449 
f 440 443 449 
f 437 440 450 
f 440 446 450 
f 446 444 450 
f 444 448 450 
f 448 437 450 
f 439 444 451 
f 446 440 451 
f 444 446 451 
f 449 439 451 
f 440 449 451 
f 440 437 452 
f 437 441 452 
f 441 440 452 
f 439 438 453 
f 438 442 453 
f 444 439 453 
f 442 448 453 
o convex_30
v -0.008200 -0.000270 -0.003335
v -0.005310 -0.002677 0.033266
v -0.006033 -0.002677 0.033266
v -0.005310 -0.002678 0.009666
v -0.005310 -0.000029 -0.005264
v -0.008200 -0.002919 0.023629
v -0.007718 -0.001474 0.026756
v -0.007236 -0.000511 -0.009118
v -0.005310 -0.000270 -0.012246
v -0.008200 -0.000029 -0.001174
v -0.005310 -0.002196 0.031818
v -0.006033 -0.002437 0.007019
v -0.008200 -0.001714 0.007736
v -0.005310 -0.002919 0.033266
v -0.008200 -0.001233 0.021945
v -0.007718 -0.002919 0.029648
v -0.006995 -0.001474 0.026756
v -0.007477 -0.000029 -0.009354
v -0.005310 -0.002919 0.016888
f 467 459 472 
f 455 457 458 
f 458 457 462 
f 454 459 463 
f 456 455 464 
f 455 458 464 
f 460 456 464 
f 457 459 465 
f 462 457 465 
f 461 462 465 
f 459 454 466 
f 454 461 466 
f 465 459 466 
f 461 465 466 
f 455 456 467 
f 457 455 467 
f 463 459 468 
f 460 463 468 
f 456 460 469 
f 467 456 469 
f 459 467 469 
f 468 459 469 
f 460 468 469 
f 458 463 470 
f 463 460 470 
f 464 458 470 
f 460 464 470 
f 461 454 471 
f 458 462 471 
f 462 461 471 
f 454 463 471 
f 463 458 471 
f 459 457 472 
f 457 467 472 
o convex_31
v 0.007454 0.010808 -0.039945
v 0.012752 0.009123 -0.018996
v 0.012752 0.008882 -0.018996
v 0.012752 0.010567 -0.039945
v 0.007454 0.008641 -0.021647
v 0.009140 0.011290 -0.039461
v 0.007936 0.009123 -0.019238
v 0.012752 0.010086 -0.039219
v 0.007454 0.009605 -0.031995
v 0.011548 0.011049 -0.039461
v 0.012752 0.008882 -0.021407
v 0.011307 0.009364 -0.019959
v 0.007454 0.011049 -0.039461
v 0.007454 0.008641 -0.018996
v 0.007454 0.010567 -0.039701
v 0.012752 0.009364 -0.020925
v 0.010103 0.011290 -0.039461
f 488 482 489 
f 474 475 476 
f 476 475 480 
f 480 477 481 
f 477 473 481 
f 475 477 483 
f 480 475 483 
f 477 480 483 
f 479 474 484 
f 478 479 484 
f 473 477 485 
f 478 473 485 
f 479 478 485 
f 479 485 486 
f 475 474 486 
f 477 475 486 
f 474 479 486 
f 485 477 486 
f 473 476 487 
f 476 480 487 
f 480 481 487 
f 481 473 487 
f 474 476 488 
f 476 482 488 
f 484 474 488 
f 484 488 489 
f 476 473 489 
f 473 478 489 
f 482 476 489 
f 478 484 489 
o convex_32
v -0.012535 0.007437 -0.027181
v -0.012535 0.004066 -0.011048
v -0.012294 0.004066 -0.011048
v -0.014943 0.008159 -0.011289
v -0.014943 0.008640 -0.028145
v -0.013498 0.007677 -0.010805
v -0.014701 0.009363 -0.024049
v -0.014943 0.006955 -0.014658
v -0.012535 0.006474 -0.027663
v -0.012294 0.006233 -0.012493
v -0.012294 0.007196 -0.028145
v -0.014943 0.009363 -0.028145
v -0.014943 0.007677 -0.010805
v -0.013257 0.007918 -0.018995
f 499 500 503 
f 491 492 495 
f 493 495 496 
f 493 494 497 
f 494 491 497 
f 492 491 498 
f 491 494 498 
f 495 492 499 
f 496 490 500 
f 492 498 500 
f 498 494 500 
f 499 492 500 
f 494 493 501 
f 493 496 501 
f 496 500 501 
f 500 494 501 
f 491 495 502 
f 495 493 502 
f 497 491 502 
f 493 497 502 
f 490 496 503 
f 496 495 503 
f 495 499 503 
f 500 490 503 
o convex_33
v -0.005310 -0.001955 0.019782
v -0.000975 -0.003882 0.030615
v -0.001216 -0.003641 0.029411
v -0.000975 -0.003400 0.009667
v -0.005310 -0.002919 0.013278
v -0.000975 -0.002678 0.010629
v -0.005069 -0.003160 0.030615
v -0.001457 -0.004364 0.017612
v -0.003383 -0.002437 0.028929
v -0.004106 -0.001955 0.010629
v -0.000975 -0.004364 0.030615
v -0.005310 -0.002678 0.009907
v -0.005310 -0.002437 0.030615
v -0.002661 -0.002196 0.014482
v -0.003142 -0.003882 0.024595
v -0.005310 -0.002196 0.009667
v -0.005069 -0.001955 0.022187
v -0.000975 -0.004364 0.017612
f 514 511 521 
f 506 505 509 
f 505 507 509 
f 505 506 512 
f 506 509 512 
f 507 505 514 
f 505 510 514 
f 508 504 515 
f 511 508 515 
f 507 511 515 
f 504 508 516 
f 510 505 516 
f 508 510 516 
f 505 512 516 
f 512 509 517 
f 509 513 517 
f 510 508 518 
f 508 511 518 
f 514 510 518 
f 511 514 518 
f 509 507 519 
f 504 513 519 
f 513 509 519 
f 515 504 519 
f 507 515 519 
f 513 504 520 
f 504 516 520 
f 516 512 520 
f 512 517 520 
f 517 513 520 
f 511 507 521 
f 507 514 521 
o convex_34
v 0.004323 0.007917 -0.020679
v 0.001433 0.003343 -0.011289
v 0.001674 0.003343 -0.011289
v 0.001433 0.007194 -0.039945
v 0.004564 0.009363 -0.039704
v 0.001674 0.007918 -0.038257
v 0.004564 0.006233 -0.012011
v 0.001433 0.004066 -0.010565
v 0.004082 0.009845 -0.039459
v 0.003601 0.006233 -0.010806
v 0.001674 0.005270 -0.026457
v 0.003119 0.006955 -0.019236
v 0.004564 0.006715 -0.010806
v 0.004564 0.008881 -0.036327
v 0.004564 0.009845 -0.038740
v 0.001674 0.006955 -0.038496
v 0.002637 0.008882 -0.039459
v 0.001433 0.006232 -0.026696
f 529 533 539 
f 523 524 529 
f 525 523 529 
f 526 525 530 
f 524 523 532 
f 523 525 532 
f 522 530 533 
f 531 522 533 
f 529 531 533 
f 524 528 534 
f 528 526 534 
f 529 524 534 
f 522 531 534 
f 531 529 534 
f 528 524 535 
f 526 528 535 
f 524 532 535 
f 530 522 536 
f 526 530 536 
f 522 534 536 
f 534 526 536 
f 525 526 537 
f 532 525 537 
f 526 535 537 
f 535 532 537 
f 525 527 538 
f 530 525 538 
f 527 533 538 
f 533 530 538 
f 527 525 539 
f 525 529 539 
f 533 527 539 
o convex_35
v -0.009885 0.001898 -0.019954
v -0.002661 0.000212 -0.017305
v -0.006034 0.000694 -0.004544
v -0.010126 -0.000029 -0.003826
v -0.009644 0.003102 -0.022843
v -0.003625 -0.000029 -0.022603
v -0.005551 0.002138 -0.023086
v -0.008198 0.001898 -0.025735
v -0.005552 -0.000029 -0.004787
v -0.010126 0.000694 -0.003826
v -0.010126 0.003102 -0.025011
v -0.005793 0.001898 -0.025735
v -0.009403 -0.000029 -0.001175
v -0.010126 0.002620 -0.018031
v -0.007715 0.000212 -0.013695
v -0.008921 0.003102 -0.025977
v -0.003143 0.000212 -0.022603
v -0.002661 -0.000029 -0.017305
v -0.008198 0.001657 -0.024290
v -0.008921 0.000934 -0.005028
v -0.006754 0.002620 -0.025011
f 551 555 560 
f 542 541 546 
f 541 542 548 
f 543 545 548 
f 540 543 550 
f 547 540 550 
f 545 547 551 
f 548 542 552 
f 543 548 552 
f 542 549 552 
f 549 543 552 
f 542 544 553 
f 543 549 553 
f 544 550 553 
f 550 543 553 
f 545 543 554 
f 550 544 555 
f 547 550 555 
f 551 547 555 
f 546 541 556 
f 545 551 556 
f 551 546 556 
f 541 548 557 
f 548 545 557 
f 556 541 557 
f 545 556 557 
f 543 540 558 
f 540 547 558 
f 547 545 558 
f 554 543 558 
f 545 554 558 
f 549 542 559 
f 542 553 559 
f 553 549 559 
f 544 542 560 
f 542 546 560 
f 546 551 560 
f 555 544 560 
o convex_36
v -0.008441 0.002621 0.015925
v -0.009404 0.001416 0.013999
v -0.009644 0.001657 0.013757
v -0.008441 0.003824 0.003165
v -0.010126 0.005269 0.018333
v -0.010126 0.003583 0.003165
v -0.008682 0.001657 0.017610
v -0.008441 0.003103 0.003647
v -0.010126 0.002621 0.007498
v -0.010126 0.004065 0.003165
v -0.009885 0.005269 0.018333
v -0.009404 0.002139 0.018333
v -0.008441 0.003824 0.007740
v -0.010126 0.003103 0.013516
f 572 565 574 
f 564 561 568 
f 566 564 568 
f 567 562 568 
f 561 567 568 
f 562 563 569 
f 565 566 569 
f 568 562 569 
f 566 568 569 
f 566 565 570 
f 564 566 570 
f 567 561 571 
f 564 570 571 
f 570 565 571 
f 563 562 572 
f 562 567 572 
f 567 571 572 
f 571 565 572 
f 561 564 573 
f 571 561 573 
f 564 571 573 
f 569 563 574 
f 565 569 574 
f 563 572 574 
o convex_37
v -0.009885 0.005510 0.029171
v -0.008682 0.001416 0.020985
v -0.008441 0.001416 0.020985
v -0.010126 0.003343 0.037841
v -0.008441 0.004065 0.037841
v -0.010126 0.005510 0.018335
v -0.008441 0.002862 0.019539
v -0.009404 0.002380 0.018335
v -0.009404 0.005510 0.025081
v -0.010126 0.004546 0.018335
v -0.008441 0.003584 0.037599
v -0.010126 0.004787 0.033986
v -0.008441 0.004065 0.028208
v -0.009885 0.005751 0.019780
f 587 581 588 
f 576 577 578 
f 579 577 581 
f 580 581 582 
f 577 576 582 
f 576 578 582 
f 581 577 582 
f 575 579 583 
f 578 580 584 
f 580 582 584 
f 582 578 584 
f 578 577 585 
f 579 578 585 
f 577 579 585 
f 579 575 586 
f 578 579 586 
f 580 578 586 
f 575 580 586 
f 579 581 587 
f 583 579 587 
f 583 587 588 
f 580 575 588 
f 581 580 588 
f 575 583 588 
o convex_38
v -0.006032 0.001898 0.037841
v -0.008199 0.000694 0.025560
v -0.007718 0.000694 0.025560
v -0.006273 0.003583 0.003162
v -0.008440 0.004065 0.037841
v -0.008440 0.003583 0.003162
v -0.006032 0.002861 0.003644
v -0.006273 0.000935 0.035190
v -0.006032 0.003101 0.024837
v -0.007236 0.001416 0.037597
v -0.008440 0.002861 0.005091
v -0.008440 0.001416 0.025560
v -0.006755 0.003824 0.019300
v -0.006032 0.002139 0.012073
v -0.007477 0.002379 0.007019
v -0.008199 0.004065 0.037841
v -0.008440 0.003583 0.037841
v -0.006032 0.002861 0.030377
v -0.006032 0.001176 0.037115
v -0.007718 0.002861 0.003162
f 603 599 608 
f 590 591 596 
f 595 592 597 
f 589 595 597 
f 590 596 598 
f 593 594 599 
f 599 590 600 
f 593 599 600 
f 594 593 601 
f 592 594 601 
f 597 592 601 
f 595 589 602 
f 591 595 602 
f 596 591 602 
f 591 590 603 
f 595 591 603 
f 590 599 603 
f 593 589 604 
f 601 593 604 
f 597 601 604 
f 589 593 605 
f 598 589 605 
f 590 598 605 
f 600 590 605 
f 593 600 605 
f 589 597 606 
f 604 589 606 
f 597 604 606 
f 589 598 607 
f 598 596 607 
f 602 589 607 
f 596 602 607 
f 594 592 608 
f 592 595 608 
f 599 594 608 
f 595 603 608 
o convex_39
v -0.006032 0.003342 0.003162
v -0.000975 0.001175 0.014239
v -0.001457 0.001898 0.014481
v -0.006032 0.002139 0.014963
v -0.001216 0.000935 0.006534
v -0.000975 0.002139 0.003162
v -0.004827 0.003584 0.003404
v -0.006032 0.002861 0.003404
v -0.005309 0.002620 0.014963
v -0.005309 0.001657 0.014000
v -0.000975 0.000694 0.014239
v -0.003143 0.001175 0.007979
v -0.001698 0.001657 0.003404
v -0.001938 0.002620 0.005331
v -0.002902 0.002379 0.014481
v -0.006032 0.002620 0.014720
f 617 615 624 
f 611 610 614 
f 614 609 615 
f 612 609 616 
f 612 611 617 
f 612 616 618 
f 610 611 619 
f 611 612 619 
f 614 610 619 
f 613 614 619 
f 612 618 619 
f 619 618 620 
f 618 616 620 
f 613 619 620 
f 620 616 621 
f 614 613 621 
f 609 614 621 
f 616 609 621 
f 613 620 621 
f 611 614 622 
f 614 615 622 
f 622 615 623 
f 617 611 623 
f 615 617 623 
f 611 622 623 
f 609 612 624 
f 615 609 624 
f 612 617 624 
o convex_40
v -0.005551 0.002138 0.026524
v -0.000975 0.001416 0.037840
v -0.001216 0.001657 0.037840
v -0.006032 0.001176 0.037840
v -0.000975 0.000213 0.027487
v -0.005551 0.002861 0.026524
v -0.005308 0.002861 0.034469
v -0.002661 0.002138 0.026765
v -0.000975 0.000694 0.037118
v -0.004587 0.002379 0.037840
v -0.000975 0.000694 0.026524
v -0.003624 0.002620 0.034710
v -0.002661 0.000694 0.027005
v -0.006032 0.002138 0.027005
v -0.006032 0.002861 0.031098
v -0.000975 0.001416 0.031098
v -0.006032 0.001176 0.036155
f 638 637 641 
f 626 627 628 
f 626 628 633 
f 628 629 633 
f 629 626 633 
f 628 627 634 
f 631 628 634 
f 626 629 635 
f 625 630 635 
f 630 632 635 
f 630 631 636 
f 632 630 636 
f 627 632 636 
f 634 627 636 
f 631 634 636 
f 625 635 637 
f 635 629 637 
f 630 625 638 
f 625 637 638 
f 628 631 639 
f 631 630 639 
f 630 638 639 
f 638 628 639 
f 627 626 640 
f 632 627 640 
f 626 635 640 
f 635 632 640 
f 629 628 641 
f 637 629 641 
f 628 638 641 
o convex_41
v -0.015184 -0.000029 -0.033681
v -0.015425 -0.002437 -0.023811
v -0.015184 -0.002437 -0.023811
v -0.016869 -0.000511 -0.022847
v -0.017110 -0.000029 -0.038500
v -0.017110 -0.001233 -0.026219
v -0.015184 0.000212 -0.031997
v -0.017110 0.000212 -0.036813
v -0.015184 -0.001955 -0.023329
v -0.016147 -0.002196 -0.022847
v -0.017110 -0.000751 -0.034164
v -0.017110 -0.000511 -0.022847
f 651 645 653 
f 642 644 646 
f 644 642 648 
f 642 646 648 
f 648 646 649 
f 646 647 649 
f 644 648 650 
f 648 645 650 
f 643 644 651 
f 644 650 651 
f 650 645 651 
f 644 643 652 
f 646 644 652 
f 647 646 652 
f 643 651 652 
f 651 647 652 
f 645 648 653 
f 648 649 653 
f 649 647 653 
f 647 651 653 
o convex_42
v 0.001915 -0.003882 -0.028625
v 0.002156 -0.007013 0.005561
v 0.000711 -0.004123 0.005326
v 0.001433 -0.004364 -0.039690
v 0.000470 -0.001474 -0.015862
v 0.001433 -0.004123 0.012314
v 0.000230 -0.001715 -0.039219
v 0.002396 -0.004846 -0.039690
v 0.002396 -0.006290 0.012314
v 0.000711 -0.001474 -0.039945
v -0.000011 -0.001474 -0.011048
v 0.002396 -0.005567 -0.039219
v 0.000230 -0.002678 -0.014660
v 0.000952 -0.004364 0.012314
v 0.001193 -0.005086 -0.001416
v 0.002396 -0.007013 0.012314
v 0.002156 -0.005567 -0.039219
v 0.000711 -0.001474 -0.028379
v 0.002396 -0.004846 -0.029106
v 0.002156 -0.007013 0.012314
v -0.000011 -0.001956 -0.011048
v 0.000952 -0.003882 0.012314
f 664 667 675 
f 657 660 663 
f 661 657 663 
f 659 658 664 
f 658 663 664 
f 663 660 664 
f 661 662 665 
f 660 657 666 
f 662 659 667 
f 655 656 668 
f 657 655 668 
f 656 666 668 
f 666 657 668 
f 655 665 669 
f 665 662 669 
f 662 667 669 
f 655 657 670 
f 657 661 670 
f 665 655 670 
f 661 665 670 
f 658 659 671 
f 659 654 671 
f 663 658 671 
f 661 663 671 
f 654 659 672 
f 659 662 672 
f 662 661 672 
f 671 654 672 
f 661 671 672 
f 656 655 673 
f 667 656 673 
f 655 669 673 
f 669 667 673 
f 664 660 674 
f 666 656 674 
f 660 666 674 
f 656 667 674 
f 667 664 674 
f 659 664 675 
f 667 659 675 
o convex_43
v 0.004323 -0.008217 -0.007433
v 0.006249 -0.010866 0.010383
v 0.006491 -0.010866 0.010383
v 0.006491 -0.009902 -0.039700
v 0.004323 -0.009661 0.009903
v 0.004323 -0.008458 -0.038012
v 0.006491 -0.009421 -0.027659
v 0.004565 -0.007735 -0.039945
v 0.006491 -0.010143 0.007974
v 0.006249 -0.010143 -0.034400
v 0.004565 -0.008458 0.001237
v 0.004565 -0.009181 0.012312
v 0.004806 -0.010143 0.011586
v 0.006491 -0.009661 -0.009602
v 0.006491 -0.009421 -0.039945
v 0.005287 -0.009421 -0.035127
v 0.006008 -0.010866 0.012312
v 0.004565 -0.008217 -0.007433
v 0.006491 -0.010384 0.012066
v 0.004323 -0.007735 -0.039945
v 0.005527 -0.009421 -0.039945
f 681 695 696 
f 680 676 681 
f 678 679 682 
f 678 682 684 
f 678 677 685 
f 679 678 685 
f 676 680 687 
f 686 676 687 
f 687 680 688 
f 682 683 689 
f 684 682 689 
f 682 679 690 
f 683 682 690 
f 680 681 691 
f 688 680 691 
f 685 688 691 
f 677 678 692 
f 685 677 692 
f 687 688 692 
f 688 685 692 
f 683 676 693 
f 676 686 693 
f 686 684 693 
f 689 683 693 
f 684 689 693 
f 678 684 694 
f 684 686 694 
f 686 687 694 
f 692 678 694 
f 687 692 694 
f 681 676 695 
f 676 683 695 
f 683 690 695 
f 695 690 696 
f 679 685 696 
f 690 679 696 
f 691 681 696 
f 685 691 696 
o convex_44
v 0.007454 0.010808 -0.037535
v 0.004564 0.006715 -0.014418
v 0.004805 0.006715 -0.014418
v 0.007213 0.008400 -0.013214
v 0.004564 0.010086 -0.039221
v 0.007454 0.009604 -0.032236
v 0.004805 0.009363 -0.038981
v 0.004564 0.007196 -0.012974
v 0.007454 0.007919 -0.014418
v 0.007454 0.010567 -0.039943
v 0.005528 0.010567 -0.039463
v 0.005769 0.008160 -0.015622
v 0.007454 0.007919 -0.012732
v 0.004564 0.009604 -0.039943
v 0.004805 0.008641 -0.032961
f 710 703 711 
f 698 699 704 
f 701 698 704 
f 699 702 705 
f 702 697 705 
f 697 702 706 
f 702 703 706 
f 700 697 707 
f 697 706 707 
f 704 700 708 
f 701 704 708 
f 700 707 708 
f 707 701 708 
f 697 700 709 
f 704 699 709 
f 700 704 709 
f 705 697 709 
f 699 705 709 
f 698 701 710 
f 706 703 710 
f 701 707 710 
f 707 706 710 
f 699 698 711 
f 702 699 711 
f 703 702 711 
f 698 710 711 
o convex_45
v 0.006972 -0.010384 -0.039945
v 0.009621 -0.010866 -0.000209
v 0.006972 -0.010144 -0.000209
v 0.006972 -0.009662 -0.039945
v 0.009621 -0.010625 -0.039945
v 0.008417 -0.011107 -0.003581
v 0.009621 -0.011107 -0.037055
v 0.006491 -0.010384 -0.000209
v 0.007936 -0.010866 -0.037293
v 0.006732 -0.009903 -0.002380
v 0.006491 -0.009662 -0.039945
v 0.006732 -0.010625 -0.000209
v 0.009380 -0.010625 -0.012255
v 0.009621 -0.011107 -0.000209
v 0.006491 -0.010144 -0.039459
v 0.007213 -0.010625 -0.036810
v 0.006732 -0.009662 -0.026693
v 0.006491 -0.009903 -0.002380
f 728 722 729 
f 712 715 716 
f 712 716 718 
f 716 713 718 
f 713 714 719 
f 712 718 720 
f 718 717 720 
f 714 713 721 
f 715 712 722 
f 713 719 723 
f 720 717 723 
f 716 715 724 
f 713 716 724 
f 721 713 724 
f 718 713 725 
f 717 718 725 
f 713 723 725 
f 723 717 725 
f 719 722 726 
f 722 712 726 
f 723 719 726 
f 723 726 727 
f 712 720 727 
f 720 723 727 
f 726 712 727 
f 715 722 728 
f 724 715 728 
f 721 724 728 
f 719 714 729 
f 714 721 729 
f 722 719 729 
f 721 728 729 
o convex_46
v 0.007454 -0.010866 -0.000209
v 0.009621 -0.011347 0.012314
v 0.006972 -0.010625 0.012314
v 0.007213 -0.011347 0.012314
v 0.006972 -0.010143 -0.000209
v 0.009621 -0.011347 0.001718
v 0.009621 -0.010866 0.002922
v 0.006491 -0.010625 0.001478
v 0.006732 -0.010385 0.010627
v 0.008417 -0.011588 0.011591
v 0.009621 -0.010866 -0.000209
v 0.006491 -0.010866 0.012314
f 732 738 741 
f 731 732 733 
f 731 735 736 
f 730 733 737 
f 734 730 737 
f 734 737 738 
f 732 731 738 
f 736 734 738 
f 731 736 738 
f 731 733 739 
f 733 730 739 
f 735 731 739 
f 730 735 739 
f 730 734 740 
f 735 730 740 
f 734 736 740 
f 736 735 740 
f 733 732 741 
f 737 733 741 
f 738 737 741 
o convex_47
v 0.013956 -0.000510 -0.015863
v 0.010344 -0.009662 -0.039942
v 0.010826 -0.009662 -0.039942
v 0.012992 -0.000510 -0.039942
v 0.012271 -0.008696 -0.016346
v 0.013474 -0.000752 -0.038735
v 0.011067 -0.009178 -0.021642
v 0.012271 -0.003400 -0.029350
v 0.014197 -0.001474 -0.016586
v 0.011549 -0.009662 -0.015863
v 0.012752 -0.002919 -0.020438
v 0.011308 -0.008456 -0.039699
v 0.012992 -0.000510 -0.034163
v 0.010344 -0.009420 -0.038255
v 0.012030 -0.006529 -0.017070
v 0.012271 -0.002439 -0.038735
v 0.010586 -0.009178 -0.031994
v 0.012030 -0.009420 -0.015863
v 0.014197 -0.000510 -0.019957
v 0.013474 -0.001474 -0.016586
f 752 756 761 
f 744 743 745 
f 746 747 750 
f 743 744 751 
f 748 743 751 
f 744 745 753 
f 747 746 753 
f 745 747 753 
f 742 745 754 
f 749 752 754 
f 743 748 755 
f 748 751 756 
f 752 748 756 
f 745 743 757 
f 754 745 757 
f 749 754 757 
f 743 755 757 
f 757 755 758 
f 748 752 758 
f 752 749 758 
f 755 748 758 
f 749 757 758 
f 750 742 759 
f 746 750 759 
f 751 744 759 
f 742 751 759 
f 744 753 759 
f 753 746 759 
f 745 742 760 
f 747 745 760 
f 742 750 760 
f 750 747 760 
f 751 742 761 
f 742 754 761 
f 754 752 761 
f 756 751 761 
o convex_48
v -0.000975 -0.000510 -0.014183
v 0.000229 -0.001474 -0.039945
v -0.000012 -0.000992 -0.039945
v -0.000252 0.002379 -0.026704
v 0.000229 -0.001474 -0.011046
v -0.000975 0.002379 -0.039945
v 0.000711 -0.001233 -0.039945
v -0.000975 -0.001233 -0.020446
v -0.000975 0.002379 -0.026458
v 0.000229 -0.000751 -0.011290
v -0.000493 0.002379 -0.039945
v -0.000734 -0.000510 -0.011530
v -0.000734 0.001175 -0.039945
v -0.000975 -0.000992 -0.012492
v -0.000012 -0.000510 -0.011046
f 770 773 776 
f 763 764 767 
f 766 763 768 
f 763 767 768 
f 764 763 769 
f 763 766 769 
f 762 767 769 
f 767 762 770 
f 765 767 770 
f 768 765 771 
f 766 768 771 
f 767 765 772 
f 765 768 772 
f 768 767 772 
f 770 762 773 
f 767 764 774 
f 764 769 774 
f 769 767 774 
f 762 769 775 
f 769 766 775 
f 773 762 775 
f 766 773 775 
f 765 770 776 
f 766 771 776 
f 771 765 776 
f 773 766 776 
o convex_49
v -0.000975 0.000694 0.007739
v 0.002156 0.000212 0.019539
v 0.001915 0.000694 0.014962
v -0.000975 0.000934 0.018573
v 0.000470 -0.000270 0.008943
v 0.000470 0.001657 0.006775
v -0.000975 -0.000029 0.017852
v 0.002156 -0.000270 0.014962
v -0.000975 0.001657 0.010147
v 0.001433 -0.000270 0.019539
v 0.001192 0.001175 0.012797
v 0.000711 0.000694 0.007017
v 0.002156 0.000453 0.014240
f 788 782 789 
f 780 777 783 
f 777 781 783 
f 777 780 785 
f 782 777 785 
f 778 780 786 
f 780 783 786 
f 783 781 786 
f 781 784 786 
f 784 778 786 
f 778 779 787 
f 780 778 787 
f 779 782 787 
f 785 780 787 
f 782 785 787 
f 781 777 788 
f 777 782 788 
f 784 781 788 
f 784 788 789 
f 779 778 789 
f 782 779 789 
f 778 784 789 
o convex_50
v 0.015642 0.005751 -0.015626
v 0.013234 -0.000510 -0.039942
v 0.013475 -0.000510 -0.039942
v 0.015160 -0.000510 -0.006716
v 0.014919 0.004547 -0.039942
v 0.015401 0.005751 -0.006716
v 0.013957 -0.000270 -0.015385
v 0.014679 0.005751 -0.033681
v 0.012993 -0.000270 -0.037292
v 0.015642 0.002139 -0.006957
v 0.014679 0.005751 -0.039942
v 0.014679 -0.000510 -0.007198
v 0.013957 0.000694 -0.039461
v 0.015160 -0.000510 -0.008161
v 0.015160 0.005510 -0.035847
v 0.014679 0.003342 -0.039942
v 0.015642 0.005751 -0.006716
v 0.013716 -0.000270 -0.019714
v 0.012993 -0.000510 -0.039702
f 807 798 808 
f 791 792 793 
f 792 791 794 
f 795 790 797 
f 795 797 798 
f 794 791 800 
f 797 790 800 
f 798 797 800 
f 791 793 801 
f 793 795 801 
f 795 796 801 
f 793 792 803 
f 794 799 803 
f 799 793 803 
f 792 802 803 
f 790 799 804 
f 799 794 804 
f 800 790 804 
f 794 800 804 
f 792 794 805 
f 802 792 805 
f 794 803 805 
f 803 802 805 
f 795 793 806 
f 790 795 806 
f 799 790 806 
f 793 799 806 
f 796 795 807 
f 795 798 807 
f 801 796 807 
f 801 807 808 
f 800 791 808 
f 798 800 808 
f 791 801 808 
o convex_51
v 0.016605 -0.000510 0.006772
v 0.013234 -0.009662 -0.001172
v 0.013234 -0.008937 -0.001172
v 0.015160 -0.009420 0.012314
v 0.016124 -0.008698 0.011831
v 0.016605 -0.000510 0.012314
v 0.015883 -0.000993 -0.000691
v 0.015401 -0.000510 -0.000449
v 0.013716 -0.009420 -0.001172
v 0.013234 -0.009420 0.000755
v 0.017087 -0.001475 0.012314
v 0.016605 -0.006289 0.012071
v 0.015641 -0.009662 0.012314
v 0.016364 -0.000510 0.010867
v 0.015160 -0.003882 -0.001172
v 0.014920 -0.009420 0.011350
v 0.015401 -0.000510 -0.001172
f 823 811 825 
f 814 809 816 
f 810 811 817 
f 811 810 818 
f 816 811 818 
f 809 814 819 
f 814 812 819 
f 815 809 819 
f 815 819 820 
f 813 815 820 
f 813 820 821 
f 810 817 821 
f 817 813 821 
f 819 812 821 
f 820 819 821 
f 814 816 822 
f 816 818 822 
f 815 813 823 
f 817 811 823 
f 813 817 823 
f 812 814 824 
f 818 810 824 
f 810 821 824 
f 821 812 824 
f 814 822 824 
f 822 818 824 
f 809 815 825 
f 816 809 825 
f 811 816 825 
f 815 823 825 
o convex_52
v 0.016846 0.000453 0.009904
v 0.014920 -0.000510 -0.006711
v 0.014920 0.000935 -0.006711
v 0.015883 0.005510 0.012314
v 0.015883 0.005751 -0.005747
v 0.016365 -0.000510 0.010867
v 0.016846 0.004064 0.012314
v 0.015401 -0.000029 -0.006711
v 0.015401 0.005751 -0.006711
v 0.016846 -0.000510 0.012314
v 0.014920 -0.000510 -0.004784
v 0.016365 0.005751 0.012314
v 0.016605 -0.000510 0.007016
v 0.015883 0.004064 -0.005747
v 0.015401 0.005751 -0.004784
f 837 834 840 
f 826 830 832 
f 827 828 833 
f 833 828 834 
f 830 833 834 
f 831 827 835 
f 829 831 835 
f 832 829 835 
f 826 832 835 
f 828 827 836 
f 829 828 836 
f 827 831 836 
f 831 829 836 
f 829 832 837 
f 832 830 837 
f 830 834 837 
f 827 833 838 
f 835 827 838 
f 826 835 838 
f 830 826 839 
f 833 830 839 
f 826 838 839 
f 838 833 839 
f 828 829 840 
f 834 828 840 
f 829 837 840 
o convex_53
v 0.003360 0.001898 0.013038
v 0.010344 0.004066 0.037840
v 0.010103 0.004066 0.037840
v 0.009861 0.006474 0.012314
v 0.010344 0.004066 0.029892
v 0.006009 0.004546 0.012556
v 0.006733 0.002140 0.037840
v 0.004083 0.001898 0.012799
v 0.007454 0.001898 0.036873
v 0.010344 0.005990 0.013038
v 0.004083 0.002862 0.013281
v 0.009862 0.004066 0.037598
v 0.009139 0.006232 0.012799
v 0.008897 0.002621 0.037358
v 0.010344 0.006474 0.014000
v 0.003360 0.002139 0.012314
v 0.010344 0.003583 0.037840
v 0.006733 0.001898 0.037840
v 0.005528 0.001898 0.022189
v 0.006491 0.004546 0.015447
f 852 853 860 
f 842 843 847 
f 841 848 849 
f 842 845 850 
f 848 844 850 
f 845 848 850 
f 847 846 851 
f 847 843 852 
f 844 846 853 
f 843 842 855 
f 842 850 855 
f 850 844 855 
f 852 843 855 
f 844 853 855 
f 853 852 855 
f 846 844 856 
f 841 847 856 
f 844 848 856 
f 848 841 856 
f 851 846 856 
f 847 851 856 
f 845 842 857 
f 842 847 857 
f 854 845 857 
f 854 857 858 
f 847 841 858 
f 841 849 858 
f 849 854 858 
f 857 847 858 
f 848 845 859 
f 849 848 859 
f 845 854 859 
f 854 849 859 
f 846 847 860 
f 847 852 860 
f 853 846 860 
o convex_54
v 0.013715 0.008641 -0.005988
v 0.014197 0.006955 0.010145
v 0.014438 0.006955 0.010145
v 0.014197 0.009122 -0.039943
v 0.012752 0.006955 0.010385
v 0.012752 0.010568 -0.039943
v 0.014438 0.009604 -0.033917
v 0.012752 0.009604 -0.034403
v 0.012752 0.007437 0.011107
v 0.014438 0.007437 0.011828
v 0.014438 0.008641 -0.007917
v 0.014438 0.009122 -0.039943
v 0.012993 0.010568 -0.038976
v 0.012993 0.008159 0.001715
v 0.013475 0.009364 -0.038495
v 0.013956 0.010085 -0.039457
f 873 871 876 
f 863 862 864 
f 862 863 865 
f 864 862 865 
f 865 866 868 
f 866 865 869 
f 865 863 870 
f 863 867 870 
f 869 865 870 
f 861 870 871 
f 870 867 871 
f 863 864 872 
f 864 866 872 
f 867 863 872 
f 861 871 873 
f 866 869 874 
f 870 861 874 
f 869 870 874 
f 861 873 874 
f 873 866 874 
f 864 865 875 
f 866 864 875 
f 865 868 875 
f 868 866 875 
f 871 867 876 
f 872 866 876 
f 867 872 876 
f 866 873 876 
o convex_55
v 0.016365 -0.009181 0.018097
v 0.020459 -0.009181 0.034229
v 0.020459 -0.009903 0.034229
v 0.015401 -0.013033 0.034229
v 0.015643 -0.009903 0.012556
v 0.017569 -0.012792 0.033987
v 0.019735 -0.009181 0.033262
v 0.015401 -0.009181 0.012314
v 0.019495 -0.011107 0.033504
v 0.015401 -0.013274 0.032783
v 0.015883 -0.009181 0.012314
v 0.015401 -0.012551 0.032298
v 0.018532 -0.012070 0.033504
v 0.016365 -0.013274 0.033987
v 0.018773 -0.009181 0.029411
f 888 883 891 
f 879 878 880 
f 879 880 882 
f 878 877 883 
f 880 878 883 
f 877 878 884 
f 881 879 885 
f 880 884 886 
f 884 881 886 
f 878 879 887 
f 879 881 887 
f 884 878 887 
f 881 884 887 
f 880 883 888 
f 877 884 888 
f 884 880 888 
f 879 882 889 
f 882 881 889 
f 885 879 889 
f 881 885 889 
f 881 882 890 
f 882 880 890 
f 886 881 890 
f 880 886 890 
f 883 877 891 
f 877 888 891 
o convex_56
v 0.015401 0.007677 -0.009360
v 0.014679 0.005751 -0.039945
v 0.014438 0.008640 -0.039945
v 0.014438 0.008159 -0.009360
v 0.015642 0.005751 -0.015863
v 0.014920 0.008881 -0.039945
v 0.015401 0.005751 -0.009360
v 0.015160 0.006233 -0.039703
v 0.014679 0.009363 -0.031512
v 0.015642 0.006956 -0.012974
v 0.014438 0.008640 -0.010085
v 0.015160 0.007437 -0.039945
v 0.014920 0.005751 -0.024533
v 0.014438 0.009363 -0.039945
v 0.015160 0.008400 -0.014660
v 0.015401 0.007918 -0.020680
f 906 892 907 
f 894 893 895 
f 893 894 897 
f 892 895 898 
f 893 896 898 
f 896 893 899 
f 892 898 901 
f 898 896 901 
f 894 895 902 
f 895 892 902 
f 893 897 903 
f 899 893 903 
f 896 899 903 
f 901 896 903 
f 895 893 904 
f 893 898 904 
f 898 895 904 
f 897 894 905 
f 900 897 905 
f 894 902 905 
f 902 900 905 
f 897 900 906 
f 902 892 906 
f 900 902 906 
f 892 901 907 
f 903 897 907 
f 901 903 907 
f 897 906 907 
o convex_57
v 0.014679 0.006955 0.019539
v 0.015883 0.005510 0.012313
v 0.015401 0.005751 -0.009360
v 0.015161 0.008159 -0.009360
v 0.016124 0.006233 0.024351
v 0.014438 0.005751 0.028690
v 0.014438 0.008159 -0.009360
v 0.016124 0.005992 0.003404
v 0.016124 0.005510 0.028690
v 0.014438 0.008400 -0.005263
v 0.015642 0.006955 -0.009360
v 0.014438 0.006233 0.027480
v 0.015883 0.005751 -0.005021
v 0.014438 0.007918 -0.008634
v 0.015883 0.006233 0.026761
v 0.014679 0.008400 -0.005263
f 908 922 923 
f 910 909 913 
f 911 910 914 
f 911 912 915 
f 915 912 916 
f 913 909 916 
f 911 914 917 
f 914 913 917 
f 910 911 918 
f 911 915 918 
f 913 916 919 
f 908 917 919 
f 917 913 919 
f 909 910 920 
f 915 916 920 
f 916 909 920 
f 910 918 920 
f 918 915 920 
f 910 913 921 
f 914 910 921 
f 913 914 921 
f 916 912 922 
f 908 919 922 
f 919 916 922 
f 912 911 923 
f 917 908 923 
f 911 917 923 
f 922 912 923 
o convex_58
v 0.002397 -0.006291 0.012315
v 0.004082 -0.010625 0.026521
v 0.003841 -0.010143 0.022909
v 0.004323 -0.008939 0.012315
v 0.002397 -0.006291 0.028929
v 0.001915 -0.006532 0.012315
v 0.002397 -0.007977 0.028929
v 0.004323 -0.010143 0.028929
v 0.003841 -0.009420 0.012558
v 0.001915 -0.006050 0.028929
v 0.002638 -0.007977 0.012315
v 0.003119 -0.009420 0.028929
v 0.002397 -0.006050 0.018095
v 0.004323 -0.009661 0.012798
v 0.001915 -0.006050 0.012315
f 933 936 938 
f 924 927 929 
f 927 928 931 
f 928 930 931 
f 925 926 932 
f 930 928 933 
f 929 930 933 
f 929 927 934 
f 932 926 934 
f 927 932 934 
f 926 925 935 
f 930 929 935 
f 925 931 935 
f 931 930 935 
f 934 926 935 
f 929 934 935 
f 927 924 936 
f 928 927 936 
f 933 928 936 
f 931 925 937 
f 927 931 937 
f 925 932 937 
f 932 927 937 
f 924 929 938 
f 929 933 938 
f 936 924 938 
o convex_59
v 0.002156 -0.006050 0.028931
v 0.004082 -0.011829 0.035915
v 0.004082 -0.011106 0.031099
v 0.002397 -0.006050 0.037358
v 0.001915 -0.008218 0.037118
v 0.004323 -0.010143 0.030136
v 0.004323 -0.011588 0.037841
v 0.003360 -0.009902 0.028931
v 0.002879 -0.010624 0.037841
v 0.002156 -0.007495 0.029172
v 0.001915 -0.006050 0.037841
v 0.001915 -0.006532 0.028931
v 0.004323 -0.010624 0.028931
v 0.002397 -0.006050 0.032063
f 942 944 952 
f 944 942 945 
f 941 940 946 
f 940 945 947 
f 946 940 947 
f 946 947 948 
f 947 943 948 
f 942 939 949 
f 945 942 949 
f 943 947 949 
f 947 945 949 
f 939 946 950 
f 946 948 950 
f 948 943 950 
f 949 939 950 
f 943 949 950 
f 940 941 951 
f 939 944 951 
f 944 945 951 
f 945 940 951 
f 941 946 951 
f 946 939 951 
f 939 942 952 
f 944 939 952 
o convex_60
v 0.001433 -0.003160 0.028688
v 0.001674 -0.006049 0.012314
v 0.001193 -0.005086 0.012314
v 0.001193 -0.005808 0.032059
v 0.002637 -0.004123 0.033743
v 0.002396 -0.006049 0.037359
v 0.001193 -0.004604 0.037841
v 0.002396 -0.003160 0.027004
v 0.002156 -0.006049 0.012314
v 0.001193 -0.003882 0.013518
v 0.002396 -0.004604 0.037841
v 0.002156 -0.002919 0.028206
v 0.001433 -0.004123 0.012314
v 0.001193 -0.003160 0.026519
v 0.001915 -0.006049 0.037841
v 0.002637 -0.004845 0.033506
f 963 958 968 
f 955 954 956 
f 955 956 959 
f 960 957 961 
f 954 955 961 
f 958 954 961 
f 955 959 962 
f 953 959 964 
f 957 960 964 
f 963 957 964 
f 959 963 964 
f 960 961 965 
f 961 955 965 
f 955 962 965 
f 964 960 965 
f 962 964 965 
f 959 953 966 
f 962 959 966 
f 953 964 966 
f 964 962 966 
f 956 954 967 
f 954 958 967 
f 959 956 967 
f 958 963 967 
f 963 959 967 
f 961 957 968 
f 958 961 968 
f 957 963 968 
o convex_61
v 0.004323 -0.009180 0.013038
v 0.007213 -0.012552 0.028206
v 0.007454 -0.012552 0.028206
v 0.004564 -0.010625 0.031098
v 0.004805 -0.011588 0.030133
v 0.006491 -0.011107 0.012314
v 0.007454 -0.010866 0.013277
v 0.007454 -0.012311 0.031098
v 0.004323 -0.009903 0.013277
v 0.004564 -0.010144 0.026763
v 0.004323 -0.011107 0.031098
v 0.007454 -0.011347 0.012314
v 0.007454 -0.012070 0.029651
v 0.005287 -0.010866 0.016168
v 0.004564 -0.009180 0.012314
v 0.006731 -0.012552 0.030617
f 982 974 984 
f 971 975 976 
f 976 972 979 
f 969 977 979 
f 977 973 979 
f 978 969 979 
f 972 978 979 
f 971 970 980 
f 970 974 980 
f 975 971 980 
f 972 976 981 
f 976 975 981 
f 978 972 981 
f 975 978 981 
f 973 977 982 
f 977 974 982 
f 977 969 983 
f 974 977 983 
f 969 978 983 
f 978 975 983 
f 980 974 983 
f 975 980 983 
f 970 971 984 
f 974 970 984 
f 971 976 984 
f 976 979 984 
f 979 973 984 
f 973 982 984 
o convex_62
v 0.004323 -0.011107 0.034950
v 0.006972 -0.013997 0.037359
v 0.007454 -0.013997 0.037359
v 0.007213 -0.012792 0.031098
v 0.005046 -0.013515 0.037600
v 0.004323 -0.011348 0.031339
v 0.007454 -0.012311 0.032063
v 0.004805 -0.011829 0.037841
v 0.004564 -0.010625 0.031098
v 0.007213 -0.013274 0.037600
v 0.004323 -0.012070 0.037841
f 989 994 995 
f 987 986 988 
f 986 987 989 
f 988 986 989 
f 988 989 990 
f 987 988 991 
f 991 985 992 
f 990 985 993 
f 988 990 993 
f 985 991 993 
f 991 988 993 
f 989 987 994 
f 987 991 994 
f 991 992 994 
f 994 992 995 
f 985 990 995 
f 990 989 995 
f 992 985 995 
o convex_63
v 0.007454 -0.011830 0.025555
v 0.009862 -0.014238 0.035912
v 0.010344 -0.014238 0.035912
v 0.010103 -0.013033 0.016892
v 0.010344 -0.011348 0.014243
v 0.007454 -0.011348 0.012314
v 0.007454 -0.013996 0.037359
v 0.010344 -0.013756 0.037599
v 0.007695 -0.012311 0.031337
v 0.007454 -0.011107 0.015930
v 0.010344 -0.011589 0.012314
v 0.010344 -0.012793 0.030375
v 0.007454 -0.013515 0.037599
v 0.010344 -0.013033 0.016892
f 999 1006 1009 
f 998 997 999 
f 997 998 1002 
f 999 997 1002 
f 996 1001 1002 
f 1001 999 1002 
f 998 1000 1003 
f 1002 998 1003 
f 1000 996 1004 
f 996 1000 1005 
f 1001 996 1005 
f 1000 1001 1005 
f 1000 998 1006 
f 999 1001 1006 
f 1001 1000 1006 
f 1003 1000 1007 
f 1004 1003 1007 
f 1000 1004 1007 
f 996 1002 1008 
f 1002 1003 1008 
f 1003 1004 1008 
f 1004 996 1008 
f 998 999 1009 
f 1006 998 1009 
o convex_64
v 0.011067 -0.014238 0.027488
v 0.015401 -0.012793 0.037841
v 0.015160 -0.012793 0.037841
v 0.014919 -0.011348 0.023633
v 0.014919 -0.014238 0.028209
v 0.010344 -0.013756 0.037599
v 0.010344 -0.012793 0.023633
v 0.013956 -0.014238 0.037118
v 0.010344 -0.012793 0.029894
v 0.015401 -0.011829 0.023633
v 0.010344 -0.014238 0.037599
v 0.012992 -0.013034 0.023633
v 0.015401 -0.013756 0.037118
v 0.010344 -0.014238 0.027727
v 0.015160 -0.011348 0.024598
v 0.015160 -0.014238 0.029894
v 0.014679 -0.014238 0.027488
f 1021 1019 1026 
f 1010 1014 1017 
f 1015 1012 1018 
f 1016 1015 1018 
f 1013 1016 1018 
f 1016 1013 1019 
f 1011 1012 1020 
f 1012 1015 1020 
f 1015 1016 1020 
f 1010 1017 1020 
f 1017 1011 1020 
f 1010 1016 1021 
f 1016 1019 1021 
f 1011 1017 1022 
f 1019 1011 1022 
f 1016 1010 1023 
f 1010 1020 1023 
f 1020 1016 1023 
f 1012 1011 1024 
f 1018 1012 1024 
f 1013 1018 1024 
f 1011 1019 1024 
f 1019 1013 1024 
f 1017 1014 1025 
f 1014 1019 1025 
f 1022 1017 1025 
f 1019 1022 1025 
f 1014 1010 1026 
f 1019 1014 1026 
f 1010 1021 1026 
o convex_65
v 0.019735 -0.009180 0.032782
v 0.015402 -0.009180 0.012314
v 0.015884 -0.009180 0.012314
v 0.020217 -0.002196 0.032299
v 0.017087 -0.002438 0.012796
v 0.020458 -0.008458 0.032540
v 0.018532 -0.002196 0.026521
v 0.020699 -0.002196 0.032058
v 0.016606 -0.002196 0.013279
v 0.016365 -0.007974 0.012314
v 0.018532 -0.008938 0.027725
v 0.019977 -0.003160 0.033025
v 0.016847 -0.004605 0.012314
v 0.015402 -0.008938 0.012557
v 0.020217 -0.009180 0.032299
v 0.016606 -0.002196 0.012314
v 0.020699 -0.003160 0.032058
v 0.020699 -0.002196 0.033025
v 0.019735 -0.003160 0.032299
f 1038 1030 1045 
f 1027 1028 1029 
f 1033 1030 1034 
f 1033 1034 1035 
f 1029 1028 1036 
f 1028 1027 1037 
f 1031 1032 1039 
f 1036 1028 1039 
f 1032 1036 1039 
f 1033 1035 1040 
f 1028 1037 1040 
f 1037 1033 1040 
f 1027 1029 1041 
f 1032 1027 1041 
f 1029 1036 1041 
f 1036 1032 1041 
f 1034 1031 1042 
f 1035 1034 1042 
f 1031 1039 1042 
f 1039 1028 1042 
f 1028 1040 1042 
f 1040 1035 1042 
f 1032 1031 1043 
f 1031 1034 1043 
f 1043 1034 1044 
f 1027 1032 1044 
f 1034 1030 1044 
f 1038 1027 1044 
f 1030 1038 1044 
f 1032 1043 1044 
f 1030 1033 1045 
f 1037 1027 1045 
f 1033 1037 1045 
f 1027 1038 1045 
o convex_66
v 0.000952 0.006473 -0.039945
v -0.000012 0.002379 -0.016106
v 0.000229 0.002379 -0.016106
v 0.001433 0.004306 -0.014178
v -0.000012 0.003343 -0.013695
v 0.000470 0.006714 -0.038740
v -0.000012 0.005028 -0.037777
v 0.001192 0.003102 -0.013937
v 0.001433 0.007437 -0.038257
v 0.001433 0.005751 -0.032234
v 0.000229 0.003825 -0.030071
v 0.001192 0.005991 -0.026702
v -0.000012 0.005510 -0.035606
f 1051 1052 1058 
f 1047 1050 1052 
f 1051 1046 1052 
f 1047 1048 1053 
f 1049 1050 1053 
f 1050 1047 1053 
f 1046 1051 1054 
f 1049 1053 1055 
f 1054 1049 1055 
f 1046 1054 1055 
f 1048 1047 1056 
f 1052 1046 1056 
f 1047 1052 1056 
f 1053 1048 1056 
f 1046 1055 1056 
f 1055 1053 1056 
f 1050 1049 1057 
f 1051 1050 1057 
f 1049 1054 1057 
f 1054 1051 1057 
f 1050 1051 1058 
f 1052 1050 1058 
o convex_67
v -0.000734 0.001416 0.020744
v 0.000951 -0.001955 0.037358
v 0.001192 -0.001955 0.037358
v -0.000975 0.001175 0.037841
v 0.002156 0.000212 0.031580
v 0.002156 -0.000270 0.019539
v -0.000975 0.000452 0.019539
v 0.000470 0.001175 0.036876
v 0.002156 0.000212 0.019539
v 0.001433 -0.000029 0.037841
v -0.000975 0.000452 0.034470
v 0.002156 -0.000992 0.033988
v 0.000710 -0.000270 0.019780
v 0.002156 -0.000751 0.023394
v -0.000975 0.000212 0.024598
v -0.000975 0.001416 0.033748
v 0.000470 -0.001474 0.037600
f 1069 1073 1075 
f 1066 1063 1067 
f 1063 1064 1067 
f 1065 1059 1067 
f 1064 1065 1067 
f 1059 1066 1067 
f 1066 1062 1068 
f 1063 1066 1068 
f 1062 1065 1069 
f 1064 1063 1070 
f 1068 1061 1070 
f 1063 1068 1070 
f 1065 1064 1071 
f 1060 1065 1071 
f 1061 1060 1072 
f 1070 1061 1072 
f 1064 1070 1072 
f 1060 1071 1072 
f 1071 1064 1072 
f 1065 1060 1073 
f 1069 1065 1073 
f 1059 1065 1074 
f 1065 1062 1074 
f 1062 1066 1074 
f 1066 1059 1074 
f 1060 1061 1075 
f 1061 1068 1075 
f 1068 1062 1075 
f 1062 1069 1075 
f 1073 1060 1075 
o convex_68
v 0.003841 0.001656 0.012799
v 0.006972 0.001898 0.037839
v 0.006490 0.001898 0.037839
v 0.003842 -0.001955 0.037359
v 0.002156 0.000212 0.031337
v 0.002156 -0.000269 0.015930
v 0.002638 0.001656 0.012559
v 0.003601 0.001898 0.026039
v 0.006250 0.001657 0.029410
v 0.002156 -0.000992 0.033506
v 0.004083 -0.001714 0.036154
v 0.003841 0.001897 0.012799
v 0.004083 -0.000751 0.037839
v 0.002156 0.001175 0.013041
v 0.002397 -0.000028 0.014483
v 0.006972 0.001657 0.035915
v 0.002638 -0.001474 0.033263
v 0.002156 -0.000510 0.033506
f 1079 1088 1093 
f 1078 1077 1083 
f 1080 1078 1083 
f 1080 1081 1085 
f 1076 1084 1086 
f 1076 1082 1087 
f 1083 1077 1087 
f 1082 1083 1087 
f 1077 1084 1087 
f 1084 1076 1087 
f 1077 1078 1088 
f 1079 1077 1088 
f 1081 1080 1089 
f 1080 1083 1089 
f 1083 1082 1089 
f 1079 1081 1090 
f 1082 1076 1090 
f 1086 1079 1090 
f 1076 1086 1090 
f 1081 1089 1090 
f 1089 1082 1090 
f 1077 1079 1091 
f 1084 1077 1091 
f 1079 1086 1091 
f 1086 1084 1091 
f 1081 1079 1092 
f 1079 1085 1092 
f 1085 1081 1092 
f 1078 1080 1093 
f 1085 1079 1093 
f 1080 1085 1093 
f 1088 1078 1093 
o convex_69
v 0.007454 0.008400 -0.018028
v 0.012752 0.007196 0.012314
v 0.012270 0.007196 0.012314
v 0.007695 0.005029 0.010867
v 0.012752 0.008881 -0.018994
v 0.007454 0.008881 -0.017066
v 0.007454 0.005511 0.012072
v 0.012511 0.009122 -0.014654
v 0.012511 0.006714 0.011830
v 0.009382 0.006714 0.009902
v 0.008178 0.009122 -0.018751
v 0.012028 0.007437 0.009902
v 0.012752 0.008159 0.000754
v 0.007454 0.008400 -0.011770
v 0.007454 0.005029 0.012314
v 0.009623 0.009122 -0.016343
v 0.012752 0.009122 -0.018994
f 1101 1106 1110 
f 1097 1094 1098 
f 1099 1094 1100 
f 1097 1098 1102 
f 1098 1095 1102 
f 1100 1096 1103 
f 1098 1094 1104 
f 1094 1099 1104 
f 1096 1095 1105 
f 1103 1096 1105 
f 1104 1099 1105 
f 1095 1098 1106 
f 1105 1095 1106 
f 1099 1100 1107 
f 1100 1103 1107 
f 1103 1105 1107 
f 1105 1099 1107 
f 1095 1096 1108 
f 1094 1097 1108 
f 1100 1094 1108 
f 1096 1100 1108 
f 1097 1102 1108 
f 1102 1095 1108 
f 1101 1104 1109 
f 1104 1105 1109 
f 1106 1101 1109 
f 1105 1106 1109 
f 1098 1104 1110 
f 1104 1101 1110 
f 1106 1098 1110 
o convex_70
v 0.010344 0.006473 0.012314
v 0.014438 0.005270 0.034711
v 0.014438 0.005029 0.034711
v 0.014438 0.006955 0.012314
v 0.010585 0.003824 0.034228
v 0.013233 0.006955 0.020024
v 0.010585 0.004547 0.034228
v 0.011066 0.006955 0.013761
v 0.010585 0.005751 0.015686
v 0.014197 0.007437 0.012555
v 0.014197 0.005510 0.034470
v 0.014438 0.006714 0.023155
v 0.011789 0.005029 0.033985
v 0.013956 0.004788 0.034470
v 0.010585 0.004066 0.031098
v 0.010344 0.003824 0.034711
v 0.010344 0.005751 0.021947
f 1126 1117 1127 
f 1112 1113 1114 
f 1111 1114 1119 
f 1114 1111 1120 
f 1118 1116 1120 
f 1111 1118 1120 
f 1112 1114 1122 
f 1114 1120 1122 
f 1120 1116 1122 
f 1121 1112 1122 
f 1116 1121 1122 
f 1116 1118 1123 
f 1118 1117 1123 
f 1117 1121 1123 
f 1121 1116 1123 
f 1114 1113 1124 
f 1124 1115 1125 
f 1119 1114 1125 
f 1114 1124 1125 
f 1113 1112 1126 
f 1111 1119 1126 
f 1112 1121 1126 
f 1121 1117 1126 
f 1124 1113 1126 
f 1115 1124 1126 
f 1125 1115 1126 
f 1119 1125 1126 
f 1117 1118 1127 
f 1118 1111 1127 
f 1111 1126 1127 
o convex_71
v 0.014438 0.005992 0.037841
v 0.010344 0.003825 0.034711
v 0.010344 0.004306 0.034711
v 0.014438 0.005269 0.034711
v 0.010585 0.003825 0.037841
v 0.014438 0.004788 0.036396
v 0.013715 0.006232 0.037600
v 0.010585 0.004306 0.037841
f 1128 1134 1135 
f 1129 1130 1131 
f 1130 1129 1132 
f 1132 1129 1133 
f 1129 1131 1133 
f 1131 1128 1133 
f 1128 1132 1133 
f 1131 1130 1134 
f 1128 1131 1134 
f 1132 1128 1135 
f 1130 1132 1135 
f 1134 1130 1135 
o convex_72
v 0.021422 0.001416 0.035192
v 0.018773 -0.002196 0.027004
v 0.018533 -0.000751 0.027004
v 0.018773 0.003343 0.034711
v 0.018292 0.003584 0.027004
v 0.020940 -0.002196 0.035192
v 0.019736 -0.002196 0.027487
v 0.019496 0.001175 0.027728
v 0.019255 0.003584 0.035192
v 0.021422 0.001175 0.034228
v 0.018050 0.003343 0.029173
v 0.021181 -0.002196 0.034228
v 0.018773 -0.002196 0.027487
v 0.019496 0.001175 0.034951
f 1139 1148 1149 
f 1137 1138 1140 
f 1137 1140 1142 
f 1141 1137 1142 
f 1142 1140 1143 
f 1136 1140 1144 
f 1141 1136 1144 
f 1140 1136 1145 
f 1143 1140 1145 
f 1142 1143 1145 
f 1140 1138 1146 
f 1144 1140 1146 
f 1139 1144 1146 
f 1136 1141 1147 
f 1141 1142 1147 
f 1145 1136 1147 
f 1142 1145 1147 
f 1138 1137 1148 
f 1137 1141 1148 
f 1146 1138 1148 
f 1139 1146 1148 
f 1144 1139 1149 
f 1141 1144 1149 
f 1148 1141 1149 
o convex_73
v 0.021422 0.000694 0.036878
v 0.017569 0.003102 0.036637
v 0.017569 0.003102 0.037360
v 0.020699 -0.002196 0.036878
v 0.019255 0.003584 0.035192
v 0.020940 -0.002196 0.035192
v 0.020940 0.001657 0.037841
v 0.018773 -0.000751 0.037841
v 0.021422 0.001416 0.035192
v 0.018051 0.003584 0.037841
v 0.020940 -0.002196 0.037841
v 0.018292 0.000453 0.036397
f 1155 1157 1161 
f 1155 1153 1157 
f 1155 1154 1158 
f 1150 1155 1158 
f 1156 1150 1158 
f 1154 1156 1158 
f 1151 1152 1159 
f 1154 1151 1159 
f 1156 1154 1159 
f 1152 1157 1159 
f 1157 1156 1159 
f 1153 1155 1160 
f 1155 1150 1160 
f 1150 1156 1160 
f 1157 1153 1160 
f 1156 1157 1160 
f 1152 1151 1161 
f 1151 1154 1161 
f 1154 1155 1161 
f 1157 1152 1161 
o convex_74
v -0.012535 0.000212 -0.024532
v -0.014702 -0.003160 -0.018513
v -0.014220 -0.003160 -0.018513
v -0.015184 -0.002196 -0.010805
v -0.015184 0.000212 -0.032718
v -0.012294 -0.002678 -0.010805
v -0.012294 -0.002678 -0.015864
v -0.012294 0.000212 -0.021645
v -0.015184 -0.002196 -0.025255
v -0.014942 -0.000270 -0.032238
v -0.013739 -0.003160 -0.010805
v -0.015184 -0.001956 -0.011288
v -0.012294 -0.002196 -0.010805
v -0.015184 0.000212 -0.031030
v -0.013017 -0.003160 -0.016104
v -0.012294 -0.000270 -0.023087
v -0.013257 -0.002437 -0.020201
v -0.015184 -0.002918 -0.017790
f 1172 1165 1179 
f 1167 1168 1169 
f 1162 1166 1169 
f 1164 1163 1170 
f 1165 1166 1170 
f 1166 1162 1171 
f 1170 1166 1171 
f 1163 1164 1172 
f 1167 1165 1172 
f 1166 1165 1173 
f 1169 1173 1174 
f 1165 1167 1174 
f 1167 1169 1174 
f 1173 1165 1174 
f 1169 1166 1175 
f 1166 1173 1175 
f 1173 1169 1175 
f 1168 1167 1176 
f 1172 1164 1176 
f 1167 1172 1176 
f 1169 1168 1177 
f 1162 1169 1177 
f 1171 1162 1177 
f 1171 1177 1178 
f 1164 1170 1178 
f 1170 1171 1178 
f 1168 1176 1178 
f 1176 1164 1178 
f 1177 1168 1178 
f 1170 1163 1179 
f 1165 1170 1179 
f 1163 1172 1179 
o convex_75
v 0.018291 0.004066 0.028690
v 0.016606 0.003584 0.012314
v 0.016365 0.003825 0.012314
v 0.016365 0.005751 0.012314
v 0.016124 0.005510 0.028690
v 0.017809 0.003584 0.027727
v 0.016846 0.005751 0.028690
v 0.017087 0.003584 0.013521
v 0.016124 0.005992 0.016650
v 0.018291 0.003825 0.026521
v 0.018050 0.004547 0.027727
v 0.016124 0.004788 0.012314
f 1184 1188 1191 
f 1181 1182 1183 
f 1184 1182 1185 
f 1182 1181 1185 
f 1180 1184 1185 
f 1184 1180 1186 
f 1181 1183 1187 
f 1185 1181 1187 
f 1186 1183 1188 
f 1184 1186 1188 
f 1180 1185 1189 
f 1187 1183 1189 
f 1185 1187 1189 
f 1186 1180 1190 
f 1183 1186 1190 
f 1180 1189 1190 
f 1189 1183 1190 
f 1183 1182 1191 
f 1182 1184 1191 
f 1188 1183 1191 
o convex_76
v -0.021445 0.003824 -0.028385
v -0.017111 -0.000028 -0.022606
v -0.017111 -0.000751 -0.022606
v -0.017111 -0.000751 -0.028625
v -0.021926 0.001898 -0.024774
v -0.019519 0.003824 -0.024051
v -0.020722 0.003824 -0.022606
v -0.017592 0.000935 -0.028625
v -0.019037 0.000213 -0.022606
v -0.020482 0.003824 -0.028625
v -0.021926 0.002138 -0.026459
v -0.017352 -0.000751 -0.028625
v -0.021926 0.003824 -0.027422
f 1202 1196 1204 
f 1193 1194 1195 
f 1194 1193 1198 
f 1193 1197 1198 
f 1197 1192 1198 
f 1193 1195 1199 
f 1197 1193 1199 
f 1194 1198 1200 
f 1198 1196 1200 
f 1192 1197 1201 
f 1199 1195 1201 
f 1197 1199 1201 
f 1196 1202 1203 
f 1195 1194 1203 
f 1194 1200 1203 
f 1200 1196 1203 
f 1192 1201 1203 
f 1201 1195 1203 
f 1202 1192 1203 
f 1198 1192 1204 
f 1196 1198 1204 
f 1192 1202 1204 
o convex_77
v -0.021685 0.008400 -0.036571
v -0.017110 0.008400 -0.019475
v -0.017110 0.008159 -0.019475
v -0.017110 0.009845 -0.027185
v -0.021444 0.010086 -0.036812
v -0.021685 0.008159 -0.039943
v -0.019037 0.008159 -0.023813
v -0.018315 0.010086 -0.027185
v -0.019759 0.010086 -0.035127
v -0.022167 0.009845 -0.039701
v -0.017110 0.008159 -0.020681
v -0.018315 0.008641 -0.022128
v -0.017110 0.010086 -0.025738
v -0.020241 0.008159 -0.028629
f 1209 1214 1218 
f 1206 1207 1208 
f 1210 1207 1211 
f 1208 1210 1213 
f 1209 1212 1213 
f 1210 1205 1214 
f 1213 1210 1214 
f 1209 1213 1214 
f 1208 1207 1215 
f 1207 1210 1215 
f 1210 1208 1215 
f 1207 1206 1216 
f 1211 1207 1216 
f 1209 1211 1216 
f 1206 1212 1216 
f 1212 1209 1216 
f 1206 1208 1217 
f 1212 1206 1217 
f 1208 1213 1217 
f 1213 1212 1217 
f 1205 1210 1218 
f 1211 1209 1218 
f 1210 1211 1218 
f 1214 1205 1218 
o convex_78
v -0.018796 0.012012 -0.039944
v -0.017111 0.010327 -0.026701
v -0.017352 0.010327 -0.026701
v -0.021685 0.010086 -0.037777
v -0.017111 0.011049 -0.039944
v -0.019278 0.012976 -0.039221
v -0.021926 0.010568 -0.037294
v -0.017111 0.011531 -0.035609
v -0.017111 0.010086 -0.028147
v -0.018555 0.010327 -0.028628
v -0.021926 0.010327 -0.038499
v -0.019759 0.010086 -0.035368
v -0.017833 0.012253 -0.039944
f 1224 1226 1231 
f 1221 1220 1224 
f 1220 1223 1226 
f 1224 1220 1226 
f 1220 1221 1227 
f 1223 1220 1227 
f 1221 1224 1228 
f 1225 1222 1228 
f 1224 1225 1228 
f 1227 1221 1228 
f 1222 1227 1228 
f 1219 1223 1229 
f 1223 1222 1229 
f 1224 1219 1229 
f 1222 1225 1229 
f 1225 1224 1229 
f 1222 1223 1230 
f 1227 1222 1230 
f 1223 1227 1230 
f 1223 1219 1231 
f 1219 1224 1231 
f 1226 1223 1231 
o convex_79
v -0.012294 0.007195 -0.031036
v -0.014943 0.003824 -0.039944
v -0.014702 0.003824 -0.039944
v -0.012294 0.003824 -0.028628
v -0.013257 0.007678 -0.028146
v -0.013257 0.007678 -0.039463
v -0.012294 0.005029 -0.032241
v -0.013738 0.007678 -0.039944
v -0.013979 0.003824 -0.034405
v -0.014220 0.004065 -0.039463
v -0.012294 0.007195 -0.028146
v -0.014943 0.004065 -0.039221
v -0.013498 0.006473 -0.039944
v -0.012535 0.003824 -0.028628
f 1242 1236 1245 
f 1233 1234 1235 
f 1236 1232 1237 
f 1237 1232 1238 
f 1232 1235 1238 
f 1234 1233 1239 
f 1236 1237 1239 
f 1233 1235 1240 
f 1235 1234 1241 
f 1238 1235 1241 
f 1235 1232 1242 
f 1232 1236 1242 
f 1239 1233 1243 
f 1236 1239 1243 
f 1233 1240 1243 
f 1240 1236 1243 
f 1237 1238 1244 
f 1234 1239 1244 
f 1239 1237 1244 
f 1241 1234 1244 
f 1238 1241 1244 
f 1240 1235 1245 
f 1236 1240 1245 
f 1235 1242 1245 
o convex_80
v -0.017109 0.011290 -0.039944
v -0.013017 0.007919 -0.028146
v -0.015183 0.009844 -0.028146
v -0.017109 0.010326 -0.028146
v -0.013739 0.007678 -0.039944
v -0.013980 0.009604 -0.039944
v -0.014221 0.007919 -0.028146
v -0.016869 0.011290 -0.033444
v -0.017109 0.010808 -0.039944
v -0.013017 0.007678 -0.036573
v -0.016147 0.010567 -0.028387
f 1251 1253 1256 
f 1247 1248 1249 
f 1248 1247 1251 
f 1250 1246 1251 
f 1247 1249 1252 
f 1249 1250 1252 
f 1246 1249 1253 
f 1251 1246 1253 
f 1249 1246 1254 
f 1246 1250 1254 
f 1250 1249 1254 
f 1251 1247 1255 
f 1250 1251 1255 
f 1247 1252 1255 
f 1252 1250 1255 
f 1249 1248 1256 
f 1248 1251 1256 
f 1253 1249 1256 
o convex_81
v -0.014943 0.009363 -0.021882
v -0.017110 0.006714 -0.017549
v -0.017110 0.010086 -0.028145
v -0.016869 0.007678 -0.011046
v -0.014943 0.009122 -0.028145
v -0.014943 0.006956 -0.013937
v -0.014943 0.008159 -0.011529
v -0.017110 0.010568 -0.027904
v -0.017110 0.006956 -0.010805
v -0.015906 0.010327 -0.026940
v -0.016147 0.006714 -0.016345
v -0.014943 0.007678 -0.010805
v -0.016147 0.007919 -0.010805
f 1268 1263 1269 
f 1258 1259 1261 
f 1261 1257 1262 
f 1262 1257 1263 
f 1259 1258 1264 
f 1261 1259 1264 
f 1260 1264 1265 
f 1264 1258 1265 
f 1257 1261 1266 
f 1263 1257 1266 
f 1264 1263 1266 
f 1261 1264 1266 
f 1258 1261 1267 
f 1261 1262 1267 
f 1265 1258 1267 
f 1262 1265 1267 
f 1262 1263 1268 
f 1265 1262 1268 
f 1265 1268 1269 
f 1264 1260 1269 
f 1263 1264 1269 
f 1260 1265 1269 
o convex_82
v -0.017591 0.001416 0.002437
v -0.016147 -0.001715 -0.010805
v -0.016388 -0.001474 -0.010805
v -0.015906 -0.001715 0.011830
v -0.015906 0.001416 0.012311
v -0.018314 0.001416 -0.010805
v -0.015666 -0.001474 -0.010805
v -0.015425 -0.001715 0.013518
v -0.017832 0.001416 -0.010805
v -0.016388 -0.000029 0.013518
v -0.018073 0.000934 -0.005263
v -0.017351 -0.000510 -0.009598
v -0.016388 0.001416 0.013035
v -0.015425 -0.001233 0.011589
v -0.016869 -0.000992 -0.001413
v -0.016388 0.001416 0.005570
v -0.016388 -0.000510 0.012794
f 1270 1280 1286 
f 1271 1272 1275 
f 1270 1274 1275 
f 1271 1275 1276 
f 1273 1271 1277 
f 1271 1276 1277 
f 1275 1274 1278 
f 1276 1275 1278 
f 1270 1275 1280 
f 1275 1272 1281 
f 1280 1275 1281 
f 1274 1270 1282 
f 1277 1274 1282 
f 1270 1279 1282 
f 1279 1277 1282 
f 1276 1274 1283 
f 1274 1277 1283 
f 1277 1276 1283 
f 1272 1271 1284 
f 1271 1273 1284 
f 1273 1280 1284 
f 1281 1272 1284 
f 1280 1281 1284 
f 1274 1276 1285 
f 1278 1274 1285 
f 1276 1278 1285 
f 1273 1277 1286 
f 1279 1270 1286 
f 1277 1279 1286 
f 1280 1273 1286 
o convex_83
v -0.018796 0.005269 -0.010807
v -0.019518 0.001176 -0.022606
v -0.019278 0.001176 -0.022606
v -0.020481 0.005510 -0.027180
v -0.020481 0.004306 -0.015864
v -0.017833 0.001176 -0.010805
v -0.018315 0.005510 -0.012253
v -0.019759 0.002139 -0.013697
v -0.019518 0.004065 -0.025010
v -0.020723 0.003583 -0.022606
v -0.020241 0.005028 -0.013939
v -0.019037 0.002620 -0.010805
v -0.019278 0.001176 -0.013697
v -0.017833 0.001417 -0.011770
v -0.020000 0.005269 -0.026938
v -0.020481 0.005510 -0.022121
v -0.020481 0.004547 -0.027180
v -0.018315 0.005510 -0.010807
f 1302 1297 1304 
f 1288 1289 1292 
f 1294 1291 1296 
f 1291 1294 1297 
f 1297 1294 1298 
f 1287 1297 1298 
f 1292 1298 1299 
f 1288 1292 1299 
f 1296 1288 1299 
f 1294 1296 1299 
f 1298 1294 1299 
f 1292 1289 1300 
f 1289 1295 1300 
f 1295 1293 1300 
f 1290 1293 1301 
f 1295 1289 1301 
f 1293 1295 1301 
f 1293 1290 1302 
f 1290 1296 1302 
f 1296 1291 1302 
f 1291 1297 1302 
f 1289 1288 1303 
f 1288 1296 1303 
f 1296 1290 1303 
f 1301 1289 1303 
f 1290 1301 1303 
f 1297 1287 1304 
f 1287 1298 1304 
f 1298 1292 1304 
f 1292 1300 1304 
f 1300 1293 1304 
f 1293 1302 1304 
o convex_84
v -0.020241 0.005510 -0.020677
v -0.017110 0.007196 -0.010807
v -0.017110 0.006714 -0.010807
v -0.017110 0.008159 -0.020196
v -0.020000 0.008159 -0.026938
v -0.020241 0.005510 -0.027180
v -0.018556 0.005751 -0.010807
v -0.017351 0.006714 -0.018273
v -0.018074 0.005510 -0.011530
v -0.018074 0.008159 -0.017550
v -0.019277 0.007918 -0.026938
v -0.020481 0.007196 -0.026698
v -0.017110 0.007436 -0.019714
v -0.019277 0.006474 -0.016587
f 1309 1316 1318 
f 1306 1307 1308 
f 1307 1306 1311 
f 1305 1310 1313 
f 1307 1311 1313 
f 1311 1305 1313 
f 1310 1312 1313 
f 1312 1307 1313 
f 1306 1308 1314 
f 1308 1309 1314 
f 1311 1306 1314 
f 1309 1308 1315 
f 1310 1309 1315 
f 1310 1305 1316 
f 1309 1310 1316 
f 1308 1307 1317 
f 1312 1310 1317 
f 1307 1312 1317 
f 1315 1308 1317 
f 1310 1315 1317 
f 1305 1311 1318 
f 1314 1309 1318 
f 1311 1314 1318 
f 1316 1305 1318 
o convex_85
v -0.011571 -0.007735 0.031581
v -0.010127 -0.007735 0.037841
v -0.012293 -0.006049 0.037358
v -0.010127 -0.006531 0.028931
v -0.012534 -0.006772 0.028931
v -0.011812 -0.007735 0.037118
v -0.012534 -0.006772 0.037841
v -0.012534 -0.007253 0.028931
v -0.010127 -0.007976 0.035915
v -0.010849 -0.007253 0.028931
v -0.010849 -0.008217 0.037841
f 1319 1327 1329 
f 1321 1320 1322 
f 1321 1322 1323 
f 1320 1321 1325 
f 1321 1323 1325 
f 1324 1325 1326 
f 1323 1322 1326 
f 1325 1323 1326 
f 1322 1320 1327 
f 1319 1326 1328 
f 1326 1322 1328 
f 1322 1327 1328 
f 1327 1319 1328 
f 1320 1325 1329 
f 1325 1324 1329 
f 1324 1326 1329 
f 1326 1319 1329 
f 1327 1320 1329 
o convex_86
v -0.013016 -0.000511 0.036395
v -0.014461 -0.003641 0.025318
v -0.014701 -0.003400 0.025318
v -0.013979 0.001416 0.025560
v -0.011090 0.001175 0.037600
v -0.013498 -0.003641 0.037600
v -0.014942 -0.000029 0.026283
v -0.013738 0.001416 0.030376
v -0.014220 -0.002678 0.034951
v -0.013016 -0.003641 0.037118
v -0.014220 -0.003641 0.025318
v -0.011572 0.001416 0.037841
v -0.014701 0.001175 0.025318
v -0.014943 -0.002437 0.026042
v -0.014220 -0.003400 0.034711
f 1338 1343 1344 
f 1335 1330 1338 
f 1337 1336 1338 
f 1330 1337 1338 
f 1335 1331 1339 
f 1334 1335 1339 
f 1331 1332 1340 
f 1333 1334 1340 
f 1339 1331 1340 
f 1334 1339 1340 
f 1334 1333 1341 
f 1335 1334 1341 
f 1330 1335 1341 
f 1333 1337 1341 
f 1337 1330 1341 
f 1337 1333 1342 
f 1336 1337 1342 
f 1340 1332 1342 
f 1333 1340 1342 
f 1338 1336 1343 
f 1342 1332 1343 
f 1336 1342 1343 
f 1332 1331 1344 
f 1331 1335 1344 
f 1335 1338 1344 
f 1343 1332 1344 
o convex_87
v 0.015884 -0.013756 0.035674
v 0.020699 -0.009180 0.034952
v 0.020699 -0.009421 0.034952
v 0.019736 -0.009180 0.037841
v 0.017810 -0.009421 0.035674
v 0.015402 -0.012552 0.037841
v 0.015402 -0.013033 0.034229
v 0.018773 -0.012311 0.035434
v 0.017810 -0.011829 0.037841
v 0.020699 -0.009180 0.034229
v 0.018050 -0.012552 0.034229
v 0.015643 -0.013756 0.036878
f 1352 1353 1356 
f 1347 1346 1348 
f 1348 1349 1350 
f 1350 1349 1351 
f 1347 1348 1352 
f 1348 1350 1353 
f 1352 1348 1353 
f 1346 1347 1354 
f 1348 1346 1354 
f 1349 1348 1354 
f 1351 1349 1354 
f 1347 1352 1354 
f 1354 1352 1355 
f 1345 1351 1355 
f 1352 1345 1355 
f 1351 1354 1355 
f 1350 1351 1356 
f 1351 1345 1356 
f 1345 1352 1356 
f 1353 1350 1356 
o convex_88
v -0.012535 0.006955 -0.005025
v -0.012294 0.003584 -0.010805
v -0.011572 0.003584 -0.010805
v -0.011572 0.005270 0.005329
v -0.013738 0.006473 0.005571
v -0.013738 0.007678 -0.010805
v -0.011572 0.006473 0.005571
v -0.011331 0.004547 -0.009842
v -0.013738 0.006955 -0.010805
v -0.013498 0.007678 -0.005266
v -0.011331 0.004306 -0.000933
v -0.013738 0.006955 0.004125
v -0.013498 0.007678 -0.010805
v -0.011331 0.005992 0.003402
v -0.011812 0.005510 -0.009842
v -0.011812 0.006714 0.005571
v -0.011572 0.004306 -0.000933
f 1367 1360 1373 
f 1359 1358 1362 
f 1361 1360 1363 
f 1358 1361 1365 
f 1362 1358 1365 
f 1361 1362 1365 
f 1358 1359 1367 
f 1359 1364 1367 
f 1362 1361 1368 
f 1366 1362 1368 
f 1359 1362 1369 
f 1363 1357 1369 
f 1364 1359 1369 
f 1362 1366 1369 
f 1357 1363 1370 
f 1363 1360 1370 
f 1360 1367 1370 
f 1367 1364 1370 
f 1369 1357 1371 
f 1364 1369 1371 
f 1357 1370 1371 
f 1370 1364 1371 
f 1361 1363 1372 
f 1368 1361 1372 
f 1366 1368 1372 
f 1363 1369 1372 
f 1369 1366 1372 
f 1360 1361 1373 
f 1361 1358 1373 
f 1358 1367 1373 
o convex_89
v -0.000734 0.004065 -0.016828
v -0.000975 0.002379 -0.039945
v -0.000975 0.004306 -0.039945
v -0.000012 0.004788 -0.038018
v -0.000012 0.002621 -0.015142
v -0.000975 0.003102 -0.013695
v -0.000012 0.002621 -0.029105
v -0.000012 0.005269 -0.035850
v -0.000975 0.004788 -0.025978
v -0.000012 0.003343 -0.013695
v -0.000493 0.002379 -0.038499
v -0.000975 0.002379 -0.026702
f 1384 1378 1385 
f 1375 1376 1377 
f 1376 1375 1379 
f 1377 1378 1380 
f 1377 1376 1381 
f 1378 1377 1381 
f 1379 1374 1382 
f 1376 1379 1382 
f 1374 1381 1382 
f 1381 1376 1382 
f 1379 1378 1383 
f 1374 1379 1383 
f 1381 1374 1383 
f 1378 1381 1383 
f 1375 1377 1384 
f 1377 1380 1384 
f 1380 1378 1384 
f 1379 1375 1385 
f 1378 1379 1385 
f 1375 1384 1385 
o convex_90
v 0.002397 -0.005086 -0.032953
v 0.004082 -0.009421 0.009419
v 0.004323 -0.009421 0.009419
v 0.004082 -0.008217 -0.038252
v 0.002397 -0.007495 0.009178
v 0.004323 -0.008216 0.001474
v 0.002638 -0.006772 0.012314
v 0.004323 -0.007494 -0.039700
v 0.002397 -0.005809 -0.039700
v 0.002638 -0.005086 -0.032953
v 0.003119 -0.007013 -0.039945
v 0.002879 -0.008216 0.009664
v 0.004323 -0.007735 -0.012736
v 0.004323 -0.008939 0.012314
v 0.002397 -0.006772 0.012314
v 0.002638 -0.006291 0.002676
v 0.002879 -0.005568 -0.039700
v 0.004323 -0.008217 -0.038252
v 0.002879 -0.008216 0.012314
f 1400 1390 1404 
f 1388 1387 1389 
f 1391 1388 1393 
f 1390 1386 1394 
f 1393 1389 1396 
f 1390 1394 1396 
f 1389 1387 1397 
f 1396 1389 1397 
f 1390 1396 1397 
f 1391 1393 1398 
f 1393 1395 1398 
f 1387 1388 1399 
f 1388 1391 1399 
f 1391 1392 1399 
f 1386 1390 1400 
f 1399 1392 1400 
f 1400 1392 1401 
f 1392 1391 1401 
f 1395 1386 1401 
f 1391 1398 1401 
f 1398 1395 1401 
f 1386 1400 1401 
f 1394 1386 1402 
f 1395 1393 1402 
f 1386 1395 1402 
f 1393 1396 1402 
f 1396 1394 1402 
f 1388 1389 1403 
f 1393 1388 1403 
f 1389 1393 1403 
f 1397 1387 1404 
f 1390 1397 1404 
f 1387 1399 1404 
f 1399 1400 1404 
o convex_91
v -0.019518 0.000934 -0.022605
v -0.015184 -0.001955 -0.010808
v -0.017592 0.000934 -0.010807
v -0.015184 -0.002196 -0.022846
v -0.017592 0.000934 -0.021399
v -0.016147 -0.002437 -0.018511
v -0.019036 0.000693 -0.013696
v -0.015425 -0.002437 -0.010808
v -0.016147 -0.002196 -0.022846
v -0.018074 0.001175 -0.010807
v -0.015184 -0.002919 -0.018992
v -0.015666 -0.001233 -0.018751
v -0.019277 0.000452 -0.022362
v -0.019036 0.001175 -0.022605
v -0.019277 0.001175 -0.015865
v -0.017351 -0.000511 -0.010807
f 1414 1411 1420 
f 1411 1410 1412 
f 1407 1409 1414 
f 1408 1406 1415 
f 1412 1410 1415 
f 1406 1412 1415 
f 1413 1408 1415 
f 1410 1413 1415 
f 1407 1406 1416 
f 1406 1408 1416 
f 1408 1409 1416 
f 1409 1407 1416 
f 1411 1405 1417 
f 1410 1411 1417 
f 1405 1413 1417 
f 1413 1410 1417 
f 1409 1408 1418 
f 1413 1405 1418 
f 1408 1413 1418 
f 1414 1409 1418 
f 1414 1418 1419 
f 1405 1411 1419 
f 1411 1414 1419 
f 1418 1405 1419 
f 1406 1407 1420 
f 1411 1412 1420 
f 1412 1406 1420 
f 1407 1414 1420 
o convex_92
v -0.020482 0.007918 -0.028386
v -0.021445 0.005751 -0.039704
v -0.020963 0.005751 -0.039704
v -0.021927 0.008159 -0.039945
v -0.020723 0.005751 -0.027182
v -0.019519 0.008159 -0.027906
v -0.020241 0.005751 -0.027906
v -0.021927 0.008159 -0.038018
v -0.021686 0.008159 -0.039945
v -0.021927 0.007196 -0.038741
f 1425 1428 1430 
f 1423 1422 1424 
f 1422 1423 1425 
f 1421 1425 1426 
f 1426 1425 1427 
f 1425 1423 1427 
f 1423 1426 1427 
f 1425 1421 1428 
f 1426 1424 1428 
f 1421 1426 1428 
f 1423 1424 1429 
f 1426 1423 1429 
f 1424 1426 1429 
f 1424 1422 1430 
f 1422 1425 1430 
f 1428 1424 1430 
o convex_93
v -0.009885 0.007677 -0.023567
v -0.004587 0.004788 -0.012733
v -0.005310 0.005510 -0.013217
v -0.009644 0.005510 -0.013458
v -0.004587 0.005270 -0.023567
v -0.009644 0.008400 -0.022844
v -0.005551 0.006714 -0.023567
v -0.010125 0.005751 -0.016828
v -0.005069 0.004307 -0.012976
v -0.009644 0.005992 -0.013217
v -0.005310 0.005270 -0.023325
v -0.005310 0.004788 -0.019955
v -0.008681 0.006233 -0.013698
v -0.004587 0.005992 -0.023325
v -0.010125 0.008400 -0.023325
v -0.005310 0.005751 -0.014661
f 1444 1437 1446 
f 1435 1431 1437 
f 1435 1432 1439 
f 1434 1438 1439 
f 1432 1433 1440 
f 1438 1434 1440 
f 1439 1432 1440 
f 1434 1439 1440 
f 1431 1435 1441 
f 1438 1431 1441 
f 1435 1439 1442 
f 1439 1438 1442 
f 1441 1435 1442 
f 1438 1441 1442 
f 1433 1436 1443 
f 1440 1433 1443 
f 1436 1440 1443 
f 1432 1435 1444 
f 1435 1437 1444 
f 1437 1431 1445 
f 1436 1437 1445 
f 1431 1438 1445 
f 1440 1436 1445 
f 1438 1440 1445 
f 1433 1432 1446 
f 1436 1433 1446 
f 1437 1436 1446 
f 1432 1444 1446 
o convex_94
v -0.006512 0.001657 -0.026940
v -0.009402 0.008641 -0.025014
v -0.009402 0.008641 -0.026459
v -0.000975 0.004788 -0.025736
v -0.010125 0.003102 -0.023810
v -0.000975 0.004066 -0.023570
v -0.010126 0.007436 -0.027663
v -0.000975 0.001657 -0.026940
v -0.010126 0.008158 -0.023569
v -0.000975 0.004788 -0.027422
v -0.010125 0.003584 -0.027422
v -0.008440 0.008400 -0.024292
v -0.006030 0.001898 -0.027422
v -0.006030 0.001657 -0.025977
v -0.005311 0.007194 -0.026699
v -0.009884 0.008400 -0.027663
v -0.000975 0.004547 -0.023570
v -0.000975 0.002862 -0.027422
v -0.000975 0.001657 -0.026459
v -0.008921 0.002380 -0.026218
v -0.007958 0.005510 -0.027663
f 1464 1459 1467 
f 1450 1452 1454 
f 1451 1452 1455 
f 1453 1451 1455 
f 1450 1454 1456 
f 1451 1453 1457 
f 1449 1448 1458 
f 1448 1455 1458 
f 1454 1447 1459 
f 1447 1457 1459 
f 1447 1454 1460 
f 1450 1456 1461 
f 1449 1458 1461 
f 1448 1449 1462 
f 1455 1448 1462 
f 1453 1455 1462 
f 1449 1461 1462 
f 1461 1456 1462 
f 1452 1450 1463 
f 1455 1452 1463 
f 1458 1455 1463 
f 1450 1461 1463 
f 1461 1458 1463 
f 1456 1454 1464 
f 1454 1459 1464 
f 1452 1451 1465 
f 1454 1452 1465 
f 1451 1460 1465 
f 1460 1454 1465 
f 1457 1447 1466 
f 1451 1457 1466 
f 1447 1460 1466 
f 1460 1451 1466 
f 1457 1453 1467 
f 1459 1457 1467 
f 1453 1462 1467 
f 1462 1456 1467 
f 1456 1464 1467 
o convex_95
v -0.000734 -0.000510 -0.002860
v 0.000952 -0.003882 -0.011046
v 0.001193 -0.003882 -0.011046
v 0.001193 -0.003882 0.000032
v -0.000975 -0.002437 0.000032
v -0.000975 -0.001233 -0.010804
v 0.000229 -0.000510 -0.007192
v 0.000229 -0.000510 -0.002617
v -0.000011 -0.000751 -0.011046
v 0.001193 -0.003400 -0.011046
v 0.000229 -0.001956 0.000032
v 0.000711 -0.003882 0.000032
v -0.000975 -0.000510 -0.007192
v 0.000711 -0.003882 -0.009359
f 1479 1472 1481 
f 1469 1470 1471 
f 1474 1468 1475 
f 1470 1469 1476 
f 1469 1473 1476 
f 1476 1474 1477 
f 1471 1470 1477 
f 1474 1475 1477 
f 1475 1471 1477 
f 1470 1476 1477 
f 1468 1472 1478 
f 1472 1471 1478 
f 1475 1468 1478 
f 1471 1475 1478 
f 1469 1471 1479 
f 1471 1472 1479 
f 1472 1468 1480 
f 1473 1472 1480 
f 1468 1474 1480 
f 1476 1473 1480 
f 1474 1476 1480 
f 1473 1469 1481 
f 1472 1473 1481 
f 1469 1479 1481 
o convex_96
v -0.009643 0.005751 -0.011285
v -0.005792 0.003343 0.003162
v -0.006033 0.003584 0.003162
v -0.010126 0.003584 0.003162
v -0.010126 0.004547 -0.012009
v -0.005792 0.005028 -0.012732
v -0.006033 0.002861 -0.000211
v -0.010126 0.005028 0.000031
v -0.005792 0.005510 -0.012248
v -0.007719 0.002861 0.002920
v -0.008921 0.004787 0.001235
v -0.008680 0.005992 -0.010804
v -0.008921 0.005751 -0.012732
v -0.009643 0.004306 0.003162
v -0.005792 0.004788 -0.012009
v -0.005792 0.004787 -0.005746
f 1490 1492 1497 
f 1483 1484 1485 
f 1482 1486 1489 
f 1486 1485 1489 
f 1483 1487 1490 
f 1483 1485 1491 
f 1485 1486 1491 
f 1488 1483 1491 
f 1486 1488 1491 
f 1492 1490 1493 
f 1482 1489 1493 
f 1489 1492 1493 
f 1486 1482 1494 
f 1487 1486 1494 
f 1490 1487 1494 
f 1493 1490 1494 
f 1482 1493 1494 
f 1485 1484 1495 
f 1489 1485 1495 
f 1484 1492 1495 
f 1492 1489 1495 
f 1487 1483 1496 
f 1486 1487 1496 
f 1483 1488 1496 
f 1488 1486 1496 
f 1484 1483 1497 
f 1483 1490 1497 
f 1492 1484 1497 
o convex_97
v 0.000711 -0.003401 0.027005
v 0.000952 -0.005808 0.031095
v 0.001193 -0.005808 0.031095
v -0.000975 -0.004364 0.018335
v -0.000975 -0.003882 0.037599
v 0.001193 -0.003882 0.018335
v 0.001193 -0.004364 0.037841
v -0.000975 -0.004364 0.037841
v -0.000975 -0.003882 0.018335
v -0.000734 -0.004845 0.020985
v 0.001193 -0.003401 0.018577
v 0.000470 -0.005086 0.022188
v -0.000975 -0.003641 0.035189
v 0.001193 -0.003401 0.028208
v 0.001193 -0.004845 0.037841
v 0.000229 -0.003882 0.037841
v -0.000734 -0.004845 0.032302
v 0.000470 -0.003401 0.020504
f 1506 1510 1515 
f 1500 1503 1504 
f 1502 1501 1505 
f 1501 1502 1506 
f 1503 1501 1506 
f 1505 1501 1507 
f 1504 1503 1508 
f 1503 1506 1508 
f 1500 1499 1509 
f 1503 1500 1509 
f 1501 1503 1509 
f 1499 1507 1509 
f 1507 1501 1509 
f 1506 1502 1510 
f 1508 1498 1511 
f 1504 1508 1511 
f 1498 1510 1511 
f 1499 1500 1512 
f 1500 1504 1512 
f 1505 1499 1512 
f 1504 1505 1512 
f 1502 1505 1513 
f 1505 1504 1513 
f 1510 1502 1513 
f 1504 1511 1513 
f 1511 1510 1513 
f 1499 1505 1514 
f 1507 1499 1514 
f 1505 1507 1514 
f 1498 1508 1515 
f 1508 1506 1515 
f 1510 1498 1515 
o convex_98
v -0.003624 0.004306 -0.023567
v -0.000975 0.002139 0.003162
v -0.001457 0.002380 0.003162
v -0.000975 0.004547 -0.021880
v -0.005791 0.005269 -0.010320
v -0.005791 0.003102 0.001713
v -0.002661 0.002139 -0.008640
v -0.000975 0.003584 -0.021157
v -0.004828 0.003824 0.002435
v -0.004587 0.005751 -0.023567
v -0.005791 0.004065 -0.011283
v -0.000975 0.001657 0.000271
v -0.002420 0.001657 0.002678
v -0.005309 0.005269 -0.010320
v -0.003142 0.003584 -0.021157
v -0.000975 0.002862 -0.002861
v -0.004587 0.004547 -0.022842
v -0.005791 0.003343 0.003162
v -0.004346 0.002380 -0.000935
v -0.000975 0.004065 -0.023567
v -0.004346 0.005751 -0.021880
v -0.000975 0.002380 -0.010082
v -0.001939 0.003343 -0.020435
v -0.002902 0.003343 0.000512
f 1531 1519 1539 
f 1519 1517 1523 
f 1521 1520 1526 
f 1520 1525 1526 
f 1523 1517 1527 
f 1527 1517 1528 
f 1522 1527 1528 
f 1520 1524 1529 
f 1522 1526 1530 
f 1518 1517 1531 
f 1517 1519 1531 
f 1525 1516 1532 
f 1526 1525 1532 
f 1516 1530 1532 
f 1530 1526 1532 
f 1517 1518 1533 
f 1520 1521 1533 
f 1518 1524 1533 
f 1524 1520 1533 
f 1528 1517 1533 
f 1521 1528 1533 
f 1521 1526 1534 
f 1526 1522 1534 
f 1528 1521 1534 
f 1522 1528 1534 
f 1519 1523 1535 
f 1516 1525 1535 
f 1525 1519 1535 
f 1530 1516 1535 
f 1519 1525 1536 
f 1525 1520 1536 
f 1529 1519 1536 
f 1520 1529 1536 
f 1527 1522 1537 
f 1523 1527 1537 
f 1522 1530 1538 
f 1535 1523 1538 
f 1530 1535 1538 
f 1537 1522 1538 
f 1523 1537 1538 
f 1524 1518 1539 
f 1519 1529 1539 
f 1529 1524 1539 
f 1518 1531 1539 
o convex_99
v 0.005769 0.005510 0.005807
v 0.004564 0.002861 0.011350
v 0.004805 0.002861 0.011350
v 0.004564 0.006473 -0.012487
v 0.007454 0.007677 -0.011526
v 0.007454 0.004788 0.012314
v 0.007213 0.008159 -0.010562
v 0.004564 0.006955 -0.011286
v 0.004564 0.003584 0.011591
v 0.007213 0.005991 0.008460
v 0.007454 0.008159 -0.012732
v 0.004805 0.006233 -0.011045
v 0.007454 0.005270 0.012314
v 0.005287 0.007436 -0.011526
v 0.007454 0.004788 0.011350
f 1544 1545 1554 
f 1541 1542 1545 
f 1543 1541 1547 
f 1541 1545 1548 
f 1547 1541 1548 
f 1540 1547 1548 
f 1540 1548 1549 
f 1544 1543 1550 
f 1545 1544 1550 
f 1546 1549 1550 
f 1542 1541 1551 
f 1541 1543 1551 
f 1543 1544 1551 
f 1544 1542 1551 
f 1548 1545 1552 
f 1549 1548 1552 
f 1545 1550 1552 
f 1550 1549 1552 
f 1547 1540 1553 
f 1543 1547 1553 
f 1549 1546 1553 
f 1540 1549 1553 
f 1550 1543 1553 
f 1546 1550 1553 
f 1542 1544 1554 
f 1545 1542 1554 
o convex_100
v -0.000493 -0.001955 0.002443
v 0.000952 -0.004604 0.016889
v 0.001193 -0.004604 0.016889
v 0.000711 -0.003882 0.000036
v -0.000975 -0.004364 0.018335
v 0.001193 -0.002678 0.014721
v -0.000975 -0.002437 0.000036
v 0.001193 -0.003641 0.000036
v -0.000975 -0.003160 0.013758
v 0.000229 -0.002197 0.000036
v 0.001193 -0.003641 0.018335
v 0.000470 -0.002678 0.014721
v -0.000975 -0.001955 0.002443
v -0.000975 -0.003882 0.018335
v 0.000952 -0.002437 0.007979
f 1562 1564 1569 
f 1557 1556 1558 
f 1556 1557 1559 
f 1558 1556 1559 
f 1558 1559 1561 
f 1557 1558 1562 
f 1560 1557 1562 
f 1558 1561 1562 
f 1561 1559 1563 
f 1562 1561 1564 
f 1559 1557 1565 
f 1557 1560 1565 
f 1565 1560 1566 
f 1560 1555 1566 
f 1561 1563 1567 
f 1555 1564 1567 
f 1564 1561 1567 
f 1566 1555 1567 
f 1563 1566 1567 
f 1563 1559 1568 
f 1559 1565 1568 
f 1565 1566 1568 
f 1566 1563 1568 
f 1555 1560 1569 
f 1560 1562 1569 
f 1564 1555 1569 
o convex_101
v 0.001433 0.002620 -0.002861
v -0.000011 0.000453 -0.000691
v 0.000229 0.000453 -0.000691
v 0.000951 0.002861 -0.013693
v -0.000975 0.003102 -0.003342
v 0.001433 0.000694 0.006050
v -0.000975 0.001657 0.006533
v -0.000975 0.003102 -0.013693
v 0.001433 0.004065 -0.013693
v 0.000470 0.002379 0.005086
v -0.000975 0.000935 0.006773
v -0.000975 0.003583 -0.011285
v 0.001433 0.001176 0.000755
v 0.000951 0.000453 0.001717
v 0.001433 0.001176 0.006050
v 0.001433 0.004065 -0.012729
v 0.001433 0.003342 -0.013453
f 1582 1583 1586 
f 1572 1571 1573 
f 1573 1571 1577 
f 1576 1574 1577 
f 1570 1575 1578 
f 1573 1577 1578 
f 1574 1576 1579 
f 1577 1571 1580 
f 1576 1577 1580 
f 1577 1574 1581 
f 1578 1577 1581 
f 1578 1575 1582 
f 1571 1572 1583 
f 1572 1573 1583 
f 1580 1571 1583 
f 1575 1580 1583 
f 1582 1575 1583 
f 1575 1570 1584 
f 1570 1579 1584 
f 1579 1576 1584 
f 1580 1575 1584 
f 1576 1580 1584 
f 1570 1578 1585 
f 1579 1570 1585 
f 1574 1579 1585 
f 1581 1574 1585 
f 1578 1581 1585 
f 1573 1578 1586 
f 1578 1582 1586 
f 1583 1573 1586 
o convex_102
v -0.004106 0.001657 0.014963
v -0.000975 0.000694 0.026523
v -0.000975 0.000453 0.026523
v -0.006032 0.002620 0.026523
v -0.002179 0.002138 0.014963
v -0.001457 -0.000029 0.017372
v -0.002420 0.002138 0.026282
v -0.006032 0.003102 0.017613
v -0.006032 0.002139 0.014963
v -0.005791 0.002139 0.025318
v -0.000975 0.001175 0.015445
v -0.002902 0.002620 0.021464
v -0.005791 0.003102 0.024594
v -0.001216 0.001657 0.020743
v -0.001698 0.000213 0.023873
v -0.000975 0.000453 0.015204
v -0.005550 0.002861 0.015445
v -0.001698 0.000453 0.026523
f 1596 1601 1604 
f 1589 1588 1590 
f 1590 1588 1593 
f 1590 1594 1595 
f 1591 1587 1595 
f 1595 1592 1596 
f 1590 1595 1596 
f 1588 1589 1597 
f 1591 1594 1598 
f 1598 1594 1599 
f 1590 1593 1599 
f 1594 1590 1599 
f 1593 1598 1599 
f 1593 1588 1600 
f 1588 1597 1600 
f 1597 1591 1600 
f 1598 1593 1600 
f 1591 1598 1600 
f 1592 1589 1601 
f 1596 1592 1601 
f 1587 1591 1602 
f 1589 1592 1602 
f 1595 1587 1602 
f 1592 1595 1602 
f 1597 1589 1602 
f 1591 1597 1602 
f 1594 1591 1603 
f 1595 1594 1603 
f 1591 1595 1603 
f 1589 1590 1604 
f 1590 1596 1604 
f 1601 1589 1604 
