# Blender 5.0.1
# www.blender.org
mtllib ligacc.mtl
o Cube.003
v -0.002499 0.000400 -0.024730
v 0.002499 0.000400 -0.024730
v -0.002499 -0.000499 0.024985
v 0.002497 -0.000448 0.024888
v -0.002499 0.000499 -0.024985
v 0.002499 0.000499 -0.024985
v -0.002499 -0.000400 0.024730
v 0.002497 -0.000048 0.000157
v 0.002497 0.000401 -0.024700
v -0.002501 -0.000497 0.025015
v 0.002497 -0.000497 0.025015
v -0.002501 0.000501 -0.024956
v 0.002497 0.000501 -0.024956
v -0.002501 -0.000398 0.024759
v 0.002497 -0.000398 0.024759
v -0.000002 -0.000398 0.024759
v -0.002501 0.000051 -0.000099
v 0.002497 0.000051 -0.000099
v -0.000002 0.000501 -0.024956
v 0.002497 0.000451 -0.024829
v -0.000002 -0.000448 0.024888
v -0.000002 0.000051 -0.000099
v 0.002497 0.000002 0.000029
v -0.000002 0.000451 -0.024829
v -0.000002 0.000002 0.000029
v 0.002497 0.000002 0.000029
v 0.001247 0.000501 -0.024956
v 0.002497 -0.000173 0.012330
v -0.002501 0.000276 -0.012527
v 0.001247 -0.000398 0.024759
v 0.002497 -0.000472 0.024951
v 0.002497 0.000177 -0.012272
v 0.002497 -0.000273 0.012586
v 0.002497 -0.000423 0.024823
v -0.001252 -0.000398 0.024759
v -0.002501 -0.000173 0.012330
v 0.002497 0.000276 -0.012527
v -0.001252 0.000501 -0.024956
v 0.002497 0.000426 -0.024764
v 0.001247 -0.000472 0.024951
v 0.001247 -0.000173 0.012330
v 0.002497 -0.000248 0.012522
v -0.001252 0.000476 -0.024893
v -0.001252 -0.000198 0.012394
v 0.002497 0.000202 -0.012335
v 0.002497 0.000476 -0.024893
v -0.001252 -0.000423 0.024823
v -0.001252 0.000276 -0.012527
v 0.002497 0.000251 -0.012464
v 0.001247 0.000426 -0.024764
v 0.001247 0.000202 -0.012335
v 0.002497 -0.000198 0.012394
v 0.002497 0.000226 -0.012400
v 0.002497 0.000027 -0.000035
v 0.002497 0.000251 -0.012464
v 0.002497 -0.000023 0.000094
v 0.002497 -0.000248 0.012522
v 0.002497 -0.000223 0.012459
v 0.001247 -0.000023 0.000094
v -0.000002 -0.000223 0.012459
v 0.001247 -0.000248 0.012522
v -0.001252 0.000027 -0.000035
v -0.000002 0.000226 -0.012400
v -0.001252 0.000251 -0.012464
v 0.002497 0.000226 -0.012400
v 0.002497 -0.000023 0.000094
v 0.002497 0.000202 -0.012335
v -0.000002 0.000276 -0.012527
v 0.001247 0.000051 -0.000099
v 0.001247 0.000276 -0.012527
v -0.000002 -0.000423 0.024823
v 0.001247 -0.000448 0.024888
v 0.001247 -0.000423 0.024823
v 0.002497 -0.000198 0.012394
v 0.002497 -0.000223 0.012459
v 0.002497 0.000027 -0.000035
v -0.001252 -0.000173 0.012330
v -0.000002 -0.000173 0.012330
v -0.001252 0.000051 -0.000099
vn -0.0000 -0.9998 -0.0181
vn 0.0190 0.9997 0.0181
vn -0.0000 -0.9316 -0.3634
vn -1.0000 -0.0000 -0.0000
vn -0.0000 -0.9318 -0.3630
vn -0.7164 -0.6975 -0.0139
vn -0.7165 -0.6975 -0.0139
vn -0.7166 -0.6974 -0.0139
vn 0.9520 -0.2923 0.0904
vn 0.9521 -0.2923 0.0904
vn 0.0228 0.9981 -0.0571
vn -0.0000 0.9983 -0.0589
vn -0.0001 0.9317 0.3631
vn -0.0000 0.9317 0.3632
vn -0.0000 0.9317 0.3633
vn -0.0000 0.9998 0.0181
vn 1.0000 -0.0000 -0.0000
vn 0.0001 -0.9998 -0.0181
vn -0.0000 0.9316 0.3635
vn -0.0000 0.9317 0.3631
vn -0.0000 0.9316 0.3634
vn -0.7164 -0.6976 -0.0139
vn -0.0001 0.9318 0.3630
vt 0.625000 0.000000
vt 0.375000 0.250000
vt 0.375000 0.000000
vt 0.500000 0.750000
vt 0.500000 0.562500
vt 0.562500 0.687500
vt 0.562500 0.875000
vt 0.625000 0.750000
vt 0.375000 1.000000
vt 0.375000 0.750000
vt 0.375000 0.500000
vt 0.125000 0.750000
vt 0.125000 0.500000
vt 0.625000 0.375000
vt 0.625000 0.437500
vt 0.625000 0.562500
vt 0.625000 0.625000
vt 0.625000 0.500000
vt 0.625000 0.687500
vt 0.625000 0.812500
vt 0.625000 1.000000
vt 0.625000 0.875000
vt 0.000000 0.000000
vt 0.437500 0.750000
vt 0.562500 0.312500
vt 0.500000 0.375000
vt 0.562500 0.562500
vt 0.562500 0.500000
vt 0.875000 0.500000
vt 0.812500 0.562500
vt 0.812500 0.500000
vt 0.625000 0.125000
vt 0.625000 0.187500
vt 0.625000 0.250000
vt 0.625000 0.312500
vt 0.875000 0.562500
vt 0.562500 0.937500
vt 0.437500 0.437500
vt 0.437500 0.625000
vt 0.375000 0.562500
vt 0.375000 0.625000
vt 0.437500 0.687500
vt 0.500000 0.812500
vt 0.500000 0.875000
vt 0.437500 0.812500
vt 0.750000 0.625000
vt 0.750000 0.687500
vt 0.687500 0.687500
vt 0.812500 0.625000
vt 0.875000 0.625000
vt 0.875000 0.687500
vt 0.812500 0.687500
vt 0.500000 0.625000
vt 0.500000 0.687500
vt 0.562500 0.625000
vt 0.500000 0.437500
vt 0.562500 0.375000
vt 0.562500 0.437500
vt 0.750000 0.500000
vt 0.687500 0.562500
vt 0.687500 0.500000
vt 0.750000 0.562500
vt 0.687500 0.625000
vt 0.500000 0.500000
vt 0.437500 0.562500
vt 0.437500 0.500000
vt 0.375000 0.687500
vt 0.562500 0.750000
vt 0.812500 0.750000
vt 0.750000 0.750000
vt 0.875000 0.750000
vt 0.687500 0.750000
vt 0.625000 0.937500
vt 0.625000 0.062500
s 1
f 2/1/1 3/2/1 1/3/1
f 25/4/2 60/5/2 59/6/2
f 25/4/2 59/6/2 51/7/2
f 6/8/3 1/9/3 5/10/3
f 7/11/4 1/12/4 3/13/4
f 4/14/4 34/15/4 58/16/4
f 8/17/4 57/18/4 56/19/4
f 8/17/4 56/19/4 32/20/4
f 18/17/4 37/19/4 55/8/4
f 6/8/3 2/21/5 1/9/3
f 7/11/4 5/10/4 1/12/4
f 26/8/4 54/19/4 53/20/4
f 26/8/4 53/20/4 45/22/4
f 5/10/4 1/3/4 3/2/4
f 3/2/6 12/10/7 5/10/8
f 3/2/9 9/1/10 10/2/9
f 5/23/11 43/23/11 24/23/11
f 5/10/12 38/24/12 19/4/12
f 10/2/13 40/25/14 21/26/15
f 15/18/16 41/27/16 30/28/16
f 11/29/17 42/30/17 31/31/17
f 8/32/18 33/33/1 10/2/1
f 11/34/15 31/35/19 40/25/15
f 15/18/16 28/16/16 41/27/16
f 11/29/17 33/36/17 42/30/17
f 9/21/2 50/37/2 51/7/2
f 14/11/2 47/38/2 44/39/2
f 11/34/4 31/35/4 33/15/4
f 10/2/4 36/40/4 17/41/4
f 15/18/4 28/16/4 52/17/4
f 21/26/2 40/25/2 61/28/2
f 25/4/2 62/42/2 44/39/2
f 25/4/2 63/43/2 62/42/2
f 24/44/2 43/45/2 64/24/2
f 23/46/17 65/47/17 49/48/17
f 23/46/17 66/49/17 65/47/17
f 8/50/17 32/51/17 67/52/17
f 22/53/16 68/54/16 48/42/16
f 22/53/16 69/55/16 68/54/16
f 18/17/16 37/19/16 70/6/16
f 21/26/20 71/56/14 47/38/15
f 21/26/20 72/57/21 71/56/14
f 4/14/21 34/15/15 73/58/14
f 4/59/17 74/60/17 34/61/17
f 4/59/17 75/62/17 74/60/17
f 23/46/17 49/48/17 76/63/17
f 16/64/16 77/65/16 35/66/16
f 16/64/16 78/5/16 77/65/16
f 22/53/16 48/42/16 79/39/16
f 79/39/16 29/67/16 17/41/16
f 79/39/16 48/42/16 29/67/16
f 48/42/16 12/10/16 29/67/16
f 77/65/16 79/39/16 17/41/16
f 77/65/16 78/5/16 79/39/16
f 78/5/16 22/53/16 79/39/16
f 35/66/16 36/40/16 14/11/16
f 35/66/16 77/65/16 36/40/16
f 77/65/16 17/41/16 36/40/16
f 76/63/17 37/19/17 18/17/17
f 76/63/17 49/48/17 37/19/17
f 49/48/17 13/8/17 37/19/17
f 74/60/17 76/63/17 18/17/17
f 74/60/17 75/62/17 76/63/17
f 75/62/17 23/46/17 76/63/17
f 34/61/17 28/16/17 15/18/17
f 34/61/17 74/60/17 28/16/17
f 74/60/17 18/17/17 28/16/17
f 73/58/14 30/28/15 16/64/15
f 73/58/14 34/15/15 30/28/15
f 34/15/15 15/18/14 30/28/15
f 71/56/14 73/58/14 16/64/15
f 71/56/14 72/57/21 73/58/14
f 72/57/21 4/14/21 73/58/14
f 47/38/15 35/66/15 14/11/14
f 47/38/15 71/56/14 35/66/15
f 71/56/14 16/64/15 35/66/15
f 70/6/16 27/68/16 19/4/16
f 70/6/16 37/19/16 27/68/16
f 37/19/16 13/8/16 27/68/16
f 68/54/16 70/6/16 19/4/16
f 68/54/16 69/55/16 70/6/16
f 69/55/16 18/17/16 70/6/16
f 48/42/16 38/24/16 12/10/16
f 48/42/16 68/54/16 38/24/16
f 68/54/16 19/4/16 38/24/16
f 67/52/17 39/69/17 20/70/17
f 67/52/17 32/51/17 39/69/17
f 32/51/17 9/71/17 39/69/17
f 65/47/17 67/52/17 20/70/17
f 65/47/17 66/49/17 67/52/17
f 66/49/17 8/50/17 67/52/17
f 49/48/17 46/72/17 13/8/17
f 49/48/17 65/47/17 46/72/17
f 65/47/17 20/70/17 46/72/17
f 64/24/2 29/67/2 17/41/2
f 64/24/2 43/45/2 29/67/2
f 43/45/2 12/10/2 29/67/2
f 62/42/2 64/24/2 17/41/2
f 62/42/2 63/43/2 64/24/2
f 63/43/2 24/44/2 64/24/2
f 44/39/2 36/40/2 14/11/2
f 44/39/2 62/42/2 36/40/2
f 62/42/2 17/41/2 36/40/2
f 61/28/2 33/15/2 8/17/2
f 61/28/2 40/25/2 33/15/2
f 40/25/2 11/34/2 33/15/2
f 52/17/4 54/19/4 26/8/4
f 52/17/4 28/16/4 54/19/4
f 28/16/4 18/17/4 54/19/4
f 33/15/4 57/18/4 8/17/4
f 33/15/4 31/35/4 57/18/4
f 31/35/4 4/14/4 57/18/4
f 44/39/2 60/5/2 25/4/2
f 44/39/2 47/38/2 60/5/2
f 47/38/2 21/26/2 60/5/2
f 51/7/2 63/43/2 25/4/2
f 51/7/2 50/37/2 63/43/2
f 50/37/2 24/44/2 63/43/2
f 42/30/17 66/49/17 23/46/17
f 42/30/17 33/36/17 66/49/17
f 33/36/17 8/50/17 66/49/17
f 41/27/16 69/55/16 22/53/16
f 41/27/16 28/16/16 69/55/16
f 28/16/16 18/17/16 69/55/16
f 40/25/15 72/57/21 21/26/20
f 40/25/15 31/35/19 72/57/21
f 31/35/19 4/14/21 72/57/21
f 31/31/17 75/62/17 4/59/17
f 31/31/17 42/30/17 75/62/17
f 42/30/17 23/46/17 75/62/17
f 30/28/16 78/5/16 16/64/16
f 30/28/16 41/27/16 78/5/16
f 41/27/16 22/53/16 78/5/16
f 45/22/4 39/73/4 9/21/4
f 45/22/4 53/20/4 39/73/4
f 53/20/4 20/22/4 39/73/4
f 53/20/4 55/8/4 20/22/4
f 53/20/4 54/19/4 55/8/4
f 54/19/4 18/17/4 55/8/4
f 55/8/4 46/20/4 20/22/4
f 55/8/4 37/19/4 46/20/4
f 37/19/4 13/8/4 46/20/4
f 32/20/4 45/22/4 9/21/4
f 32/20/4 56/19/4 45/22/4
f 56/19/4 26/8/4 45/22/4
f 56/19/4 58/16/4 26/8/4
f 56/19/4 57/18/4 58/16/4
f 57/18/4 4/14/4 58/16/4
f 58/16/4 52/17/4 26/8/4
f 58/16/4 34/15/4 52/17/4
f 34/15/4 15/18/4 52/17/4
f 51/7/2 32/20/2 9/21/2
f 51/7/2 59/6/2 32/20/2
f 59/6/2 8/17/2 32/20/2
f 59/6/2 61/28/2 8/17/2
f 59/6/2 60/5/2 61/28/2
f 60/5/2 21/26/2 61/28/2
f 3/2/6 10/2/22 12/10/7
f 3/2/9 2/1/10 9/1/10
f 9/23/11 2/23/11 50/23/11
f 2/23/11 5/23/11 24/23/11
f 5/23/11 12/23/11 43/23/11
f 24/23/11 50/23/11 2/23/11
f 13/8/12 6/8/12 27/68/12
f 6/8/12 5/10/12 19/4/12
f 27/68/12 6/8/12 19/4/12
f 5/10/12 12/10/12 38/24/12
f 10/2/13 11/34/14 40/25/14
f 21/26/15 47/38/23 10/2/13
f 47/38/23 14/11/23 10/2/13
f 10/2/1 9/1/1 32/74/1
f 10/2/1 32/74/1 8/32/18
f 33/33/1 11/34/1 10/2/1
f 29/67/4 12/10/4 10/2/4
f 10/2/4 14/11/4 36/40/4
f 17/41/4 29/67/4 10/2/4
