# vtk DataFile Version 2.0
rectangle, Created by Gmsh 4.15.0 
ASCII
DATASET UNSTRUCTURED_GRID
POINTS 47 double
0 0 0
0.05 0 0
0.05 0.005 0
0 0.005 0
0 0 0.001
0.05 0 0.001
0.05 0.005 0.001
0 0.005 0.001
0.007142857142844035 0 0
0.01428571428567999 0 0
0.02142857142851528 0 0
0.02857142857137185 0 0
0.03571428571424797 0 0
0.04285714285712332 0 0
0.0428571428571626 0.005 0
0.03571428571432519 0.005 0
0.02857142857148779 0.005 0
0.02142857142863045 0.005 0
0.01428571428575356 0.005 0
0.007142857142877455 0.005 0
0.007142857142844035 0 0.001
0.01428571428567999 0 0.001
0.02142857142851528 0 0.001
0.02857142857137185 0 0.001
0.03571428571424797 0 0.001
0.04285714285712332 0 0.001
0.0428571428571626 0.005 0.001
0.03571428571432519 0.005 0.001
0.02857142857148779 0.005 0.001
0.02142857142863045 0.005 0.001
0.01428571428575356 0.005 0.001
0.007142857142877455 0.005 0.001
0.003571428571430372 0.002499999999999999 0
0.04642857142857147 0.002499999999999999 0
0.01071428571426201 0.002499999999976127 0
0.03928571428573632 0.002500000000020748 0
0.01785714285713134 0.002499999999984986 0
0.032142857142872 0.00250000000001576 0
0.02500000000000134 0.002499999999999999 0
0.003571428571430372 0.002499999999999999 0.001
0.04642857142857147 0.002499999999999999 0.001
0.01071428571426201 0.002499999999976127 0.001
0.03928571428573632 0.002500000000020748 0.001
0.01785714285713134 0.002499999999984986 0.001
0.032142857142872 0.00250000000001576 0.001
0.02500000000000134 0.002499999999999999 0.001
0.02499999999996282 0.0008333333333333331 0.0005

CELLS 89 445
4 22 23 10 46
4 23 11 10 46
4 40 2 33 14
4 12 35 42 13
4 40 33 1 13
4 34 20 9 41
4 30 36 17 43
4 22 38 45 46
4 31 3 39 7
4 25 1 40 5
4 20 34 9 8
4 4 0 39 20
4 40 2 14 6
4 17 29 30 43
4 13 24 42 12
4 19 34 18 31
4 25 1 13 40
4 42 27 26 15
4 9 41 20 21
4 28 38 17 16
4 16 27 37 15
4 14 40 6 26
4 44 11 24 23
4 36 9 10 21
4 18 36 17 30
4 13 24 25 42
4 45 38 11 46
4 38 22 10 46
4 23 45 11 46
4 1 40 2 33
4 42 15 35 12
4 40 14 33 13
4 3 39 0 32
4 38 28 45 11
4 21 36 30 43
4 41 31 34 20
4 5 2 40 6
4 40 1 2 5
4 3 4 39 7
4 22 29 17 43
4 8 34 19 20
4 42 27 15 12
4 4 3 39 0
4 27 42 24 12
4 22 17 38 10
4 37 27 12 15
4 31 19 34 20
4 9 30 41 21
4 40 26 14 13
4 26 40 25 13
4 28 38 16 11
4 11 44 28 23
4 28 23 45 11
4 36 21 30 9
4 30 36 9 18
4 25 42 26 13
4 38 10 11 46
4 45 23 22 46
4 19 20 32 8
4 0 32 20 8
4 0 20 32 39
4 22 17 45 38
4 22 45 17 29
4 28 45 17 38
4 28 17 45 29
4 24 27 37 44
4 37 27 24 12
4 37 11 24 44
4 24 11 37 12
4 21 10 43 22
4 21 43 10 36
4 17 43 10 22
4 17 10 43 36
4 15 26 35 14
4 15 35 26 42
4 13 35 26 14
4 13 26 35 42
4 11 16 44 37
4 11 44 16 28
4 27 44 16 37
4 27 16 44 28
4 31 18 41 34
4 31 41 18 30
4 9 41 18 34
4 9 18 41 30
4 20 31 32 39
4 20 32 31 19
4 3 32 31 39
4 3 31 32 19

CELL_TYPES 89
10
10
10
10
10
10
10
10
10
10
10
10
10
10
10
10
10
10
10
10
10
10
10
10
10
10
10
10
10
10
10
10
10
10
10
10
10
10
10
10
10
10
10
10
10
10
10
10
10
10
10
10
10
10
10
10
10
10
10
10
10
10
10
10
10
10
10
10
10
10
10
10
10
10
10
10
10
10
10
10
10
10
10
10
10
10
10
10
10

CELL_DATA 89
SCALARS CellEntityIds int 1
LOOKUP_TABLE default
1
1
1
1
1
1
1
1
1
1
1
1
1
1
1
1
1
1
1
1
1
1
1
1
1
1
1
1
1
1
1
1
1
1
1
1
1
1
1
1
1
1
1
1
1
1
1
1
1
1
1
1
1
1
1
1
1
1
1
1
1
1
1
1
1
1
1
1
1
1
1
1
1
1
1
1
1
1
1
1
1
1
1
1
1
1
1
1
1
