# vtk DataFile Version 2.0
rectangle, Created by Gmsh 4.15.0 
ASCII
DATASET UNSTRUCTURED_GRID
POINTS 842 double
-0.025 -0.0025 -0.0005
0.025 -0.0025 -0.0005
0.025 0.0025 -0.0005
-0.025 0.0025 -0.0005
-0.025 -0.0025 0.0005
0.025 -0.0025 0.0005
0.025 0.0025 0.0005
-0.025 0.0025 0.0005
-0.02400000000000149 -0.0025 -0.0005
-0.02300000000000434 -0.0025 -0.0005
-0.02200000000000718 -0.0025 -0.0005
-0.02100000000000986 -0.0025 -0.0005
-0.02000000000001097 -0.0025 -0.0005
-0.01900000000001276 -0.0025 -0.0005
-0.01800000000001449 -0.0025 -0.0005
-0.01700000000001734 -0.0025 -0.0005
-0.01600000000002018 -0.0025 -0.0005
-0.01500000000002303 -0.0025 -0.0005
-0.01400000000002587 -0.0025 -0.0005
-0.01300000000002872 -0.0025 -0.0005
-0.01200000000003156 -0.0025 -0.0005
-0.01100000000003441 -0.0025 -0.0005
-0.01000000000003725 -0.0025 -0.0005
-0.009000000000040097 -0.0025 -0.0005
-0.008000000000042942 -0.0025 -0.0005
-0.007000000000045786 -0.0025 -0.0005
-0.006000000000049743 -0.0025 -0.0005
-0.00500000000005283 -0.0025 -0.0005
-0.004000000000055674 -0.0025 -0.0005
-0.003000000000058518 -0.0025 -0.0005
-0.002000000000061366 -0.0025 -0.0005
-0.00100000000006421 -0.0025 -0.0005
-6.63809285317285e-14 -0.0025 -0.0005
0.0009999999999356843 -0.0025 -0.0005
0.001999999999938339 -0.0025 -0.0005
0.002999999999941161 -0.0025 -0.0005
0.003999999999943736 -0.0025 -0.0005
0.00499999999994663 -0.0025 -0.0005
0.005999999999949122 -0.0025 -0.0005
0.006999999999952114 -0.0025 -0.0005
0.007999999999954197 -0.0025 -0.0005
0.008999999999957584 -0.0025 -0.0005
0.009999999999959507 -0.0025 -0.0005
0.01099999999996306 -0.0025 -0.0005
0.01199999999996482 -0.0025 -0.0005
0.01299999999996815 -0.0025 -0.0005
0.01399999999996992 -0.0025 -0.0005
0.01499999999997346 -0.0025 -0.0005
0.01599999999997539 -0.0025 -0.0005
0.01699999999997877 -0.0025 -0.0005
0.01799999999998086 -0.0025 -0.0005
0.01899999999998408 -0.0025 -0.0005
0.01999999999998633 -0.0025 -0.0005
0.02099999999998939 -0.0025 -0.0005
0.0219999999999918 -0.0025 -0.0005
0.0229999999999947 -0.0025 -0.0005
0.02399999999999727 -0.0025 -0.0005
0.025 -0.001500000000001963 -0.0005
0.025 -0.000500000000004944 -0.0005
0.025 0.000499999999994886 -0.0005
0.025 0.00149999999999736 -0.0005
0.02400000000000149 0.0025 -0.0005
0.02300000000000434 0.0025 -0.0005
0.02200000000000718 0.0025 -0.0005
0.02100000000000986 0.0025 -0.0005
0.02000000000001097 0.0025 -0.0005
0.01900000000001276 0.0025 -0.0005
0.01800000000001449 0.0025 -0.0005
0.01700000000001734 0.0025 -0.0005
0.01600000000002018 0.0025 -0.0005
0.01500000000002303 0.0025 -0.0005
0.01400000000002587 0.0025 -0.0005
0.01300000000002872 0.0025 -0.0005
0.01200000000003156 0.0025 -0.0005
0.01100000000003441 0.0025 -0.0005
0.01000000000003725 0.0025 -0.0005
0.009000000000040097 0.0025 -0.0005
0.008000000000042942 0.0025 -0.0005
0.007000000000045786 0.0025 -0.0005
0.006000000000049743 0.0025 -0.0005
0.00500000000005283 0.0025 -0.0005
0.004000000000055674 0.0025 -0.0005
0.003000000000058518 0.0025 -0.0005
0.002000000000061366 0.0025 -0.0005
0.00100000000006421 0.0025 -0.0005
6.63809285317285e-14 0.0025 -0.0005
-0.0009999999999356843 0.0025 -0.0005
-0.001999999999938339 0.0025 -0.0005
-0.002999999999941161 0.0025 -0.0005
-0.003999999999943736 0.0025 -0.0005
-0.00499999999994663 0.0025 -0.0005
-0.005999999999949122 0.0025 -0.0005
-0.006999999999952114 0.0025 -0.0005
-0.007999999999954197 0.0025 -0.0005
-0.008999999999957584 0.0025 -0.0005
-0.009999999999959507 0.0025 -0.0005
-0.01099999999996306 0.0025 -0.0005
-0.01199999999996482 0.0025 -0.0005
-0.01299999999996815 0.0025 -0.0005
-0.01399999999996992 0.0025 -0.0005
-0.01499999999997346 0.0025 -0.0005
-0.01599999999997539 0.0025 -0.0005
-0.01699999999997877 0.0025 -0.0005
-0.01799999999998086 0.0025 -0.0005
-0.01899999999998408 0.0025 -0.0005
-0.01999999999998633 0.0025 -0.0005
-0.02099999999998939 0.0025 -0.0005
-0.0219999999999918 0.0025 -0.0005
-0.0229999999999947 0.0025 -0.0005
-0.02399999999999727 0.0025 -0.0005
-0.025 0.001500000000001963 -0.0005
-0.025 0.000500000000004944 -0.0005
-0.025 -0.000499999999994886 -0.0005
-0.025 -0.00149999999999736 -0.0005
-0.02400000000000149 -0.0025 0.0005
-0.02300000000000434 -0.0025 0.0005
-0.02200000000000718 -0.0025 0.0005
-0.02100000000000986 -0.0025 0.0005
-0.02000000000001097 -0.0025 0.0005
-0.01900000000001276 -0.0025 0.0005
-0.01800000000001449 -0.0025 0.0005
-0.01700000000001734 -0.0025 0.0005
-0.01600000000002018 -0.0025 0.0005
-0.01500000000002303 -0.0025 0.0005
-0.01400000000002587 -0.0025 0.0005
-0.01300000000002872 -0.0025 0.0005
-0.01200000000003156 -0.0025 0.0005
-0.01100000000003441 -0.0025 0.0005
-0.01000000000003725 -0.0025 0.0005
-0.009000000000040097 -0.0025 0.0005
-0.008000000000042942 -0.0025 0.0005
-0.007000000000045786 -0.0025 0.0005
-0.006000000000049743 -0.0025 0.0005
-0.00500000000005283 -0.0025 0.0005
-0.004000000000055674 -0.0025 0.0005
-0.003000000000058518 -0.0025 0.0005
-0.002000000000061366 -0.0025 0.0005
-0.00100000000006421 -0.0025 0.0005
-6.63809285317285e-14 -0.0025 0.0005
0.0009999999999356843 -0.0025 0.0005
0.001999999999938339 -0.0025 0.0005
0.002999999999941161 -0.0025 0.0005
0.003999999999943736 -0.0025 0.0005
0.00499999999994663 -0.0025 0.0005
0.005999999999949122 -0.0025 0.0005
0.006999999999952114 -0.0025 0.0005
0.007999999999954197 -0.0025 0.0005
0.008999999999957584 -0.0025 0.0005
0.009999999999959507 -0.0025 0.0005
0.01099999999996306 -0.0025 0.0005
0.01199999999996482 -0.0025 0.0005
0.01299999999996815 -0.0025 0.0005
0.01399999999996992 -0.0025 0.0005
0.01499999999997346 -0.0025 0.0005
0.01599999999997539 -0.0025 0.0005
0.01699999999997877 -0.0025 0.0005
0.01799999999998086 -0.0025 0.0005
0.01899999999998408 -0.0025 0.0005
0.01999999999998633 -0.0025 0.0005
0.02099999999998939 -0.0025 0.0005
0.0219999999999918 -0.0025 0.0005
0.0229999999999947 -0.0025 0.0005
0.02399999999999727 -0.0025 0.0005
0.025 -0.001500000000001963 0.0005
0.025 -0.000500000000004944 0.0005
0.025 0.000499999999994886 0.0005
0.025 0.00149999999999736 0.0005
0.02400000000000149 0.0025 0.0005
0.02300000000000434 0.0025 0.0005
0.02200000000000718 0.0025 0.0005
0.02100000000000986 0.0025 0.0005
0.02000000000001097 0.0025 0.0005
0.01900000000001276 0.0025 0.0005
0.01800000000001449 0.0025 0.0005
0.01700000000001734 0.0025 0.0005
0.01600000000002018 0.0025 0.0005
0.01500000000002303 0.0025 0.0005
0.01400000000002587 0.0025 0.0005
0.01300000000002872 0.0025 0.0005
0.01200000000003156 0.0025 0.0005
0.01100000000003441 0.0025 0.0005
0.01000000000003725 0.0025 0.0005
0.009000000000040097 0.0025 0.0005
0.008000000000042942 0.0025 0.0005
0.007000000000045786 0.0025 0.0005
0.006000000000049743 0.0025 0.0005
0.00500000000005283 0.0025 0.0005
0.004000000000055674 0.0025 0.0005
0.003000000000058518 0.0025 0.0005
0.002000000000061366 0.0025 0.0005
0.00100000000006421 0.0025 0.0005
6.63809285317285e-14 0.0025 0.0005
-0.0009999999999356843 0.0025 0.0005
-0.001999999999938339 0.0025 0.0005
-0.002999999999941161 0.0025 0.0005
-0.003999999999943736 0.0025 0.0005
-0.00499999999994663 0.0025 0.0005
-0.005999999999949122 0.0025 0.0005
-0.006999999999952114 0.0025 0.0005
-0.007999999999954197 0.0025 0.0005
-0.008999999999957584 0.0025 0.0005
-0.009999999999959507 0.0025 0.0005
-0.01099999999996306 0.0025 0.0005
-0.01199999999996482 0.0025 0.0005
-0.01299999999996815 0.0025 0.0005
-0.01399999999996992 0.0025 0.0005
-0.01499999999997346 0.0025 0.0005
-0.01599999999997539 0.0025 0.0005
-0.01699999999997877 0.0025 0.0005
-0.01799999999998086 0.0025 0.0005
-0.01899999999998408 0.0025 0.0005
-0.01999999999998633 0.0025 0.0005
-0.02099999999998939 0.0025 0.0005
-0.0219999999999918 0.0025 0.0005
-0.0229999999999947 0.0025 0.0005
-0.02399999999999727 0.0025 0.0005
-0.025 0.001500000000001963 0.0005
-0.025 0.000500000000004944 0.0005
-0.025 -0.000499999999994886 0.0005
-0.025 -0.00149999999999736 0.0005
0.02150000000000852 0.001633974596217953 -0.0005
-0.02150000000000852 -0.001633974596217953 -0.0005
0.01750000000001591 0.001633974596218024 -0.0005
-0.01750000000001591 -0.001633974596218024 -0.0005
-0.01950000000001186 -0.001633974596217107 -0.0005
0.01950000000001186 0.001633974596217107 -0.0005
0.01550000000002161 0.001633974596218025 -0.0005
-0.01550000000002161 -0.001633974596218025 -0.0005
-0.01350000000002729 -0.001633974596218024 -0.0005
0.01350000000002729 0.001633974596218024 -0.0005
0.01150000000003299 0.001633974596218025 -0.0005
-0.01150000000003299 -0.001633974596218025 -0.0005
-0.006500000000047764 -0.001633974596218988 -0.0005
0.006500000000047764 0.001633974596218988 -0.0005
-0.009500000000038674 -0.001633974596218025 -0.0005
0.009500000000038674 0.001633974596218025 -0.0005
0.004500000000054253 0.001633974596218129 -0.0005
-0.004500000000054253 -0.001633974596218129 -0.0005
-0.002500000000059943 -0.001633974596218027 -0.0005
0.002486693610128471 0.001658003079258478 -0.0005
-0.0005000000000652954 -0.001633974596217732 -0.0005
0.0005000000000653516 0.001633974596217491 -0.0005
0.008499999999956938 -0.001633974596214046 -0.0005
-0.008499999999956936 0.001633974596214046 -0.0005
0.02249999999998748 -0.001633974596194823 -0.0005
-0.02249999999998748 0.001633974596194823 -0.0005
0.02049999999998271 -0.00163397459620138 -0.0005
-0.02049999999998271 0.00163397459620138 -0.0005
0.01849999999997846 -0.001633974596204766 -0.0005
-0.01849999999997846 0.001633974596204766 -0.0005
0.01649999999997326 -0.00163397459620578 -0.0005
-0.01649999999997326 0.00163397459620578 -0.0005
0.01449999999996994 -0.001633974596210503 -0.0005
-0.01449999999996994 0.001633974596210503 -0.0005
0.01249999999996649 -0.00163397459621403 -0.0005
-0.01249999999996649 0.00163397459621403 -0.0005
0.01049999999996153 -0.001633974596214084 -0.0005
-0.01049999999996153 0.001633974596214084 -0.0005
0.005499999999947876 -0.001633974596213402 -0.0005
-0.005499999999948674 0.001633974596213726 -0.0005
0.003499999999941837 -0.001633974596213656 -0.0005
-0.003499999999942748 0.001633974596213727 -0.0005
0.001513306389890566 -0.001658003079242071 -0.0005
-0.001499999999936851 0.001633974596215298 -0.0005
0.02418622421910237 4.833952747442767e-05 -0.0005
-0.02418622421910237 -4.833952747442767e-05 -0.0005
-0.02343057453866396 -0.001540489726883619 -0.0005
0.02343057453866396 0.001540489726883619 -0.0005
0.01149999999996335 -0.001633974596213903 -0.0005
0.01099999999996219 -0.0007679491924288464 -0.0005
0.009999999999961352 -0.0007679491924289279 -0.0005
0.01049999999996112 9.807621135597795e-05 -0.0005
0.009499999999961161 9.807621135563762e-05 -0.0005
0.01149999999996105 9.80762113562857e-05 -0.0005
0.01199999999996446 -0.0007679491924284805 -0.0005
0.0129999999999659 -0.0007679491924282913 -0.0005
0.01249999999996147 9.807621135845855e-05 -0.0005
0.01349999999996237 9.807621135923121e-05 -0.0005
0.01399999999996606 -0.000767949192424805 -0.0005
0.01449999999996225 9.807621136325572e-05 -0.0005
0.01499999999996673 -0.0007679491924211003 -0.0005
0.0154999999999621 9.807621136747679e-05 -0.0005
0.01599999999996628 -0.0007679491924157734 -0.0005
0.01649999999996198 9.807621137170273e-05 -0.0005
0.01699999999996558 -0.0007679491924105444 -0.0005
0.0174999999999619 9.807621137593654e-05 -0.0005
0.01799999999996559 -0.0007679491924063639 -0.0005
0.01849999999996195 9.807621138024896e-05 -0.0005
0.01899999999996872 -0.0007679491924054773 -0.0005
0.01949999999996223 9.807621138461368e-05 -0.0005
0.01999999999996607 -0.000767949192397967 -0.0005
0.02049999999996258 9.807621138889368e-05 -0.0005
0.02099999999997033 -0.0007679491923979363 -0.0005
0.02149999999996288 9.807621139308374e-05 -0.0005
0.02199999999996667 -0.0007679491923895023 -0.0005
0.02257607670563701 9.276596910976077e-05 -0.0005
0.02303118576440211 -0.0008505796936378278 -0.0005
0.02349832629271455 -0.001651311894836947 -0.0005
0.01549999999997084 -0.001633974596208859 -0.0005
0.01749999999997547 -0.001633974596203871 -0.0005
0.01949999999997985 -0.001633974596200153 -0.0005
0.02149999999998589 -0.001633974596194134 -0.0005
-0.01149999999996335 0.001633974596213903 -0.0005
-0.01099999999996219 0.0007679491924288464 -0.0005
-0.009999999999961352 0.0007679491924289279 -0.0005
-0.01049999999996112 -9.807621135597795e-05 -0.0005
-0.009499999999961161 -9.807621135563762e-05 -0.0005
-0.01149999999996105 -9.80762113562857e-05 -0.0005
-0.01199999999996446 0.0007679491924284805 -0.0005
-0.0129999999999659 0.0007679491924282913 -0.0005
-0.01249999999996147 -9.807621135845855e-05 -0.0005
-0.01349999999996237 -9.807621135923121e-05 -0.0005
-0.01399999999996606 0.000767949192424805 -0.0005
-0.01449999999996225 -9.807621136325572e-05 -0.0005
-0.01499999999996673 0.0007679491924211003 -0.0005
-0.0154999999999621 -9.807621136747679e-05 -0.0005
-0.01599999999996628 0.0007679491924157734 -0.0005
-0.01649999999996198 -9.807621137170273e-05 -0.0005
-0.01699999999996558 0.0007679491924105444 -0.0005
-0.0174999999999619 -9.807621137593654e-05 -0.0005
-0.01799999999996559 0.0007679491924063639 -0.0005
-0.01849999999996195 -9.807621138024896e-05 -0.0005
-0.01899999999996872 0.0007679491924054773 -0.0005
-0.01949999999996223 -9.807621138461368e-05 -0.0005
-0.01999999999996607 0.000767949192397967 -0.0005
-0.02049999999996258 -9.807621138889368e-05 -0.0005
-0.02099999999997033 0.0007679491923979363 -0.0005
-0.02149999999996288 -9.807621139308374e-05 -0.0005
-0.02199999999996667 0.0007679491923895023 -0.0005
-0.02257607670563701 -9.276596910976077e-05 -0.0005
-0.02303118576440211 0.0008505796936378278 -0.0005
-0.02349832629271455 0.001651311894836947 -0.0005
-0.01549999999997084 0.001633974596208859 -0.0005
-0.01749999999997547 0.001633974596203871 -0.0005
-0.01949999999997985 0.001633974596200153 -0.0005
-0.02149999999998589 0.001633974596194134 -0.0005
0.008999999999959377 -0.0007679491924289127 -0.0005
0.008499999999958232 8.170158856572094e-05 -0.0005
-0.008999999999959376 0.0007679491924289126 -0.0005
-0.008499999999958232 -8.170158856572099e-05 -0.0005
0.01349999999996774 -0.001633974596212938 -0.0005
-0.01349999999996774 0.001633974596212938 -0.0005
0.007499999999953513 -0.001633974596213912 -0.0005
0.007999999999956004 -0.0007706782962270758 -0.0005
0.006999999999953972 -0.0007684040430614077 -0.0005
0.007499999999955993 7.844182570350935e-05 -0.0005
0.006499999999958622 8.868719010264557e-05 -0.0005
0.007999999999977459 0.0008753316228694136 -0.0005
0.005999999999951489 -0.0007695898377423675 -0.0005
0.005499999999961923 8.908767840215366e-05 -0.0005
-0.007499999999953513 0.001633974596213912 -0.0005
-0.007999999999956004 0.0007706782962270762 -0.0005
-0.00699999999995397 0.0007684040430614082 -0.0005
-0.007499999999955992 -7.8441825703509e-05 -0.0005
-0.006499999999958619 -8.868719010264383e-05 -0.0005
-0.007999999999977459 -0.0008753316228694141 -0.0005
-0.00599999999995229 0.000769589837742757 -0.0005
-0.005499999999962236 -8.908767840200744e-05 -0.0005
-0.0004999999999323582 0.001633974596217542 -0.0005
6.664377527841139e-14 0.0007679491924344808 -0.0005
0.0009866936101331192 0.0007756316402438935 -0.0005
0.0005000000000663032 -9.807621134821485e-05 -0.0005
0.001498415905995996 -3.87829369896914e-05 -0.0005
-0.0004999999999323565 -9.807621134902659e-05 -0.0005
0.002515524121530642 -0.001645661791194337 -0.0005
0.003015893743471178 -0.0007775795060671597 -0.0005
0.004002648957196909 -0.0007695542447007375 -0.0005
0.003499999999940806 9.8076211357646e-05 -0.0005
0.002501703529681867 4.560977135598932e-05 -0.0005
0.004499999999941122 9.80762113582486e-05 -0.0005
0.005000441492823946 -0.0007699882308516364 -0.0005
-0.004499999999945279 0.001633974596213807 -0.0005
-0.003999999999943913 0.000767949192427984 -0.0005
-0.002999999999942641 0.0007679491924278107 -0.0005
-0.003499999999943259 -9.807621135751134e-05 -0.0005
-0.002499999999942906 -9.807621135771593e-05 -0.0005
-0.004499999999954143 -8.917623237301321e-05 -0.0005
-0.001999999999939611 0.0007679491924291316 -0.0005
-0.001499999999942821 -9.807621135830509e-05 -0.0005
-0.004999999999947441 0.0007687964590726201 -0.0005
0.0005008082111874132 -0.00164734807202647 -0.0005
0.004500515074966823 -0.001634581944663238 -0.0005
-0.02050000000001089 -0.001633974596217727 -0.0005
0.02050000000001089 0.001633974596217727 -0.0005
-0.006499999999951612 0.001634323845538633 -0.0005
0.006499999999951348 -0.001634323845538514 -0.0005
-0.002499999999940225 0.001633974596214328 -0.0005
-0.01850000000001363 -0.001633974596217695 -0.0005
0.01850000000001363 0.001633974596217695 -0.0005
0.009499999999959381 -0.001633974596214328 -0.0005
-0.009499999999959381 0.001633974596214328 -0.0005
-0.00550000000005133 -0.001633974596218762 -0.0005
0.00550000000005133 0.001633974596218762 -0.0005
0.001482258146820871 0.001646942199168213 -0.0005
-0.01250000000003014 -0.00163397459621804 -0.0005
0.01250000000003014 0.00163397459621804 -0.0005
-0.01450000000002446 -0.001633974596218039 -0.0005
0.01450000000002446 0.001633974596218039 -0.0005
0.01050000000003583 0.001633974596218025 -0.0005
-0.01050000000003583 -0.001633974596218025 -0.0005
-0.01650000000001876 -0.001633974596218035 -0.0005
0.01650000000001876 0.001633974596218035 -0.0005
-0.001500000000062787 -0.001633974596218025 -0.0005
0.003499191788812477 0.001647348072033087 -0.0005
-0.003500000000057095 -0.001633974596218027 -0.0005
-0.02244505661385015 -0.001661935185901291 -0.0005
0.02244505661385015 0.001661935185901291 -0.0005
-0.0009999999999362255 0.00076794919243152 -0.0005
0.02420479477071085 0.0009760332439188358 -0.0005
-0.02420479477071085 -0.0009760332439188358 -0.0005
0.02406177665567497 -0.0009186978721886413 -0.0005
-0.02406177665567497 0.0009186978721886413 -0.0005
0.02343103108326737 0.0005632276673307968 -0.0005
-0.02343103108326737 -0.0005632276673307968 -0.0005
-0.008579838339568109 -0.001680069283035355 -0.0005
0.008579838339568111 0.001680069283035355 -0.0005
-0.007420161660466455 -0.001680069283065624 -0.0005
0.007420161660466454 0.001680069283065624 -0.0005
0.001971922950946826 0.0008222779127568063 -0.0005
0.002028149488751387 -0.0008207319352564923 -0.0005
-0.0130000000000287 -0.0008660254038097562 -0.0005
0.0130000000000287 0.0008660254038097562 -0.0005
0.0110000000000344 0.0008660254038105745 -0.0005
-0.0110000000000344 -0.0008660254038105745 -0.0005
-0.01200000000002547 -0.0008660254038065876 -0.0005
0.01200000000002547 0.0008660254038065876 -0.0005
-0.0140000000000259 -0.0008660254038109065 -0.0005
0.0140000000000259 0.0008660254038109065 -0.0005
-0.009999999999998743 -0.0008659968162262629 -0.0005
0.009999999999998743 0.0008659968162262627 -0.0005
0.01500000000001774 0.0008660254038085785 -0.0005
-0.01500000000001774 -0.0008660254038085785 -0.0005
0.01600000000001491 0.0008660254038097942 -0.0005
-0.01600000000001491 -0.0008660254038097942 -0.0005
0.01700000000001231 0.0008660254038111717 -0.0005
-0.01700000000001231 -0.0008660254038111717 -0.0005
0.01800000000000979 0.0008660254038125609 -0.0005
-0.01800000000000979 -0.0008660254038125609 -0.0005
-0.006000000000049723 -0.0008660254038183476 -0.0005
0.006000000000049723 0.0008660254038183478 -0.0005
-0.01900000000001229 -0.0008660254038170225 -0.0005
0.01900000000001229 0.0008660254038170225 -0.0005
-0.005000000000053278 -0.0008660254038198125 -0.0005
0.005000000000053279 0.0008660254038198124 -0.0005
-0.02000000000000745 -0.0008660254038160686 -0.0005
0.02000000000000745 0.0008660254038160686 -0.0005
0.02100000000000555 0.0008660254038174671 -0.0005
-0.02100000000000555 -0.0008660254038174671 -0.0005
0.02196014974397897 0.0008806497924873678 -0.0005
-0.02196014974397897 -0.0008806497924873678 -0.0005
-0.004000000000055752 -0.0008660254038237448 -0.0005
-0.003000000000058519 -0.0008660254038248278 -0.0005
0.004000000000055751 0.0008660254038250177 -0.0005
0.002993251979927699 0.0008562234084311706 -0.0005
-0.002000000000061367 -0.0008660254038259713 -0.0005
-6.659783042615483e-14 -0.0008660254038266569 -0.0005
-0.001000000000048816 -0.0008660254038170395 -0.0005
0.001006779999304178 -0.0008548279397815996 -0.0005
-0.006999999999954688 -0.000865853878446939 -0.0005
0.006999999999954694 0.0008658538784469373 -0.0005
-0.008999999999961284 -0.0008658538783993376 -0.0005
0.008999999999961284 0.0008658538783993364 -0.0005
0.02426794919242547 -0.001767949192426722 -0.0005
-0.02426794919242547 0.001767949192426722 -0.0005
-0.02426794919243346 -0.001767949192432348 -0.0005
0.02426794919243346 0.001767949192432348 -0.0005
-0.02274726529868652 -0.0009354665258903979 -0.0005
0.02274726529868652 0.0009354665258903979 -0.0005
0.02344875112108032 -0.0002093838518865142 -0.0005
-0.02344875112108032 0.0002093838518865142 -0.0005
0.0004999999999346569 -0.0025 -1.734723475976807e-18
-0.007500000000044336 -0.0025 2.092510192897024e-17
-0.005500000000051283 -0.0025 1.301042606982605e-18
-0.006500000000047766 -0.0025 0
-0.02050000000001042 -0.0025 -2.168404344971009e-19
0.01049999999996125 -0.0025 1.517883041479706e-18
0.0144999999999716 -0.0025 7.047314121155779e-18
0.008499999999955911 -0.0025 2.059984127722458e-18
0.01649999999997707 -0.0025 2.49366499671666e-18
0.01249999999996648 -0.0025 2.602085213965211e-18
-0.02450000000000074 -0.0025 1.301042606982605e-18
-0.01850000000001363 -0.0025 2.168404344971009e-19
0.01849999999998255 -0.0025 2.818925648462312e-18
-0.004500000000054238 -0.0025 -4.87890977618477e-18
-0.0005000000000641401 -0.0025 6.505213034913027e-19
0.02049999999998778 -0.0025 0
0.006499999999950663 -0.0025 -1.843143693225358e-18
0.02249999999999324 -0.0025 3.577867169202165e-18
-0.02150000000000823 -0.0025 -1.084202172485504e-19
0.004499999999945197 -0.0025 4.87890977618477e-18
-0.003500000000057082 -0.0025 1.235990476633475e-17
-0.001500000000062805 -0.0025 3.144186300207963e-18
-0.0155000000000216 -0.0025 -1.084202172485504e-18
-0.01150000000003298 -0.0025 0
-0.00950000000003867 -0.0025 1.734723475976807e-18
-0.002500000000059947 -0.0025 8.131516293641283e-18
-0.01450000000002445 -0.0025 -1.192622389734055e-18
-0.008500000000041526 -0.0025 1.105886215935215e-17
-0.01650000000001876 -0.0025 -3.252606517456513e-19
-0.01350000000002729 -0.0025 -1.409462824231156e-18
-0.01050000000003583 -0.0025 5.421010862427522e-19
-0.02250000000000558 -0.0025 -1.084202172485504e-19
-0.02350000000000291 -0.0025 0
-0.01750000000001618 -0.0025 0
-0.01250000000003014 -0.0025 -2.168404344971009e-19
0.002499999999939728 -0.0025 -3.252606517456513e-19
0.02449999999999863 -0.0025 0
0.001499999999937014 -0.0025 1.951563910473908e-18
0.003499999999942445 -0.0025 3.577867169202165e-18
0.02349999999999598 -0.0025 -4.336808689942018e-19
0.005499999999947863 -0.0025 3.794707603699266e-18
0.02149999999999062 -0.0025 1.084202172485504e-19
0.01949999999998518 -0.0025 -2.059984127722458e-18
0.01749999999997986 -0.0025 -1.951563910473908e-18
0.007499999999953121 -0.0025 0
0.01549999999997453 -0.0025 -4.228388472693467e-18
0.009499999999958549 -0.0025 1.084202172485504e-18
-0.01950000000001201 -0.0025 1.084202172485504e-19
0.01350000000664483 -0.0025 0
0.01149999999996391 -0.0025 4.336808689942018e-19
0.025 -5.028963356856764e-15 0
0.025 -0.002000000000000981 2.168404344971009e-19
0.025 -0.001000000000003454 0
0.025 0.0009999999999961229 0
0.025 0.00199999999999868 -3.252606517456513e-19
-0.0004999999999346569 0.0025 -1.734723475976807e-18
0.007500000000044336 0.0025 2.038300084272748e-17
0.005500000000051283 0.0025 0
0.006500000000047804 0.0025 1.008308020411519e-17
0.02050000000001042 0.0025 -2.168404344971009e-19
-0.01049999999996125 0.0025 1.517883041479706e-18
-0.0144999999999716 0.0025 7.047314121155779e-18
-0.008499999999955911 0.0025 2.059984127722458e-18
-0.01649999999997707 0.0025 2.49366499671666e-18
-0.01249999999996648 0.0025 2.602085213965211e-18
0.02450000000000074 0.0025 1.301042606982605e-18
0.01850000000001363 0.0025 3.252606517456513e-19
-0.01849999999998255 0.0025 2.818925648462312e-18
0.004500000000054238 0.0025 -5.204170427930421e-18
0.0005000000000641401 0.0025 6.505213034913027e-19
-0.02049999999998778 0.0025 0
-0.006499999999950663 0.0025 -1.843143693225358e-18
-0.02249999999999324 0.0025 3.577867169202165e-18
0.02150000000000823 0.0025 -1.084202172485504e-19
-0.004499999999945197 0.0025 4.87890977618477e-18
0.003500000000057082 0.0025 1.214306433183765e-17
0.001500000000062805 0.0025 3.144186300207963e-18
0.01050000000003583 0.0025 2.168404344971009e-18
0.0155000000000216 0.0025 -1.084202172485504e-18
0.01150000000003298 0.0025 2.168404344971009e-19
0.002500000000059947 0.0025 8.023096076392733e-18
0.01450000000002445 0.0025 -1.192622389734055e-18
0.008500000000041533 0.0025 1.105886215935215e-17
0.01650000000001876 0.0025 -3.252606517456513e-19
0.01350000000002729 0.0025 -1.409462824231156e-18
0.02250000000000558 0.0025 -1.084202172485504e-19
0.02350000000000291 0.0025 0
0.01750000000001618 0.0025 0
0.01250000000003014 0.0025 -2.168404344971009e-19
0.009500000000038672 0.0025 7.37257477290143e-18
-0.002499999999939728 0.0025 -3.252606517456513e-19
-0.02449999999999863 0.0025 0
-0.001499999999937014 0.0025 0
-0.003499999999942445 0.0025 3.577867169202165e-18
-0.02349999999999598 0.0025 -4.336808689942018e-19
-0.005499999999947863 0.0025 3.794707603699266e-18
-0.02149999999999062 0.0025 1.084202172485504e-19
-0.01949999999998518 0.0025 -2.059984127722458e-18
-0.01749999999997986 0.0025 -1.951563910473908e-18
-0.007499999999953121 0.0025 0
-0.01549999999997453 0.0025 -4.228388472693467e-18
-0.009499999999958549 0.0025 1.084202172485504e-18
0.01950000000001197 0.0025 2.168404344971009e-19
-0.01350000000664483 0.0025 0
-0.01149999999996391 0.0025 4.336808689942018e-19
-0.025 5.028963356856764e-15 0
-0.025 0.002000000000000981 2.168404344971009e-19
-0.025 0.001000000000003454 0
-0.025 -0.0009999999999961229 0
-0.025 -0.00199999999999868 -3.252606517456513e-19
0.02150000000000852 0.001633974596217953 0.0005
-0.02150000000000852 -0.001633974596217953 0.0005
-0.01750000000001591 -0.001633974596218024 0.0005
0.01750000000001591 0.001633974596218024 0.0005
-0.01950000000001186 -0.001633974596217107 0.0005
0.01950000000001186 0.001633974596217107 0.0005
-0.01550000000002161 -0.001633974596218025 0.0005
0.01550000000002161 0.001633974596218025 0.0005
-0.01350000000002729 -0.001633974596218024 0.0005
0.01350000000002729 0.001633974596218024 0.0005
0.01150000000003299 0.001633974596218025 0.0005
-0.01150000000003299 -0.001633974596218025 0.0005
-0.006500000000047764 -0.001633974596218988 0.0005
0.006500000000047764 0.001633974596218988 0.0005
-0.009500000000038674 -0.001633974596218025 0.0005
0.009500000000038674 0.001633974596218025 0.0005
0.004500000000054253 0.001633974596218129 0.0005
-0.004500000000054253 -0.001633974596218129 0.0005
-0.002500000000059942 -0.001633974596218027 0.0005
0.002486693610128471 0.001658003079258478 0.0005
-0.0005000000000652954 -0.001633974596217732 0.0005
0.0005000000000653516 0.001633974596217491 0.0005
0.008499999999956938 -0.001633974596214046 0.0005
-0.008499999999956936 0.001633974596214046 0.0005
0.02249999999998748 -0.001633974596194823 0.0005
-0.02249999999998748 0.001633974596194818 0.0005
-0.02049999999998271 0.001633974596201376 0.0005
0.02049999999998271 -0.00163397459620138 0.0005
0.01849999999997846 -0.001633974596204766 0.0005
-0.01849999999997846 0.001633974596204769 0.0005
0.01649999999997326 -0.00163397459620578 0.0005
-0.01649999999997326 0.001633974596205782 0.0005
0.01449999999996994 -0.001633974596210503 0.0005
-0.01449999999996994 0.001633974596210503 0.0005
0.01249999999996649 -0.00163397459621403 0.0005
-0.01249999999996649 0.00163397459621403 0.0005
0.01049999999996153 -0.001633974596214084 0.0005
-0.01049999999996153 0.001633974596214084 0.0005
0.005499999999947876 -0.001633974596213402 0.0005
-0.005499999999948674 0.001633974596213726 0.0005
0.003499999999941837 -0.001633974596213656 0.0005
-0.003499999999942748 0.001633974596213727 0.0005
0.001513306389890566 -0.001658003079242071 0.0005
-0.001499999999936851 0.001633974596215298 0.0005
0.02418622421910237 4.833952747442767e-05 0.0005
-0.02418622421910237 -4.833952747442967e-05 0.0005
-0.02343057453866396 -0.00154048972688362 0.0005
0.02343057453866396 0.001540489726883619 0.0005
0.01149999999996335 -0.001633974596213903 0.0005
0.01099999999996219 -0.0007679491924288464 0.0005
0.009999999999961352 -0.0007679491924289279 0.0005
0.01049999999996112 9.807621135597795e-05 0.0005
0.009499999999961161 9.807621135563762e-05 0.0005
0.01149999999996105 9.80762113562857e-05 0.0005
0.01199999999996446 -0.0007679491924284805 0.0005
0.0129999999999659 -0.0007679491924282913 0.0005
0.01249999999996147 9.807621135845855e-05 0.0005
0.01349999999996237 9.807621135923121e-05 0.0005
0.01399999999996606 -0.000767949192424805 0.0005
0.01449999999996225 9.807621136325572e-05 0.0005
0.01499999999996673 -0.0007679491924211003 0.0005
0.0154999999999621 9.807621136747679e-05 0.0005
0.01599999999996628 -0.0007679491924157734 0.0005
0.01649999999996198 9.807621137170273e-05 0.0005
0.01699999999996558 -0.0007679491924105444 0.0005
0.0174999999999619 9.807621137593654e-05 0.0005
0.01799999999996559 -0.0007679491924063639 0.0005
0.01849999999996195 9.807621138024896e-05 0.0005
0.01899999999996872 -0.0007679491924054773 0.0005
0.01949999999996223 9.807621138461368e-05 0.0005
0.01999999999996607 -0.000767949192397967 0.0005
0.02049999999996258 9.807621138889368e-05 0.0005
0.02099999999997033 -0.0007679491923979363 0.0005
0.02149999999996288 9.807621139308374e-05 0.0005
0.02199999999996667 -0.0007679491923895023 0.0005
0.02257607670563701 9.276596910976077e-05 0.0005
0.02303118576440211 -0.0008505796936378278 0.0005
0.02349832629271455 -0.001651311894836947 0.0005
0.01549999999997084 -0.001633974596208859 0.0005
0.01749999999997547 -0.001633974596203871 0.0005
0.01949999999997985 -0.001633974596200153 0.0005
0.02149999999998589 -0.001633974596194134 0.0005
-0.01149999999996335 0.001633974596213903 0.0005
-0.01099999999996219 0.0007679491924288464 0.0005
-0.009999999999961352 0.0007679491924289279 0.0005
-0.01049999999996112 -9.807621135597795e-05 0.0005
-0.009499999999961161 -9.807621135563762e-05 0.0005
-0.01149999999996105 -9.80762113562857e-05 0.0005
-0.01199999999996446 0.0007679491924284805 0.0005
-0.0129999999999659 0.0007679491924282913 0.0005
-0.01249999999996147 -9.807621135845855e-05 0.0005
-0.01349999999996237 -9.807621135923121e-05 0.0005
-0.01399999999996606 0.000767949192424805 0.0005
-0.01449999999996225 -9.807621136325572e-05 0.0005
-0.01499999999996673 0.0007679491924211003 0.0005
-0.0154999999999621 -9.807621136747679e-05 0.0005
-0.01599999999996628 0.0007679491924157734 0.0005
-0.01649999999996198 -9.807621137170284e-05 0.0005
-0.01699999999996558 0.0007679491924105445 0.0005
-0.0174999999999619 -9.807621137593665e-05 0.0005
-0.01799999999996559 0.0007679491924063726 0.0005
-0.01849999999996196 -9.807621138023671e-05 0.0005
-0.01899999999996873 0.000767949192405488 0.0005
-0.01949999999996224 -9.807621138459742e-05 0.0005
-0.01999999999996608 0.000767949192397976 0.0005
-0.02049999999996258 -9.807621138888398e-05 0.0005
-0.02099999999997034 0.0007679491923979319 0.0005
-0.02149999999996288 -9.80762113930871e-05 0.0005
-0.02199999999996669 0.0007679491923894911 0.0005
-0.02257607670563701 -9.27659691097619e-05 0.0005
-0.02303118576440211 0.0008505796936378241 0.0005
-0.02349832629271456 0.001651311894836952 0.0005
-0.01549999999997084 0.001633974596208859 0.0005
-0.01749999999997547 0.001633974596203876 0.0005
-0.01949999999997985 0.001633974596200153 0.0005
-0.02149999999998589 0.00163397459619411 0.0005
0.008999999999959377 -0.0007679491924289127 0.0005
0.008499999999958232 8.170158856572094e-05 0.0005
-0.008999999999959376 0.0007679491924289126 0.0005
-0.008499999999958232 -8.170158856572099e-05 0.0005
0.01349999999996774 -0.001633974596212938 0.0005
-0.01349999999996774 0.001633974596212938 0.0005
0.007499999999953513 -0.001633974596213912 0.0005
0.007999999999956004 -0.0007706782962270758 0.0005
0.006999999999953972 -0.0007684040430614077 0.0005
0.007499999999955993 7.844182570350935e-05 0.0005
0.006499999999958622 8.868719010264557e-05 0.0005
0.007999999999977459 0.0008753316228694136 0.0005
0.005999999999951489 -0.0007695898377423675 0.0005
0.005499999999961923 8.908767840215366e-05 0.0005
-0.007499999999953513 0.001633974596213912 0.0005
-0.007999999999956004 0.0007706782962270762 0.0005
-0.00699999999995397 0.0007684040430614082 0.0005
-0.007499999999955992 -7.8441825703509e-05 0.0005
-0.006499999999958619 -8.868719010264383e-05 0.0005
-0.007999999999977459 -0.0008753316228694141 0.0005
-0.00599999999995229 0.000769589837742757 0.0005
-0.005499999999962236 -8.908767840200744e-05 0.0005
-0.0004999999999323582 0.001633974596217542 0.0005
6.664377527841139e-14 0.0007679491924344808 0.0005
0.0009866936101331192 0.0007756316402438935 0.0005
0.0005000000000663032 -9.807621134821485e-05 0.0005
0.001498415905995996 -3.87829369896914e-05 0.0005
-0.0004999999999323565 -9.807621134902659e-05 0.0005
0.002515524121530642 -0.001645661791194337 0.0005
0.003015893743471178 -0.0007775795060671597 0.0005
0.004002648957196909 -0.0007695542447007375 0.0005
0.003499999999940806 9.8076211357646e-05 0.0005
0.002501703529681867 4.560977135598932e-05 0.0005
0.004499999999941122 9.80762113582486e-05 0.0005
0.005000441492823946 -0.0007699882308516364 0.0005
-0.004499999999945279 0.001633974596213807 0.0005
-0.003999999999943913 0.000767949192427984 0.0005
-0.002999999999942641 0.0007679491924278107 0.0005
-0.003499999999943259 -9.807621135751134e-05 0.0005
-0.002499999999942906 -9.807621135771593e-05 0.0005
-0.004499999999954143 -8.917623237301321e-05 0.0005
-0.001999999999939611 0.0007679491924291316 0.0005
-0.001499999999942821 -9.807621135830509e-05 0.0005
-0.004999999999947441 0.0007687964590726201 0.0005
0.0005008082111874132 -0.00164734807202647 0.0005
0.004500515074966823 -0.001634581944663238 0.0005
-0.02050000000001089 -0.001633974596217727 0.0005
0.02050000000001089 0.001633974596217727 0.0005
-0.006499999999951612 0.001634323845538633 0.0005
0.006499999999951348 -0.001634323845538514 0.0005
-0.002499999999940225 0.001633974596214328 0.0005
-0.01850000000001363 -0.001633974596217695 0.0005
0.01850000000001363 0.001633974596217695 0.0005
0.009499999999959381 -0.001633974596214328 0.0005
-0.009499999999959381 0.001633974596214328 0.0005
-0.00550000000005133 -0.001633974596218762 0.0005
0.00550000000005133 0.001633974596218762 0.0005
0.001482258146820871 0.001646942199168213 0.0005
-0.01250000000003014 -0.00163397459621804 0.0005
0.01250000000003014 0.00163397459621804 0.0005
-0.01450000000002446 -0.001633974596218039 0.0005
0.01450000000002446 0.001633974596218039 0.0005
0.01050000000003583 0.001633974596218025 0.0005
-0.01050000000003583 -0.001633974596218025 0.0005
-0.01650000000001876 -0.001633974596218035 0.0005
0.01650000000001876 0.001633974596218035 0.0005
-0.003500000000057095 -0.001633974596218027 0.0005
-0.001500000000062787 -0.001633974596218025 0.0005
0.003499191788812477 0.001647348072033087 0.0005
-0.02244505661385015 -0.00166193518590129 0.0005
0.02244505661385015 0.001661935185901291 0.0005
-0.0009999999999362255 0.00076794919243152 0.0005
0.02420479477071085 0.0009760332439188358 0.0005
-0.02420479477071085 -0.0009760332439188365 0.0005
-0.02406177665567498 0.0009186978721886446 0.0005
0.02406177665567497 -0.0009186978721886413 0.0005
0.02343103108326737 0.0005632276673307968 0.0005
-0.02343103108326736 -0.0005632276673307969 0.0005
-0.008579838339568109 -0.001680069283035355 0.0005
0.008579838339568111 0.001680069283035355 0.0005
-0.007420161660466455 -0.001680069283065624 0.0005
0.007420161660466454 0.001680069283065624 0.0005
0.001971922950946826 0.0008222779127568063 0.0005
0.002028149488751387 -0.0008207319352564923 0.0005
-0.0130000000000287 -0.0008660254038097562 0.0005
0.0130000000000287 0.0008660254038097562 0.0005
0.0110000000000344 0.0008660254038105745 0.0005
-0.0110000000000344 -0.0008660254038105745 0.0005
-0.01200000000002547 -0.0008660254038065876 0.0005
0.01200000000002547 0.0008660254038065876 0.0005
-0.0140000000000259 -0.0008660254038109065 0.0005
0.0140000000000259 0.0008660254038109065 0.0005
-0.009999999999998743 -0.0008659968162262629 0.0005
0.009999999999998743 0.0008659968162262627 0.0005
0.01500000000001774 0.0008660254038085785 0.0005
-0.01500000000001774 -0.0008660254038085785 0.0005
0.01600000000001491 0.0008660254038097942 0.0005
-0.01600000000001491 -0.0008660254038097943 0.0005
-0.01700000000001231 -0.0008660254038111735 0.0005
0.01700000000001231 0.0008660254038111717 0.0005
-0.01800000000000979 -0.0008660254038125517 0.0005
0.01800000000000979 0.0008660254038125609 0.0005
-0.006000000000049723 -0.0008660254038183476 0.0005
0.006000000000049723 0.0008660254038183478 0.0005
-0.0190000000000123 -0.0008660254038170121 0.0005
0.01900000000001229 0.0008660254038170225 0.0005
-0.005000000000053278 -0.0008660254038198125 0.0005
0.005000000000053279 0.0008660254038198124 0.0005
-0.02000000000000745 -0.0008660254038160598 0.0005
0.02000000000000745 0.0008660254038160686 0.0005
0.02100000000000555 0.0008660254038174671 0.0005
-0.02100000000000555 -0.0008660254038174675 0.0005
0.02196014974397897 0.0008806497924873678 0.0005
-0.02196014974397897 -0.000880649792487368 0.0005
-0.004000000000055752 -0.0008660254038237448 0.0005
-0.003000000000058519 -0.0008660254038248277 0.0005
0.004000000000055751 0.0008660254038250177 0.0005
0.002993251979927699 0.0008562234084311706 0.0005
-0.002000000000061366 -0.0008660254038259711 0.0005
-6.659783042615483e-14 -0.0008660254038266569 0.0005
-0.001000000000048816 -0.0008660254038170396 0.0005
0.001006779999304178 -0.0008548279397815996 0.0005
-0.006999999999954688 -0.000865853878446939 0.0005
0.006999999999954694 0.0008658538784469373 0.0005
-0.008999999999961284 -0.0008658538783993376 0.0005
0.008999999999961284 0.0008658538783993364 0.0005
0.02426794919242547 -0.001767949192426722 0.0005
-0.0242679491924255 0.001767949192426746 0.0005
-0.02426794919243346 -0.001767949192432348 0.0005
0.02426794919243346 0.001767949192432348 0.0005
0.02274726529868652 0.0009354665258903979 0.0005
-0.02274726529868651 -0.0009354665258903958 0.0005
0.02344875112108032 -0.0002093838518865142 0.0005
-0.02344875112108032 0.0002093838518865143 0.0005
-0.01000067984380564 0.001346403465983891 1.296017755061252e-06
-0.009517613419773835 -0.00059719931141988 2.500985161726887e-05
0.006974237109477089 0.001391931658678041 1.756670865098425e-06
-0.009499886478182588 -0.001660129372041166 -1.084202172485504e-19
-0.01038772307991843 -6.680929111872378e-05 0
-0.01000001992786344 0.001969562986733584 3.798948328775342e-08
-0.01087510639489298 0.0008400565489357932 -1.084202172485504e-19
0.006134953605974522 0.0008495563380588907 -1.084202172485504e-19
-0.009128449168601801 0.0008421093545207089 1.084202172485504e-19
0.006973640170661525 0.001992334990791414 4.777407466409815e-08
0.007866278611611238 0.0009343421590486352 1.084202172485504e-19
-0.008703755841075333 -0.0001262343546445659 0

CELLS 2273 11365
4 201 530 95 835
4 371 261 89 544
4 89 195 544 261
4 147 602 749 516
4 371 261 544 731
4 195 544 261 731
4 147 41 602 516
4 389 749 41 516
4 571 390 94 750
4 261 88 563 621
4 41 749 602 516
4 88 194 563 621
4 200 94 750 571
4 195 261 563 621
4 89 195 261 563
4 544 90 371 196
4 196 371 544 731
4 389 42 749 516
4 42 148 749 516
4 660 158 512 300
4 566 107 335 213
4 695 566 335 213
4 246 512 158 300
4 53 159 661 485
4 106 212 695 540
4 210 104 334 567
4 157 51 300 512
4 210 334 694 567
4 157 300 660 512
4 53 661 301 485
4 106 335 540 695
4 159 53 661 511
4 212 106 695 566
4 694 567 334 606
4 695 606 540 212
4 661 159 607 485
4 106 335 247 540
4 53 485 301 246
4 335 106 566 695
4 53 661 511 301
4 335 247 540 695
4 607 661 485 301
4 105 211 247 567
4 52 158 246 512
4 661 160 511 244
4 606 540 247 695
4 301 485 607 246
4 661 511 301 244
4 567 247 334 606
4 606 694 567 211
4 247 334 105 567
4 246 52 512 300
4 211 105 247 540
4 158 52 246 485
4 54 160 244 511
4 567 247 606 211
4 301 511 54 244
4 54 160 487 244
4 542 245 107 213
4 606 247 540 211
4 485 158 607 246
4 487 160 604 244
4 245 542 605 213
4 196 565 90 619
4 259 90 565 619
4 565 384 619 744
4 565 384 259 619
4 385 745 258 510
4 745 618 258 510
4 197 91 565 744
4 385 38 144 510
4 91 384 565 744
4 144 745 385 510
4 142 36 260 489
4 36 142 260 508
4 91 384 259 565
4 619 197 565 744
4 385 258 38 510
4 618 745 144 510
4 489 142 620 260
4 142 620 260 508
4 142 620 741 489
4 489 36 260 381
4 260 741 489 381
4 489 620 741 260
4 381 258 618 510
4 143 37 381 510
4 37 143 381 489
4 618 741 381 510
4 381 37 258 510
4 741 618 143 510
4 381 741 143 510
4 741 143 489 381
4 542 331 245 691
4 297 487 657 244
4 604 657 487 244
4 605 542 245 691
4 487 657 55 297
4 108 331 542 691
4 657 509 55 297
4 331 108 564 691
4 657 55 161 487
4 691 542 108 214
4 161 509 55 657
4 108 564 691 214
4 55 487 297 244
4 691 605 542 214
4 161 604 657 487
4 331 245 108 542
4 260 620 364 508
4 620 724 364 508
4 141 35 364 508
4 364 724 141 508
4 408 523 768 264
4 578 409 625 769
4 260 364 35 508
4 724 620 141 508
4 624 768 523 264
4 265 578 409 625
4 768 165 624 523
4 112 578 409 265
4 59 523 408 264
4 578 625 218 769
4 265 112 578 625
4 523 165 624 264
4 59 165 523 264
4 625 112 578 218
4 132 232 473 592
4 495 238 29 598
4 404 490 29 762
4 586 492 227 123
4 548 587 70 226
4 127 500 399 759
4 495 30 238 598
4 547 758 181 398
4 492 227 16 586
4 231 20 493 591
4 549 179 590 230
4 504 20 394 754
4 755 179 558 395
4 177 589 554 229
4 499 19 228 588
4 134 490 404 762
4 756 396 496 123
4 551 70 757 397
4 760 15 400 498
4 174 761 553 401
4 553 761 175 401
4 132 472 391 751
4 391 472 27 751
4 495 490 598 29
4 762 490 29 598
4 473 472 232 132
4 551 548 587 70
4 399 493 500 127
4 181 559 547 398
4 493 504 591 20
4 558 549 230 179
4 554 551 177 229
4 558 230 395 179
4 504 591 20 754
4 504 499 588 19
4 492 396 227 123
4 483 490 404 134
4 757 587 70 551
4 492 496 396 123
4 492 498 586 16
4 548 553 175 401
4 391 232 472 132
4 582 223 15 503
4 557 174 553 401
4 472 483 27 751
4 582 498 15 760
4 488 11 221 581
4 402 491 31 763
4 491 30 495 598
4 582 498 503 15
4 761 587 175 401
4 759 399 127 591
4 238 404 29 598
4 227 400 16 586
4 762 29 404 598
4 179 755 590 230
4 231 394 20 591
4 754 20 394 591
4 230 179 755 395
4 757 226 70 587
4 586 227 396 123
4 177 757 589 229
4 756 586 396 123
4 226 757 70 397
4 597 134 404 762
4 391 232 132 592
4 27 237 391 751
4 582 15 400 760
4 747 387 14 481
4 399 493 127 591
4 548 175 587 401
4 592 132 391 751
4 757 177 551 229
4 134 404 483 597
4 586 400 16 498
4 15 400 223 582
4 474 488 581 11
4 481 14 747 503
4 237 27 483 751
4 547 549 590 230
4 758 595 559 235
4 590 758 547 398
4 493 399 231 591
4 398 547 590 230
4 559 758 235 398
4 587 548 401 226
4 496 499 396 756
4 755 558 554 395
4 588 504 394 754
4 499 228 396 756
4 228 499 588 756
4 229 551 757 397
4 228 504 394 588
4 755 554 229 395
4 483 404 237 597
4 554 589 755 229
4 392 528 593 233
4 601 191 539 241
4 400 586 760 498
4 517 13 224 584
4 742 382 12 474
4 401 557 761 222
4 481 517 584 13
4 742 12 517 474
4 593 752 528 392
4 751 483 237 597
4 529 543 580 220
4 583 761 557 222
4 513 482 50 299
4 752 527 528 392
4 747 14 223 503
4 761 174 557 401
4 223 387 14 747
4 582 747 223 503
4 748 583 557 222
4 559 181 758 398
4 504 228 19 588
4 491 402 238 598
4 584 13 387 481
4 557 536 748 222
4 11 382 221 581
4 598 491 402 763
4 13 387 224 584
4 388 536 748 225
4 747 584 387 481
4 153 515 476 612
4 580 383 529 220
4 572 529 585 225
4 222 536 748 388
4 557 553 68 401
4 585 748 536 225
4 746 194 560 621
4 30 491 238 598
4 174 583 761 557
4 401 68 557 222
4 585 536 572 225
4 517 224 382 584
4 584 382 517 742
4 529 743 585 225
4 225 529 743 383
4 590 758 180 547
4 590 180 549 547
4 74 549 547 230
4 548 551 587 176
4 547 559 75 398
4 398 74 547 230
4 235 75 559 398
4 758 595 181 559
4 176 587 757 551
4 558 230 73 395
4 21 493 399 231
4 750 532 200 603
4 504 493 591 126
4 504 591 754 126
4 549 558 230 73
4 499 396 18 496
4 496 499 756 124
4 493 500 21 399
4 554 551 229 71
4 401 548 69 226
4 483 404 28 237
4 756 499 588 124
4 228 396 18 499
4 504 499 125 588
4 504 19 228 394
4 504 588 125 754
4 229 71 551 397
4 490 483 404 28
4 490 495 598 135
4 178 755 558 554
4 554 558 72 395
4 229 554 72 395
4 762 135 490 598
4 755 178 589 554
4 496 492 396 17
4 514 477 602 146
4 243 93 532 569
4 532 569 199 603
4 17 396 227 492
4 581 11 382 474
4 122 760 586 498
4 498 492 586 122
4 69 553 548 401
4 742 581 382 474
4 383 580 529 743
4 66 536 388 225
4 172 585 748 536
4 517 382 12 742
4 584 747 119 481
4 498 582 121 760
4 534 574 203 662
4 662 203 534 615
4 582 498 121 503
4 483 472 133 751
4 65 529 572 225
4 529 585 171 572
4 118 742 517 474
4 481 517 119 584
4 560 562 386 87
4 572 536 66 225
4 172 585 536 572
4 593 752 185 528
4 392 79 528 233
4 751 133 483 597
4 488 474 581 117
4 580 170 543 529
4 64 543 529 220
4 472 473 232 26
4 491 495 136 598
4 88 194 621 560
4 743 585 171 529
4 225 65 529 383
4 517 584 742 118
4 224 382 12 517
4 67 536 557 222
4 173 748 583 557
4 747 582 120 503
4 539 191 525 241
4 527 185 752 528
4 528 527 79 392
4 402 30 491 238
4 598 136 491 763
4 515 153 658 612
4 232 472 26 391
4 96 257 530 574
4 534 255 97 574
4 519 479 614 150
4 581 742 117 474
4 87 386 263 562
4 748 173 536 557
4 170 580 743 529
4 383 64 529 220
4 747 120 481 503
4 94 200 750 532
4 222 67 536 388
4 257 96 302 574
4 562 525 192 718
4 268 43 475 256
4 628 614 150 519
4 255 302 97 574
4 569 532 243 603
4 519 43 475 268
4 156 482 513 299
4 148 749 616 475
4 192 562 718 623
4 574 534 255 662
4 662 534 255 615
4 271 630 269 631
4 539 525 85 241
4 475 749 616 256
4 475 616 268 256
4 746 560 386 621
4 204 701 534 615
4 700 151 614 479
4 341 255 98 534
4 243 532 750 603
4 630 616 749 270
4 634 629 633 273
4 628 614 519 268
4 574 255 302 662
4 631 271 273 269
4 560 88 386 621
4 616 749 270 256
4 302 257 574 662
4 273 634 629 269
4 634 273 274 269
4 630 271 269 270
4 389 270 749 256
4 274 614 634 268
4 308 302 255 668
4 631 630 269 629
4 519 614 44 268
4 261 195 731 621
4 532 94 243 750
4 671 312 311 673
4 639 637 277 278
4 386 261 373 621
4 701 534 98 204
4 700 45 151 479
4 534 98 341 701
4 269 634 629 268
4 269 274 634 268
4 475 42 749 256
4 148 42 749 475
4 88 261 386 621
4 477 514 602 40
4 629 273 631 633
4 389 749 42 256
4 269 630 270 616
4 202 574 257 662
4 255 662 668 302
4 614 628 634 268
4 662 255 668 615
4 268 274 614 254
4 621 373 386 733
4 273 629 631 269
4 616 149 475 268
4 309 311 310 671
4 637 636 277 275
4 269 630 616 629
4 616 270 269 256
4 313 311 312 673
4 639 277 279 278
4 254 700 614 479
4 701 255 534 615
4 269 629 616 268
4 268 616 269 256
4 614 44 268 254
4 386 746 621 733
4 602 749 41 389
4 390 243 94 750
4 315 313 314 675
4 639 641 640 281
4 617 202 257 662
4 628 629 634 268
4 534 341 255 701
4 562 560 386 193
4 193 386 562 623
4 45 700 254 479
4 671 672 312 673
4 637 639 638 278
4 373 737 733 735
4 629 628 616 268
4 386 373 737 733
4 149 616 628 268
4 601 358 191 241
4 675 313 314 673
4 281 640 639 279
4 601 359 358 241
4 242 602 41 389
4 633 276 634 273
4 667 310 308 307
4 309 308 668 670
4 634 276 275 274
4 386 263 562 623
4 737 746 386 733
4 479 519 614 44
4 525 358 85 241
4 525 562 86 718
4 309 312 311 671
4 275 277 637 278
4 257 530 574 202
4 667 668 308 670
4 276 634 273 274
4 375 377 373 737
4 737 373 375 735
4 386 373 377 737
4 482 50 299 248
4 309 308 255 668
4 274 614 275 634
4 477 40 602 242
4 254 700 45 340
4 640 279 278 639
4 312 314 313 673
4 623 193 386 746
4 562 263 86 718
4 317 675 316 677
4 641 643 642 283
4 386 623 746 737
4 257 530 202 617
4 614 274 275 254
4 615 309 255 668
4 193 560 386 746
4 309 670 671 310
4 636 276 277 275
4 670 309 671 669
4 636 637 635 275
4 519 475 149 268
4 612 515 476 298
4 341 253 312 672
4 340 278 638 252
4 672 309 671 312
4 275 637 638 278
4 623 386 377 737
4 314 312 672 673
4 640 638 639 278
4 636 635 634 275
4 276 634 275 636
4 309 668 669 670
4 308 309 310 670
4 341 701 613 672
4 612 700 638 340
4 254 614 44 479
4 718 562 263 623
4 675 317 316 315
4 281 641 642 283
4 310 667 308 670
4 633 276 636 634
4 635 614 634 275
4 263 386 377 623
4 668 615 309 669
4 279 281 640 280
4 314 674 675 673
4 638 275 278 340
4 312 309 341 672
4 638 635 637 275
4 309 672 671 669
4 275 638 700 340
4 701 309 672 341
4 692 531 570 206
4 515 47 476 298
4 525 86 358 718
4 255 701 309 615
4 275 700 614 254
4 519 149 628 268
4 701 255 309 341
4 254 275 700 340
4 314 672 674 673
4 279 640 278 280
4 635 638 700 275
4 309 701 672 669
4 263 358 86 718
4 612 658 515 298
4 314 312 253 672
4 640 278 252 638
4 635 700 614 275
4 615 701 309 669
4 359 601 358 719
4 340 638 612 252
4 253 341 613 672
4 147 602 41 477
4 477 602 41 242
4 318 319 317 679
4 283 285 645 284
4 533 570 251 101
4 478 515 250 48
4 358 525 191 241
4 283 644 645 643
4 318 677 679 317
4 278 640 252 280
4 672 253 314 674
4 314 316 315 675
4 642 281 640 641
4 358 601 191 718
4 358 718 719 601
4 407 358 719 359
4 611 533 251 208
4 531 100 253 692
4 476 612 298 252
4 692 253 531 613
4 623 377 407 737
4 672 613 253 674
4 638 252 640 612
4 718 263 407 623
4 263 407 358 718
4 659 156 513 299
4 263 377 407 623
4 478 513 659 155
4 568 533 333 102
4 407 718 719 358
4 378 407 377 737
4 531 692 613 206
4 298 47 476 252
4 642 281 283 282
4 675 676 316 677
4 322 323 321 683
4 649 287 289 288
4 692 314 253 674
4 640 252 280 298
4 531 570 100 692
4 737 378 375 377
4 735 375 737 738
4 316 314 674 675
4 282 640 281 280
4 611 332 570 692
4 298 658 515 250
4 640 252 298 612
4 613 692 253 674
4 314 692 316 674
4 280 282 640 298
4 533 333 251 208
4 407 718 623 767
4 478 515 154 250
4 570 533 251 207
4 737 407 623 767
4 332 253 100 692
4 718 407 719 767
4 321 682 683 681
4 649 647 287 288
4 737 378 407 767
4 298 640 612 658
4 314 253 332 692
4 358 525 718 191
4 281 642 640 282
4 316 674 676 675
4 570 251 332 611
4 658 610 515 250
4 692 314 316 332
4 640 642 658 298
4 251 332 101 570
4 610 515 154 658
4 515 48 298 250
4 692 570 611 207
4 643 644 642 283
4 318 317 316 677
4 642 640 282 298
4 674 692 316 676
4 478 659 49 250
4 533 568 333 208
4 513 478 659 49
4 285 287 645 286
4 320 321 319 679
4 767 737 378 738
4 611 570 251 207
4 610 154 515 250
4 298 642 658 250
4 692 316 611 332
4 298 282 642 250
4 316 692 611 676
4 610 659 478 250
4 723 407 378 767
4 407 719 723 359
4 537 568 249 103
4 378 737 375 738
4 570 332 100 692
4 482 156 608 299
4 644 283 645 284
4 677 318 679 678
4 723 407 363 378
4 723 767 378 738
4 316 332 251 611
4 610 658 642 250
4 646 645 647 287
4 321 320 681 679
4 299 608 482 248
4 533 333 102 251
4 155 610 659 478
4 251 533 611 207
4 154 610 478 250
4 719 407 723 767
4 104 210 334 537
4 51 157 300 482
4 611 251 333 208
4 284 642 283 282
4 318 676 677 316
4 682 321 683 322
4 647 649 648 288
4 568 537 249 209
4 611 318 316 676
4 209 249 568 693
4 282 284 642 250
4 645 285 286 284
4 318 320 319 679
4 693 611 333 208
4 49 659 299 250
4 407 359 723 363
4 568 249 333 693
4 251 333 318 611
4 644 659 610 250
4 650 649 651 289
4 325 323 324 683
4 251 318 316 611
4 610 642 644 250
4 318 611 693 678
4 659 644 284 250
4 210 334 537 694
4 157 300 482 660
4 659 284 299 250
4 611 333 318 693
4 693 333 568 208
4 49 659 513 299
4 283 644 642 284
4 676 318 677 678
4 284 644 642 250
4 611 318 676 678
4 682 321 320 681
4 287 647 646 288
4 685 325 684 683
4 289 651 650 291
4 334 249 537 694
4 608 660 482 300
4 694 609 537 210
4 104 334 249 537
4 157 608 660 482
4 51 482 300 248
4 156 659 608 299
4 568 249 103 333
4 609 537 249 694
4 300 482 608 248
4 320 693 333 249
4 286 608 659 299
4 287 646 645 286
4 320 680 681 679
4 678 320 693 318
4 659 644 286 284
4 693 318 320 333
4 284 286 659 299
4 650 649 289 288
4 323 322 324 683
4 322 320 249 682
4 646 648 608 288
4 286 644 645 284
4 320 318 678 679
4 249 609 693 209
4 660 288 608 648
4 249 334 322 682
4 320 322 321 682
4 648 646 647 288
4 325 684 686 685
4 291 650 652 651
4 320 693 249 680
4 646 608 659 286
4 286 608 299 248
4 693 609 249 680
4 680 249 682 609
4 249 680 682 320
4 286 646 608 288
4 608 286 288 248
4 249 537 609 209
4 288 660 608 300
4 334 249 694 682
4 320 678 693 680
4 644 646 659 286
4 644 286 645 646
4 320 678 680 679
4 249 609 694 682
4 300 608 288 248
4 320 680 682 681
4 286 287 646 288
4 158 660 246 300
4 684 322 334 682
4 660 648 650 288
4 606 334 694 684
4 246 660 290 300
4 326 684 606 686
4 607 292 290 652
4 682 684 322 683
4 649 650 648 288
4 684 325 324 683
4 650 289 291 290
4 334 694 684 682
4 290 660 288 300
4 326 606 695 686
4 661 292 607 652
4 684 326 325 686
4 652 290 291 292
4 158 660 607 246
4 292 661 607 301
4 247 335 326 695
4 684 326 606 324
4 606 324 326 247
4 607 650 652 290
4 292 607 290 246
4 606 324 334 684
4 324 606 334 247
4 650 607 660 290
4 290 607 660 246
4 245 335 107 213
4 335 605 695 213
4 301 607 292 246
4 334 324 322 684
4 326 606 247 695
4 660 290 288 650
4 324 326 325 684
4 650 291 652 290
4 684 324 322 683
4 650 289 290 288
4 160 661 604 244
4 605 335 245 213
4 701 573 341 613
4 700 612 518 340
4 253 341 573 613
4 340 612 518 252
4 476 518 612 252
4 253 573 531 613
4 701 98 573 204
4 151 518 45 700
4 573 341 98 701
4 700 518 45 340
4 476 518 152 612
4 573 531 613 205
4 518 476 46 252
4 573 99 253 531
4 613 701 573 205
4 99 253 341 573
4 518 152 612 700
4 340 518 46 252
4 93 243 350 569
4 710 199 569 603
4 514 602 702 146
4 243 710 569 603
4 196 90 371 619
4 731 196 371 619
4 40 702 602 242
4 514 602 40 702
4 710 243 569 350
4 40 702 242 342
4 90 259 371 619
4 342 40 702 514
4 621 731 261 732
4 372 261 371 731
4 621 373 732 261
4 373 621 732 733
4 372 261 731 732
4 261 372 373 732
4 270 696 749 630
4 336 270 749 389
4 336 749 602 389
4 242 336 602 389
4 696 270 749 336
4 749 336 602 696
4 373 733 734 735
4 734 375 373 735
4 733 732 373 734
4 374 373 372 732
4 374 375 373 734
4 732 374 373 734
4 630 632 631 271
4 630 632 271 270
4 630 696 632 270
4 270 696 272 336
4 719 721 723 359
4 721 363 723 359
4 271 632 272 270
4 272 632 696 270
4 744 569 350 710
4 385 342 702 514
4 350 384 569 744
4 385 702 745 514
4 359 721 363 361
4 744 350 352 710
4 342 702 704 385
4 384 350 352 744
4 745 704 702 385
4 352 744 710 712
4 342 704 344 385
4 486 514 39 385
4 569 541 198 744
4 197 541 91 744
4 385 144 38 486
4 486 514 385 145
4 541 569 92 744
4 569 384 92 744
4 745 145 385 514
4 384 91 541 744
4 385 745 144 486
4 541 92 384 744
4 145 745 385 486
4 731 372 739 371
4 371 379 372 739
4 372 731 739 732
4 145 745 702 514
4 39 342 385 514
4 92 350 384 569
4 744 198 569 710
4 596 80 538 527
4 527 596 80 392
4 752 596 527 392
4 752 596 186 527
4 538 186 596 527
4 600 491 763 31
4 600 402 31 763
4 484 491 600 31
4 600 491 137 763
4 484 491 137 600
4 384 352 356 744
4 745 348 704 385
4 356 744 712 716
4 348 745 704 708
4 744 352 356 712
4 348 344 704 385
4 371 731 619 739
4 259 371 619 739
4 371 259 379 739
4 356 259 619 739
4 259 356 379 739
4 619 356 739 716
4 80 596 538 236
4 80 596 236 392
4 240 402 31 600
4 484 240 31 600
4 336 602 343 242
4 602 336 343 696
4 703 696 602 343
4 384 619 356 259
4 619 384 356 744
4 745 258 348 385
4 258 745 348 618
4 744 356 619 716
4 745 618 708 348
4 351 352 350 710
4 343 702 704 342
4 712 351 710 352
4 342 704 343 344
4 351 712 710 711
4 702 343 704 703
4 243 710 603 711
4 343 602 702 242
4 710 351 243 350
4 242 702 343 342
4 351 710 243 711
4 602 343 702 703
4 348 618 730 258
4 618 730 708 348
4 258 618 730 381
4 366 741 260 381
4 726 741 620 260
4 376 374 372 732
4 618 741 730 381
4 734 376 732 374
4 376 734 732 736
4 370 348 730 258
4 730 729 709 349
4 729 367 369 366
4 730 370 258 381
4 741 366 260 726
4 726 727 729 367
4 367 729 726 366
4 370 730 369 366
4 730 729 369 366
4 369 349 730 370
4 730 729 349 369
4 729 730 726 366
4 366 730 741 381
4 714 357 716 717
4 354 357 356 716
4 708 349 706 348
4 354 357 716 714
4 349 708 706 709
4 706 349 346 348
4 716 357 739 717
4 356 739 357 379
4 739 356 357 716
4 717 357 739 736
4 357 376 379 739
4 357 376 739 736
4 696 337 272 336
4 337 697 696 272
4 697 632 696 272
4 716 354 712 356
4 704 708 706 348
4 354 356 352 712
4 344 704 706 348
4 354 716 712 714
4 706 346 344 348
4 376 372 379 739
4 739 376 372 732
4 732 739 376 736
4 366 370 730 381
4 349 708 730 348
4 708 730 709 349
4 726 730 741 366
4 552 526 417 183
4 526 552 417 77
4 471 497 774 24
4 471 497 130 774
4 721 719 720 359
4 359 360 721 361
4 348 730 349 370
4 360 721 720 359
4 726 725 367 365
4 727 726 725 367
4 366 726 367 365
4 345 704 706 344
4 712 354 353 352
4 346 345 706 344
4 704 706 705 345
4 714 712 353 713
4 354 712 353 714
4 336 696 337 343
4 696 703 337 343
4 697 696 703 337
4 703 345 337 343
4 705 697 703 345
4 345 697 703 337
4 601 241 360 359
4 601 720 719 359
4 343 704 345 344
4 712 353 351 352
4 711 353 351 712
4 343 704 703 345
4 703 704 705 345
4 711 353 712 713
4 720 601 360 359
4 596 764 538 236
4 484 240 600 380
4 364 725 620 260
4 725 726 620 260
4 187 545 538 403
4 484 470 380 138
4 470 484 380 32
4 538 545 81 403
4 241 393 601 360
4 364 365 725 260
4 620 724 725 364
4 726 725 365 260
4 365 366 726 260
4 753 720 601 360
4 550 188 764 545
4 545 550 82 403
4 507 470 380 33
4 470 507 380 139
4 484 32 240 380
4 600 138 484 740
4 81 538 403 236
4 596 764 187 538
4 393 753 601 360
4 725 728 367 365
4 688 326 695 686
4 661 652 654 292
4 335 605 688 695
4 301 294 661 244
4 695 335 326 688
4 294 661 292 301
4 605 335 688 245
4 654 604 661 244
4 725 728 727 367
4 721 360 362 361
4 403 538 764 236
4 740 484 600 380
4 722 360 721 720
4 368 367 728 365
4 545 187 764 403
4 538 764 187 403
4 740 138 484 380
4 138 740 470 380
4 360 722 721 362
4 764 550 545 403
4 507 139 740 380
4 740 139 470 380
4 393 601 539 241
4 764 599 188 550
4 82 550 239 403
4 740 622 139 507
4 33 507 262 380
4 764 599 550 403
4 239 550 599 403
4 740 622 507 380
4 262 507 622 380
4 601 393 539 753
4 35 141 364 505
4 364 141 724 505
4 262 724 505 364
4 308 667 307 836
4 308 668 667 836
4 599 753 546 393
4 539 190 753 546
4 546 539 84 393
4 725 419 365 364
4 419 725 724 364
4 753 539 546 393
4 724 262 505 622
4 393 546 599 239
4 753 778 720 360
4 328 335 245 688
4 294 654 661 244
4 335 328 326 688
4 661 294 292 654
4 778 393 360 753
4 728 725 419 365
4 550 83 599 546
4 599 189 550 546
4 507 505 622 140
4 505 507 622 34
4 325 686 687 685
4 291 652 653 651
4 686 325 687 326
4 291 652 292 653
4 393 539 84 241
4 190 753 601 539
4 419 368 728 365
4 724 419 364 262
4 753 599 778 393
4 722 720 778 360
4 779 725 724 419
4 625 409 413 769
4 412 408 768 264
4 362 779 728 722
4 362 368 728 419
4 550 599 83 239
4 546 83 599 239
4 622 34 262 505
4 507 622 34 262
4 393 778 360 418
4 778 362 722 360
4 724 622 779 262
4 778 239 393 599
4 688 605 245 690
4 604 654 296 244
4 728 725 779 419
4 368 778 362 728
4 362 728 778 722
4 355 458 353 715
4 353 818 715 458
4 818 353 715 713
4 262 34 364 505
4 622 724 140 505
4 83 546 393 239
4 599 753 189 546
4 622 457 779 262
4 419 724 779 262
4 688 329 690 328
4 296 654 295 294
4 239 778 393 418
4 779 362 728 419
4 239 599 778 453
4 819 705 706 459
4 818 458 353 714
4 459 705 706 345
4 345 706 459 346
4 353 818 714 713
4 354 353 458 714
4 778 362 360 418
4 773 625 413 769
4 412 768 772 264
4 778 368 362 418
4 410 264 624 520
4 770 575 265 625
4 779 457 419 262
4 457 622 779 817
4 624 772 768 264
4 409 625 413 265
4 686 688 326 687
4 653 654 652 292
4 818 798 438 714
4 818 438 458 714
4 354 458 438 714
4 798 357 438 714
4 714 798 357 717
4 418 239 778 453
4 813 778 599 453
4 357 354 438 714
4 357 438 442 802
4 798 357 802 438
4 357 798 802 717
4 376 357 442 802
4 717 802 357 736
4 376 357 802 736
4 810 376 442 802
4 442 450 376 810
4 802 810 376 736
4 328 330 329 690
4 654 296 295 656
4 632 697 821 461
4 337 461 697 272
4 632 697 461 272
4 501 405 266 765
4 555 627 766 406
4 722 779 817 362
4 715 353 355 841
4 715 713 353 841
4 374 376 450 810
4 374 376 810 734
4 376 810 734 736
4 803 709 729 443
4 443 709 729 349
4 349 729 443 369
4 453 728 778 368
4 461 235 595 429
4 461 595 789 429
4 592 458 438 232
4 592 438 818 798
4 758 235 429 595
4 235 758 429 398
4 595 429 758 789
4 789 821 595 461
4 428 399 759 783
4 398 782 758 429
4 399 428 423 783
4 429 398 782 422
4 759 428 783 788
4 782 789 758 429
4 458 592 438 818
4 375 451 454 811
4 787 639 277 427
4 673 426 311 786
4 811 814 375 735
4 787 277 781 427
4 420 786 311 426
4 311 671 673 786
4 787 639 637 277
4 311 313 426 673
4 279 277 639 427
4 281 639 790 430
4 675 431 313 791
4 311 671 786 780
4 277 787 781 637
4 281 790 432 430
4 675 433 431 791
4 641 790 792 432
4 675 433 791 793
4 786 420 311 780
4 427 277 781 421
4 433 675 677 793
4 792 643 641 432
4 781 637 636 277
4 671 311 310 780
4 427 790 639 430
4 313 431 426 791
4 639 787 790 427
4 426 673 791 786
4 643 792 795 432
4 433 677 435 793
4 795 283 432 434
4 794 435 677 793
4 814 375 454 811
4 735 814 375 738
4 431 675 313 315
4 790 641 639 281
4 311 420 310 780
4 277 276 781 421
4 276 785 781 421
4 276 425 785 421
4 424 310 780 784
4 424 310 420 780
4 435 677 679 794
4 283 795 645 434
4 315 433 431 675
4 790 281 432 641
4 639 281 279 430
4 673 675 313 791
4 780 310 671 670
4 276 781 636 277
4 283 641 643 432
4 675 317 433 677
4 784 310 780 670
4 781 636 785 276
4 425 276 633 273
4 307 310 424 667
4 283 281 641 432
4 433 315 317 675
4 283 795 432 643
4 677 433 435 317
4 645 285 283 434
4 435 317 319 679
4 784 424 310 667
4 785 276 633 425
4 645 643 795 283
4 317 435 677 679
4 639 279 427 430
4 673 426 791 313
4 310 784 667 670
4 276 785 633 636
4 816 378 454 738
4 378 816 723 738
4 363 378 456 723
4 378 375 454 738
4 814 816 454 738
4 378 816 454 456
4 795 797 645 434
4 794 679 435 796
4 816 456 378 723
4 814 454 375 738
4 436 285 645 434
4 437 435 319 679
4 436 645 797 434
4 437 435 679 796
4 645 287 285 436
4 437 319 321 679
4 647 797 801 441
4 796 681 437 800
4 800 321 437 440
4 797 287 436 441
4 289 445 805 291
4 323 325 444 804
4 679 681 437 796
4 287 645 797 436
4 441 445 805 289
4 444 800 323 804
4 683 323 321 800
4 441 649 287 289
4 804 685 447 807
4 446 806 805 291
4 445 446 805 291
4 325 804 447 444
4 647 801 649 441
4 321 800 437 681
4 440 321 323 800
4 797 647 287 441
4 681 437 321 679
4 647 645 797 287
4 681 683 321 800
4 287 647 649 441
4 805 651 649 289
4 325 323 683 804
4 441 805 649 289
4 800 683 323 804
4 801 805 649 441
4 800 444 323 440
4 683 685 325 804
4 805 651 289 291
4 804 325 447 685
4 806 651 805 291
4 757 587 790 226
4 791 227 396 586
4 226 790 757 430
4 227 396 431 791
4 397 226 757 430
4 396 791 586 756
4 793 227 791 586
4 792 790 587 226
4 430 226 790 432
4 433 227 431 791
4 227 793 791 433
4 226 792 790 432
4 586 793 400 760
4 793 400 227 586
4 792 587 761 401
4 401 792 587 226
4 433 400 227 793
4 226 401 792 432
4 793 794 400 760
4 795 792 761 401
4 432 795 401 792
4 433 435 400 793
4 757 229 397 427
4 786 396 228 756
4 589 757 787 229
4 588 786 228 756
4 426 396 228 786
4 229 757 787 427
4 794 400 435 793
4 795 432 401 434
4 754 394 424 591
4 394 231 424 591
4 785 590 755 230
4 230 755 785 395
4 395 755 785 421
4 424 754 780 394
4 401 761 795 222
4 582 400 794 760
4 794 435 400 582
4 795 401 222 434
4 761 583 795 222
4 223 400 435 582
4 394 780 588 754
4 395 229 755 421
4 420 228 394 588
4 781 755 589 229
4 228 420 786 588
4 787 781 589 229
4 229 787 781 427
4 426 228 420 786
4 427 757 790 430
4 396 426 431 791
4 427 397 757 430
4 396 786 791 756
4 790 787 757 427
4 426 396 786 791
4 785 230 395 425
4 591 424 754 784
4 754 424 780 784
4 780 424 394 420
4 781 785 755 421
4 425 395 785 421
4 797 795 222 434
4 435 794 796 582
4 583 797 795 222
4 796 223 435 582
4 747 223 796 582
4 583 748 797 222
4 437 387 223 747
4 748 222 388 436
4 383 805 225 445
4 584 804 444 742
4 442 391 237 751
4 751 237 442 597
4 597 442 751 802
4 805 446 383 806
4 804 447 742 807
4 447 804 742 444
4 446 805 383 445
4 436 388 748 441
4 800 387 437 747
4 584 382 444 224
4 382 584 444 742
4 805 383 225 743
4 805 585 743 225
4 229 781 755 421
4 780 394 588 420
4 221 382 447 581
4 383 580 806 220
4 220 806 383 446
4 447 807 581 742
4 444 447 382 742
4 743 806 805 383
4 780 786 420 588
4 427 781 229 421
4 436 797 222 434
4 223 796 435 437
4 581 382 447 742
4 743 580 806 383
4 450 597 442 237
4 442 597 810 802
4 597 450 442 810
4 796 437 223 747
4 222 748 797 436
4 387 800 437 440
4 436 748 797 441
4 437 796 800 747
4 801 797 748 441
4 404 597 762 810
4 237 404 450 597
4 597 404 450 810
4 451 404 762 810
4 584 387 800 747
4 748 388 225 441
4 762 451 810 811
4 404 238 451 598
4 762 451 598 404
4 404 451 450 810
4 451 762 598 811
4 224 387 440 584
4 748 585 801 225
4 445 805 225 441
4 444 800 804 584
4 225 801 748 441
4 800 440 387 584
4 440 444 224 584
4 805 801 585 225
4 805 801 225 441
4 444 440 800 584
4 456 454 402 763
4 598 451 454 238
4 451 598 454 811
4 402 598 454 238
4 598 402 454 763
4 454 763 816 814
4 456 454 763 816
4 598 454 811 814
4 763 454 598 814
4 271 422 631 273
4 633 631 782 273
4 425 633 782 273
4 783 307 424 667
4 784 783 424 667
4 633 782 785 425
4 423 231 399 591
4 782 230 398 590
4 758 590 782 398
4 591 759 399 783
4 423 591 424 231
4 785 230 782 590
4 424 591 783 784
4 230 785 782 425
4 422 782 631 273
4 307 783 424 423
4 422 425 782 273
4 591 399 423 783
4 230 782 398 422
4 591 423 424 783
4 782 230 425 422
4 438 391 592 232
4 438 751 592 391
4 442 751 438 391
4 751 442 438 802
4 751 438 592 798
4 798 751 438 802
4 422 631 429 271
4 631 422 429 782
4 789 782 631 429
4 451 810 811 734
4 374 450 451 810
4 811 375 451 734
4 734 811 375 735
4 810 451 374 734
4 375 374 451 734
4 429 631 632 271
4 631 429 632 789
4 632 429 461 789
4 272 429 632 271
4 821 789 632 461
4 429 632 461 272
4 596 752 803 392
4 803 236 392 443
4 600 456 402 763
4 763 600 456 816
4 236 803 392 596
4 402 240 456 600
4 406 580 543 220
4 765 488 221 581
4 688 245 328 690
4 294 296 654 244
4 362 817 721 361
4 456 455 363 723
4 816 815 456 723
4 455 363 723 721
4 455 363 721 361
4 779 457 362 419
4 457 779 362 817
4 803 236 443 452
4 815 456 600 816
4 295 654 293 294
4 688 327 329 328
4 622 457 262 380
4 817 380 622 740
4 596 803 812 236
4 600 240 456 815
4 729 443 452 803
4 599 764 813 403
4 599 239 403 453
4 580 406 543 766
4 221 405 488 765
4 443 729 452 369
4 808 826 655 467
4 689 466 809 827
4 764 596 812 236
4 815 600 240 380
4 721 722 817 362
4 729 367 452 369
4 455 456 815 723
4 453 728 813 778
4 778 418 453 368
4 723 815 455 721
4 367 729 452 727
4 236 803 812 452
4 455 456 240 815
4 728 367 453 727
4 452 729 803 812
4 711 603 243 838
4 243 351 711 838
4 302 668 308 836
4 662 668 302 836
4 331 330 245 691
4 657 296 297 244
4 330 328 245 690
4 604 654 656 296
4 455 817 815 380
4 380 817 622 457
4 655 656 654 295
4 329 688 690 689
4 812 403 452 453
4 812 403 236 452
4 815 240 455 380
4 727 729 452 812
4 245 605 691 690
4 296 657 604 244
4 367 728 453 368
4 403 813 599 453
4 264 165 624 520
4 112 265 575 625
4 467 655 772 826
4 466 689 773 827
4 815 817 740 380
4 327 326 328 688
4 292 293 654 294
4 764 812 813 403
4 403 812 236 764
4 448 655 808 293
4 329 449 687 809
4 600 815 740 380
4 413 409 266 769
4 267 768 412 408
4 467 772 627 826
4 466 773 266 827
4 817 361 455 721
4 828 296 295 468
4 469 690 829 689
4 326 327 325 687
4 291 293 653 292
4 361 362 817 457
4 453 452 727 367
4 455 817 380 457
4 412 828 295 468
4 689 829 469 773
4 403 812 813 453
4 817 721 455 815
4 466 266 405 827
4 406 627 826 467
4 728 727 453 813
4 452 727 812 453
4 59 165 264 520
4 625 575 112 218
4 552 417 77 415
4 526 183 777 417
4 416 24 471 774
4 552 417 415 183
4 497 24 414 774
4 775 183 552 415
4 774 130 471 776
4 488 501 765 10
4 543 63 555 406
4 555 766 169 543
4 501 488 765 116
4 773 266 769 413
4 627 768 772 412
4 327 688 329 687
4 293 655 654 295
4 653 655 654 293
4 329 688 689 687
4 115 626 501 502
4 555 62 556 267
4 501 266 9 502
4 556 627 168 555
4 361 817 455 457
4 501 10 405 765
4 543 555 766 406
4 488 405 10 765
4 727 813 812 453
4 469 625 829 770
4 468 264 828 410
4 774 416 355 715
4 715 699 713 841
4 339 355 353 841
4 465 523 768 408
4 409 578 464 769
4 821 461 697 840
4 697 461 337 840
4 809 221 447 581
4 580 808 806 220
4 807 809 447 581
4 220 808 806 446
4 447 449 221 809
4 446 220 808 448
4 327 326 688 687
4 654 653 293 292
4 690 770 469 829
4 296 468 828 410
4 691 330 245 690
4 656 657 604 296
4 575 111 577 770
4 770 577 575 217
4 410 522 58 520
4 522 771 164 520
4 828 412 295 772
4 413 329 469 773
4 826 808 406 467
4 405 466 827 809
4 808 580 406 220
4 221 809 765 581
4 220 406 808 448
4 405 221 449 809
4 685 687 447 807
4 653 806 446 291
4 325 687 447 685
4 806 653 651 291
4 808 580 766 406
4 405 221 809 765
4 405 266 9 501
4 267 555 62 406
4 627 766 168 555
4 765 626 501 115
4 772 467 412 295
4 329 413 466 773
4 575 770 217 625
4 58 264 410 520
4 624 164 771 520
4 411 111 265 575
4 221 405 10 488
4 406 543 63 220
4 766 580 169 543
4 581 765 488 116
4 663 667 668 836
4 303 308 307 836
4 772 467 627 412
4 773 466 266 413
4 469 625 770 265
4 264 624 828 410
4 828 412 264 468
4 773 469 625 829
4 803 392 752 837
4 803 443 392 837
4 655 653 808 293
4 329 449 327 687
4 448 655 293 295
4 687 689 329 809
4 626 501 266 765
4 627 555 267 406
4 803 709 443 837
4 709 349 443 837
4 448 808 655 467
4 329 466 449 809
4 355 460 414 820
4 458 355 416 715
4 818 458 776 715
4 715 355 774 820
4 331 411 330 691
4 657 296 410 297
4 410 624 771 520
4 575 265 411 770
4 266 501 626 502
4 555 556 627 267
4 697 345 705 840
4 697 337 345 840
4 446 653 808 806
4 809 447 687 807
4 808 446 448 293
4 687 449 447 809
4 307 667 783 834
4 307 783 423 834
4 711 838 351 841
4 826 766 627 406
4 827 266 405 765
4 657 462 509 297
4 463 331 564 691
4 296 828 295 656
4 330 469 329 690
4 412 772 828 264
4 469 773 625 413
4 768 825 523 465
4 769 578 464 824
4 771 522 410 520
4 772 624 828 264
4 413 625 469 265
4 691 411 330 690
4 657 656 771 296
4 653 446 293 291
4 687 325 447 327
4 423 783 428 834
4 428 783 788 834
4 257 617 662 836
4 302 257 662 836
4 243 750 390 838
4 603 750 243 838
4 306 304 664 838
4 664 666 306 838
4 593 392 233 837
4 752 392 593 837
4 828 295 656 655
4 690 469 329 689
4 466 405 449 809
4 448 406 808 467
4 111 411 577 770
4 411 111 575 770
4 691 564 463 823
4 462 657 509 822
4 667 834 307 836
4 826 808 766 406
4 809 827 405 765
4 460 820 355 841
4 715 355 820 841
4 411 469 330 690
4 828 771 656 296
4 828 655 772 295
4 689 469 329 773
4 349 709 706 837
4 706 346 349 837
4 466 689 809 329
4 655 448 467 295
4 306 664 304 834
4 306 666 664 834
4 768 267 412 627
4 266 773 769 626
4 774 471 416 776
4 24 416 414 774
4 775 777 183 417
4 417 183 775 415
4 689 329 466 773
4 655 467 772 295
4 653 446 808 293
4 449 687 447 327
4 355 414 416 774
4 416 774 776 715
4 411 691 770 690
4 296 771 657 410
4 770 469 265 411
4 624 771 828 410
4 595 559 235 415
4 473 232 416 592
4 465 768 267 408
4 409 464 266 769
4 415 235 595 461
4 458 416 232 592
4 821 775 595 461
4 458 776 592 818
4 351 838 338 841
4 698 838 711 841
4 469 411 770 690
4 828 771 296 410
4 821 697 707 840
4 347 337 461 840
4 467 267 627 412
4 827 773 266 626
4 406 267 627 467
4 266 827 626 765
4 759 399 428 833
4 428 788 759 833
4 775 461 821 840
4 776 458 416 715
4 774 355 414 820
4 578 113 464 219
4 60 166 465 523
4 579 464 113 219
4 60 166 524 465
4 564 109 463 215
4 56 162 822 509
4 561 463 109 215
4 162 56 822 506
4 76 559 552 415
4 775 182 559 552
4 416 471 25 473
4 131 473 471 776
4 267 825 768 465
4 769 464 626 824
4 219 464 578 824
4 465 166 825 523
4 465 166 524 825
4 219 579 464 824
4 823 564 463 215
4 822 56 509 462
4 463 561 823 215
4 822 506 56 462
4 705 459 819 840
4 459 705 345 840
4 399 759 500 833
4 392 443 439 837
4 799 803 752 837
4 462 657 410 297
4 331 463 411 691
4 777 417 775 840
4 415 775 417 840
4 706 819 459 837
4 706 459 346 837
4 235 559 76 415
4 182 595 775 559
4 25 232 416 473
4 776 131 473 592
4 711 698 603 838
4 243 338 351 838
4 665 834 667 836
4 307 834 305 836
4 822 657 410 462
4 463 691 823 770
4 308 303 302 836
4 663 668 662 836
4 307 305 303 836
4 663 665 667 836
4 443 349 439 837
4 803 799 709 837
4 559 595 775 415
4 776 473 416 592
4 769 464 266 626
4 825 267 768 627
4 415 595 775 461
4 776 458 592 416
4 22 399 500 833
4 500 759 128 833
4 305 307 423 834
4 783 667 665 834
4 415 461 775 840
4 339 351 338 841
4 698 711 699 841
4 823 577 463 770
4 522 822 410 462
4 267 556 825 465
4 824 464 626 502
4 552 559 775 415
4 473 416 471 776
4 822 657 771 410
4 691 463 411 770
4 460 414 820 833
4 522 822 771 410
4 577 411 463 770
4 460 831 428 833
4 820 831 460 833
4 428 831 788 833
4 626 464 266 502
4 825 627 556 267
4 820 788 831 833
4 768 825 166 523
4 578 769 219 824
4 578 464 113 409
4 60 523 465 408
4 128 494 500 833
4 494 22 500 833
4 494 129 497 833
4 23 494 497 833
4 347 461 415 840
4 775 821 707 840
4 697 705 707 840
4 347 345 337 840
4 823 691 564 215
4 462 56 509 297
4 509 162 822 657
4 331 109 463 564
4 306 838 666 841
4 480 464 824 502
4 825 556 535 465
4 414 774 820 833
4 23 497 414 833
4 129 774 497 833
4 788 831 428 834
4 306 831 666 834
4 390 750 571 835
4 577 576 823 110
4 522 521 822 57
4 576 577 823 216
4 522 521 163 822
4 304 834 664 836
4 535 556 61 465
4 8 464 480 502
4 167 825 556 535
4 824 114 480 502
4 234 399 22 833
4 594 128 759 833
4 428 831 306 834
4 88 89 261 563
4 563 194 195 621
4 89 90 371 544
4 544 195 196 731
4 41 42 389 516
4 200 201 571 750
4 147 749 148 516
4 390 94 95 571
4 210 567 694 211
4 104 105 334 567
4 157 158 512 660
4 52 51 512 300
4 661 160 159 511
4 106 107 335 566
4 54 53 511 301
4 213 695 566 212
4 107 108 245 542
4 161 160 604 487
4 487 55 54 244
4 214 605 542 213
4 212 606 540 211
4 159 158 607 485
4 105 106 247 540
4 485 53 52 246
4 618 144 143 510
4 37 38 258 510
4 565 196 197 619
4 90 91 259 565
4 35 36 260 508
4 620 142 141 508
4 576 110 463 823
4 822 57 521 462
4 577 463 110 823
4 822 522 57 462
4 37 36 489 381
4 142 741 143 489
4 783 665 788 834
4 305 423 428 834
4 257 830 390 835
4 390 830 750 835
4 257 617 830 835
4 617 750 830 835
4 788 666 831 834
4 750 664 617 830
4 304 830 257 836
4 304 664 830 836
4 617 257 830 836
4 617 830 664 836
4 233 832 593 837
4 390 257 304 830
4 819 832 459 837
4 819 459 832 840
4 390 830 304 838
4 304 830 664 838
4 390 750 830 838
4 750 664 830 838
4 593 832 233 839
4 497 774 414 833
4 392 439 233 837
4 752 593 799 837
4 162 509 161 657
4 56 55 509 297
4 331 108 109 564
4 215 691 564 214
4 428 234 460 833
4 594 788 820 833
4 664 834 665 836
4 305 834 304 836
4 233 459 832 837
4 593 832 819 837
4 305 304 303 836
4 664 665 663 836
4 257 302 303 836
4 617 663 662 836
4 338 243 390 838
4 603 698 750 838
4 306 338 304 838
4 664 698 666 838
4 306 338 838 841
4 666 838 698 841
4 759 788 594 833
4 428 399 234 833
4 769 218 578 219
4 165 768 166 523
4 523 60 59 408
4 113 578 409 112
4 460 831 820 841
4 460 355 339 841
4 820 699 715 841
4 709 799 706 837
4 349 346 439 837
4 306 666 831 841
4 788 666 820 831
4 777 775 707 840
4 415 417 347 840
4 428 460 306 831
4 305 306 304 834
4 666 665 664 834
4 824 579 464 480
4 825 535 524 465
4 576 463 561 823
4 822 521 506 462
4 306 831 460 841
4 820 831 666 841
4 257 390 95 835
4 201 750 617 835
4 530 617 257 835
4 664 663 617 836
4 257 303 304 836
4 698 664 750 838
4 304 338 390 838
4 699 666 698 841
4 306 339 338 841
4 561 7 823 215
4 506 1 56 462
4 162 5 506 822
4 463 109 3 561
4 219 4 579 824
4 166 825 6 524
4 524 2 60 465
4 464 113 0 579
4 417 832 459 840
4 819 832 777 840
4 417 233 832 839
4 777 832 593 839
4 593 233 528 839
4 823 216 577 770
4 163 522 822 771
4 411 463 110 577
4 410 57 522 462
4 95 390 571 835
4 571 750 201 835
4 114 824 626 502
4 61 556 267 465
4 8 266 464 502
4 167 825 627 556
4 98 99 341 573
4 204 573 701 205
4 151 152 518 700
4 518 46 45 340
4 238 29 30 495
4 495 135 136 598
4 74 73 549 230
4 590 180 179 549
4 493 21 20 231
4 493 126 127 591
4 595 182 181 559
4 134 135 490 762
4 490 29 28 404
4 76 75 559 235
4 586 492 123 122
4 234 22 23 494
4 500 127 128 759
4 75 74 547 398
4 16 17 227 492
4 181 180 758 547
4 176 175 587 548
4 70 69 548 226
4 128 129 494 594
4 228 18 19 499
4 22 21 500 399
4 589 178 177 554
4 124 499 588 125
4 554 72 71 229
4 755 179 178 558
4 504 125 126 754
4 20 19 504 394
4 73 72 558 395
4 123 496 756 124
4 71 70 551 397
4 177 176 757 551
4 396 17 18 496
4 483 28 27 237
4 133 134 483 597
4 15 16 400 498
4 69 68 553 401
4 122 121 760 498
4 175 174 761 553
4 99 100 253 531
4 206 613 531 205
4 476 152 153 612
4 47 46 476 252
4 67 66 536 388
4 173 172 748 536
4 747 120 119 481
4 13 14 387 481
4 201 202 530 617
4 43 42 475 256
4 148 616 149 475
4 257 95 96 530
4 584 517 119 118
4 12 13 224 517
4 472 27 26 391
4 527 80 79 392
4 132 133 472 751
4 752 186 185 527
4 66 65 572 225
4 172 171 585 572
4 582 121 120 503
4 14 15 223 503
4 68 67 557 222
4 174 173 583 557
4 97 98 255 534
4 203 204 534 615
4 151 150 614 479
4 254 44 45 479
4 742 118 117 474
4 11 12 382 474
4 171 170 743 529
4 65 64 529 383
4 10 11 221 488
4 116 488 581 117
4 491 31 30 402
4 136 137 491 763
4 64 63 543 220
4 170 169 580 543
4 199 200 532 603
4 602 147 146 477
4 243 93 94 532
4 41 40 477 242
4 593 185 184 528
4 79 78 528 233
4 232 25 26 473
4 131 132 473 592
4 87 88 386 560
4 193 194 560 746
4 101 102 251 533
4 611 533 208 207
4 49 48 478 250
4 610 155 154 478
4 302 96 97 574
4 44 43 519 268
4 202 203 574 662
4 150 149 628 519
4 191 190 601 539
4 85 84 539 241
4 207 692 570 206
4 515 48 47 298
4 100 101 332 570
4 153 154 515 658
4 562 192 193 623
4 86 87 263 562
4 102 103 333 568
4 156 155 659 513
4 209 693 568 208
4 513 50 49 299
4 85 86 358 525
4 525 192 718 191
4 609 537 210 209
4 482 51 50 248
4 103 104 249 537
4 157 156 608 482
4 350 92 93 569
4 198 199 569 710
4 145 702 146 514
4 39 40 342 514
4 384 91 92 541
4 197 198 541 744
4 38 39 385 486
4 745 145 144 486
4 187 186 596 538
4 538 81 80 236
4 240 31 32 484
4 137 138 484 600
4 459 345 347 840
4 705 819 707 840
4 414 234 23 833
4 774 129 594 833
4 34 35 364 505
4 141 140 724 505
4 190 189 753 546
4 546 84 83 393
4 188 187 764 545
4 545 82 81 403
4 138 740 139 470
4 470 33 32 380
4 788 665 666 834
4 306 305 428 834
4 626 115 114 502
4 556 62 61 267
4 168 167 627 556
4 8 9 266 502
4 770 216 577 217
4 771 163 522 164
4 522 58 57 410
4 111 411 110 577
4 777 832 417 840
4 417 832 777 839
4 820 774 594 833
4 460 234 414 833
4 622 140 139 507
4 34 33 507 262
4 599 189 188 550
4 550 83 82 239
4 561 3 463 576
4 521 1 506 462
4 521 506 5 822
4 561 7 576 823
4 4 579 824 480
4 535 6 825 524
4 579 0 464 480
4 524 535 2 465
4 233 439 459 837
4 593 819 799 837
4 439 346 459 837
4 706 799 819 837
4 9 10 405 501
4 63 62 555 406
4 169 168 766 555
4 116 765 501 115
4 112 265 111 575
4 164 624 165 520
4 625 217 575 218
4 264 58 59 520
4 339 306 460 841
4 699 820 666 841
4 494 234 22 833
4 128 594 494 833
4 234 494 23 833
4 494 594 129 833
4 417 459 347 840
4 777 707 819 840
4 777 819 593 832
4 233 459 417 832
4 417 78 233 839
4 777 593 184 839
4 497 129 130 774
4 414 23 24 497
4 77 76 552 415
4 775 183 182 552
4 25 24 471 416
4 130 131 471 776
4 777 184 183 526
4 78 77 526 417
4 526 417 777 839
4 257 95 530 835
4 530 201 617 835
4 528 233 78 839
4 593 528 184 839
4 579 4 0 480
4 2 6 535 524
4 561 7 3 576
4 506 5 1 521
4 216 576 7 823
4 110 463 3 576
4 57 1 521 462
4 5 521 822 163
4 114 4 824 480
4 825 167 6 535
4 0 8 464 480
4 535 61 2 465
4 526 78 417 839
4 526 777 184 839
4 95 571 201 835
4 526 184 528 839
4 528 78 526 839
4 713 841 711 353
4 711 841 713 699
4 841 351 353 339
4 841 353 351 711

CELL_TYPES 2273
10
10
10
10
10
10
10
10
10
10
10
10
10
10
10
10
10
10
10
10
10
10
10
10
10
10
10
10
10
10
10
10
10
10
10
10
10
10
10
10
10
10
10
10
10
10
10
10
10
10
10
10
10
10
10
10
10
10
10
10
10
10
10
10
10
10
10
10
10
10
10
10
10
10
10
10
10
10
10
10
10
10
10
10
10
10
10
10
10
10
10
10
10
10
10
10
10
10
10
10
10
10
10
10
10
10
10
10
10
10
10
10
10
10
10
10
10
10
10
10
10
10
10
10
10
10
10
10
10
10
10
10
10
10
10
10
10
10
10
10
10
10
10
10
10
10
10
10
10
10
10
10
10
10
10
10
10
10
10
10
10
10
10
10
10
10
10
10
10
10
10
10
10
10
10
10
10
10
10
10
10
10
10
10
10
10
10
10
10
10
10
10
10
10
10
10
10
10
10
10
10
10
10
10
10
10
10
10
10
10
10
10
10
10
10
10
10
10
10
10
10
10
10
10
10
10
10
10
10
10
10
10
10
10
10
10
10
10
10
10
10
10
10
10
10
10
10
10
10
10
10
10
10
10
10
10
10
10
10
10
10
10
10
10
10
10
10
10
10
10
10
10
10
10
10
10
10
10
10
10
10
10
10
10
10
10
10
10
10
10
10
10
10
10
10
10
10
10
10
10
10
10
10
10
10
10
10
10
10
10
10
10
10
10
10
10
10
10
10
10
10
10
10
10
10
10
10
10
10
10
10
10
10
10
10
10
10
10
10
10
10
10
10
10
10
10
10
10
10
10
10
10
10
10
10
10
10
10
10
10
10
10
10
10
10
10
10
10
10
10
10
10
10
10
10
10
10
10
10
10
10
10
10
10
10
10
10
10
10
10
10
10
10
10
10
10
10
10
10
10
10
10
10
10
10
10
10
10
10
10
10
10
10
10
10
10
10
10
10
10
10
10
10
10
10
10
10
10
10
10
10
10
10
10
10
10
10
10
10
10
10
10
10
10
10
10
10
10
10
10
10
10
10
10
10
10
10
10
10
10
10
10
10
10
10
10
10
10
10
10
10
10
10
10
10
10
10
10
10
10
10
10
10
10
10
10
10
10
10
10
10
10
10
10
10
10
10
10
10
10
10
10
10
10
10
10
10
10
10
10
10
10
10
10
10
10
10
10
10
10
10
10
10
10
10
10
10
10
10
10
10
10
10
10
10
10
10
10
10
10
10
10
10
10
10
10
10
10
10
10
10
10
10
10
10
10
10
10
10
10
10
10
10
10
10
10
10
10
10
10
10
10
10
10
10
10
10
10
10
10
10
10
10
10
10
10
10
10
10
10
10
10
10
10
10
10
10
10
10
10
10
10
10
10
10
10
10
10
10
10
10
10
10
10
10
10
10
10
10
10
10
10
10
10
10
10
10
10
10
10
10
10
10
10
10
10
10
10
10
10
10
10
10
10
10
10
10
10
10
10
10
10
10
10
10
10
10
10
10
10
10
10
10
10
10
10
10
10
10
10
10
10
10
10
10
10
10
10
10
10
10
10
10
10
10
10
10
10
10
10
10
10
10
10
10
10
10
10
10
10
10
10
10
10
10
10
10
10
10
10
10
10
10
10
10
10
10
10
10
10
10
10
10
10
10
10
10
10
10
10
10
10
10
10
10
10
10
10
10
10
10
10
10
10
10
10
10
10
10
10
10
10
10
10
10
10
10
10
10
10
10
10
10
10
10
10
10
10
10
10
10
10
10
10
10
10
10
10
10
10
10
10
10
10
10
10
10
10
10
10
10
10
10
10
10
10
10
10
10
10
10
10
10
10
10
10
10
10
10
10
10
10
10
10
10
10
10
10
10
10
10
10
10
10
10
10
10
10
10
10
10
10
10
10
10
10
10
10
10
10
10
10
10
10
10
10
10
10
10
10
10
10
10
10
10
10
10
10
10
10
10
10
10
10
10
10
10
10
10
10
10
10
10
10
10
10
10
10
10
10
10
10
10
10
10
10
10
10
10
10
10
10
10
10
10
10
10
10
10
10
10
10
10
10
10
10
10
10
10
10
10
10
10
10
10
10
10
10
10
10
10
10
10
10
10
10
10
10
10
10
10
10
10
10
10
10
10
10
10
10
10
10
10
10
10
10
10
10
10
10
10
10
10
10
10
10
10
10
10
10
10
10
10
10
10
10
10
10
10
10
10
10
10
10
10
10
10
10
10
10
10
10
10
10
10
10
10
10
10
10
10
10
10
10
10
10
10
10
10
10
10
10
10
10
10
10
10
10
10
10
10
10
10
10
10
10
10
10
10
10
10
10
10
10
10
10
10
10
10
10
10
10
10
10
10
10
10
10
10
10
10
10
10
10
10
10
10
10
10
10
10
10
10
10
10
10
10
10
10
10
10
10
10
10
10
10
10
10
10
10
10
10
10
10
10
10
10
10
10
10
10
10
10
10
10
10
10
10
10
10
10
10
10
10
10
10
10
10
10
10
10
10
10
10
10
10
10
10
10
10
10
10
10
10
10
10
10
10
10
10
10
10
10
10
10
10
10
10
10
10
10
10
10
10
10
10
10
10
10
10
10
10
10
10
10
10
10
10
10
10
10
10
10
10
10
10
10
10
10
10
10
10
10
10
10
10
10
10
10
10
10
10
10
10
10
10
10
10
10
10
10
10
10
10
10
10
10
10
10
10
10
10
10
10
10
10
10
10
10
10
10
10
10
10
10
10
10
10
10
10
10
10
10
10
10
10
10
10
10
10
10
10
10
10
10
10
10
10
10
10
10
10
10
10
10
10
10
10
10
10
10
10
10
10
10
10
10
10
10
10
10
10
10
10
10
10
10
10
10
10
10
10
10
10
10
10
10
10
10
10
10
10
10
10
10
10
10
10
10
10
10
10
10
10
10
10
10
10
10
10
10
10
10
10
10
10
10
10
10
10
10
10
10
10
10
10
10
10
10
10
10
10
10
10
10
10
10
10
10
10
10
10
10
10
10
10
10
10
10
10
10
10
10
10
10
10
10
10
10
10
10
10
10
10
10
10
10
10
10
10
10
10
10
10
10
10
10
10
10
10
10
10
10
10
10
10
10
10
10
10
10
10
10
10
10
10
10
10
10
10
10
10
10
10
10
10
10
10
10
10
10
10
10
10
10
10
10
10
10
10
10
10
10
10
10
10
10
10
10
10
10
10
10
10
10
10
10
10
10
10
10
10
10
10
10
10
10
10
10
10
10
10
10
10
10
10
10
10
10
10
10
10
10
10
10
10
10
10
10
10
10
10
10
10
10
10
10
10
10
10
10
10
10
10
10
10
10
10
10
10
10
10
10
10
10
10
10
10
10
10
10
10
10
10
10
10
10
10
10
10
10
10
10
10
10
10
10
10
10
10
10
10
10
10
10
10
10
10
10
10
10
10
10
10
10
10
10
10
10
10
10
10
10
10
10
10
10
10
10
10
10
10
10
10
10
10
10
10
10
10
10
10
10
10
10
10
10
10
10
10
10
10
10
10
10
10
10
10
10
10
10
10
10
10
10
10
10
10
10
10
10
10
10
10
10
10
10
10
10
10
10
10
10
10
10
10
10
10
10
10
10
10
10
10
10
10
10
10
10
10
10
10
10
10
10
10
10
10
10
10
10
10
10
10
10
10
10
10
10
10
10
10
10
10
10
10
10
10
10
10
10
10
10
10
10
10
10
10
10
10
10
10
10
10
10
10
10
10
10
10
10
10
10
10
10
10
10
10
10
10
10
10
10
10
10
10
10
10
10
10
10
10
10
10
10
10
10
10
10
10
10
10
10
10
10
10
10
10
10
10
10
10
10
10
10
10
10
10
10
10
10
10
10
10
10
10
10
10
10
10
10
10
10
10
10
10
10
10
10
10
10
10
10
10
10
10
10
10
10
10
10
10
10
10
10
10
10
10
10
10
10
10
10
10
10
10
10
10
10
10
10
10
10
10
10
10
10
10
10
10
10
10
10
10
10
10
10
10
10
10
10
10
10
10
10
10
10
10
10
10
10
10
10
10
10
10
10
10
10
10
10
10
10
10
10
10
10
10
10
10
10
10
10
10
10
10
10
10
10
10
10
10
10
10
10
10
10
10
10
10
10
10
10
10
10
10
10
10
10
10
10
10
10
10
10
10
10
10
10
10
10
10
10
10
10
10
10
10
10
10
10
10
10
10
10
10
10
10
10
10
10
10
10
10
10
10
10
10
10
10
10
10
10
10
10
10
10
10
10
10
10
10
10
10
10
10
10
10
10
10
10
10
10
10
10
10
10
10
10
10
10
10
10
10
10
10
10
10
10
10
10
10
10
10
10
10
10
10
10
10
10
10
10
10
10
10
10
10
10
10
10
10
10
10
10
10
10
10
10
10
10
10
10
10
10
10
10
10
10
10
10
10
10
10
10
10
10
10
10
10
10
10
10
10
10
10
10
10
10
10
10
10
10
10
10
10
10
10
10
10
10
10
10
10
10
10
10
10
10
10
10
10
10
10
10
10
10
10
10
10
10
10
10
10
10
10
10
10
10
10
10
10
10
10
10
10
10
10
10
10
10
10
10
10
10
10
10
10
10
10
10
10
10
10
10
10
10
10
10
10
10
10
10
10
10
10
10
10
10
10
10
10
10
10
10
10
10
10
10
10
10
10
10
10
10
10
10
10
10
10
10
10
10
10
10
10
10
10
10
10
10
10
10
10
10
10
10
10
10
10
10
10
10
10
10
10
10
10
10
10
10
10
10
10
10
10
10
10
10
10
10
10
10
10
10
10
10
10
10
10
10
10
10
10
10
10
10
10
10
10
10
10
10
10
10
10
10
10
10
10
10
10
10
10
10
10
10
10
10
10
10
10
10
10
10
10
10
10
10
10
10
10
10
10
10
10
10
10
10
10
10
10
10
10
10
10
10
10
10
10
10
10
10
10
10
10
10
10
10
10
10
10
10
10
10
10
10
10
10
10
10
10
10
10
10
10
10
10
10
10
10
10
10
10
10
10
10
10
10
10
10
10
10
10
10
10
10
10
10
10
10
10
10
10
10
10
10
10
10
10
10
10
10
10
10
10
10
10
10
10
10
10
10
10
10
10
10
10
10
10
10
10
10
10
10
10
10
10
10
10
10
10
10

CELL_DATA 2273
SCALARS CellEntityIds int 1
LOOKUP_TABLE default
1
1
1
1
1
1
1
1
1
1
1
1
1
1
1
1
1
1
1
1
1
1
1
1
1
1
1
1
1
1
1
1
1
1
1
1
1
1
1
1
1
1
1
1
1
1
1
1
1
1
1
1
1
1
1
1
1
1
1
1
1
1
1
1
1
1
1
1
1
1
1
1
1
1
1
1
1
1
1
1
1
1
1
1
1
1
1
1
1
1
1
1
1
1
1
1
1
1
1
1
1
1
1
1
1
1
1
1
1
1
1
1
1
1
1
1
1
1
1
1
1
1
1
1
1
1
1
1
1
1
1
1
1
1
1
1
1
1
1
1
1
1
1
1
1
1
1
1
1
1
1
1
1
1
1
1
1
1
1
1
1
1
1
1
1
1
1
1
1
1
1
1
1
1
1
1
1
1
1
1
1
1
1
1
1
1
1
1
1
1
1
1
1
1
1
1
1
1
1
1
1
1
1
1
1
1
1
1
1
1
1
1
1
1
1
1
1
1
1
1
1
1
1
1
1
1
1
1
1
1
1
1
1
1
1
1
1
1
1
1
1
1
1
1
1
1
1
1
1
1
1
1
1
1
1
1
1
1
1
1
1
1
1
1
1
1
1
1
1
1
1
1
1
1
1
1
1
1
1
1
1
1
1
1
1
1
1
1
1
1
1
1
1
1
1
1
1
1
1
1
1
1
1
1
1
1
1
1
1
1
1
1
1
1
1
1
1
1
1
1
1
1
1
1
1
1
1
1
1
1
1
1
1
1
1
1
1
1
1
1
1
1
1
1
1
1
1
1
1
1
1
1
1
1
1
1
1
1
1
1
1
1
1
1
1
1
1
1
1
1
1
1
1
1
1
1
1
1
1
1
1
1
1
1
1
1
1
1
1
1
1
1
1
1
1
1
1
1
1
1
1
1
1
1
1
1
1
1
1
1
1
1
1
1
1
1
1
1
1
1
1
1
1
1
1
1
1
1
1
1
1
1
1
1
1
1
1
1
1
1
1
1
1
1
1
1
1
1
1
1
1
1
1
1
1
1
1
1
1
1
1
1
1
1
1
1
1
1
1
1
1
1
1
1
1
1
1
1
1
1
1
1
1
1
1
1
1
1
1
1
1
1
1
1
1
1
1
1
1
1
1
1
1
1
1
1
1
1
1
1
1
1
1
1
1
1
1
1
1
1
1
1
1
1
1
1
1
1
1
1
1
1
1
1
1
1
1
1
1
1
1
1
1
1
1
1
1
1
1
1
1
1
1
1
1
1
1
1
1
1
1
1
1
1
1
1
1
1
1
1
1
1
1
1
1
1
1
1
1
1
1
1
1
1
1
1
1
1
1
1
1
1
1
1
1
1
1
1
1
1
1
1
1
1
1
1
1
1
1
1
1
1
1
1
1
1
1
1
1
1
1
1
1
1
1
1
1
1
1
1
1
1
1
1
1
1
1
1
1
1
1
1
1
1
1
1
1
1
1
1
1
1
1
1
1
1
1
1
1
1
1
1
1
1
1
1
1
1
1
1
1
1
1
1
1
1
1
1
1
1
1
1
1
1
1
1
1
1
1
1
1
1
1
1
1
1
1
1
1
1
1
1
1
1
1
1
1
1
1
1
1
1
1
1
1
1
1
1
1
1
1
1
1
1
1
1
1
1
1
1
1
1
1
1
1
1
1
1
1
1
1
1
1
1
1
1
1
1
1
1
1
1
1
1
1
1
1
1
1
1
1
1
1
1
1
1
1
1
1
1
1
1
1
1
1
1
1
1
1
1
1
1
1
1
1
1
1
1
1
1
1
1
1
1
1
1
1
1
1
1
1
1
1
1
1
1
1
1
1
1
1
1
1
1
1
1
1
1
1
1
1
1
1
1
1
1
1
1
1
1
1
1
1
1
1
1
1
1
1
1
1
1
1
1
1
1
1
1
1
1
1
1
1
1
1
1
1
1
1
1
1
1
1
1
1
1
1
1
1
1
1
1
1
1
1
1
1
1
1
1
1
1
1
1
1
1
1
1
1
1
1
1
1
1
1
1
1
1
1
1
1
1
1
1
1
1
1
1
1
1
1
1
1
1
1
1
1
1
1
1
1
1
1
1
1
1
1
1
1
1
1
1
1
1
1
1
1
1
1
1
1
1
1
1
1
1
1
1
1
1
1
1
1
1
1
1
1
1
1
1
1
1
1
1
1
1
1
1
1
1
1
1
1
1
1
1
1
1
1
1
1
1
1
1
1
1
1
1
1
1
1
1
1
1
1
1
1
1
1
1
1
1
1
1
1
1
1
1
1
1
1
1
1
1
1
1
1
1
1
1
1
1
1
1
1
1
1
1
1
1
1
1
1
1
1
1
1
1
1
1
1
1
1
1
1
1
1
1
1
1
1
1
1
1
1
1
1
1
1
1
1
1
1
1
1
1
1
1
1
1
1
1
1
1
1
1
1
1
1
1
1
1
1
1
1
1
1
1
1
1
1
1
1
1
1
1
1
1
1
1
1
1
1
1
1
1
1
1
1
1
1
1
1
1
1
1
1
1
1
1
1
1
1
1
1
1
1
1
1
1
1
1
1
1
1
1
1
1
1
1
1
1
1
1
1
1
1
1
1
1
1
1
1
1
1
1
1
1
1
1
1
1
1
1
1
1
1
1
1
1
1
1
1
1
1
1
1
1
1
1
1
1
1
1
1
1
1
1
1
1
1
1
1
1
1
1
1
1
1
1
1
1
1
1
1
1
1
1
1
1
1
1
1
1
1
1
1
1
1
1
1
1
1
1
1
1
1
1
1
1
1
1
1
1
1
1
1
1
1
1
1
1
1
1
1
1
1
1
1
1
1
1
1
1
1
1
1
1
1
1
1
1
1
1
1
1
1
1
1
1
1
1
1
1
1
1
1
1
1
1
1
1
1
1
1
1
1
1
1
1
1
1
1
1
1
1
1
1
1
1
1
1
1
1
1
1
1
1
1
1
1
1
1
1
1
1
1
1
1
1
1
1
1
1
1
1
1
1
1
1
1
1
1
1
1
1
1
1
1
1
1
1
1
1
1
1
1
1
1
1
1
1
1
1
1
1
1
1
1
1
1
1
1
1
1
1
1
1
1
1
1
1
1
1
1
1
1
1
1
1
1
1
1
1
1
1
1
1
1
1
1
1
1
1
1
1
1
1
1
1
1
1
1
1
1
1
1
1
1
1
1
1
1
1
1
1
1
1
1
1
1
1
1
1
1
1
1
1
1
1
1
1
1
1
1
1
1
1
1
1
1
1
1
1
1
1
1
1
1
1
1
1
1
1
1
1
1
1
1
1
1
1
1
1
1
1
1
1
1
1
1
1
1
1
1
1
1
1
1
1
1
1
1
1
1
1
1
1
1
1
1
1
1
1
1
1
1
1
1
1
1
1
1
1
1
1
1
1
1
1
1
1
1
1
1
1
1
1
1
1
1
1
1
1
1
1
1
1
1
1
1
1
1
1
1
1
1
1
1
1
1
1
1
1
1
1
1
1
1
1
1
1
1
1
1
1
1
1
1
1
1
1
1
1
1
1
1
1
1
1
1
1
1
1
1
1
1
1
1
1
1
1
1
1
1
1
1
1
1
1
1
1
1
1
1
1
1
1
1
1
1
1
1
1
1
1
1
1
1
1
1
1
1
1
1
1
1
1
1
1
1
1
1
1
1
1
1
1
1
1
1
1
1
1
1
1
1
1
1
1
1
1
1
1
1
1
1
1
1
1
1
1
1
1
1
1
1
1
1
1
1
1
1
1
1
1
1
1
1
1
1
1
1
1
1
1
1
1
1
1
1
1
1
1
1
1
1
1
1
1
1
1
1
1
1
1
1
1
1
1
1
1
1
1
1
1
1
1
1
1
1
1
1
1
1
1
1
1
1
1
1
1
1
1
1
1
1
1
1
1
1
1
1
1
1
1
1
1
1
1
1
1
1
1
1
1
1
1
1
1
1
1
1
1
1
1
1
1
1
1
1
1
1
1
1
1
1
1
1
1
1
1
1
1
1
1
1
1
1
1
1
1
1
1
1
1
1
1
1
1
1
1
1
1
1
1
1
1
1
1
1
1
1
1
1
1
1
1
1
1
1
1
1
1
1
1
1
1
1
1
1
1
1
1
1
1
1
1
1
1
1
1
1
1
1
1
1
1
1
1
1
1
1
1
1
1
1
1
1
1
1
1
1
1
1
1
1
1
1
1
1
1
1
1
1
1
1
1
1
1
1
1
1
1
1
1
1
1
1
1
1
1
1
1
1
1
1
1
1
1
1
1
1
1
1
1
1
1
1
1
1
1
1
1
1
1
1
1
1
1
1
1
1
1
1
1
1
1
1
1
1
1
1
1
1
1
1
1
1
1
1
1
1
1
1
1
1
1
1
1
1
1
1
1
1
1
1
1
1
1
1
1
1
1
1
1
1
1
1
1
1
1
1
1
1
1
1
1
1
1
1
1
1
1
1
1
1
1
1
1
1
1
1
1
1
1
1
1
1
1
1
1
1
1
1
1
1
1
1
1
1
1
1
1
1
1
1
1
1
1
1
1
1
1
1
1
1
1
1
1
1
1
1
1
1
1
1
1
1
1
1
1
1
1
1
1
1
1
1
1
1
1
1
1
1
1
1
1
1
1
1
1
1
1
1
1
1
1
1
1
1
1
1
1
1
1
1
1
1
1
1
1
1
1
1
1
1
1
1
1
1
1
1
1
1
1
1
1
1
1
1
1
1
1
1
1
1
1
1
1
1
1
1
1
1
1
1
1
1
1
1
1
1
1
1
1
1
1
1
1
1
1
1
1
1
1
1
1
1
1
1
1
1
1
1
1
1
1
1
1
1
1
1
1
1
1
1
1
1
1
1
1
1
1
1
1
1
1
1
1
1
1
1
1
1
1
1
1
1
1
1
1
1
1
1
1
1
1
1
1
1
1
1
1
1
1
1
1
1
1
1
1
1
1
1
1
1
1
1
1
1
1
1
1
1
1
1
1
1
1
1
1
1
1
1
1
1
1
1
1
1
1
1
1
1
1
1
1
1
1
1
1
1
1
1
1
1
1
1
1
1
1
1
1
1
1
1
1
1
1
1
1
1
1
1
1
1
1
1
1
1
1
1
1
1
1
1
1
1
1
1
1
1
