o convex_0
v 0.002089 0.014696 0.096532
v 0.012422 0.011077 0.105320
v 0.012422 0.009015 0.105320
v 0.004151 0.010049 0.063463
v 0.004151 0.004361 0.104802
v -0.007736 0.010563 0.063463
v 0.000019 0.017282 0.063463
v 0.002089 0.010049 0.106875
v -0.000498 0.006945 0.063981
v 0.010352 0.004878 0.102218
v -0.006702 0.015214 0.065014
v 0.008286 0.014696 0.104802
v 0.003634 0.015214 0.065532
v -0.004632 0.007462 0.063463
v 0.011905 0.009015 0.097565
v 0.000019 0.011077 0.100667
v -0.003600 0.017282 0.063981
v 0.001570 0.007462 0.105320
v 0.007769 0.003844 0.105320
v 0.010352 0.013663 0.099116
v -0.006185 0.008496 0.066565
v 0.004151 0.013663 0.063463
v 0.004668 0.013663 0.106353
v 0.011905 0.011596 0.099116
v -0.007736 0.012629 0.065532
v 0.001053 0.007462 0.063463
v 0.005701 0.003844 0.103251
v 0.012422 0.006945 0.103251
v 0.005184 0.015214 0.099634
v 0.000538 0.012629 0.099634
v 0.008286 0.003844 0.103251
v 0.004151 0.006945 0.106875
v 0.001570 0.016765 0.063463
v 0.008801 0.013663 0.106353
v -0.003083 0.006945 0.063463
v 0.008801 0.014696 0.099116
v -0.006702 0.010563 0.069667
v 0.003117 0.005394 0.105834
v 0.003634 0.009015 0.064500
v -0.005666 0.016247 0.063463
v 0.004668 0.012111 0.064500
v -0.006702 0.013663 0.069148
v 0.000019 0.017282 0.066565
f 12 36 43 
f 4 6 7 
f 6 4 14 
f 8 16 18 
f 12 2 20 
f 6 14 21 
f 14 5 21 
f 4 7 22 
f 2 15 24 
f 20 2 24 
f 13 20 24 
f 22 13 24 
f 11 6 25 
f 14 4 26 
f 5 14 27 
f 19 5 27 
f 2 3 28 
f 15 2 28 
f 4 15 28 
f 3 19 28 
f 19 10 28 
f 17 1 29 
f 23 12 29 
f 1 23 29 
f 1 11 30 
f 16 8 30 
f 8 23 30 
f 23 1 30 
f 10 19 31 
f 26 10 31 
f 9 26 31 
f 19 27 31 
f 19 3 32 
f 20 13 33 
f 22 7 33 
f 13 22 33 
f 3 2 34 
f 2 12 34 
f 23 8 34 
f 12 23 34 
f 32 3 34 
f 8 32 34 
f 26 9 35 
f 14 26 35 
f 27 14 35 
f 9 31 35 
f 31 27 35 
f 12 20 36 
f 33 7 36 
f 20 33 36 
f 18 16 37 
f 6 21 37 
f 21 18 37 
f 25 6 37 
f 16 25 37 
f 8 18 38 
f 5 19 38 
f 21 5 38 
f 18 21 38 
f 32 8 38 
f 19 32 38 
f 26 4 39 
f 10 26 39 
f 4 28 39 
f 28 10 39 
f 7 6 40 
f 11 1 40 
f 6 11 40 
f 17 7 40 
f 1 17 40 
f 15 4 41 
f 4 22 41 
f 24 15 41 
f 22 24 41 
f 11 25 42 
f 25 16 42 
f 30 11 42 
f 16 30 42 
f 7 17 43 
f 29 12 43 
f 17 29 43 
f 36 7 43 
o convex_1
v -0.013420 -0.003393 -0.029060
v 0.002085 -0.003393 0.001951
v -0.022724 -0.003393 0.001951
v -0.001017 -0.019932 0.001951
v 0.002085 -0.003911 -0.029056
v -0.007222 -0.016830 -0.017688
v -0.026858 -0.003911 -0.013559
v -0.014970 -0.015796 0.001951
v 0.002085 -0.019932 -0.010457
v -0.001017 -0.012694 -0.023370
v 0.002085 -0.019932 0.001951
v -0.018069 -0.003911 -0.025958
v -0.002054 -0.003393 -0.031129
v -0.026858 -0.003393 -0.007870
v -0.007222 -0.018898 0.001433
v -0.010324 -0.003911 -0.030611
v 0.002085 -0.016829 -0.017688
v -0.006703 -0.016312 -0.019239
v -0.008771 -0.015796 -0.018203
v -0.013420 -0.016830 0.001433
v -0.018588 -0.011148 0.001951
v -0.004635 -0.010115 -0.025958
v -0.026858 -0.003911 -0.007870
v 0.002085 -0.003393 -0.029056
v -0.008771 -0.016312 -0.016652
v -0.026339 -0.003393 -0.014589
v -0.002054 -0.003911 -0.031129
v -0.025308 -0.003911 -0.016137
v -0.014455 -0.003911 -0.028538
f 59 61 72 
f 46 45 44 
f 45 46 47 
f 47 46 51 
f 48 45 52 
f 45 47 54 
f 52 45 54 
f 47 52 54 
f 44 45 56 
f 46 44 57 
f 47 51 58 
f 52 47 58 
f 49 52 58 
f 44 56 59 
f 48 52 60 
f 53 48 60 
f 53 60 61 
f 52 49 61 
f 60 52 61 
f 61 49 62 
f 55 61 62 
f 51 50 63 
f 49 58 63 
f 58 51 63 
f 51 46 64 
f 53 61 65 
f 61 59 65 
f 50 51 66 
f 46 57 66 
f 57 50 66 
f 64 46 66 
f 51 64 66 
f 45 48 67 
f 56 45 67 
f 48 56 67 
f 62 49 68 
f 50 62 68 
f 63 50 68 
f 49 63 68 
f 44 55 69 
f 57 44 69 
f 50 57 69 
f 48 53 70 
f 56 48 70 
f 59 56 70 
f 53 65 70 
f 65 59 70 
f 62 50 71 
f 55 62 71 
f 69 55 71 
f 50 69 71 
f 55 44 72 
f 44 59 72 
f 61 55 72 
o convex_2
v 0.002602 -0.003395 -0.028544
v 0.010355 -0.023549 -0.016139
v 0.010871 -0.023549 -0.016139
v 0.002085 -0.003395 0.001951
v 0.010871 -0.003395 0.001951
v 0.002085 -0.020447 0.001951
v 0.010871 -0.003395 -0.026476
v 0.010871 -0.020964 0.001951
v 0.002085 -0.017346 -0.017685
v 0.010355 -0.018380 -0.025443
v 0.002085 -0.003911 -0.028544
v 0.002085 -0.020447 -0.009939
v 0.009321 -0.023549 -0.005804
v 0.010871 -0.016312 -0.026476
v 0.009321 -0.021998 -0.020273
v 0.002085 -0.014245 -0.020789
v 0.007770 -0.023032 -0.013553
v 0.010871 -0.023549 -0.005288
f 78 85 90 
f 73 76 77 
f 77 76 78 
f 73 77 79 
f 77 75 79 
f 75 77 80 
f 77 78 80 
f 78 76 81 
f 76 73 83 
f 81 76 83 
f 78 81 84 
f 74 75 85 
f 73 79 86 
f 79 75 86 
f 75 82 86 
f 82 83 86 
f 83 73 86 
f 75 74 87 
f 82 75 87 
f 81 82 87 
f 84 81 87 
f 82 81 88 
f 81 83 88 
f 83 82 88 
f 78 84 89 
f 74 85 89 
f 85 78 89 
f 87 74 89 
f 84 87 89 
f 75 80 90 
f 80 78 90 
f 85 75 90 
o convex_3
v 0.017076 -0.019931 0.001434
v 0.032576 -0.003393 -0.016656
v 0.032576 -0.003393 -0.017690
v 0.010871 -0.003393 -0.017690
v 0.017595 -0.023549 -0.017690
v 0.010871 -0.003393 0.001951
v 0.010871 -0.023549 -0.004769
v 0.033095 -0.013214 -0.017171
v 0.027407 -0.003393 -0.004769
v 0.010871 -0.023549 -0.017690
v 0.019660 -0.016310 0.001951
v 0.010871 -0.020965 0.001951
v 0.032061 -0.007529 -0.010454
v 0.018626 -0.023031 -0.010969
v 0.018109 -0.003911 0.001951
v 0.028443 -0.017863 -0.017690
v 0.018626 -0.020965 -0.002702
v 0.012941 -0.024067 -0.006839
v 0.030511 -0.003393 -0.007870
v 0.034131 -0.007013 -0.017690
v 0.031542 -0.011148 -0.011486
v 0.018626 -0.018381 0.001951
v 0.029991 -0.007013 -0.007356
v 0.015525 -0.023031 -0.004769
v 0.034131 -0.011148 -0.017690
v 0.016042 -0.024067 -0.015104
v 0.028960 -0.017344 -0.016656
v 0.019145 -0.008565 0.001951
v 0.032061 -0.003393 -0.011486
f 110 92 119 
f 92 93 94 
f 94 93 95 
f 92 94 96 
f 96 94 97 
f 92 96 99 
f 94 95 100 
f 97 94 100 
f 96 97 102 
f 101 96 102 
f 99 96 105 
f 96 101 105 
f 95 93 106 
f 104 95 106 
f 97 100 108 
f 92 99 109 
f 93 92 110 
f 106 93 110 
f 102 91 112 
f 101 102 112 
f 91 107 112 
f 107 98 112 
f 111 101 112 
f 98 111 112 
f 99 101 113 
f 109 99 113 
f 103 109 113 
f 101 111 113 
f 111 103 113 
f 91 102 114 
f 102 97 114 
f 104 107 114 
f 107 91 114 
f 97 108 114 
f 108 104 114 
f 98 106 115 
f 110 103 115 
f 106 110 115 
f 111 98 115 
f 103 111 115 
f 100 95 116 
f 95 104 116 
f 108 100 116 
f 104 108 116 
f 106 98 117 
f 104 106 117 
f 107 104 117 
f 98 107 117 
f 101 99 118 
f 99 105 118 
f 105 101 118 
f 92 109 119 
f 109 103 119 
f 103 110 119 
o convex_4
v -0.039784 0.013660 0.000400
v -0.060457 0.012118 -0.019241
v -0.059936 0.009530 -0.019241
v -0.032029 0.025550 -0.019241
v -0.032029 -0.000287 -0.018722
v -0.056836 0.025547 -0.018722
v -0.032029 0.000228 -0.005804
v -0.047016 0.009015 -0.000634
v -0.050634 -0.001325 -0.019241
v -0.032029 0.020380 -0.004771
v -0.048566 0.017280 -0.002703
v -0.058386 0.011598 -0.012004
v -0.047534 0.000742 -0.009934
v -0.048566 0.025035 -0.013037
v -0.032029 0.009533 -0.000634
v -0.058386 0.021415 -0.014588
v -0.045469 0.020383 -0.003735
v -0.056319 0.002810 -0.018206
v -0.040302 0.027103 -0.019241
v -0.044437 0.006945 -0.000634
v -0.032029 0.025032 -0.013554
v -0.032546 -0.000808 -0.008388
v -0.032029 0.017280 -0.001668
v -0.032029 0.000228 -0.019241
v -0.050116 0.005913 -0.006319
v -0.044437 0.014698 0.000400
v -0.058904 0.023482 -0.019241
v -0.058386 0.016762 -0.012004
v -0.051151 0.022968 -0.009934
v -0.032029 0.002813 -0.003220
v -0.041334 0.009015 0.000400
v -0.048051 0.014180 -0.001151
v -0.045987 0.004877 -0.003218
v -0.041852 0.021415 -0.005287
v -0.032029 -0.000808 -0.016655
v -0.042887 0.027103 -0.018206
v -0.045987 -0.000290 -0.011485
v -0.057869 0.005913 -0.016653
v -0.060457 0.014180 -0.018206
v -0.032029 0.015212 -0.000634
v -0.044437 -0.001325 -0.019241
v -0.033064 0.000228 -0.005804
v -0.044437 0.016762 -0.000634
v -0.051666 0.020900 -0.007873
v -0.057354 0.024000 -0.016138
v -0.048566 0.002810 -0.007873
f 152 144 165 
f 122 121 123 
f 124 123 126 
f 122 123 128 
f 126 123 129 
f 121 122 131 
f 126 129 134 
f 122 128 137 
f 128 132 137 
f 123 121 138 
f 129 123 140 
f 123 138 140 
f 134 129 142 
f 129 136 142 
f 123 124 143 
f 128 123 143 
f 127 131 144 
f 138 121 146 
f 125 138 146 
f 130 135 147 
f 133 125 148 
f 136 133 148 
f 126 134 149 
f 139 149 150 
f 134 120 150 
f 127 139 150 
f 145 127 150 
f 120 145 150 
f 149 134 150 
f 131 127 151 
f 127 145 151 
f 145 130 151 
f 130 147 151 
f 147 131 151 
f 139 127 152 
f 127 144 152 
f 136 129 153 
f 133 136 153 
f 129 140 153 
f 140 133 153 
f 124 126 154 
f 126 141 154 
f 125 133 155 
f 138 125 155 
f 133 140 155 
f 140 138 155 
f 132 128 156 
f 128 141 156 
f 131 122 157 
f 122 137 157 
f 144 131 157 
f 137 144 157 
f 121 131 158 
f 146 121 158 
f 135 146 158 
f 131 147 158 
f 147 135 158 
f 120 134 159 
f 134 142 159 
f 145 120 159 
f 142 145 159 
f 141 128 160 
f 143 124 160 
f 128 143 160 
f 124 154 160 
f 154 141 160 
f 141 126 161 
f 126 149 161 
f 149 139 161 
f 152 132 161 
f 139 152 161 
f 132 156 161 
f 156 141 161 
f 136 130 162 
f 142 136 162 
f 130 145 162 
f 145 142 162 
f 135 130 163 
f 130 136 163 
f 136 148 163 
f 163 148 164 
f 146 135 164 
f 125 146 164 
f 148 125 164 
f 135 163 164 
f 137 132 165 
f 144 137 165 
f 132 152 165 
o convex_5
v 0.049634 -0.011663 -0.039914
v 0.040848 -0.023548 -0.052320
v 0.039814 -0.025617 -0.051798
v 0.010871 -0.011663 -0.017690
v 0.019142 -0.023031 -0.017690
v 0.023791 -0.016834 -0.047663
v 0.017593 -0.027168 -0.034748
v 0.043947 -0.026651 -0.042493
v 0.035680 -0.012181 -0.018724
v 0.042398 -0.011663 -0.051798
v 0.010871 -0.011663 -0.026995
v 0.021211 -0.023548 -0.047151
v 0.010871 -0.023031 -0.017690
v 0.022245 -0.028202 -0.031646
v 0.029997 -0.028202 -0.046114
v 0.028963 -0.011663 -0.048181
v 0.048085 -0.019416 -0.046629
v 0.028963 -0.017865 -0.017690
v 0.046016 -0.024066 -0.041463
v 0.010871 -0.018900 -0.025446
v 0.042398 -0.027684 -0.048185
v 0.046016 -0.011663 -0.051287
v 0.034131 -0.011663 -0.017690
v 0.024310 -0.026133 -0.025965
v 0.032577 -0.019932 -0.022863
v 0.024310 -0.025617 -0.048181
v 0.049119 -0.015283 -0.039914
v 0.044467 -0.019932 -0.052320
v 0.037230 -0.013214 -0.020792
v 0.017593 -0.011663 -0.036812
v 0.021726 -0.021480 -0.047663
v 0.040333 -0.028202 -0.045080
v 0.050154 -0.011663 -0.043531
v 0.015528 -0.025099 -0.033202
v 0.022761 -0.027168 -0.027514
v 0.019661 -0.028202 -0.031646
v 0.046531 -0.024066 -0.045080
v 0.024310 -0.027168 -0.045598
v 0.011391 -0.023548 -0.017690
v 0.034131 -0.018385 -0.022344
v 0.031028 -0.021997 -0.024416
v 0.042913 -0.026651 -0.049734
v 0.010871 -0.015797 -0.026995
v 0.021211 -0.020965 -0.047151
v 0.019661 -0.028202 -0.034748
v 0.010871 -0.023031 -0.019761
v 0.037749 -0.016834 -0.051287
v 0.039299 -0.027684 -0.049215
v 0.043947 -0.026133 -0.041463
v 0.049634 -0.015283 -0.041463
v 0.041364 -0.027684 -0.043015
v 0.029478 -0.027168 -0.048181
v 0.036199 -0.014766 -0.020792
v 0.017593 -0.023548 -0.017690
v 0.037230 -0.011663 -0.020277
f 194 192 220 
f 169 166 175 
f 169 175 176 
f 170 169 178 
f 169 176 178 
f 175 171 181 
f 176 175 181 
f 169 170 183 
f 178 176 185 
f 175 166 187 
f 166 169 188 
f 169 183 188 
f 183 174 188 
f 167 168 191 
f 167 175 193 
f 175 187 193 
f 187 182 193 
f 184 192 194 
f 181 171 195 
f 176 181 195 
f 167 191 196 
f 191 177 196 
f 179 180 197 
f 187 166 198 
f 182 187 198 
f 177 172 199 
f 180 179 201 
f 179 200 201 
f 184 173 202 
f 173 186 202 
f 172 177 203 
f 177 191 203 
f 170 178 204 
f 172 201 204 
f 201 200 204 
f 183 190 205 
f 183 170 206 
f 170 189 206 
f 190 183 206 
f 168 167 207 
f 167 193 207 
f 193 182 207 
f 202 186 207 
f 182 202 207 
f 176 177 208 
f 185 176 208 
f 177 199 208 
f 199 185 208 
f 177 176 209 
f 176 195 209 
f 195 171 209 
f 171 196 209 
f 196 177 209 
f 201 172 210 
f 180 201 210 
f 172 203 210 
f 203 180 210 
f 178 185 211 
f 199 172 211 
f 185 199 211 
f 204 178 211 
f 172 204 211 
f 175 167 212 
f 171 175 212 
f 167 196 212 
f 196 171 212 
f 197 180 213 
f 186 197 213 
f 168 207 213 
f 207 186 213 
f 173 184 214 
f 189 173 214 
f 184 205 214 
f 205 190 214 
f 206 189 214 
f 190 206 214 
f 166 192 215 
f 192 184 215 
f 198 166 215 
f 182 198 215 
f 184 202 215 
f 202 182 215 
f 186 173 216 
f 173 189 216 
f 179 197 216 
f 197 186 216 
f 200 179 216 
f 189 200 216 
f 191 168 217 
f 203 191 217 
f 180 203 217 
f 168 213 217 
f 213 180 217 
f 174 183 218 
f 194 174 218 
f 184 194 218 
f 205 184 218 
f 183 205 218 
f 189 170 219 
f 200 189 219 
f 170 204 219 
f 204 200 219 
f 166 188 220 
f 188 174 220 
f 192 166 220 
f 174 194 220 
o convex_6
v 0.047566 -0.005977 -0.038879
v 0.042917 -0.011663 -0.051801
v 0.040848 -0.011663 -0.051283
v 0.034127 -0.011663 -0.017690
v 0.011906 -0.003393 -0.039393
v 0.010871 -0.011663 -0.026996
v 0.010871 -0.003393 -0.017690
v 0.043432 -0.003393 -0.050252
v 0.032574 -0.003393 -0.017690
v 0.050154 -0.011663 -0.041464
v 0.028963 -0.011663 -0.048182
v 0.010871 -0.011663 -0.017690
v 0.026894 -0.003393 -0.047150
v 0.037226 -0.009077 -0.019760
v 0.047566 -0.003910 -0.046115
v 0.046016 -0.008044 -0.051801
v 0.016558 -0.011663 -0.035777
v 0.039295 -0.003393 -0.026996
v 0.012425 -0.003910 -0.040428
v 0.035677 -0.003393 -0.049731
v 0.049634 -0.006494 -0.045080
v 0.046531 -0.011663 -0.050766
v 0.048600 -0.008561 -0.038365
v 0.046531 -0.003393 -0.042499
v 0.037745 -0.011663 -0.020792
v 0.036711 -0.005977 -0.020278
v 0.010871 -0.003393 -0.026996
v 0.049634 -0.011145 -0.045597
v 0.048085 -0.005977 -0.048699
v 0.044982 -0.006494 -0.051801
v 0.049634 -0.011663 -0.039911
f 234 245 251 
f 223 222 224 
f 223 224 226 
f 225 227 228 
f 227 224 229 
f 228 227 229 
f 224 222 230 
f 223 226 231 
f 226 224 232 
f 224 227 232 
f 227 226 232 
f 225 228 233 
f 229 224 234 
f 231 226 237 
f 228 229 238 
f 226 225 239 
f 225 233 239 
f 233 231 239 
f 237 226 239 
f 231 237 239 
f 222 223 240 
f 223 231 240 
f 233 228 240 
f 231 233 240 
f 230 222 242 
f 222 236 242 
f 241 221 243 
f 230 241 243 
f 235 228 244 
f 228 238 244 
f 238 221 244 
f 221 241 244 
f 241 235 244 
f 224 230 245 
f 234 224 245 
f 229 234 246 
f 238 229 246 
f 221 238 246 
f 234 243 246 
f 243 221 246 
f 225 226 247 
f 226 227 247 
f 227 225 247 
f 241 230 248 
f 230 242 248 
f 248 242 249 
f 228 235 249 
f 235 241 249 
f 242 236 249 
f 241 248 249 
f 236 222 250 
f 222 240 250 
f 240 228 250 
f 228 249 250 
f 249 236 250 
f 230 243 251 
f 243 234 251 
f 245 230 251 
o convex_7
v -0.045470 -0.001842 -0.021310
v -0.060973 0.012117 -0.024411
v -0.060454 0.008500 -0.028027
v -0.036164 0.026066 -0.031643
v -0.043920 0.031754 -0.019758
v -0.036164 0.003327 -0.033196
v -0.036164 0.000226 -0.019241
v -0.058387 0.024517 -0.019241
v -0.056320 0.023999 -0.028542
v -0.056838 0.002816 -0.019241
v -0.049601 -0.000286 -0.031643
v -0.036164 0.026066 -0.019241
v -0.045987 0.032788 -0.023377
v -0.036681 0.010049 -0.033713
v -0.056838 0.002297 -0.030092
v -0.060454 0.019348 -0.028027
v -0.045470 -0.001842 -0.028542
v -0.051150 -0.001320 -0.019758
v -0.060454 0.011602 -0.019241
v -0.043403 0.032788 -0.022343
v -0.058387 0.002816 -0.023893
v -0.053217 -0.000805 -0.027508
v -0.036164 0.000744 -0.029061
v -0.037198 0.021931 -0.032679
v -0.057870 0.025032 -0.024411
v -0.060454 0.020900 -0.023377
v -0.046504 0.032788 -0.021310
v -0.054769 0.002816 -0.030611
v -0.036164 0.027100 -0.029577
v -0.045987 -0.000286 -0.032160
v -0.043920 0.025551 -0.030611
v -0.059936 0.006433 -0.022343
v -0.038235 0.006433 -0.033713
v -0.056320 0.000748 -0.024411
v -0.037201 -0.000286 -0.019241
v -0.057353 0.001782 -0.029061
v -0.049083 -0.001842 -0.019758
v -0.060973 0.015219 -0.021310
v -0.060973 0.017799 -0.027508
v -0.059936 0.008500 -0.029061
v -0.057870 0.023999 -0.027508
v -0.036164 0.027100 -0.024411
v -0.059419 0.022449 -0.019241
v -0.059419 0.023483 -0.024411
f 277 294 295 
f 257 255 258 
f 258 259 261 
f 258 255 263 
f 256 259 263 
f 259 258 263 
f 255 257 265 
f 261 259 270 
f 256 263 271 
f 255 264 271 
f 262 268 273 
f 257 258 274 
f 255 265 275 
f 259 256 278 
f 256 271 278 
f 271 264 278 
f 276 259 278 
f 264 276 278 
f 262 266 279 
f 260 275 279 
f 263 255 280 
f 255 271 280 
f 268 262 281 
f 257 274 281 
f 274 268 281 
f 264 255 282 
f 260 264 282 
f 255 275 282 
f 275 260 282 
f 253 254 283 
f 270 253 283 
f 261 270 283 
f 254 272 283 
f 272 261 283 
f 265 257 284 
f 275 265 284 
f 262 279 284 
f 279 275 284 
f 257 281 284 
f 281 262 284 
f 269 261 285 
f 261 272 285 
f 273 269 285 
f 258 261 286 
f 252 268 286 
f 274 258 286 
f 268 274 286 
f 266 262 287 
f 272 254 287 
f 262 273 287 
f 285 272 287 
f 273 285 287 
f 268 252 288 
f 261 269 288 
f 273 268 288 
f 269 273 288 
f 286 261 288 
f 252 286 288 
f 253 270 289 
f 289 277 290 
f 254 253 290 
f 277 267 290 
f 253 289 290 
f 290 267 291 
f 267 260 291 
f 279 266 291 
f 260 279 291 
f 266 287 291 
f 287 254 291 
f 254 290 291 
f 264 260 292 
f 260 267 292 
f 276 264 292 
f 271 263 293 
f 263 280 293 
f 280 271 293 
f 270 259 294 
f 289 270 294 
f 277 289 294 
f 259 276 295 
f 267 277 295 
f 292 267 295 
f 276 292 295 
f 294 259 295 
o convex_8
v -0.019109 0.003846 -0.037847
v -0.029959 0.027103 -0.026478
v -0.029959 0.027103 -0.029578
v -0.004122 0.021416 -0.020793
v -0.036161 0.000228 -0.019241
v -0.004122 -0.003393 -0.019241
v -0.004122 0.017795 -0.038881
v -0.036161 0.026067 -0.019241
v -0.036161 0.003846 -0.033711
v -0.004122 -0.003393 -0.031644
v -0.036161 0.026067 -0.031642
v -0.004122 0.005915 -0.039916
v -0.020141 -0.003393 -0.024411
v -0.004637 0.020897 -0.019241
v -0.020656 0.025550 -0.032160
v -0.036161 0.001261 -0.030094
v -0.035129 0.020383 -0.033195
v -0.025825 0.026067 -0.019241
v -0.004122 0.019864 -0.036297
v -0.009288 -0.003393 -0.031644
v -0.023758 -0.003393 -0.019241
v -0.012905 0.007464 -0.038881
v -0.023240 0.024001 -0.034745
v -0.017042 0.002810 -0.037847
v -0.033576 0.003846 -0.034745
v -0.023758 0.018315 -0.035777
v -0.004122 0.021416 -0.025962
v -0.036161 0.027103 -0.024411
v -0.020141 0.025550 -0.028030
v -0.036161 0.000228 -0.025446
v -0.005669 0.017795 -0.038881
v -0.005669 0.003846 -0.038881
v -0.032544 0.003327 -0.034745
v -0.035646 0.006428 -0.034229
v -0.014972 -0.003393 -0.029064
v -0.021173 0.024518 -0.034229
v -0.035646 0.027103 -0.030094
v -0.036161 0.022449 -0.032679
f 312 329 333 
f 299 301 302 
f 300 301 303 
f 300 303 304 
f 302 301 305 
f 304 303 306 
f 302 305 307 
f 305 301 308 
f 301 299 309 
f 303 301 309 
f 300 304 311 
f 309 299 313 
f 303 309 313 
f 299 302 314 
f 305 308 315 
f 301 300 316 
f 308 301 316 
f 307 296 317 
f 296 307 319 
f 305 315 319 
f 299 314 322 
f 314 310 322 
f 297 298 323 
f 306 303 323 
f 313 297 323 
f 303 313 323 
f 298 297 324 
f 310 298 324 
f 297 313 324 
f 313 299 324 
f 299 322 324 
f 322 310 324 
f 300 311 325 
f 311 308 325 
f 316 300 325 
f 308 316 325 
f 302 307 326 
f 307 317 326 
f 318 302 326 
f 317 321 326 
f 321 318 326 
f 307 305 327 
f 319 307 327 
f 305 319 327 
f 311 304 328 
f 315 311 328 
f 296 319 328 
f 319 315 328 
f 304 320 328 
f 320 296 328 
f 317 296 329 
f 320 304 329 
f 296 320 329 
f 312 321 329 
f 321 317 329 
f 308 311 330 
f 315 308 330 
f 311 315 330 
f 314 302 331 
f 310 314 331 
f 318 306 331 
f 302 318 331 
f 298 310 332 
f 323 298 332 
f 306 323 332 
f 331 306 332 
f 310 331 332 
f 304 306 333 
f 306 318 333 
f 321 312 333 
f 318 321 333 
f 329 304 333 
o convex_9
v 0.002605 0.021415 -0.022863
v 0.026375 0.010046 -0.046635
v 0.021207 0.010046 -0.045597
v 0.007772 0.010046 -0.019246
v -0.004118 0.010046 -0.039396
v -0.004118 0.019865 -0.036293
v -0.004118 0.010046 -0.019246
v 0.026375 0.014698 -0.040945
v -0.004118 0.020382 -0.019246
v 0.016036 0.011082 -0.023895
v 0.008804 0.021934 -0.033194
v 0.022759 0.014182 -0.045597
v 0.010356 0.018832 -0.023381
v 0.031029 0.010046 -0.042495
v -0.003598 0.016765 -0.039396
v -0.003598 0.021934 -0.023895
v 0.011392 0.020898 -0.028547
v 0.008288 0.016765 -0.020278
v 0.026894 0.014182 -0.045597
v 0.005705 0.020382 -0.037328
v 0.013456 0.016248 -0.023895
v 0.015001 0.010046 -0.022863
v -0.004118 0.017798 -0.038878
v 0.004153 0.021934 -0.032682
v 0.008288 0.013665 -0.019246
v 0.012940 0.019348 -0.026998
v 0.009324 0.021934 -0.029582
v 0.031029 0.010565 -0.042495
v 0.006737 0.019348 -0.021313
v 0.029478 0.011082 -0.046635
v -0.003082 0.011082 -0.039913
v 0.011392 0.015215 -0.021313
v 0.027926 0.013665 -0.041463
v -0.001015 0.021934 -0.022346
v 0.025342 0.015215 -0.043013
f 344 360 368 
f 336 335 337 
f 336 337 338 
f 338 337 340 
f 339 338 340 
f 339 340 342 
f 340 337 342 
f 335 336 345 
f 337 335 347 
f 345 336 348 
f 339 342 349 
f 344 352 353 
f 352 345 353 
f 337 347 355 
f 347 343 355 
f 338 339 356 
f 348 338 356 
f 345 348 356 
f 339 353 356 
f 353 345 356 
f 339 349 357 
f 349 344 357 
f 353 339 357 
f 344 353 357 
f 342 337 358 
f 351 342 358 
f 337 355 358 
f 341 350 359 
f 350 346 359 
f 346 354 359 
f 344 349 360 
f 334 350 360 
f 350 341 360 
f 343 347 361 
f 354 343 361 
f 350 334 362 
f 346 350 362 
f 342 351 362 
f 351 346 362 
f 335 345 363 
f 347 335 363 
f 345 352 363 
f 361 347 363 
f 352 361 363 
f 336 338 364 
f 348 336 364 
f 338 348 364 
f 346 351 365 
f 354 346 365 
f 343 354 365 
f 355 343 365 
f 351 358 365 
f 358 355 365 
f 352 341 366 
f 341 359 366 
f 359 354 366 
f 361 352 366 
f 354 361 366 
f 349 342 367 
f 334 360 367 
f 360 349 367 
f 362 334 367 
f 342 362 367 
f 341 352 368 
f 352 344 368 
f 360 341 368 
o convex_10
v 0.030509 -0.002876 -0.007873
v -0.032029 -0.000291 -0.019241
v -0.032029 0.006945 -0.019241
v -0.024271 0.003326 0.001951
v 0.017587 0.006945 0.001951
v 0.026371 0.003843 -0.019241
v -0.022721 -0.003393 0.001951
v 0.033097 -0.003393 -0.019241
v -0.032029 0.006945 -0.001669
v 0.017587 -0.003393 0.001951
v -0.023754 -0.003393 -0.019241
v 0.006737 0.006945 -0.019241
v -0.032029 -0.001324 -0.009417
v 0.028953 0.002291 -0.009417
v -0.024271 0.006945 0.001951
v 0.024822 0.005394 -0.014069
v -0.027891 -0.003393 -0.013036
v -0.032029 0.001776 -0.003735
v 0.018103 0.006945 -0.006836
v 0.027404 -0.003393 -0.004770
v 0.030509 0.000226 -0.009417
v 0.028953 0.002291 -0.016656
v 0.026888 0.004360 -0.012520
v 0.023273 0.004877 -0.019241
v -0.027891 -0.003393 -0.007873
v -0.032029 -0.000808 -0.007357
f 381 393 394 
f 370 371 374 
f 373 372 375 
f 370 374 376 
f 371 370 377 
f 373 371 377 
f 375 372 377 
f 373 375 378 
f 375 376 378 
f 370 376 379 
f 376 375 379 
f 371 373 380 
f 374 371 380 
f 377 370 381 
f 372 373 383 
f 377 372 383 
f 373 377 383 
f 370 379 385 
f 379 375 385 
f 381 370 385 
f 375 377 386 
f 377 381 386 
f 380 373 387 
f 373 384 387 
f 384 380 387 
f 369 373 388 
f 376 369 388 
f 373 378 388 
f 378 376 388 
f 373 369 389 
f 369 376 389 
f 382 373 389 
f 382 389 390 
f 376 374 390 
f 389 376 390 
f 373 382 391 
f 384 373 391 
f 374 384 391 
f 382 390 391 
f 390 374 391 
f 374 380 392 
f 380 384 392 
f 384 374 392 
f 385 375 393 
f 381 385 393 
f 375 386 394 
f 386 381 394 
f 393 375 394 
o convex_11
v 0.005186 0.012630 0.017973
v 0.017591 0.006945 0.004018
v 0.017073 0.008496 0.006087
v 0.004669 0.016248 0.001951
v 0.004669 0.006428 0.001951
v 0.004669 0.006428 0.018491
v 0.013455 0.006428 0.015905
v 0.013455 0.012113 0.010221
v 0.013455 0.012113 0.001951
v 0.017591 0.006428 0.001951
v 0.009840 0.009013 0.018491
v 0.004669 0.014181 0.013836
v 0.008805 0.015214 0.002985
v 0.013972 0.010563 0.012285
v 0.011904 0.012113 0.012803
v 0.010872 0.006428 0.018491
f 401 405 410 
f 398 399 400 
f 396 397 401 
f 400 399 401 
f 399 398 403 
f 402 397 403 
f 397 396 404 
f 396 401 404 
f 401 399 404 
f 403 397 404 
f 399 403 404 
f 395 400 405 
f 400 395 406 
f 398 400 406 
f 403 398 407 
f 402 403 407 
f 398 406 407 
f 401 397 408 
f 397 402 408 
f 405 401 408 
f 405 408 409 
f 395 405 409 
f 406 395 409 
f 402 407 409 
f 407 406 409 
f 408 402 409 
f 400 401 410 
f 405 400 410 
o convex_12
v 0.001051 0.009529 -0.040948
v -0.004118 -0.003393 -0.031645
v -0.004118 0.001260 -0.036297
v -0.004118 0.010046 -0.019241
v 0.007253 -0.003393 -0.019241
v 0.007253 0.010046 -0.019241
v 0.007253 0.005393 -0.039913
v -0.004118 -0.003393 -0.019241
v -0.004118 0.010046 -0.039398
v 0.007253 0.010046 -0.041983
v 0.007253 -0.003393 -0.025445
v -0.004118 0.005393 -0.039913
v 0.000535 -0.003393 -0.030612
v 0.007253 0.003327 -0.037847
v 0.007253 -0.000806 -0.031128
v 0.006736 0.008495 -0.041983
f 422 411 426 
f 413 412 414 
f 414 415 416 
f 416 415 417 
f 414 412 418 
f 415 414 418 
f 412 415 418 
f 413 414 419 
f 414 416 419 
f 419 416 420 
f 416 417 420 
f 411 419 420 
f 415 412 421 
f 417 415 421 
f 417 413 422 
f 419 411 422 
f 413 419 422 
f 421 412 423 
f 412 413 424 
f 413 417 424 
f 417 421 424 
f 423 412 424 
f 421 423 425 
f 424 421 425 
f 423 424 425 
f 420 417 426 
f 411 420 426 
f 417 422 426 
o convex_13
v 0.003116 0.008498 -0.012005
v -0.024275 0.025552 -0.017690
v -0.024275 0.025552 -0.019241
v -0.032029 0.006945 -0.012005
v 0.006220 0.006945 -0.019241
v -0.032029 0.006945 -0.019241
v -0.032029 0.023998 -0.012005
v -0.001534 0.017279 -0.012005
v 0.000016 0.018316 -0.019241
v -0.032029 0.025552 -0.019241
v -0.012388 0.021933 -0.012005
v 0.003116 0.006945 -0.012005
v 0.005699 0.012631 -0.018724
v -0.007221 0.021414 -0.018206
v -0.030992 0.024518 -0.012522
f 433 437 441 
f 429 431 432 
f 431 430 432 
f 432 430 433 
f 430 427 433 
f 433 427 434 
f 431 429 435 
f 428 429 436 
f 429 432 436 
f 432 433 436 
f 433 434 437 
f 427 430 438 
f 431 427 438 
f 430 431 438 
f 427 431 439 
f 434 427 439 
f 431 435 439 
f 435 434 439 
f 429 428 440 
f 435 429 440 
f 434 435 440 
f 428 437 440 
f 437 434 440 
f 428 436 441 
f 436 433 441 
f 437 428 441 
o convex_14
v 0.001048 0.014183 -0.012005
v -0.030988 0.024000 -0.011487
v -0.030988 0.024000 -0.012005
v -0.032024 0.006948 -0.012005
v 0.017586 0.006945 0.001951
v -0.032024 0.011082 -0.000117
v -0.006191 0.022449 0.001951
v 0.015005 0.006945 -0.008386
v -0.024270 0.006948 0.001951
v -0.001018 0.019865 -0.006835
v -0.032024 0.017280 -0.001668
v 0.003634 0.006945 -0.012005
v 0.010868 0.014182 0.001433
v -0.012389 0.021931 -0.012005
v -0.009287 0.022449 0.001951
v 0.017586 0.007464 -0.005800
v -0.032024 0.021416 -0.006316
v -0.032024 0.006948 -0.001668
v -0.000503 0.016763 -0.012005
v -0.018582 0.016763 0.001951
v -0.002569 0.021416 -0.003218
v 0.002598 0.018314 -0.005800
v -0.032024 0.024000 -0.011487
v -0.018582 0.022965 -0.012005
v -0.031509 0.014183 -0.000117
v 0.013969 0.011598 0.001951
v 0.007771 0.015731 -0.002702
v -0.001018 0.018831 -0.009420
v -0.032024 0.020380 -0.004770
f 456 458 470 
f 444 442 445 
f 444 443 448 
f 446 448 450 
f 445 447 452 
f 445 442 453 
f 442 449 453 
f 449 446 453 
f 442 444 455 
f 448 443 456 
f 450 448 456 
f 446 449 457 
f 445 452 458 
f 447 445 459 
f 446 450 459 
f 450 447 459 
f 445 453 459 
f 453 446 459 
f 449 442 460 
f 442 455 460 
f 457 449 460 
f 450 456 461 
f 448 454 462 
f 451 455 462 
f 451 462 463 
f 443 444 464 
f 444 445 464 
f 456 443 464 
f 445 458 464 
f 458 456 464 
f 444 448 465 
f 455 444 465 
f 448 462 465 
f 462 455 465 
f 447 450 466 
f 452 447 466 
f 456 452 466 
f 450 461 466 
f 461 456 466 
f 448 446 467 
f 454 448 467 
f 446 457 467 
f 457 454 467 
f 454 457 468 
f 462 454 468 
f 457 463 468 
f 463 462 468 
f 455 451 469 
f 460 455 469 
f 457 460 469 
f 463 457 469 
f 451 463 469 
f 452 456 470 
f 458 452 470 
o convex_15
v -0.017037 0.021932 0.016422
v -0.008256 0.028136 0.010737
v -0.008256 0.028136 0.006606
v 0.004669 0.006428 0.018491
v -0.023242 0.006428 0.001951
v 0.004669 0.006428 0.001951
v 0.002601 0.020897 0.018491
v -0.014453 0.010047 0.018491
v 0.004669 0.016247 0.001951
v -0.013417 0.026585 0.004018
v -0.011871 0.026069 0.018491
v -0.009286 0.006428 0.018491
v -0.016521 0.025548 0.009189
v -0.000500 0.025034 0.009704
v -0.006188 0.022450 0.001951
v -0.017037 0.013666 0.018491
v -0.004120 0.025548 0.018491
v -0.023242 0.008496 0.001951
v -0.004120 0.026069 0.005053
v -0.014453 0.027618 0.006087
v 0.004669 0.012633 0.018491
v -0.017554 0.017799 0.017973
v -0.018073 0.016766 0.001951
v -0.012901 0.027618 0.013836
v -0.002568 0.026585 0.010737
v 0.003634 0.019348 0.016940
v -0.014969 0.023999 0.018491
v -0.023242 0.006428 0.002469
v -0.008256 0.027618 0.014871
v -0.017037 0.023999 0.012803
v 0.002084 0.021932 0.011252
v -0.015486 0.026585 0.006087
v 0.000016 0.023483 0.018491
v -0.007737 0.026585 0.004018
v -0.003087 0.026585 0.007120
v -0.013417 0.028136 0.010221
v -0.015486 0.025548 0.014871
v -0.009286 0.022450 0.001951
f 485 493 508 
f 474 475 476 
f 474 477 478 
f 476 475 479 
f 474 476 479 
f 478 477 481 
f 475 474 482 
f 474 478 482 
f 479 475 485 
f 478 481 486 
f 481 477 487 
f 485 475 488 
f 473 480 490 
f 477 474 491 
f 474 479 491 
f 471 488 492 
f 485 488 493 
f 473 472 495 
f 477 491 496 
f 491 479 496 
f 486 481 497 
f 471 492 497 
f 492 486 497 
f 475 482 498 
f 482 478 498 
f 478 486 498 
f 488 475 498 
f 486 492 498 
f 492 488 498 
f 481 487 499 
f 494 481 499 
f 495 472 499 
f 487 495 499 
f 488 471 500 
f 483 488 500 
f 484 477 501 
f 479 484 501 
f 477 496 501 
f 496 479 501 
f 488 483 502 
f 490 480 502 
f 483 490 502 
f 480 493 502 
f 493 488 502 
f 477 484 503 
f 487 477 503 
f 484 495 503 
f 495 487 503 
f 480 473 504 
f 479 485 504 
f 485 480 504 
f 473 489 504 
f 489 479 504 
f 484 479 505 
f 489 473 505 
f 479 489 505 
f 473 495 505 
f 495 484 505 
f 472 473 506 
f 473 490 506 
f 490 483 506 
f 494 499 506 
f 499 472 506 
f 481 494 507 
f 471 497 507 
f 497 481 507 
f 500 471 507 
f 483 500 507 
f 506 483 507 
f 494 506 507 
f 480 485 508 
f 493 480 508 
o convex_16
v -0.016003 0.009531 0.026761
v -0.003605 0.026069 0.027280
v -0.003605 0.026069 0.024178
v 0.004669 0.006428 0.018491
v 0.004669 0.007979 0.037615
v -0.013936 0.017796 0.037615
v -0.015487 0.022966 0.018491
v 0.003118 0.019865 0.018491
v -0.009803 0.006945 0.037615
v -0.008249 0.006428 0.018491
v -0.001536 0.018830 0.037615
v -0.017036 0.013147 0.018491
v 0.002082 0.021416 0.028311
v -0.009285 0.025035 0.030378
v -0.011352 0.026069 0.018491
v -0.016003 0.013665 0.034511
v 0.001565 0.006428 0.037615
v -0.017556 0.016764 0.025728
v -0.014972 0.021416 0.029859
v -0.007218 0.020897 0.037615
v -0.014452 0.010565 0.037615
v -0.001020 0.024000 0.018491
v -0.014452 0.007979 0.024178
v 0.004669 0.012115 0.018491
v 0.003118 0.018315 0.030378
v 0.000016 0.024000 0.027794
v -0.017556 0.012115 0.024696
v -0.004636 0.025550 0.029859
v -0.014972 0.009014 0.020561
v -0.017036 0.019863 0.018491
v -0.012903 0.007462 0.031928
v -0.011869 0.024517 0.028311
v -0.008767 0.026069 0.027794
v -0.012385 0.019350 0.037615
v 0.000016 0.017281 0.037615
v -0.015487 0.015216 0.036578
v -0.007218 0.026069 0.018491
v 0.000533 0.022449 0.030378
v -0.016003 0.020382 0.028311
v 0.004669 0.009014 0.037094
v 0.003633 0.018315 0.019528
v -0.011869 0.006945 0.026761
f 539 531 550 
f 512 515 516 
f 513 514 517 
f 515 512 518 
f 514 513 519 
f 515 518 520 
f 510 511 523 
f 516 515 523 
f 512 513 525 
f 513 517 525 
f 518 512 525 
f 517 518 525 
f 514 519 528 
f 517 514 529 
f 516 523 530 
f 513 512 532 
f 512 516 532 
f 516 521 533 
f 511 510 534 
f 521 516 534 
f 530 511 534 
f 516 530 534 
f 524 526 535 
f 509 529 535 
f 529 524 535 
f 528 519 536 
f 522 528 536 
f 534 510 536 
f 520 518 537 
f 531 509 537 
f 518 531 537 
f 535 520 537 
f 509 535 537 
f 515 520 538 
f 520 535 538 
f 535 526 538 
f 529 509 539 
f 517 529 539 
f 509 531 539 
f 523 515 540 
f 515 527 540 
f 510 523 541 
f 536 510 541 
f 522 536 541 
f 540 522 541 
f 523 540 541 
f 527 514 542 
f 514 528 542 
f 528 522 542 
f 522 540 542 
f 540 527 542 
f 519 513 543 
f 526 524 544 
f 529 514 544 
f 524 529 544 
f 523 511 545 
f 511 530 545 
f 530 523 545 
f 533 521 546 
f 521 534 546 
f 536 519 546 
f 534 536 546 
f 519 543 546 
f 543 533 546 
f 514 527 547 
f 527 515 547 
f 515 538 547 
f 538 526 547 
f 526 544 547 
f 544 514 547 
f 513 532 548 
f 543 513 548 
f 533 543 548 
f 532 516 549 
f 516 533 549 
f 548 532 549 
f 533 548 549 
f 518 517 550 
f 531 518 550 
f 517 539 550 
o convex_17
v -0.010835 0.007462 0.037615
v -0.005152 0.020383 0.038132
v -0.004638 0.019349 0.046400
v 0.004669 0.007462 0.038132
v -0.007735 0.007462 0.047952
v -0.014455 0.016765 0.038132
v 0.004669 0.006428 0.046400
v 0.001051 0.015213 0.047952
v -0.011869 0.014695 0.047952
v -0.000501 0.017799 0.037615
v -0.014972 0.012116 0.037615
v -0.011354 0.019866 0.037615
v 0.000016 0.006428 0.037615
v -0.009285 0.017799 0.047952
v -0.011354 0.010564 0.047952
v -0.002050 0.018315 0.047952
v 0.004669 0.008496 0.037615
v -0.009800 0.006946 0.038132
v -0.001018 0.007980 0.047952
v -0.012386 0.008496 0.038649
v -0.006184 0.006946 0.046918
v -0.013421 0.013147 0.044333
v -0.012386 0.017281 0.043300
v -0.006701 0.019349 0.046400
f 564 566 574 
f 555 558 559 
f 560 551 561 
f 560 561 562 
f 552 560 562 
f 561 556 562 
f 554 557 563 
f 551 560 563 
f 559 558 564 
f 555 559 565 
f 552 553 566 
f 560 552 566 
f 558 560 566 
f 564 558 566 
f 557 554 567 
f 558 557 567 
f 560 558 567 
f 554 563 567 
f 563 560 567 
f 551 563 568 
f 555 557 569 
f 558 555 569 
f 557 558 569 
f 561 551 570 
f 555 565 570 
f 565 561 570 
f 551 568 570 
f 568 555 570 
f 557 555 571 
f 563 557 571 
f 555 568 571 
f 568 563 571 
f 559 556 572 
f 556 561 572 
f 565 559 572 
f 561 565 572 
f 556 559 573 
f 562 556 573 
f 559 564 573 
f 564 562 573 
f 553 552 574 
f 552 562 574 
f 562 564 574 
f 566 553 574 
o convex_18
v 0.004152 0.013147 0.063458
v -0.011354 0.011080 0.047952
v -0.011354 0.015214 0.047952
v 0.001567 0.010564 0.047952
v -0.004635 0.007463 0.063458
v -0.003601 0.017280 0.063458
v -0.002051 0.018314 0.047952
v -0.008252 0.013147 0.062941
v -0.002051 0.007463 0.047952
v 0.002601 0.008497 0.063458
v -0.008252 0.018314 0.048470
v -0.007218 0.007463 0.047952
v 0.001567 0.016764 0.063458
v 0.001567 0.014697 0.048989
v -0.007218 0.009013 0.062422
v -0.002051 0.006945 0.063458
v -0.006702 0.015730 0.062941
v -0.004115 0.018833 0.051572
v 0.004152 0.010564 0.062422
v -0.009285 0.008497 0.048470
v -0.007735 0.010564 0.063458
v 0.003117 0.015214 0.061906
v -0.010836 0.016247 0.048470
f 591 585 597 
f 576 577 578 
f 579 575 580 
f 578 577 581 
f 577 576 582 
f 576 578 583 
f 575 579 584 
f 583 578 584 
f 581 577 585 
f 576 583 586 
f 580 575 587 
f 578 581 588 
f 584 579 590 
f 583 584 590 
f 579 586 590 
f 586 583 590 
f 580 585 591 
f 581 585 592 
f 585 580 592 
f 580 587 592 
f 587 581 592 
f 575 584 593 
f 584 578 593 
f 588 575 593 
f 578 588 593 
f 576 586 594 
f 586 579 594 
f 589 576 594 
f 579 589 594 
f 579 580 595 
f 582 576 595 
f 576 589 595 
f 589 579 595 
f 591 582 595 
f 580 591 595 
f 587 575 596 
f 581 587 596 
f 588 581 596 
f 575 588 596 
f 577 582 597 
f 585 577 597 
f 582 591 597 
o convex_19
v 0.004669 0.007979 0.043298
v 0.015523 0.006946 0.031934
v 0.015523 0.006428 0.031934
v 0.004669 0.012113 0.018491
v 0.004669 0.006428 0.018491
v 0.015006 0.006428 0.019008
v 0.010354 0.011595 0.026764
v 0.008288 0.006428 0.046398
v 0.012938 0.010045 0.022111
v 0.010870 0.009529 0.035549
v 0.004669 0.006428 0.046398
v 0.007254 0.012113 0.026246
v 0.012420 0.006946 0.040196
v 0.007770 0.007463 0.045363
v 0.014489 0.006946 0.018491
v 0.015523 0.007463 0.022111
v 0.013455 0.008497 0.033999
v 0.004669 0.011079 0.028316
f 609 601 615 
f 598 601 602 
f 600 602 603 
f 602 600 605 
f 601 604 606 
f 598 602 608 
f 602 605 608 
f 604 601 609 
f 607 604 609 
f 600 599 610 
f 605 600 610 
f 610 607 611 
f 598 608 611 
f 608 605 611 
f 609 598 611 
f 607 609 611 
f 605 610 611 
f 602 601 612 
f 603 602 612 
f 601 606 612 
f 612 606 613 
f 599 600 613 
f 600 603 613 
f 606 599 613 
f 603 612 613 
f 599 606 614 
f 606 604 614 
f 604 607 614 
f 610 599 614 
f 607 610 614 
f 601 598 615 
f 598 609 615 
o convex_20
v -0.016005 -0.003394 0.032445
v -0.016523 -0.012179 0.018491
v -0.017039 -0.011662 0.018491
v -0.015489 -0.001843 0.018491
v -0.013421 -0.006494 0.039166
v -0.018073 -0.003394 0.021077
v -0.013421 -0.000291 0.036061
v -0.017039 -0.011144 0.024175
v -0.016522 -0.000291 0.026764
v -0.015489 -0.012179 0.023143
v -0.015489 -0.006494 0.036061
v -0.013421 -0.000291 0.033477
v -0.018073 -0.007010 0.022625
v -0.016523 -0.012179 0.024694
v -0.017039 -0.002359 0.018491
v -0.014456 -0.002360 0.037097
v -0.016006 -0.012179 0.018491
f 627 625 632 
f 617 618 619 
f 621 616 624 
f 622 620 627 
f 619 624 627 
f 624 622 627 
f 620 625 627 
f 616 621 628 
f 621 618 628 
f 618 623 628 
f 626 616 628 
f 623 626 628 
f 618 617 629 
f 623 618 629 
f 617 625 629 
f 625 620 629 
f 620 626 629 
f 626 623 629 
f 619 618 630 
f 618 621 630 
f 621 624 630 
f 624 619 630 
f 620 622 631 
f 624 616 631 
f 622 624 631 
f 616 626 631 
f 626 620 631 
f 617 619 632 
f 625 617 632 
f 619 627 632 
o convex_21
v 0.040327 -0.003393 -0.033713
v 0.038779 -0.003393 -0.050250
v 0.038779 -0.001842 -0.050250
v 0.007253 0.001260 -0.033713
v 0.032578 0.010046 -0.043015
v 0.007253 0.010046 -0.041982
v 0.020697 0.010046 -0.033713
v 0.011393 -0.003393 -0.040951
v 0.039811 0.005393 -0.048700
v 0.046019 -0.002876 -0.043531
v 0.037230 0.005910 -0.038367
v 0.007253 0.010046 -0.033713
v 0.014490 -0.003393 -0.033713
v 0.010873 0.000226 -0.043531
v 0.025866 0.010046 -0.046633
v 0.046019 -0.003393 -0.047666
v 0.041366 0.005393 -0.044566
v 0.035159 0.002812 -0.033713
v 0.008289 -0.000291 -0.039917
v 0.035678 0.008495 -0.048182
v 0.021730 0.006427 -0.046115
v 0.044467 -0.002876 -0.039400
v 0.033610 -0.003393 -0.049217
v 0.035678 0.009011 -0.042499
v 0.041879 -0.001325 -0.050250
v 0.010361 -0.002876 -0.036816
v 0.034646 0.007460 -0.048700
v 0.039298 0.003327 -0.037849
v 0.011905 -0.001325 -0.043531
v 0.041879 0.004876 -0.046633
v 0.035159 0.009529 -0.045599
v 0.007253 0.007978 -0.041982
f 646 651 664 
f 636 633 639 
f 637 638 639 
f 634 633 640 
f 638 636 644 
f 636 639 644 
f 639 638 644 
f 633 636 645 
f 640 633 645 
f 638 637 647 
f 633 634 648 
f 639 633 650 
f 643 639 650 
f 646 638 653 
f 638 647 653 
f 633 648 654 
f 648 642 654 
f 642 649 654 
f 635 634 655 
f 634 640 655 
f 653 635 655 
f 646 653 655 
f 637 639 656 
f 639 643 656 
f 643 649 656 
f 634 635 657 
f 648 634 657 
f 641 648 657 
f 645 636 658 
f 640 645 658 
f 636 651 658 
f 651 640 658 
f 652 641 659 
f 647 652 659 
f 635 653 659 
f 653 647 659 
f 657 635 659 
f 641 657 659 
f 649 643 660 
f 650 633 660 
f 643 650 660 
f 633 654 660 
f 654 649 660 
f 640 651 661 
f 651 646 661 
f 655 640 661 
f 646 655 661 
f 648 641 662 
f 642 648 662 
f 649 642 662 
f 641 652 662 
f 662 652 663 
f 647 637 663 
f 652 647 663 
f 637 656 663 
f 656 649 663 
f 649 662 663 
f 636 638 664 
f 638 646 664 
f 651 636 664 
o convex_22
v 0.035679 -0.001325 -0.023893
v 0.007253 0.000743 -0.033713
v 0.007253 -0.000291 -0.032160
v 0.007253 0.010046 -0.019241
v 0.020178 0.010046 -0.033713
v 0.007253 -0.003393 -0.019241
v 0.039816 -0.003393 -0.033713
v 0.033094 -0.003393 -0.019241
v 0.007253 0.010046 -0.033713
v 0.024826 0.004359 -0.019241
v 0.015012 -0.003393 -0.033713
v 0.034646 0.002812 -0.033196
v 0.017080 0.010046 -0.024927
v 0.039297 -0.002876 -0.027508
v 0.007253 -0.003393 -0.025446
v 0.026891 0.003327 -0.019241
v 0.036195 0.000226 -0.027508
v 0.037748 0.000226 -0.033713
v 0.011907 0.010046 -0.020792
f 677 668 683 
f 666 667 668 
f 668 667 670 
f 666 669 671 
f 670 671 672 
f 668 670 672 
f 666 668 673 
f 668 669 673 
f 669 666 673 
f 668 672 674 
f 667 666 675 
f 666 671 675 
f 671 670 675 
f 669 668 677 
f 676 669 677 
f 672 671 678 
f 665 672 678 
f 670 667 679 
f 667 675 679 
f 675 670 679 
f 672 665 680 
f 674 672 680 
f 677 674 680 
f 676 677 680 
f 665 678 681 
f 680 665 681 
f 676 680 681 
f 671 669 682 
f 669 676 682 
f 678 671 682 
f 681 678 682 
f 676 681 682 
f 668 674 683 
f 674 677 683 
o convex_23
v -0.008252 -0.025100 0.025729
v -0.002567 -0.020967 0.051570
v -0.003084 -0.020967 0.051570
v -0.010837 -0.020967 0.025210
v -0.002567 -0.027168 0.025210
v -0.006702 -0.024583 0.037616
v -0.010320 -0.021484 0.036068
v -0.003084 -0.027168 0.034001
v -0.009803 -0.020967 0.025210
v -0.002567 -0.020967 0.049498
v -0.003602 -0.022001 0.050017
v -0.004118 -0.027685 0.025210
v -0.006702 -0.025617 0.033482
v -0.002567 -0.025617 0.040196
v -0.002567 -0.026651 0.026245
v -0.010837 -0.020967 0.033482
f 690 686 699 
f 686 685 687 
f 687 685 692 
f 688 687 692 
f 685 688 693 
f 692 685 693 
f 685 686 694 
f 690 689 694 
f 686 690 694 
f 684 687 695 
f 687 688 695 
f 688 691 695 
f 695 691 696 
f 690 684 696 
f 689 690 696 
f 691 689 696 
f 684 695 696 
f 688 685 697 
f 691 688 697 
f 689 691 697 
f 685 694 697 
f 694 689 697 
f 688 692 698 
f 693 688 698 
f 692 693 698 
f 686 687 699 
f 687 684 699 
f 684 690 699 
o convex_24
v 0.017073 -0.023551 0.028829
v 0.006738 -0.028202 0.025211
v 0.006738 -0.028202 0.033996
v 0.016555 -0.020966 0.025211
v 0.018107 -0.020966 0.036063
v 0.015006 -0.025617 0.035030
v 0.006738 -0.027168 0.036063
v 0.010872 -0.027168 0.025211
v 0.019141 -0.022001 0.032962
v 0.009323 -0.027685 0.036063
v 0.007255 -0.027168 0.025211
v 0.017591 -0.021484 0.025211
v 0.008804 -0.028202 0.029863
v 0.017073 -0.024068 0.036063
v 0.013972 -0.026134 0.028829
f 713 705 714 
f 701 702 706 
f 704 703 706 
f 701 703 707 
f 706 702 709 
f 704 706 709 
f 703 701 710 
f 701 706 710 
f 706 703 710 
f 703 704 711 
f 707 703 711 
f 700 707 711 
f 708 700 711 
f 704 708 711 
f 702 701 712 
f 701 707 712 
f 709 702 712 
f 705 709 712 
f 700 708 713 
f 708 704 713 
f 704 709 713 
f 709 705 713 
f 707 700 714 
f 712 707 714 
f 705 712 714 
f 700 713 714 
o convex_25
v -0.001533 -0.020966 0.004540
v -0.001016 0.006428 0.025210
v -0.003083 0.006428 0.025210
v -0.010320 0.006428 0.001951
v 0.008804 0.006428 0.001951
v 0.008804 -0.015796 0.016422
v -0.010320 -0.020966 0.012290
v 0.008804 -0.020966 0.001951
v -0.010320 0.003323 0.025210
v 0.008804 0.006428 0.020040
v -0.010320 -0.017861 0.001951
v 0.001050 -0.015276 0.017972
v 0.008804 -0.020966 0.010222
v -0.010320 0.006428 0.017455
v 0.005184 -0.013729 0.018489
v 0.003634 -0.017346 0.016422
v 0.005702 -0.000809 0.021073
v -0.005666 -0.019414 0.001951
v 0.007769 -0.012691 0.017972
v -0.010320 0.004358 0.025210
v -0.001016 -0.014759 0.017972
v -0.001016 0.005910 0.025210
v 0.008285 0.005393 0.020556
f 736 731 737 
f 717 716 718 
f 718 716 719 
f 721 715 722 
f 718 719 722 
f 719 720 722 
f 716 717 723 
f 718 721 723 
f 719 716 724 
f 720 719 724 
f 721 718 725 
f 718 722 725 
f 721 722 727 
f 722 720 727 
f 717 718 728 
f 718 723 728 
f 723 726 729 
f 729 726 730 
f 726 721 730 
f 721 727 730 
f 727 720 730 
f 720 729 730 
f 715 721 732 
f 722 715 732 
f 721 725 732 
f 725 722 732 
f 729 720 733 
f 723 717 734 
f 717 728 734 
f 728 723 734 
f 723 721 735 
f 721 726 735 
f 726 723 735 
f 716 723 736 
f 723 729 736 
f 729 733 736 
f 733 731 736 
f 724 716 737 
f 720 724 737 
f 733 720 737 
f 731 733 737 
f 716 736 737 
o convex_26
v 0.016040 0.006428 0.009704
v 0.008804 -0.020966 0.001951
v 0.012423 -0.020966 0.001951
v 0.012423 -0.020966 0.011255
v 0.008804 0.006428 0.011255
v 0.017590 0.006428 0.001951
v 0.019141 -0.016829 0.002468
v 0.008804 0.006428 0.001951
v 0.008804 -0.020449 0.011255
v 0.013973 -0.016314 0.011255
v 0.015006 0.006428 0.011255
v 0.017072 -0.019414 0.001951
v 0.017590 -0.015276 0.006087
v 0.017590 0.006428 0.004535
v 0.019141 -0.013211 0.002985
v 0.019141 -0.011661 0.001951
v 0.015006 -0.015276 0.010220
f 741 750 754 
f 739 740 741 
f 740 739 743 
f 742 738 743 
f 739 742 745 
f 743 739 745 
f 742 743 745 
f 739 741 746 
f 741 742 746 
f 742 739 746 
f 742 741 747 
f 738 742 748 
f 742 747 748 
f 741 740 749 
f 740 743 749 
f 744 741 749 
f 741 744 750 
f 743 738 751 
f 738 750 752 
f 750 744 752 
f 751 738 752 
f 751 752 753 
f 749 743 753 
f 744 749 753 
f 743 751 753 
f 752 744 753 
f 747 741 754 
f 738 748 754 
f 748 747 754 
f 750 738 754 
o convex_27
v 0.008800 -0.030269 0.013322
v 0.002086 -0.027686 0.004018
v -0.002049 -0.029236 0.005053
v -0.008770 -0.028720 0.013322
v 0.013456 -0.026652 0.013322
v -0.002049 -0.031820 0.009187
v 0.005702 -0.029236 0.006087
v 0.002086 -0.026652 0.004018
v -0.003083 -0.031820 0.013322
v -0.007216 -0.029236 0.008155
v 0.011385 -0.027169 0.008670
v 0.002602 -0.031820 0.010737
v -0.006701 -0.030786 0.010737
v 0.010353 -0.029236 0.010737
v 0.003118 -0.030786 0.007120
v 0.008287 -0.026652 0.006087
f 765 761 770 
f 758 755 759 
f 756 757 762 
f 758 759 762 
f 755 758 763 
f 757 760 764 
f 762 757 764 
f 758 762 764 
f 755 763 766 
f 763 760 766 
f 763 758 767 
f 760 763 767 
f 764 760 767 
f 758 764 767 
f 759 755 768 
f 765 759 768 
f 761 765 768 
f 755 766 768 
f 768 766 769 
f 757 756 769 
f 760 757 769 
f 756 761 769 
f 766 760 769 
f 761 768 769 
f 761 756 770 
f 756 762 770 
f 762 759 770 
f 759 765 770 
o convex_28
v -0.011353 -0.024068 0.013322
v -0.001018 -0.026134 0.003501
v -0.001018 -0.024585 0.003501
v 0.002085 -0.021484 0.007121
v -0.008252 -0.028718 0.013322
v 0.002085 -0.028718 0.005569
v -0.006183 -0.027684 0.006086
v -0.008252 -0.020966 0.008668
v -0.010837 -0.020966 0.013322
v 0.001567 -0.020966 0.005569
v -0.008252 -0.028718 0.009186
v -0.004636 -0.023035 0.005053
v -0.008769 -0.024068 0.008155
v 0.002085 -0.028718 0.004536
v 0.002085 -0.023035 0.004019
v -0.011871 -0.020966 0.012805
v -0.003084 -0.028718 0.005053
f 784 781 787 
f 774 775 776 
f 771 775 779 
f 775 774 779 
f 778 779 780 
f 779 774 780 
f 775 771 781 
f 776 775 781 
f 773 772 782 
f 772 777 782 
f 778 780 782 
f 777 781 783 
f 782 777 783 
f 778 782 783 
f 774 776 784 
f 776 781 784 
f 772 773 785 
f 780 774 785 
f 773 782 785 
f 782 780 785 
f 784 772 785 
f 774 784 785 
f 771 779 786 
f 779 778 786 
f 781 771 786 
f 778 783 786 
f 783 781 786 
f 777 772 787 
f 781 777 787 
f 772 784 787 
o convex_29
v -0.008771 -0.029234 0.013322
v -0.014971 -0.012183 0.025210
v -0.012904 -0.012183 0.015908
v -0.006702 -0.025101 0.025210
v -0.016523 -0.013215 0.022624
v -0.006702 -0.029234 0.013322
v -0.009287 -0.024067 0.025210
v -0.016005 -0.013732 0.016942
v -0.011870 -0.023035 0.013322
v -0.010837 -0.026134 0.014873
v -0.014971 -0.015281 0.025210
v -0.014971 -0.012183 0.015390
v -0.007220 -0.029751 0.016941
v -0.010837 -0.021484 0.013322
v -0.010320 -0.026651 0.016424
v -0.006702 -0.025101 0.023659
f 791 793 803 
f 790 789 791 
f 791 789 794 
f 793 788 796 
f 792 795 797 
f 795 796 797 
f 796 788 797 
f 789 792 798 
f 794 789 798 
f 789 790 799 
f 792 789 799 
f 795 792 799 
f 796 795 799 
f 788 793 800 
f 793 791 800 
f 791 794 800 
f 790 793 801 
f 793 796 801 
f 799 790 801 
f 796 799 801 
f 797 788 802 
f 792 797 802 
f 798 792 802 
f 794 798 802 
f 788 800 802 
f 800 794 802 
f 790 791 803 
f 793 790 803 
o convex_30
v -0.006702 -0.030269 0.015907
v 0.002085 -0.028204 0.025210
v -0.006185 -0.025101 0.025210
v 0.002085 -0.030786 0.013322
v -0.001017 -0.028718 0.025210
v -0.006702 -0.029753 0.013322
v 0.001568 -0.031820 0.013841
v -0.006185 -0.027169 0.024691
v -0.002566 -0.031820 0.013841
v 0.002085 -0.028204 0.022626
v 0.002085 -0.030786 0.019009
f 812 810 814 
f 805 806 808 
f 804 806 809 
f 806 807 809 
f 806 804 811 
f 804 808 811 
f 808 806 811 
f 808 804 812 
f 804 809 812 
f 809 807 812 
f 807 810 812 
f 806 805 813 
f 807 806 813 
f 805 807 813 
f 807 805 814 
f 805 808 814 
f 810 807 814 
f 808 812 814 
o convex_31
v -0.010320 0.006428 0.015389
v -0.017040 -0.010626 0.017974
v -0.017040 -0.010626 0.018491
v -0.010320 -0.011662 0.015389
v -0.010320 -0.001843 0.018491
v -0.013938 0.003326 0.015389
v -0.016006 -0.001326 0.018491
v -0.014972 -0.012179 0.015389
v -0.010837 0.006428 0.017457
v -0.015488 -0.012179 0.018491
v -0.017040 -0.005976 0.017457
f 820 822 825 
f 818 815 819 
f 815 818 820 
f 817 819 821 
f 820 818 822 
f 819 815 823 
f 815 820 823 
f 820 821 823 
f 821 819 823 
f 817 816 824 
f 818 819 824 
f 819 817 824 
f 816 822 824 
f 822 818 824 
f 816 817 825 
f 821 820 825 
f 817 821 825 
f 822 816 825 
o convex_32
v 0.013455 -0.023034 0.010220
v 0.002086 -0.026652 0.004018
v 0.002086 -0.026652 0.004536
v 0.002086 -0.020966 0.006087
v 0.012938 -0.026652 0.013322
v 0.013971 -0.020966 0.013322
v 0.008804 -0.026134 0.006087
v 0.006737 -0.022517 0.005569
v 0.002086 -0.021484 0.007120
v 0.011904 -0.020966 0.009703
v 0.013455 -0.026652 0.011254
v 0.003636 -0.023551 0.004018
f 833 832 837 
f 827 828 829 
f 828 827 830 
f 826 832 833 
f 829 828 834 
f 828 830 834 
f 831 829 834 
f 830 831 834 
f 831 826 835 
f 829 831 835 
f 833 829 835 
f 826 833 835 
f 830 827 836 
f 826 831 836 
f 831 830 836 
f 827 832 836 
f 832 826 836 
f 827 829 837 
f 832 827 837 
f 829 833 837 
o convex_33
v 0.005187 -0.031304 0.014873
v 0.011388 -0.026135 0.025210
v 0.011388 -0.026652 0.025210
v 0.002085 -0.028203 0.025210
v 0.010354 -0.028203 0.013322
v 0.002085 -0.030786 0.013322
v 0.009320 -0.029752 0.019009
v 0.011388 -0.029236 0.013841
v 0.002085 -0.028203 0.022626
v 0.004670 -0.028719 0.025210
v 0.002085 -0.030786 0.019009
v 0.010870 -0.026135 0.022626
f 842 846 849 
f 840 839 841 
f 839 840 845 
f 838 843 845 
f 843 842 845 
f 840 844 845 
f 844 838 845 
f 843 841 846 
f 842 843 846 
f 840 841 847 
f 844 840 847 
f 844 847 848 
f 843 838 848 
f 841 843 848 
f 838 844 848 
f 847 841 848 
f 841 839 849 
f 839 845 849 
f 845 842 849 
f 846 841 849 
o convex_34
v 0.016556 -0.023035 0.024691
v 0.011388 -0.028718 0.013322
v 0.011388 -0.027684 0.013322
v 0.011388 -0.025617 0.025210
v 0.014490 -0.020966 0.013322
v 0.017073 -0.022518 0.017458
v 0.016556 -0.020966 0.025210
v 0.013457 -0.027684 0.017458
v 0.014490 -0.026134 0.013322
v 0.011906 -0.026651 0.025210
v 0.017591 -0.020966 0.017976
f 858 854 860 
f 852 851 853 
f 851 852 854 
f 852 853 854 
f 854 853 856 
f 855 850 857 
f 855 857 858 
f 851 854 858 
f 857 851 858 
f 853 851 859 
f 850 856 859 
f 856 853 859 
f 851 857 859 
f 857 850 859 
f 850 855 860 
f 854 856 860 
f 856 850 860 
f 855 858 860 
o convex_35
v -0.000498 -0.028719 0.025727
v 0.006736 -0.021485 0.061908
v 0.006736 -0.022001 0.061908
v -0.002567 -0.021485 0.052600
v 0.006736 -0.027685 0.025210
v -0.002049 -0.020966 0.050014
v 0.003633 -0.027685 0.037614
v -0.002567 -0.027168 0.025210
v -0.002567 -0.026652 0.037097
v 0.006736 -0.028202 0.034517
v 0.002601 -0.021485 0.061908
v 0.005702 -0.022518 0.061387
v 0.006736 -0.022518 0.054666
v 0.000019 -0.028202 0.032969
v 0.004668 -0.028719 0.025210
v 0.002085 -0.028719 0.031417
v -0.002567 -0.028202 0.025210
f 868 875 877 
f 862 863 865 
f 866 865 868 
f 864 866 868 
f 864 868 869 
f 865 863 870 
f 863 862 871 
f 862 866 871 
f 866 864 871 
f 864 869 871 
f 871 869 872 
f 870 863 872 
f 867 870 872 
f 863 871 872 
f 862 865 873 
f 866 862 873 
f 865 866 873 
f 872 869 874 
f 867 872 874 
f 868 865 875 
f 865 870 875 
f 875 870 876 
f 870 867 876 
f 874 861 876 
f 867 874 876 
f 861 875 876 
f 869 868 877 
f 861 874 877 
f 874 869 877 
f 875 861 877 
o convex_36
v 0.009322 0.006428 0.046400
v 0.020175 -0.003909 0.039684
v 0.020175 -0.004426 0.039684
v 0.018107 -0.003909 0.051054
v 0.015006 0.005910 0.037615
v 0.008804 0.005910 0.043817
v 0.019140 -0.003909 0.036581
v 0.008804 0.003327 0.050019
v 0.012939 0.002293 0.051054
v 0.017073 -0.004426 0.047951
v 0.012939 0.006428 0.036581
v 0.017591 0.002809 0.036581
v 0.016039 -0.000808 0.051054
v 0.017073 -0.004426 0.051054
v 0.008804 0.004359 0.051054
v 0.019658 -0.001325 0.037098
f 889 881 893 
f 880 879 881 
f 883 884 885 
f 882 878 886 
f 884 880 887 
f 885 884 887 
f 878 882 888 
f 883 878 888 
f 884 883 888 
f 884 888 889 
f 888 882 889 
f 889 882 890 
f 882 886 890 
f 886 881 890 
f 881 889 890 
f 880 881 891 
f 881 886 891 
f 887 880 891 
f 885 887 891 
f 878 883 892 
f 883 885 892 
f 886 878 892 
f 891 886 892 
f 885 891 892 
f 879 880 893 
f 881 879 893 
f 880 884 893 
f 884 889 893 
o convex_37
v 0.012422 -0.021484 0.057256
v 0.006736 -0.027685 0.036064
v 0.006736 -0.027168 0.036064
v 0.006736 -0.021484 0.061391
v 0.011388 -0.022517 0.060873
v 0.012422 -0.025617 0.036064
v 0.012422 -0.026651 0.036582
v 0.006736 -0.022517 0.061391
v 0.006736 -0.022517 0.054668
v 0.008288 -0.027685 0.037098
v 0.011905 -0.022001 0.053121
v 0.011388 -0.025617 0.036064
v 0.012422 -0.022001 0.060873
f 901 898 906 
f 896 895 897 
f 895 896 899 
f 899 894 900 
f 895 899 900 
f 897 895 901 
f 896 897 902 
f 900 898 903 
f 895 900 903 
f 901 895 903 
f 898 901 903 
f 897 894 904 
f 894 899 904 
f 902 897 904 
f 902 904 905 
f 899 896 905 
f 896 902 905 
f 904 899 905 
f 894 897 906 
f 900 894 906 
f 898 900 906 
f 897 901 906 
o convex_38
v 0.014490 -0.020450 0.060874
v 0.012422 -0.026135 0.036064
v 0.012422 -0.025618 0.036064
v 0.021209 -0.015797 0.037099
v 0.020174 -0.017866 0.059835
v 0.018624 -0.022516 0.036064
v 0.012422 -0.021482 0.055704
v 0.019139 -0.015797 0.054152
v 0.015008 -0.021482 0.060874
v 0.016040 -0.023551 0.045890
v 0.021209 -0.015797 0.059835
v 0.020691 -0.015797 0.037099
v 0.020691 -0.018899 0.038138
v 0.012422 -0.021482 0.060874
v 0.012940 -0.026135 0.038656
v 0.012422 -0.025100 0.036582
v 0.017073 -0.024067 0.037099
v 0.018623 -0.019416 0.060352
v 0.019139 -0.015797 0.048984
v 0.012422 -0.022000 0.060874
f 921 915 926 
f 908 909 912 
f 909 908 913 
f 910 914 917 
f 912 909 918 
f 910 912 918 
f 914 910 918 
f 911 912 919 
f 912 910 919 
f 917 911 919 
f 910 917 919 
f 913 908 920 
f 914 913 920 
f 915 907 920 
f 917 914 920 
f 907 917 920 
f 916 915 921 
f 909 913 922 
f 918 909 922 
f 913 918 922 
f 908 912 923 
f 912 911 923 
f 921 908 923 
f 916 921 923 
f 907 915 924 
f 915 916 924 
f 911 917 924 
f 917 907 924 
f 923 911 924 
f 916 923 924 
f 913 914 925 
f 918 913 925 
f 914 918 925 
f 920 908 926 
f 915 920 926 
f 908 921 926 
o convex_39
v -0.022725 -0.003912 0.001951
v -0.010320 0.006428 0.015389
v -0.010320 0.006428 0.001951
v -0.010320 -0.020966 0.011771
v -0.010320 -0.017861 0.001951
v -0.021690 0.000223 0.008670
v -0.012905 -0.020966 0.015389
v -0.023242 0.006428 0.001951
v -0.014456 0.003323 0.015389
v -0.016524 -0.014246 0.001951
v -0.022207 -0.003394 0.007121
v -0.018071 -0.002877 0.012803
v -0.010320 -0.013211 0.015389
v -0.017040 0.006428 0.010737
v -0.012905 -0.017346 0.001951
v -0.013940 -0.016829 0.015389
v -0.023759 0.005393 0.002468
v -0.021690 -0.005982 0.005053
v -0.019623 -0.009594 0.001951
v -0.021174 -0.002877 0.009185
v -0.014973 -0.004944 0.015389
f 938 942 947 
f 929 928 930 
f 927 929 931 
f 929 930 931 
f 929 927 934 
f 928 929 934 
f 933 928 935 
f 927 931 936 
f 935 932 938 
f 930 928 939 
f 928 933 939 
f 933 930 939 
f 928 934 940 
f 932 935 940 
f 935 928 940 
f 931 930 941 
f 930 933 941 
f 936 931 941 
f 933 936 941 
f 933 935 942 
f 934 927 943 
f 927 937 943 
f 937 932 943 
f 940 934 943 
f 932 940 943 
f 937 927 944 
f 933 937 944 
f 927 936 945 
f 936 933 945 
f 944 927 945 
f 933 944 945 
f 937 933 946 
f 932 937 946 
f 938 932 946 
f 933 942 946 
f 942 938 946 
f 935 938 947 
f 942 935 947 
o convex_40
v -0.013937 -0.016830 0.025729
v -0.013937 -0.006494 0.037615
v -0.013937 -0.006494 0.036579
v -0.008770 -0.020449 0.037098
v -0.009803 -0.020449 0.025729
v -0.011872 -0.018896 0.036579
v -0.017040 -0.006494 0.025210
v -0.015488 -0.011665 0.033995
v -0.011354 -0.020966 0.032446
v -0.016521 -0.011665 0.025210
v -0.015488 -0.007528 0.036062
v -0.016521 -0.006494 0.025210
v -0.014455 -0.011146 0.037615
v -0.010837 -0.020966 0.025210
v -0.013937 -0.016314 0.033479
v -0.009803 -0.020966 0.037615
v -0.017040 -0.006494 0.028311
f 955 958 964 
f 950 949 951 
f 950 951 952 
f 949 950 954 
f 950 952 959 
f 954 950 959 
f 957 954 959 
f 949 958 960 
f 958 955 960 
f 952 951 961 
f 956 948 961 
f 948 957 961 
f 959 952 961 
f 957 959 961 
f 948 956 962 
f 956 953 962 
f 957 948 962 
f 955 957 962 
f 953 960 962 
f 960 955 962 
f 951 949 963 
f 953 956 963 
f 949 960 963 
f 960 953 963 
f 961 951 963 
f 956 961 963 
f 949 954 964 
f 954 957 964 
f 957 955 964 
f 958 949 964 
o convex_41
v 0.018108 -0.017861 0.016941
v 0.015523 0.006428 0.020558
v 0.015006 0.006428 0.020558
v 0.015523 -0.002877 0.014873
v 0.015006 -0.020966 0.014873
v 0.017074 -0.020966 0.020558
v 0.019141 -0.008044 0.020558
v 0.017590 -0.001327 0.016941
v 0.015523 -0.020966 0.013839
v 0.015006 0.001258 0.015907
v 0.019141 -0.017861 0.020558
v 0.017074 0.003323 0.018490
v 0.019141 -0.011141 0.019007
v 0.018108 0.000223 0.020558
v 0.018108 -0.020966 0.019524
f 975 970 979 
f 967 969 970 
f 966 967 970 
f 966 970 971 
f 970 969 973 
f 968 972 973 
f 972 965 973 
f 967 966 974 
f 969 967 974 
f 972 968 974 
f 968 973 974 
f 973 969 974 
f 971 970 975 
f 974 966 976 
f 972 974 976 
f 965 972 977 
f 972 971 977 
f 975 965 977 
f 971 975 977 
f 966 971 978 
f 971 972 978 
f 976 966 978 
f 972 976 978 
f 970 973 979 
f 973 965 979 
f 965 975 979 
o convex_42
v 0.018107 0.002293 0.036064
v 0.018107 -0.004426 0.020558
v 0.018624 -0.004426 0.020558
v 0.016041 0.006428 0.020558
v 0.013456 0.005910 0.036581
v 0.020692 -0.004426 0.035546
v 0.015008 0.005394 0.020558
v 0.019657 -0.004426 0.036581
v 0.020692 -0.003393 0.030894
v 0.015523 0.006428 0.034511
v 0.017590 -0.003909 0.021076
v 0.017590 0.002809 0.020558
v 0.019140 0.000743 0.029860
v 0.017074 0.004877 0.032444
f 980 992 993 
f 982 981 983 
f 981 982 985 
f 983 981 986 
f 984 983 986 
f 980 984 987 
f 981 985 987 
f 985 980 987 
f 985 982 988 
f 980 985 988 
f 984 980 989 
f 983 984 989 
f 986 981 990 
f 984 986 990 
f 987 984 990 
f 981 987 990 
f 982 983 991 
f 988 982 991 
f 988 991 992 
f 980 988 992 
f 991 983 992 
f 992 983 993 
f 989 980 993 
f 983 989 993 
o convex_43
v 0.018626 -0.004426 0.060357
v 0.020692 -0.015797 0.040716
v 0.018108 -0.004944 0.043819
v 0.021208 -0.009080 0.040716
v 0.022243 -0.013728 0.059838
v 0.019659 -0.015797 0.056220
v 0.020174 -0.004944 0.040716
v 0.021725 -0.008561 0.059838
v 0.017591 -0.005460 0.047953
v 0.021208 -0.015797 0.060357
v 0.017591 -0.004426 0.056220
v 0.019658 -0.015797 0.046918
v 0.019659 -0.004426 0.060357
v 0.021208 -0.015797 0.040716
v 0.019142 -0.004426 0.040716
v 0.022243 -0.010628 0.060357
v 0.020174 -0.015797 0.059323
f 1004 999 1010 
f 997 995 1000 
f 997 1000 1001 
f 999 995 1003 
f 996 1002 1004 
f 1002 999 1004 
f 996 995 1005 
f 995 999 1005 
f 1002 996 1005 
f 999 1002 1005 
f 1001 1000 1006 
f 994 1003 1006 
f 1004 994 1006 
f 995 997 1007 
f 997 998 1007 
f 1003 995 1007 
f 998 1003 1007 
f 995 996 1008 
f 1000 995 1008 
f 996 1004 1008 
f 1006 1000 1008 
f 1004 1006 1008 
f 998 997 1009 
f 997 1001 1009 
f 1003 998 1009 
f 1001 1006 1009 
f 1006 1003 1009 
f 999 1003 1010 
f 1003 994 1010 
f 994 1004 1010 
o convex_44
v -0.006182 -0.020449 0.047953
v 0.003635 -0.020449 0.061908
v -0.001018 -0.014247 0.062423
v -0.011870 -0.014247 0.037615
v -0.008252 -0.020966 0.038133
v -0.012905 -0.014764 0.038649
v -0.000500 -0.017864 0.062942
v 0.001568 -0.020966 0.061390
v -0.009801 -0.020966 0.038133
v -0.008252 -0.015798 0.048987
v -0.001018 -0.014247 0.060874
v 0.003635 -0.020449 0.061390
v -0.007217 -0.018381 0.048987
v -0.007217 -0.014247 0.051570
v -0.008770 -0.019932 0.037615
v -0.001534 -0.016315 0.062423
f 1024 1020 1026 
f 1012 1013 1017 
f 1012 1017 1018 
f 1017 1011 1018 
f 1016 1014 1019 
f 1018 1011 1019 
f 1015 1018 1019 
f 1013 1012 1021 
f 1014 1013 1021 
f 1014 1021 1022 
f 1018 1015 1022 
f 1012 1018 1022 
f 1021 1012 1022 
f 1011 1017 1023 
f 1019 1011 1023 
f 1016 1019 1023 
f 1020 1016 1023 
f 1013 1014 1024 
f 1014 1016 1024 
f 1016 1020 1024 
f 1019 1014 1025 
f 1015 1019 1025 
f 1014 1022 1025 
f 1022 1015 1025 
f 1017 1013 1026 
f 1023 1017 1026 
f 1020 1023 1026 
f 1013 1024 1026 
o convex_45
v -0.013419 -0.013729 0.037615
v 0.000534 -0.006494 0.062425
v 0.000016 -0.006494 0.062425
v -0.001017 -0.014247 0.062425
v -0.014455 -0.007012 0.038652
v -0.011870 -0.013212 0.038132
v -0.002051 -0.006494 0.055705
v -0.002051 -0.014247 0.061907
v -0.013419 -0.006494 0.037615
v -0.001017 -0.014247 0.060873
v -0.001535 -0.010113 0.062425
v -0.009286 -0.014247 0.047438
v -0.010318 -0.014247 0.041236
v 0.000534 -0.007012 0.060873
f 1036 1039 1040 
f 1028 1029 1030 
f 1029 1028 1033 
f 1027 1031 1035 
f 1031 1029 1035 
f 1032 1027 1035 
f 1033 1032 1035 
f 1029 1033 1035 
f 1030 1034 1036 
f 1030 1029 1037 
f 1029 1031 1037 
f 1034 1030 1037 
f 1031 1034 1037 
f 1031 1027 1038 
f 1034 1031 1038 
f 1036 1034 1038 
f 1036 1038 1039 
f 1027 1032 1039 
f 1032 1033 1039 
f 1038 1027 1039 
f 1039 1033 1040 
f 1028 1030 1040 
f 1033 1028 1040 
f 1030 1036 1040 
o convex_46
v 0.017072 -0.001842 0.060874
v 0.008804 0.003326 0.051054
v 0.008804 0.003844 0.051054
v 0.018106 -0.004426 0.051054
v 0.008804 0.000742 0.061391
v 0.013457 0.001776 0.051054
v 0.013973 0.000742 0.060874
v 0.018106 -0.004426 0.060357
v 0.017072 -0.004426 0.051054
v 0.018106 -0.002358 0.059839
v 0.008804 0.000742 0.059322
v 0.009839 0.003844 0.052088
f 1047 1046 1052 
f 1042 1043 1044 
f 1043 1042 1045 
f 1044 1043 1046 
f 1045 1041 1047 
f 1041 1045 1048 
f 1048 1045 1049 
f 1042 1044 1049 
f 1044 1048 1049 
f 1044 1046 1050 
f 1047 1041 1050 
f 1046 1047 1050 
f 1041 1048 1050 
f 1048 1044 1050 
f 1045 1042 1051 
f 1049 1045 1051 
f 1042 1049 1051 
f 1043 1045 1052 
f 1046 1043 1052 
f 1045 1047 1052 
o convex_47
v -0.013421 -0.006494 0.038651
v 0.006220 -0.000291 0.061390
v 0.006220 -0.000809 0.061390
v 0.000015 -0.005977 0.062425
v -0.013421 -0.000291 0.037101
v -0.007734 -0.000809 0.040718
v -0.003086 -0.006494 0.053635
v 0.003634 -0.000809 0.061390
v -0.013421 -0.003909 0.039686
v -0.012387 -0.006494 0.039171
v -0.012904 -0.000291 0.035031
v 0.003634 -0.000809 0.056737
v 0.001050 -0.006494 0.061390
v -0.012904 -0.006494 0.040718
v 0.001050 -0.003909 0.061907
f 1060 1057 1067 
f 1055 1054 1056 
f 1056 1054 1060 
f 1054 1057 1060 
f 1057 1053 1061 
f 1056 1057 1061 
f 1059 1053 1062 
f 1053 1057 1063 
f 1057 1054 1063 
f 1054 1058 1063 
f 1062 1053 1063 
f 1058 1062 1063 
f 1054 1055 1064 
f 1058 1054 1064 
f 1055 1059 1064 
f 1062 1058 1064 
f 1059 1062 1064 
f 1055 1056 1065 
f 1059 1055 1065 
f 1053 1059 1065 
f 1061 1053 1066 
f 1056 1061 1066 
f 1065 1056 1066 
f 1053 1065 1066 
f 1057 1056 1067 
f 1056 1060 1067 
o convex_48
v -0.010835 0.001777 0.037615
v -0.016521 -0.000291 0.025210
v -0.016521 0.000226 0.025210
v -0.001536 0.005911 0.025210
v -0.011869 0.003843 0.026245
v 0.000015 0.005393 0.037615
v -0.011353 -0.000291 0.036579
v -0.001018 0.006428 0.037615
v -0.003602 0.006428 0.025210
v -0.011353 0.002810 0.034512
v -0.013937 0.000226 0.035546
v -0.014970 -0.000291 0.026245
v -0.015486 0.001777 0.025210
v -0.005669 0.002293 0.037615
f 1074 1071 1081 
f 1069 1070 1071 
f 1068 1073 1075 
f 1073 1071 1075 
f 1071 1070 1076 
f 1072 1075 1076 
f 1075 1071 1076 
f 1068 1075 1077 
f 1075 1072 1077 
f 1070 1069 1078 
f 1074 1068 1078 
f 1069 1074 1078 
f 1068 1077 1078 
f 1069 1071 1079 
f 1074 1069 1079 
f 1071 1074 1079 
f 1076 1070 1080 
f 1072 1076 1080 
f 1077 1072 1080 
f 1070 1078 1080 
f 1078 1077 1080 
f 1073 1068 1081 
f 1071 1073 1081 
f 1068 1074 1081 
o convex_49
v 0.008804 -0.018381 0.013840
v 0.015006 0.006428 0.020558
v 0.014489 0.006428 0.020558
v 0.015006 0.006428 0.011255
v 0.015006 -0.020966 0.014356
v 0.008804 0.006428 0.011255
v 0.008804 0.005910 0.020040
v 0.013456 -0.020966 0.011255
v 0.008804 -0.013726 0.016938
v 0.008804 -0.019928 0.011255
v 0.015006 -0.020966 0.012807
v 0.015006 -0.015279 0.015905
f 1090 1086 1093 
f 1084 1083 1085 
f 1085 1083 1086 
f 1084 1085 1087 
f 1087 1082 1088 
f 1084 1087 1088 
f 1087 1085 1089 
f 1083 1084 1090 
f 1082 1086 1090 
f 1088 1082 1090 
f 1084 1088 1090 
f 1086 1082 1091 
f 1082 1087 1091 
f 1089 1086 1091 
f 1087 1089 1091 
f 1085 1086 1092 
f 1086 1089 1092 
f 1089 1085 1092 
f 1086 1083 1093 
f 1083 1090 1093 
o convex_50
v -0.016523 -0.000290 0.019525
v -0.010320 0.003844 0.025210
v -0.011872 0.003844 0.025210
v -0.016006 -0.001842 0.025210
v -0.010320 -0.000807 0.018491
v -0.011872 0.002809 0.020042
v -0.016523 -0.001842 0.018491
v -0.016006 0.001259 0.025210
v -0.014972 0.002292 0.021593
f 1094 1101 1102 
f 1095 1096 1097 
f 1095 1097 1098 
f 1095 1098 1099 
f 1096 1095 1099 
f 1097 1094 1100 
f 1098 1097 1100 
f 1099 1098 1100 
f 1094 1099 1100 
f 1097 1096 1101 
f 1094 1097 1101 
f 1099 1094 1102 
f 1096 1099 1102 
f 1101 1096 1102 
o convex_51
v 0.019141 -0.015797 0.026244
v 0.017074 -0.020966 0.020558
v 0.017074 -0.020449 0.020558
v 0.018625 -0.020449 0.037098
v 0.021209 -0.017349 0.030378
v 0.020692 -0.015797 0.037098
v 0.019658 -0.020966 0.037098
v 0.019658 -0.015797 0.021593
v 0.018108 -0.020966 0.020558
v 0.017074 -0.019932 0.026244
v 0.018625 -0.015797 0.020558
f 1105 1112 1113 
f 1107 1108 1109 
f 1106 1104 1109 
f 1108 1106 1109 
f 1103 1108 1110 
f 1108 1107 1110 
f 1104 1105 1111 
f 1107 1109 1111 
f 1109 1104 1111 
f 1110 1107 1111 
f 1105 1104 1112 
f 1104 1106 1112 
f 1108 1103 1112 
f 1106 1108 1112 
f 1103 1110 1113 
f 1111 1105 1113 
f 1110 1111 1113 
f 1112 1103 1113 
o convex_52
v -0.010836 -0.000291 0.037617
v 0.008804 0.001260 0.061904
v 0.007252 0.006428 0.047956
v 0.008804 0.003326 0.050538
v 0.000531 0.005393 0.045887
v 0.001050 0.006428 0.037617
v -0.011869 0.000743 0.038136
v 0.005184 -0.000291 0.061388
v 0.007252 -0.000291 0.060869
v 0.008804 0.005911 0.044853
v -0.006700 -0.000291 0.041234
v 0.004668 0.000226 0.060869
v 0.002083 0.006428 0.045371
v -0.003084 0.003326 0.037617
v -0.000502 0.006428 0.039168
v -0.012388 -0.000291 0.038136
v 0.008804 0.006428 0.046921
v 0.004151 0.006428 0.047437
f 1126 1125 1131 
f 1119 1114 1120 
f 1117 1115 1122 
f 1121 1114 1122 
f 1115 1121 1122 
f 1115 1117 1123 
f 1117 1122 1124 
f 1122 1114 1124 
f 1123 1117 1124 
f 1118 1120 1125 
f 1121 1115 1125 
f 1116 1119 1126 
f 1120 1118 1126 
f 1118 1125 1126 
f 1114 1119 1127 
f 1119 1123 1127 
f 1124 1114 1127 
f 1123 1124 1127 
f 1119 1120 1128 
f 1126 1119 1128 
f 1120 1126 1128 
f 1120 1114 1129 
f 1114 1121 1129 
f 1125 1120 1129 
f 1121 1125 1129 
f 1116 1115 1130 
f 1119 1116 1130 
f 1115 1123 1130 
f 1123 1119 1130 
f 1115 1116 1131 
f 1125 1115 1131 
f 1116 1126 1131 
o convex_53
v 0.021209 -0.005460 0.033479
v 0.018625 -0.015797 0.020558
v 0.019142 -0.015797 0.020558
v 0.020692 -0.015797 0.040716
v 0.019142 -0.004426 0.040716
v 0.018108 -0.004426 0.020558
v 0.021726 -0.012695 0.028315
v 0.021726 -0.011662 0.039680
v 0.021726 -0.015797 0.031409
v 0.020692 -0.004426 0.028315
v 0.019659 -0.011662 0.020558
v 0.020175 -0.004426 0.040197
v 0.018625 -0.015797 0.022109
v 0.021726 -0.009595 0.028832
v 0.018108 -0.008561 0.021077
v 0.019142 -0.005978 0.021077
v 0.019142 -0.005460 0.040716
f 1146 1144 1148 
f 1133 1134 1135 
f 1134 1133 1137 
f 1139 1135 1140 
f 1135 1134 1140 
f 1134 1138 1140 
f 1138 1139 1140 
f 1137 1136 1141 
f 1134 1137 1142 
f 1138 1134 1142 
f 1136 1135 1143 
f 1139 1132 1143 
f 1135 1139 1143 
f 1132 1141 1143 
f 1141 1136 1143 
f 1133 1135 1144 
f 1132 1139 1145 
f 1139 1138 1145 
f 1141 1132 1145 
f 1138 1142 1145 
f 1137 1133 1146 
f 1136 1137 1146 
f 1133 1144 1146 
f 1137 1141 1147 
f 1142 1137 1147 
f 1141 1145 1147 
f 1145 1142 1147 
f 1135 1136 1148 
f 1144 1135 1148 
f 1136 1146 1148 
