o convex_0
v -0.292775 -0.051001 -0.259933
v -0.296736 -0.110289 -0.346872
v -0.292775 -0.110289 -0.346872
v -0.332301 -0.043098 -0.180891
v -0.296736 -0.039143 -0.180891
v -0.336248 -0.035188 -0.196699
v -0.292775 -0.035188 -0.220420
v -0.296736 -0.078664 -0.311291
v -0.292775 -0.110289 -0.338960
v -0.304634 -0.043098 -0.180891
v -0.340208 -0.039143 -0.180891
v -0.292775 -0.035188 -0.188803
f 6 11 12 
f 3 1 7 
f 1 6 7 
f 1 3 8 
f 3 2 8 
f 2 6 8 
f 6 1 8 
f 2 3 9 
f 3 7 9 
f 5 4 10 
f 4 9 10 
f 9 5 10 
f 4 5 11 
f 6 2 11 
f 2 9 11 
f 9 4 11 
f 7 6 12 
f 5 9 12 
f 9 7 12 
f 11 5 12 
o convex_1
v 0.051111 -0.118184 -0.493166
v 0.161787 -0.102376 -0.576134
v 0.161787 -0.110280 -0.576134
v 0.078780 -0.102376 -0.635406
v 0.066928 -0.062864 -0.473402
v 0.106449 -0.130043 -0.485250
v 0.090653 -0.126088 -0.623558
v 0.106449 -0.062864 -0.556370
v 0.106449 -0.062864 -0.485250
v 0.055065 -0.062864 -0.516878
v 0.138050 -0.090531 -0.623558
v 0.153878 -0.118184 -0.611694
v 0.066928 -0.134006 -0.485250
v 0.102516 -0.114236 -0.469453
v 0.086699 -0.090531 -0.631457
v 0.134107 -0.098435 -0.508979
v 0.074847 -0.118184 -0.627508
v 0.153878 -0.090531 -0.607744
v 0.106449 -0.114236 -0.639372
v 0.094597 -0.134006 -0.508979
v 0.066928 -0.118184 -0.469453
v 0.134107 -0.126088 -0.580083
v 0.122244 -0.066819 -0.532692
v 0.062984 -0.134006 -0.501064
v 0.051111 -0.118184 -0.508979
v 0.070893 -0.106332 -0.619609
v 0.082734 -0.062864 -0.556370
v 0.122244 -0.114236 -0.489216
v 0.055065 -0.066819 -0.485250
v 0.118301 -0.086582 -0.627508
v 0.153878 -0.090531 -0.564269
v 0.145970 -0.122140 -0.560320
v 0.090653 -0.082627 -0.469453
f 33 26 45 
f 20 17 21 
f 17 20 22 
f 14 15 24 
f 16 22 27 
f 15 14 28 
f 23 20 30 
f 14 24 30 
f 24 23 30 
f 24 19 31 
f 23 24 31 
f 16 27 31 
f 29 16 31 
f 19 29 31 
f 18 25 32 
f 13 25 33 
f 25 18 33 
f 18 26 33 
f 19 24 34 
f 18 32 34 
f 32 19 34 
f 20 21 35 
f 30 20 35 
f 25 13 36 
f 29 19 36 
f 19 32 36 
f 32 25 36 
f 13 22 37 
f 36 13 37 
f 29 36 37 
f 22 16 38 
f 16 29 38 
f 37 22 38 
f 29 37 38 
f 22 20 39 
f 27 22 39 
f 26 18 40 
f 21 26 40 
f 15 28 40 
f 28 21 40 
f 22 13 41 
f 17 22 41 
f 13 33 41 
f 33 17 41 
f 20 23 42 
f 23 31 42 
f 31 27 42 
f 39 20 42 
f 27 39 42 
f 28 14 43 
f 21 28 43 
f 14 30 43 
f 35 21 43 
f 30 35 43 
f 24 15 44 
f 18 34 44 
f 34 24 44 
f 15 40 44 
f 40 18 44 
f 21 17 45 
f 26 21 45 
f 17 33 45 
o convex_2
v 0.062978 -0.058883 -0.473393
v 0.074821 0.126874 -0.445711
v 0.062971 0.126874 -0.445711
v 0.098536 -0.058883 -0.552430
v 0.102484 0.004355 -0.445721
v 0.035300 0.039901 -0.445711
v 0.062978 -0.054945 -0.532655
v 0.110402 -0.062857 -0.540552
v 0.102492 0.075485 -0.449670
v 0.110402 -0.062857 -0.497106
v 0.047165 0.115006 -0.449670
v 0.082731 -0.027273 -0.445721
v 0.055075 -0.062857 -0.516839
v 0.035300 0.083378 -0.449670
v 0.090626 0.111032 -0.449670
v 0.047165 -0.003557 -0.445721
v 0.070881 -0.058883 -0.544511
v 0.098536 -0.062857 -0.477342
v 0.106447 0.043857 -0.445711
v 0.062971 0.126874 -0.449670
v 0.055075 -0.062857 -0.489209
v 0.082724 0.122918 -0.449670
v 0.106439 -0.058883 -0.548460
f 49 67 68 
f 47 48 51 
f 53 55 58 
f 51 48 59 
f 48 56 59 
f 58 51 59 
f 52 58 59 
f 57 51 61 
f 46 57 61 
f 49 53 62 
f 58 52 62 
f 53 58 62 
f 59 56 62 
f 52 59 62 
f 55 50 63 
f 50 57 63 
f 57 46 63 
f 58 55 63 
f 47 51 64 
f 53 54 64 
f 50 55 64 
f 55 53 64 
f 57 50 64 
f 51 57 64 
f 60 47 64 
f 54 60 64 
f 48 47 65 
f 56 48 65 
f 49 62 65 
f 62 56 65 
f 51 58 66 
f 61 51 66 
f 46 61 66 
f 63 46 66 
f 58 63 66 
f 47 60 67 
f 65 47 67 
f 49 65 67 
f 53 49 68 
f 54 53 68 
f 60 54 68 
f 67 60 68 
o convex_3
v -0.031886 0.166389 -0.623616
v 0.066922 0.138717 -0.631512
v 0.066922 0.134784 -0.631512
v -0.004216 0.107122 -0.876520
v -0.035847 0.083404 -0.544557
v 0.035291 0.182201 -0.619651
v 0.035291 0.083404 -0.651268
v 0.027381 0.134784 -0.864659
v 0.035291 0.138717 -0.544557
v 0.015521 0.087357 -0.856731
v -0.020037 0.130841 -0.860695
v -0.047707 0.126888 -0.544557
v -0.023987 0.099216 -0.856731
v -0.000267 0.186164 -0.643372
v -0.016076 0.162436 -0.544557
v 0.019470 0.091310 -0.544557
v 0.031330 0.103169 -0.860695
v 0.059011 0.103169 -0.635476
v 0.062961 0.158482 -0.659165
v 0.035291 0.178248 -0.678954
v -0.000267 0.142670 -0.860695
v -0.012127 0.087357 -0.860695
v -0.047707 0.095263 -0.548521
v -0.020037 0.178248 -0.647337
v -0.023987 0.122935 -0.860695
v 0.059011 0.158482 -0.611755
v 0.015521 0.162436 -0.544557
v 0.062961 0.130841 -0.682885
v 0.051090 0.111075 -0.588034
v 0.031330 0.118982 -0.868591
v -0.000267 0.182201 -0.603859
v 0.047151 0.091310 -0.667093
v 0.031330 0.083404 -0.607791
v -0.035847 0.154529 -0.643372
v 0.055050 0.170342 -0.655233
v 0.062961 0.115029 -0.663129
v 0.019470 0.138717 -0.868591
v 0.019470 0.186164 -0.651268
v -0.000267 0.083404 -0.667093
v 0.019470 0.103169 -0.876520
v -0.000267 0.130841 -0.876520
v 0.031330 0.103169 -0.544557
v 0.047151 0.091310 -0.619651
v -0.000267 0.083404 -0.544557
v -0.039797 0.142670 -0.544557
v -0.016076 0.178248 -0.607791
v -0.031886 0.166389 -0.639408
v 0.059011 0.130841 -0.599895
v -0.012127 0.138717 -0.860695
f 89 109 117 
f 73 77 80 
f 80 77 83 
f 77 73 84 
f 81 72 90 
f 81 90 91 
f 73 80 91 
f 90 73 91 
f 72 81 93 
f 81 91 93 
f 91 80 93 
f 70 87 94 
f 83 77 95 
f 77 94 95 
f 94 74 95 
f 70 71 96 
f 87 70 96 
f 86 71 97 
f 76 87 98 
f 96 85 98 
f 87 96 98 
f 95 74 99 
f 83 95 99 
f 75 78 100 
f 78 85 100 
f 85 86 100 
f 73 75 101 
f 93 80 102 
f 87 76 103 
f 88 74 103 
f 76 88 103 
f 74 94 103 
f 94 87 103 
f 86 85 104 
f 71 86 104 
f 96 71 104 
f 85 96 104 
f 88 76 105 
f 76 98 105 
f 74 88 106 
f 89 82 106 
f 99 74 106 
f 82 99 106 
f 88 105 106 
f 105 89 106 
f 75 73 107 
f 78 75 107 
f 73 90 107 
f 90 78 107 
f 85 78 108 
f 90 72 108 
f 78 90 108 
f 98 85 108 
f 105 98 108 
f 105 108 109 
f 93 79 109 
f 72 93 109 
f 89 105 109 
f 108 72 109 
f 77 84 110 
f 86 97 111 
f 75 100 111 
f 100 86 111 
f 101 75 111 
f 84 101 111 
f 110 84 111 
f 97 110 111 
f 84 73 112 
f 73 101 112 
f 101 84 112 
f 69 80 113 
f 80 83 113 
f 113 83 114 
f 92 69 114 
f 82 92 114 
f 99 82 114 
f 83 99 114 
f 69 113 114 
f 80 69 115 
f 69 92 115 
f 92 79 115 
f 79 93 115 
f 102 80 115 
f 93 102 115 
f 71 70 116 
f 70 94 116 
f 94 77 116 
f 97 71 116 
f 77 110 116 
f 110 97 116 
f 82 89 117 
f 79 92 117 
f 92 82 117 
f 109 79 117 
o convex_4
v -0.012119 0.024098 0.431757
v -0.016078 -0.153769 0.332947
v 0.003671 -0.153769 0.332947
v 0.011565 0.043846 0.210472
v -0.114903 -0.054939 0.309282
v 0.102496 -0.078637 0.329007
v 0.011565 -0.106329 0.186780
v -0.020014 -0.114228 0.435723
v 0.062957 0.012227 0.408065
v -0.063511 -0.066788 0.186780
v -0.004224 0.075488 0.297436
v -0.067469 -0.003594 0.419911
v 0.062957 0.020126 0.257907
v -0.063511 0.031975 0.273718
v 0.051104 -0.102357 0.423877
v 0.047146 -0.043090 0.186728
v -0.079301 -0.118178 0.364570
v 0.019482 -0.035213 0.451534
v -0.059553 0.035947 0.376416
v -0.043763 -0.098407 0.186780
v -0.071406 -0.078659 0.423851
v -0.059553 -0.031241 0.186780
v 0.035293 -0.145848 0.360630
v 0.098538 -0.086558 0.305342
v 0.015524 0.075488 0.301376
v -0.020014 -0.145848 0.400134
v 0.070852 0.020126 0.368510
v -0.039805 -0.027314 0.447569
v 0.066916 -0.054917 0.423877
v -0.023973 0.047818 0.226283
v -0.114903 -0.050989 0.332947
v 0.011565 0.043846 0.404100
v -0.067469 -0.130027 0.336913
v 0.039251 -0.086558 0.186728
v 0.035293 -0.141898 0.325041
v -0.114903 -0.066788 0.317187
v 0.043188 0.008277 0.431783
v 0.055062 -0.126077 0.388288
v 0.070852 0.020126 0.289530
v -0.075364 -0.110256 0.396194
v 0.094580 -0.062838 0.289530
v -0.039805 0.035947 0.408039
v 0.015524 -0.133999 0.415945
v 0.015524 -0.082609 0.447569
v 0.007607 -0.007521 0.186780
v 0.035293 0.035947 0.222343
v 0.043188 0.035947 0.396194
v 0.078769 -0.023342 0.396194
v -0.035847 -0.070738 0.447569
v -0.043763 -0.145848 0.376416
v -0.035847 -0.145848 0.317187
v -0.067469 0.031975 0.297436
v -0.027931 -0.106307 0.186780
v -0.079301 -0.043090 0.415945
v -0.043763 -0.118178 0.423851
v 0.070852 -0.090508 0.404100
v 0.003671 -0.153769 0.376416
v 0.051104 -0.039141 0.439663
v -0.114903 -0.062838 0.336913
v -0.067469 0.020126 0.261873
v 0.027377 -0.098430 0.186780
v -0.008161 0.051768 0.218378
v 0.047146 -0.070760 0.186728
v -0.035847 0.004328 0.439663
f 159 129 181 
f 120 119 124 
f 127 122 139 
f 131 128 147 
f 129 136 148 
f 142 128 149 
f 137 127 151 
f 127 139 151 
f 139 133 151 
f 120 124 152 
f 140 120 152 
f 141 140 152 
f 122 127 153 
f 127 137 153 
f 148 122 153 
f 150 134 153 
f 137 150 153 
f 118 135 154 
f 149 118 154 
f 141 123 155 
f 140 141 155 
f 130 142 156 
f 144 123 156 
f 142 144 156 
f 133 130 158 
f 123 141 158 
f 156 123 158 
f 130 156 158 
f 128 136 159 
f 136 129 159 
f 118 149 159 
f 149 128 159 
f 125 143 160 
f 155 132 160 
f 140 155 160 
f 125 160 161 
f 160 132 161 
f 121 133 162 
f 139 121 162 
f 133 139 162 
f 133 121 163 
f 130 133 163 
f 121 142 163 
f 142 130 163 
f 126 144 164 
f 144 142 164 
f 142 149 164 
f 154 126 164 
f 149 154 164 
f 123 144 165 
f 144 126 165 
f 146 123 165 
f 126 146 165 
f 135 145 166 
f 145 138 166 
f 161 135 166 
f 125 161 166 
f 134 150 167 
f 157 134 167 
f 150 137 168 
f 119 167 168 
f 167 150 168 
f 131 122 169 
f 128 131 169 
f 136 128 169 
f 122 148 169 
f 148 136 169 
f 124 119 170 
f 151 124 170 
f 137 151 170 
f 119 168 170 
f 168 137 170 
f 145 129 171 
f 138 145 171 
f 129 148 171 
f 143 125 172 
f 138 157 172 
f 125 166 172 
f 166 138 172 
f 167 143 172 
f 157 167 172 
f 123 146 173 
f 146 132 173 
f 155 123 173 
f 132 155 173 
f 119 120 174 
f 120 140 174 
f 160 143 174 
f 140 160 174 
f 167 119 174 
f 143 167 174 
f 146 126 175 
f 132 146 175 
f 154 135 175 
f 126 154 175 
f 135 161 175 
f 161 132 175 
f 148 153 176 
f 153 134 176 
f 157 138 176 
f 134 157 176 
f 138 171 176 
f 171 148 176 
f 122 131 177 
f 139 122 177 
f 131 147 177 
f 147 139 177 
f 124 151 178 
f 151 141 178 
f 141 152 178 
f 152 124 178 
f 121 139 179 
f 128 142 179 
f 142 121 179 
f 147 128 179 
f 139 147 179 
f 151 133 180 
f 141 151 180 
f 133 158 180 
f 158 141 180 
f 135 118 181 
f 129 145 181 
f 145 135 181 
f 118 159 181 
o convex_5
v -0.356009 -0.023322 -0.342942
v -0.324405 0.055719 -0.311314
v -0.320453 0.055719 -0.319227
v -0.348105 0.039896 -0.370598
v -0.328357 -0.027282 -0.366641
v -0.308597 0.063630 -0.378503
v -0.344153 -0.003558 -0.390356
v -0.359961 -0.023322 -0.311314
v -0.348105 0.051768 -0.311314
v -0.332309 -0.011469 -0.311314
v -0.363919 0.008296 -0.335037
v -0.304634 0.051768 -0.366641
v -0.320453 0.028052 -0.394313
v -0.332309 0.063630 -0.358736
v -0.336249 0.039896 -0.390356
v -0.340201 -0.027282 -0.311314
v -0.359961 0.028052 -0.311314
v -0.356009 0.008296 -0.370598
v -0.356009 0.035954 -0.350847
f 199 192 200 
f 183 184 187 
f 186 182 188 
f 189 183 190 
f 184 183 191 
f 183 189 191 
f 182 189 192 
f 187 184 193 
f 184 191 193 
f 191 186 193 
f 186 188 194 
f 187 193 194 
f 193 186 194 
f 183 187 195 
f 190 183 195 
f 187 194 196 
f 194 188 196 
f 195 187 196 
f 185 195 196 
f 182 186 197 
f 189 182 197 
f 186 191 197 
f 191 189 197 
f 189 190 198 
f 192 189 198 
f 188 182 199 
f 182 192 199 
f 185 196 199 
f 196 188 199 
f 195 185 200 
f 190 195 200 
f 198 190 200 
f 192 198 200 
f 185 199 200 
o convex_6
v -0.340199 0.051766 -0.252019
v -0.348103 -0.035188 -0.287578
v -0.356007 -0.031232 -0.299439
v -0.352058 -0.015418 -0.180874
v -0.292775 -0.035188 -0.180874
v -0.292775 0.043863 -0.259909
v -0.359962 0.031996 -0.311314
v -0.320450 0.016191 -0.180874
v -0.332295 -0.019374 -0.311314
v -0.328346 0.055722 -0.311314
v -0.304642 0.059677 -0.244128
v -0.344154 -0.035188 -0.180874
v -0.292775 -0.035188 -0.208556
v -0.348103 0.012245 -0.184832
v -0.363917 -0.019374 -0.311314
v -0.292775 -0.007516 -0.180874
v -0.359962 0.020147 -0.255964
v -0.292775 0.028049 -0.259909
v -0.344154 0.055722 -0.291549
v -0.324405 0.055722 -0.236237
v -0.363917 -0.019374 -0.279674
v -0.324405 0.020147 -0.311314
v -0.352058 0.043863 -0.267825
v -0.340199 -0.031232 -0.303398
v -0.363917 0.008298 -0.271784
f 215 221 225 
f 204 205 208 
f 209 207 210 
f 206 210 211 
f 203 202 212 
f 205 204 212 
f 202 205 212 
f 205 202 213 
f 206 205 213 
f 204 208 214 
f 207 209 215 
f 205 206 216 
f 208 205 216 
f 206 211 216 
f 211 208 216 
f 204 214 217 
f 206 213 218 
f 213 209 218 
f 210 207 219 
f 211 210 219 
f 208 211 220 
f 201 214 220 
f 214 208 220 
f 211 219 220 
f 219 201 220 
f 203 212 221 
f 212 204 221 
f 215 203 221 
f 209 210 222 
f 210 206 222 
f 218 209 222 
f 206 218 222 
f 214 201 223 
f 207 217 223 
f 217 214 223 
f 219 207 223 
f 201 219 223 
f 202 203 224 
f 213 202 224 
f 209 213 224 
f 203 215 224 
f 215 209 224 
f 207 215 225 
f 217 207 225 
f 204 217 225 
f 221 204 225 
o convex_7
v -0.209774 0.035959 -0.291567
v -0.292775 -0.110289 -0.354778
v -0.284868 -0.110289 -0.354778
v -0.292775 -0.070739 -0.279692
v -0.205816 -0.023337 -0.354778
v -0.209774 -0.015427 -0.366652
v -0.205816 0.028049 -0.279692
v -0.288817 -0.070739 -0.315281
v -0.288817 -0.074694 -0.283650
v -0.253237 -0.007532 -0.283650
v -0.273002 -0.082619 -0.362694
v -0.245354 -0.027292 -0.331063
v -0.205816 -0.027292 -0.366652
v -0.292775 -0.058903 -0.279692
v -0.288817 -0.106334 -0.335029
v -0.205816 0.039914 -0.279692
f 235 239 241 
f 232 229 234 
f 230 232 234 
f 228 227 236 
f 227 233 236 
f 226 231 237 
f 235 226 237 
f 233 235 237 
f 236 233 237 
f 231 236 237 
f 230 228 238 
f 232 230 238 
f 228 236 238 
f 236 231 238 
f 227 229 239 
f 229 232 239 
f 233 227 239 
f 235 233 239 
f 227 228 240 
f 229 227 240 
f 228 230 240 
f 234 229 240 
f 230 234 240 
f 231 226 241 
f 226 235 241 
f 238 231 241 
f 232 238 241 
f 239 232 241 
o convex_8
v -0.284868 -0.043088 -0.275726
v -0.205816 0.079441 -0.180874
v -0.209774 0.079441 -0.180874
v -0.288817 -0.031220 -0.180874
v -0.205816 0.031984 -0.271780
v -0.292775 -0.015416 -0.184830
v -0.213723 0.051768 -0.255965
v -0.288817 -0.066810 -0.271780
v -0.205816 0.071524 -0.180874
v -0.241396 0.035949 -0.220417
v -0.205816 0.039886 -0.279692
v -0.292775 -0.066810 -0.279692
v -0.241396 0.008277 -0.279692
v -0.221640 0.067573 -0.192743
f 248 251 255 
f 243 244 245 
f 245 244 247 
f 244 243 248 
f 246 245 249 
f 243 245 250 
f 245 246 250 
f 246 243 250 
f 242 247 251 
f 243 246 252 
f 248 243 252 
f 247 242 253 
f 245 247 253 
f 246 249 253 
f 249 245 253 
f 252 246 253 
f 252 253 254 
f 242 251 254 
f 251 248 254 
f 248 252 254 
f 253 242 254 
f 247 244 255 
f 244 248 255 
f 251 247 255 
o convex_9
v -0.205816 0.012259 -0.335023
v -0.114903 0.122921 -0.267834
v -0.118863 0.122921 -0.267834
v -0.114903 0.051757 -0.370605
v -0.201856 0.035966 -0.271788
v -0.114903 0.043869 -0.362698
v -0.201856 -0.023330 -0.362698
v -0.162335 0.087332 -0.279705
v -0.114903 0.111053 -0.267834
v -0.150490 0.032030 -0.370605
v -0.205816 0.051757 -0.267834
v -0.130726 0.091283 -0.311332
v -0.205816 -0.015413 -0.366651
v -0.162335 0.059659 -0.323163
v -0.118863 0.075464 -0.342930
f 265 267 270 
f 259 257 261 
f 261 260 262 
f 259 261 262 
f 257 258 264 
f 261 257 264 
f 260 261 264 
f 258 263 266 
f 263 256 266 
f 264 258 266 
f 260 264 266 
f 263 258 267 
f 259 262 268 
f 262 260 268 
f 265 259 268 
f 256 265 268 
f 266 256 268 
f 260 266 268 
f 256 263 269 
f 265 256 269 
f 263 267 269 
f 267 265 269 
f 258 257 270 
f 257 259 270 
f 259 265 270 
f 267 258 270 
o convex_10
v -0.126775 0.142669 -0.216455
v -0.205816 0.043866 -0.267834
v -0.205816 0.043866 -0.259926
v -0.114903 0.115000 -0.259926
v -0.201856 0.075490 -0.180874
v -0.114903 0.146634 -0.180874
v -0.182091 0.107091 -0.192749
v -0.170229 0.087353 -0.267834
v -0.205816 0.079455 -0.208556
v -0.114903 0.122919 -0.267834
v -0.122814 0.154543 -0.180874
v -0.201856 0.043866 -0.259926
v -0.205816 0.083409 -0.180874
v -0.205816 0.055740 -0.263867
v -0.170229 0.107091 -0.224354
v -0.118863 0.134760 -0.248069
f 285 271 286 
f 275 274 276 
f 272 273 279 
f 274 272 280 
f 276 274 280 
f 272 278 280 
f 275 276 281 
f 271 277 281 
f 273 272 282 
f 272 274 282 
f 274 275 282 
f 275 273 282 
f 273 275 283 
f 279 273 283 
f 277 279 283 
f 275 281 283 
f 281 277 283 
f 278 272 284 
f 272 279 284 
f 284 279 285 
f 277 271 285 
f 279 277 285 
f 278 284 285 
f 278 285 286 
f 276 280 286 
f 280 278 286 
f 281 276 286 
f 271 281 286 
o convex_11
v -0.324384 -0.054938 -0.086026
v -0.213734 -0.035181 -0.042529
v -0.213734 -0.054938 -0.042529
v -0.257221 0.016188 -0.180874
v -0.273032 0.016188 -0.042529
v -0.344141 -0.035181 -0.180874
v -0.261167 -0.070748 -0.113652
v -0.340195 0.012233 -0.172966
v -0.284857 -0.074703 -0.042529
v -0.324384 -0.027289 -0.070209
v -0.292762 -0.039136 -0.180874
v -0.304614 -0.066803 -0.129482
v -0.229545 -0.007533 -0.042529
v -0.245356 -0.050992 -0.121574
v -0.245356 -0.078658 -0.074177
v -0.336236 0.016188 -0.180874
v -0.304614 -0.054938 -0.042529
v -0.336236 -0.011479 -0.109752
v -0.344141 -0.031235 -0.137377
v -0.308573 -0.047037 -0.180874
v -0.284857 -0.078658 -0.086026
v -0.229545 -0.074703 -0.042529
v -0.300668 -0.015434 -0.042529
v -0.348100 0.004323 -0.176920
v -0.312519 -0.066803 -0.089967
v -0.265126 -0.043091 -0.153194
v -0.237451 -0.066803 -0.089967
v -0.324384 -0.011479 -0.082058
v -0.336236 -0.043091 -0.180874
v -0.332289 -0.043091 -0.089967
v -0.213734 -0.054938 -0.046483
v -0.221640 -0.015434 -0.046483
f 290 299 318 
f 289 288 291 
f 289 291 295 
f 292 290 297 
f 290 291 299 
f 291 288 299 
f 291 290 302 
f 290 292 302 
f 294 291 302 
f 287 295 303 
f 295 291 303 
f 292 287 305 
f 292 297 306 
f 297 293 306 
f 293 298 306 
f 298 293 307 
f 301 295 307 
f 293 301 307 
f 289 295 308 
f 295 301 308 
f 303 291 309 
f 296 303 309 
f 302 292 310 
f 294 302 310 
f 304 294 310 
f 305 304 310 
f 292 305 310 
f 295 287 311 
f 307 295 311 
f 298 307 311 
f 297 290 312 
f 293 297 312 
f 290 300 312 
f 300 293 312 
f 293 300 313 
f 301 293 313 
f 308 301 313 
f 291 294 314 
f 294 304 314 
f 304 296 314 
f 309 291 314 
f 296 309 314 
f 287 292 315 
f 292 306 315 
f 306 298 315 
f 311 287 315 
f 298 311 315 
f 287 303 316 
f 303 296 316 
f 296 304 316 
f 304 305 316 
f 305 287 316 
f 288 289 317 
f 290 288 317 
f 300 290 317 
f 289 308 317 
f 313 300 317 
f 308 313 317 
f 288 290 318 
f 299 288 318 
o convex_12
v -0.162331 0.134768 -0.141345
v -0.114903 0.158489 -0.042529
v -0.114903 0.150577 -0.042529
v -0.186052 0.111068 -0.042529
v -0.182096 0.095252 -0.180874
v -0.114903 0.150577 -0.180874
v -0.118859 0.166401 -0.089967
v -0.182096 0.103163 -0.042529
v -0.186052 0.107112 -0.176920
v -0.118859 0.158489 -0.180874
v -0.174185 0.126884 -0.082058
v -0.142573 0.146636 -0.046483
v -0.186052 0.115017 -0.133437
v -0.130726 0.158489 -0.133437
f 329 325 332 
f 321 320 322 
f 321 323 324 
f 320 321 324 
f 320 324 325 
f 321 322 326 
f 322 323 326 
f 323 321 326 
f 323 322 327 
f 324 323 328 
f 325 324 328 
f 327 319 328 
f 323 327 328 
f 322 320 330 
f 320 325 330 
f 325 329 330 
f 329 322 330 
f 319 327 331 
f 327 322 331 
f 329 319 331 
f 322 329 331 
f 328 319 332 
f 325 328 332 
f 319 329 332 
o convex_13
v 0.035300 0.115010 -0.481289
v -0.075376 0.063632 -0.449672
v -0.071422 0.055737 -0.453628
v -0.039799 0.142663 -0.544514
v -0.000278 0.075508 -0.540559
v -0.027936 0.138722 -0.445706
v 0.007631 0.039920 -0.445706
v 0.019483 0.158494 -0.544514
v -0.047707 0.091325 -0.544514
v -0.039799 0.024103 -0.445706
v 0.027391 0.118965 -0.445706
v 0.031346 0.107102 -0.544514
v -0.063502 0.111043 -0.445706
v -0.016105 0.162448 -0.528701
v -0.000278 0.138722 -0.445706
v 0.027391 0.071541 -0.445706
v -0.051640 0.122919 -0.536603
v -0.047707 0.028057 -0.453628
v -0.020038 0.024103 -0.449672
v -0.020038 0.067586 -0.532657
v 0.035300 0.134768 -0.544514
v 0.007631 0.063632 -0.512887
v -0.055605 0.122919 -0.445706
v 0.007631 0.162448 -0.524745
v 0.027391 0.138722 -0.489201
v -0.075376 0.079449 -0.445706
v 0.019483 0.063632 -0.481289
v -0.023971 0.158494 -0.544514
v -0.059559 0.035966 -0.453628
v -0.051640 0.103148 -0.544514
f 358 349 362 
f 336 340 341 
f 339 338 342 
f 338 339 343 
f 337 341 344 
f 341 340 344 
f 342 338 345 
f 338 343 347 
f 333 343 348 
f 343 339 348 
f 344 333 348 
f 345 336 349 
f 342 350 351 
f 339 342 351 
f 341 337 352 
f 350 341 352 
f 351 350 352 
f 337 351 352 
f 333 344 353 
f 344 340 353 
f 337 344 354 
f 351 337 354 
f 339 351 354 
f 336 345 355 
f 345 338 355 
f 338 346 355 
f 340 346 356 
f 346 338 356 
f 338 347 356 
f 356 347 357 
f 343 333 357 
f 347 343 357 
f 333 353 357 
f 353 340 357 
f 340 356 357 
f 334 342 358 
f 342 345 358 
f 345 349 358 
f 348 339 359 
f 344 348 359 
f 339 354 359 
f 354 344 359 
f 340 336 360 
f 346 340 360 
f 336 355 360 
f 355 346 360 
f 334 335 361 
f 335 341 361 
f 342 334 361 
f 341 350 361 
f 350 342 361 
f 335 334 362 
f 341 335 362 
f 336 341 362 
f 349 336 362 
f 334 358 362 
o convex_14
v 0.118307 0.115026 0.028618
v 0.023444 0.186156 -0.042528
v 0.027402 0.182200 -0.030665
v -0.004227 0.150583 0.024664
v 0.114349 0.134782 -0.046482
v -0.004227 0.182200 -0.046482
v 0.019498 0.158487 0.028618
v 0.086678 0.162443 -0.034611
v 0.114349 0.103165 0.028618
v 0.066911 0.142687 0.032572
v -0.004227 0.158487 0.032572
v 0.110391 0.150583 -0.046482
v -0.004227 0.178252 -0.010894
v 0.047169 0.170348 -0.010894
v 0.118307 0.126878 0.008855
v 0.118307 0.103165 0.032572
v 0.055073 0.178252 -0.046482
f 376 370 379 
f 367 366 368 
f 366 367 371 
f 368 366 373 
f 372 369 373 
f 367 368 374 
f 365 364 375 
f 364 368 375 
f 369 365 375 
f 368 373 375 
f 373 369 375 
f 365 369 376 
f 369 372 376 
f 372 370 376 
f 370 372 377 
f 372 363 377 
f 367 374 377 
f 374 370 377 
f 371 367 378 
f 366 371 378 
f 363 372 378 
f 372 373 378 
f 373 366 378 
f 377 363 378 
f 367 377 378 
f 364 365 379 
f 368 364 379 
f 374 368 379 
f 370 374 379 
f 365 376 379 
o convex_15
v -0.292763 -0.058904 0.127442
v -0.186052 0.016197 0.147197
v -0.186052 0.016197 0.135345
v -0.273003 -0.082618 0.163004
v -0.288820 -0.066801 0.115579
v -0.217686 0.016197 0.115579
v -0.253231 -0.047036 0.166963
v -0.186052 0.004330 0.147197
v -0.292763 -0.082618 0.163004
v -0.205834 0.012238 0.115579
v -0.233492 0.004330 0.119539
v -0.190006 0.012238 0.155100
v -0.269059 -0.078658 0.170918
v -0.296728 -0.058904 0.115579
f 390 385 393 
f 381 382 385 
f 382 381 387 
f 383 384 387 
f 384 383 388 
f 385 382 389 
f 384 385 389 
f 382 387 389 
f 387 384 389 
f 380 388 390 
f 388 386 390 
f 381 385 391 
f 387 381 391 
f 385 390 391 
f 390 386 391 
f 383 387 392 
f 388 383 392 
f 386 388 392 
f 391 386 392 
f 387 391 392 
f 385 384 393 
f 388 380 393 
f 384 388 393 
f 380 390 393 
o convex_16
v -0.229532 0.071518 -0.050454
v -0.261146 0.016207 -0.180874
v -0.253238 0.016207 -0.180874
v -0.190019 0.103143 -0.180874
v -0.186052 0.095241 -0.026718
v -0.261137 0.016207 -0.026718
v -0.273012 0.020162 -0.121572
v -0.186061 0.091286 -0.180874
v -0.190019 0.111063 -0.137386
v -0.265104 0.028064 -0.026718
v -0.190010 0.107098 -0.030687
v -0.245330 0.043876 -0.180874
v -0.233473 0.067572 -0.125540
v -0.265104 0.032019 -0.070207
v -0.273012 0.016207 -0.038594
v -0.186061 0.111063 -0.137386
f 402 404 409 
f 396 395 397 
f 396 398 399 
f 395 396 399 
f 396 397 401 
f 398 396 401 
f 399 398 403 
f 402 394 404 
f 394 403 404 
f 403 398 404 
f 397 395 405 
f 395 400 405 
f 394 402 406 
f 402 397 406 
f 397 405 406 
f 405 400 406 
f 403 394 407 
f 394 406 407 
f 406 400 407 
f 395 399 408 
f 400 395 408 
f 399 403 408 
f 403 407 408 
f 407 400 408 
f 401 397 409 
f 398 401 409 
f 397 402 409 
f 404 398 409 
o convex_17
v -0.012135 0.198022 -0.141338
v 0.015536 0.186165 -0.046482
v 0.015536 0.182213 -0.046482
v -0.051660 0.178259 -0.046482
v 0.015536 0.190116 -0.153205
v -0.051660 0.186165 -0.153205
v -0.051660 0.190116 -0.066257
v 0.011583 0.198022 -0.109716
v -0.031894 0.190116 -0.050441
v -0.047707 0.194068 -0.093920
v 0.015536 0.182213 -0.062298
v -0.039800 0.194068 -0.153205
f 415 419 421 
f 412 411 413 
f 411 412 414 
f 415 413 416 
f 414 410 417 
f 411 414 417 
f 413 411 418 
f 416 413 418 
f 411 417 418 
f 415 416 419 
f 417 410 419 
f 416 418 419 
f 418 417 419 
f 412 413 420 
f 414 412 420 
f 413 415 420 
f 415 414 420 
f 410 414 421 
f 414 415 421 
f 419 410 421 
o convex_18
v -0.229535 0.055714 0.020751
v -0.296724 -0.066801 0.111624
v -0.292768 -0.066801 0.111624
v -0.261151 0.016186 -0.026718
v -0.225579 0.016186 0.079991
v -0.296724 -0.027274 0.044431
v -0.253261 -0.011468 0.115579
v -0.229535 0.063630 -0.026718
v -0.261151 0.032005 -0.022749
v -0.225579 0.055714 -0.026718
v -0.249306 -0.023329 0.111624
v -0.296724 -0.043080 0.087889
v -0.225579 0.020144 0.099756
v -0.296724 -0.039122 0.040489
v -0.261151 0.016186 0.040489
v -0.269056 0.020144 -0.026718
v -0.229535 0.043853 0.052314
f 436 433 438 
f 423 424 428 
f 422 429 430 
f 429 422 431 
f 425 429 431 
f 424 425 432 
f 428 424 432 
f 431 426 432 
f 425 431 432 
f 427 423 433 
f 423 428 433 
f 431 422 434 
f 426 431 434 
f 428 432 434 
f 432 426 434 
f 424 423 435 
f 425 424 435 
f 423 427 435 
f 422 430 436 
f 430 427 436 
f 427 433 436 
f 429 425 437 
f 427 430 437 
f 430 429 437 
f 425 435 437 
f 435 427 437 
f 433 428 438 
f 434 422 438 
f 428 434 438 
f 422 436 438 
o convex_19
v -0.190006 0.118968 -0.018799
v -0.225579 0.016197 0.087896
v -0.221625 0.016197 0.087896
v -0.221625 0.059696 -0.026718
v -0.186052 0.047825 0.028634
v -0.186052 0.020151 0.143248
v -0.221625 0.103144 -0.006953
v -0.186052 0.071516 -0.022759
v -0.186052 0.083377 0.056319
v -0.217671 0.020151 0.115564
v -0.205816 0.118968 -0.026718
v -0.225579 0.091284 -0.018799
v -0.186052 0.016197 0.131369
v -0.186052 0.103144 -0.026718
v -0.190006 0.083377 0.056319
v -0.225579 0.020151 0.103718
v -0.225579 0.059696 -0.026718
v -0.205816 0.118968 -0.014856
f 445 453 456 
f 441 440 442 
f 441 442 443 
f 443 442 446 
f 444 443 446 
f 444 446 447 
f 445 449 450 
f 440 441 451 
f 441 443 451 
f 443 444 451 
f 448 440 451 
f 444 448 451 
f 446 442 452 
f 447 446 452 
f 439 447 452 
f 442 449 452 
f 449 439 452 
f 444 447 453 
f 445 448 453 
f 448 444 453 
f 448 445 454 
f 440 448 454 
f 450 440 454 
f 445 450 454 
f 442 440 455 
f 449 442 455 
f 440 450 455 
f 450 449 455 
f 447 439 456 
f 449 445 456 
f 439 449 456 
f 453 447 456 
o convex_20
v -0.182093 0.000387 0.068125
v -0.186052 -0.094479 0.032591
v -0.186052 -0.090523 0.020717
v -0.150481 -0.090523 0.072087
v -0.186052 -0.066797 0.115570
v -0.150481 -0.015427 0.076049
v -0.186052 -0.031241 -0.002993
v -0.150481 -0.031241 0.115570
v -0.158389 -0.062851 0.032591
v -0.186052 -0.019383 0.111621
v -0.162340 -0.086567 0.103721
v -0.186052 -0.094479 0.083948
v -0.186052 -0.003569 0.024679
v -0.158389 -0.007525 0.099759
v -0.178141 -0.074700 0.004907
v -0.150481 -0.043099 0.048389
v -0.178141 -0.027286 0.004907
v -0.150481 -0.066797 0.111621
v -0.170237 -0.027286 0.119532
v -0.182093 -0.058895 -0.006955
f 463 473 476 
f 458 459 460 
f 459 458 461 
f 459 461 463 
f 460 462 464 
f 463 461 466 
f 458 460 468 
f 461 458 468 
f 460 467 468 
f 467 461 468 
f 466 457 469 
f 463 466 469 
f 464 462 470 
f 457 466 470 
f 469 457 470 
f 462 469 470 
f 460 459 471 
f 465 460 471 
f 462 460 472 
f 460 465 472 
f 469 462 473 
f 463 469 473 
f 462 472 473 
f 460 464 474 
f 467 460 474 
f 461 467 474 
f 466 461 475 
f 464 470 475 
f 470 466 475 
f 461 474 475 
f 474 464 475 
f 459 463 476 
f 471 459 476 
f 465 471 476 
f 472 465 476 
f 473 472 476 
o convex_21
v -0.138608 -0.102360 0.060198
v 0.118307 -0.051004 0.166921
v 0.118307 -0.082595 0.166921
v 0.086630 -0.035188 -0.097867
v -0.083253 0.063617 0.052286
v -0.130716 -0.035188 0.174861
v -0.004218 0.071535 -0.097867
v 0.086656 -0.141911 0.107668
v -0.075360 -0.066779 -0.097867
v 0.094576 0.031963 0.083933
v -0.110931 0.008270 -0.082016
v -0.027949 -0.106309 0.186728
v 0.011542 -0.007567 0.186728
v -0.138608 0.020138 0.115552
v 0.047086 -0.078625 -0.097867
v -0.142555 -0.110279 0.127391
v 0.118281 -0.098411 0.024679
v 0.118281 0.016147 0.044431
v -0.067440 -0.122125 0.052286
v -0.150474 -0.054932 0.032591
v 0.051059 0.055677 0.060226
v 0.043140 0.055677 -0.097867
v -0.075360 0.043852 -0.097867
v -0.071387 0.035933 0.123491
v -0.138608 0.024087 0.060198
v 0.114334 -0.130002 0.135303
v 0.082684 -0.133993 0.056214
v 0.094549 -0.011495 -0.089928
v -0.146501 -0.082595 0.155082
v -0.091146 -0.126074 0.119507
v -0.110931 -0.031281 -0.085972
v 0.011542 -0.110258 -0.014823
v 0.066898 -0.090472 0.182745
v 0.118307 -0.007546 0.131375
v -0.023977 0.067545 0.048331
v -0.150474 -0.007546 0.056270
v 0.082684 0.047801 0.040503
v -0.122796 -0.007546 0.162966
v 0.035273 0.035933 0.111624
v 0.118281 -0.126074 0.068082
v 0.047139 -0.133972 0.143214
v -0.087199 -0.066779 0.186728
v 0.043140 -0.137921 0.068082
v 0.118281 -0.035188 -0.002983
v -0.103011 -0.122125 0.076021
v -0.047682 -0.074676 -0.097867
v -0.150474 -0.090514 0.060198
v -0.047682 0.063617 -0.097867
v -0.114877 0.047801 0.052286
v -0.027949 -0.007567 0.186728
v 0.086630 -0.058860 -0.085972
v 0.086630 0.012219 -0.085972
v 0.015488 -0.106309 0.186728
v -0.142555 -0.015444 0.151126
v -0.099065 -0.114207 0.151098
v 0.051059 0.059647 0.036519
v -0.023977 0.059647 0.076021
v -0.130716 -0.090514 0.162966
v -0.095118 -0.046993 -0.097867
v -0.150474 -0.090514 0.139286
v 0.098496 -0.039137 -0.078088
v 0.110361 0.028035 0.048331
v 0.094576 -0.118176 0.159010
v -0.099065 0.028035 -0.082016
f 501 525 540 
f 483 480 485 
f 485 480 491 
f 480 483 498 
f 483 485 499 
f 481 490 500 
f 480 498 504 
f 496 487 507 
f 491 503 508 
f 479 478 509 
f 478 489 509 
f 478 479 510 
f 489 478 510 
f 479 493 510 
f 483 481 511 
f 487 496 512 
f 490 501 512 
f 501 487 512 
f 497 486 513 
f 500 490 514 
f 486 497 515 
f 500 489 515 
f 489 510 515 
f 510 486 515 
f 493 479 516 
f 479 502 516 
f 502 484 516 
f 503 491 516 
f 484 503 516 
f 484 502 517 
f 506 484 517 
f 488 489 518 
f 503 484 519 
f 484 506 519 
f 495 508 519 
f 508 503 519 
f 504 494 520 
f 510 493 520 
f 494 510 520 
f 477 485 521 
f 492 477 521 
f 506 492 521 
f 519 506 521 
f 495 519 521 
f 485 491 522 
f 491 508 522 
f 508 495 522 
f 521 485 522 
f 495 521 522 
f 485 477 523 
f 477 492 523 
f 496 507 523 
f 512 496 523 
f 481 483 524 
f 483 499 524 
f 524 499 525 
f 490 481 525 
f 501 490 525 
f 481 524 525 
f 489 500 526 
f 514 482 526 
f 500 514 526 
f 482 518 526 
f 518 489 526 
f 491 480 527 
f 493 516 527 
f 516 491 527 
f 494 504 528 
f 504 498 528 
f 489 488 529 
f 509 489 529 
f 488 517 529 
f 505 482 530 
f 490 512 530 
f 482 514 530 
f 514 490 530 
f 492 506 531 
f 517 488 531 
f 506 517 531 
f 498 483 532 
f 483 511 532 
f 511 497 532 
f 497 513 532 
f 513 498 532 
f 481 500 533 
f 511 481 533 
f 497 511 533 
f 515 497 533 
f 500 515 533 
f 482 505 534 
f 505 492 534 
f 518 482 534 
f 488 518 534 
f 531 488 534 
f 492 531 534 
f 499 485 535 
f 487 499 535 
f 507 487 535 
f 485 523 535 
f 523 507 535 
f 492 505 536 
f 523 492 536 
f 512 523 536 
f 505 530 536 
f 530 512 536 
f 480 504 537 
f 520 493 537 
f 504 520 537 
f 527 480 537 
f 493 527 537 
f 486 510 538 
f 510 494 538 
f 513 486 538 
f 498 513 538 
f 494 528 538 
f 528 498 538 
f 502 479 539 
f 479 509 539 
f 517 502 539 
f 509 529 539 
f 529 517 539 
f 499 487 540 
f 487 501 540 
f 525 499 540 
o convex_22
v -0.170244 0.107108 0.123469
v -0.154437 0.032008 -0.014844
v -0.150481 0.032008 -0.014844
v -0.158389 0.130826 -0.042513
v -0.186052 0.067585 -0.022756
v -0.186052 0.055736 0.083955
v -0.150481 0.075488 0.083955
v -0.186049 0.111055 -0.042513
v -0.182093 0.103152 0.123469
v -0.154437 0.059682 0.083955
v -0.182093 0.039930 0.040462
v -0.150481 0.091293 0.076043
v -0.150481 0.087337 -0.018792
v -0.166292 0.091293 0.123469
v -0.162340 0.103152 0.119504
v -0.162340 0.039930 0.044426
v -0.186052 0.043877 0.024686
v -0.162340 0.130826 -0.038549
v -0.186049 0.099206 0.064183
f 549 548 559 
f 543 542 548 
f 544 543 548 
f 542 545 548 
f 545 546 548 
f 543 547 550 
f 547 543 552 
f 543 544 553 
f 552 543 553 
f 544 552 553 
f 549 546 554 
f 541 549 554 
f 546 550 554 
f 550 547 554 
f 544 541 555 
f 552 544 555 
f 547 552 555 
f 541 554 555 
f 554 547 555 
f 542 543 556 
f 543 550 556 
f 550 546 556 
f 551 542 556 
f 546 551 556 
f 545 542 557 
f 546 545 557 
f 542 551 557 
f 551 546 557 
f 541 544 558 
f 544 548 558 
f 548 549 558 
f 549 541 558 
f 548 546 559 
f 546 549 559 
o convex_23
v -0.126768 0.150589 -0.022758
v -0.158379 0.091299 0.048378
v -0.154425 0.091299 0.048378
v -0.118861 0.099205 0.091862
v -0.118861 0.146629 -0.042529
v -0.114907 0.091299 0.083953
v -0.154425 0.122930 -0.042529
v -0.158379 0.111065 0.032548
v -0.114907 0.142683 0.012817
v -0.158379 0.130817 -0.042529
v -0.114907 0.158495 -0.042529
v -0.158379 0.095252 0.064168
f 568 567 571 
f 561 562 565 
f 562 561 566 
f 565 562 566 
f 564 565 566 
f 563 565 568 
f 560 567 568 
f 566 561 569 
f 564 566 569 
f 561 567 569 
f 567 560 569 
f 565 564 570 
f 560 568 570 
f 568 565 570 
f 569 560 570 
f 564 569 570 
f 561 565 571 
f 565 563 571 
f 567 561 571 
f 563 568 571 
o convex_24
v 0.142027 0.114998 -0.259934
v 0.169687 0.000413 -0.386416
v 0.177598 0.000413 -0.386416
v 0.173640 0.083379 -0.232260
v 0.118307 0.039923 -0.374540
v 0.118307 0.126861 -0.232260
v 0.122265 0.091284 -0.327113
v 0.177598 0.067583 -0.299469
v 0.157825 0.024114 -0.386416
v 0.177598 0.091284 -0.232260
v 0.118307 0.134766 -0.244135
v 0.118307 0.047828 -0.382447
v 0.177598 0.035977 -0.350819
v 0.169687 0.000413 -0.382447
v 0.157825 0.111052 -0.236228
v 0.153878 0.075474 -0.319206
f 584 580 587 
f 576 575 577 
f 574 573 580 
f 575 574 581 
f 577 575 581 
f 574 579 581 
f 576 577 582 
f 572 578 582 
f 573 576 583 
f 580 573 583 
f 578 580 583 
f 576 582 583 
f 582 578 583 
f 579 574 584 
f 574 580 584 
f 573 574 585 
f 574 575 585 
f 575 576 585 
f 576 573 585 
f 579 572 586 
f 577 581 586 
f 581 579 586 
f 582 577 586 
f 572 582 586 
f 578 572 587 
f 572 579 587 
f 580 578 587 
f 579 584 587 
o convex_25
v 0.311990 -0.074704 -0.398264
v 0.323844 -0.011472 -0.327132
v 0.304092 -0.011472 -0.327132
v 0.308039 -0.098431 -0.327132
v 0.288274 -0.003570 -0.390356
v 0.331751 -0.035200 -0.362710
v 0.292230 -0.090509 -0.362710
v 0.327795 -0.094475 -0.327132
v 0.311990 -0.027287 -0.402217
v 0.300137 -0.070748 -0.402217
v 0.304092 0.000387 -0.382456
v 0.304092 -0.094475 -0.378502
v 0.327795 -0.070748 -0.374548
v 0.335706 -0.050996 -0.327132
v 0.288274 -0.007526 -0.366656
v 0.304092 -0.094475 -0.327132
v 0.292230 -0.090509 -0.378502
v 0.296185 -0.039146 -0.406171
f 597 604 605 
f 589 590 591 
f 589 591 595 
f 590 589 598 
f 589 593 598 
f 596 592 598 
f 593 596 598 
f 595 591 599 
f 597 588 599 
f 588 596 600 
f 596 593 600 
f 595 599 600 
f 599 588 600 
f 593 589 601 
f 589 595 601 
f 600 593 601 
f 595 600 601 
f 590 598 602 
f 598 592 602 
f 591 590 603 
f 594 591 603 
f 590 602 603 
f 602 594 603 
f 591 594 604 
f 599 591 604 
f 597 599 604 
f 594 602 604 
f 602 592 604 
f 596 588 605 
f 592 596 605 
f 588 597 605 
f 604 592 605 
o convex_26
v 0.304085 -0.090525 -0.327125
v 0.311978 -0.027284 -0.232260
v 0.292230 -0.027284 -0.232260
v 0.323839 -0.011479 -0.327125
v 0.327801 -0.090525 -0.240171
v 0.272463 -0.039143 -0.263897
v 0.284330 -0.086559 -0.232260
v 0.331744 -0.086559 -0.327125
v 0.335706 -0.035196 -0.287585
v 0.280375 -0.011479 -0.275746
v 0.296192 -0.102384 -0.287585
v 0.304085 -0.015425 -0.327125
v 0.308034 -0.007522 -0.252039
v 0.327801 -0.047055 -0.232260
v 0.315940 -0.098428 -0.232260
v 0.319896 -0.102384 -0.311311
v 0.288280 -0.003566 -0.255985
v 0.276425 -0.027284 -0.244127
v 0.335706 -0.074710 -0.279692
v 0.335706 -0.043109 -0.327125
v 0.323839 -0.019381 -0.259932
v 0.272463 -0.027284 -0.267843
v 0.300135 -0.086559 -0.323160
v 0.331744 -0.070754 -0.236215
v 0.296192 -0.102384 -0.255985
f 621 620 630 
f 607 608 612 
f 606 609 613 
f 612 611 616 
f 609 606 617 
f 607 612 619 
f 619 612 620 
f 606 613 621 
f 613 610 621 
f 616 606 621 
f 610 620 621 
f 608 607 622 
f 609 617 622 
f 617 615 622 
f 607 618 622 
f 618 609 622 
f 612 608 623 
f 611 612 623 
f 608 622 623 
f 610 613 624 
f 613 609 625 
f 609 614 625 
f 624 613 625 
f 614 624 625 
f 614 609 626 
f 618 607 626 
f 609 618 626 
f 607 619 626 
f 619 614 626 
f 615 617 627 
f 622 615 627 
f 611 623 627 
f 623 622 627 
f 606 616 628 
f 616 611 628 
f 617 606 628 
f 611 627 628 
f 627 617 628 
f 614 619 629 
f 620 610 629 
f 619 620 629 
f 610 624 629 
f 624 614 629 
f 612 616 630 
f 620 612 630 
f 616 621 630 
o convex_27
v -0.095137 0.178253 -0.133430
v -0.051660 0.182205 -0.046482
v -0.051660 0.178253 -0.046482
v -0.114903 0.154543 -0.046482
v -0.051660 0.182205 -0.153205
v -0.106998 0.158498 -0.153205
v -0.063521 0.190117 -0.089971
v -0.114903 0.166406 -0.066257
v -0.055616 0.190117 -0.153205
v -0.114903 0.166406 -0.149246
v -0.091175 0.174304 -0.046482
f 637 638 641 
f 633 632 634 
f 632 633 635 
f 635 633 636 
f 633 634 636 
f 637 631 638 
f 632 635 639 
f 635 636 639 
f 637 632 639 
f 631 637 639 
f 636 634 640 
f 634 638 640 
f 638 631 640 
f 639 636 640 
f 631 639 640 
f 634 632 641 
f 632 637 641 
f 638 634 641 
o convex_28
v -0.182093 0.051768 0.083958
v -0.178141 0.012254 0.155107
v -0.186052 0.012254 0.155107
v -0.162340 0.087333 0.123481
v -0.150481 0.071529 0.083958
v -0.150481 0.028066 0.151151
v -0.178141 0.091291 0.083958
v -0.150481 0.083384 0.123481
v -0.182093 0.008305 0.143246
v -0.154437 0.059674 0.083958
v -0.174189 0.079427 0.123481
v -0.186052 0.059674 0.091869
f 644 652 653 
f 644 643 647 
f 645 644 647 
f 646 642 648 
f 646 648 649 
f 645 647 649 
f 647 646 649 
f 648 645 649 
f 644 642 650 
f 643 644 650 
f 647 643 650 
f 647 650 651 
f 642 646 651 
f 646 647 651 
f 650 642 651 
f 644 645 652 
f 645 648 652 
f 652 648 653 
f 642 644 653 
f 648 642 653 
o convex_29
v -0.142567 0.075485 -0.026713
v -0.114907 0.028059 0.028614
v -0.118862 0.028059 0.028614
v -0.122814 0.024103 -0.022759
v -0.150474 0.032021 0.000951
v -0.150474 0.079429 0.024661
v -0.118862 0.063618 -0.022759
v -0.150474 0.032021 -0.022759
v -0.150474 0.087346 -0.018806
v -0.150474 0.047825 0.024661
v -0.114907 0.039914 -0.026713
f 657 661 664 
f 655 656 657 
f 657 656 658 
f 656 655 659 
f 659 655 660 
f 657 658 661 
f 658 659 661 
f 661 659 662 
f 660 654 662 
f 659 660 662 
f 654 661 662 
f 658 656 663 
f 656 659 663 
f 659 658 663 
f 655 657 664 
f 654 660 664 
f 660 655 664 
f 661 654 664 
o convex_30
v -0.134663 0.075487 0.115559
v -0.122814 0.024103 0.028620
v -0.114907 0.024103 0.028620
v -0.146519 0.032009 0.147201
v -0.150474 0.091299 0.064208
v -0.114907 0.091299 0.103720
v -0.114907 0.024103 0.119529
v -0.114907 0.059674 0.143243
v -0.134663 0.024103 0.056292
v -0.150474 0.039915 0.147201
v -0.114907 0.091299 0.091845
v -0.150474 0.091299 0.080017
v -0.114907 0.032009 0.028620
v -0.150474 0.032009 0.143243
f 668 674 678 
f 666 667 671 
f 667 670 671 
f 671 670 672 
f 670 665 672 
f 668 671 672 
f 669 666 673 
f 666 671 673 
f 672 665 674 
f 668 672 674 
f 670 667 675 
f 669 670 675 
f 665 670 676 
f 670 669 676 
f 674 665 676 
f 669 674 676 
f 667 666 677 
f 666 669 677 
f 675 667 677 
f 669 675 677 
f 671 668 678 
f 669 673 678 
f 673 671 678 
f 674 669 678 
o convex_31
v -0.063513 0.051766 -0.228340
v -0.063513 -0.070762 -0.287616
v -0.059564 -0.070762 -0.287616
v -0.000274 0.095252 -0.445706
v -0.114903 0.051766 -0.370575
v -0.000274 -0.062848 -0.220446
v -0.000274 0.095252 -0.267857
v -0.016095 0.024075 -0.445706
v -0.114903 0.095252 -0.303427
v -0.103032 -0.031225 -0.220446
v -0.071401 0.095252 -0.445706
v -0.067463 0.028024 -0.433820
v -0.000274 -0.054934 -0.307396
v -0.095133 -0.050986 -0.287616
v -0.020045 0.032005 -0.220446
v -0.099071 0.016194 -0.220446
v -0.110942 -0.023327 -0.248099
v -0.000274 0.032005 -0.445706
v -0.079323 -0.066797 -0.259963
v -0.047715 0.024075 -0.445706
v -0.075362 0.055715 -0.445706
v -0.075362 -0.066797 -0.291585
v -0.043765 -0.031225 -0.358711
v -0.000274 -0.003534 -0.224393
v -0.071401 0.043852 -0.220446
v -0.106993 0.000398 -0.224393
v -0.083273 0.004363 -0.382439
v -0.079323 -0.047020 -0.220446
v -0.114903 0.047817 -0.370575
v -0.114903 0.095252 -0.319238
v -0.103032 -0.043088 -0.271805
v -0.043765 0.047817 -0.220446
v -0.043765 -0.070762 -0.275774
v -0.099071 -0.050986 -0.252046
f 709 692 712 
f 684 682 685 
f 685 682 687 
f 679 685 687 
f 682 686 689 
f 687 682 689 
f 682 684 691 
f 688 684 693 
f 688 693 694 
f 686 682 696 
f 682 691 696 
f 691 686 696 
f 689 686 698 
f 698 690 699 
f 683 689 699 
f 689 698 699 
f 680 697 700 
f 697 692 700 
f 690 698 700 
f 700 698 701 
f 681 680 701 
f 691 681 701 
f 686 691 701 
f 698 686 701 
f 680 700 701 
f 684 685 702 
f 693 684 702 
f 685 693 702 
f 685 679 703 
f 679 687 703 
f 694 693 703 
f 687 694 703 
f 688 694 704 
f 694 687 704 
f 687 695 704 
f 695 688 704 
f 690 700 705 
f 700 692 705 
f 684 688 706 
f 697 684 706 
f 687 683 707 
f 695 687 707 
f 699 690 707 
f 683 699 707 
f 690 705 707 
f 705 692 707 
f 683 687 708 
f 689 683 708 
f 687 689 708 
f 695 707 709 
f 707 692 709 
f 693 685 710 
f 685 703 710 
f 703 693 710 
f 680 681 711 
f 681 691 711 
f 691 684 711 
f 697 680 711 
f 684 697 711 
f 688 695 712 
f 692 697 712 
f 706 688 712 
f 697 706 712 
f 695 709 712 
o convex_32
v 0.003653 -0.086573 -0.200623
v -0.008195 0.071535 -0.097867
v -0.008195 0.071535 -0.101825
v -0.106998 -0.023320 -0.168994
v -0.047679 -0.074703 -0.097867
v 0.078777 -0.003572 -0.220401
v 0.078777 -0.050993 -0.097867
v -0.079307 0.035955 -0.220401
v -0.091156 0.024100 -0.097867
v -0.079307 -0.066810 -0.216443
v 0.078777 -0.074703 -0.220401
v 0.062935 0.035955 -0.097867
v 0.023414 0.047810 -0.196665
v 0.047130 -0.078665 -0.097867
v -0.095112 -0.047031 -0.097867
v -0.103023 0.004336 -0.220401
v 0.082733 0.000374 -0.097867
v -0.047679 0.063627 -0.097867
v -0.063502 0.043863 -0.220401
v 0.039237 0.055718 -0.141359
v 0.066891 0.016191 -0.220401
v -0.075351 -0.074703 -0.188772
v -0.099068 -0.050993 -0.192730
v -0.023981 0.063627 -0.161101
v -0.103023 -0.003588 -0.097867
v -0.020026 -0.078665 -0.220401
v 0.039237 -0.086573 -0.208527
v 0.082733 -0.066794 -0.220401
v 0.082733 0.000374 -0.172952
v -0.103023 -0.027267 -0.220401
v 0.019458 0.067573 -0.105783
v -0.075351 -0.066810 -0.097867
v -0.087219 0.032008 -0.161101
v -0.063502 -0.078665 -0.208527
v 0.011565 0.063627 -0.153209
v -0.004240 0.047810 -0.208527
v 0.062935 -0.070756 -0.097867
v -0.043742 0.063627 -0.137413
v 0.062935 0.032008 -0.165060
v -0.103023 0.008283 -0.153209
v -0.071396 0.047810 -0.097867
v -0.004240 -0.078665 -0.097867
v -0.091156 -0.062848 -0.184826
v 0.082733 -0.039137 -0.097867
v 0.043174 0.055718 -0.097867
v -0.103023 -0.027267 -0.097867
v 0.039237 -0.086573 -0.188772
f 726 754 759 
f 714 717 719 
f 717 714 721 
f 720 718 723 
f 714 719 724 
f 719 717 726 
f 717 721 727 
f 720 723 728 
f 724 719 729 
f 714 715 730 
f 721 714 730 
f 718 720 731 
f 725 732 733 
f 718 731 733 
f 727 721 737 
f 728 723 738 
f 713 738 739 
f 738 723 739 
f 719 723 740 
f 723 718 740 
f 729 740 741 
f 724 729 741 
f 718 733 741 
f 740 718 741 
f 716 728 742 
f 735 716 742 
f 722 735 742 
f 738 722 742 
f 728 738 742 
f 715 714 743 
f 717 727 744 
f 734 717 744 
f 720 728 745 
f 713 717 746 
f 717 734 746 
f 734 722 746 
f 738 713 746 
f 722 738 746 
f 732 725 747 
f 736 715 747 
f 715 743 747 
f 743 732 747 
f 725 733 748 
f 733 731 748 
f 731 736 748 
f 747 725 748 
f 736 747 748 
f 723 719 749 
f 719 726 749 
f 726 723 749 
f 730 715 750 
f 720 730 750 
f 731 720 750 
f 715 736 750 
f 736 731 750 
f 733 732 751 
f 724 741 751 
f 741 733 751 
f 728 716 752 
f 716 737 752 
f 737 721 752 
f 721 745 752 
f 745 728 752 
f 730 720 753 
f 721 730 753 
f 745 721 753 
f 720 745 753 
f 717 713 754 
f 726 717 754 
f 722 734 755 
f 727 735 755 
f 735 722 755 
f 744 727 755 
f 734 744 755 
f 729 719 756 
f 719 740 756 
f 740 729 756 
f 714 724 757 
f 743 714 757 
f 732 743 757 
f 724 751 757 
f 751 732 757 
f 735 727 758 
f 716 735 758 
f 737 716 758 
f 727 737 758 
f 723 726 759 
f 713 739 759 
f 739 723 759 
f 754 713 759 
o convex_33
v 0.256648 -0.066800 -0.386406
v 0.181555 0.087346 -0.232260
v 0.209221 0.059674 -0.244130
v 0.252699 -0.007510 -0.232260
v 0.177598 -0.003563 -0.378482
v 0.185504 0.039895 -0.335024
v 0.260605 -0.019365 -0.295512
v 0.244785 -0.070762 -0.382460
v 0.177598 0.079422 -0.232260
v 0.177598 0.004345 -0.386406
v 0.260605 0.000399 -0.232260
v 0.225025 0.008292 -0.323184
v 0.181555 0.075476 -0.275749
v 0.260605 -0.066800 -0.362696
v 0.201331 -0.007525 -0.382460
f 765 771 774 
f 763 764 767 
f 763 761 768 
f 764 763 768 
f 760 767 769 
f 767 764 769 
f 764 768 769 
f 762 761 770 
f 761 763 770 
f 766 762 770 
f 762 766 771 
f 766 760 771 
f 761 762 772 
f 768 761 772 
f 765 769 772 
f 769 768 772 
f 771 765 772 
f 762 771 772 
f 760 766 773 
f 767 760 773 
f 763 767 773 
f 770 763 773 
f 766 770 773 
f 769 765 774 
f 760 769 774 
f 771 760 774 
o convex_34
v -0.027945 0.174294 -0.236221
v -0.114903 0.095260 -0.303408
v -0.114903 0.103164 -0.303408
v -0.114903 0.146634 -0.220401
v -0.008180 0.134781 -0.291538
v -0.008180 0.170346 -0.224358
v -0.059567 0.130833 -0.303408
v -0.110944 0.134781 -0.224358
v -0.008180 0.138729 -0.303408
v -0.075373 0.158486 -0.244127
v -0.051669 0.174294 -0.220401
v -0.103036 0.122929 -0.287597
v -0.110944 0.095260 -0.299451
v -0.008180 0.178251 -0.220401
v -0.043761 0.154538 -0.271777
f 781 784 789 
f 777 776 778 
f 776 777 781 
f 778 776 782 
f 779 780 782 
f 780 779 783 
f 776 781 783 
f 784 778 785 
f 775 784 785 
f 777 778 786 
f 781 777 786 
f 778 784 786 
f 784 781 786 
f 782 776 787 
f 779 782 787 
f 776 783 787 
f 783 779 787 
f 778 782 788 
f 782 780 788 
f 780 783 788 
f 783 775 788 
f 785 778 788 
f 775 785 788 
f 775 783 789 
f 783 781 789 
f 784 775 789 
o convex_35
v 0.118307 0.008278 0.099744
v 0.130165 -0.126087 0.056301
v 0.134118 -0.126087 0.056301
v 0.122263 -0.086565 0.163012
v 0.134118 -0.015443 0.115576
v 0.118307 -0.051011 0.004903
v 0.118307 -0.126087 0.119507
v 0.134118 -0.015443 0.052339
v 0.118307 -0.047058 0.163012
v 0.134118 -0.114226 0.099744
v 0.122263 0.012231 0.048393
v 0.134118 -0.110273 0.032576
v 0.118307 -0.106319 0.040484
v 0.130165 -0.035197 0.143248
v 0.122263 -0.035197 0.008865
v 0.130165 0.004324 0.083958
v 0.118307 0.012231 0.048393
f 800 804 806 
f 790 795 796 
f 791 792 796 
f 794 792 797 
f 790 796 798 
f 796 793 798 
f 792 794 799 
f 796 792 799 
f 793 796 799 
f 792 791 801 
f 797 792 801 
f 796 795 802 
f 791 796 802 
f 801 791 802 
f 795 801 802 
f 794 790 803 
f 790 798 803 
f 798 793 803 
f 793 799 803 
f 799 794 803 
f 800 797 804 
f 801 795 804 
f 797 801 804 
f 790 794 805 
f 794 797 805 
f 800 790 805 
f 797 800 805 
f 795 790 806 
f 790 800 806 
f 804 795 806 
o convex_36
v 0.248744 0.020165 -0.216443
v 0.126216 0.150576 -0.161111
v 0.126216 0.150576 -0.169022
v 0.118307 0.130809 -0.220399
v 0.248744 0.012272 -0.161111
v 0.177621 0.095241 -0.232260
v 0.205260 0.079454 -0.161111
v 0.240835 0.012272 -0.232260
v 0.118307 0.142669 -0.165066
v 0.122261 0.138716 -0.232260
v 0.256652 0.016212 -0.161111
v 0.165745 0.115008 -0.196685
v 0.217123 0.055733 -0.228304
v 0.240835 0.012272 -0.212487
v 0.118307 0.130809 -0.232260
f 815 816 821 
f 809 808 813 
f 808 811 813 
f 808 809 815 
f 810 811 815 
f 811 808 815 
f 812 814 816 
f 815 809 816 
f 807 813 817 
f 813 811 817 
f 814 807 817 
f 811 814 817 
f 809 813 818 
f 816 809 818 
f 812 816 818 
f 813 807 819 
f 807 814 819 
f 814 812 819 
f 818 813 819 
f 812 818 819 
f 811 810 820 
f 814 811 820 
f 810 814 820 
f 814 810 821 
f 810 815 821 
f 816 814 821 
o convex_37
v 0.185497 0.039911 0.064200
v 0.118307 0.035968 0.119526
v 0.126218 0.028063 0.123482
v 0.256629 -0.066801 0.072112
v 0.118307 0.099172 0.032572
v 0.228982 -0.050990 0.127428
v 0.122263 0.051760 0.119526
v 0.221070 0.016195 0.032572
v 0.248732 -0.086573 0.115570
v 0.126218 0.107096 0.036538
v 0.260599 -0.058895 0.083961
v 0.165761 0.012233 0.127438
v 0.209203 0.012233 0.032572
v 0.145983 0.067551 0.076059
v 0.252688 -0.082611 0.123473
v 0.193395 0.047816 0.036538
v 0.118307 0.035968 0.127438
v 0.197350 0.012233 0.087907
v 0.118307 0.095229 0.036538
f 826 834 840 
f 824 823 830 
f 823 825 830 
f 826 828 831 
f 829 826 831 
f 825 829 832 
f 826 829 834 
f 829 825 834 
f 822 831 835 
f 831 828 835 
f 828 833 835 
f 830 825 836 
f 832 827 836 
f 825 832 836 
f 831 822 837 
f 829 831 837 
f 832 829 837 
f 823 824 838 
f 826 823 838 
f 828 826 838 
f 824 830 838 
f 827 833 838 
f 833 828 838 
f 836 827 838 
f 830 836 838 
f 827 832 839 
f 833 827 839 
f 822 835 839 
f 835 833 839 
f 837 822 839 
f 832 837 839 
f 825 823 840 
f 823 826 840 
f 834 825 840 
o convex_38
v 0.094577 0.071535 0.115571
v 0.043205 0.035961 0.080005
v 0.043205 0.035961 0.099772
v 0.118307 0.035961 0.127437
v 0.118307 0.071535 0.083959
v 0.047168 0.071535 0.131390
v 0.074838 0.035961 0.080005
v 0.043205 0.047821 0.080005
v 0.118307 0.047821 0.127437
f 841 846 849 
f 843 842 844 
f 843 844 846 
f 841 845 846 
f 844 842 847 
f 845 844 847 
f 845 847 848 
f 842 843 848 
f 846 845 848 
f 843 846 848 
f 847 842 848 
f 845 841 849 
f 844 845 849 
f 846 844 849 
o convex_39
v -0.280910 -0.074707 -0.042529
v -0.186052 -0.039146 0.115579
v -0.186052 -0.058904 0.115579
v -0.186052 -0.035190 -0.010895
v -0.300681 -0.035190 -0.038567
v -0.186052 -0.094479 0.028648
v -0.225582 -0.082618 0.068144
v -0.213733 -0.023330 -0.042529
v -0.209784 -0.023330 0.091838
v -0.225582 -0.074713 -0.042529
v -0.190013 -0.094479 0.083945
v -0.229532 -0.062853 0.076052
v -0.186052 -0.023330 0.111617
v -0.300681 -0.058904 -0.038567
v -0.249291 -0.023330 0.036525
v -0.233481 -0.090523 -0.003002
v -0.186052 -0.062853 -0.010895
v -0.249291 -0.023330 -0.042529
v -0.186052 -0.023330 -0.006949
v -0.225582 -0.090523 0.048380
v -0.237431 -0.039146 0.064182
v -0.201873 -0.078662 0.099762
v -0.201873 -0.047051 0.107671
v -0.209784 -0.054955 -0.042529
v -0.225582 -0.086567 -0.022766
v -0.190013 -0.086567 0.004907
f 855 874 875 
f 851 852 853 
f 853 852 855 
f 850 857 859 
f 855 852 860 
f 851 853 862 
f 857 858 862 
f 854 850 863 
f 856 861 863 
f 858 857 864 
f 855 860 865 
f 853 855 866 
f 850 854 867 
f 857 850 867 
f 854 864 867 
f 864 857 867 
f 853 857 868 
f 862 853 868 
f 857 862 868 
f 860 856 869 
f 863 850 869 
f 856 863 869 
f 850 865 869 
f 865 860 869 
f 854 863 870 
f 863 861 870 
f 864 854 870 
f 858 864 870 
f 860 852 871 
f 856 860 871 
f 861 856 871 
f 861 871 872 
f 852 851 872 
f 851 862 872 
f 862 858 872 
f 858 870 872 
f 870 861 872 
f 871 852 872 
f 857 853 873 
f 859 857 873 
f 853 866 873 
f 866 859 873 
f 850 859 874 
f 865 850 874 
f 855 865 874 
f 866 855 875 
f 859 866 875 
f 874 859 875 
o convex_40
v -0.229529 -0.003566 -0.042529
v -0.186052 -0.019375 0.107671
v -0.186052 -0.023330 0.107671
v -0.249296 -0.007517 0.115579
v -0.209775 0.016197 0.115579
v -0.249296 -0.023330 -0.042529
v -0.186052 -0.019375 -0.003002
v -0.249296 0.016197 0.048380
v -0.186052 0.000384 0.028648
v -0.249296 -0.019375 0.115579
v -0.205819 0.004339 -0.006949
v -0.249296 0.000384 -0.038567
v -0.197920 -0.023330 -0.022766
v -0.233472 0.016197 0.099762
v -0.249296 -0.023330 0.032579
v -0.186052 -0.003566 0.083945
f 884 880 891 
f 878 877 880 
f 877 878 882 
f 881 879 883 
f 877 882 884 
f 880 879 885 
f 878 880 885 
f 879 881 885 
f 883 880 886 
f 880 884 886 
f 884 882 886 
f 876 881 887 
f 881 883 887 
f 886 876 887 
f 883 886 887 
f 881 876 888 
f 878 881 888 
f 882 878 888 
f 876 886 888 
f 886 882 888 
f 879 880 889 
f 880 883 889 
f 883 879 889 
f 881 878 890 
f 878 885 890 
f 885 881 890 
f 880 877 891 
f 877 884 891 
o convex_41
v -0.051657 0.126866 -0.445706
v -0.000274 0.103160 -0.346908
v -0.000274 0.095252 -0.346908
v -0.075375 0.095252 -0.346908
v -0.000274 0.095252 -0.445706
v -0.004229 0.138732 -0.441741
v -0.071420 0.095252 -0.445706
v -0.047695 0.115021 -0.354810
v -0.079329 0.099206 -0.362712
v -0.012137 0.111063 -0.346908
v -0.035855 0.134778 -0.433839
v -0.000274 0.134778 -0.445706
v -0.071420 0.103160 -0.346908
f 899 902 904 
f 894 893 895 
f 893 894 896 
f 894 895 896 
f 892 896 898 
f 896 895 898 
f 892 898 900 
f 898 895 900 
f 895 893 901 
f 893 897 901 
f 897 899 901 
f 897 892 902 
f 899 897 902 
f 896 892 903 
f 893 896 903 
f 897 893 903 
f 892 897 903 
f 892 900 904 
f 900 895 904 
f 895 901 904 
f 901 899 904 
f 902 892 904 
o convex_42
v -0.000272 0.008298 -0.390383
v 0.027392 0.281029 -0.346908
v 0.027392 0.281029 -0.366667
v 0.027392 0.032024 -0.346908
v 0.027392 0.071538 -0.445706
v -0.000272 0.134806 -0.445706
v -0.000272 0.225670 -0.346908
v -0.000272 -0.007519 -0.346908
v 0.023438 0.265212 -0.402212
v -0.000272 0.035978 -0.445706
v 0.007633 0.261258 -0.374569
v 0.027392 0.115035 -0.445706
v 0.007633 0.000390 -0.366667
v 0.027392 0.253350 -0.406167
v 0.015534 0.047841 -0.445706
v 0.011586 0.269167 -0.346908
f 915 911 920 
f 907 906 908 
f 907 908 909 
f 910 905 911 
f 908 906 911 
f 908 911 912 
f 911 905 912 
f 910 909 914 
f 905 910 914 
f 910 911 915 
f 907 913 915 
f 913 910 915 
f 907 909 916 
f 909 910 916 
f 909 908 917 
f 908 912 917 
f 912 905 917 
f 905 914 917 
f 913 907 918 
f 910 913 918 
f 907 916 918 
f 916 910 918 
f 914 909 919 
f 909 917 919 
f 917 914 919 
f 906 907 920 
f 911 906 920 
f 907 915 920 
o convex_43
v 0.106445 0.115017 -0.425927
v 0.059022 0.284982 -0.346908
v 0.027395 0.284982 -0.346908
v 0.035306 0.024150 -0.346908
v 0.031355 0.083437 -0.445706
v 0.118307 0.063684 -0.346908
v 0.086680 -0.019377 -0.445706
v 0.051119 0.269162 -0.410123
v 0.082720 0.257305 -0.350854
v 0.086680 0.126874 -0.445706
v 0.051119 -0.007490 -0.445706
v 0.027395 0.028082 -0.350854
v 0.027395 0.265170 -0.406167
v 0.106445 0.036007 -0.445706
v 0.110396 0.146626 -0.398266
v 0.070884 0.257305 -0.402212
v 0.027395 0.063684 -0.437785
v 0.118307 0.039940 -0.378525
v 0.055071 0.134769 -0.445706
v 0.051119 0.024150 -0.346908
v 0.062982 -0.019377 -0.441741
v 0.059022 0.277057 -0.398266
v 0.118307 0.075542 -0.346908
v 0.039257 0.020187 -0.445706
v 0.098542 -0.003527 -0.445706
v 0.098542 0.154491 -0.421981
v 0.074817 0.261238 -0.390383
v 0.074817 0.273065 -0.346908
v 0.106445 0.059692 -0.445706
v 0.086680 -0.019377 -0.441741
v 0.106445 0.162446 -0.374569
v 0.039257 0.277057 -0.402212
f 942 928 952 
f 922 923 924 
f 922 924 926 
f 927 925 930 
f 925 927 931 
f 924 923 932 
f 932 923 933 
f 927 930 934 
f 930 928 936 
f 933 925 937 
f 932 933 937 
f 930 925 939 
f 928 930 939 
f 933 928 939 
f 925 933 939 
f 926 924 940 
f 938 926 940 
f 931 927 941 
f 924 932 941 
f 932 931 941 
f 940 924 941 
f 936 928 942 
f 922 926 943 
f 926 938 943 
f 938 935 943 
f 925 931 944 
f 931 932 944 
f 937 925 944 
f 932 937 944 
f 927 934 945 
f 934 938 945 
f 935 921 946 
f 930 936 946 
f 946 936 947 
f 929 935 947 
f 936 942 947 
f 935 946 947 
f 947 942 948 
f 942 922 948 
f 922 943 948 
f 943 929 948 
f 929 947 948 
f 934 930 949 
f 921 935 949 
f 938 934 949 
f 935 938 949 
f 946 921 949 
f 930 946 949 
f 938 940 950 
f 941 927 950 
f 940 941 950 
f 927 945 950 
f 945 938 950 
f 935 929 951 
f 929 943 951 
f 943 935 951 
f 923 922 952 
f 933 923 952 
f 928 933 952 
f 922 942 952 
o convex_44
v 0.102487 -0.043073 -0.263881
v -0.000266 -0.058841 -0.307351
v 0.007638 -0.062848 -0.307351
v 0.066913 0.281012 -0.346888
v -0.000266 0.158465 -0.263881
v 0.118307 0.067639 -0.346888
v 0.118307 0.126817 -0.263881
v -0.000266 0.229626 -0.346888
v -0.000266 -0.011462 -0.346888
v -0.000266 -0.058841 -0.263881
v 0.066913 -0.078653 -0.299470
v 0.035308 0.273110 -0.311300
v 0.059020 -0.090526 -0.263881
v 0.086679 0.241462 -0.346888
v 0.055062 0.253335 -0.299470
v 0.047158 -0.043073 -0.331069
v 0.011596 0.269140 -0.338983
v 0.062955 0.170338 -0.263881
v 0.074817 0.269140 -0.327120
v 0.086679 -0.074684 -0.283650
v 0.078775 -0.043073 -0.319206
v 0.019500 -0.062848 -0.319206
v 0.110391 0.004380 -0.271787
v 0.031350 0.284982 -0.346888
v 0.118307 0.079475 -0.346888
v 0.059020 0.012246 -0.346888
v 0.019500 0.265207 -0.315265
v 0.035308 0.237529 -0.291564
v 0.082721 -0.086519 -0.263881
v 0.059020 0.281012 -0.323171
v 0.039266 -0.082586 -0.287599
v 0.098541 -0.043073 -0.291564
v 0.062955 0.261237 -0.307351
v 0.086679 -0.050976 -0.307351
v 0.070859 -0.027231 -0.331069
v 0.082733 0.257304 -0.335017
f 971 959 988 
f 957 953 959 
f 954 957 960 
f 956 958 960 
f 960 958 961 
f 954 960 961 
f 953 957 962 
f 957 954 962 
f 953 962 965 
f 958 956 966 
f 960 957 969 
f 957 959 970 
f 959 967 970 
f 963 968 973 
f 955 954 974 
f 954 961 974 
f 961 968 974 
f 968 963 974 
f 953 958 975 
f 958 959 975 
f 959 953 975 
f 956 960 976 
f 960 969 976 
f 959 958 977 
f 958 966 977 
f 966 959 977 
f 961 958 978 
f 968 961 978 
f 957 964 979 
f 969 957 979 
f 964 976 979 
f 976 969 979 
f 964 957 980 
f 967 964 980 
f 957 970 980 
f 970 967 980 
f 953 965 981 
f 965 963 981 
f 972 953 981 
f 963 972 981 
f 971 956 982 
f 956 976 982 
f 976 964 982 
f 954 955 983 
f 962 954 983 
f 965 962 983 
f 963 965 983 
f 955 974 983 
f 974 963 983 
f 958 953 984 
f 953 972 984 
f 967 959 985 
f 964 967 985 
f 959 971 985 
f 982 964 985 
f 971 982 985 
f 972 963 986 
f 973 958 986 
f 963 973 986 
f 958 984 986 
f 984 972 986 
f 958 973 987 
f 973 968 987 
f 978 958 987 
f 968 978 987 
f 966 956 988 
f 959 966 988 
f 956 971 988 
o convex_45
v 0.090636 0.107116 0.072107
v -0.004227 0.146637 0.032572
v -0.004227 0.083398 0.119519
v 0.114349 0.095253 0.040479
v 0.035306 0.150586 0.036526
v 0.055073 0.075492 0.131390
v -0.004227 0.122919 0.087891
v 0.118307 0.071535 0.080024
v 0.114349 0.115005 0.032572
v 0.114349 0.075492 0.095808
v -0.000269 0.075492 0.135343
v 0.043210 0.115005 0.087891
v 0.007635 0.083398 0.135343
v -0.004227 0.154543 0.036526
v 0.070869 0.138723 0.036526
v 0.110391 0.071535 0.080024
v 0.055073 0.071535 0.131390
f 1004 996 1005 
f 991 990 992 
f 990 991 995 
f 992 990 997 
f 990 993 997 
f 996 992 997 
f 996 997 998 
f 989 994 998 
f 997 989 998 
f 995 991 999 
f 994 989 1000 
f 993 995 1000 
f 1000 995 1001 
f 995 999 1001 
f 994 1000 1001 
f 993 990 1002 
f 995 993 1002 
f 990 995 1002 
f 989 997 1003 
f 997 993 1003 
f 1000 989 1003 
f 993 1000 1003 
f 991 992 1004 
f 992 996 1004 
f 999 991 1004 
f 999 1004 1005 
f 996 998 1005 
f 998 994 1005 
f 994 1001 1005 
f 1001 999 1005 
o convex_46
v 0.145984 -0.039141 0.087895
v 0.197361 -0.133996 -0.026712
v 0.189448 -0.130041 -0.030662
v 0.201314 -0.039141 -0.022763
v 0.201314 -0.098416 0.076046
v 0.134118 -0.126086 0.044415
v 0.153883 -0.078676 -0.006947
v 0.161796 -0.122140 0.095811
v 0.181549 -0.058918 0.095811
v 0.134118 -0.094470 0.111627
v 0.201314 -0.110273 -0.062293
v 0.134118 -0.051007 0.064180
v 0.201314 -0.133996 0.028617
v 0.201314 -0.043105 0.040465
v 0.185502 -0.058918 -0.038561
v 0.138071 -0.110273 0.016768
v 0.165743 -0.066819 0.111627
v 0.142024 -0.130041 0.072079
v 0.134118 -0.051007 0.103710
v 0.185502 -0.110273 -0.050427
v 0.177589 -0.043105 -0.006947
v 0.197361 -0.082632 -0.062293
v 0.169689 -0.098416 0.107660
v 0.161796 -0.039141 0.087895
v 0.201314 -0.122140 0.060231
v 0.134118 -0.082632 0.028617
v 0.134118 -0.122140 0.091862
v 0.157843 -0.133996 0.028617
v 0.201314 -0.066819 0.072079
v 0.173636 -0.086569 -0.038561
v 0.177589 -0.133996 0.056281
v 0.161796 -0.054962 0.000952
f 1012 1031 1037 
f 1007 1008 1016 
f 1009 1010 1016 
f 1011 1015 1017 
f 1007 1016 1018 
f 1016 1010 1018 
f 1010 1009 1019 
f 1008 1011 1021 
f 1010 1014 1022 
f 1006 1017 1024 
f 1017 1015 1024 
f 1015 1022 1024 
f 1016 1008 1025 
f 1008 1021 1025 
f 1006 1009 1026 
f 1017 1006 1026 
f 1009 1020 1026 
f 1009 1016 1027 
f 1020 1009 1027 
f 1016 1025 1027 
f 1015 1013 1028 
f 1010 1022 1028 
f 1022 1015 1028 
f 1009 1006 1029 
f 1019 1009 1029 
f 1014 1019 1029 
f 1022 1014 1029 
f 1006 1024 1029 
f 1024 1022 1029 
f 1018 1010 1030 
f 1010 1028 1030 
f 1028 1013 1030 
f 1011 1017 1031 
f 1021 1011 1031 
f 1012 1021 1031 
f 1013 1015 1032 
f 1015 1011 1032 
f 1011 1023 1032 
f 1023 1013 1032 
f 1008 1007 1033 
f 1011 1008 1033 
f 1007 1018 1033 
f 1023 1011 1033 
f 1014 1010 1034 
f 1010 1019 1034 
f 1019 1014 1034 
f 1012 1020 1035 
f 1021 1012 1035 
f 1025 1021 1035 
f 1020 1027 1035 
f 1027 1025 1035 
f 1013 1023 1036 
f 1018 1030 1036 
f 1030 1013 1036 
f 1033 1018 1036 
f 1023 1033 1036 
f 1020 1012 1037 
f 1017 1026 1037 
f 1026 1020 1037 
f 1031 1017 1037 
o convex_47
v 0.201320 -0.039143 -0.022763
v 0.260599 -0.050993 0.068147
v 0.260599 -0.058900 0.068147
v 0.260599 -0.023334 -0.018810
v 0.225035 -0.019381 0.068147
v 0.244787 -0.062848 -0.034624
v 0.201320 -0.062848 0.060240
v 0.201320 -0.062848 -0.034624
v 0.260599 -0.019381 -0.018810
v 0.248739 -0.019381 0.040462
v 0.201320 -0.043091 -0.034624
v 0.201320 -0.039143 0.020695
f 1044 1042 1049 
f 1039 1040 1041 
f 1040 1039 1042 
f 1041 1040 1043 
f 1040 1042 1044 
f 1043 1040 1044 
f 1043 1044 1045 
f 1044 1038 1045 
f 1039 1041 1046 
f 1038 1042 1046 
f 1041 1043 1046 
f 1042 1039 1047 
f 1039 1046 1047 
f 1046 1042 1047 
f 1043 1045 1048 
f 1045 1038 1048 
f 1038 1046 1048 
f 1046 1043 1048 
f 1042 1038 1049 
f 1038 1044 1049 
o convex_48
v 0.201314 -0.118182 -0.078145
v 0.327801 -0.062883 -0.204530
v 0.327801 -0.078687 -0.204530
v 0.205276 -0.070780 0.068147
v 0.296142 -0.031235 -0.232260
v 0.276382 -0.126099 -0.074176
v 0.201314 -0.047059 -0.038595
v 0.296142 -0.098424 -0.232260
v 0.201314 -0.126079 0.048357
v 0.221087 -0.086554 -0.141308
v 0.304054 -0.070770 -0.109727
v 0.240847 -0.134006 -0.097876
v 0.311978 -0.031235 -0.228290
v 0.288268 -0.106331 -0.066295
v 0.205276 -0.062873 0.064177
v 0.308028 -0.110285 -0.168979
v 0.327801 -0.086554 -0.232260
v 0.284293 -0.090497 -0.232260
v 0.228999 -0.118182 -0.133428
v 0.311978 -0.102358 -0.129487
v 0.201314 -0.134006 0.020686
v 0.209226 -0.110275 0.060237
v 0.280356 -0.126099 -0.133428
v 0.228999 -0.047059 -0.034625
v 0.304054 -0.082620 -0.097876
v 0.213188 -0.078687 -0.117608
v 0.292205 -0.062883 -0.097876
v 0.201314 -0.134006 -0.026745
v 0.201314 -0.094471 -0.093936
v 0.292205 -0.035189 -0.232260
v 0.201314 -0.062873 0.064177
v 0.213188 -0.102358 -0.125547
v 0.256671 -0.126099 -0.141308
v 0.252733 -0.134006 -0.074176
v 0.323839 -0.043096 -0.232260
v 0.213188 -0.126099 -0.093936
v 0.280356 -0.070770 -0.228290
v 0.300129 -0.106331 -0.208529
v 0.296142 -0.118182 -0.105787
v 0.205276 -0.126079 0.048357
v 0.217137 -0.082620 0.052327
v 0.292205 -0.082620 -0.074176
f 1090 1063 1091 
f 1056 1050 1058 
f 1054 1056 1062 
f 1051 1052 1066 
f 1057 1054 1066 
f 1054 1057 1067 
f 1067 1057 1068 
f 1052 1051 1069 
f 1066 1052 1069 
f 1065 1066 1069 
f 1058 1050 1070 
f 1053 1058 1071 
f 1062 1056 1073 
f 1064 1062 1073 
f 1051 1060 1074 
f 1069 1051 1074 
f 1063 1069 1074 
f 1060 1062 1076 
f 1064 1060 1076 
f 1062 1064 1076 
f 1070 1050 1077 
f 1061 1070 1077 
f 1050 1056 1078 
f 1056 1075 1078 
f 1075 1059 1078 
f 1056 1054 1079 
f 1054 1067 1079 
f 1075 1056 1079 
f 1059 1075 1079 
f 1058 1053 1080 
f 1056 1058 1080 
f 1053 1064 1080 
f 1073 1056 1080 
f 1064 1073 1080 
f 1059 1067 1081 
f 1067 1068 1081 
f 1050 1078 1081 
f 1078 1059 1081 
f 1068 1057 1082 
f 1072 1061 1082 
f 1055 1070 1083 
f 1070 1061 1083 
f 1061 1072 1083 
f 1072 1055 1083 
f 1060 1051 1084 
f 1054 1062 1084 
f 1062 1060 1084 
f 1051 1066 1084 
f 1066 1054 1084 
f 1077 1050 1085 
f 1061 1077 1085 
f 1050 1081 1085 
f 1081 1068 1085 
f 1082 1061 1085 
f 1068 1082 1085 
f 1067 1059 1086 
f 1079 1067 1086 
f 1059 1079 1086 
f 1057 1066 1087 
f 1066 1065 1087 
f 1065 1072 1087 
f 1082 1057 1087 
f 1072 1082 1087 
f 1063 1055 1088 
f 1069 1063 1088 
f 1065 1069 1088 
f 1055 1072 1088 
f 1072 1065 1088 
f 1055 1063 1089 
f 1058 1070 1089 
f 1070 1055 1089 
f 1071 1058 1089 
f 1063 1071 1089 
f 1053 1071 1090 
f 1071 1063 1090 
f 1064 1053 1091 
f 1060 1064 1091 
f 1074 1060 1091 
f 1063 1074 1091 
f 1053 1090 1091 
o convex_49
v 0.252696 0.012245 -0.082056
v 0.256651 -0.007519 -0.232260
v 0.260605 -0.007519 -0.232260
v 0.240841 0.012245 -0.232260
v 0.256651 0.012245 -0.204574
v 0.256651 -0.003563 -0.082056
v 0.260605 0.008289 -0.093921
v 0.248750 0.004338 -0.082056
f 1097 1092 1099 
f 1094 1093 1095 
f 1095 1092 1096 
f 1094 1095 1096 
f 1093 1094 1097 
f 1092 1097 1098 
f 1096 1092 1098 
f 1094 1096 1098 
f 1097 1094 1098 
f 1095 1093 1099 
f 1092 1095 1099 
f 1093 1097 1099 
o convex_50
v 0.209229 -0.019377 0.107664
v 0.260599 -0.015424 -0.002998
v 0.260599 -0.019377 -0.002998
v 0.244787 0.012245 -0.082056
v 0.209229 0.012245 0.068135
v 0.201320 -0.019377 0.099759
v 0.256642 -0.007519 -0.078094
v 0.252690 0.012245 -0.058339
v 0.201320 0.012245 0.056286
v 0.240835 -0.015424 0.052324
v 0.232932 0.012245 0.016738
v 0.256642 -0.019377 -0.030659
v 0.260599 0.004336 -0.082056
v 0.244787 0.008286 -0.082056
f 1103 1112 1113 
f 1102 1100 1105 
f 1100 1104 1105 
f 1103 1104 1107 
f 1104 1103 1108 
f 1105 1104 1108 
f 1100 1102 1109 
f 1102 1101 1109 
f 1104 1100 1109 
f 1104 1109 1110 
f 1107 1104 1110 
f 1101 1107 1110 
f 1109 1101 1110 
f 1102 1105 1111 
f 1106 1102 1111 
f 1105 1106 1111 
f 1101 1102 1112 
f 1102 1106 1112 
f 1103 1107 1112 
f 1107 1101 1112 
f 1106 1105 1113 
f 1108 1103 1113 
f 1105 1108 1113 
f 1112 1106 1113 
o convex_51
v 0.221077 0.059687 -0.097875
v 0.118307 0.138719 -0.074174
v 0.118307 0.138719 -0.058340
v 0.240835 0.012245 -0.058340
v 0.248730 0.012245 -0.161111
v 0.138078 0.142675 -0.161111
v 0.157836 0.118968 -0.058340
v 0.118307 0.146631 -0.161111
v 0.256652 0.016201 -0.161111
v 0.248730 0.016201 -0.058340
v 0.205274 0.079452 -0.161111
v 0.122261 0.154543 -0.105792
v 0.169699 0.115012 -0.097875
v 0.201319 0.075496 -0.058340
v 0.122261 0.146631 -0.058340
v 0.256652 0.016201 -0.117622
v 0.240835 0.012245 -0.074174
v 0.153909 0.130808 -0.149240
f 1125 1126 1131 
f 1116 1115 1117 
f 1116 1117 1120 
f 1115 1116 1121 
f 1119 1118 1121 
f 1118 1119 1122 
f 1120 1117 1123 
f 1122 1119 1124 
f 1121 1116 1125 
f 1119 1121 1125 
f 1114 1124 1126 
f 1125 1120 1126 
f 1120 1123 1127 
f 1123 1114 1127 
f 1114 1126 1127 
f 1126 1120 1127 
f 1116 1120 1128 
f 1125 1116 1128 
f 1120 1125 1128 
f 1117 1118 1129 
f 1118 1122 1129 
f 1123 1117 1129 
f 1114 1123 1129 
f 1124 1114 1129 
f 1122 1124 1129 
f 1117 1115 1130 
f 1118 1117 1130 
f 1115 1121 1130 
f 1121 1118 1130 
f 1124 1119 1131 
f 1119 1125 1131 
f 1126 1124 1131 
o convex_52
v -0.087231 0.063624 0.143248
v -0.114903 0.035961 0.080005
v -0.114903 0.035961 0.099772
v 0.043205 0.035961 0.099772
v -0.016085 0.055723 0.080005
v -0.114903 0.071535 0.119520
v -0.114903 0.051774 0.143248
v -0.067468 0.071535 0.139293
v 0.043205 0.047821 0.080005
v -0.095140 0.051774 0.080005
v -0.016085 0.035961 0.115576
v 0.043205 0.035961 0.080005
v -0.079323 0.035961 0.115576
v 0.039243 0.039917 0.103734
f 1132 1142 1145 
f 1134 1133 1135 
f 1133 1134 1137 
f 1137 1134 1138 
f 1132 1137 1138 
f 1136 1137 1139 
f 1137 1132 1139 
f 1133 1136 1140 
f 1136 1139 1140 
f 1136 1133 1141 
f 1133 1137 1141 
f 1137 1136 1141 
f 1134 1135 1142 
f 1132 1138 1142 
f 1135 1133 1143 
f 1133 1140 1143 
f 1140 1135 1143 
f 1138 1134 1144 
f 1134 1142 1144 
f 1142 1138 1144 
f 1139 1132 1145 
f 1135 1140 1145 
f 1140 1139 1145 
f 1142 1135 1145 
o convex_53
v 0.244789 0.012245 -0.034615
v 0.126223 0.142684 -0.050429
v 0.134127 0.126865 -0.018802
v 0.118307 0.103154 0.024661
v 0.213175 0.028064 0.032572
v 0.236872 0.012245 -0.054380
v 0.118307 0.134768 -0.054380
v 0.189451 0.087334 -0.058340
v 0.213175 0.012245 0.024661
v 0.122265 0.111045 0.032572
v 0.173644 0.079444 0.012808
v 0.221065 0.043871 -0.026713
v 0.248747 0.016203 -0.058340
v 0.213175 0.012245 0.032572
v 0.118307 0.142684 -0.058340
v 0.173644 0.099196 -0.038575
v 0.225023 0.016203 0.028612
f 1150 1159 1162 
f 1151 1149 1152 
f 1151 1146 1154 
f 1149 1151 1154 
f 1148 1147 1155 
f 1148 1155 1156 
f 1155 1150 1156 
f 1156 1150 1157 
f 1146 1151 1158 
f 1153 1157 1158 
f 1154 1146 1159 
f 1149 1154 1159 
f 1150 1155 1159 
f 1155 1149 1159 
f 1152 1149 1160 
f 1151 1152 1160 
f 1147 1153 1160 
f 1155 1147 1160 
f 1149 1155 1160 
f 1158 1151 1160 
f 1153 1158 1160 
f 1147 1148 1161 
f 1153 1147 1161 
f 1148 1156 1161 
f 1157 1153 1161 
f 1156 1157 1161 
f 1157 1150 1162 
f 1146 1158 1162 
f 1158 1157 1162 
f 1159 1146 1162 
o convex_54
v -0.063509 0.122905 0.083958
v -0.114903 0.126862 0.028631
v -0.114903 0.122913 0.032584
v -0.004227 0.146615 0.032584
v -0.004227 0.079459 0.127424
v -0.110949 0.071552 0.127424
v -0.004227 0.158487 0.032584
v -0.004227 0.091314 0.127424
v -0.095132 0.142674 0.036538
v -0.110949 0.075501 0.107668
v -0.059565 0.079459 0.139285
v -0.114903 0.087365 0.111621
v -0.031907 0.134760 0.072108
v -0.059565 0.154529 0.032584
v -0.004227 0.083416 0.119517
v -0.114903 0.118956 0.064201
v -0.051657 0.071544 0.139285
f 1170 1173 1179 
f 1165 1164 1166 
f 1166 1164 1169 
f 1167 1166 1169 
f 1167 1169 1170 
f 1164 1165 1174 
f 1165 1172 1174 
f 1172 1168 1174 
f 1168 1173 1174 
f 1173 1163 1174 
f 1170 1169 1175 
f 1163 1173 1175 
f 1173 1170 1175 
f 1169 1164 1176 
f 1164 1171 1176 
f 1171 1163 1176 
f 1175 1169 1176 
f 1163 1175 1176 
f 1165 1166 1177 
f 1166 1167 1177 
f 1172 1165 1177 
f 1167 1172 1177 
f 1171 1164 1178 
f 1163 1171 1178 
f 1164 1174 1178 
f 1174 1163 1178 
f 1167 1170 1179 
f 1172 1167 1179 
f 1168 1172 1179 
f 1173 1168 1179 
o convex_55
v -0.039805 0.174301 -0.003006
v -0.114903 0.154546 -0.046482
v -0.114903 0.162444 -0.046482
v -0.114903 0.126874 0.028620
v -0.004227 0.178254 -0.038564
v -0.004227 0.154546 0.020702
v -0.095121 0.146647 0.028620
v -0.063498 0.182206 -0.042520
v -0.004227 0.158492 0.028620
v -0.004227 0.186164 -0.046482
v -0.106995 0.154546 -0.046482
v -0.114903 0.146647 0.008852
v -0.110949 0.126874 0.024657
v -0.004227 0.186164 -0.034617
v -0.051668 0.158492 0.028620
v -0.087234 0.158492 0.008852
f 1186 1194 1195 
f 1182 1181 1183 
f 1185 1184 1188 
f 1183 1185 1188 
f 1186 1183 1188 
f 1181 1182 1189 
f 1182 1187 1189 
f 1188 1184 1189 
f 1184 1185 1190 
f 1181 1189 1190 
f 1189 1184 1190 
f 1182 1183 1191 
f 1183 1186 1191 
f 1183 1181 1192 
f 1185 1183 1192 
f 1181 1190 1192 
f 1190 1185 1192 
f 1187 1180 1193 
f 1180 1188 1193 
f 1189 1187 1193 
f 1188 1189 1193 
f 1188 1180 1194 
f 1186 1188 1194 
f 1180 1187 1195 
f 1187 1182 1195 
f 1182 1191 1195 
f 1191 1186 1195 
f 1194 1180 1195 
o convex_56
v -0.292774 -0.007523 -0.014857
v -0.249296 -0.027281 0.032571
v -0.249296 -0.035188 0.032571
v -0.249296 -0.035188 -0.042529
v -0.253254 0.016197 0.020708
v -0.300681 -0.035188 0.032571
v -0.265110 0.016197 -0.042529
v -0.300681 -0.035188 -0.042529
v -0.261161 0.016197 0.036525
v -0.249296 0.000378 -0.034621
v -0.300681 -0.015420 -0.042529
v -0.273022 0.016197 -0.014857
v -0.292774 -0.019374 0.036525
f 1204 1207 1208 
f 1197 1198 1199 
f 1199 1198 1201 
f 1199 1201 1203 
f 1202 1199 1203 
f 1198 1197 1204 
f 1197 1200 1204 
f 1200 1202 1204 
f 1197 1199 1205 
f 1200 1197 1205 
f 1199 1202 1205 
f 1202 1200 1205 
f 1203 1201 1206 
f 1202 1203 1206 
f 1204 1202 1207 
f 1206 1196 1207 
f 1202 1206 1207 
f 1201 1198 1208 
f 1198 1204 1208 
f 1196 1206 1208 
f 1206 1201 1208 
f 1207 1196 1208 
o convex_57
v -0.000274 0.178251 -0.228313
v -0.008180 0.095260 -0.346888
v -0.008180 0.107120 -0.346888
v -0.008180 0.174294 -0.220401
v -0.000274 0.095260 -0.271808
v -0.000274 0.146634 -0.327115
v -0.008180 0.095260 -0.283645
v -0.000274 0.095260 -0.346888
v -0.004227 0.146634 -0.327115
f 1209 1214 1217 
f 1211 1210 1212 
f 1209 1212 1213 
f 1209 1213 1214 
f 1212 1210 1215 
f 1213 1212 1215 
f 1210 1213 1215 
f 1210 1211 1216 
f 1213 1210 1216 
f 1214 1213 1216 
f 1211 1214 1216 
f 1211 1212 1217 
f 1212 1209 1217 
f 1214 1211 1217 
o convex_58
v 0.074813 0.087311 -0.232263
v -0.000274 -0.066805 -0.224355
v 0.011599 -0.066805 -0.263881
v 0.090619 -0.074712 -0.232263
v 0.007634 0.115015 -0.263881
v 0.110402 0.047796 -0.263881
v 0.074813 -0.090526 -0.263881
v 0.031349 0.031982 -0.220401
v 0.086665 -0.003549 -0.220401
v 0.098528 0.115015 -0.259927
v 0.078778 -0.078655 -0.220401
v 0.027395 0.115015 -0.244116
v -0.000274 -0.035177 -0.220401
v -0.000274 -0.054934 -0.263881
v 0.098528 -0.058878 -0.263881
v -0.000274 0.087311 -0.255974
v 0.098528 0.035946 -0.236213
v 0.098528 -0.047027 -0.236213
v 0.058996 -0.090526 -0.252015
v 0.011599 0.067573 -0.236213
v 0.058996 0.107108 -0.236213
v 0.062950 0.043853 -0.220401
v 0.098528 0.115015 -0.263881
v 0.086665 0.115015 -0.248070
v 0.039268 0.091294 -0.232263
v -0.000274 -0.066805 -0.220401
f 1236 1228 1243 
f 1220 1222 1223 
f 1220 1223 1224 
f 1224 1221 1228 
f 1226 1225 1228 
f 1227 1222 1229 
f 1228 1225 1230 
f 1220 1219 1231 
f 1222 1220 1231 
f 1219 1230 1231 
f 1221 1224 1232 
f 1224 1223 1232 
f 1229 1222 1233 
f 1222 1231 1233 
f 1231 1230 1233 
f 1218 1226 1234 
f 1223 1227 1234 
f 1228 1221 1235 
f 1226 1228 1235 
f 1221 1232 1235 
f 1232 1223 1235 
f 1223 1234 1235 
f 1234 1226 1235 
f 1219 1220 1236 
f 1220 1224 1236 
f 1224 1228 1236 
f 1230 1225 1237 
f 1229 1233 1237 
f 1233 1230 1237 
f 1226 1218 1239 
f 1225 1226 1239 
f 1218 1238 1239 
f 1223 1222 1240 
f 1222 1227 1240 
f 1227 1223 1240 
f 1227 1229 1241 
f 1218 1234 1241 
f 1234 1227 1241 
f 1238 1218 1241 
f 1229 1238 1241 
f 1237 1225 1242 
f 1229 1237 1242 
f 1238 1229 1242 
f 1225 1239 1242 
f 1239 1238 1242 
f 1230 1219 1243 
f 1228 1230 1243 
f 1219 1236 1243 
o convex_59
v 0.094570 0.115015 -0.255974
v 0.031356 0.178259 -0.220401
v 0.031356 0.178259 -0.224355
v 0.011600 0.115015 -0.259927
v 0.062963 0.162436 -0.263881
v 0.118307 0.134782 -0.220401
v -0.000274 0.162436 -0.263881
v -0.000274 0.174303 -0.220401
v 0.118307 0.126883 -0.263881
v 0.031356 0.115015 -0.244116
v 0.114349 0.146637 -0.224355
v 0.011600 0.115015 -0.263881
v 0.074826 0.166391 -0.220401
v 0.118307 0.118971 -0.263881
f 1255 1252 1257 
f 1246 1248 1250 
f 1245 1246 1251 
f 1249 1245 1251 
f 1246 1250 1251 
f 1250 1247 1251 
f 1250 1248 1252 
f 1247 1244 1253 
f 1244 1249 1253 
f 1249 1251 1253 
f 1251 1247 1253 
f 1252 1248 1254 
f 1249 1252 1254 
f 1244 1247 1255 
f 1247 1250 1255 
f 1250 1252 1255 
f 1246 1245 1256 
f 1248 1246 1256 
f 1245 1249 1256 
f 1254 1248 1256 
f 1249 1254 1256 
f 1249 1244 1257 
f 1252 1249 1257 
f 1244 1255 1257 
o convex_60
v -0.031915 0.134779 -0.303408
v -0.075373 0.095252 -0.346888
v -0.103036 0.095252 -0.323178
v -0.016088 0.095252 -0.315270
v -0.008180 0.107111 -0.346888
v -0.114903 0.095252 -0.303408
v -0.008180 0.126870 -0.303408
v -0.047710 0.111065 -0.346888
v -0.075373 0.122920 -0.307367
v -0.008180 0.095252 -0.346888
v -0.008180 0.134779 -0.311316
v -0.110944 0.103164 -0.311316
f 1266 1265 1269 
f 1260 1259 1261 
f 1260 1261 1263 
f 1263 1261 1264 
f 1258 1263 1264 
f 1262 1259 1265 
f 1263 1258 1266 
f 1258 1265 1266 
f 1261 1259 1267 
f 1259 1262 1267 
f 1264 1261 1267 
f 1262 1264 1267 
f 1258 1264 1268 
f 1264 1262 1268 
f 1265 1258 1268 
f 1262 1265 1268 
f 1259 1260 1269 
f 1260 1263 1269 
f 1265 1259 1269 
f 1263 1266 1269 
o convex_61
v -0.027952 0.194064 -0.165071
v -0.114903 0.138737 -0.220401
v -0.114903 0.146644 -0.220401
v 0.015536 0.178256 -0.220401
v -0.110945 0.154546 -0.157158
v 0.015536 0.186157 -0.161111
v -0.079318 0.174302 -0.196683
v -0.110945 0.166401 -0.153205
v -0.039814 0.178256 -0.220401
v 0.015536 0.194064 -0.153205
v -0.110945 0.138737 -0.212495
v 0.015536 0.174302 -0.212495
v -0.055608 0.190111 -0.153205
v -0.000283 0.190111 -0.192730
f 1279 1273 1283 
f 1271 1272 1273 
f 1272 1271 1277 
f 1271 1274 1277 
f 1276 1272 1277 
f 1273 1272 1278 
f 1272 1276 1278 
f 1276 1270 1278 
f 1274 1275 1279 
f 1275 1273 1279 
f 1277 1274 1279 
f 1274 1271 1280 
f 1275 1274 1280 
f 1275 1280 1281 
f 1271 1273 1281 
f 1273 1275 1281 
f 1280 1271 1281 
f 1270 1276 1282 
f 1276 1277 1282 
f 1279 1270 1282 
f 1277 1279 1282 
f 1273 1278 1283 
f 1278 1270 1283 
f 1270 1279 1283 
o convex_62
v 0.094586 0.170350 -0.165069
v 0.015536 0.174296 -0.220401
v 0.015536 0.174296 -0.208541
v 0.114354 0.134779 -0.216446
v 0.114354 0.146642 -0.153208
v 0.015536 0.194070 -0.149253
v 0.055071 0.174296 -0.220401
v 0.118307 0.146642 -0.216446
v 0.047164 0.190112 -0.149253
v 0.118307 0.154552 -0.149253
v 0.015536 0.186159 -0.157164
v 0.019490 0.190112 -0.188769
v 0.066922 0.178249 -0.192725
v 0.118307 0.134779 -0.220401
f 1291 1293 1297 
f 1286 1285 1287 
f 1286 1287 1288 
f 1285 1286 1289 
f 1289 1288 1293 
f 1291 1284 1293 
f 1284 1292 1293 
f 1292 1289 1293 
f 1286 1288 1294 
f 1289 1286 1294 
f 1288 1289 1294 
f 1285 1289 1295 
f 1290 1285 1295 
f 1289 1292 1295 
f 1295 1292 1296 
f 1291 1290 1296 
f 1284 1291 1296 
f 1292 1284 1296 
f 1290 1295 1296 
f 1287 1285 1297 
f 1288 1287 1297 
f 1285 1290 1297 
f 1290 1291 1297 
f 1293 1288 1297 
o convex_63
v 0.078772 0.178256 -0.089970
v 0.015536 0.190111 -0.149253
v 0.019490 0.178256 -0.050435
v 0.114354 0.138737 -0.062296
v 0.118307 0.154546 -0.149253
v 0.118307 0.146644 -0.046482
v 0.035304 0.186157 -0.050435
v 0.051118 0.190111 -0.145299
v 0.110400 0.150598 -0.149253
v 0.019490 0.194064 -0.078110
v 0.098540 0.170349 -0.121568
v 0.110400 0.138737 -0.050435
v 0.015536 0.186157 -0.046482
v 0.066922 0.174302 -0.046482
v 0.047164 0.190111 -0.089970
v 0.114354 0.158499 -0.089970
v 0.031350 0.194064 -0.149253
f 1307 1312 1314 
f 1301 1302 1303 
f 1302 1301 1306 
f 1299 1302 1306 
f 1305 1298 1308 
f 1302 1305 1308 
f 1300 1299 1309 
f 1301 1303 1309 
f 1299 1306 1309 
f 1306 1301 1309 
f 1299 1300 1310 
f 1307 1299 1310 
f 1304 1307 1310 
f 1300 1309 1310 
f 1309 1303 1310 
f 1303 1298 1311 
f 1310 1303 1311 
f 1304 1310 1311 
f 1298 1305 1312 
f 1307 1304 1312 
f 1311 1298 1312 
f 1304 1311 1312 
f 1298 1303 1313 
f 1303 1302 1313 
f 1308 1298 1313 
f 1302 1308 1313 
f 1302 1299 1314 
f 1305 1302 1314 
f 1299 1307 1314 
f 1312 1305 1314 
