o convex_0
v 0.021546 -0.047776 -0.573336
v 0.102404 0.049757 -0.573336
v 0.097647 0.047370 -0.568578
v 0.100025 -0.014463 -0.563819
v 0.014410 -0.009700 -0.521011
v 0.042955 -0.033496 -0.521011
v 0.009652 -0.016839 -0.570957
v 0.092900 0.047370 -0.582853
v 0.114319 -0.000203 -0.578095
v 0.014410 -0.035873 -0.521011
v 0.050102 -0.045399 -0.559061
v 0.064354 0.035477 -0.573336
v 0.045345 -0.012086 -0.521011
v 0.014410 -0.033496 -0.578095
v 0.111930 0.002174 -0.568578
v 0.007263 -0.038259 -0.559061
v 0.035819 -0.040636 -0.521011
v 0.078627 -0.026356 -0.575716
v 0.081006 -0.009700 -0.580474
v 0.021546 -0.050162 -0.559061
v 0.081006 0.044994 -0.568578
v 0.109551 0.033100 -0.570957
v 0.021546 -0.004946 -0.521011
v 0.078627 -0.031119 -0.561440
v 0.035819 -0.045399 -0.575716
v 0.014410 -0.021603 -0.578095
v 0.102404 0.044994 -0.582853
v 0.038198 -0.004946 -0.521011
v 0.064354 0.033100 -0.578095
v 0.050102 -0.045399 -0.568578
v 0.012031 -0.014463 -0.521011
v 0.100025 0.002174 -0.559061
v 0.035819 -0.050162 -0.561440
v 0.092900 -0.021603 -0.570957
v 0.009652 -0.043022 -0.568578
v 0.019167 -0.040636 -0.521011
f 16 35 36 
f 6 5 10 
f 7 5 12 
f 5 6 13 
f 6 4 15 
f 4 9 15 
f 4 6 17 
f 6 10 17 
f 14 8 19 
f 9 18 19 
f 3 2 21 
f 2 8 21 
f 8 12 21 
f 2 3 22 
f 3 13 22 
f 15 9 22 
f 12 5 23 
f 5 13 23 
f 3 21 23 
f 21 12 23 
f 4 17 24 
f 17 11 24 
f 1 14 25 
f 14 19 25 
f 19 18 25 
f 14 7 26 
f 8 14 26 
f 8 2 27 
f 19 8 27 
f 9 19 27 
f 2 22 27 
f 22 9 27 
f 13 3 28 
f 3 23 28 
f 23 13 28 
f 7 12 29 
f 12 8 29 
f 26 7 29 
f 8 26 29 
f 24 11 30 
f 25 18 30 
f 5 7 31 
f 10 5 31 
f 7 16 31 
f 16 10 31 
f 13 6 32 
f 6 15 32 
f 22 13 32 
f 15 22 32 
f 11 17 33 
f 20 1 33 
f 17 20 33 
f 1 25 33 
f 30 11 33 
f 25 30 33 
f 9 4 34 
f 18 9 34 
f 4 24 34 
f 24 30 34 
f 30 18 34 
f 7 14 35 
f 14 1 35 
f 16 7 35 
f 1 20 35 
f 35 20 36 
f 10 16 36 
f 17 10 36 
f 20 17 36 
o convex_1
v -0.037940 -0.019227 -0.204597
v -0.047455 0.066404 -0.197457
v -0.056970 0.066404 -0.197457
v -0.035565 0.099702 -0.297376
v -0.087898 0.011696 -0.206984
v -0.056970 0.045005 -0.297376
v -0.016527 0.004559 -0.197457
v -0.071236 0.078291 -0.278324
v -0.028425 0.059267 -0.297376
v -0.071236 -0.016852 -0.197457
v -0.021292 0.047380 -0.197457
v -0.087898 0.037880 -0.197457
v -0.026049 0.087803 -0.297376
v -0.052213 0.099702 -0.297376
v -0.035565 0.040243 -0.290237
v -0.068861 0.049755 -0.287860
v -0.073618 0.059267 -0.197457
v -0.023667 -0.012078 -0.199844
v -0.071236 -0.009703 -0.211737
v -0.033189 0.083053 -0.249794
v -0.016527 0.033118 -0.202240
v -0.056970 -0.016852 -0.209360
v -0.049837 0.087803 -0.252170
v -0.076001 0.061654 -0.268827
v -0.064096 0.073529 -0.297376
v -0.066485 0.083053 -0.259310
v -0.052213 0.035505 -0.287860
v -0.083133 -0.004953 -0.199844
v -0.030807 0.059267 -0.197457
v -0.026049 0.047380 -0.280720
v -0.080758 0.054517 -0.206984
v -0.035565 -0.021614 -0.197457
v -0.026049 0.066404 -0.297376
v -0.066485 0.040243 -0.283097
v -0.030807 0.097327 -0.294990
v -0.059345 0.085428 -0.252170
v -0.087898 0.033118 -0.211737
v -0.073618 0.054517 -0.278324
v -0.040329 0.085428 -0.247417
f 56 71 75 
f 38 39 43 
f 42 40 45 
f 43 39 46 
f 38 43 47 
f 46 39 48 
f 45 40 49 
f 40 42 50 
f 42 45 51 
f 48 39 53 
f 37 51 54 
f 47 43 57 
f 49 47 57 
f 46 55 58 
f 39 38 59 
f 40 50 59 
f 50 42 61 
f 44 50 61 
f 42 52 61 
f 50 44 62 
f 51 37 63 
f 42 51 63 
f 55 42 63 
f 37 58 63 
f 58 55 63 
f 48 41 64 
f 46 48 64 
f 55 46 64 
f 38 47 65 
f 47 56 65 
f 51 45 66 
f 43 54 66 
f 54 51 66 
f 44 48 67 
f 48 53 67 
f 62 44 67 
f 53 62 67 
f 43 46 68 
f 54 43 68 
f 37 54 68 
f 58 37 68 
f 46 58 68 
f 45 49 69 
f 57 43 69 
f 49 57 69 
f 66 45 69 
f 43 66 69 
f 41 52 70 
f 52 42 70 
f 42 55 70 
f 64 41 70 
f 55 64 70 
f 49 40 71 
f 47 49 71 
f 56 47 71 
f 53 39 72 
f 39 59 72 
f 59 50 72 
f 50 62 72 
f 62 53 72 
f 48 44 73 
f 41 48 73 
f 44 60 73 
f 73 60 74 
f 52 41 74 
f 60 44 74 
f 61 52 74 
f 44 61 74 
f 41 73 74 
f 59 38 75 
f 40 59 75 
f 38 65 75 
f 65 56 75 
f 71 40 75 
o convex_2
v -0.228261 -0.033500 -0.142738
v -0.199715 -0.000206 -0.085643
v -0.211605 -0.000206 -0.085643
v -0.194960 0.028346 -0.142738
v -0.202100 -0.043022 -0.116563
v -0.180680 0.016449 -0.140351
v -0.218736 -0.040640 -0.085643
v -0.225876 -0.000206 -0.126076
v -0.197335 -0.035875 -0.085643
v -0.211605 -0.043022 -0.145119
v -0.223501 -0.014463 -0.085643
v -0.221121 0.006934 -0.145119
v -0.180680 0.025963 -0.133213
v -0.211605 0.011691 -0.102305
v -0.187820 -0.009706 -0.097543
v -0.185440 0.023581 -0.145119
v -0.221121 -0.045404 -0.135600
v -0.194960 0.014066 -0.099924
v -0.228261 -0.033500 -0.121325
v -0.206841 -0.045404 -0.097543
v -0.190204 -0.000206 -0.092781
v -0.228261 -0.007345 -0.137981
v -0.223501 -0.035875 -0.085643
v -0.194960 0.028346 -0.135600
v -0.218736 0.004552 -0.099924
v -0.225876 -0.040640 -0.145119
v -0.221121 -0.045404 -0.111818
v -0.228261 -0.014463 -0.116563
f 94 98 103 
f 77 78 82 
f 77 82 84 
f 81 80 85 
f 82 78 86 
f 80 81 90 
f 84 80 90 
f 81 88 90 
f 81 85 91 
f 87 79 91 
f 85 87 91 
f 79 88 91 
f 88 81 91 
f 78 77 93 
f 89 78 93 
f 80 84 95 
f 84 82 95 
f 85 80 95 
f 92 85 95 
f 77 84 96 
f 84 90 96 
f 90 88 96 
f 93 77 96 
f 88 93 96 
f 83 87 97 
f 87 76 97 
f 76 94 97 
f 82 86 98 
f 79 87 99 
f 88 79 99 
f 87 89 99 
f 93 88 99 
f 89 93 99 
f 86 78 100 
f 83 86 100 
f 87 83 100 
f 78 89 100 
f 89 87 100 
f 76 87 101 
f 87 85 101 
f 85 92 101 
f 94 76 101 
f 95 82 102 
f 92 95 102 
f 82 98 102 
f 98 94 102 
f 101 92 102 
f 94 101 102 
f 86 83 103 
f 83 97 103 
f 97 94 103 
f 98 86 103 
o convex_3
v -0.161641 -0.031132 -0.035657
v -0.095035 -0.028762 0.166512
v -0.097415 -0.028762 0.166512
v -0.095035 -0.071573 0.137968
v -0.178293 -0.057288 0.035703
v -0.095035 0.004555 0.097534
v -0.164013 -0.014484 0.052357
v -0.128346 -0.024000 0.147475
v -0.102175 -0.059673 0.078497
v -0.178293 -0.059673 -0.028532
v -0.178293 -0.016861 -0.033275
v -0.125975 -0.054911 0.142711
v -0.095035 -0.021616 0.076115
v -0.111695 -0.002591 0.137968
v -0.156881 -0.045402 -0.028532
v -0.175913 -0.031132 0.042850
v -0.095035 -0.071573 0.109424
v -0.178293 -0.064427 0.011923
v -0.152130 -0.007345 0.054739
v -0.175913 -0.028762 -0.054694
v -0.111695 -0.066804 0.140350
v -0.106935 -0.052534 0.161769
v -0.095035 -0.004961 0.152240
v -0.133106 -0.043018 0.140350
v -0.161641 -0.057288 -0.021385
v -0.178293 -0.016861 0.002416
v -0.168773 -0.064427 -0.007113
v -0.116455 -0.012107 0.152240
v -0.095035 -0.031139 0.076115
v -0.095035 -0.007345 0.083262
v -0.118835 -0.038256 0.159365
v -0.178293 -0.040640 -0.054694
v -0.109315 -0.071573 0.126078
v -0.175913 -0.021616 -0.047547
v -0.130726 -0.014484 0.133203
v -0.097415 0.004555 0.111806
v -0.178293 -0.043018 0.040467
v -0.095035 -0.054911 0.161769
v -0.123586 -0.064427 0.128460
v -0.135486 -0.026377 0.135586
v -0.168773 -0.019246 0.049975
v -0.109315 -0.019239 0.161769
v -0.125975 -0.007345 0.126078
v -0.102175 -0.054911 0.073754
v -0.178293 -0.062050 0.026195
v -0.178293 -0.064427 -0.007113
v -0.104555 -0.062057 0.154622
f 141 125 150 
f 105 107 109 
f 113 108 114 
f 109 107 116 
f 104 116 118 
f 116 107 120 
f 108 113 121 
f 109 114 122 
f 104 118 123 
f 105 109 126 
f 108 115 127 
f 118 112 128 
f 112 120 128 
f 114 108 129 
f 122 114 129 
f 110 122 129 
f 113 128 130 
f 128 120 130 
f 126 117 131 
f 118 116 132 
f 116 120 132 
f 109 116 133 
f 116 104 133 
f 104 123 133 
f 125 106 134 
f 115 125 134 
f 127 115 134 
f 111 127 134 
f 113 114 135 
f 114 123 135 
f 123 118 135 
f 118 128 135 
f 128 113 135 
f 120 107 136 
f 107 124 136 
f 114 109 137 
f 123 114 137 
f 109 133 137 
f 133 123 137 
f 111 131 138 
f 109 122 139 
f 122 117 139 
f 126 109 139 
f 117 126 139 
f 108 127 140 
f 129 108 140 
f 119 129 140 
f 105 106 141 
f 107 105 141 
f 106 125 141 
f 115 108 142 
f 124 115 142 
f 136 124 142 
f 127 111 143 
f 111 138 143 
f 119 140 143 
f 140 127 143 
f 129 119 144 
f 110 129 144 
f 138 110 144 
f 119 143 144 
f 143 138 144 
f 106 105 145 
f 105 126 145 
f 131 111 145 
f 126 131 145 
f 134 106 145 
f 111 134 145 
f 122 110 146 
f 117 122 146 
f 131 117 146 
f 110 138 146 
f 138 131 146 
f 112 118 147 
f 120 112 147 
f 118 132 147 
f 132 120 147 
f 108 121 148 
f 121 136 148 
f 142 108 148 
f 136 142 148 
f 121 113 149 
f 113 130 149 
f 130 120 149 
f 120 136 149 
f 136 121 149 
f 124 107 150 
f 115 124 150 
f 125 115 150 
f 107 141 150 
o convex_4
v 0.100045 -0.007345 0.142726
v 0.076255 -0.071573 0.109429
v 0.076255 -0.069182 0.104670
v 0.123835 -0.059665 0.030931
v 0.076255 0.006930 0.092794
v 0.114311 -0.052539 0.135580
v 0.123835 -0.007345 0.042835
v 0.076255 -0.040639 0.166534
v 0.076255 -0.016870 0.073759
v 0.123835 -0.031130 0.118946
v 0.123835 -0.066815 0.076146
v 0.085779 -0.066815 0.147499
v 0.114311 -0.047781 0.028558
v 0.076255 -0.004962 0.152257
v 0.097674 -0.031130 0.161775
v 0.121451 -0.021621 0.026172
v 0.123835 -0.007345 0.076146
v 0.078639 0.009314 0.114187
v 0.076255 -0.035881 0.073759
v 0.114311 -0.019246 0.137981
v 0.095290 -0.052539 0.159374
v 0.076255 -0.071573 0.137981
v 0.095290 -0.057298 0.059483
v 0.102416 -0.064424 0.135580
v 0.121451 -0.064424 0.040448
v 0.111940 -0.038256 0.147499
v 0.088155 -0.016870 0.161775
v 0.090530 -0.071573 0.128464
v 0.123835 -0.059665 0.097539
v 0.121451 -0.033505 0.021413
v 0.109560 -0.007345 0.123705
v 0.123835 -0.066815 0.052352
v 0.076255 -0.054907 0.161775
v 0.104800 -0.019246 0.152257
v 0.121451 -0.040639 0.128464
f 179 160 185 
f 153 152 155 
f 155 152 158 
f 153 155 159 
f 154 157 160 
f 154 160 161 
f 155 158 164 
f 155 157 166 
f 159 155 166 
f 160 157 167 
f 157 155 168 
f 164 151 168 
f 155 164 168 
f 167 157 168 
f 153 159 169 
f 159 163 169 
f 160 167 170 
f 165 158 171 
f 158 152 172 
f 163 154 173 
f 153 169 173 
f 169 163 173 
f 171 162 174 
f 156 171 174 
f 152 153 175 
f 153 173 175 
f 173 154 175 
f 171 156 176 
f 165 171 176 
f 151 164 177 
f 164 158 177 
f 158 165 177 
f 172 152 178 
f 162 172 178 
f 161 174 178 
f 174 162 178 
f 161 160 179 
f 156 174 179 
f 174 161 179 
f 157 154 180 
f 154 163 180 
f 163 159 180 
f 166 157 180 
f 159 166 180 
f 168 151 181 
f 167 168 181 
f 151 170 181 
f 170 167 181 
f 154 161 182 
f 152 175 182 
f 175 154 182 
f 178 152 182 
f 161 178 182 
f 171 158 183 
f 162 171 183 
f 158 172 183 
f 172 162 183 
f 170 151 184 
f 176 170 184 
f 165 176 184 
f 151 177 184 
f 177 165 184 
f 160 170 185 
f 176 156 185 
f 170 176 185 
f 156 179 185 
o convex_5
v 0.130974 -0.012102 0.078495
v 0.123835 -0.066815 0.049948
v 0.128597 -0.066815 0.049948
v 0.161900 -0.026377 -0.054692
v 0.161900 -0.052540 0.038062
v 0.123835 -0.012102 0.033304
v 0.123835 -0.050159 0.102284
v 0.142868 -0.054916 -0.023774
v 0.161900 -0.016858 0.002386
v 0.161900 -0.062053 -0.019017
v 0.128597 -0.040640 -0.004743
v 0.154761 -0.026377 0.049948
v 0.126220 -0.028752 0.102284
v 0.161900 -0.062053 0.023788
v 0.123835 -0.007340 0.042819
v 0.126220 -0.062053 0.090382
v 0.142868 -0.031139 -0.033290
v 0.159515 -0.043022 -0.054692
v 0.159515 -0.016858 -0.035661
v 0.133359 -0.007340 0.059464
v 0.123835 -0.059672 0.028546
v 0.123835 -0.009721 0.080866
v 0.138109 -0.043022 0.085624
v 0.145245 -0.064428 -0.002372
v 0.133359 -0.050159 -0.014259
v 0.147626 -0.016858 0.054706
v 0.161900 -0.064428 0.009530
v 0.157138 -0.021615 -0.045177
v 0.161900 -0.038259 0.038062
v 0.126220 -0.066815 0.071351
v 0.130974 -0.054916 0.092769
v 0.135736 -0.062053 0.002386
v 0.157138 -0.057297 -0.033290
v 0.140490 -0.026377 0.078495
f 208 214 219 
f 191 187 192 
f 190 189 194 
f 189 190 195 
f 195 190 199 
f 191 192 200 
f 192 187 201 
f 196 191 202 
f 189 195 203 
f 202 189 203 
f 194 189 204 
f 194 204 205 
f 204 200 205 
f 187 191 206 
f 191 196 206 
f 198 186 207 
f 192 198 207 
f 200 192 207 
f 186 205 207 
f 205 200 207 
f 198 192 208 
f 188 187 209 
f 196 202 210 
f 203 193 210 
f 202 203 210 
f 206 196 210 
f 197 194 211 
f 205 186 211 
f 194 205 211 
f 195 199 212 
f 188 209 212 
f 209 195 212 
f 191 200 213 
f 189 202 213 
f 202 191 213 
f 204 189 213 
f 200 204 213 
f 190 194 214 
f 194 197 214 
f 208 190 214 
f 187 188 215 
f 201 187 215 
f 199 201 215 
f 212 199 215 
f 188 212 215 
f 199 190 216 
f 192 201 216 
f 201 199 216 
f 190 208 216 
f 208 192 216 
f 187 206 217 
f 209 187 217 
f 193 209 217 
f 210 193 217 
f 206 210 217 
f 203 195 218 
f 193 203 218 
f 195 209 218 
f 209 193 218 
f 186 198 219 
f 198 208 219 
f 197 211 219 
f 211 186 219 
f 214 197 219 
o convex_6
v 0.166662 -0.014479 -0.007148
v 0.161900 -0.062057 -0.019048
v 0.161900 -0.059676 -0.028537
v 0.204722 -0.035884 -0.083264
v 0.183311 -0.045402 0.014254
v 0.188064 -0.004961 -0.083264
v 0.161900 -0.038260 -0.059464
v 0.204722 -0.014479 -0.071364
v 0.161900 -0.040646 0.038066
v 0.183311 -0.021616 0.002366
v 0.180934 -0.040646 -0.083264
v 0.176177 -0.059676 0.002366
v 0.161900 -0.016860 -0.040437
v 0.195199 -0.040646 -0.014285
v 0.161900 -0.059676 0.028541
v 0.192826 -0.047783 -0.064226
v 0.195199 -0.004961 -0.080877
v 0.161900 -0.019240 0.011890
v 0.176177 -0.021616 -0.080877
v 0.192826 -0.047783 -0.014285
v 0.188064 -0.028758 0.002366
v 0.171423 -0.033509 0.028541
v 0.173796 -0.016860 0.002366
v 0.192826 -0.043016 -0.083264
v 0.169038 -0.050158 0.033292
v 0.171423 -0.062057 -0.011910
v 0.161900 -0.021616 -0.052326
v 0.204722 -0.014479 -0.083264
v 0.195199 -0.047783 -0.045188
f 245 235 248 
f 222 221 226 
f 226 221 228 
f 225 223 230 
f 222 226 230 
f 220 225 232 
f 226 228 232 
f 223 227 233 
f 228 221 234 
f 225 220 236 
f 229 227 236 
f 220 232 237 
f 232 228 237 
f 225 230 238 
f 230 226 238 
f 224 231 239 
f 223 233 239 
f 233 224 239 
f 227 229 240 
f 233 227 240 
f 224 233 240 
f 237 228 241 
f 224 240 241 
f 240 229 241 
f 236 220 242 
f 229 236 242 
f 220 237 242 
f 241 229 242 
f 237 241 242 
f 221 222 243 
f 222 230 243 
f 230 223 243 
f 235 221 243 
f 223 235 243 
f 231 224 244 
f 228 234 244 
f 234 231 244 
f 224 241 244 
f 241 228 244 
f 234 221 245 
f 231 234 245 
f 221 235 245 
f 232 225 246 
f 226 232 246 
f 225 238 246 
f 238 226 246 
f 223 225 247 
f 227 223 247 
f 225 236 247 
f 236 227 247 
f 235 223 248 
f 239 231 248 
f 223 239 248 
f 231 245 248 
o convex_7
v 0.054841 -0.007346 -0.321201
v 0.023921 -0.064436 -0.416352
v 0.021547 -0.059672 -0.440095
v -0.002246 -0.021624 -0.375918
v 0.038181 -0.004964 -0.521005
v 0.059601 -0.045393 -0.406831
v 0.033421 0.014072 -0.323571
v 0.028674 -0.038262 -0.314050
v 0.012028 -0.014477 -0.521005
v 0.035808 -0.040644 -0.521005
v 0.000128 -0.050150 -0.390179
v 0.014401 -0.038262 -0.516224
v 0.042941 -0.062054 -0.387809
v 0.012028 -0.014477 -0.318810
v 0.045321 -0.012103 -0.521005
v 0.050081 0.009307 -0.333092
v 0.061981 -0.026366 -0.397310
v 0.050081 -0.033505 -0.321201
v 0.002514 -0.009721 -0.397310
v 0.021547 -0.004964 -0.521005
v -0.004632 -0.033505 -0.409222
v 0.019161 -0.064436 -0.387809
v 0.023921 0.009307 -0.318810
v 0.012028 -0.033505 -0.323571
v 0.045321 -0.031123 -0.521005
v 0.045321 -0.059672 -0.416352
v 0.050081 -0.000207 -0.314050
v 0.004888 -0.054907 -0.413962
v 0.059601 -0.043019 -0.380658
v 0.042941 0.014072 -0.328332
v 0.026301 0.011689 -0.333092
v -0.004632 -0.023999 -0.406831
v 0.021547 0.002175 -0.314050
v 0.012028 -0.031123 -0.521005
v -0.004632 -0.033505 -0.385419
v -0.002246 -0.045393 -0.406831
v 0.035808 -0.064436 -0.413962
v 0.026301 -0.043019 -0.518594
v 0.009648 -0.057297 -0.378288
v 0.014401 -0.002589 -0.321201
v 0.057214 -0.012103 -0.387809
v 0.035808 -0.064436 -0.385419
v 0.045321 -0.035887 -0.316440
v 0.012028 -0.062054 -0.406831
v 0.052454 -0.054907 -0.387809
v 0.061981 -0.038262 -0.402071
v 0.059601 -0.031123 -0.361636
v 0.050081 -0.054907 -0.421072
v 0.033421 0.014072 -0.333092
v 0.054841 -0.000207 -0.330702
v 0.016788 -0.028740 -0.314050
v 0.045321 0.011689 -0.318810
f 298 264 300 
f 257 253 258 
f 258 253 263 
f 263 253 264 
f 253 257 268 
f 257 267 268 
f 258 263 273 
f 266 249 275 
f 264 253 278 
f 268 267 279 
f 271 255 279 
f 267 271 279 
f 252 267 280 
f 267 257 280 
f 257 269 280 
f 256 275 281 
f 257 258 282 
f 269 257 282 
f 262 252 283 
f 259 272 283 
f 272 262 283 
f 252 280 283 
f 280 269 283 
f 260 276 284 
f 276 259 284 
f 282 260 284 
f 269 282 284 
f 259 283 284 
f 283 269 284 
f 250 251 285 
f 270 250 285 
f 258 274 285 
f 274 261 285 
f 251 260 286 
f 282 258 286 
f 260 282 286 
f 285 251 286 
f 258 285 286 
f 270 256 287 
f 272 259 287 
f 256 272 287 
f 252 262 288 
f 267 252 288 
f 271 267 288 
f 262 281 288 
f 281 271 288 
f 263 264 289 
f 265 263 289 
f 256 270 290 
f 270 285 290 
f 285 261 290 
f 266 275 291 
f 275 256 291 
f 256 290 291 
f 290 261 291 
f 251 250 292 
f 260 251 292 
f 250 270 292 
f 276 260 292 
f 259 276 292 
f 270 287 292 
f 287 259 292 
f 261 274 293 
f 254 277 293 
f 277 266 293 
f 291 261 293 
f 266 291 293 
f 263 265 294 
f 254 273 294 
f 273 263 294 
f 277 254 294 
f 277 294 295 
f 265 249 295 
f 249 266 295 
f 266 277 295 
f 294 265 295 
f 273 254 296 
f 258 273 296 
f 274 258 296 
f 254 293 296 
f 293 274 296 
f 253 268 297 
f 278 253 297 
f 255 278 297 
f 279 255 297 
f 268 279 297 
f 249 265 298 
f 275 249 298 
f 289 264 298 
f 265 289 298 
f 262 272 299 
f 272 256 299 
f 256 281 299 
f 281 262 299 
f 255 271 300 
f 264 278 300 
f 278 255 300 
f 271 281 300 
f 281 275 300 
f 275 298 300 
o convex_8
v 0.054844 0.018826 -0.221258
v 0.033434 -0.052541 -0.233158
v 0.035811 -0.052541 -0.233158
v 0.031057 0.004548 -0.314018
v -0.002253 -0.007345 -0.197469
v 0.073876 -0.023993 -0.197469
v 0.028680 -0.043025 -0.311634
v 0.059598 -0.021601 -0.299745
v 0.009648 -0.047779 -0.197469
v 0.023918 0.023588 -0.197469
v 0.009648 -0.028747 -0.297360
v 0.054844 -0.050157 -0.199853
v 0.016779 0.004548 -0.290229
v 0.069114 0.006933 -0.197469
v 0.057221 -0.002583 -0.299745
v 0.047697 -0.043025 -0.297360
v 0.038189 0.011687 -0.294987
v -0.002253 -0.028747 -0.199853
v 0.016779 -0.043025 -0.299745
v 0.052451 -0.019224 -0.314018
v 0.004886 0.009310 -0.202227
v 0.066737 -0.038256 -0.211742
v 0.071491 -0.004961 -0.223642
v 0.019164 -0.009730 -0.314018
v 0.050074 0.023588 -0.204611
v 0.009648 -0.012107 -0.292602
v 0.019164 -0.052541 -0.197469
v 0.026295 -0.047779 -0.294987
v 0.026295 0.011687 -0.290229
v 0.014402 0.018826 -0.204611
v 0.019164 -0.033502 -0.314018
v 0.002509 -0.040640 -0.199853
v 0.047697 0.009310 -0.292602
v 0.064360 0.011687 -0.216500
v 0.033434 0.023588 -0.214127
v 0.040566 -0.047779 -0.287844
v 0.047697 -0.033502 -0.314018
v 0.057221 -0.033502 -0.290229
v 0.071491 -0.023993 -0.223642
v 0.042943 0.002171 -0.314018
v 0.047697 -0.052541 -0.197469
v 0.059598 0.018826 -0.197469
v 0.009648 -0.035879 -0.285471
v 0.007263 -0.016846 -0.283087
v 0.061975 -0.009730 -0.287844
f 339 308 345 
f 306 305 309 
f 305 306 310 
f 310 306 314 
f 309 305 318 
f 315 308 320 
f 305 310 321 
f 306 312 322 
f 312 316 322 
f 314 306 323 
f 313 304 324 
f 304 320 324 
f 305 321 326 
f 321 313 326 
f 313 324 326 
f 324 311 326 
f 302 303 327 
f 306 309 327 
f 309 319 327 
f 327 319 328 
f 303 302 328 
f 319 307 328 
f 302 327 328 
f 304 313 329 
f 317 304 329 
f 321 310 330 
f 313 321 330 
f 329 313 330 
f 310 329 330 
f 319 311 331 
f 307 319 331 
f 311 324 331 
f 324 320 331 
f 309 318 332 
f 319 309 332 
f 325 301 333 
f 317 325 333 
f 314 323 334 
f 323 315 334 
f 333 301 334 
f 315 333 334 
f 310 325 335 
f 325 317 335 
f 329 310 335 
f 317 329 335 
f 307 316 336 
f 316 312 336 
f 303 328 336 
f 328 307 336 
f 316 307 337 
f 320 308 337 
f 307 331 337 
f 331 320 337 
f 322 316 338 
f 316 337 338 
f 337 308 338 
f 306 322 339 
f 323 306 339 
f 338 308 339 
f 322 338 339 
f 304 317 340 
f 320 304 340 
f 315 320 340 
f 333 315 340 
f 317 333 340 
f 312 306 341 
f 327 303 341 
f 306 327 341 
f 303 336 341 
f 336 312 341 
f 310 314 342 
f 301 325 342 
f 325 310 342 
f 314 334 342 
f 334 301 342 
f 318 311 343 
f 311 319 343 
f 332 318 343 
f 319 332 343 
f 318 305 344 
f 311 318 344 
f 305 326 344 
f 326 311 344 
f 308 315 345 
f 315 323 345 
f 323 339 345 
o convex_9
v -0.009391 0.121128 -0.497201
v -0.033172 0.054515 -0.437743
v -0.026043 0.054515 -0.437743
v -0.018909 0.104468 -0.430602
v -0.052213 0.087821 -0.430602
v -0.023665 0.092568 -0.518616
v 0.002505 0.092568 -0.506722
v -0.007013 0.068795 -0.430602
v -0.023665 0.118741 -0.509094
v 0.002505 0.111601 -0.497201
v -0.047446 0.059275 -0.430602
v -0.037933 0.104468 -0.430602
v -0.004635 0.087821 -0.516244
v -0.007013 0.092568 -0.430602
v -0.004635 0.116368 -0.513855
v -0.028421 0.094955 -0.513855
v -0.016536 0.056895 -0.435363
v -0.052213 0.068795 -0.432982
v -0.028421 0.109228 -0.513855
v -0.018909 0.085448 -0.513855
v -0.011774 0.106848 -0.521005
v 0.002505 0.097328 -0.487697
v 0.002505 0.106848 -0.513855
v -0.002257 0.118741 -0.499581
v -0.045073 0.056895 -0.432982
v -0.049829 0.092568 -0.435363
v -0.021287 0.054515 -0.430602
f 356 370 372 
f 349 350 353 
f 353 350 356 
f 349 346 357 
f 350 349 357 
f 346 354 357 
f 349 353 359 
f 354 346 360 
f 352 353 362 
f 348 358 362 
f 358 352 362 
f 356 350 363 
f 361 363 364 
f 351 361 364 
f 363 350 364 
f 348 347 365 
f 358 348 365 
f 351 358 365 
f 358 351 366 
f 354 360 366 
f 364 354 366 
f 351 364 366 
f 353 352 367 
f 352 355 367 
f 359 353 367 
f 355 359 367 
f 355 352 368 
f 352 358 368 
f 358 366 368 
f 366 360 368 
f 346 349 369 
f 349 359 369 
f 359 355 369 
f 360 346 369 
f 355 368 369 
f 368 360 369 
f 361 351 370 
f 356 363 370 
f 363 361 370 
f 365 347 370 
f 351 365 370 
f 350 357 371 
f 357 354 371 
f 364 350 371 
f 354 364 371 
f 347 348 372 
f 353 356 372 
f 362 353 372 
f 348 362 372 
f 370 347 372 
o convex_10
v -0.030807 0.104475 -0.411549
v -0.040314 0.035483 -0.385389
v -0.035567 0.035483 -0.385389
v -0.037931 0.102091 -0.297376
v -0.068866 0.080683 -0.383016
v -0.004632 0.064043 -0.361629
v -0.054587 0.047382 -0.297376
v -0.007015 0.090198 -0.430602
v -0.052210 0.066420 -0.430602
v -0.030807 0.052136 -0.297376
v -0.016528 0.054520 -0.428202
v -0.056970 0.097336 -0.302149
v -0.061717 0.045005 -0.378256
v -0.037931 0.104475 -0.430602
v -0.066483 0.066420 -0.299776
v -0.026048 0.092575 -0.299776
v -0.018911 0.040244 -0.366350
v -0.016528 0.102091 -0.425829
v -0.004632 0.056904 -0.390136
v -0.037931 0.052136 -0.430602
v -0.004632 0.078292 -0.371122
v -0.068866 0.061665 -0.383016
v -0.054587 0.083053 -0.428202
v -0.023665 0.071160 -0.297376
v -0.059346 0.092575 -0.390136
v -0.064100 0.080683 -0.297376
v -0.033184 0.035483 -0.366350
v -0.064100 0.054520 -0.304523
v -0.007015 0.068797 -0.430602
v -0.054587 0.045005 -0.399669
v -0.047444 0.035483 -0.373483
v -0.009392 0.049759 -0.363989
v -0.049833 0.102091 -0.309296
v -0.016528 0.042621 -0.390136
v -0.068866 0.080683 -0.347362
v -0.035567 0.047382 -0.302149
v -0.068866 0.059275 -0.356856
v -0.009392 0.094952 -0.425829
v -0.049833 0.092575 -0.430602
v -0.064100 0.064043 -0.402042
v -0.004632 0.078292 -0.418682
v -0.021288 0.104475 -0.430602
v -0.056970 0.040244 -0.371122
v -0.054587 0.097336 -0.380616
v -0.023665 0.052136 -0.430602
v -0.023665 0.080683 -0.297376
f 376 396 418 
f 376 379 382 
f 380 381 386 
f 376 388 390 
f 375 374 392 
f 381 380 392 
f 378 391 393 
f 382 378 396 
f 376 382 396 
f 377 384 397 
f 379 376 398 
f 376 384 398 
f 387 379 398 
f 374 375 399 
f 375 389 399 
f 379 387 400 
f 391 383 401 
f 392 380 401 
f 392 374 402 
f 381 392 402 
f 374 399 403 
f 399 379 403 
f 402 374 403 
f 378 382 404 
f 382 389 404 
f 391 378 404 
f 376 373 405 
f 384 376 405 
f 373 386 405 
f 389 375 406 
f 383 391 406 
f 404 389 406 
f 391 404 406 
f 384 377 407 
f 377 394 407 
f 398 384 407 
f 387 398 407 
f 382 379 408 
f 389 382 408 
f 379 399 408 
f 399 389 408 
f 394 385 409 
f 385 400 409 
f 400 387 409 
f 407 394 409 
f 387 407 409 
f 380 390 410 
f 390 388 410 
f 388 393 410 
f 393 380 410 
f 386 381 411 
f 395 377 411 
f 381 395 411 
f 377 397 411 
f 397 386 411 
f 394 377 412 
f 385 394 412 
f 377 395 412 
f 395 381 412 
f 402 385 412 
f 381 402 412 
f 380 393 413 
f 393 391 413 
f 401 380 413 
f 391 401 413 
f 373 376 414 
f 386 373 414 
f 380 386 414 
f 376 390 414 
f 390 380 414 
f 379 400 415 
f 400 385 415 
f 385 402 415 
f 403 379 415 
f 402 403 415 
f 397 384 416 
f 386 397 416 
f 384 405 416 
f 405 386 416 
f 375 392 417 
f 401 383 417 
f 392 401 417 
f 406 375 417 
f 383 406 417 
f 388 376 418 
f 378 393 418 
f 393 388 418 
f 396 378 418 
o convex_11
v -0.180681 -0.014479 -0.009524
v -0.180681 -0.064436 0.002380
v -0.178301 -0.064436 0.002380
v -0.199720 -0.040641 -0.085643
v -0.213981 -0.031136 -0.021415
v -0.211600 -0.002582 -0.085643
v -0.178301 -0.028756 -0.057089
v -0.221122 -0.038262 -0.085643
v -0.178301 -0.040641 0.038066
v -0.204464 -0.052539 -0.004765
v -0.197340 -0.021618 0.007127
v -0.199720 -0.004961 -0.085643
v -0.221122 -0.012106 -0.073740
v -0.178301 -0.057298 -0.035680
v -0.190203 -0.050153 0.028548
v -0.199720 -0.054912 -0.042812
v -0.178301 -0.016859 -0.038053
v -0.202083 -0.033509 0.011886
v -0.178301 -0.024003 0.021404
v -0.180681 -0.059677 0.028548
v -0.194955 -0.035882 -0.085643
v -0.216361 -0.040641 -0.035680
v -0.223502 -0.026383 -0.071366
v -0.187823 -0.016859 0.004753
v -0.206848 -0.043021 0.002380
v -0.204464 -0.021618 -0.004765
v -0.223502 -0.016859 -0.085643
v -0.178301 -0.040641 -0.057089
v -0.185442 -0.035882 0.033307
v -0.206848 -0.052539 -0.023788
v -0.209224 -0.043021 -0.083258
v -0.194955 -0.059677 -0.004765
f 448 434 450 
f 424 422 426 
f 421 425 427 
f 424 419 430 
f 422 424 430 
f 421 420 432 
f 425 421 432 
f 432 420 434 
f 427 425 435 
f 430 419 435 
f 425 430 435 
f 435 419 437 
f 427 435 437 
f 420 421 438 
f 421 427 438 
f 427 433 438 
f 433 428 438 
f 422 430 439 
f 430 425 439 
f 432 422 439 
f 423 431 441 
f 426 440 441 
f 440 423 441 
f 419 424 442 
f 424 429 442 
f 429 437 442 
f 437 419 442 
f 428 433 443 
f 436 423 443 
f 433 436 443 
f 440 428 443 
f 423 440 443 
f 429 424 444 
f 431 423 444 
f 424 431 444 
f 423 436 444 
f 436 429 444 
f 424 426 445 
f 431 424 445 
f 441 431 445 
f 426 441 445 
f 425 432 446 
f 439 425 446 
f 432 439 446 
f 433 427 447 
f 429 436 447 
f 436 433 447 
f 427 437 447 
f 437 429 447 
f 426 434 448 
f 440 426 448 
f 428 440 448 
f 426 422 449 
f 422 432 449 
f 434 426 449 
f 432 434 449 
f 434 420 450 
f 420 438 450 
f 438 428 450 
f 428 448 450 
o convex_12
v -0.085512 0.042616 -0.197441
v -0.040318 -0.066815 -0.133210
v -0.026048 -0.066815 -0.133210
v -0.011769 0.042616 -0.030956
v -0.066485 -0.023973 -0.030956
v -0.016534 0.033100 -0.197441
v -0.011769 -0.045388 -0.030956
v -0.083130 -0.007322 -0.197441
v -0.040318 0.064031 -0.197441
v -0.042700 0.033100 -0.030956
v -0.080756 -0.038254 -0.114190
v -0.011769 -0.047770 -0.147487
v -0.037936 -0.023973 -0.197441
v -0.064110 0.064031 -0.195061
v -0.066485 0.002169 -0.030956
v -0.090277 0.004551 -0.152246
v -0.047457 -0.059656 -0.083273
v -0.011769 0.002169 -0.178405
v -0.011769 -0.064420 -0.099930
v -0.054589 -0.040623 -0.030956
v -0.064110 -0.057286 -0.128451
v -0.083130 0.042616 -0.178405
v -0.018916 -0.004940 -0.197441
v -0.066485 -0.023973 -0.192682
v -0.023673 0.049750 -0.197441
v -0.073616 -0.047770 -0.102309
v -0.090277 0.004551 -0.187923
v -0.080756 -0.033489 -0.152246
v -0.090277 0.023583 -0.171266
v -0.056971 0.018819 -0.030956
v -0.037936 -0.066815 -0.102309
v -0.028430 0.040234 -0.030956
v -0.085512 -0.023973 -0.126072
v -0.045083 -0.045388 -0.030956
v -0.073616 0.056884 -0.190302
v -0.011769 0.030718 -0.128451
v -0.011769 -0.062038 -0.133210
v -0.056971 -0.062038 -0.111844
v -0.056971 -0.059656 -0.137969
v -0.054589 -0.026355 -0.195061
v -0.028430 -0.019221 -0.197441
v -0.087895 -0.016839 -0.156989
v -0.090277 0.023583 -0.197441
v -0.035561 0.061636 -0.197441
v -0.075999 -0.033489 -0.164128
v -0.078381 -0.043005 -0.130831
v -0.087895 -0.004940 -0.135590
v -0.016534 0.035482 -0.195061
v -0.030804 -0.062038 -0.142728
v -0.047457 0.064031 -0.190302
v -0.023673 -0.064420 -0.092791
f 484 481 501 
f 454 455 457 
f 451 456 458 
f 456 451 459 
f 455 454 460 
f 454 457 462 
f 458 456 463 
f 459 451 464 
f 455 460 465 
f 454 462 468 
f 462 457 469 
f 457 455 470 
f 463 456 473 
f 456 468 473 
f 468 462 473 
f 456 459 475 
f 455 461 476 
f 470 455 476 
f 466 465 479 
f 472 451 479 
f 465 472 479 
f 477 466 479 
f 465 460 480 
f 472 465 480 
f 452 453 481 
f 453 469 481 
f 460 454 482 
f 454 464 482 
f 464 460 482 
f 461 455 483 
f 457 470 484 
f 470 467 484 
f 467 481 484 
f 464 451 485 
f 460 464 485 
f 451 472 485 
f 480 460 485 
f 472 480 485 
f 454 468 486 
f 469 453 487 
f 462 469 487 
f 467 470 488 
f 470 476 488 
f 476 471 488 
f 452 481 488 
f 481 467 488 
f 452 488 489 
f 488 471 489 
f 458 463 490 
f 474 458 490 
f 452 489 490 
f 489 474 490 
f 463 473 491 
f 473 462 491 
f 487 463 491 
f 462 487 491 
f 477 458 492 
f 466 477 492 
f 458 478 492 
f 461 483 492 
f 483 466 492 
f 451 458 493 
f 458 477 493 
f 479 451 493 
f 477 479 493 
f 459 454 494 
f 454 475 494 
f 475 459 494 
f 458 474 495 
f 471 478 495 
f 478 458 495 
f 474 489 495 
f 489 471 495 
f 476 461 496 
f 471 476 496 
f 478 471 496 
f 461 492 496 
f 492 478 496 
f 455 465 497 
f 465 466 497 
f 483 455 497 
f 466 483 497 
f 468 456 498 
f 475 454 498 
f 456 475 498 
f 454 486 498 
f 486 468 498 
f 453 452 499 
f 487 453 499 
f 463 487 499 
f 452 490 499 
f 490 463 499 
f 454 459 500 
f 459 464 500 
f 464 454 500 
f 469 457 501 
f 481 469 501 
f 457 484 501 
o convex_13
v 0.071495 -0.009725 -0.147499
v 0.021547 -0.066815 -0.130825
v 0.000135 -0.066794 -0.126066
v 0.047703 0.004542 -0.030958
v -0.011769 0.030709 -0.130825
v -0.011769 -0.045393 -0.030958
v 0.050075 0.023586 -0.197425
v -0.011769 0.042609 -0.030958
v 0.000135 -0.035871 -0.197425
v 0.069114 -0.035882 -0.197457
v 0.040568 -0.038260 -0.033322
v -0.011769 -0.059660 -0.135584
v 0.028681 0.030709 -0.030958
v 0.007261 0.014053 -0.197425
v 0.031053 -0.054915 -0.195061
v 0.066733 0.011686 -0.166521
v 0.033434 -0.064427 -0.107077
v 0.052456 -0.050149 -0.111836
v 0.050075 -0.019226 -0.030958
v 0.073876 -0.004970 -0.197457
v -0.004626 -0.012103 -0.190302
v 0.054837 -0.050149 -0.197425
v 0.071495 -0.026370 -0.157002
v 0.035807 0.025953 -0.195061
v 0.009642 0.040221 -0.035701
v -0.011769 -0.064416 -0.099938
v 0.026300 -0.045393 -0.030958
v 0.021538 -0.066794 -0.102317
v 0.057218 0.021198 -0.159365
v 0.019166 -0.052527 -0.197425
v 0.061971 0.009298 -0.118926
v -0.011769 -0.045393 -0.147483
v -0.002246 -0.004970 -0.197425
v 0.066733 0.011686 -0.197457
v 0.016785 0.021198 -0.197425
v -0.011769 0.021198 -0.142724
v 0.042941 -0.059671 -0.111836
v 0.064352 -0.043015 -0.183163
v 0.050075 -0.002592 -0.030958
v 0.035807 0.023586 -0.030958
v 0.028681 -0.066815 -0.126066
v 0.069114 0.002175 -0.145120
v 0.064352 -0.035882 -0.135584
v 0.016785 0.037843 -0.030958
v 0.059599 0.016442 -0.135584
v 0.045322 -0.031126 -0.030958
v 0.045322 0.025953 -0.185542
v 0.073876 -0.023982 -0.176040
v 0.009642 -0.047771 -0.197425
v -0.011769 -0.064416 -0.126066
v -0.004626 0.042609 -0.033322
v 0.007261 -0.064416 -0.092798
v 0.040568 -0.057282 -0.092798
f 538 519 554 
f 506 507 509 
f 507 505 509 
f 507 506 513 
f 509 505 514 
f 503 504 516 
f 505 507 520 
f 502 520 524 
f 506 509 525 
f 507 513 527 
f 520 507 528 
f 504 503 529 
f 527 504 529 
f 518 528 529 
f 516 504 531 
f 511 523 531 
f 523 516 531 
f 513 506 533 
f 510 513 533 
f 522 510 533 
f 511 510 534 
f 510 522 534 
f 521 511 535 
f 517 521 535 
f 508 530 535 
f 530 517 535 
f 511 534 535 
f 534 515 535 
f 515 506 536 
f 506 525 536 
f 525 508 536 
f 508 535 536 
f 535 515 536 
f 506 515 537 
f 533 506 537 
f 522 533 537 
f 515 534 537 
f 534 522 537 
f 538 523 539 
f 523 511 539 
f 511 524 539 
f 519 538 539 
f 520 502 540 
f 505 520 540 
f 514 505 541 
f 505 532 541 
f 503 516 542 
f 516 523 542 
f 529 503 542 
f 518 529 542 
f 538 518 542 
f 523 538 542 
f 502 521 543 
f 521 517 543 
f 532 505 543 
f 517 532 543 
f 540 502 543 
f 505 540 543 
f 524 520 544 
f 539 524 544 
f 519 539 544 
f 509 514 545 
f 514 530 545 
f 517 530 546 
f 530 514 546 
f 532 517 546 
f 514 541 546 
f 541 532 546 
f 512 519 547 
f 528 512 547 
f 520 528 547 
f 519 544 547 
f 544 520 547 
f 508 525 548 
f 530 508 548 
f 526 545 548 
f 545 530 548 
f 521 502 549 
f 511 521 549 
f 524 511 549 
f 502 524 549 
f 510 511 550 
f 513 510 550 
f 511 531 550 
f 550 531 551 
f 504 527 551 
f 527 513 551 
f 531 504 551 
f 513 550 551 
f 525 509 552 
f 509 545 552 
f 545 526 552 
f 548 525 552 
f 526 548 552 
f 507 527 553 
f 528 507 553 
f 527 529 553 
f 529 528 553 
f 519 512 554 
f 528 518 554 
f 512 528 554 
f 518 538 554 
o convex_14
v -0.095035 -0.035880 0.071387
v 0.076255 -0.023992 0.166528
v 0.014385 -0.002590 0.176050
v 0.012004 0.040236 -0.030925
v 0.026290 -0.045393 -0.030925
v -0.052196 -0.076331 0.135591
v -0.087892 0.016448 0.123698
v -0.066481 -0.021605 -0.030905
v 0.076255 -0.071569 0.109435
v 0.059589 0.030711 0.085630
v -0.095035 -0.043018 0.166507
v 0.050082 -0.002602 -0.030925
v -0.059338 0.040236 0.085630
v -0.095035 -0.071569 0.109415
v -0.004645 -0.059669 0.176050
v -0.056958 0.018811 -0.030905
v 0.076255 0.009298 0.088020
v 0.028671 0.042612 0.090391
v -0.016516 0.004548 0.176050
v -0.042689 -0.045393 -0.030925
v 0.033432 -0.076331 0.099893
v 0.076255 -0.069182 0.145113
v -0.095035 0.009298 0.092761
v -0.018897 0.044999 -0.014272
v 0.066731 0.011673 0.135591
v -0.052196 -0.076331 0.099913
v -0.095035 -0.014490 0.161767
v -0.095035 -0.066806 0.149874
v -0.037927 0.035474 0.114176
v 0.076255 -0.031118 0.066626
v 0.045320 -0.031118 -0.030925
v 0.038194 0.021198 -0.030925
v -0.035546 0.044999 0.083239
v 0.031051 0.030711 0.121307
v -0.040308 0.035474 -0.028535
v -0.083131 0.025961 0.088000
v -0.066481 0.002172 -0.030905
v 0.045320 -0.076331 0.133200
v 0.076255 -0.050156 0.164137
v 0.021528 0.044999 0.069017
v -0.059338 -0.035880 -0.030905
v -0.042689 -0.019229 0.176050
v 0.073874 0.016448 0.116567
v -0.066481 0.021198 0.130830
v 0.023909 -0.038255 0.176050
v 0.076255 -0.004966 0.152244
v 0.000117 0.004548 0.176050
v 0.047701 0.037849 0.085630
v -0.023659 -0.057293 0.176050
v -0.095035 -0.016854 0.071387
v 0.014385 0.037861 0.109435
v -0.095035 -0.004977 0.152244
v 0.050082 -0.019229 -0.030925
v 0.023909 -0.071569 0.149874
v 0.004878 0.044999 -0.007120
v 0.076255 -0.057293 0.088020
v -0.045070 -0.073944 0.088000
v 0.028671 0.030711 -0.030925
v 0.057208 0.028336 0.109415
v 0.071493 0.018811 0.088000
v -0.028420 0.040236 -0.030925
v 0.076255 -0.009728 0.071387
v -0.071243 -0.076331 0.123698
v 0.035813 -0.040643 -0.030925
f 585 563 618 
f 559 558 566 
f 555 562 568 
f 565 555 568 
f 556 563 571 
f 569 557 573 
f 558 559 574 
f 559 563 575 
f 563 556 576 
f 555 565 577 
f 568 574 580 
f 575 560 580 
f 577 565 581 
f 565 568 582 
f 560 569 582 
f 571 563 584 
f 559 566 585 
f 566 558 586 
f 571 566 586 
f 578 567 587 
f 567 583 587 
f 561 567 590 
f 577 561 590 
f 570 577 590 
f 589 570 590 
f 567 589 590 
f 562 555 591 
f 574 562 591 
f 577 570 591 
f 575 563 592 
f 560 575 592 
f 563 576 592 
f 576 556 593 
f 569 576 593 
f 578 587 594 
f 587 572 594 
f 568 562 595 
f 562 574 595 
f 574 568 595 
f 569 573 596 
f 573 581 596 
f 581 565 596 
f 567 561 598 
f 583 567 598 
f 573 583 598 
f 556 557 599 
f 557 569 599 
f 593 556 599 
f 569 593 599 
f 557 556 600 
f 556 571 600 
f 571 597 600 
f 597 579 600 
f 573 557 601 
f 579 588 601 
f 557 600 601 
f 600 579 601 
f 594 572 602 
f 565 582 603 
f 582 569 603 
f 596 565 603 
f 569 596 603 
f 555 577 604 
f 591 555 604 
f 577 591 604 
f 583 573 605 
f 572 587 605 
f 587 583 605 
f 588 572 605 
f 573 601 605 
f 601 588 605 
f 561 577 606 
f 581 573 606 
f 577 581 606 
f 598 561 606 
f 573 598 606 
f 566 584 607 
f 585 566 607 
f 569 560 608 
f 576 569 608 
f 560 592 608 
f 592 576 608 
f 558 578 609 
f 578 594 609 
f 602 558 609 
f 594 602 609 
f 584 563 610 
f 563 585 610 
f 607 584 610 
f 585 607 610 
f 574 559 611 
f 559 575 611 
f 580 574 611 
f 575 580 611 
f 586 558 612 
f 564 586 612 
f 558 602 612 
f 602 564 612 
f 588 579 613 
f 572 588 613 
f 597 564 613 
f 579 597 613 
f 564 602 613 
f 602 572 613 
f 586 564 614 
f 571 586 614 
f 597 571 614 
f 564 597 614 
f 558 574 615 
f 578 558 615 
f 567 578 615 
f 570 589 615 
f 589 567 615 
f 574 591 615 
f 591 570 615 
f 566 571 616 
f 584 566 616 
f 571 584 616 
f 580 560 617 
f 568 580 617 
f 560 582 617 
f 582 568 617 
f 563 559 618 
f 559 585 618 
o convex_15
v -0.002267 0.014059 0.333057
v -0.011758 -0.083469 0.261671
v -0.007019 -0.083469 0.261671
v -0.011758 0.037853 0.185567
v 0.059602 -0.035879 0.252202
v -0.076003 -0.026364 0.266438
v -0.021275 -0.057298 0.176050
v 0.000122 -0.062049 0.325900
v -0.004643 0.059273 0.240310
v -0.047451 0.014059 0.318774
v 0.019157 -0.045394 0.176066
v 0.035802 0.011669 0.311648
v 0.033426 0.023574 0.221275
v -0.049827 0.023574 0.218884
v -0.042686 -0.047769 0.323524
v -0.042686 -0.021599 0.176066
v -0.047451 -0.069175 0.283097
v 0.031050 -0.052534 0.314007
v -0.047451 0.033089 0.287847
v -0.007019 0.040229 0.309272
v 0.023909 -0.016848 0.176066
v 0.023909 -0.073939 0.268813
v -0.076003 -0.035879 0.249811
v 0.031050 0.033089 0.283097
v 0.004874 -0.023974 0.337824
v -0.007019 -0.078704 0.306865
v -0.030793 -0.023974 0.335417
v 0.007250 0.037853 0.192709
v 0.004874 -0.057298 0.176050
v 0.059602 -0.028739 0.264063
v -0.016523 0.056884 0.235527
v -0.035558 -0.076329 0.261687
v 0.038178 -0.019224 0.316398
v -0.035558 -0.047769 0.176066
v -0.054579 -0.038254 0.314007
v 0.023909 0.016434 0.323524
v -0.026041 0.037853 0.309257
v -0.030793 0.033089 0.195100
v 0.026298 -0.069175 0.297364
v 0.016781 0.037853 0.302131
v -0.026041 -0.078704 0.299740
v -0.054579 0.023574 0.240294
v -0.071238 -0.021599 0.237918
v -0.052203 -0.057284 0.302131
v 0.033426 0.028338 0.233168
v -0.028417 0.018823 0.328291
v -0.021275 -0.057298 0.328306
v 0.052460 -0.019224 0.235527
v 0.026298 -0.031114 0.328291
v -0.049827 -0.009736 0.323524
v -0.016523 0.004543 0.176050
v 0.000122 -0.083469 0.287863
v -0.056955 0.006933 0.304490
v -0.045075 0.033089 0.226026
v -0.021275 -0.007347 0.337824
v 0.021533 0.002168 0.330682
v 0.007250 -0.081079 0.261671
v 0.004874 0.028338 0.323524
v 0.038178 -0.050158 0.304490
v 0.035802 0.025949 0.285456
v -0.076003 -0.035879 0.264063
v 0.023909 -0.035879 0.176066
v 0.000122 0.056884 0.235527
v 0.014391 -0.071564 0.309257
f 644 670 682 
f 621 620 625 
f 629 623 640 
f 639 622 646 
f 631 639 646 
f 621 625 647 
f 629 640 647 
f 627 622 649 
f 625 620 650 
f 635 641 650 
f 648 630 651 
f 634 625 652 
f 641 634 652 
f 625 650 652 
f 650 641 652 
f 637 628 655 
f 638 627 655 
f 627 649 655 
f 649 637 655 
f 622 634 656 
f 634 632 656 
f 649 622 656 
f 640 623 657 
f 627 638 658 
f 630 642 658 
f 642 627 658 
f 654 630 658 
f 650 620 659 
f 635 650 659 
f 624 637 660 
f 632 634 661 
f 641 624 661 
f 634 641 661 
f 624 660 661 
f 660 632 661 
f 633 653 662 
f 659 633 662 
f 635 659 662 
f 631 646 663 
f 655 628 664 
f 626 643 665 
f 644 626 665 
f 645 633 665 
f 643 645 665 
f 633 659 665 
f 659 644 665 
f 639 631 666 
f 648 623 666 
f 631 663 666 
f 663 648 666 
f 626 636 667 
f 643 626 667 
f 636 651 667 
f 633 645 668 
f 624 653 668 
f 653 633 668 
f 664 628 668 
f 625 634 669 
f 634 622 669 
f 622 639 669 
f 647 625 669 
f 639 647 669 
f 620 621 670 
f 640 657 670 
f 659 620 670 
f 644 659 670 
f 637 624 671 
f 628 637 671 
f 624 668 671 
f 668 628 671 
f 637 649 672 
f 656 632 672 
f 649 656 672 
f 660 637 672 
f 632 660 672 
f 643 619 673 
f 645 643 673 
f 619 664 673 
f 668 645 673 
f 664 668 673 
f 619 643 674 
f 651 630 674 
f 654 619 674 
f 630 654 674 
f 643 667 674 
f 667 651 674 
f 621 647 675 
f 647 640 675 
f 670 621 675 
f 640 670 675 
f 619 654 676 
f 638 655 676 
f 658 638 676 
f 654 658 676 
f 664 619 676 
f 655 664 676 
f 623 648 677 
f 651 636 677 
f 648 651 677 
f 657 623 677 
f 636 657 677 
f 642 630 678 
f 630 648 678 
f 663 642 678 
f 648 663 678 
f 624 641 679 
f 641 635 679 
f 653 624 679 
f 635 662 679 
f 662 653 679 
f 623 629 680 
f 629 647 680 
f 647 639 680 
f 666 623 680 
f 639 666 680 
f 622 627 681 
f 627 642 681 
f 646 622 681 
f 642 663 681 
f 663 646 681 
f 636 626 682 
f 626 644 682 
f 657 636 682 
f 670 657 682 
o convex_16
v 0.188074 -0.012101 -0.195078
v 0.202342 0.009310 -0.145119
v 0.199959 0.011691 -0.147505
v 0.192833 -0.040644 -0.145119
v 0.209480 -0.026364 -0.166533
v 0.178553 0.009310 -0.171282
v 0.188074 -0.043025 -0.178417
v 0.199959 -0.002583 -0.185557
v 0.207101 -0.040644 -0.145119
v 0.188074 0.006934 -0.145119
v 0.178553 0.014072 -0.183180
v 0.197580 -0.026364 -0.192692
v 0.209480 -0.007345 -0.145119
v 0.188074 0.014072 -0.183180
v 0.202342 -0.043025 -0.164152
v 0.185691 -0.040644 -0.168915
v 0.207101 -0.004964 -0.168915
v 0.178553 0.004554 -0.185557
v 0.199959 0.011691 -0.161780
v 0.190453 -0.002583 -0.195078
f 700 693 702 
f 684 686 691 
f 684 685 692 
f 686 684 692 
f 688 686 692 
f 688 692 693 
f 692 685 693 
f 689 683 694 
f 690 687 694 
f 684 691 695 
f 691 687 695 
f 693 685 696 
f 686 689 697 
f 691 686 697 
f 687 691 697 
f 689 694 697 
f 694 687 697 
f 686 688 698 
f 689 686 698 
f 687 690 699 
f 684 695 699 
f 695 687 699 
f 683 689 700 
f 688 693 700 
f 698 688 700 
f 689 698 700 
f 685 684 701 
f 696 685 701 
f 690 696 701 
f 684 699 701 
f 699 690 701 
f 694 683 702 
f 690 694 702 
f 696 690 702 
f 693 696 702 
f 683 700 702 
o convex_17
v 0.192824 -0.045404 -0.133221
v 0.195204 -0.002588 -0.083264
v 0.195204 -0.000206 -0.085644
v 0.164279 0.021206 -0.128462
v 0.204719 0.006934 -0.145119
v 0.178559 -0.035875 -0.083264
v 0.207099 -0.033500 -0.085644
v 0.207099 -0.043022 -0.145119
v 0.164279 0.018824 -0.142739
v 0.176179 0.028346 -0.135601
v 0.173803 0.006934 -0.095168
v 0.209475 -0.004963 -0.121318
v 0.197580 -0.045404 -0.097547
v 0.199964 0.006934 -0.102306
v 0.211859 -0.026367 -0.140354
v 0.183314 -0.040640 -0.114191
v 0.192824 -0.040640 -0.145119
v 0.207099 -0.021603 -0.083264
v 0.169039 0.025963 -0.145119
v 0.185698 0.014066 -0.099921
v 0.169039 -0.007345 -0.102306
v 0.164279 0.011691 -0.135601
v 0.183314 -0.040640 -0.083264
v 0.180934 -0.009706 -0.083264
v 0.166663 0.028346 -0.135601
v 0.209475 -0.040640 -0.130836
f 717 709 728 
f 703 710 715 
f 707 712 716 
f 714 707 716 
f 710 707 717 
f 707 714 717 
f 710 703 719 
f 707 710 719 
f 703 718 719 
f 705 704 720 
f 704 708 720 
f 716 705 720 
f 714 716 720 
f 709 717 720 
f 717 714 720 
f 712 707 721 
f 707 719 721 
f 719 711 721 
f 704 705 722 
f 713 704 722 
f 705 716 722 
f 716 712 722 
f 708 713 723 
f 713 706 723 
f 706 711 724 
f 718 708 724 
f 711 719 724 
f 719 718 724 
f 723 706 724 
f 708 723 724 
f 703 715 725 
f 715 709 725 
f 718 703 725 
f 708 718 725 
f 720 708 725 
f 709 720 725 
f 708 704 726 
f 704 713 726 
f 713 708 726 
f 711 706 727 
f 706 713 727 
f 721 711 727 
f 712 721 727 
f 722 712 727 
f 713 722 727 
f 709 715 728 
f 715 710 728 
f 710 717 728 
o convex_18
v -0.211606 -0.043025 -0.176045
v -0.206853 0.009310 -0.145119
v -0.218742 0.009310 -0.145119
v -0.197337 0.014072 -0.185557
v -0.218742 -0.004964 -0.185557
v -0.225878 -0.038263 -0.145119
v -0.209232 -0.038263 -0.147505
v -0.213982 -0.028751 -0.192692
v -0.194954 0.004554 -0.176045
v -0.204473 -0.043025 -0.176045
v -0.228257 -0.021614 -0.157017
v -0.204473 -0.012101 -0.195078
v -0.211606 0.014072 -0.171282
v -0.223498 -0.028751 -0.176045
v -0.225878 -0.004964 -0.161780
v -0.211606 -0.043025 -0.145119
v -0.209232 -0.002583 -0.195078
v -0.204473 -0.000208 -0.145119
v -0.225878 -0.004964 -0.145119
v -0.223498 -0.043025 -0.152259
v -0.194954 0.006934 -0.185557
v -0.204473 -0.040644 -0.164152
f 746 735 750 
f 730 731 734 
f 732 730 737 
f 729 736 738 
f 738 736 740 
f 731 730 741 
f 730 732 741 
f 736 729 742 
f 733 736 742 
f 734 739 742 
f 742 739 743 
f 731 741 743 
f 741 733 743 
f 733 742 743 
f 730 734 744 
f 729 738 744 
f 736 733 745 
f 732 740 745 
f 740 736 745 
f 741 732 745 
f 733 741 745 
f 737 730 746 
f 730 744 746 
f 744 735 746 
f 734 731 747 
f 739 734 747 
f 743 739 747 
f 731 743 747 
f 742 729 748 
f 734 742 748 
f 744 734 748 
f 729 744 748 
f 732 737 749 
f 737 738 749 
f 740 732 749 
f 738 740 749 
f 738 737 750 
f 735 744 750 
f 744 738 750 
f 737 746 750 
