o convex_0
v -0.012807 0.022278 0.070936
v 0.003254 0.027439 0.101907
v 0.003254 0.026293 0.101907
v -0.000188 0.022852 0.050850
v -0.009938 0.028015 0.050850
v -0.005925 0.015967 0.050850
v -0.009365 0.023999 0.103630
v -0.007070 0.031457 0.101327
v -0.001336 0.019410 0.101902
v -0.003630 0.028015 0.051424
v -0.012807 0.018836 0.052573
v -0.001336 0.017688 0.051999
v -0.003057 0.032031 0.098465
v -0.009938 0.029161 0.098465
v -0.012234 0.026867 0.050850
v -0.008218 0.021704 0.103630
v 0.000959 0.030309 0.103056
v 0.001534 0.021704 0.103056
v -0.013954 0.022278 0.050850
v -0.000188 0.029161 0.078953
v -0.010512 0.027441 0.101327
v -0.004778 0.019983 0.101327
v -0.000763 0.025145 0.051999
v -0.004778 0.032031 0.095018
v 0.000386 0.021704 0.056015
v 0.003254 0.027439 0.096742
v -0.001910 0.017115 0.057169
v -0.008218 0.026293 0.104205
v -0.005350 0.028587 0.052573
v -0.002485 0.020557 0.104205
v -0.009365 0.030309 0.095593
v 0.003254 0.025719 0.099609
v -0.001910 0.030883 0.103630
v -0.004205 0.015967 0.050850
v 0.000959 0.030309 0.097316
v 0.002106 0.026293 0.103630
v -0.011660 0.019410 0.065202
v -0.007643 0.029735 0.103630
v -0.010512 0.025719 0.101327
v -0.008792 0.021704 0.101327
v -0.012807 0.023999 0.070936
v -0.005350 0.032031 0.095593
v -0.012234 0.019983 0.066346
v -0.013954 0.021131 0.050850
v -0.002485 0.019410 0.101902
f 30 16 45 
f 5 4 6 
f 4 5 10 
f 5 6 15 
f 15 6 19 
f 10 13 20 
f 8 14 21 
f 4 10 23 
f 10 20 23 
f 12 4 25 
f 2 3 26 
f 17 2 26 
f 4 23 26 
f 23 20 26 
f 25 4 26 
f 12 18 27 
f 18 9 27 
f 7 16 28 
f 21 7 28 
f 10 5 29 
f 13 10 29 
f 24 13 29 
f 9 18 30 
f 28 16 30 
f 14 8 31 
f 15 14 31 
f 5 15 31 
f 3 18 32 
f 18 12 32 
f 12 25 32 
f 26 3 32 
f 25 26 32 
f 13 8 33 
f 17 13 33 
f 28 30 33 
f 6 4 34 
f 9 6 34 
f 4 12 34 
f 27 9 34 
f 12 27 34 
f 13 17 35 
f 20 13 35 
f 17 26 35 
f 26 20 35 
f 3 2 36 
f 2 17 36 
f 18 3 36 
f 30 18 36 
f 17 33 36 
f 33 30 36 
f 11 6 37 
f 6 22 37 
f 8 21 38 
f 21 28 38 
f 33 8 38 
f 28 33 38 
f 21 1 39 
f 7 21 39 
f 16 7 40 
f 22 16 40 
f 37 22 40 
f 39 1 40 
f 7 39 40 
f 14 15 41 
f 19 1 41 
f 15 19 41 
f 1 21 41 
f 21 14 41 
f 8 13 42 
f 13 24 42 
f 29 5 42 
f 24 29 42 
f 5 31 42 
f 31 8 42 
f 11 37 43 
f 40 1 43 
f 37 40 43 
f 6 11 44 
f 1 19 44 
f 19 6 44 
f 43 1 44 
f 11 43 44 
f 6 9 45 
f 22 6 45 
f 16 22 45 
f 9 30 45 
o convex_1
v -0.031742 0.023424 -0.009391
v -0.039775 0.000477 -0.036924
v -0.042068 0.002772 -0.038073
v -0.030020 0.028013 -0.039220
v -0.052391 0.021126 -0.022589
v -0.030020 0.003920 -0.010541
v -0.048949 0.030305 -0.035204
v -0.052391 0.007364 -0.030615
v -0.030020 0.002203 -0.037497
v -0.042641 0.014248 -0.008244
v -0.042068 0.029733 -0.019146
v -0.051818 0.018830 -0.038647
v -0.030595 0.032604 -0.030615
v -0.046656 0.003923 -0.023732
v -0.039201 0.022849 -0.007671
v -0.030020 0.020553 -0.007671
v -0.035184 0.024569 -0.040370
v -0.048949 0.029733 -0.024879
v -0.050098 0.004496 -0.036350
v -0.047230 0.029733 -0.038647
v -0.053540 0.018830 -0.033481
v -0.043788 0.023997 -0.011687
v -0.046083 0.032029 -0.029465
v -0.051818 0.016540 -0.020866
v -0.031169 0.032604 -0.035201
v -0.030020 0.012528 -0.039793
v -0.051818 0.012528 -0.038647
v -0.031169 0.026289 -0.012837
v -0.030020 0.006216 -0.008248
v -0.043788 0.006791 -0.016277
v -0.039775 0.000477 -0.032908
v -0.031169 0.001624 -0.026025
v -0.039201 0.027440 -0.012837
v -0.039775 0.014823 -0.007095
v -0.043214 0.017110 -0.008244
v -0.046083 0.027440 -0.039793
v -0.041494 0.003348 -0.038647
v -0.051245 0.023421 -0.020866
v -0.052391 0.007364 -0.036924
v -0.053540 0.013103 -0.029465
v -0.046083 0.032029 -0.034054
v -0.030020 0.027437 -0.016850
v -0.044934 0.013103 -0.011687
v -0.050098 0.028010 -0.036924
v -0.031169 0.004496 -0.009964
v -0.052391 0.011380 -0.026025
v -0.042641 0.002203 -0.026025
v -0.032315 0.029157 -0.039220
v -0.036906 0.028585 -0.015703
v -0.030020 0.001624 -0.036350
v -0.030020 0.006791 -0.039220
v -0.030595 0.022846 -0.040370
v -0.042068 0.010232 -0.011114
v -0.043788 0.030305 -0.038647
v -0.052391 0.021701 -0.037500
v -0.049525 0.006216 -0.038073
v -0.041494 0.026289 -0.012264
v -0.034611 0.032604 -0.030038
v -0.030020 0.010804 -0.007671
v -0.035184 0.023424 -0.040370
v -0.052967 0.014248 -0.036924
v -0.030020 0.030881 -0.031761
v -0.047803 0.031453 -0.028318
v -0.048949 0.026289 -0.039217
f 100 89 109 
f 49 51 54 
f 51 49 61 
f 46 60 61 
f 48 47 64 
f 59 53 64 
f 49 54 71 
f 46 61 73 
f 51 61 74 
f 64 47 76 
f 59 64 76 
f 51 76 77 
f 60 46 78 
f 46 73 78 
f 61 60 79 
f 55 74 79 
f 60 67 80 
f 55 79 80 
f 79 60 80 
f 72 57 81 
f 47 48 82 
f 54 47 82 
f 63 50 83 
f 67 63 83 
f 50 69 83 
f 80 67 83 
f 69 80 83 
f 64 53 84 
f 50 66 85 
f 69 50 85 
f 84 53 85 
f 65 52 86 
f 61 49 87 
f 58 73 87 
f 73 61 87 
f 59 75 88 
f 80 69 88 
f 55 80 88 
f 50 63 89 
f 63 52 89 
f 52 65 89 
f 66 50 89 
f 59 51 90 
f 51 74 90 
f 74 55 90 
f 75 59 90 
f 53 59 91 
f 69 85 91 
f 85 53 91 
f 59 88 91 
f 88 69 91 
f 51 59 92 
f 76 51 92 
f 59 76 92 
f 70 49 93 
f 62 81 93 
f 73 58 94 
f 56 78 94 
f 78 73 94 
f 47 54 95 
f 54 51 95 
f 76 47 95 
f 51 77 95 
f 77 76 95 
f 71 54 96 
f 54 82 96 
f 82 71 96 
f 49 71 97 
f 93 49 97 
f 62 93 97 
f 88 75 98 
f 55 88 98 
f 90 55 98 
f 75 90 98 
f 81 65 99 
f 65 86 99 
f 86 70 99 
f 70 93 99 
f 93 81 99 
f 66 89 100 
f 48 64 101 
f 82 48 101 
f 72 82 101 
f 64 84 101 
f 84 72 101 
f 56 63 102 
f 67 60 102 
f 63 67 102 
f 78 56 102 
f 60 78 102 
f 68 56 103 
f 58 70 103 
f 86 68 103 
f 70 86 103 
f 56 94 103 
f 94 58 103 
f 74 61 104 
f 61 79 104 
f 79 74 104 
f 81 62 105 
f 72 81 105 
f 71 82 105 
f 82 72 105 
f 97 71 105 
f 62 97 105 
f 57 72 106 
f 72 84 106 
f 85 66 106 
f 84 85 106 
f 100 57 106 
f 66 100 106 
f 49 70 107 
f 70 58 107 
f 87 49 107 
f 58 87 107 
f 52 63 108 
f 63 56 108 
f 56 68 108 
f 86 52 108 
f 68 86 108 
f 81 57 109 
f 65 81 109 
f 89 65 109 
f 57 100 109 
o convex_2
v -0.020840 0.025144 -0.015706
v -0.021415 -0.004683 -0.015702
v -0.020842 -0.004683 -0.015702
v -0.026576 0.017113 -0.040370
v -0.030019 0.019980 -0.007669
v -0.030019 0.001626 -0.036351
v -0.021415 -0.004107 0.002085
v -0.020842 0.003924 -0.039792
v -0.030019 0.028011 -0.039214
v -0.020840 0.026293 -0.039219
v -0.030019 0.001626 -0.013981
v -0.020840 0.006791 0.002085
v -0.030019 0.029156 -0.023730
v -0.020840 0.021128 -0.007099
v -0.030019 0.006218 -0.008242
v -0.030019 0.026862 -0.015128
v -0.020842 -0.000092 -0.034631
v -0.030019 0.006791 -0.039214
v -0.027723 0.029732 -0.031763
v -0.023137 0.002775 0.002085
v -0.021990 0.026862 -0.019716
v -0.026003 0.020552 -0.006522
v -0.021990 -0.004683 -0.011118
v -0.020840 0.025717 -0.039792
v -0.030019 0.020552 -0.040370
v -0.023710 0.002202 -0.039214
v -0.020842 -0.004107 0.002085
v -0.020840 0.026865 -0.028318
v -0.029445 0.023423 -0.009397
v -0.027150 0.029156 -0.037498
v -0.028297 0.026862 -0.015128
v -0.025430 0.001054 -0.037498
v -0.022563 -0.001813 0.002085
v -0.029445 0.029732 -0.033484
v -0.023137 0.028011 -0.034057
v -0.030019 0.009085 -0.007669
v -0.021415 0.023995 -0.011687
f 130 140 146 
f 115 114 118 
f 114 115 120 
f 119 110 121 
f 118 114 122 
f 121 110 123 
f 114 120 124 
f 122 114 125 
f 112 111 126 
f 121 112 126 
f 115 118 127 
f 121 114 129 
f 116 121 129 
f 128 122 130 
f 114 121 131 
f 121 123 131 
f 111 112 132 
f 115 111 132 
f 120 115 132 
f 116 120 132 
f 117 113 133 
f 118 119 133 
f 119 121 133 
f 126 117 133 
f 121 126 133 
f 113 117 134 
f 117 127 134 
f 127 118 134 
f 133 113 134 
f 118 133 134 
f 117 126 135 
f 127 117 135 
f 115 127 135 
f 112 121 136 
f 121 116 136 
f 132 112 136 
f 116 132 136 
f 110 119 137 
f 130 110 137 
f 128 130 137 
f 125 114 138 
f 114 131 138 
f 131 123 138 
f 119 118 139 
f 122 125 140 
f 130 122 140 
f 125 138 140 
f 138 123 140 
f 111 115 141 
f 126 111 141 
f 115 135 141 
f 135 126 141 
f 120 116 142 
f 124 120 142 
f 116 129 142 
f 129 124 142 
f 118 122 143 
f 122 128 143 
f 139 118 143 
f 128 139 143 
f 137 119 144 
f 128 137 144 
f 119 139 144 
f 139 128 144 
f 114 124 145 
f 129 114 145 
f 124 129 145 
f 123 110 146 
f 110 130 146 
f 140 123 146 
o convex_3
v -0.036904 0.033752 -0.031765
v -0.026579 0.036620 -0.035778
v -0.026579 0.036046 -0.035778
v -0.034608 0.034326 -0.039796
v -0.030594 0.032604 -0.030044
v -0.034608 0.036620 -0.031765
v -0.036329 0.036620 -0.038074
v -0.026579 0.036046 -0.039796
v -0.035182 0.032604 -0.037500
v -0.032314 0.034899 -0.028322
v -0.030594 0.032604 -0.035205
v -0.033461 0.032604 -0.028896
v -0.036904 0.033179 -0.037500
v -0.036904 0.035473 -0.031765
f 159 147 160 
f 149 148 151 
f 152 148 153 
f 148 149 154 
f 149 151 154 
f 153 148 154 
f 150 153 154 
f 150 154 155 
f 151 148 156 
f 148 152 156 
f 154 151 157 
f 151 155 157 
f 155 154 157 
f 155 151 158 
f 151 156 158 
f 153 150 159 
f 150 155 159 
f 158 147 159 
f 155 158 159 
f 152 153 160 
f 156 152 160 
f 147 158 160 
f 158 156 160 
f 153 159 160 
o convex_4
v -0.027728 0.040063 -0.031765
v -0.025433 0.040063 -0.042091
v -0.025433 0.041209 -0.042091
v -0.043215 0.039489 -0.038074
v -0.034606 0.044651 -0.038647
v -0.022564 0.036621 -0.036928
v -0.023138 0.043504 -0.039221
v -0.036328 0.036621 -0.037500
v -0.028302 0.037195 -0.031765
v -0.043215 0.040636 -0.035781
v -0.036901 0.042930 -0.041516
v -0.032311 0.038342 -0.041516
v -0.021416 0.037195 -0.040369
v -0.021990 0.040063 -0.034061
v -0.030597 0.043504 -0.035208
v -0.026007 0.044651 -0.040369
v -0.040344 0.038342 -0.034634
v -0.040918 0.038342 -0.039794
v -0.040344 0.043504 -0.038647
v -0.035754 0.041209 -0.033486
v -0.027728 0.036621 -0.040369
v -0.026007 0.036621 -0.032339
v -0.021416 0.041209 -0.040369
v -0.035754 0.043504 -0.035781
v -0.024285 0.038342 -0.031765
v -0.030023 0.044078 -0.041516
f 165 176 186 
f 163 162 171 
f 171 162 172 
f 162 163 173 
f 172 162 173 
f 166 173 174 
f 161 174 175 
f 174 167 175 
f 165 175 176 
f 175 167 176 
f 168 169 177 
f 170 164 177 
f 164 171 178 
f 171 172 178 
f 177 164 178 
f 168 177 178 
f 164 170 179 
f 171 164 179 
f 165 171 179 
f 169 161 180 
f 161 175 180 
f 177 169 180 
f 170 177 180 
f 166 168 181 
f 173 166 181 
f 172 173 181 
f 168 178 181 
f 178 172 181 
f 168 166 182 
f 169 168 182 
f 173 163 183 
f 167 174 183 
f 174 173 183 
f 163 176 183 
f 176 167 183 
f 175 165 184 
f 179 170 184 
f 165 179 184 
f 180 175 184 
f 170 180 184 
f 161 169 185 
f 174 161 185 
f 166 174 185 
f 182 166 185 
f 169 182 185 
f 163 171 186 
f 171 165 186 
f 176 163 186 
o convex_5
v 0.036527 -0.028779 -0.015127
v -0.020263 0.023999 -0.013978
v -0.020263 0.023999 -0.015127
v -0.008788 -0.019602 -0.015127
v 0.010712 -0.029925 -0.004800
v 0.004981 0.019399 -0.004800
v -0.020840 -0.002393 -0.004800
v 0.031940 -0.007554 -0.004800
v 0.028496 -0.005257 -0.015127
v -0.020840 0.017680 -0.004800
v 0.020465 -0.033946 -0.015127
v -0.020840 -0.005257 -0.015127
v -0.003628 0.019977 -0.015127
v 0.029646 -0.022466 -0.004800
v 0.039399 -0.019596 -0.013978
v -0.001907 -0.023039 -0.004800
v -0.004200 0.022847 -0.004800
v 0.030218 -0.032795 -0.014552
v -0.016819 -0.008694 -0.004800
v 0.008996 -0.029925 -0.014552
v 0.036527 -0.023612 -0.009963
v 0.004981 0.017107 -0.011110
v 0.028496 -0.003544 -0.011684
v 0.037099 -0.013867 -0.015127
v -0.020840 0.022274 -0.008816
v 0.003259 -0.027055 -0.005374
v -0.009938 0.022847 -0.015127
v 0.015872 -0.029352 -0.004800
v 0.036527 -0.028206 -0.012831
v -0.008788 -0.019602 -0.012258
v -0.019691 -0.006976 -0.011110
v 0.032512 -0.015013 -0.004800
v 0.004409 0.019399 -0.007095
v 0.030790 -0.005836 -0.005374
v -0.020840 0.023999 -0.015127
v 0.038821 -0.023044 -0.012258
v 0.003831 0.015389 -0.014552
v 0.013006 -0.030497 -0.005374
v -0.019113 0.019977 -0.005374
v 0.039399 -0.022466 -0.015127
v 0.027924 -0.003544 -0.013405
v -0.020840 -0.004690 -0.007669
v -0.019691 0.023420 -0.010536
v 0.022181 -0.033946 -0.014552
f 204 224 230 
f 189 187 190 
f 191 192 193 
f 192 191 194 
f 187 189 195 
f 193 192 196 
f 190 187 197 
f 189 190 198 
f 193 196 198 
f 195 189 199 
f 194 191 200 
f 191 193 202 
f 189 188 203 
f 196 192 203 
f 197 187 204 
f 202 193 205 
f 190 197 206 
f 197 191 206 
f 187 195 210 
f 194 201 210 
f 198 196 211 
f 191 202 212 
f 190 206 212 
f 206 191 212 
f 199 189 213 
f 189 203 213 
f 200 191 214 
f 214 204 215 
f 204 187 215 
f 207 200 215 
f 200 214 215 
f 202 205 216 
f 190 212 216 
f 212 202 216 
f 198 190 217 
f 190 216 217 
f 216 205 217 
f 194 200 218 
f 200 207 218 
f 203 192 219 
f 208 199 219 
f 192 209 219 
f 199 213 219 
f 213 203 219 
f 192 194 220 
f 209 192 220 
f 194 210 220 
f 210 209 220 
f 188 189 221 
f 189 198 221 
f 198 211 221 
f 201 194 222 
f 215 187 222 
f 207 215 222 
f 194 218 222 
f 218 207 222 
f 195 199 223 
f 208 195 223 
f 199 208 223 
f 191 197 224 
f 214 191 224 
f 204 214 224 
f 196 203 225 
f 211 196 225 
f 203 211 225 
f 187 210 226 
f 210 201 226 
f 201 222 226 
f 222 187 226 
f 195 208 227 
f 210 195 227 
f 209 210 227 
f 208 219 227 
f 219 209 227 
f 193 198 228 
f 205 193 228 
f 198 217 228 
f 217 205 228 
f 203 188 229 
f 211 203 229 
f 188 221 229 
f 221 211 229 
f 197 204 230 
f 224 197 230 
o convex_6
v 0.026201 -0.008699 0.001511
v -0.020840 -0.006401 0.000363
v -0.019688 -0.010419 -0.000211
v -0.003626 0.022848 -0.004800
v 0.013584 -0.029918 -0.004800
v -0.008219 0.030877 0.002085
v 0.031941 -0.007550 -0.004800
v 0.013005 -0.027633 0.002085
v -0.020840 0.017110 -0.004800
v 0.003256 0.026859 0.002085
v -0.020840 0.007931 0.002085
v -0.017394 -0.008699 -0.004800
v 0.029642 -0.021889 -0.004226
v -0.018541 -0.012717 0.002085
v 0.003835 -0.027055 -0.004800
v 0.025627 -0.016157 0.002085
v -0.001905 0.026859 -0.003079
v 0.005550 -0.027055 0.002085
v -0.008792 0.028580 -0.003079
v 0.008418 0.016532 -0.004800
v 0.017593 0.006783 0.002085
v -0.010507 0.030300 0.002085
v -0.020840 -0.002384 -0.004800
v 0.031941 -0.007550 -0.003652
v 0.031362 -0.017877 -0.002505
v 0.002109 0.027437 0.000363
v 0.029068 -0.009848 0.000363
v 0.022186 -0.021318 0.002085
v 0.025627 -0.024758 -0.004800
v -0.006498 0.030877 -0.000785
v -0.001905 -0.023044 -0.004800
v -0.010507 0.030300 -0.000211
v 0.031941 -0.017300 -0.004800
v -0.016821 -0.011562 -0.003079
v 0.003256 -0.026484 -0.000211
v 0.008991 -0.028776 -0.000211
v 0.014731 -0.027055 0.002085
v -0.020840 -0.006401 0.002085
v -0.018541 -0.012717 0.000937
v -0.020840 0.017110 -0.004226
v 0.015299 -0.029347 -0.003652
v -0.000185 0.028008 -0.001358
v -0.013380 -0.016157 0.002085
f 269 245 273 
f 235 234 237 
f 234 235 239 
f 236 238 240 
f 238 236 241 
f 239 232 241 
f 239 235 242 
f 238 241 244 
f 242 235 245 
f 240 238 246 
f 238 244 248 
f 234 239 249 
f 247 234 249 
f 237 234 250 
f 234 247 250 
f 246 231 251 
f 240 246 251 
f 241 236 252 
f 233 232 253 
f 232 239 253 
f 242 233 253 
f 239 242 253 
f 237 240 254 
f 240 251 254 
f 240 237 256 
f 237 250 256 
f 231 246 257 
f 251 231 257 
f 254 251 257 
f 246 255 257 
f 255 254 257 
f 246 238 258 
f 243 255 258 
f 255 246 258 
f 235 237 259 
f 236 240 260 
f 247 249 260 
f 240 256 260 
f 242 245 261 
f 249 239 262 
f 252 236 262 
f 239 252 262 
f 236 260 262 
f 260 249 262 
f 237 254 263 
f 255 243 263 
f 254 255 263 
f 259 237 263 
f 243 259 263 
f 233 242 264 
f 242 261 264 
f 248 265 266 
f 235 238 266 
f 245 235 266 
f 238 248 266 
f 265 245 266 
f 258 238 267 
f 243 258 267 
f 259 243 267 
f 232 233 268 
f 241 232 268 
f 233 244 268 
f 244 241 268 
f 244 233 269 
f 261 245 269 
f 233 264 269 
f 264 261 269 
f 239 241 270 
f 241 252 270 
f 252 239 270 
f 238 235 271 
f 235 259 271 
f 267 238 271 
f 259 267 271 
f 250 247 272 
f 256 250 272 
f 247 260 272 
f 260 256 272 
f 248 244 273 
f 245 265 273 
f 265 248 273 
f 244 269 273 
o convex_7
v -0.009938 -0.019029 0.005526
v 0.005544 0.015393 0.006674
v 0.005544 0.015393 0.002085
v 0.022185 -0.019602 0.002659
v -0.023135 0.002764 0.002085
v 0.017594 -0.020745 0.006674
v -0.021984 0.003911 0.006674
v 0.006695 -0.027061 0.002085
v 0.018170 0.007356 0.006674
v -0.012807 0.015393 0.002085
v 0.019888 0.002195 0.002085
v -0.018540 -0.012716 0.002085
v -0.017969 -0.013859 0.006674
v -0.011084 0.015393 0.006674
v 0.012432 -0.024759 0.006674
v 0.023908 -0.012143 0.002085
v 0.013579 0.011944 0.002085
v 0.015301 -0.026484 0.002085
v -0.020833 0.007934 0.003806
v -0.009938 -0.019029 0.006674
v -0.022560 -0.002967 0.003233
v 0.023332 -0.013863 0.003233
v 0.013008 0.012521 0.006674
v -0.017393 -0.014432 0.002659
v 0.007270 -0.024186 0.006674
v -0.020833 -0.006408 0.006674
v 0.018741 0.005062 0.006674
v 0.016448 -0.023612 0.005526
v 0.019888 -0.019024 0.005526
v 0.006695 -0.027061 0.002659
v -0.021408 0.006787 0.005526
v -0.020833 0.007934 0.002085
f 278 304 305 
f 279 275 280 
f 278 276 281 
f 275 279 282 
f 275 276 283 
f 276 278 283 
f 281 276 284 
f 278 281 285 
f 279 280 286 
f 280 275 287 
f 275 283 287 
f 279 286 288 
f 281 284 289 
f 284 282 289 
f 284 276 290 
f 282 284 290 
f 289 277 291 
f 281 289 291 
f 287 283 292 
f 274 281 293 
f 288 286 293 
f 280 278 294 
f 278 285 294 
f 285 286 294 
f 277 289 295 
f 276 275 296 
f 275 282 296 
f 290 276 296 
f 282 290 296 
f 281 274 297 
f 285 281 297 
f 286 285 297 
f 274 293 297 
f 293 286 297 
f 288 293 298 
f 286 280 299 
f 280 294 299 
f 294 286 299 
f 282 279 300 
f 289 282 300 
f 295 289 300 
f 277 279 301 
f 279 288 301 
f 291 277 301 
f 288 291 301 
f 279 277 302 
f 277 295 302 
f 300 279 302 
f 295 300 302 
f 291 288 303 
f 281 291 303 
f 293 281 303 
f 288 298 303 
f 298 293 303 
f 278 280 304 
f 280 287 304 
f 287 292 304 
f 304 292 305 
f 283 278 305 
f 292 283 305 
o convex_8
v 0.013580 -0.017304 0.012411
v -0.021414 -0.002968 0.006674
v -0.020262 -0.008121 0.006674
v 0.018745 0.005060 0.006674
v -0.013379 0.015393 0.013559
v -0.015101 -0.027058 0.013559
v 0.013006 -0.023612 0.006674
v 0.014728 0.009076 0.013559
v -0.009362 0.015393 0.006674
v -0.005922 -0.026487 0.006674
v 0.001531 -0.028779 0.013559
v 0.005549 0.015393 0.006674
v -0.018541 -0.000098 0.012985
v 0.017594 -0.020171 0.007249
v 0.005549 0.015393 0.013559
v -0.019688 0.006785 0.006674
v -0.011087 -0.027633 0.008396
v -0.004200 -0.029929 0.010117
v 0.017024 0.007360 0.011837
v 0.013580 0.011947 0.006674
v 0.011858 -0.019025 0.013559
v -0.016823 -0.023617 0.013559
v -0.020836 0.003344 0.009543
v -0.008214 -0.030504 0.013559
v -0.014527 -0.027633 0.011837
v 0.016450 0.009651 0.011264
v 0.015876 0.002764 0.012985
v -0.011657 0.014818 0.006674
v -0.017397 0.003344 0.013559
v 0.003827 -0.027633 0.013559
v -0.018541 -0.012142 0.006674
v 0.017594 -0.020171 0.006674
v -0.003630 -0.028779 0.008396
v 0.018168 0.004485 0.009543
v -0.021414 -0.002968 0.007822
v 0.015876 -0.021321 0.008396
v -0.019115 -0.001818 0.012411
f 328 340 342 
f 308 307 309 
f 308 309 312 
f 310 311 313 
f 309 307 314 
f 308 312 315 
f 313 311 316 
f 309 314 317 
f 314 310 317 
f 310 313 320 
f 317 310 320 
f 314 307 321 
f 312 316 323 
f 309 317 325 
f 317 320 325 
f 313 316 326 
f 319 306 326 
f 307 308 327 
f 311 310 327 
f 321 307 328 
f 310 321 328 
f 316 311 329 
f 323 316 329 
f 322 323 329 
f 327 308 330 
f 311 327 330 
f 329 311 330 
f 322 329 330 
f 320 313 331 
f 313 324 331 
f 324 309 331 
f 309 325 331 
f 325 320 331 
f 306 319 332 
f 324 313 332 
f 319 324 332 
f 313 326 332 
f 326 306 332 
f 310 314 333 
f 314 321 333 
f 321 310 333 
f 327 310 334 
f 318 327 334 
f 328 318 334 
f 310 328 334 
f 316 312 335 
f 326 316 335 
f 308 315 336 
f 315 322 336 
f 330 308 336 
f 322 330 336 
f 312 309 337 
f 309 319 337 
f 319 312 337 
f 315 312 338 
f 322 315 338 
f 312 323 338 
f 323 322 338 
f 319 309 339 
f 309 324 339 
f 324 319 339 
f 307 327 340 
f 328 307 340 
f 312 319 341 
f 319 326 341 
f 335 312 341 
f 326 335 341 
f 327 318 342 
f 318 328 342 
f 340 327 342 
o convex_9
v -0.017396 0.019409 0.025604
v 0.007269 0.019984 0.014133
v 0.006697 0.021704 0.015282
v -0.010511 0.030309 0.002085
v -0.012808 0.015393 0.002085
v -0.004779 0.028014 0.032491
v 0.000384 0.015393 0.032491
v 0.004975 0.015393 0.002085
v 0.003253 0.027438 0.002659
v -0.014527 0.026293 0.032491
v -0.002484 0.031454 0.024458
v -0.013380 0.015393 0.032491
v 0.004402 0.023998 0.027324
v -0.013955 0.025717 0.004954
v -0.013955 0.028588 0.024458
v 0.006697 0.015968 0.017002
v -0.016821 0.015969 0.017005
v -0.007070 0.031454 0.003234
v 0.003253 0.027438 0.025032
v -0.005923 0.032031 0.022163
v 0.006697 0.022852 0.006677
v -0.016821 0.018836 0.032491
v 0.003253 0.019409 0.030768
v -0.016821 0.021707 0.017005
v -0.011658 0.028588 0.030768
v 0.000384 0.030309 0.021011
v -0.000188 0.023997 0.032491
v 0.007269 0.018263 0.007823
v 0.004402 0.025145 0.002085
v -0.015674 0.019409 0.010118
v 0.004975 0.019411 0.027324
v -0.015102 0.015393 0.029622
v -0.009937 0.030882 0.010692
v 0.001531 0.025143 0.030768
v 0.003828 0.016541 0.028473
v -0.013955 0.024570 0.003808
v 0.004975 0.025145 0.023884
v 0.005550 0.025145 0.005528
v 0.001531 0.029734 0.022163
v 0.006122 0.015393 0.017574
v -0.012808 0.028014 0.003808
v -0.001912 0.029734 0.027899
v -0.004206 0.030309 0.002085
v -0.004206 0.032031 0.021011
v -0.015674 0.024570 0.016428
v -0.016821 0.020559 0.032491
f 357 366 388 
f 347 346 350 
f 349 347 350 
f 349 348 352 
f 347 349 354 
f 349 352 354 
f 345 344 363 
f 354 352 364 
f 343 359 364 
f 359 343 366 
f 352 348 367 
f 348 353 367 
f 357 352 367 
f 353 362 367 
f 362 357 367 
f 348 349 369 
f 349 365 369 
f 344 358 370 
f 358 350 370 
f 363 344 370 
f 350 363 370 
f 350 346 371 
f 363 350 371 
f 347 359 372 
f 359 366 372 
f 358 344 373 
f 355 365 373 
f 347 354 374 
f 359 347 374 
f 354 364 374 
f 364 359 374 
f 346 357 375 
f 360 346 375 
f 357 362 375 
f 362 360 375 
f 355 361 376 
f 365 355 376 
f 348 369 376 
f 369 365 376 
f 365 349 377 
f 358 373 377 
f 373 365 377 
f 346 347 378 
f 366 356 378 
f 347 372 378 
f 372 366 378 
f 344 345 379 
f 361 355 379 
f 345 363 379 
f 373 344 379 
f 355 373 379 
f 371 351 380 
f 363 371 380 
f 361 379 380 
f 379 363 380 
f 351 368 381 
f 368 353 381 
f 380 351 381 
f 361 380 381 
f 349 350 382 
f 350 358 382 
f 377 349 382 
f 358 377 382 
f 357 346 383 
f 346 378 383 
f 378 356 383 
f 353 348 384 
f 348 376 384 
f 376 361 384 
f 381 353 384 
f 361 381 384 
f 346 360 385 
f 368 351 385 
f 371 346 385 
f 351 371 385 
f 362 353 386 
f 360 362 386 
f 353 368 386 
f 385 360 386 
f 368 385 386 
f 366 357 387 
f 356 366 387 
f 357 383 387 
f 383 356 387 
f 352 357 388 
f 343 364 388 
f 364 352 388 
f 366 343 388 
o convex_10
v -0.001337 0.025143 0.050848
v -0.016823 0.018838 0.032493
v -0.016823 0.020558 0.032493
v 0.001532 0.018262 0.032493
v -0.010513 0.015968 0.049700
v -0.009938 0.028588 0.035936
v -0.012232 0.026865 0.050848
v -0.001910 0.017116 0.050848
v 0.000384 0.015393 0.032493
v -0.004778 0.027440 0.032493
v -0.013380 0.015393 0.032493
v -0.013953 0.021132 0.050848
v -0.005926 0.028588 0.049127
v -0.014527 0.026292 0.032493
v 0.000957 0.022850 0.033641
v 0.000384 0.019411 0.046833
v -0.003058 0.015393 0.045111
v -0.003058 0.027440 0.050848
v -0.015101 0.023997 0.043963
v -0.015675 0.016541 0.033641
v -0.000189 0.022850 0.050848
v -0.008791 0.015393 0.048552
v -0.001337 0.025143 0.032493
v -0.012807 0.018838 0.050848
v -0.009938 0.028013 0.050848
v -0.004204 0.015968 0.050848
v -0.000764 0.015968 0.043390
v -0.016823 0.018838 0.034214
v 0.001532 0.020558 0.034214
v -0.010513 0.028013 0.032493
f 398 402 418 
f 390 391 392 
f 389 395 396 
f 390 392 397 
f 392 391 398 
f 390 397 399 
f 396 395 400 
f 398 394 401 
f 395 394 402 
f 398 391 402 
f 397 392 404 
f 399 397 405 
f 395 389 406 
f 398 401 406 
f 389 403 406 
f 400 395 407 
f 402 391 407 
f 395 402 407 
f 390 399 408 
f 399 393 408 
f 389 396 409 
f 403 389 409 
f 396 404 409 
f 393 399 410 
f 399 405 410 
f 392 398 411 
f 403 392 411 
f 398 406 411 
f 406 403 411 
f 396 400 412 
f 408 393 412 
f 394 395 413 
f 401 394 413 
f 395 406 413 
f 406 401 413 
f 393 410 414 
f 410 405 414 
f 412 393 414 
f 396 412 414 
f 404 396 415 
f 397 404 415 
f 405 397 415 
f 396 414 415 
f 414 405 415 
f 391 390 416 
f 407 391 416 
f 400 407 416 
f 390 408 416 
f 412 400 416 
f 408 412 416 
f 392 403 417 
f 404 392 417 
f 403 409 417 
f 409 404 417 
f 394 398 418 
f 402 394 418 
o convex_11
v 0.009564 0.009077 -0.040370
v -0.020837 -0.002389 -0.024881
v -0.020837 -0.002389 -0.022585
v -0.020837 0.026867 -0.033483
v 0.010137 0.013669 -0.022585
v 0.001534 -0.014436 -0.022585
v -0.020837 0.003346 -0.039795
v -0.020837 0.025716 -0.022585
v 0.010137 -0.004109 -0.038072
v -0.019691 0.025716 -0.039795
v 0.010137 -0.009271 -0.022585
v 0.010137 0.015389 -0.028324
v -0.002485 -0.015587 -0.023159
v -0.003631 -0.004109 -0.038648
v -0.015676 0.025716 -0.023159
v -0.008219 0.021697 -0.038648
v 0.010137 -0.002389 -0.039795
v -0.020264 0.001052 -0.038072
v -0.008792 -0.012716 -0.022585
v -0.016246 0.012518 -0.040370
v 0.010137 0.012522 -0.035777
v 0.010137 -0.008697 -0.030044
v -0.009942 -0.002962 -0.038648
v 0.010137 0.015389 -0.023734
v -0.009365 0.020555 -0.040370
v -0.020837 0.025716 -0.039795
v -0.019118 0.026867 -0.028897
v -0.012231 -0.000668 -0.039795
v -0.000189 -0.013863 -0.026030
v -0.020264 -0.000668 -0.034630
v 0.010137 0.006209 -0.040370
v 0.007271 -0.004683 -0.038072
v 0.009564 0.010801 -0.039219
v 0.010137 0.014816 -0.031193
v 0.007841 0.016536 -0.026030
v -0.009365 -0.012142 -0.023734
v -0.008219 0.021128 -0.039795
v -0.020264 0.026290 -0.039219
v -0.017969 -0.000095 -0.038072
f 454 436 457 
f 420 421 422 
f 423 421 424 
f 420 422 425 
f 422 421 426 
f 421 423 426 
f 423 424 429 
f 427 423 429 
f 423 427 430 
f 426 423 433 
f 430 427 435 
f 421 420 437 
f 424 421 437 
f 431 424 437 
f 430 435 439 
f 429 424 440 
f 427 429 440 
f 432 431 441 
f 423 430 442 
f 433 423 442 
f 419 438 443 
f 443 438 444 
f 425 422 444 
f 438 425 444 
f 428 443 444 
f 422 426 445 
f 426 433 445 
f 435 432 446 
f 425 438 446 
f 432 441 446 
f 424 431 447 
f 431 432 447 
f 440 424 447 
f 427 440 447 
f 420 425 448 
f 425 436 448 
f 438 419 449 
f 439 435 449 
f 435 446 449 
f 446 438 449 
f 435 427 450 
f 432 435 450 
f 427 447 450 
f 447 432 450 
f 449 419 451 
f 439 449 451 
f 434 430 452 
f 430 439 452 
f 430 434 453 
f 442 430 453 
f 433 442 453 
f 445 433 453 
f 434 445 453 
f 437 420 454 
f 431 437 454 
f 420 448 454 
f 448 436 454 
f 419 443 455 
f 443 428 455 
f 439 451 455 
f 451 419 455 
f 434 452 455 
f 452 439 455 
f 444 422 456 
f 428 444 456 
f 422 445 456 
f 445 434 456 
f 455 428 456 
f 434 455 456 
f 436 425 457 
f 441 431 457 
f 425 446 457 
f 446 441 457 
f 431 454 457 
o convex_12
v 0.010137 0.013092 -0.021437
v -0.020837 -0.005259 -0.015701
v -0.020837 -0.005259 -0.015127
v 0.010137 -0.028778 -0.015701
v -0.009365 -0.013291 -0.022585
v -0.020837 0.024568 -0.015127
v -0.020837 0.025717 -0.022585
v 0.004399 0.013668 -0.015127
v 0.010137 -0.021889 -0.022010
v -0.020837 -0.002385 -0.022585
v 0.010137 0.013663 -0.022585
v -0.008789 -0.019598 -0.015127
v 0.010137 -0.004110 -0.015127
v -0.005923 0.021124 -0.015127
v 0.008990 -0.028778 -0.015127
v 0.010137 -0.009846 -0.022585
v -0.020264 0.026293 -0.022010
v 0.009564 -0.028207 -0.016849
v 0.010137 0.007356 -0.017996
v -0.008789 -0.019598 -0.015701
v -0.020837 -0.004105 -0.020863
v -0.013951 0.023992 -0.015701
v -0.000189 0.018256 -0.022585
v 0.009564 -0.025334 -0.019715
v -0.002485 -0.016159 -0.022585
v -0.019115 -0.004682 -0.022585
v -0.003631 0.019981 -0.015127
f 468 471 484 
f 459 460 463 
f 459 463 464 
f 463 460 465 
f 458 461 466 
f 464 462 467 
f 459 464 467 
f 462 464 468 
f 458 466 468 
f 460 459 469 
f 465 460 469 
f 461 458 470 
f 465 469 470 
f 463 465 471 
f 461 470 472 
f 470 469 472 
f 462 468 473 
f 468 466 473 
f 464 463 474 
f 461 472 475 
f 458 465 476 
f 470 458 476 
f 465 470 476 
f 469 459 477 
f 472 469 477 
f 462 475 477 
f 475 472 477 
f 459 467 478 
f 477 459 478 
f 463 471 479 
f 474 463 479 
f 471 474 479 
f 468 464 480 
f 471 468 480 
f 464 474 480 
f 474 471 480 
f 466 461 481 
f 461 475 481 
f 475 462 481 
f 462 473 482 
f 473 466 482 
f 466 481 482 
f 481 462 482 
f 467 462 483 
f 462 477 483 
f 478 467 483 
f 477 478 483 
f 465 458 484 
f 458 468 484 
f 471 465 484 
o convex_13
v 0.045133 -0.026488 -0.020867
v 0.040541 -0.021326 -0.041517
v 0.040541 -0.020178 -0.041517
v 0.010140 -0.026488 -0.015127
v 0.038821 -0.017882 -0.015127
v 0.010140 -0.017882 -0.021440
v 0.030221 -0.026488 -0.039221
v 0.053742 -0.024766 -0.036924
v 0.048001 -0.017882 -0.040368
v 0.027929 -0.017882 -0.039221
v 0.010140 -0.017882 -0.015127
v 0.038821 -0.026488 -0.015127
v 0.050869 -0.026488 -0.040368
v 0.011288 -0.025912 -0.022014
v 0.051445 -0.024192 -0.028895
v 0.020468 -0.019604 -0.033481
v 0.047429 -0.017882 -0.032907
v 0.053165 -0.026488 -0.032334
v 0.023336 -0.026488 -0.034054
v 0.041693 -0.017882 -0.018573
v 0.040541 -0.020178 -0.015703
v 0.010140 -0.022471 -0.022014
v 0.016452 -0.017882 -0.029469
v 0.053742 -0.024192 -0.035777
v 0.048573 -0.024766 -0.024307
v 0.043413 -0.019030 -0.041517
v 0.051445 -0.023618 -0.040368
v 0.018172 -0.024192 -0.030042
v 0.029649 -0.017882 -0.039794
v 0.010716 -0.026488 -0.020293
f 506 498 514 
f 485 488 491 
f 490 489 493 
f 490 493 494 
f 488 489 495 
f 489 490 495 
f 490 488 495 
f 488 485 496 
f 489 488 496 
f 491 486 497 
f 485 491 497 
f 494 491 500 
f 493 489 501 
f 485 497 502 
f 497 492 502 
f 491 488 503 
f 500 491 503 
f 501 489 504 
f 499 501 504 
f 496 485 505 
f 489 496 505 
f 504 489 505 
f 488 490 506 
f 500 506 507 
f 490 494 507 
f 494 500 507 
f 506 490 507 
f 492 493 508 
f 493 501 508 
f 501 499 508 
f 502 492 508 
f 499 502 508 
f 485 502 509 
f 502 499 509 
f 499 504 509 
f 505 485 509 
f 504 505 509 
f 486 487 510 
f 497 486 510 
f 497 510 511 
f 493 492 511 
f 492 497 511 
f 510 493 511 
f 503 498 512 
f 500 503 512 
f 498 506 512 
f 506 500 512 
f 487 486 513 
f 486 491 513 
f 491 494 513 
f 494 493 513 
f 510 487 513 
f 493 510 513 
f 503 488 514 
f 498 503 514 
f 488 506 514 
o convex_14
v 0.018173 -0.000095 -0.018570
v 0.025628 0.000478 -0.040943
v 0.025628 0.001626 -0.040943
v 0.010140 0.006215 -0.040368
v 0.011865 0.014818 -0.024308
v 0.010140 -0.000669 -0.017997
v 0.034807 -0.000095 -0.036350
v 0.010140 -0.000669 -0.039795
v 0.018746 0.010802 -0.037499
v 0.019895 0.011375 -0.025457
v 0.010140 0.011950 -0.020290
v 0.035383 -0.000669 -0.040943
v 0.010140 0.014818 -0.031190
v 0.019319 0.013096 -0.031763
v 0.019319 0.007361 -0.020866
v 0.022761 -0.000669 -0.021441
v 0.015304 0.008507 -0.040368
v 0.013009 0.007934 -0.017997
v 0.035383 0.000478 -0.040943
v 0.013587 0.012523 -0.020290
v 0.010140 0.010229 -0.039221
v 0.014731 0.014818 -0.031190
v 0.012435 0.013670 -0.034630
v 0.034807 0.001053 -0.039221
v 0.022761 0.000478 -0.021441
v 0.010716 -0.000669 -0.017421
v 0.010140 0.007361 -0.017997
v 0.015304 0.010229 -0.039221
v 0.010140 0.014818 -0.023735
v 0.019319 0.013096 -0.030615
f 538 528 544 
f 517 516 518 
f 518 516 522 
f 520 518 522 
f 518 520 525 
f 516 517 526 
f 520 522 526 
f 522 516 526 
f 518 525 527 
f 521 524 529 
f 520 526 530 
f 526 521 530 
f 517 518 531 
f 515 529 532 
f 526 517 533 
f 521 526 533 
f 523 528 533 
f 517 531 533 
f 524 519 534 
f 529 524 534 
f 525 532 534 
f 532 529 534 
f 518 527 535 
f 531 518 535 
f 527 519 536 
f 528 523 536 
f 535 527 537 
f 527 536 537 
f 536 523 537 
f 524 521 538 
f 521 533 538 
f 533 528 538 
f 529 515 539 
f 521 529 539 
f 515 530 539 
f 530 521 539 
f 530 515 540 
f 520 530 540 
f 515 532 540 
f 540 532 541 
f 525 520 541 
f 532 525 541 
f 520 540 541 
f 523 533 542 
f 533 531 542 
f 531 535 542 
f 535 537 542 
f 537 523 542 
f 519 527 543 
f 527 525 543 
f 534 519 543 
f 525 534 543 
f 519 524 544 
f 536 519 544 
f 528 536 544 
f 524 538 544 
o convex_15
v -0.012806 0.013672 0.032488
v 0.011285 0.012525 0.026754
v 0.011285 0.011951 0.026754
v 0.002106 0.012525 0.051420
v 0.005548 0.015393 0.013563
v -0.008217 0.011951 0.013563
v -0.003053 0.015393 0.044537
v -0.015674 0.015393 0.016435
v -0.003053 0.011951 0.047980
v 0.010137 0.011951 0.013563
v 0.004975 0.014245 0.044537
v -0.008790 0.015393 0.044537
v -0.011085 0.011951 0.021020
v 0.007841 0.014819 0.027903
v 0.005548 0.011951 0.047402
v -0.013951 0.015393 0.013563
v -0.015674 0.013672 0.017006
v -0.015099 0.015393 0.029623
v 0.010709 0.012525 0.034207
v 0.011285 0.013098 0.022169
v -0.011658 0.013672 0.036502
v -0.004776 0.011951 0.045108
v 0.000383 0.011951 0.051420
f 559 548 567 
f 551 549 552 
f 550 547 553 
f 547 550 554 
f 550 549 554 
f 551 548 555 
f 548 551 556 
f 551 552 556 
f 550 553 557 
f 549 551 558 
f 551 555 558 
f 553 547 559 
f 555 548 559 
f 549 550 560 
f 552 549 560 
f 552 560 561 
f 557 545 561 
f 550 557 561 
f 560 550 561 
f 556 552 562 
f 552 561 562 
f 561 545 562 
f 547 546 563 
f 558 555 563 
f 559 547 563 
f 555 559 563 
f 546 547 564 
f 547 554 564 
f 554 549 564 
f 549 558 564 
f 563 546 564 
f 558 563 564 
f 556 562 565 
f 562 545 565 
f 553 556 566 
f 545 557 566 
f 557 553 566 
f 556 565 566 
f 565 545 566 
f 548 556 567 
f 556 553 567 
f 553 559 567 
o convex_16
v 0.003829 0.011951 0.048552
v 0.015303 0.005066 0.033065
v 0.015303 0.004493 0.033065
v 0.010713 0.010229 0.023312
v 0.007273 0.004493 0.051995
v 0.013581 0.009655 0.034211
v 0.008420 0.006788 0.053718
v 0.014155 0.004493 0.023312
v 0.003829 0.009081 0.050849
v 0.013007 0.010803 0.023312
v 0.006699 0.011951 0.046257
v 0.004978 0.011377 0.039950
v 0.011287 0.011951 0.023312
v 0.011860 0.004493 0.046257
v 0.011287 0.011951 0.034211
v 0.014728 0.008508 0.023312
v 0.006125 0.009655 0.053718
v 0.011287 0.006788 0.046831
v 0.003829 0.009081 0.053718
v 0.008993 0.004493 0.053718
v 0.015303 0.004493 0.023312
f 575 583 588 
f 570 572 575 
f 575 572 576 
f 575 571 577 
f 571 575 579 
f 576 568 579 
f 575 576 579 
f 577 571 580 
f 568 578 580 
f 571 579 580 
f 579 568 580 
f 570 569 581 
f 572 570 581 
f 573 577 582 
f 578 573 582 
f 577 580 582 
f 580 578 582 
f 573 569 583 
f 577 573 583 
f 575 577 583 
f 578 568 584 
f 573 578 584 
f 569 573 585 
f 581 569 585 
f 584 574 585 
f 573 584 585 
f 568 576 586 
f 576 572 586 
f 574 584 586 
f 584 568 586 
f 572 581 587 
f 581 585 587 
f 585 574 587 
f 586 572 587 
f 574 586 587 
f 569 570 588 
f 570 575 588 
f 583 569 588 
o convex_17
v -0.005925 -0.016159 0.056588
v -0.013381 -0.004687 0.057734
v -0.013381 -0.004687 0.056013
v -0.015102 -0.010996 0.054293
v -0.003629 -0.016159 0.053718
v -0.003629 -0.013865 0.060029
v -0.012235 -0.011569 0.058882
v -0.015677 -0.004687 0.053718
v -0.012235 -0.013865 0.053718
v -0.014530 -0.005261 0.058307
v -0.009368 -0.014440 0.058307
v -0.003629 -0.013865 0.057734
v -0.013955 -0.004687 0.054293
f 600 593 601 
f 591 590 594 
f 589 593 594 
f 590 591 596 
f 596 593 597 
f 593 589 597 
f 592 596 597 
f 594 590 598 
f 595 594 598 
f 592 595 598 
f 590 596 598 
f 596 592 598 
f 589 594 599 
f 594 595 599 
f 595 592 599 
f 597 589 599 
f 592 597 599 
f 591 594 600 
f 594 593 600 
f 596 591 601 
f 593 596 601 
f 591 600 601 
o convex_18
v -0.008220 0.007933 0.056014
v -0.015677 -0.004687 0.053718
v -0.015677 -0.004687 0.054867
v -0.003629 0.007360 0.060603
v -0.003629 0.008506 0.053718
v -0.013381 -0.004687 0.058308
v -0.011659 0.002771 0.058882
v -0.012808 0.003918 0.053718
v -0.013381 -0.004687 0.054867
v -0.004204 0.009656 0.060029
v -0.005925 0.009080 0.053718
v -0.015102 -0.002391 0.056587
f 609 603 613 
f 604 603 607 
f 607 605 608 
f 606 603 609 
f 608 602 609 
f 606 605 610 
f 603 606 610 
f 607 603 610 
f 605 607 610 
f 605 606 611 
f 608 605 611 
f 602 608 611 
f 609 602 612 
f 606 609 612 
f 602 611 612 
f 611 606 612 
f 603 604 613 
f 604 607 613 
f 607 608 613 
f 608 609 613 
o convex_19
v 0.017027 -0.038533 -0.026029
v 0.053168 -0.026490 -0.032339
v 0.053168 -0.026490 -0.035205
v 0.042265 -0.045994 -0.037500
v 0.025631 -0.028212 -0.038647
v 0.043411 -0.041975 -0.027176
v 0.016451 -0.026490 -0.026029
v 0.021621 -0.040255 -0.037500
v 0.050296 -0.027064 -0.041516
v 0.049147 -0.026490 -0.026029
v 0.042265 -0.040828 -0.040368
v 0.019899 -0.033949 -0.038073
v 0.048001 -0.040255 -0.031765
v 0.030221 -0.026490 -0.039220
v 0.040543 -0.045994 -0.034059
v 0.014156 -0.034522 -0.026603
v 0.046279 -0.039107 -0.040368
v 0.042834 -0.039680 -0.026029
v 0.050296 -0.033949 -0.028324
v 0.018746 -0.039680 -0.026029
v 0.030221 -0.043697 -0.036927
v 0.039967 -0.044845 -0.030044
v 0.045133 -0.043122 -0.029471
v 0.015305 -0.029932 -0.028897
v 0.039967 -0.045417 -0.038647
v 0.048578 -0.028785 -0.041516
v 0.021621 -0.026490 -0.032913
v 0.019899 -0.035669 -0.038073
v 0.049147 -0.036813 -0.035779
v 0.050873 -0.028212 -0.040941
v 0.038244 -0.042550 -0.027176
v 0.050873 -0.026490 -0.040941
v 0.052015 -0.029932 -0.028897
v 0.022190 -0.039680 -0.038073
v 0.047425 -0.033374 -0.026029
v 0.052591 -0.028785 -0.034632
f 646 626 649 
f 615 616 620 
f 615 620 623 
f 620 614 623 
f 620 616 627 
f 625 618 627 
f 614 620 629 
f 621 614 629 
f 626 617 630 
f 623 614 631 
f 614 621 633 
f 631 614 633 
f 617 628 634 
f 633 621 634 
f 628 633 634 
f 633 628 635 
f 617 626 636 
f 628 617 636 
f 626 632 636 
f 632 619 636 
f 619 635 636 
f 635 628 636 
f 629 620 637 
f 625 629 637 
f 630 617 638 
f 624 630 638 
f 617 634 638 
f 634 621 638 
f 627 622 639 
f 625 627 639 
f 622 630 639 
f 630 624 639 
f 618 625 640 
f 620 627 640 
f 627 618 640 
f 637 620 640 
f 625 637 640 
f 621 629 641 
f 629 625 641 
f 639 624 641 
f 625 639 641 
f 626 630 642 
f 642 630 643 
f 630 622 643 
f 619 631 644 
f 631 633 644 
f 635 619 644 
f 633 635 644 
f 627 616 645 
f 622 627 645 
f 616 643 645 
f 643 622 645 
f 615 623 646 
f 623 632 646 
f 632 626 646 
f 638 621 647 
f 624 638 647 
f 621 641 647 
f 641 624 647 
f 631 619 648 
f 623 631 648 
f 632 623 648 
f 619 632 648 
f 616 615 649 
f 626 642 649 
f 642 643 649 
f 643 616 649 
f 615 646 649 
o convex_20
v 0.015309 -0.037961 -0.025452
v 0.048575 -0.026488 -0.025452
v 0.048575 -0.026488 -0.026027
v 0.010144 -0.026488 -0.015127
v 0.029073 -0.033944 -0.015127
v 0.015880 -0.026488 -0.026027
v 0.039396 -0.037387 -0.026027
v 0.038820 -0.026488 -0.015127
v 0.018751 -0.037387 -0.017996
v 0.045704 -0.032801 -0.023732
v 0.025059 -0.040257 -0.026027
v 0.027354 -0.038534 -0.020862
v 0.013586 -0.032225 -0.026027
v 0.010144 -0.028783 -0.015127
v 0.012438 -0.035091 -0.020862
v 0.010144 -0.026488 -0.018571
v 0.019898 -0.034519 -0.015127
v 0.014733 -0.035666 -0.017422
v 0.017603 -0.039108 -0.022583
v 0.046852 -0.033372 -0.026027
v 0.038248 -0.030504 -0.016850
v 0.031364 -0.036815 -0.019717
v 0.023912 -0.039108 -0.020862
v 0.041690 -0.027062 -0.017422
v 0.018751 -0.039681 -0.026027
v 0.022193 -0.036240 -0.016275
v 0.031364 -0.039108 -0.024304
v 0.013586 -0.035666 -0.025452
f 662 674 677 
f 651 652 653 
f 653 652 655 
f 655 652 656 
f 651 653 657 
f 653 654 657 
f 655 656 660 
f 655 660 662 
f 654 653 663 
f 653 655 665 
f 655 662 665 
f 663 653 665 
f 664 663 665 
f 654 663 666 
f 666 663 667 
f 663 664 667 
f 658 666 667 
f 667 664 668 
f 664 650 668 
f 658 667 668 
f 652 651 669 
f 656 652 669 
f 651 659 669 
f 659 656 669 
f 657 654 670 
f 654 659 670 
f 656 659 671 
f 659 654 671 
f 654 661 671 
f 668 660 672 
f 658 668 672 
f 651 657 673 
f 659 651 673 
f 657 670 673 
f 670 659 673 
f 662 660 674 
f 668 650 674 
f 660 668 674 
f 661 654 675 
f 654 666 675 
f 666 658 675 
f 658 672 675 
f 672 661 675 
f 660 656 676 
f 656 671 676 
f 671 661 676 
f 672 660 676 
f 661 672 676 
f 650 664 677 
f 665 662 677 
f 664 665 677 
f 674 650 677 
o convex_21
v 0.040544 -0.017880 -0.017422
v 0.024483 -0.000673 -0.025453
v 0.024483 -0.000673 -0.026601
v 0.010140 -0.017880 -0.020864
v 0.010140 -0.004115 -0.015127
v 0.042267 -0.017880 -0.026601
v 0.010140 -0.008704 -0.026601
v 0.029072 -0.005835 -0.015127
v 0.010140 -0.017880 -0.015127
v 0.010140 -0.000673 -0.026601
v 0.017027 -0.017880 -0.026601
v 0.017027 -0.000673 -0.017422
v 0.039972 -0.012718 -0.023732
v 0.038252 -0.017880 -0.015127
v 0.039972 -0.013865 -0.018569
v 0.010140 -0.000673 -0.017422
v 0.022191 -0.002968 -0.015127
v 0.040544 -0.013290 -0.026601
v 0.042267 -0.016732 -0.020291
v 0.037104 -0.013865 -0.015127
v 0.022763 -0.000673 -0.021436
v 0.011288 -0.017880 -0.022584
v 0.038252 -0.011571 -0.021436
f 685 692 700 
f 678 681 683 
f 681 682 684 
f 680 683 684 
f 681 678 686 
f 682 681 686 
f 685 682 686 
f 679 680 687 
f 684 682 687 
f 680 684 687 
f 683 681 688 
f 684 683 688 
f 679 687 689 
f 680 679 690 
f 686 678 691 
f 685 686 691 
f 687 682 693 
f 689 687 693 
f 689 693 694 
f 682 685 694 
f 693 682 694 
f 683 680 695 
f 680 690 695 
f 678 683 696 
f 692 678 696 
f 690 692 696 
f 683 695 696 
f 695 690 696 
f 691 678 697 
f 685 691 697 
f 678 692 697 
f 692 685 697 
f 685 679 698 
f 679 689 698 
f 689 694 698 
f 694 685 698 
f 681 684 699 
f 688 681 699 
f 684 688 699 
f 679 685 700 
f 690 679 700 
f 692 690 700 
o convex_22
v -0.000761 -0.024767 0.030196
v -0.016247 -0.025341 0.013559
v -0.016824 -0.025341 0.014134
v -0.002481 -0.030504 0.018150
v 0.006121 -0.024767 0.013559
v 0.006696 -0.025914 0.027899
v -0.013381 -0.025914 0.024457
v -0.008218 -0.030504 0.013559
v 0.004974 -0.029356 0.017577
v -0.000761 -0.028782 0.025602
v -0.016247 -0.024767 0.019298
v -0.008790 -0.029930 0.018723
v -0.016247 -0.027062 0.016430
v 0.007845 -0.024767 0.025602
v -0.009365 -0.025341 0.028473
v -0.002481 -0.030504 0.013559
v 0.007270 -0.027062 0.015280
v 0.004974 -0.029356 0.021593
v -0.016247 -0.024767 0.013559
v 0.000963 -0.027062 0.028472
v -0.005924 -0.028782 0.023884
v 0.007845 -0.026490 0.022738
v 0.004974 -0.028208 0.014134
v -0.009365 -0.024767 0.028473
v 0.007845 -0.024767 0.017003
f 722 717 725 
f 703 702 708 
f 702 705 708 
f 701 705 711 
f 708 704 712 
f 704 710 712 
f 703 708 713 
f 711 703 713 
f 707 711 713 
f 712 707 713 
f 708 712 713 
f 705 701 714 
f 701 706 714 
f 704 708 716 
f 708 705 716 
f 709 704 716 
f 704 709 718 
f 710 704 718 
f 702 703 719 
f 705 702 719 
f 703 711 719 
f 711 705 719 
f 706 701 720 
f 701 715 720 
f 715 710 720 
f 718 706 720 
f 710 718 720 
f 707 712 721 
f 712 710 721 
f 710 715 721 
f 715 707 721 
f 714 706 722 
f 709 717 722 
f 718 709 722 
f 706 718 722 
f 716 705 723 
f 709 716 723 
f 717 709 723 
f 705 717 723 
f 701 711 724 
f 711 707 724 
f 715 701 724 
f 707 715 724 
f 705 714 725 
f 717 705 725 
f 714 722 725 
o convex_23
v 0.008418 -0.011571 0.063472
v -0.003628 -0.016734 0.053718
v -0.003628 -0.016161 0.053718
v 0.010138 -0.013294 0.053718
v 0.002109 -0.018456 0.054292
v -0.003628 -0.013867 0.060602
v 0.008990 -0.010998 0.053718
v -0.001907 -0.015586 0.060602
v 0.006123 -0.010998 0.063472
v 0.005549 -0.014441 0.061750
v 0.006123 -0.016734 0.056015
v -0.003628 -0.013867 0.058309
v -0.003054 -0.017308 0.056015
v 0.001535 -0.014441 0.062324
v 0.005549 -0.017308 0.053718
v 0.009564 -0.010998 0.060602
f 732 734 741 
f 727 728 729 
f 728 727 731 
f 729 728 732 
f 733 730 735 
f 729 726 736 
f 726 735 736 
f 735 730 736 
f 728 731 737 
f 732 728 737 
f 731 734 737 
f 734 732 737 
f 727 730 738 
f 731 727 738 
f 730 733 738 
f 733 731 738 
f 731 733 739 
f 734 731 739 
f 726 734 739 
f 735 726 739 
f 733 735 739 
f 727 729 740 
f 730 727 740 
f 729 736 740 
f 736 730 740 
f 726 729 741 
f 729 732 741 
f 734 726 741 
o convex_24
v 0.011287 -0.002967 0.064619
v 0.008993 -0.010997 0.053718
v 0.008993 -0.010423 0.053718
v 0.007845 -0.010997 0.063471
v 0.011860 -0.007554 0.064044
v 0.010714 -0.001819 0.053718
v 0.012435 -0.005262 0.055441
v 0.010714 -0.010997 0.053718
v 0.012435 -0.003540 0.064044
v 0.010714 -0.002393 0.064044
v 0.007845 -0.009849 0.061176
v 0.011860 -0.001819 0.053718
v 0.010714 -0.009849 0.064044
f 749 746 754 
f 743 744 747 
f 745 743 749 
f 743 747 749 
f 748 746 749 
f 742 746 750 
f 746 748 750 
f 745 742 751 
f 742 750 751 
f 744 743 752 
f 743 745 752 
f 747 744 752 
f 745 751 752 
f 751 747 752 
f 749 747 753 
f 748 749 753 
f 750 748 753 
f 747 751 753 
f 751 750 753 
f 742 745 754 
f 746 742 754 
f 745 749 754 
o convex_25
v 0.007846 0.006787 0.063471
v 0.010713 -0.001817 0.053718
v 0.010139 -0.001243 0.053718
v 0.008419 0.006787 0.053718
v 0.012435 -0.000096 0.064619
v 0.011287 -0.001817 0.064044
v 0.007271 0.005065 0.054293
v 0.011860 -0.001243 0.053718
v 0.008993 0.006787 0.063471
v 0.007846 0.005065 0.062324
f 755 761 764 
f 756 757 758 
f 757 756 760 
f 759 755 760 
f 758 757 761 
f 755 758 761 
f 756 758 762 
f 758 759 762 
f 760 756 762 
f 759 760 762 
f 758 755 763 
f 755 759 763 
f 759 758 763 
f 760 755 764 
f 757 760 764 
f 761 757 764 
o convex_26
v 0.005549 0.010229 0.057162
v -0.003629 0.009082 0.053718
v -0.003629 0.008509 0.059455
v 0.007845 0.006788 0.053718
v 0.008992 0.006788 0.063472
v -0.000186 0.010803 0.061176
v 0.002108 0.011377 0.053718
v 0.003255 0.011377 0.060028
v -0.003629 0.010229 0.060602
v 0.005549 0.006788 0.053718
v -0.000186 0.011377 0.053718
v 0.008417 0.007935 0.063472
v 0.006124 0.009656 0.053718
f 776 768 777 
f 768 766 771 
f 765 771 772 
f 766 767 773 
f 767 769 773 
f 767 766 774 
f 766 768 774 
f 768 769 774 
f 769 767 774 
f 771 766 775 
f 770 772 775 
f 772 771 775 
f 766 773 775 
f 773 770 775 
f 769 768 776 
f 765 772 776 
f 772 770 776 
f 773 769 776 
f 770 773 776 
f 771 765 777 
f 768 771 777 
f 765 776 777 
o convex_27
v 0.045131 -0.017307 -0.029471
v 0.031937 -0.006409 -0.042089
v 0.029646 -0.009277 -0.041515
v 0.010140 -0.005834 -0.026602
v 0.017025 -0.017882 -0.030045
v 0.047999 -0.017882 -0.040367
v 0.041686 -0.007557 -0.032914
v 0.015883 -0.013292 -0.039221
v 0.042840 -0.017882 -0.026602
v 0.014157 -0.005834 -0.038073
v 0.023910 -0.005834 -0.026602
v 0.041117 -0.005834 -0.039794
v 0.027355 -0.017882 -0.039794
v 0.017025 -0.017882 -0.026602
v 0.047999 -0.012144 -0.040367
v 0.038819 -0.011000 -0.026602
v 0.012435 -0.011573 -0.036352
v 0.041686 -0.011573 -0.042089
v 0.049152 -0.014440 -0.036925
v 0.043985 -0.011573 -0.030045
v 0.010140 -0.008704 -0.030045
v 0.015307 -0.015013 -0.037500
v 0.017025 -0.005834 -0.039794
v 0.010140 -0.005834 -0.033487
v 0.035951 -0.005834 -0.042089
v 0.043409 -0.006982 -0.037500
v 0.038250 -0.012144 -0.042089
v 0.047999 -0.017307 -0.040942
v 0.013011 -0.012144 -0.038073
v 0.042840 -0.006982 -0.040942
v 0.035951 -0.009277 -0.026602
v 0.010140 -0.008704 -0.026602
v 0.047999 -0.017882 -0.035778
v 0.040541 -0.005834 -0.037500
v 0.047999 -0.012144 -0.036925
f 792 803 812 
f 779 780 785 
f 782 783 786 
f 781 786 788 
f 787 781 788 
f 787 788 789 
f 783 782 790 
f 786 781 791 
f 782 786 791 
f 788 786 793 
f 786 778 797 
f 784 793 797 
f 793 786 797 
f 778 796 797 
f 782 791 798 
f 794 782 798 
f 790 782 799 
f 785 790 799 
f 779 785 800 
f 787 789 800 
f 781 787 801 
f 798 781 801 
f 794 798 801 
f 795 779 802 
f 779 800 802 
f 800 789 802 
f 780 779 804 
f 785 780 804 
f 790 785 804 
f 779 795 804 
f 804 795 805 
f 783 790 805 
f 795 792 805 
f 796 783 805 
f 792 796 805 
f 790 804 805 
f 782 794 806 
f 799 782 806 
f 785 799 806 
f 800 785 806 
f 787 800 806 
f 801 787 806 
f 794 801 806 
f 792 795 807 
f 802 789 807 
f 795 802 807 
f 789 803 807 
f 803 792 807 
f 784 788 808 
f 793 784 808 
f 788 793 808 
f 791 781 809 
f 781 798 809 
f 798 791 809 
f 786 783 810 
f 778 786 810 
f 796 778 810 
f 783 796 810 
f 788 784 811 
f 789 788 811 
f 784 803 811 
f 803 789 811 
f 796 792 812 
f 784 797 812 
f 797 796 812 
f 803 784 812 
o convex_28
v 0.037102 -0.001245 -0.039221
v 0.030214 -0.002966 -0.042089
v 0.030214 -0.001245 -0.042089
v 0.010140 -0.005834 -0.026602
v 0.010140 -0.000671 -0.039794
v 0.024486 -0.000671 -0.026602
v 0.039399 -0.005834 -0.037500
v 0.016455 -0.005834 -0.039794
v 0.010140 -0.000671 -0.026602
v 0.023913 -0.005834 -0.026602
v 0.036526 -0.005834 -0.042089
v 0.035381 -0.000671 -0.040942
v 0.010140 -0.005834 -0.034632
v 0.035381 -0.000671 -0.036352
v 0.010140 -0.002392 -0.039794
v 0.031938 -0.005834 -0.042089
v 0.037678 -0.001819 -0.040942
f 824 813 829 
f 815 814 817 
f 819 816 820 
f 817 816 821 
f 816 818 821 
f 818 817 821 
f 818 816 822 
f 816 819 822 
f 819 818 822 
f 814 815 823 
f 819 820 823 
f 815 817 824 
f 817 818 824 
f 816 817 825 
f 820 816 825 
f 819 813 826 
f 818 819 826 
f 813 824 826 
f 824 818 826 
f 817 814 827 
f 825 817 827 
f 820 825 827 
f 814 823 828 
f 823 820 828 
f 827 814 828 
f 820 827 828 
f 813 819 829 
f 823 815 829 
f 819 823 829 
f 815 824 829 
o convex_29
v 0.001534 0.011377 0.053718
v -0.009366 0.008508 0.043965
v -0.009366 0.009655 0.043965
v -0.009366 0.006787 0.053718
v 0.003829 0.009655 0.050850
v -0.008792 0.005066 0.053718
v -0.005348 0.011951 0.043965
v -0.005348 0.011377 0.050276
v 0.003829 0.011951 0.047982
v 0.003829 0.009655 0.053718
v -0.001335 0.011951 0.052571
v -0.008792 0.007935 0.044539
v 0.003829 0.010803 0.047982
v -0.008792 0.010803 0.045113
f 837 836 843 
f 832 831 833 
f 833 831 835 
f 830 833 835 
f 831 832 836 
f 835 834 839 
f 830 835 839 
f 838 830 839 
f 834 838 839 
f 833 830 840 
f 837 833 840 
f 836 837 840 
f 830 838 840 
f 838 836 840 
f 835 831 841 
f 834 835 841 
f 831 836 842 
f 838 834 842 
f 836 838 842 
f 841 831 842 
f 834 841 842 
f 832 833 843 
f 836 832 843 
f 833 837 843 
o convex_30
v 0.015877 -0.010997 0.031346
v 0.013583 0.004491 0.039949
v 0.013009 0.004491 0.039949
v 0.014156 0.004491 0.023312
v 0.012435 -0.012144 0.028476
v 0.014156 -0.012717 0.039375
v 0.015876 0.001623 0.036507
v 0.015876 -0.002393 0.023312
v 0.014729 -0.012717 0.023887
v 0.015876 -0.006981 0.039949
v 0.013009 0.004491 0.028476
v 0.013009 -0.012144 0.023887
v 0.016451 -0.009850 0.033061
v 0.015876 0.002769 0.023312
v 0.013582 -0.012144 0.039375
v 0.015303 0.004491 0.033062
v 0.015303 -0.012717 0.038226
v 0.016451 -0.002966 0.033062
f 856 857 861 
f 846 845 847 
f 849 848 852 
f 845 846 853 
f 850 845 853 
f 846 847 854 
f 848 846 854 
f 848 854 855 
f 847 851 855 
f 852 848 855 
f 851 852 855 
f 854 847 855 
f 844 852 856 
f 852 851 856 
f 851 847 857 
f 856 851 857 
f 846 848 858 
f 848 849 858 
f 853 846 858 
f 849 853 858 
f 847 845 859 
f 845 850 859 
f 857 847 859 
f 850 857 859 
f 849 852 860 
f 852 844 860 
f 853 849 860 
f 844 856 860 
f 856 853 860 
f 850 853 861 
f 853 856 861 
f 857 850 861 
o convex_31
v -0.017399 -0.011001 0.029048
v -0.016824 -0.024767 0.018723
v -0.015104 -0.024767 0.018723
v -0.018545 -0.010424 0.018723
v -0.020267 -0.011001 0.032490
v -0.015103 -0.019027 0.033637
v -0.013382 -0.023618 0.022164
v -0.019693 -0.012148 0.018723
v -0.016825 -0.018454 0.033637
v -0.018545 -0.020750 0.019298
v -0.016824 -0.024767 0.021018
v -0.018544 -0.010424 0.033637
v -0.015103 -0.016736 0.031914
v -0.013382 -0.024767 0.022738
v -0.015678 -0.015589 0.026754
f 874 868 876 
f 864 863 865 
f 864 865 868 
f 865 863 869 
f 866 865 869 
f 869 863 871 
f 866 869 871 
f 863 864 872 
f 870 866 872 
f 867 870 872 
f 871 863 872 
f 866 871 872 
f 862 865 873 
f 865 866 873 
f 866 870 873 
f 870 867 873 
f 867 868 874 
f 862 873 874 
f 873 867 874 
f 864 868 875 
f 868 867 875 
f 872 864 875 
f 867 872 875 
f 865 862 876 
f 868 865 876 
f 862 874 876 
o convex_32
v -0.021414 -0.003539 0.016428
v -0.017399 0.009082 0.020443
v -0.017399 0.009082 0.019869
v -0.017399 -0.010424 0.014707
v -0.020267 -0.010424 0.020443
v -0.017399 0.004492 0.014133
v -0.021987 0.000475 0.020443
v -0.018546 -0.010424 0.020443
v -0.019693 0.005640 0.016428
v -0.019120 -0.010424 0.014133
v -0.020840 -0.001816 0.014707
v -0.021414 -0.008129 0.017575
f 877 887 888 
f 879 878 880 
f 879 880 882 
f 881 878 883 
f 880 878 884 
f 881 880 884 
f 878 881 884 
f 878 879 885 
f 879 882 885 
f 883 878 885 
f 880 881 886 
f 882 880 886 
f 882 886 887 
f 877 883 887 
f 885 882 887 
f 883 885 887 
f 883 877 888 
f 881 883 888 
f 886 881 888 
f 887 886 888 
o convex_33
v 0.006120 -0.024767 0.013559
v 0.013582 -0.006982 0.019869
v 0.005548 -0.008707 0.021015
v -0.009365 -0.006982 0.013559
v 0.011859 -0.006982 0.013559
v 0.007270 -0.024767 0.019869
v -0.009365 -0.012723 0.018721
v -0.005349 -0.006982 0.021591
v -0.009365 -0.016734 0.013559
v 0.011284 -0.017878 0.013559
v -0.004776 -0.016156 0.020442
v 0.002109 -0.014445 0.021591
v 0.008418 -0.024767 0.019869
v -0.008790 -0.008131 0.020442
v -0.009365 -0.016734 0.015281
v 0.004400 -0.024767 0.014134
v -0.003628 -0.013296 0.021591
v 0.011284 -0.016734 0.019869
v 0.011859 -0.016156 0.013559
f 906 898 907 
f 889 892 893 
f 892 890 893 
f 891 890 896 
f 890 892 896 
f 892 889 897 
f 895 892 897 
f 889 893 898 
f 890 891 900 
f 891 896 900 
f 894 889 901 
f 889 898 901 
f 900 894 901 
f 892 895 902 
f 896 892 902 
f 895 899 902 
f 895 897 903 
f 894 899 903 
f 899 895 903 
f 889 894 904 
f 897 889 904 
f 894 903 904 
f 903 897 904 
f 899 894 905 
f 894 900 905 
f 900 896 905 
f 896 902 905 
f 902 899 905 
f 890 900 906 
f 901 898 906 
f 900 901 906 
f 893 890 907 
f 898 893 907 
f 890 906 907 
o convex_34
v -0.008792 -0.006982 0.019868
v 0.010140 0.011951 0.022164
v 0.010140 0.010802 0.022164
v 0.010140 0.011951 0.013559
v -0.009366 0.011376 0.013559
v 0.010140 -0.006982 0.013559
v -0.009366 0.009655 0.023312
v 0.003255 -0.003538 0.022738
v -0.009366 -0.006982 0.013559
v 0.008418 -0.006982 0.019296
v -0.000759 0.011951 0.023312
v -0.005349 -0.006982 0.021590
v -0.008792 0.011951 0.014133
v 0.010140 -0.003538 0.018721
v -0.009366 -0.006407 0.019868
v 0.004975 -0.006982 0.021017
v 0.001532 0.010802 0.023312
v -0.009366 0.008506 0.023312
v -0.005924 0.011951 0.019868
f 918 920 926 
f 909 910 911 
f 911 910 913 
f 912 911 913 
f 913 908 916 
f 912 913 916 
f 914 912 916 
f 908 913 917 
f 910 915 917 
f 909 911 918 
f 908 917 919 
f 911 912 920 
f 912 914 920 
f 918 911 920 
f 913 910 921 
f 917 913 921 
f 910 917 921 
f 916 908 922 
f 914 916 922 
f 908 919 922 
f 917 915 923 
f 915 919 923 
f 919 917 923 
f 910 909 924 
f 915 910 924 
f 909 918 924 
f 918 914 924 
f 919 915 925 
f 914 922 925 
f 922 919 925 
f 915 924 925 
f 924 914 925 
f 914 918 926 
f 920 914 926 
o convex_35
v -0.014530 -0.014441 0.014134
v -0.019693 -0.012147 0.015855
v -0.019693 -0.012147 0.018722
v -0.016825 -0.024767 0.018722
v -0.017972 -0.023044 0.014134
v -0.015104 -0.024767 0.013559
v -0.014530 -0.010424 0.013559
v -0.015678 -0.023044 0.018722
v -0.018545 -0.010424 0.014134
v -0.019118 -0.010424 0.018722
v -0.014530 -0.010424 0.014707
v -0.018545 -0.020750 0.018722
f 928 931 938 
f 930 931 932 
f 927 932 933 
f 929 930 934 
f 932 927 934 
f 930 932 934 
f 931 928 935 
f 932 931 935 
f 933 932 935 
f 933 935 936 
f 928 929 936 
f 929 934 936 
f 935 928 936 
f 936 934 937 
f 927 933 937 
f 934 927 937 
f 933 936 937 
f 929 928 938 
f 930 929 938 
f 931 930 938 
o convex_36
v -0.011088 0.010227 0.020443
v -0.017398 -0.010422 0.014133
v -0.014529 -0.015012 0.013559
v -0.009366 0.011377 0.013559
v -0.009366 -0.012717 0.018722
v -0.017398 0.009082 0.020443
v -0.017398 0.004492 0.014133
v -0.009366 -0.016735 0.013559
v -0.009366 0.006787 0.020443
v -0.013382 0.009082 0.013559
v -0.017398 -0.010422 0.014707
v -0.017398 -0.001251 0.013559
v -0.009941 -0.012717 0.018722
v -0.016250 0.009654 0.017001
v -0.017398 0.007932 0.020443
f 949 951 953 
f 939 942 944 
f 940 944 945 
f 941 942 946 
f 942 943 946 
f 942 939 947 
f 943 942 947 
f 939 944 947 
f 942 941 948 
f 940 941 949 
f 944 940 949 
f 941 940 950 
f 940 945 950 
f 948 941 950 
f 945 948 950 
f 941 946 951 
f 946 943 951 
f 943 947 951 
f 949 941 951 
f 944 942 952 
f 945 944 952 
f 942 948 952 
f 948 945 952 
f 947 944 953 
f 944 949 953 
f 951 947 953 
o convex_37
v 0.008995 -0.016162 0.053143
v 0.007272 -0.024767 0.023886
v 0.007272 -0.024191 0.023886
v 0.014729 -0.013294 0.023886
v 0.005550 -0.015588 0.053143
v 0.013580 -0.017310 0.037082
v 0.012434 -0.012719 0.050848
v 0.013580 -0.012719 0.023886
v 0.005550 -0.021322 0.030771
v 0.006124 -0.023619 0.037657
v 0.010713 -0.023044 0.027331
v 0.008420 -0.012719 0.053718
v 0.010713 -0.020177 0.039950
v 0.014729 -0.012719 0.040522
v 0.005550 -0.017311 0.053718
v 0.011860 -0.020750 0.023886
v 0.005550 -0.024767 0.027904
v 0.007846 -0.020177 0.046257
v 0.011860 -0.014441 0.050848
v 0.006124 -0.024191 0.025036
v 0.013008 -0.013294 0.023886
v 0.008420 -0.024767 0.025609
v 0.014729 -0.013867 0.039950
f 972 959 976 
f 955 956 957 
f 957 956 961 
f 954 960 965 
f 961 958 965 
f 960 961 965 
f 964 959 966 
f 963 964 966 
f 961 960 967 
f 957 961 967 
f 958 962 968 
f 954 965 968 
f 965 958 968 
f 955 957 969 
f 957 959 969 
f 959 964 969 
f 968 962 970 
f 963 968 970 
f 966 954 971 
f 963 966 971 
f 954 968 971 
f 968 963 971 
f 960 954 972 
f 966 959 972 
f 954 966 972 
f 956 955 973 
f 955 970 973 
f 970 962 973 
f 958 961 974 
f 961 956 974 
f 962 958 974 
f 956 973 974 
f 973 962 974 
f 964 963 975 
f 955 969 975 
f 969 964 975 
f 970 955 975 
f 963 970 975 
f 959 957 976 
f 957 967 976 
f 967 960 976 
f 960 972 976 
o convex_38
v -0.016251 -0.005261 0.053143
v -0.016252 -0.019029 0.033639
v -0.016825 -0.018453 0.033639
v -0.019693 -0.005261 0.034213
v -0.020840 -0.008703 0.036508
v -0.014530 -0.005261 0.051995
v -0.015678 -0.012719 0.050275
v -0.015104 -0.018453 0.033639
v -0.013956 -0.009851 0.053718
v -0.019692 -0.013866 0.035936
v -0.017398 -0.008703 0.050273
v -0.020266 -0.005261 0.039380
v -0.015678 -0.016734 0.042816
v -0.019692 -0.013293 0.033639
v -0.017398 -0.016159 0.040528
v -0.015104 -0.019029 0.037082
v -0.018545 -0.005836 0.047403
f 988 981 993 
f 980 977 982 
f 978 979 984 
f 980 982 984 
f 982 977 985 
f 984 982 985 
f 985 977 987 
f 983 985 987 
f 981 986 987 
f 977 980 988 
f 980 981 988 
f 985 983 989 
f 981 980 990 
f 984 979 990 
f 980 984 990 
f 979 986 990 
f 986 981 990 
f 979 978 991 
f 986 979 991 
f 983 987 991 
f 987 986 991 
f 989 983 991 
f 989 991 992 
f 978 984 992 
f 984 985 992 
f 985 989 992 
f 991 978 992 
f 987 977 993 
f 981 987 993 
f 977 988 993 
o convex_39
v -0.009940 -0.013294 0.053715
v -0.013956 -0.024767 0.022741
v -0.012808 -0.024767 0.022741
v -0.015103 -0.012148 0.045109
v -0.013956 -0.013294 0.053142
v -0.009940 -0.020749 0.042243
v -0.009366 -0.022470 0.028476
v -0.014529 -0.019030 0.026756
v -0.015103 -0.019027 0.038802
v -0.013382 -0.010424 0.051420
v -0.009366 -0.024767 0.029052
v -0.009366 -0.013866 0.050847
v -0.015103 -0.022470 0.022741
v -0.015103 -0.010424 0.053715
v -0.009366 -0.016735 0.050271
v -0.011661 -0.021896 0.037658
v -0.009940 -0.024191 0.024464
v -0.011661 -0.019603 0.030198
v -0.011661 -0.017880 0.047405
v -0.015103 -0.023618 0.025037
f 995 1009 1013 
f 1001 997 1003 
f 995 996 1004 
f 1004 1000 1005 
f 1003 994 1005 
f 996 995 1006 
f 997 1001 1006 
f 1002 997 1006 
f 998 994 1007 
f 997 1002 1007 
f 1002 998 1007 
f 994 1003 1007 
f 1003 997 1007 
f 994 998 1008 
f 999 1004 1008 
f 1004 1005 1008 
f 1005 994 1008 
f 995 1004 1009 
f 1004 999 1009 
f 1001 1000 1010 
f 1004 996 1010 
f 1000 1004 1010 
f 996 1006 1010 
f 1006 1001 1010 
f 1000 1001 1011 
f 1001 1003 1011 
f 1005 1000 1011 
f 1003 1005 1011 
f 998 1002 1012 
f 1008 998 1012 
f 999 1008 1012 
f 1009 999 1012 
f 1002 1009 1012 
f 1006 995 1013 
f 1002 1006 1013 
f 1009 1002 1013 
o convex_40
v 0.014728 -0.012717 0.039376
v 0.008993 0.004491 0.053718
v 0.008419 0.004491 0.053718
v 0.009566 -0.012717 0.053718
v 0.011861 -0.001246 0.053718
v 0.011861 0.004491 0.040524
v 0.014729 0.002769 0.040524
v 0.013007 -0.011570 0.050846
v 0.011288 -0.012717 0.045117
v 0.008993 0.003918 0.047981
v 0.014729 -0.005259 0.044541
v 0.013007 -0.012717 0.039950
v 0.010140 0.004491 0.052570
v 0.015303 -0.008702 0.041098
v 0.013582 0.004491 0.039950
v 0.010715 -0.012717 0.053718
f 1021 1018 1029 
f 1015 1016 1017 
f 1015 1017 1018 
f 1016 1015 1019 
f 1014 1017 1022 
f 1017 1016 1023 
f 1016 1019 1023 
f 1022 1017 1023 
f 1020 1018 1024 
f 1018 1021 1024 
f 1019 1014 1025 
f 1014 1022 1025 
f 1023 1019 1025 
f 1022 1023 1025 
f 1015 1018 1026 
f 1019 1015 1026 
f 1018 1020 1026 
f 1014 1020 1027 
f 1021 1014 1027 
f 1020 1024 1027 
f 1024 1021 1027 
f 1014 1019 1028 
f 1020 1014 1028 
f 1019 1026 1028 
f 1026 1020 1028 
f 1017 1014 1029 
f 1018 1017 1029 
f 1014 1021 1029 
o convex_41
v -0.017399 0.007935 0.034212
v -0.021414 0.001050 0.020443
v -0.020266 0.001050 0.020443
v -0.018546 0.007935 0.020443
v -0.020840 0.002198 0.034212
v -0.016251 0.007361 0.028475
v -0.019692 0.001624 0.034212
v -0.018546 0.007935 0.034212
v -0.019119 0.007361 0.022739
v -0.017973 0.006787 0.020443
f 1033 1035 1039 
f 1032 1031 1033 
f 1033 1030 1035 
f 1031 1032 1036 
f 1030 1034 1036 
f 1034 1031 1036 
f 1032 1035 1036 
f 1035 1030 1036 
f 1030 1033 1037 
f 1034 1030 1037 
f 1034 1037 1038 
f 1033 1031 1038 
f 1031 1034 1038 
f 1037 1033 1038 
f 1032 1033 1039 
f 1035 1032 1039 
o convex_42
v -0.019692 -0.005261 0.042245
v -0.013382 0.001050 0.053718
v -0.013956 0.001050 0.053718
v -0.020266 0.001050 0.034212
v -0.019692 -0.005261 0.034212
v -0.015104 -0.005261 0.053718
v -0.017971 -0.000671 0.047404
v -0.013382 -0.000097 0.051423
v -0.021414 0.000476 0.035360
v -0.018545 0.001050 0.036507
v -0.016252 -0.004687 0.053718
v -0.021414 -0.005261 0.034212
v -0.015677 0.001050 0.051996
v -0.015104 -0.004687 0.050274
f 1047 1045 1053 
f 1042 1041 1043 
f 1041 1042 1045 
f 1040 1044 1045 
f 1041 1045 1047 
f 1040 1046 1048 
f 1043 1041 1049 
f 1044 1043 1049 
f 1041 1047 1049 
f 1047 1044 1049 
f 1040 1045 1050 
f 1045 1042 1050 
f 1046 1040 1050 
f 1044 1040 1051 
f 1043 1044 1051 
f 1048 1043 1051 
f 1040 1048 1051 
f 1042 1043 1052 
f 1043 1048 1052 
f 1048 1046 1052 
f 1050 1042 1052 
f 1046 1050 1052 
f 1045 1044 1053 
f 1044 1047 1053 
o convex_43
v -0.021414 0.001050 0.031342
v -0.019693 -0.010424 0.020443
v -0.020267 -0.009850 0.020443
v -0.020267 -0.010424 0.034212
v -0.018546 -0.009276 0.029622
v -0.020267 0.001050 0.022166
v -0.021988 -0.005834 0.020443
v -0.020267 0.001050 0.034212
v -0.021988 -0.001245 0.033064
v -0.021988 0.000476 0.020443
v -0.018546 -0.010424 0.020443
v -0.021414 -0.008702 0.032491
v -0.019120 -0.010424 0.034212
v -0.019120 -0.004114 0.027901
f 1064 1059 1067 
f 1056 1055 1057 
f 1055 1056 1060 
f 1059 1054 1061 
f 1061 1054 1062 
f 1057 1061 1062 
f 1054 1059 1063 
f 1055 1060 1063 
f 1060 1062 1063 
f 1062 1054 1063 
f 1057 1055 1064 
f 1055 1063 1064 
f 1063 1059 1064 
f 1056 1057 1065 
f 1060 1056 1065 
f 1057 1062 1065 
f 1062 1060 1065 
f 1061 1057 1066 
f 1058 1061 1066 
f 1057 1064 1066 
f 1064 1058 1066 
f 1061 1058 1067 
f 1059 1061 1067 
f 1058 1064 1067 
o convex_44
v -0.017969 0.009083 0.034212
v 0.001534 0.011950 0.027331
v 0.001534 0.011377 0.027331
v -0.009366 0.008509 0.047981
v -0.016249 0.007935 0.020443
v -0.013955 0.011377 0.031350
v -0.005351 0.011950 0.043965
v -0.002483 0.009656 0.023314
v -0.015675 0.010229 0.021592
v -0.009366 0.007935 0.047981
v -0.000761 0.011950 0.023314
v 0.000384 0.011377 0.037078
v -0.009366 0.008509 0.020443
v -0.017969 0.007935 0.035358
v -0.015675 0.010803 0.034778
v -0.011088 0.008509 0.047981
v -0.018545 0.008509 0.020443
v -0.003057 0.011950 0.043965
v -0.011088 0.010229 0.020443
v 0.001534 0.011377 0.023314
v -0.017969 0.009656 0.026182
v -0.004203 0.011950 0.026182
f 1078 1076 1089 
f 1075 1070 1077 
f 1074 1069 1078 
f 1070 1069 1079 
f 1077 1070 1079 
f 1077 1072 1080 
f 1075 1077 1080 
f 1072 1077 1081 
f 1074 1073 1082 
f 1071 1074 1083 
f 1077 1071 1083 
f 1068 1081 1083 
f 1081 1077 1083 
f 1082 1068 1083 
f 1074 1082 1083 
f 1080 1072 1084 
f 1081 1068 1084 
f 1072 1081 1084 
f 1069 1074 1085 
f 1074 1071 1085 
f 1071 1077 1085 
f 1079 1069 1085 
f 1077 1079 1085 
f 1076 1078 1086 
f 1080 1084 1086 
f 1084 1076 1086 
f 1069 1070 1087 
f 1070 1075 1087 
f 1078 1069 1087 
f 1075 1080 1087 
f 1086 1078 1087 
f 1080 1086 1087 
f 1073 1076 1088 
f 1068 1082 1088 
f 1082 1073 1088 
f 1076 1084 1088 
f 1084 1068 1088 
f 1073 1074 1089 
f 1076 1073 1089 
f 1074 1078 1089 
o convex_45
v -0.000188 -0.018457 0.053718
v -0.008216 -0.024766 0.026180
v -0.008216 -0.024192 0.026180
v -0.009365 -0.013867 0.053718
v -0.000188 -0.024192 0.029051
v -0.006496 -0.024192 0.037081
v -0.008791 -0.019030 0.048551
v -0.008791 -0.013867 0.050848
v -0.000188 -0.024766 0.036507
v -0.000188 -0.017310 0.052570
v -0.009365 -0.024766 0.029051
v -0.001336 -0.019601 0.052570
v -0.009365 -0.022471 0.029051
v -0.001909 -0.023618 0.028477
v -0.009365 -0.016736 0.051996
v -0.009365 -0.023045 0.037081
v -0.001909 -0.024192 0.039375
f 1098 1101 1106 
f 1091 1092 1094 
f 1094 1090 1098 
f 1091 1094 1098 
f 1093 1090 1099 
f 1090 1094 1099 
f 1097 1093 1099 
f 1094 1097 1099 
f 1092 1091 1100 
f 1091 1098 1100 
f 1098 1095 1100 
f 1096 1095 1101 
f 1098 1090 1101 
f 1093 1097 1102 
f 1092 1100 1102 
f 1100 1093 1102 
f 1094 1092 1103 
f 1097 1094 1103 
f 1092 1102 1103 
f 1102 1097 1103 
f 1090 1093 1104 
f 1093 1100 1104 
f 1101 1090 1104 
f 1096 1101 1104 
f 1095 1096 1105 
f 1100 1095 1105 
f 1104 1100 1105 
f 1096 1104 1105 
f 1095 1098 1106 
f 1101 1095 1106 
o convex_46
v 0.014729 -0.012721 0.023886
v 0.007271 -0.024767 0.019870
v 0.007271 -0.024767 0.023886
v 0.012434 -0.007556 0.019870
v 0.011287 -0.021321 0.021018
v 0.014155 -0.006982 0.023886
v 0.014155 -0.009852 0.019870
v 0.011287 -0.021321 0.023886
v 0.010140 -0.013296 0.020444
v 0.008419 -0.024767 0.019870
v 0.015303 -0.006982 0.023311
f 1107 1113 1117 
f 1109 1107 1112 
f 1108 1110 1113 
f 1107 1111 1113 
f 1107 1109 1114 
f 1111 1107 1114 
f 1108 1109 1115 
f 1110 1108 1115 
f 1109 1112 1115 
f 1112 1110 1115 
f 1109 1108 1116 
f 1108 1113 1116 
f 1113 1111 1116 
f 1114 1109 1116 
f 1111 1114 1116 
f 1112 1107 1117 
f 1110 1112 1117 
f 1113 1110 1117 
o convex_47
v 0.005550 -0.017310 0.053716
v 0.001534 -0.024766 0.027904
v 0.005550 -0.024766 0.027904
v -0.000187 -0.024766 0.036510
v -0.000187 -0.017883 0.049699
v 0.004976 -0.021324 0.032495
v 0.004976 -0.022471 0.042816
v -0.000187 -0.018457 0.053716
v -0.000187 -0.023618 0.029627
v 0.005550 -0.016162 0.053140
v 0.002682 -0.019604 0.051419
v 0.003829 -0.024766 0.035363
v 0.005550 -0.023618 0.027904
v 0.003829 -0.016162 0.053140
f 1127 1123 1131 
f 1119 1120 1121 
f 1120 1118 1124 
f 1122 1121 1125 
f 1119 1121 1126 
f 1121 1122 1126 
f 1122 1123 1126 
f 1118 1120 1127 
f 1124 1118 1128 
f 1121 1124 1128 
f 1125 1121 1128 
f 1118 1125 1128 
f 1121 1120 1129 
f 1120 1124 1129 
f 1124 1121 1129 
f 1120 1119 1130 
f 1119 1126 1130 
f 1126 1123 1130 
f 1127 1120 1130 
f 1123 1127 1130 
f 1123 1122 1131 
f 1125 1118 1131 
f 1122 1125 1131 
f 1118 1127 1131 
o convex_48
v 0.013581 -0.003538 0.013559
v 0.011288 0.011951 0.023312
v 0.010714 0.011951 0.023312
v 0.013581 -0.006982 0.023312
v 0.010140 -0.006982 0.013559
v 0.015303 0.007360 0.013559
v 0.010140 0.011951 0.013559
v 0.016451 0.000478 0.021016
v 0.015303 0.006211 0.023312
v 0.010140 -0.002391 0.018722
v 0.015303 -0.006982 0.023312
v 0.010140 0.010802 0.022737
v 0.016451 -0.000670 0.019296
v 0.013581 0.010229 0.020443
v 0.011862 0.011951 0.013559
v 0.011862 -0.006982 0.013559
v 0.010140 -0.006982 0.017001
f 1141 1136 1148 
f 1133 1134 1135 
f 1132 1136 1137 
f 1134 1133 1138 
f 1137 1136 1138 
f 1139 1137 1140 
f 1133 1135 1140 
f 1138 1136 1141 
f 1135 1136 1142 
f 1139 1140 1142 
f 1140 1135 1142 
f 1135 1134 1143 
f 1134 1138 1143 
f 1141 1135 1143 
f 1138 1141 1143 
f 1132 1137 1144 
f 1137 1139 1144 
f 1142 1132 1144 
f 1139 1142 1144 
f 1140 1137 1145 
f 1133 1140 1145 
f 1138 1133 1146 
f 1137 1138 1146 
f 1133 1145 1146 
f 1145 1137 1146 
f 1136 1132 1147 
f 1132 1142 1147 
f 1142 1136 1147 
f 1136 1135 1148 
f 1135 1141 1148 
o convex_49
v -0.020267 0.001050 0.038232
v -0.009366 0.006214 0.053718
v -0.009366 0.005066 0.053718
v -0.015676 0.007361 0.035360
v -0.018545 0.007935 0.035360
v -0.015103 0.001624 0.051996
v -0.016250 0.001050 0.041672
v -0.010514 0.007935 0.042820
v -0.011662 0.007361 0.050849
v -0.020267 0.001050 0.034212
v -0.012809 0.001050 0.051423
v -0.010514 0.007361 0.042820
v -0.020267 0.003346 0.037657
v -0.009366 0.007935 0.049699
v -0.013957 0.001050 0.053718
v -0.012809 0.004493 0.053144
f 1154 1163 1164 
f 1152 1153 1156 
f 1153 1152 1158 
f 1155 1149 1158 
f 1149 1155 1159 
f 1152 1156 1160 
f 1158 1152 1160 
f 1155 1158 1160 
f 1151 1159 1160 
f 1159 1155 1160 
f 1154 1153 1161 
f 1149 1154 1161 
f 1158 1149 1161 
f 1153 1158 1161 
f 1150 1151 1162 
f 1156 1153 1162 
f 1157 1150 1162 
f 1153 1157 1162 
f 1151 1160 1162 
f 1160 1156 1162 
f 1151 1150 1163 
f 1154 1149 1163 
f 1149 1159 1163 
f 1159 1151 1163 
f 1153 1154 1164 
f 1150 1157 1164 
f 1157 1153 1164 
f 1163 1150 1164 
